<svg width="104" height="76" viewBox="0 0 104 76" fill="none" xmlns="http://www.w3.org/2000/svg">
<rect width="104" height="76" rx="8" fill="white"/>
<rect x="8" y="6" width="16" height="16" rx="4" fill="black" fill-opacity="0.1"/>
<path d="M33.4148 18L34.2926 15.5284H37.821L38.6989 18H39.8068L36.6023 9.27273H35.5114L32.3068 18H33.4148ZM34.625 14.5909L36.0227 10.6534H36.0909L37.4886 14.5909H34.625ZM42.956 18.1534C44.098 18.1534 44.6946 17.5398 44.8991 17.1136H44.9503V18H45.956V13.6875C45.956 11.608 44.3707 11.3693 43.5355 11.3693C42.5469 11.3693 41.4219 11.7102 40.9105 12.9034L41.8651 13.2443C42.0866 12.767 42.6108 12.2557 43.5696 12.2557C44.4943 12.2557 44.9503 12.7457 44.9503 13.5852V13.6193C44.9503 14.1051 44.456 14.0625 43.2628 14.2159C42.0483 14.3736 40.723 14.642 40.723 16.142C40.723 17.4205 41.7116 18.1534 42.956 18.1534ZM43.1094 17.25C42.3082 17.25 41.7287 16.892 41.7287 16.1932C41.7287 15.4261 42.4276 15.1875 43.2116 15.0852C43.6378 15.0341 44.7798 14.9148 44.9503 14.7102V15.6307C44.9503 16.4489 44.3026 17.25 43.1094 17.25Z" fill="#262626"/>
<rect y="26" width="104" height="1" fill="black" fill-opacity="0.06"/>
<rect x="8" y="30" width="16" height="16" rx="4" fill="black" fill-opacity="0.1"/>
<path d="M33.4148 42H32.3068L35.5114 33.2727H36.6023L39.8068 42H38.6989L36.0909 34.6534H36.0227L33.4148 42ZM33.8239 38.5909H38.2898V39.5284H33.8239V38.5909ZM42.956 42.1534C42.5412 42.1534 42.1648 42.0753 41.8267 41.919C41.4886 41.7599 41.2202 41.5312 41.0213 41.233C40.8224 40.9318 40.723 40.5682 40.723 40.142C40.723 39.767 40.7969 39.4631 40.9446 39.2301C41.0923 38.9943 41.2898 38.8097 41.5369 38.6761C41.7841 38.5426 42.0568 38.4432 42.3551 38.3778C42.6563 38.3097 42.9588 38.2557 43.2628 38.2159C43.6605 38.1648 43.983 38.1264 44.2301 38.1009C44.4801 38.0724 44.6619 38.0256 44.7756 37.9602C44.892 37.8949 44.9503 37.7812 44.9503 37.6193V37.5852C44.9503 37.1648 44.8352 36.8381 44.6051 36.6051C44.3778 36.3722 44.0327 36.2557 43.5696 36.2557C43.0895 36.2557 42.7131 36.3608 42.4403 36.571C42.1676 36.7812 41.9759 37.0057 41.8651 37.2443L40.9105 36.9034C41.081 36.5057 41.3082 36.196 41.5923 35.9744C41.8793 35.75 42.1918 35.5937 42.5298 35.5057C42.8707 35.4148 43.206 35.3693 43.5355 35.3693C43.7457 35.3693 43.9872 35.3949 44.2599 35.446C44.5355 35.4943 44.8011 35.5952 45.0568 35.7486C45.3153 35.902 45.5298 36.1335 45.7003 36.4432C45.8707 36.7528 45.956 37.1676 45.956 37.6875V42H44.9503V41.1136H44.8991C44.831 41.2557 44.7173 41.4077 44.5582 41.5696C44.3991 41.7315 44.1875 41.8693 43.9233 41.983C43.6591 42.0966 43.3366 42.1534 42.956 42.1534ZM43.1094 41.25C43.5071 41.25 43.8423 41.1719 44.1151 41.0156C44.3906 40.8594 44.598 40.6577 44.7372 40.4105C44.8793 40.1634 44.9503 39.9034 44.9503 39.6307V38.7102C44.9077 38.7614 44.8139 38.8082 44.669 38.8509C44.527 38.8906 44.3622 38.9261 44.1747 38.9574C43.9901 38.9858 43.8097 39.0114 43.6335 39.0341C43.4602 39.054 43.3196 39.071 43.2116 39.0852C42.9503 39.1193 42.706 39.1747 42.4787 39.2514C42.2543 39.3253 42.0724 39.4375 41.9332 39.5881C41.7969 39.7358 41.7287 39.9375 41.7287 40.1932C41.7287 40.5426 41.858 40.8068 42.1165 40.9858C42.3778 41.1619 42.7088 41.25 43.1094 41.25Z" fill="#262626"/>
<rect y="50" width="104" height="1" fill="black" fill-opacity="0.06"/>
<rect x="8" y="54" width="16" height="16" rx="4" fill="black" fill-opacity="0.1"/>
<path d="M33.4148 66H32.3068L35.5114 57.2727H36.6023L39.8068 66H38.6989L36.0909 58.6534H36.0227L33.4148 66ZM33.8239 62.5909H38.2898V63.5284H33.8239V62.5909ZM42.956 66.1534C42.5412 66.1534 42.1648 66.0753 41.8267 65.919C41.4886 65.7599 41.2202 65.5312 41.0213 65.233C40.8224 64.9318 40.723 64.5682 40.723 64.142C40.723 63.767 40.7969 63.4631 40.9446 63.2301C41.0923 62.9943 41.2898 62.8097 41.5369 62.6761C41.7841 62.5426 42.0568 62.4432 42.3551 62.3778C42.6563 62.3097 42.9588 62.2557 43.2628 62.2159C43.6605 62.1648 43.983 62.1264 44.2301 62.1009C44.4801 62.0724 44.6619 62.0256 44.7756 61.9602C44.892 61.8949 44.9503 61.7812 44.9503 61.6193V61.5852C44.9503 61.1648 44.8352 60.8381 44.6051 60.6051C44.3778 60.3722 44.0327 60.2557 43.5696 60.2557C43.0895 60.2557 42.7131 60.3608 42.4403 60.571C42.1676 60.7812 41.9759 61.0057 41.8651 61.2443L40.9105 60.9034C41.081 60.5057 41.3082 60.196 41.5923 59.9744C41.8793 59.75 42.1918 59.5937 42.5298 59.5057C42.8707 59.4148 43.206 59.3693 43.5355 59.3693C43.7457 59.3693 43.9872 59.3949 44.2599 59.446C44.5355 59.4943 44.8011 59.5952 45.0568 59.7486C45.3153 59.902 45.5298 60.1335 45.7003 60.4432C45.8707 60.7528 45.956 61.1676 45.956 61.6875V66H44.9503V65.1136H44.8991C44.831 65.2557 44.7173 65.4077 44.5582 65.5696C44.3991 65.7315 44.1875 65.8693 43.9233 65.983C43.6591 66.0966 43.3366 66.1534 42.956 66.1534ZM43.1094 65.25C43.5071 65.25 43.8423 65.1719 44.1151 65.0156C44.3906 64.8594 44.598 64.6577 44.7372 64.4105C44.8793 64.1634 44.9503 63.9034 44.9503 63.6307V62.7102C44.9077 62.7614 44.8139 62.8082 44.669 62.8509C44.527 62.8906 44.3622 62.9261 44.1747 62.9574C43.9901 62.9858 43.8097 63.0114 43.6335 63.0341C43.4602 63.054 43.3196 63.071 43.2116 63.0852C42.9503 63.1193 42.706 63.1747 42.4787 63.2514C42.2543 63.3253 42.0724 63.4375 41.9332 63.5881C41.7969 63.7358 41.7287 63.9375 41.7287 64.1932C41.7287 64.5426 41.858 64.8068 42.1165 64.9858C42.3778 65.1619 42.7088 65.25 43.1094 65.25Z" fill="#262626"/>
</svg>
