<svg width="400" height="192" viewBox="0 0 420 192" fill="none" xmlns="http://www.w3.org/2000/svg"><g clip-path="url(#clip0_2144_347207)"><rect x="0.5" width="283" height="48" rx="8" /><rect width="283" height="32" transform="translate(0.5 8)" /><rect width="32" height="32" transform="translate(0.5 8)" fill="black" fill-opacity="0.01"/><mask id="mask0_2144_347207" style="mask-type:luminance" maskUnits="userSpaceOnUse" x="1" y="9" width="31" height="30"><rect x="1.5" y="9" width="30" height="30" rx="6" fill="white"/></mask><g mask="url(#mask0_2144_347207)"><rect x="1.5" y="9" width="30" height="30" fill="white"/><rect width="30" height="30" transform="translate(1.5 9)" fill="black" fill-opacity="0.13"/></g></g><rect x="43.5" y="10" width="64" height="12" rx="3" fill="black" fill-opacity="0.13"/><rect x="43.5" y="28" width="172" height="10" rx="3" fill="#EDEDED"/><g opacity="0.6"><g clip-path="url(#clip1_2144_347207)"><rect x="0.5" y="48" width="283" height="48" rx="8" /><rect width="283" height="32" transform="translate(0.5 56)" /><rect width="32" height="32" transform="translate(0.5 56)" fill="black" fill-opacity="0.01"/><mask id="mask1_2144_347207" style="mask-type:luminance" maskUnits="userSpaceOnUse" x="1" y="57" width="31" height="30"><rect x="1.5" y="57" width="30" height="30" rx="6" fill="white"/></mask><g mask="url(#mask1_2144_347207)"><rect x="1.5" y="57" width="30" height="30" fill="white"/><rect width="30" height="30" transform="translate(1.5 57)" fill="black" fill-opacity="0.13"/></g></g><rect x="43.5" y="58" width="64" height="12" rx="3" fill="black" fill-opacity="0.13"/><rect x="43.5" y="76" width="172" height="10" rx="3" fill="#EDEDED"/></g><g opacity="0.3"><g clip-path="url(#clip2_2144_347207)"><rect x="0.5" y="96" width="283" height="48" rx="8" /><rect width="283" height="32" transform="translate(0.5 104)" /><rect width="32" height="32" transform="translate(0.5 104)" fill="black" fill-opacity="0.01"/><mask id="mask2_2144_347207" style="mask-type:luminance" maskUnits="userSpaceOnUse" x="1" y="105" width="31" height="30"><rect x="1.5" y="105" width="30" height="30" rx="6" fill="white"/></mask><g mask="url(#mask2_2144_347207)"><rect x="1.5" y="105" width="30" height="30" fill="white"/><rect width="30" height="30" transform="translate(1.5 105)" fill="black" fill-opacity="0.13"/></g></g><rect x="43.5" y="106" width="64" height="12" rx="3" fill="black" fill-opacity="0.13"/><rect x="43.5" y="124" width="172" height="10" rx="3" fill="#EDEDED"/></g><g opacity="0.1"><g clip-path="url(#clip3_2144_347207)"><rect x="0.5" y="144" width="283" height="48" rx="8" /><rect width="283" height="32" transform="translate(0.5 152)" /><rect width="32" height="32" transform="translate(0.5 152)" fill="black" fill-opacity="0.01"/><mask id="mask3_2144_347207" style="mask-type:luminance" maskUnits="userSpaceOnUse" x="1" y="153" width="31" height="30"><rect x="1.5" y="153" width="30" height="30" rx="6" fill="white"/></mask><g mask="url(#mask3_2144_347207)"><rect x="1.5" y="153" width="30" height="30" fill="white"/><rect width="30" height="30" transform="translate(1.5 153)" fill="black" fill-opacity="0.13"/></g></g><rect x="43.5" y="154" width="64" height="12" rx="3" fill="black" fill-opacity="0.13"/><rect x="43.5" y="172" width="172" height="10" rx="3" fill="#EDEDED"/></g><defs><clipPath id="clip0_2144_347207"><rect x="0.5" width="283" height="48" rx="8" fill="white"/></clipPath><clipPath id="clip1_2144_347207"><rect x="0.5" y="48" width="283" height="48" rx="8" fill="white"/></clipPath><clipPath id="clip2_2144_347207"><rect x="0.5" y="96" width="283" height="48" rx="8" fill="white"/></clipPath><clipPath id="clip3_2144_347207"><rect x="0.5" y="144" width="283" height="48" rx="8" fill="white"/></clipPath></defs></svg>
