<svg width="104" height="76" viewBox="0 0 104 76" fill="none" xmlns="http://www.w3.org/2000/svg">
<g clip-path="url(#clip0_5693_334949)">
<rect width="104" height="76" rx="8" fill="#262626"/>
<rect x="8" y="9" width="16" height="16" rx="4" fill="white" fill-opacity="0.12"/>
<path d="M33.6506 22H32.358L36.0966 11.8182H37.3693L41.108 22H39.8153L36.7727 13.429H36.6932L33.6506 22ZM34.1278 18.0227H39.3381V19.1165H34.1278V18.0227ZM44.782 22.179C44.2981 22.179 43.8589 22.0878 43.4645 21.9055C43.0701 21.7199 42.7569 21.4531 42.5249 21.1051C42.2929 20.7538 42.1768 20.3295 42.1768 19.8324C42.1768 19.3949 42.263 19.0402 42.4354 18.7685C42.6077 18.4934 42.8381 18.2779 43.1264 18.1222C43.4148 17.9664 43.733 17.8504 44.081 17.7741C44.4323 17.6946 44.7853 17.6316 45.1399 17.5852C45.6039 17.5256 45.9801 17.4808 46.2685 17.451C46.5601 17.4179 46.7723 17.3632 46.9048 17.2869C47.0407 17.2107 47.1087 17.0781 47.1087 16.8892V16.8494C47.1087 16.3589 46.9744 15.9777 46.706 15.706C46.4408 15.4342 46.0381 15.2983 45.4979 15.2983C44.9377 15.2983 44.4986 15.4209 44.1804 15.6662C43.8622 15.9115 43.6385 16.1733 43.5092 16.4517L42.3956 16.054C42.5945 15.59 42.8596 15.2287 43.1911 14.9702C43.5258 14.7083 43.8904 14.526 44.2848 14.4233C44.6825 14.3172 45.0736 14.2642 45.4581 14.2642C45.7034 14.2642 45.9851 14.294 46.3033 14.3537C46.6248 14.41 46.9347 14.5277 47.233 14.7067C47.5346 14.8857 47.7848 15.1558 47.9837 15.517C48.1825 15.8783 48.282 16.3622 48.282 16.9688V22H47.1087V20.9659H47.049C46.9695 21.1316 46.8369 21.3089 46.6513 21.4979C46.4657 21.6868 46.2188 21.8475 45.9105 21.9801C45.6023 22.1127 45.2261 22.179 44.782 22.179ZM44.9609 21.125C45.425 21.125 45.8161 21.0339 46.1342 20.8516C46.4557 20.6693 46.6977 20.4339 46.8601 20.1456C47.0258 19.8572 47.1087 19.554 47.1087 19.2358V18.1619C47.0589 18.2216 46.9496 18.2763 46.7805 18.326C46.6148 18.3724 46.4226 18.4138 46.2038 18.4503C45.9884 18.4834 45.7779 18.5133 45.5724 18.5398C45.3703 18.563 45.2062 18.5829 45.0803 18.5994C44.7753 18.6392 44.4903 18.7038 44.2251 18.7933C43.9633 18.8795 43.7512 19.0104 43.5888 19.1861C43.4297 19.3584 43.3501 19.5937 43.3501 19.892C43.3501 20.2997 43.5009 20.608 43.8026 20.8168C44.1075 21.0223 44.4936 21.125 44.9609 21.125Z" fill="white"/>
<rect y="32" width="104" height="1.07143" fill="white" fill-opacity="0.08"/>
<rect x="8" y="39" width="16" height="16" rx="4" fill="white" fill-opacity="0.12"/>
<path d="M33.6506 52H32.358L36.0966 41.8182H37.3693L41.108 52H39.8153L36.7727 43.429H36.6932L33.6506 52ZM34.1278 48.0227H39.3381V49.1165H34.1278V48.0227ZM44.782 52.179C44.2981 52.179 43.8589 52.0878 43.4645 51.9055C43.0701 51.7199 42.7569 51.4531 42.5249 51.1051C42.2929 50.7538 42.1768 50.3295 42.1768 49.8324C42.1768 49.3949 42.263 49.0402 42.4354 48.7685C42.6077 48.4934 42.8381 48.2779 43.1264 48.1222C43.4148 47.9664 43.733 47.8504 44.081 47.7741C44.4323 47.6946 44.7853 47.6316 45.1399 47.5852C45.6039 47.5256 45.9801 47.4808 46.2685 47.451C46.5601 47.4179 46.7723 47.3632 46.9048 47.2869C47.0407 47.2107 47.1087 47.0781 47.1087 46.8892V46.8494C47.1087 46.3589 46.9744 45.9777 46.706 45.706C46.4408 45.4342 46.0381 45.2983 45.4979 45.2983C44.9377 45.2983 44.4986 45.4209 44.1804 45.6662C43.8622 45.9115 43.6385 46.1733 43.5092 46.4517L42.3956 46.054C42.5945 45.59 42.8596 45.2287 43.1911 44.9702C43.5258 44.7083 43.8904 44.526 44.2848 44.4233C44.6825 44.3172 45.0736 44.2642 45.4581 44.2642C45.7034 44.2642 45.9851 44.294 46.3033 44.3537C46.6248 44.41 46.9347 44.5277 47.233 44.7067C47.5346 44.8857 47.7848 45.1558 47.9837 45.517C48.1825 45.8783 48.282 46.3622 48.282 46.9688V52H47.1087V50.9659H47.049C46.9695 51.1316 46.8369 51.3089 46.6513 51.4979C46.4657 51.6868 46.2188 51.8475 45.9105 51.9801C45.6023 52.1127 45.2261 52.179 44.782 52.179ZM44.9609 51.125C45.425 51.125 45.8161 51.0339 46.1342 50.8516C46.4557 50.6693 46.6977 50.4339 46.8601 50.1456C47.0258 49.8572 47.1087 49.554 47.1087 49.2358V48.1619C47.0589 48.2216 46.9496 48.2763 46.7805 48.326C46.6148 48.3724 46.4226 48.4138 46.2038 48.4503C45.9884 48.4834 45.7779 48.5133 45.5724 48.5398C45.3703 48.563 45.2062 48.5829 45.0803 48.5994C44.7753 48.6392 44.4903 48.7038 44.2251 48.7933C43.9633 48.8795 43.7512 49.0104 43.5888 49.1861C43.4297 49.3584 43.3501 49.5937 43.3501 49.892C43.3501 50.2997 43.5009 50.608 43.8026 50.8168C44.1075 51.0223 44.4936 51.125 44.9609 51.125Z" fill="white"/>
<rect y="62" width="104" height="1.07143" fill="white" fill-opacity="0.08"/>
<rect x="8" y="69" width="16" height="16" rx="4" fill="white" fill-opacity="0.12"/>
<path d="M33.6506 82H32.358L36.0966 71.8182H37.3693L41.108 82H39.8153L36.7727 73.429H36.6932L33.6506 82ZM34.1278 78.0227H39.3381V79.1165H34.1278V78.0227ZM44.782 82.179C44.2981 82.179 43.8589 82.0878 43.4645 81.9055C43.0701 81.7199 42.7569 81.4531 42.5249 81.1051C42.2929 80.7538 42.1768 80.3295 42.1768 79.8324C42.1768 79.3949 42.263 79.0402 42.4354 78.7685C42.6077 78.4934 42.8381 78.2779 43.1264 78.1222C43.4148 77.9664 43.733 77.8504 44.081 77.7741C44.4323 77.6946 44.7853 77.6316 45.1399 77.5852C45.6039 77.5256 45.9801 77.4808 46.2685 77.451C46.5601 77.4179 46.7723 77.3632 46.9048 77.2869C47.0407 77.2107 47.1087 77.0781 47.1087 76.8892V76.8494C47.1087 76.3589 46.9744 75.9777 46.706 75.706C46.4408 75.4342 46.0381 75.2983 45.4979 75.2983C44.9377 75.2983 44.4986 75.4209 44.1804 75.6662C43.8622 75.9115 43.6385 76.1733 43.5092 76.4517L42.3956 76.054C42.5945 75.59 42.8596 75.2287 43.1911 74.9702C43.5258 74.7083 43.8904 74.526 44.2848 74.4233C44.6825 74.3172 45.0736 74.2642 45.4581 74.2642C45.7034 74.2642 45.9851 74.294 46.3033 74.3537C46.6248 74.41 46.9347 74.5277 47.233 74.7067C47.5346 74.8857 47.7848 75.1558 47.9837 75.517C48.1825 75.8783 48.282 76.3622 48.282 76.9688V82H47.1087V80.9659H47.049C46.9695 81.1316 46.8369 81.3089 46.6513 81.4979C46.4657 81.6868 46.2188 81.8475 45.9105 81.9801C45.6023 82.1127 45.2261 82.179 44.782 82.179ZM44.9609 81.125C45.425 81.125 45.8161 81.0339 46.1342 80.8516C46.4557 80.6693 46.6977 80.4339 46.8601 80.1456C47.0258 79.8572 47.1087 79.554 47.1087 79.2358V78.1619C47.0589 78.2216 46.9496 78.2763 46.7805 78.326C46.6148 78.3724 46.4226 78.4138 46.2038 78.4503C45.9884 78.4834 45.7779 78.5133 45.5724 78.5398C45.3703 78.563 45.2062 78.5829 45.0803 78.5994C44.7753 78.6392 44.4903 78.7038 44.2251 78.7933C43.9633 78.8795 43.7512 79.0104 43.5888 79.1861C43.4297 79.3584 43.3501 79.5937 43.3501 79.892C43.3501 80.2997 43.5009 80.608 43.8026 80.8168C44.1075 81.0223 44.4936 81.125 44.9609 81.125Z" fill="white"/>
</g>
<defs>
<clipPath id="clip0_5693_334949">
<rect width="104" height="76" rx="8" fill="white"/>
</clipPath>
</defs>
</svg>
