<svg width="400" height="104" viewBox="0 0 400 104" fill="none" xmlns="http://www.w3.org/2000/svg">
<path opacity="0.5" fill-rule="evenodd" clip-rule="evenodd" d="M278.243 20.7536L276.276 25.3582L278.186 29.9999C278.496 30.7517 278.137 31.612 277.385 31.9214C277.171 32.0098 276.938 32.0461 276.706 32.0274L271.646 31.6181L267.77 34.8945C267.149 35.4193 266.22 35.3414 265.695 34.7204C265.546 34.5431 265.44 34.3329 265.387 34.1069L264.239 29.2203L259.961 26.6189C259.266 26.1965 259.045 25.291 259.468 24.5963C259.591 24.3945 259.76 24.2252 259.962 24.1026L264.29 21.477L265.505 16.5727C265.7 15.7835 266.498 15.3023 267.287 15.4977C267.51 15.5528 267.716 15.6589 267.89 15.8077L271.73 19.0901L276.778 18.7074C277.589 18.646 278.296 19.2534 278.357 20.064C278.375 20.2997 278.336 20.5362 278.243 20.7536Z" fill="#E6E6E8"/>
<g opacity="0.5">
<rect width="21.682" height="21.682" transform="translate(14.3381 30.876) rotate(15.9166)" fill="black" fill-opacity="0.01"/>
<path fill-rule="evenodd" clip-rule="evenodd" d="M24.8729 34.0453C21.2742 33.0191 17.5251 35.1044 16.4989 38.703L15.7558 41.3087L15.7556 41.3087C14.3161 40.8982 12.8164 41.7323 12.406 43.1717L10.5478 49.6876C10.1373 51.1271 10.9715 52.6267 12.4109 53.0372L25.4427 56.7535C26.8821 57.164 28.3818 56.3298 28.7923 54.8904L30.6504 48.3745C31.0609 46.9352 30.2268 45.4356 28.7875 45.025L29.5306 42.4193C30.5568 38.8207 28.4715 35.0715 24.8729 34.0453ZM26.1812 44.2817L26.9242 41.6761C27.54 39.5169 26.2888 37.2674 24.1296 36.6517C21.9704 36.0359 19.7209 37.2871 19.1052 39.4463L18.3621 42.052L26.1812 44.2817ZM19.6675 47.3568C19.8727 46.6371 20.6226 46.22 21.3423 46.4253C22.062 46.6305 22.4791 47.3803 22.2738 48.1001L21.5306 50.7064C21.3253 51.4261 20.5755 51.8432 19.8558 51.6379C19.1361 51.4327 18.719 50.6829 18.9242 49.9631L19.6675 47.3568Z" fill="#E6E6E8"/>
</g>
<g opacity="0.5">
<rect width="20.289" height="20.289" transform="translate(125.161 22.0361) rotate(-24.435)" fill="black" fill-opacity="0.01"/>
<path fill-rule="evenodd" clip-rule="evenodd" d="M142.789 36.3114C147.89 33.9939 150.146 27.98 147.829 22.8792C145.511 17.7784 139.497 15.5222 134.396 17.8398C129.296 20.1574 127.039 26.1712 129.357 31.272C131.675 36.3728 137.688 38.629 142.789 36.3114ZM135.97 21.3034C136.289 21.1585 136.665 21.2995 136.809 21.6183L137.087 22.2302C137.948 21.953 138.789 21.9117 139.461 22.1296C140.034 22.3087 140.44 22.6264 140.627 23.0361C140.813 23.4459 140.651 23.857 140.224 24.0511C139.947 24.1765 139.658 24.1669 139.329 24.0023C138.84 23.7032 138.306 23.5921 137.751 23.6909L138.842 26.0912L139.36 25.9893C141.171 25.6135 142.304 26.0482 142.898 27.3555C143.59 28.8781 142.952 30.4008 141.254 31.3996L141.53 32.0087C141.675 32.3275 141.534 32.7033 141.215 32.8482C140.897 32.993 140.521 32.852 140.376 32.5332L140.103 31.9324C139.126 32.2763 138.179 32.3453 137.469 32.1058C136.883 31.9167 136.48 31.6215 136.311 31.2508C136.11 30.8085 136.277 30.3559 136.678 30.1738C136.974 30.0394 137.273 30.0525 137.742 30.2474C138.294 30.4975 138.864 30.5656 139.431 30.4532L138.304 27.9733L137.807 28.0681C136.103 28.4186 134.965 27.955 134.379 26.6672C133.706 25.1862 134.318 23.6897 135.929 22.7469L135.655 22.1429C135.51 21.8241 135.651 21.4482 135.97 21.3034ZM136.111 25.7154C135.867 25.1775 136.055 24.6247 136.593 24.2063L137.559 26.3334C136.815 26.4207 136.333 26.2036 136.111 25.7154ZM140.6 29.9612L139.588 27.7339C140.48 27.6077 140.986 27.8062 141.232 28.3479C141.502 28.9412 141.274 29.5116 140.6 29.9612Z" fill="#E6E6E8"/>
</g>
<g opacity="0.5">
<rect width="28.9715" height="28.9715" transform="translate(68.5937 75.7119) rotate(-13.2356)" fill="black" fill-opacity="0.01"/>
<path fill-rule="evenodd" clip-rule="evenodd" d="M70.6665 84.5247C69.9796 81.6043 71.7902 78.68 74.7106 77.9931L92.3368 73.8473C95.2572 73.1604 98.1815 74.9711 98.8684 77.8915L101.356 88.4672C102.043 91.3876 100.232 94.3119 97.3117 94.9988L79.6855 99.1445C76.7651 99.8314 73.8408 98.0208 73.1539 95.1004L71.4957 88.0503L99.6976 81.4171L98.8684 77.8919L70.6666 84.5251L70.6665 84.5247ZM90.7802 90.9549C90.5512 89.9814 91.1548 89.0066 92.1282 88.7777L95.6535 87.9485C96.6269 87.7195 97.6017 88.3231 97.8307 89.2966C98.0596 90.27 97.4561 91.2448 96.4826 91.4737L92.9574 92.3029C91.9839 92.5319 91.0091 91.9283 90.7802 90.9549Z" fill="#E6E6E8"/>
</g>
<g opacity="0.5">
<rect width="24.1738" height="24.1738" transform="translate(311.397 57.5674) rotate(17.6045)" fill="black" fill-opacity="0.01"/>
<g clip-path="url(#clip0_5516_252752)">
<path fill-rule="evenodd" clip-rule="evenodd" d="M318.233 83.6961C316.637 84.7356 314.489 84.0573 313.779 82.2897L310.236 73.4625L314.871 74.9332L315.983 77.8228C316.126 78.1952 316.455 78.4647 316.848 78.5325C317.241 78.6002 317.641 78.4562 317.901 78.1532L323.513 71.6058L323.993 77.0961C324.033 77.5519 324.343 77.939 324.78 78.0773L326.178 78.521L318.233 83.6961ZM328.703 76.9445L326.185 76.1457L325.536 68.723C325.496 68.2686 325.187 67.8823 324.753 67.7429C324.319 67.6035 323.843 67.738 323.546 68.0844L317.416 75.2366L316.79 73.6108C316.667 73.2896 316.404 73.0419 316.075 72.9378L309.088 70.7207C308.422 69.1957 308.27 67.4233 308.814 65.7085C309.984 62.0187 313.906 59.948 317.54 61.101C319.492 61.7203 320.773 63.7827 321.547 65.5427C323.194 64.5508 325.43 63.6046 327.382 64.2239C331.016 65.3769 333.026 69.3299 331.855 73.0198C331.312 74.7316 330.158 76.1164 328.703 76.9445Z" fill="#E6E6E8"/>
</g>
</g>
<defs>
<clipPath id="clip0_5516_252752">
<rect width="24.1738" height="24.1738" fill="white" transform="translate(311.397 57.5674) rotate(17.6045)"/>
</clipPath>
</defs>
</svg>