<svg width="400" height="192" viewBox="0 0 419 192" fill="none" xmlns="http://www.w3.org/2000/svg"><rect width="283" height="48" rx="8" /><rect width="283" height="32" transform="translate(0 8)" /><rect width="32" height="32" transform="translate(0 8)" fill="black" fill-opacity="0.01"/><mask id="mask0_2144_356255" style="mask-type:luminance" maskUnits="userSpaceOnUse" x="1" y="9" width="30" height="30"><rect x="1" y="9" width="30" height="30" rx="6" fill="white"/></mask><g mask="url(#mask0_2144_356255)"><rect x="1" y="9" width="30" height="30" fill="white"/><rect width="30" height="30" transform="translate(1 9)" fill="#141414" fill-opacity="0.7"/></g><rect x="43" y="10" width="64" height="12" rx="3" fill="white" fill-opacity="0.19"/><rect x="43" y="28" width="172" height="10" rx="3" fill="white" fill-opacity="0.28"/><g opacity="0.6"><rect y="48" width="283" height="48" rx="8" /><rect width="283" height="32" transform="translate(0 56)" /><rect width="32" height="32" transform="translate(0 56)" fill="black" fill-opacity="0.01"/><mask id="mask1_2144_356255" style="mask-type:luminance" maskUnits="userSpaceOnUse" x="1" y="57" width="30" height="30"><rect x="1" y="57" width="30" height="30" rx="6" fill="white"/></mask><g mask="url(#mask1_2144_356255)"><rect x="1" y="57" width="30" height="30" fill="white"/><rect width="30" height="30" transform="translate(1 57)" fill="#141414" fill-opacity="0.7"/></g><rect x="43" y="58" width="64" height="12" rx="3" fill="white" fill-opacity="0.19"/><rect x="43" y="76" width="172" height="10" rx="3" fill="white" fill-opacity="0.28"/></g><g opacity="0.3"><rect y="96" width="283" height="48" rx="8" /><rect width="283" height="32" transform="translate(0 104)" /><rect width="32" height="32" transform="translate(0 104)" fill="black" fill-opacity="0.01"/><mask id="mask2_2144_356255" style="mask-type:luminance" maskUnits="userSpaceOnUse" x="1" y="105" width="30" height="30"><rect x="1" y="105" width="30" height="30" rx="6" fill="white"/></mask><g mask="url(#mask2_2144_356255)"><rect x="1" y="105" width="30" height="30" fill="white"/><rect width="30" height="30" transform="translate(1 105)" fill="#141414" fill-opacity="0.7"/></g><rect x="43" y="106" width="64" height="12" rx="3" fill="white" fill-opacity="0.19"/><rect x="43" y="124" width="172" height="10" rx="3" fill="white" fill-opacity="0.28"/></g><g opacity="0.1"><rect y="144" width="283" height="48" rx="8" /><rect width="283" height="32" transform="translate(0 152)" /><rect width="32" height="32" transform="translate(0 152)" fill="black" fill-opacity="0.01"/><mask id="mask3_2144_356255" style="mask-type:luminance" maskUnits="userSpaceOnUse" x="1" y="153" width="30" height="30"><rect x="1" y="153" width="30" height="30" rx="6" fill="white"/></mask><g mask="url(#mask3_2144_356255)"><rect x="1" y="153" width="30" height="30" fill="white"/><rect width="30" height="30" transform="translate(1 153)" fill="#141414" fill-opacity="0.7"/></g><rect x="43" y="154" width="64" height="12" rx="3" fill="white" fill-opacity="0.19"/><rect x="43" y="172" width="172" height="10" rx="3" fill="white" fill-opacity="0.28"/></g></svg>