<svg width="400" height="105" viewBox="0 0 400 105" fill="none" xmlns="http://www.w3.org/2000/svg">
<path opacity="0.5" fill-rule="evenodd" clip-rule="evenodd" d="M278.243 21.3649L276.276 25.9695L278.186 30.6113C278.496 31.3631 278.137 32.2234 277.385 32.5327C277.171 32.6211 276.938 32.6574 276.706 32.6387L271.646 32.2294L267.77 35.5058C267.149 36.0306 266.22 35.9527 265.695 35.3318C265.546 35.1545 265.44 34.9442 265.387 34.7182L264.239 29.8316L259.961 27.2303C259.266 26.8078 259.045 25.9023 259.468 25.2076C259.591 25.0058 259.76 24.8365 259.962 24.714L264.29 22.0884L265.505 17.184C265.7 16.3949 266.498 15.9136 267.287 16.1091C267.51 16.1641 267.716 16.2702 267.89 16.419L271.73 19.7014L276.778 19.3188C277.589 19.2573 278.296 19.8647 278.357 20.6754C278.375 20.911 278.336 21.1475 278.243 21.3649Z" fill="white" fill-opacity="0.12"/>
<g opacity="0.5">
<rect width="21.682" height="21.682" transform="translate(14.3381 31.4873) rotate(15.9166)" fill="black" fill-opacity="0.01"/>
<path fill-rule="evenodd" clip-rule="evenodd" d="M24.8729 34.6571C21.2743 33.6309 17.5251 35.7162 16.4989 39.3149L15.7559 41.9205L15.7556 41.9205C14.3162 41.51 12.8165 42.3441 12.406 43.7836L10.5479 50.2994C10.1374 51.7389 10.9715 53.2385 12.411 53.649L25.4427 57.3653C26.8822 57.7758 28.3818 56.9417 28.7923 55.5022L30.6505 48.9863C31.0609 47.547 30.2269 46.0474 28.7876 45.6368L29.5307 43.0311C30.5569 39.4325 28.4715 35.6833 24.8729 34.6571ZM26.1813 44.8936L26.9243 42.2879C27.54 40.1287 26.2888 37.8792 24.1297 37.2635C21.9705 36.6477 19.721 37.8989 19.1053 40.0581L18.3622 42.6638L26.1813 44.8936ZM19.6676 47.9686C19.8728 47.2489 20.6226 46.8318 21.3424 47.0371C22.0621 47.2423 22.4792 47.9921 22.2739 48.7119L21.5307 51.3182C21.3254 52.0379 20.5756 52.455 19.8559 52.2498C19.1361 52.0445 18.7191 51.2947 18.9243 50.575L19.6676 47.9686Z" fill="white" fill-opacity="0.12"/>
</g>
<g opacity="0.5">
<rect width="20.289" height="20.289" transform="translate(125.161 22.6475) rotate(-24.435)" fill="black" fill-opacity="0.01"/>
<path fill-rule="evenodd" clip-rule="evenodd" d="M142.789 36.9228C147.89 34.6052 150.146 28.5914 147.829 23.4906C145.511 18.3897 139.497 16.1335 134.396 18.4511C129.296 20.7687 127.039 26.7825 129.357 31.8833C131.675 36.9841 137.688 39.2404 142.789 36.9228ZM135.97 21.9147C136.289 21.7699 136.665 21.9109 136.809 22.2297L137.087 22.8415C137.948 22.5644 138.789 22.5231 139.461 22.7409C140.034 22.92 140.44 23.2377 140.627 23.6475C140.813 24.0572 140.651 24.4683 140.224 24.6624C139.947 24.7878 139.658 24.7782 139.329 24.6136C138.84 24.3145 138.306 24.2034 137.751 24.3022L138.842 26.7025L139.36 26.6006C141.171 26.2249 142.304 26.6595 142.898 27.9668C143.59 29.4894 142.952 31.0121 141.254 32.011L141.53 32.62C141.675 32.9388 141.534 33.3147 141.215 33.4595C140.897 33.6044 140.521 33.4633 140.376 33.1445L140.103 32.5437C139.126 32.8876 138.179 32.9566 137.469 32.7172C136.883 32.528 136.48 32.2328 136.311 31.8621C136.11 31.4198 136.277 30.9673 136.678 30.7851C136.974 30.6507 137.273 30.6638 137.742 30.8587C138.294 31.1088 138.864 31.1769 139.431 31.0646L138.304 28.5846L137.807 28.6794C136.103 29.0299 134.965 28.5663 134.379 27.2785C133.706 25.7975 134.318 24.301 135.929 23.3582L135.655 22.7542C135.51 22.4354 135.651 22.0596 135.97 21.9147ZM136.111 26.3267C135.867 25.7889 136.055 25.2361 136.593 24.8177L137.559 26.9447C136.815 27.032 136.333 26.815 136.111 26.3267ZM140.6 30.5726L139.588 28.3452C140.48 28.219 140.986 28.4175 141.232 28.9592C141.502 29.5526 141.274 30.123 140.6 30.5726Z" fill="white" fill-opacity="0.12"/>
</g>
<g opacity="0.5">
<rect width="28.9715" height="28.9715" transform="translate(68.5936 76.3232) rotate(-13.2356)" fill="black" fill-opacity="0.01"/>
<path fill-rule="evenodd" clip-rule="evenodd" d="M70.6665 85.1365C69.9796 82.2161 71.7902 79.2918 74.7106 78.6049L92.3368 74.4592C95.2572 73.7723 98.1815 75.5829 98.8684 78.5033L101.356 89.079C102.043 91.9994 100.232 94.9237 97.3117 95.6106L79.6855 99.7564C76.7651 100.443 73.8408 98.6326 73.1539 95.7122L71.4957 88.6621L99.6975 82.029L98.8684 78.5037L70.6665 85.1369L70.6665 85.1365ZM90.7802 91.5667C90.5512 90.5932 91.1547 89.6184 92.1282 89.3895L95.6534 88.5603C96.6269 88.3314 97.6017 88.9349 97.8306 89.9084C98.0596 90.8818 97.4561 91.8566 96.4826 92.0856L92.9573 92.9147C91.9839 93.1437 91.0091 92.5401 90.7802 91.5667Z" fill="white" fill-opacity="0.12"/>
</g>
<g opacity="0.5">
<rect width="24.1738" height="24.1738" transform="translate(311.397 58.1787) rotate(17.6045)" fill="black" fill-opacity="0.01"/>
<g clip-path="url(#clip0_5516_251053)">
<path fill-rule="evenodd" clip-rule="evenodd" d="M318.233 84.3074C316.637 85.3469 314.489 84.6686 313.779 82.901L310.236 74.0739L314.871 75.5446L315.983 78.4341C316.126 78.8065 316.455 79.0761 316.848 79.1438C317.241 79.2115 317.641 79.0675 317.901 78.7645L323.513 72.2171L323.993 77.7074C324.033 78.1632 324.343 78.5503 324.78 78.6887L326.178 79.1323L318.233 84.3074ZM328.702 77.5558L326.185 76.7571L325.536 69.3343C325.496 68.8799 325.187 68.4937 324.753 68.3542C324.319 68.2148 323.843 68.3494 323.546 68.6957L317.416 75.8479L316.79 74.2222C316.666 73.9009 316.403 73.6533 316.075 73.5491L309.088 71.332C308.422 69.807 308.269 68.0346 308.814 66.3199C309.984 62.63 313.906 60.5593 317.54 61.7123C319.492 62.3316 320.773 64.394 321.547 66.154C323.194 65.1621 325.43 64.216 327.382 64.8352C331.016 65.9882 333.026 69.9413 331.855 73.6311C331.312 75.3429 330.158 76.7277 328.702 77.5558Z" fill="white" fill-opacity="0.12"/>
</g>
</g>
<defs>
<clipPath id="clip0_5516_251053">
<rect width="24.1738" height="24.1738" fill="white" transform="translate(311.397 58.1787) rotate(17.6045)"/>
</clipPath>
</defs>
</svg>
