<svg width="240" height="108" viewBox="0 0 240 108" fill="none" xmlns="http://www.w3.org/2000/svg">
<g clip-path="url(#clip0_5336_490544)">
<path opacity="0.1" fill-rule="evenodd" clip-rule="evenodd" d="M239.821 105.459C239.877 104.08 239.905 102.694 239.905 101.301C239.905 45.3308 194.532 -0.0419922 138.562 -0.0419922C82.592 -0.0419922 37.2192 45.3308 37.2192 101.301C37.2192 102.694 37.2473 104.08 37.303 105.459H239.821Z" fill="black"/>
<mask id="mask0_5336_490544" style="mask-type:alpha" maskUnits="userSpaceOnUse" x="-12" y="52" width="137" height="54">
<rect x="-11.9058" y="52.8486" width="136.739" height="52.9156" fill="#D9D9D9"/>
</mask>
<g mask="url(#mask0_5336_490544)">
<circle cx="96.911" cy="94.9227" r="20.7064" fill="#737374" stroke="black" stroke-width="1.61237"/>
<mask id="path-4-inside-1_5336_490544" fill="white">
<path fill-rule="evenodd" clip-rule="evenodd" d="M56.417 111.091C52.8385 116.089 46.9833 119.346 40.3673 119.346C32.7335 119.346 26.1124 115.01 22.8331 108.666C21.5807 109.397 20.124 109.815 18.5695 109.815C13.89 109.815 10.0964 106.022 10.0964 101.342C10.0964 96.6625 13.89 92.869 18.5695 92.869C19.6485 92.869 20.6804 93.0707 21.6296 93.4384C24.2233 85.5722 31.6322 79.8945 40.3673 79.8945C47.0287 79.8945 52.919 83.1966 56.4905 88.2531C59.154 85.9368 62.6335 84.5344 66.4405 84.5344C74.8185 84.5344 81.6102 91.3261 81.6102 99.7041C81.6102 108.082 74.8185 114.874 66.4405 114.874C62.5984 114.874 59.0899 113.446 56.417 111.091Z"/>
</mask>
<path fill-rule="evenodd" clip-rule="evenodd" d="M56.417 111.091C52.8385 116.089 46.9833 119.346 40.3673 119.346C32.7335 119.346 26.1124 115.01 22.8331 108.666C21.5807 109.397 20.124 109.815 18.5695 109.815C13.89 109.815 10.0964 106.022 10.0964 101.342C10.0964 96.6625 13.89 92.869 18.5695 92.869C19.6485 92.869 20.6804 93.0707 21.6296 93.4384C24.2233 85.5722 31.6322 79.8945 40.3673 79.8945C47.0287 79.8945 52.919 83.1966 56.4905 88.2531C59.154 85.9368 62.6335 84.5344 66.4405 84.5344C74.8185 84.5344 81.6102 91.3261 81.6102 99.7041C81.6102 108.082 74.8185 114.874 66.4405 114.874C62.5984 114.874 59.0899 113.446 56.417 111.091Z" fill="#737374"/>
<path d="M56.417 111.091L57.4829 109.881L56.1444 108.702L55.106 110.152L56.417 111.091ZM22.8331 108.666L24.2654 107.926L23.4862 106.418L22.0206 107.273L22.8331 108.666ZM21.6296 93.4384L21.0471 94.9419L22.6294 95.555L23.1608 93.9433L21.6296 93.4384ZM56.4905 88.2531L55.1735 89.1833L56.2026 90.6403L57.5486 89.4698L56.4905 88.2531ZM55.106 110.152C51.8173 114.746 46.4412 117.734 40.3673 117.734V120.959C47.5253 120.959 53.8598 117.432 57.728 112.029L55.106 110.152ZM40.3673 117.734C33.3597 117.734 27.2788 113.755 24.2654 107.926L21.4008 109.406C24.9461 116.265 32.1072 120.959 40.3673 120.959V117.734ZM18.5695 111.428C20.4172 111.428 22.1533 110.929 23.6456 110.059L22.0206 107.273C21.0082 107.864 19.8309 108.203 18.5695 108.203V111.428ZM8.48406 101.342C8.48406 106.912 12.9995 111.428 18.5695 111.428V108.203C14.7805 108.203 11.7088 105.131 11.7088 101.342H8.48406ZM18.5695 91.2566C12.9995 91.2566 8.48406 95.7721 8.48406 101.342H11.7088C11.7088 97.553 14.7805 94.4814 18.5695 94.4814V91.2566ZM22.2121 91.935C21.0801 91.4964 19.8509 91.2566 18.5695 91.2566V94.4814C19.4461 94.4814 20.2807 94.645 21.0471 94.9419L22.2121 91.935ZM23.1608 93.9433C25.5432 86.7183 32.3487 81.5069 40.3673 81.5069V78.2822C30.9158 78.2822 22.9035 84.4261 20.0983 92.9335L23.1608 93.9433ZM40.3673 81.5069C46.4829 81.5069 51.8912 84.5362 55.1735 89.1833L57.8075 87.3229C53.9468 81.8569 47.5746 78.2822 40.3673 78.2822V81.5069ZM66.4405 82.922C62.23 82.922 58.3782 84.4747 55.4324 87.0365L57.5486 89.4698C59.9298 87.3989 63.0369 86.1468 66.4405 86.1468V82.922ZM83.2226 99.7041C83.2226 90.4356 75.709 82.922 66.4405 82.922V86.1468C73.928 86.1468 79.9979 92.2166 79.9979 99.7041H83.2226ZM66.4405 116.486C75.709 116.486 83.2226 108.973 83.2226 99.7041H79.9979C79.9979 107.192 73.928 113.262 66.4405 113.262V116.486ZM55.3512 112.301C58.3072 114.905 62.1911 116.486 66.4405 116.486V113.262C63.0056 113.262 59.8726 111.986 57.4829 109.881L55.3512 112.301Z" fill="black" mask="url(#path-4-inside-1_5336_490544)"/>
<circle cx="81.6103" cy="110.316" r="14.4945" fill="#737374" stroke="black" stroke-width="1.61237"/>
<circle cx="64.0476" cy="70.0711" r="6.16039" fill="#737374" stroke="black" stroke-width="1.61237"/>
<circle cx="47.3019" cy="60.6467" r="3.08851" fill="#737374" stroke="black" stroke-width="1.61237"/>
<circle cx="7.6695" cy="85.5233" r="2.36161" fill="#737374" stroke="black" stroke-width="1.61237"/>
</g>
<rect x="118.424" y="24.541" width="50.9222" height="14.6018" transform="rotate(-6.49098 118.424 24.541)" fill="#B9BDC2"/>
<path fill-rule="evenodd" clip-rule="evenodd" d="M113.989 42.7829C108.09 43.454 103.853 48.7798 104.524 54.6783L108.2 86.9907L157.199 81.4158L156.173 88.2986L212.125 78.3936L210.394 63.1821C210.128 60.8394 208.613 58.8249 206.436 57.9184L196.427 53.7503L187.83 39.4755C186.08 36.5712 182.798 34.9541 179.429 35.3374L164.384 37.0492L113.989 42.7829Z" fill="black"/>
<path opacity="0.5" fill-rule="evenodd" clip-rule="evenodd" d="M114.161 43.403C108.262 44.0741 104.025 49.3999 104.696 55.2984L108.372 87.6108L157.371 82.0359L156.345 88.919L212.297 79.014L210.566 63.8025C210.3 61.4597 208.785 59.4452 206.608 58.5388L196.599 54.3706L188.002 40.0959C186.252 37.1915 182.97 35.5745 179.601 35.9577L164.556 37.6695L164.556 37.6693L114.161 43.403Z" fill="#E6E6E8"/>
<path d="M164.366 37.5801L179.718 35.8334C183.101 35.4486 186.395 37.0805 188.138 40.0046L196.635 54.2555L206.523 58.4315C208.685 59.3443 210.186 61.3514 210.451 63.6825L212.184 78.9158L170.243 89.2264" stroke="black" stroke-width="1.61237" stroke-miterlimit="10" stroke-linecap="round" stroke-linejoin="round"/>
<rect x="109.206" y="87.4141" width="4.14652" height="102.701" transform="rotate(-96.491 109.206 87.4141)" fill="#B9BDC2"/>
<path d="M102.636 52.3336C102.496 51.0971 103.384 49.9807 104.62 49.84V49.84L108.926 87.6827L106.687 87.9375L102.636 52.3336Z" fill="black"/>
<path d="M164.367 37.5798L112.615 43.4679C107.861 44.0088 104.445 48.3011 104.986 53.0551L109.226 90.3237L169.586 83.4562" stroke="black" stroke-width="1.61237" stroke-miterlimit="10" stroke-linecap="round" stroke-linejoin="round"/>
<path d="M113.167 93.5186L209.731 82.532V82.532C209.988 84.7894 208.366 86.8276 206.108 87.0844L117.72 97.1409C115.463 97.3978 113.424 95.776 113.167 93.5186V93.5186Z" fill="black"/>
<path d="M182.189 35.5518L110.461 43.7128V43.7128C110.159 41.0585 112.066 38.6619 114.72 38.3599L176.836 31.2925C179.491 30.9905 181.887 32.8975 182.189 35.5518V35.5518Z" fill="white" stroke="black" stroke-width="1.61237" stroke-miterlimit="10" stroke-linecap="round" stroke-linejoin="round"/>
<path d="M166.363 63.5107L168.316 80.6803" stroke="black" stroke-width="1.61237" stroke-miterlimit="10" stroke-linecap="round" stroke-linejoin="round"/>
<path d="M171.284 68.0977L177.035 67.4434" stroke="black" stroke-width="1.61237" stroke-miterlimit="10" stroke-linecap="round" stroke-linejoin="round"/>
<path d="M105.985 88.0166L211.198 76.0459C212.921 75.8499 214.476 77.0875 214.672 78.8102V78.8102C214.868 80.5329 213.631 82.0883 211.908 82.2843L110.999 93.7654C108.622 94.0358 106.476 92.3281 106.205 89.9512L105.985 88.0166Z" fill="white" stroke="black" stroke-width="1.61237" stroke-miterlimit="10" stroke-linecap="round" stroke-linejoin="round"/>
<circle cx="189.244" cy="90.1022" r="8.67017" transform="rotate(-6.49098 189.244 90.1022)" fill="white" stroke="black" stroke-width="1.61237" stroke-miterlimit="10" stroke-linecap="round" stroke-linejoin="round"/>
<circle cx="130.395" cy="96.7985" r="8.67017" transform="rotate(-6.49098 130.395 96.7985)" fill="white" stroke="black" stroke-width="1.61237" stroke-miterlimit="10" stroke-linecap="round" stroke-linejoin="round"/>
<circle cx="130.382" cy="96.9644" r="5.4627" transform="rotate(-6.49098 130.382 96.9644)" fill="#B9BDC2"/>
<circle cx="189.267" cy="90.1637" r="5.4627" transform="rotate(-6.49098 189.267 90.1637)" fill="#B9BDC2"/>
<path d="M205.956 66.458C205.722 64.401 207.2 62.5437 209.257 62.3096L210.282 62.193L211.129 69.6422L210.104 69.7588C208.047 69.9929 206.19 68.515 205.956 66.458V66.458Z" fill="black"/>
<path fill-rule="evenodd" clip-rule="evenodd" d="M177.194 40.0807L163.869 41.5967L165.594 56.7518L170.168 56.2313L177.194 40.0807ZM179.603 55.1579L192.47 53.6938L185.918 42.89C185.735 42.5891 185.531 42.3067 185.307 42.0443L179.603 55.1579Z" fill="#333333"/>
<path d="M156.335 20.2207L160.136 19.7882L166.477 37.5272L162.703 38.1508L156.335 20.2207Z" fill="black"/>
<path d="M130.695 23.1151L126.894 23.5476L124.7 42.2576L128.518 42.0175L130.695 23.1151Z" fill="black"/>
<path d="M135.61 48.0211C143.513 47.1268 150.647 52.8109 151.542 60.7138C152.436 68.6168 146.752 75.7514 138.849 76.6457C130.946 77.54 123.811 71.8559 122.917 63.953C122.023 56.05 127.692 48.917 135.61 48.0211Z" fill="white"/>
<path d="M135.745 47.94C143.648 47.0457 150.783 52.7298 151.677 60.6328C152.572 68.5357 146.888 75.6704 138.985 76.5647C131.082 77.459 123.947 71.7749 123.053 63.8719C122.158 55.9689 127.828 48.8359 135.745 47.94Z" stroke="black" stroke-width="1.64869" stroke-miterlimit="10" stroke-linecap="round" stroke-linejoin="round"/>
<path d="M136.165 51.6387C142.023 50.9758 147.318 55.1938 147.98 61.0522C148.643 66.9105 144.425 72.205 138.567 72.8679C132.709 73.5309 127.414 69.3128 126.751 63.4545C126.074 57.5978 130.292 52.3033 136.165 51.6387Z" stroke="#248AFF" stroke-width="2.25" stroke-miterlimit="10" stroke-linecap="round" stroke-linejoin="round"/>
<path d="M138.067 55.8584L135.239 56.1784C134.891 56.2178 134.635 56.5551 134.651 56.9499L134.656 56.9934L134.99 59.9516C135.004 60.0676 135.059 60.1642 135.126 60.2447L135.159 60.2704L135.632 60.6868C135.813 60.8573 135.858 61.1312 135.736 61.3506L135.71 61.3829L135.342 61.8945C135.28 61.9897 135.248 62.0961 135.246 62.2138L135.251 62.2573L135.9 67.9851C135.944 68.3766 136.255 68.6645 136.607 68.6541L136.65 68.6492L139.478 68.3292C139.826 68.2898 140.081 67.9525 140.066 67.5577L140.061 67.5142L139.751 64.7735C139.738 64.6575 139.681 64.5464 139.614 64.466L139.581 64.4402L139.108 64.0238C138.927 63.8533 138.882 63.5795 139.004 63.36L139.029 63.3278L139.397 62.8161C139.46 62.7209 139.492 62.6145 139.494 62.4969L139.489 62.4534L138.816 56.508C138.772 56.1165 138.429 55.8174 138.067 55.8584Z" fill="black"/>
</g>
<defs>
<clipPath id="clip0_5336_490544">
<rect width="240" height="108" fill="white"/>
</clipPath>
</defs>
</svg>
