<svg width="102" height="85" viewBox="0 0 102 85" fill="none" xmlns="http://www.w3.org/2000/svg">
<g clip-path="url(#clip0_210_157135)">
<rect width="85" height="58" transform="translate(0 3)" fill="black" fill-opacity="0.01"/>
<path d="M61.5379 37.5547L18.8032 29.1631L22.2641 24.5161L61.5379 37.5547Z" stroke="black" stroke-width="0.162162"/>
<path d="M75.5078 48.8821C77.708 51.8768 83.777 58.2147 90.451 59.6082C97.1251 61.0017 105.089 62.878 108.236 63.642L108.236 77.7602L59.8311 72.2596C59.2059 73.9649 58.9925 67.6151 57.3886 67.1433C55.7846 66.6716 53.1193 67.2199 52.5165 65.8178C52.2544 66.4992 50.5448 66.6355 47.5257 65.8178C45.9228 65.3837 45.1943 65.4318 44.8867 65.5826C44.8463 65.7112 44.8253 65.791 44.8253 65.8178C44.8253 66.1796 44.47 65.7869 44.8867 65.5826C45.6047 63.2971 52.4396 45.6078 55.9506 36.5791C61.5538 39.6193 73.3097 46.3361 75.5078 48.8821Z" fill="#F1FAFF"/>
<path d="M110.395 63.4599C109.751 63.4614 90.3946 61.0047 85.2937 57.3956C73.1386 48.7559 70.1704 41.5865 65.7396 40.4936C61.3087 39.4008 45.5168 41.7763 41.7799 43.1685C38.0392 44.5332 30.8431 57.6453 30.0687 60.4652C29.2944 63.2851 31.7408 65.6777 35.7884 63.4599C39.836 61.2422 40.5039 58.4644 40.5039 58.4644" stroke="#0572EC" stroke-width="0.972975" stroke-miterlimit="10" stroke-linecap="round" stroke-linejoin="round"/>
<path d="M46.0127 62.1864C46.0127 62.1864 43.8592 66.646 44.6464 69.6229C45.4335 72.5998 48.0953 73.8713 50.1638 73.2047C52.2323 72.538 52.4312 71.5032 52.8379 69.7125C53.2757 67.9457 53.5762 65.7769 53.5762 65.7769" stroke="#0572EC" stroke-width="0.972975" stroke-miterlimit="10" stroke-linecap="round" stroke-linejoin="round"/>
<path d="M52.3831 72.4055C52.3831 72.4055 52.5452 74.2608 54.3076 75.9318C56.07 77.6028 57.9407 76.2901 58.7712 74.5272C59.6018 72.7642 59.8476 72.9277 59.8476 72.9277" stroke="#0572EC" stroke-width="0.972975" stroke-miterlimit="10" stroke-linecap="round" stroke-linejoin="round"/>
<path d="M62.581 0.83052L37.0759 10.8526C35.8256 11.3439 35.2103 12.7558 35.7016 14.0061L51.8047 54.9868C52.2961 56.2371 53.7079 56.8524 54.9583 56.3611L80.4633 46.339C81.7136 45.8477 82.3289 44.4358 81.8376 43.1855L65.7345 2.20485C65.2432 0.954516 63.8313 0.339208 62.581 0.83052Z" fill="#E4EEF8" stroke="#0572EC" stroke-width="0.972974" stroke-miterlimit="10" stroke-linecap="round" stroke-linejoin="round"/>
<circle cx="58.6459" cy="28.1769" r="6.25931" transform="rotate(4.7776 58.6459 28.1769)" fill="#0572EC"/>
<path d="M42.4074 4.9049L22.4372 23.6703C21.4582 24.5902 21.4103 26.1296 22.3302 27.1086L52.9716 59.7174C53.8915 60.6964 55.4309 60.7443 56.4099 59.8243L76.3802 41.059C77.3592 40.139 77.407 38.5997 76.4871 37.6207L45.8457 5.01186C44.9258 4.03286 43.3864 3.98497 42.4074 4.9049Z" fill="#C5DFFC" stroke="#0572EC" stroke-width="0.972975" stroke-miterlimit="10" stroke-linecap="round" stroke-linejoin="round"/>
<circle cx="49.3834" cy="32.2813" r="6.25931" transform="rotate(-16.9887 49.3834 32.2813)" fill="#0572EC"/>
<path d="M27.046 15.4002L13.6397 39.3004C12.9825 40.4721 13.3995 41.9547 14.5712 42.6119L53.5971 64.5026C54.7688 65.1599 56.2514 64.7428 56.9086 63.5712L70.3149 39.671C70.9721 38.4993 70.5551 37.0167 69.3834 36.3595L30.3575 14.4687C29.1858 13.8115 27.7032 14.2285 27.046 15.4002Z" fill="#B1D6FF" stroke="#0572EC" stroke-width="0.972975" stroke-miterlimit="10" stroke-linecap="round" stroke-linejoin="round"/>
<path d="M14.5972 31.4478L9.62809 58.397C9.38449 59.7181 10.258 60.9865 11.5791 61.2301L55.5836 69.3441C56.9047 69.5877 58.1731 68.7142 58.4167 67.3931L63.3859 40.444C63.6295 39.1228 62.756 37.8544 61.4349 37.6108L17.4304 29.4968C16.1093 29.2532 14.8409 30.1267 14.5972 31.4478Z" fill="#84BEFF"/>
<path fill-rule="evenodd" clip-rule="evenodd" d="M56.5631 69.4557C56.6582 69.2611 56.7287 69.0504 56.7699 68.8269L61.7391 41.8778C61.9827 40.5567 61.1092 39.2882 59.7881 39.0446L15.7836 30.9306C15.5836 30.8937 15.3848 30.8825 15.1905 30.8945C15.6579 29.9386 16.7192 29.3698 17.8168 29.5722L61.8213 37.6862C63.1424 37.9298 64.0159 39.1983 63.7723 40.5194L58.8032 67.4685C58.5964 68.5896 57.6517 69.3884 56.5631 69.4557Z" fill="#B1D6FF"/>
<path d="M14.9039 31.4478L9.93473 58.397C9.69113 59.7181 10.5646 60.9865 11.8858 61.2301L55.8902 69.3441C57.2113 69.5877 58.4798 68.7142 58.7234 67.3931L63.6925 40.444C63.9361 39.1228 63.0626 37.8544 61.7415 37.6108L17.7371 29.4968C16.416 29.2532 15.1475 30.1267 14.9039 31.4478Z" stroke="#0572EC" stroke-width="0.972975" stroke-miterlimit="10" stroke-linecap="round" stroke-linejoin="round"/>
<path d="M15.4058 30.5742L35.9487 50.6097L63.4011 39.3794" stroke="#0572EC" stroke-width="0.972974" stroke-miterlimit="10" stroke-linecap="round" stroke-linejoin="round"/>
<circle cx="36.8138" cy="48.7764" r="6.49472" transform="rotate(-19.081 36.8138 48.7764)" fill="white"/>
<path d="M37.5565 44.7011C39.8056 45.1112 41.2987 47.2702 40.8885 49.5193C40.4784 51.7684 38.3195 53.2614 36.0704 52.8513C33.8213 52.4411 32.3283 50.2822 32.7384 48.0331C33.1429 45.783 35.3019 44.29 37.5565 44.7011Z" stroke="#84BEFF" stroke-width="1.5" stroke-miterlimit="10" stroke-linecap="round" stroke-linejoin="round"/>
<path d="M37.7899 46.481L36.7043 46.283C36.5707 46.2587 36.4381 46.3553 36.3995 46.5035L36.3965 46.5202L36.1894 47.6559C36.1813 47.7005 36.1909 47.7425 36.207 47.7799L36.2161 47.7931L36.3451 48.0007C36.3931 48.0842 36.3794 48.191 36.3095 48.2588L36.2964 48.2679L36.1024 48.4166C36.0685 48.4449 36.0447 48.4809 36.031 48.5244L36.028 48.5411L35.627 50.7401C35.5996 50.8904 35.683 51.0322 35.8146 51.0677L35.8313 51.0707L36.9169 51.2686C37.0505 51.293 37.1832 51.1964 37.2217 51.0481L37.2247 51.0314L37.4166 49.9792C37.4247 49.9347 37.4161 49.8871 37.4 49.8497L37.3909 49.8365L37.2619 49.6289C37.2139 49.5454 37.2276 49.4386 37.2975 49.3708L37.3106 49.3617L37.5046 49.213C37.5385 49.1847 37.5623 49.1487 37.576 49.1052L37.579 49.0885L37.9952 46.806C38.0226 46.6557 37.9291 46.5064 37.7899 46.481Z" fill="#84BEFF"/>
<path d="M56.1576 68.0897C59.4467 73.2124 61.9552 74.7841 62.7525 74.9146C64.0174 76.2089 73.1487 81.6515 85.8495 77.8117C87.6678 77.262 112.306 87.1283 110.217 85.1959C108.217 83.345 111.223 70.0585 107.854 68.0897C101.212 64.2072 66.8659 57.663 66.4497 57.6075C51.4308 55.6029 44.0057 49.771 41.0144 49.6715C38.0231 49.5721 34.8936 52.9765 37.8637 57.1914C40.8338 61.4063 52.0463 61.6862 56.1576 68.0897Z" fill="#F1FAFF"/>
<path d="M56.8462 68.8631C60.1353 73.9859 62.6438 75.5575 63.4411 75.688C64.706 76.9824 73.8373 82.4249 86.5381 78.5851C88.3564 78.0354 112.995 87.9017 110.906 85.9693C108.905 84.1185 114.275 79.9041 110.906 77.9352C95.3583 70.8363 83.0323 72.9223 72.7814 70.8363C67.9463 69.8524 62.5075 65.1329 57.4633 62.695C47.0176 57.6465 38.0448 53.6099 38.0448 51.5916C38.0448 48.5986 35.1894 54.0561 38.5523 57.9648C41.4011 61.276 52.7349 62.4596 56.8462 68.8631Z" fill="#E4EEF8"/>
<path d="M61.195 37.2991L18.7447 29.4717L20.34 26.5059L61.195 37.2991Z" fill="#0572EC"/>
<path d="M69.7589 36.25L32.2026 14.9704L34.2298 12.2483L69.7589 36.25Z" fill="#0572EC"/>
<path d="M68.5813 56.6312C68.5813 56.6312 60.1003 58.6771 47.9194 51.9937C42.5525 49.049 38.3968 48.8083 37.1565 52.1288C35.4289 56.7542 39.6842 59.2676 45.7416 61.4103C51.7928 63.5508 55.6599 67.1254 58.683 71.5424C61.7061 75.9593 72.2542 81.1427 85.6222 78.4445C93.9115 78.849 109.457 86.3436 109.457 86.3436L109.457 62.808" stroke="#0572EC" stroke-width="0.972975" stroke-miterlimit="10" stroke-linecap="round" stroke-linejoin="round"/>
<path d="M86.5251 39.8364C89.0637 38.1761 94.2693 33.1751 94.7828 26.4539" stroke="#0572EC" stroke-width="0.972974" stroke-miterlimit="10" stroke-linecap="round" stroke-linejoin="round"/>
<path d="M84.8109 36.5706C85.6054 35.3913 86.9439 32.2835 85.9425 29.2865" stroke="#0572EC" stroke-width="0.972974" stroke-miterlimit="10" stroke-linecap="round" stroke-linejoin="round"/>
<path d="M40.2043 56.9447C38.6123 56.3162 37.8313 54.5161 38.4599 52.9242V52.9242C39.0884 51.3322 40.8885 50.5512 42.4804 51.1798L45.4465 52.3509C45.4465 52.3509 44.0616 53.8746 43.6046 55.0955C43.1819 56.2246 43.1704 58.1158 43.1704 58.1158L40.2043 56.9447Z" fill="#B1D6FF"/>
</g>
<defs>
<clipPath id="clip0_210_157135">
<rect width="102" height="85" fill="white"/>
</clipPath>
</defs>
</svg>
