<svg width="102" height="85" viewBox="0 0 102 85" fill="none" xmlns="http://www.w3.org/2000/svg">
<g clip-path="url(#clip0_210_157137)">
<rect width="85" height="58" transform="translate(0 3)" fill="black" fill-opacity="0.01"/>
<path d="M61.5379 37.4541L18.8032 29.0625L22.2641 24.4155L61.5379 37.4541Z" stroke="black" stroke-width="0.162162"/>
<path d="M75.5078 48.7815C77.708 51.7762 83.777 58.1141 90.451 59.5076C97.1251 60.9011 105.089 62.7774 108.236 63.5414L108.236 77.6596L59.8311 72.159C59.2059 73.8643 58.9925 67.5145 57.3886 67.0427C55.7846 66.571 53.1193 67.1193 52.5165 65.7172C52.2544 66.3986 50.5448 66.5349 47.5257 65.7172C45.9228 65.2831 45.1943 65.3312 44.8867 65.482C44.8463 65.6106 44.8253 65.6904 44.8253 65.7172C44.8253 66.0791 44.47 65.6863 44.8867 65.482C45.6047 63.1965 52.4396 45.5072 55.9506 36.4785C61.5538 39.5187 73.3097 46.2355 75.5078 48.7815Z" fill="#6A7075"/>
<path d="M110.395 63.3593C109.751 63.3608 90.3946 60.9041 85.2937 57.295C73.1386 48.6554 70.1704 41.4859 65.7396 40.3931C61.3087 39.3002 45.5168 41.6757 41.7799 43.0679C38.0392 44.4326 30.8431 57.5447 30.0687 60.3646C29.2944 63.1846 31.7408 65.5772 35.7884 63.3594C39.836 61.1416 40.5039 58.3638 40.5039 58.3638" stroke="black" stroke-width="0.972975" stroke-miterlimit="10" stroke-linecap="round" stroke-linejoin="round"/>
<path d="M46.013 62.0858C46.013 62.0858 43.8595 66.5454 44.6466 69.5223C45.4338 72.4992 48.0956 73.7707 50.1641 73.1041C52.2326 72.4375 52.4314 71.4026 52.8381 69.6119C53.276 67.8451 53.5764 65.6763 53.5764 65.6763" fill="#2F2F2F"/>
<path d="M46.013 62.0858C46.013 62.0858 43.8595 66.5454 44.6466 69.5223C45.4338 72.4992 48.0956 73.7707 50.1641 73.1041C52.2326 72.4375 52.4314 71.4026 52.8381 69.6119C53.276 67.8451 53.5764 65.6763 53.5764 65.6763" stroke="black" stroke-width="0.972975" stroke-miterlimit="10" stroke-linecap="round" stroke-linejoin="round"/>
<path d="M52.3831 72.3049C52.3831 72.3049 52.5452 74.1602 54.3076 75.8312C56.07 77.5022 57.9407 76.1895 58.7712 74.4266C59.6018 72.6637 59.8476 72.8271 59.8476 72.8271" fill="#2F2F2F"/>
<path d="M52.3831 72.3049C52.3831 72.3049 52.5452 74.1602 54.3076 75.8312C56.07 77.5022 57.9407 76.1895 58.7712 74.4266C59.6018 72.6637 59.8476 72.8271 59.8476 72.8271" stroke="black" stroke-width="0.972975" stroke-miterlimit="10" stroke-linecap="round" stroke-linejoin="round"/>
<path d="M62.581 0.729934L37.0759 10.752C35.8256 11.2433 35.2103 12.6552 35.7016 13.9055L51.8047 54.8862C52.2961 56.1365 53.7079 56.7518 54.9583 56.2605L80.4633 46.2384C81.7136 45.7471 82.3289 44.3352 81.8376 43.0849L65.7345 2.10426C65.2432 0.85393 63.8313 0.238622 62.581 0.729934Z" fill="#AED4FF" stroke="black" stroke-width="0.972974" stroke-miterlimit="10" stroke-linecap="round" stroke-linejoin="round"/>
<circle cx="58.6457" cy="28.0763" r="6.25931" transform="rotate(4.7776 58.6457 28.0763)" fill="black"/>
<path d="M42.4077 4.80432L22.4374 23.5697C21.4584 24.4896 21.4106 26.029 22.3305 27.008L52.9719 59.6168C53.8918 60.5958 55.4312 60.6437 56.4102 59.7237L76.3804 40.9584C77.3594 40.0385 77.4073 38.4991 76.4874 37.5201L45.846 4.91127C44.9261 3.93227 43.3867 3.88439 42.4077 4.80432Z" fill="#89C0FF" stroke="black" stroke-width="0.972975" stroke-miterlimit="10" stroke-linecap="round" stroke-linejoin="round"/>
<circle cx="49.3836" cy="32.1807" r="6.25931" transform="rotate(-16.9887 49.3836 32.1807)" fill="black"/>
<path d="M27.046 15.2996L13.6397 39.1998C12.9825 40.3715 13.3995 41.8541 14.5712 42.5113L53.5971 64.4021C54.7688 65.0593 56.2514 64.6422 56.9086 63.4706L70.3149 39.5704C70.9721 38.3987 70.5551 36.9161 69.3834 36.2589L30.3575 14.3681C29.1858 13.7109 27.7032 14.128 27.046 15.2996Z" fill="#5DA9FF" stroke="black" stroke-width="0.972975" stroke-miterlimit="10" stroke-linecap="round" stroke-linejoin="round"/>
<path d="M14.5975 31.3472L9.62834 58.2964C9.38473 59.6175 10.2582 60.886 11.5794 61.1296L55.5838 69.2435C56.9049 69.4871 58.1734 68.6136 58.417 67.2925L63.3861 40.3434C63.6298 39.0222 62.7562 37.7538 61.4351 37.5102L17.4307 29.3962C16.1096 29.1526 14.8411 30.0261 14.5975 31.3472Z" fill="#3594FF"/>
<path fill-rule="evenodd" clip-rule="evenodd" d="M56.5633 69.3551C56.6584 69.1605 56.729 68.9498 56.7702 68.7263L61.7393 41.7772C61.983 40.4561 61.1094 39.1876 59.7883 38.944L15.7839 30.83C15.5839 30.7931 15.385 30.7819 15.1908 30.7939C15.6581 29.838 16.7194 29.2692 17.8171 29.4716L61.8215 37.5856C63.1426 37.8292 64.0162 39.0977 63.7726 40.4188L58.8034 67.3679C58.5967 68.489 57.652 69.2878 56.5633 69.3551Z" fill="#B1D6FF"/>
<path d="M14.9039 31.3472L9.93473 58.2964C9.69113 59.6175 10.5646 60.886 11.8858 61.1296L55.8902 69.2435C57.2113 69.4871 58.4798 68.6136 58.7234 67.2925L63.6925 40.3434C63.9361 39.0222 63.0626 37.7538 61.7415 37.5102L17.7371 29.3962C16.416 29.1526 15.1475 30.0261 14.9039 31.3472Z" stroke="black" stroke-width="0.972975" stroke-miterlimit="10" stroke-linecap="round" stroke-linejoin="round"/>
<path d="M15.4058 30.4736L35.9487 50.5091L63.4011 39.2788" stroke="black" stroke-width="0.972974" stroke-miterlimit="10" stroke-linecap="round" stroke-linejoin="round"/>
<circle cx="36.8135" cy="48.6759" r="6.49472" transform="rotate(-19.081 36.8135 48.6759)" fill="#262626"/>
<path d="M37.5568 44.6005C39.8059 45.0106 41.2989 47.1696 40.8888 49.4187C40.4787 51.6678 38.3197 53.1608 36.0706 52.7507C33.8215 52.3406 32.3285 50.1816 32.7386 47.9325C33.1432 45.6824 35.3021 44.1894 37.5568 44.6005Z" stroke="#0572EC" stroke-width="1.5" stroke-miterlimit="10" stroke-linecap="round" stroke-linejoin="round"/>
<path d="M37.7899 46.3804L36.7043 46.1824C36.5707 46.1581 36.4381 46.2547 36.3995 46.403L36.3965 46.4197L36.1894 47.5553C36.1813 47.5999 36.1909 47.6419 36.207 47.6794L36.2161 47.6925L36.3451 47.9001C36.3931 47.9836 36.3794 48.0904 36.3095 48.1582L36.2964 48.1673L36.1024 48.316C36.0685 48.3444 36.0447 48.3803 36.031 48.4238L36.028 48.4405L35.627 50.6395C35.5996 50.7898 35.683 50.9316 35.8146 50.9671L35.8313 50.9701L36.9169 51.1681C37.0505 51.1924 37.1832 51.0958 37.2217 50.9475L37.2247 50.9308L37.4166 49.8787C37.4247 49.8341 37.4161 49.7865 37.4 49.7491L37.3909 49.7359L37.2619 49.5283C37.2139 49.4448 37.2276 49.338 37.2975 49.2702L37.3106 49.2611L37.5046 49.1124C37.5385 49.0841 37.5623 49.0482 37.576 49.0046L37.579 48.9879L37.9952 46.7054C38.0226 46.5551 37.9291 46.4058 37.7899 46.3804Z" fill="#0572EC"/>
<path d="M56.1578 67.9891C59.4469 73.1118 61.9554 74.6835 62.7528 74.814C64.0177 76.1084 73.1489 81.5509 85.8497 77.7111C87.668 77.1614 112.306 87.0277 110.218 85.0953C108.217 83.2445 111.223 69.958 107.855 67.9891C101.212 64.1067 66.8661 57.5624 66.4499 57.5069C51.431 55.5023 44.0059 49.6704 41.0146 49.5709C38.0233 49.4715 34.8939 52.8759 37.864 57.0908C40.8341 61.3057 52.0465 61.5856 56.1578 67.9891Z" fill="#6A7075"/>
<path d="M56.8464 68.7625C60.1355 73.8853 62.644 75.4569 63.4414 75.5874C64.7063 76.8818 73.8375 82.3243 86.5383 78.4845C88.3566 77.9348 112.995 87.8011 110.906 85.8687C108.906 84.0179 114.275 79.8035 110.906 77.8346C95.3585 70.7357 83.0325 72.8217 72.7816 70.7357C67.9465 69.7519 62.5078 65.0323 57.4635 62.5944C47.0178 57.5459 38.0451 53.5093 38.0451 51.491C38.0451 48.498 35.1897 53.9555 38.5526 57.8642C41.4014 61.1754 52.7351 62.359 56.8464 68.7625Z" fill="#2F2F2F"/>
<path opacity="0.7" d="M61.195 37.1985L18.7447 29.3711L20.34 26.4053L61.195 37.1985Z" fill="black"/>
<path opacity="0.7" d="M69.7587 36.1494L32.2024 14.8699L34.2295 12.1478L69.7587 36.1494Z" fill="black"/>
<path d="M68.5813 56.5306C68.5813 56.5306 60.1003 58.5765 47.9194 51.8931C42.5525 48.9484 38.3968 48.7077 37.1565 52.0283C35.4289 56.6536 39.6842 59.167 45.7416 61.3097C51.7928 63.4502 55.6599 67.0248 58.683 71.4418C61.7061 75.8588 72.2542 81.0421 85.6222 78.344C93.9115 78.7484 109.457 86.243 109.457 86.243L109.457 62.7075" stroke="black" stroke-width="0.972975" stroke-miterlimit="10" stroke-linecap="round" stroke-linejoin="round"/>
<path d="M86.5251 39.7358C89.0637 38.0755 94.2693 33.0745 94.7828 26.3534" stroke="black" stroke-width="0.972974" stroke-miterlimit="10" stroke-linecap="round" stroke-linejoin="round"/>
<path d="M84.8109 36.47C85.6054 35.2907 86.9439 32.1829 85.9425 29.1859" stroke="black" stroke-width="0.972974" stroke-miterlimit="10" stroke-linecap="round" stroke-linejoin="round"/>
<path d="M40.2043 56.8441C38.6123 56.2156 37.8313 54.4155 38.4599 52.8236V52.8236C39.0884 51.2316 40.8885 50.4506 42.4804 51.0792L45.4465 52.2503C45.4465 52.2503 44.0616 53.774 43.6046 54.9949C43.1819 56.124 43.1704 58.0153 43.1704 58.0153L40.2043 56.8441Z" fill="black"/>
</g>
<defs>
<clipPath id="clip0_210_157137">
<rect width="102" height="85" fill="white"/>
</clipPath>
</defs>
</svg>
