<svg xmlns="http://www.w3.org/2000/svg" width="20" height="20" viewBox="0 0 20 20" fill="none">
    <g clip-path="url(#clip0_8082_556)">
        <path d="M15.0691 10.506C15.4607 10.3576 15.8612 10.3539 16.2208 10.4737C16.7094 10.6436 18.4052 11.2353 18.9187 11.4454C19.5102 11.6946 19.7204 12.0588 19.7204 12.6544V15.9858C19.7203 17.754 18.6786 18.4383 16.1017 19.8927C15.8206 20.0505 15.4759 20.0202 15.2492 19.8927C12.6772 18.4316 11.6315 17.754 11.6314 15.9858V12.6544C11.6314 12.0589 11.8474 11.6962 12.4387 11.4454C12.9427 11.2353 14.6395 10.6575 15.0691 10.506ZM17.8427 12.8114C17.6071 12.8114 17.416 12.925 17.2885 13.0977L15.1079 16.1225L14.0365 14.9486C13.9275 14.8196 13.7614 14.7306 13.5433 14.7306C13.1945 14.7307 12.8857 15.0013 12.8857 15.391C12.8858 15.5543 12.9521 15.7338 13.0686 15.8704L14.6239 17.556C14.759 17.7035 14.9691 17.7758 15.1476 17.7758C15.3721 17.7757 15.5813 17.6749 15.687 17.5292L18.3655 13.844C18.455 13.7233 18.5012 13.5792 18.5012 13.4644C18.5012 13.092 18.194 12.8114 17.8427 12.8114ZM7.84833 9.74407C9.20703 9.74407 10.4231 10.0059 11.4615 10.4423C10.6772 10.9045 10.3273 11.7074 10.3273 12.6331V15.9646C10.3273 16.2247 10.3427 16.4683 10.3772 16.6961H1.70818C0.670358 16.696 0.0494863 16.2045 0.0493774 15.3882C0.0493774 13.012 3.06416 9.74413 7.84833 9.74407ZM7.85572 0C9.86379 0 11.5825 1.73047 11.5825 4.00015C11.5823 6.31398 9.86869 8.10374 7.85572 8.10374C5.83691 8.1035 4.13182 6.31373 4.13173 4.01677C4.13173 1.76073 5.84773 0.000239818 7.85572 0Z" fill="currentColor"/>
    </g>
    <defs>
        <clipPath id="clip0_8082_556">
            <rect width="20" height="20" fill="currentColor"/>
        </clipPath>
    </defs>
</svg>
