<svg xmlns="http://www.w3.org/2000/svg" width="20" height="15" viewBox="0 0 20 15" fill="none">
    <path d="M15.677 9.39221C16.7885 9.39221 17.7403 8.399 17.7403 7.11304C17.7403 5.85614 16.7873 4.89996 15.677 4.89996C14.5609 4.89996 13.6052 5.86782 13.6078 7.12472C13.6078 8.399 14.5596 9.39221 15.677 9.39221ZM12.26 14.1571H19.0869C19.6506 14.1571 20.002 13.8898 20.002 13.4355C20.002 12.1133 18.3303 10.2988 15.677 10.2988C13.0119 10.2988 11.3448 12.1133 11.3448 13.4355C11.3448 13.8898 11.6905 14.1571 12.26 14.1571Z" fill="currentColor"/>
    <mask id="path-2-inside-1_5121_2805" fill="currentColor">
        <path fill-rule="evenodd" clip-rule="evenodd" d="M0 2.8267C0 1.73893 0.881811 0.857117 1.96958 0.857117H14.9018C15.9896 0.857117 16.8714 1.73893 16.8714 2.8267V4.28675C16.4983 4.10379 16.0828 4.00165 15.643 4.00165C13.9745 4.00165 12.6607 5.47168 12.6637 7.23292C12.6639 8.18364 13.0427 9.06525 13.6591 9.67314C13.0104 9.9028 12.444 10.238 11.9765 10.6363C11.1101 11.3747 10.4967 12.4165 10.4967 13.4721C10.4967 13.7047 10.5384 13.9323 10.6225 14.1428H1.96958C0.881811 14.1428 0 13.261 0 12.1733V2.8267ZM16.8714 10.5191V10.5215C16.491 10.4256 16.0789 10.3717 15.6385 10.3717C15.1535 10.3717 14.703 10.4365 14.2914 10.5504C14.5008 10.4922 14.7202 10.4468 14.9492 10.4161C15.1717 10.3863 15.4031 10.3704 15.643 10.3704C15.882 10.3704 16.1127 10.3863 16.3346 10.4162C16.5198 10.4411 16.6989 10.4758 16.8714 10.5191ZM16.8714 5.50582C16.5304 5.20715 16.1006 5.03197 15.643 5.03197C15.478 5.03197 15.3167 5.05477 15.1618 5.09791C15.3153 5.05557 15.4751 5.0332 15.6385 5.0332C16.0981 5.0332 16.5296 5.20991 16.8714 5.51096V5.50582ZM16.8714 8.98099V8.98379C16.684 9.15338 16.4697 9.28468 16.2386 9.36852C16.1946 9.3845 16.15 9.39875 16.1048 9.41121C16.3872 9.33248 16.6485 9.18389 16.8714 8.98099ZM4.76293 9.67351C4.11442 10.1493 3.61672 9.10085 4.20491 8.68678L6.02225 7.4005L4.20491 6.12304C3.60918 5.70015 4.11442 4.66056 4.76293 5.13631L6.9347 6.72213C7.3419 7.02167 7.36453 7.77053 6.9347 8.08769L4.76293 9.67351ZM7.86976 10.2285C7.59829 10.2285 7.38715 9.97305 7.38715 9.6647C7.38715 9.34754 7.59829 9.09204 7.86976 9.09204H10.7428C11.0143 9.09204 11.2254 9.34754 11.2254 9.6647C11.2254 9.97305 11.0143 10.2285 10.7428 10.2285H7.86976Z"/>
    </mask>
    <path fill-rule="evenodd" clip-rule="evenodd" d="M0 2.8267C0 1.73893 0.881811 0.857117 1.96958 0.857117H14.9018C15.9896 0.857117 16.8714 1.73893 16.8714 2.8267V4.28675C16.4983 4.10379 16.0828 4.00165 15.643 4.00165C13.9745 4.00165 12.6607 5.47168 12.6637 7.23292C12.6639 8.18364 13.0427 9.06525 13.6591 9.67314C13.0104 9.9028 12.444 10.238 11.9765 10.6363C11.1101 11.3747 10.4967 12.4165 10.4967 13.4721C10.4967 13.7047 10.5384 13.9323 10.6225 14.1428H1.96958C0.881811 14.1428 0 13.261 0 12.1733V2.8267ZM16.8714 10.5191V10.5215C16.491 10.4256 16.0789 10.3717 15.6385 10.3717C15.1535 10.3717 14.703 10.4365 14.2914 10.5504C14.5008 10.4922 14.7202 10.4468 14.9492 10.4161C15.1717 10.3863 15.4031 10.3704 15.643 10.3704C15.882 10.3704 16.1127 10.3863 16.3346 10.4162C16.5198 10.4411 16.6989 10.4758 16.8714 10.5191ZM16.8714 5.50582C16.5304 5.20715 16.1006 5.03197 15.643 5.03197C15.478 5.03197 15.3167 5.05477 15.1618 5.09791C15.3153 5.05557 15.4751 5.0332 15.6385 5.0332C16.0981 5.0332 16.5296 5.20991 16.8714 5.51096V5.50582ZM16.8714 8.98099V8.98379C16.684 9.15338 16.4697 9.28468 16.2386 9.36852C16.1946 9.3845 16.15 9.39875 16.1048 9.41121C16.3872 9.33248 16.6485 9.18389 16.8714 8.98099ZM4.76293 9.67351C4.11442 10.1493 3.61672 9.10085 4.20491 8.68678L6.02225 7.4005L4.20491 6.12304C3.60918 5.70015 4.11442 4.66056 4.76293 5.13631L6.9347 6.72213C7.3419 7.02167 7.36453 7.77053 6.9347 8.08769L4.76293 9.67351ZM7.86976 10.2285C7.59829 10.2285 7.38715 9.97305 7.38715 9.6647C7.38715 9.34754 7.59829 9.09204 7.86976 9.09204H10.7428C11.0143 9.09204 11.2254 9.34754 11.2254 9.6647C11.2254 9.97305 11.0143 10.2285 10.7428 10.2285H7.86976Z" fill="currentColor"/>
    <path d="M16.8714 4.28675L16.4379 5.17099L17.8562 5.86635V4.28675H16.8714ZM12.6637 7.23292L13.6485 7.23263L13.6485 7.23125L12.6637 7.23292ZM13.6591 9.67314L13.9878 10.6015L15.4706 10.0765L14.3506 8.97198L13.6591 9.67314ZM11.9765 10.6363L11.3378 9.88677H11.3378L11.9765 10.6363ZM10.6225 14.1428V15.1276H12.0764L11.537 13.7775L10.6225 14.1428ZM16.8714 10.5215L16.6307 11.4764L17.8562 11.7853V10.5215H16.8714ZM16.8714 10.5191H17.8562V9.75101L17.1112 9.56396L16.8714 10.5191ZM14.2914 10.5504L14.0277 9.60156L14.5542 11.4995L14.2914 10.5504ZM14.9492 10.4161L14.8184 9.44001L14.8184 9.44001L14.9492 10.4161ZM16.3346 10.4162L16.466 9.44018L16.3346 10.4162ZM16.8714 5.50582H17.8562V5.05918L17.5202 4.76494L16.8714 5.50582ZM15.1618 5.09791L14.8975 4.14924L15.4237 6.04725L15.1618 5.09791ZM16.8714 5.51096L16.2205 6.24996L17.8562 7.69071V5.51096H16.8714ZM16.8714 8.98379L17.5321 9.71407L17.8562 9.42085V8.98379H16.8714ZM16.8714 8.98099H17.8562V6.75336L16.2086 8.25262L16.8714 8.98099ZM16.2386 9.36852L15.9027 8.4428H15.9027L16.2386 9.36852ZM16.1048 9.41121L15.8404 8.4626L16.3668 10.3605L16.1048 9.41121ZM4.20491 8.68678L4.7718 9.49204L4.77383 9.4906L4.20491 8.68678ZM4.76293 9.67351L4.18218 8.87818L4.18043 8.87947L4.76293 9.67351ZM6.02225 7.4005L6.59118 8.20433L7.73079 7.39774L6.58858 6.59484L6.02225 7.4005ZM4.20491 6.12304L3.63486 6.92608L3.63858 6.9287L4.20491 6.12304ZM4.76293 5.13631L4.18043 5.93035L4.18218 5.93163L4.76293 5.13631ZM6.9347 6.72213L7.51824 5.92884L7.51544 5.9268L6.9347 6.72213ZM6.9347 8.08769L7.51545 8.88303L7.51941 8.88011L6.9347 8.08769ZM1.96958 -0.127673C0.337926 -0.127673 -0.98479 1.19504 -0.98479 2.8267H0.98479C0.98479 2.28281 1.4257 1.84191 1.96958 1.84191V-0.127673ZM14.9018 -0.127673H1.96958V1.84191H14.9018V-0.127673ZM17.8562 2.8267C17.8562 1.19504 16.5335 -0.127673 14.9018 -0.127673V1.84191C15.4457 1.84191 15.8866 2.28281 15.8866 2.8267H17.8562ZM17.8562 4.28675V2.8267H15.8866V4.28675H17.8562ZM15.643 4.98644C15.9279 4.98644 16.1955 5.05214 16.4379 5.17099L17.3049 3.40252C16.801 3.15545 16.2376 3.01686 15.643 3.01686V4.98644ZM13.6485 7.23125C13.6462 5.93003 14.5999 4.98644 15.643 4.98644V3.01686C13.3492 3.01686 11.6751 5.01332 11.6789 7.2346L13.6485 7.23125ZM14.3506 8.97198C13.9259 8.55312 13.6487 7.9257 13.6485 7.23263L11.6789 7.23322C11.6792 8.44158 12.1596 9.57739 12.9676 10.3743L14.3506 8.97198ZM12.6153 11.3858C12.9917 11.0651 13.4532 10.7907 13.9878 10.6015L13.3304 8.74481C12.5677 9.01486 11.8963 9.41084 11.3378 9.88677L12.6153 11.3858ZM11.4814 13.4721C11.4814 12.7892 11.895 11.9997 12.6153 11.3858L11.3378 9.88677C10.3252 10.7497 9.51186 12.0438 9.51186 13.4721H11.4814ZM11.537 13.7775C11.5021 13.6901 11.4814 13.5872 11.4814 13.4721H9.51186C9.51186 13.8222 9.57468 14.1746 9.70797 14.5082L11.537 13.7775ZM1.96958 15.1276H10.6225V13.158H1.96958V15.1276ZM-0.98479 12.1733C-0.98479 13.8049 0.337926 15.1276 1.96958 15.1276V13.158C1.4257 13.158 0.98479 12.7171 0.98479 12.1733H-0.98479ZM-0.98479 2.8267V12.1733H0.98479V2.8267H-0.98479ZM17.8562 10.5215V10.5191H15.8866V10.5215H17.8562ZM15.6385 11.3564C15.9981 11.3564 16.3293 11.4004 16.6307 11.4764L17.1122 9.56655C16.6526 9.4507 16.1597 9.38687 15.6385 9.38687V11.3564ZM14.5542 11.4995C14.8797 11.4094 15.2418 11.3564 15.6385 11.3564V9.38687C15.0652 9.38687 14.5263 9.46354 14.0287 9.60131L14.5542 11.4995ZM14.8184 9.44001C14.5446 9.47671 14.2807 9.53127 14.0277 9.60156L14.5551 11.4992C14.7209 11.4532 14.8959 11.4168 15.08 11.3921L14.8184 9.44001ZM15.643 9.38564C15.3596 9.38564 15.0845 9.40436 14.8184 9.44001L15.08 11.3921C15.2588 11.3682 15.4465 11.3552 15.643 11.3552V9.38564ZM16.466 9.44018C16.2003 9.40443 15.9257 9.38564 15.643 9.38564V11.3552C15.8383 11.3552 16.0251 11.3682 16.2032 11.3922L16.466 9.44018ZM17.1112 9.56396C16.903 9.51168 16.6877 9.47003 16.466 9.44018L16.2032 11.3922C16.3519 11.4122 16.4948 11.4399 16.6316 11.4743L17.1112 9.56396ZM17.5202 4.76494C17.014 4.3217 16.3578 4.04718 15.643 4.04718V6.01676C15.8434 6.01676 16.0467 6.0926 16.2227 6.24671L17.5202 4.76494ZM15.643 4.04718C15.3868 4.04718 15.1366 4.08264 14.8975 4.14924L15.4261 6.04658C15.4967 6.02691 15.5692 6.01676 15.643 6.01676V4.04718ZM15.4237 6.04725C15.4936 6.02795 15.5654 6.01799 15.6385 6.01799V4.04841C15.3848 4.04841 15.137 4.0832 14.8999 4.14858L15.4237 6.04725ZM15.6385 6.01799C15.8398 6.01799 16.044 6.09449 16.2205 6.24996L17.5223 4.77197C17.0153 4.32534 16.3565 4.04841 15.6385 4.04841V6.01799ZM17.8562 5.51096V5.50582H15.8866V5.51096H17.8562ZM17.8562 8.98379V8.98099H15.8866V8.98379H17.8562ZM16.5745 10.2943C16.9322 10.1645 17.2555 9.9643 17.5321 9.71407L16.2108 8.2535C16.1124 8.34245 16.0072 8.40489 15.9027 8.4428L16.5745 10.2943ZM16.3668 10.3605C16.4371 10.3411 16.5064 10.319 16.5745 10.2943L15.9027 8.4428C15.8828 8.45003 15.8628 8.4564 15.8428 8.46191L16.3668 10.3605ZM16.2086 8.25262C16.0915 8.3592 15.9647 8.42794 15.8404 8.4626L16.3693 10.3598C16.8098 10.237 17.2054 10.0086 17.5342 9.70935L16.2086 8.25262ZM3.63801 7.88152C2.84888 8.43706 2.84319 9.3836 3.14599 9.9673C3.30506 10.274 3.59828 10.5926 4.04147 10.723C4.51714 10.863 4.98329 10.7332 5.34543 10.4675L4.18043 8.87947C4.21832 8.85167 4.37906 8.76928 4.59739 8.83352C4.78326 8.8882 4.86721 9.00809 4.89433 9.06035C4.92306 9.11574 4.93563 9.17855 4.92299 9.25124C4.90754 9.34014 4.85377 9.43433 4.7718 9.49204L3.63801 7.88152ZM5.45333 6.59668L3.63598 7.88295L4.77383 9.4906L6.59118 8.20433L5.45333 6.59668ZM3.63858 6.9287L5.45593 8.20616L6.58858 6.59484L4.77123 5.31738L3.63858 6.9287ZM5.34543 4.34226C4.984 4.07712 4.52 3.94763 4.04622 4.08387C3.60332 4.21123 3.30706 4.52682 3.1453 4.83511C2.83457 5.42729 2.85112 6.36972 3.63486 6.92607L4.77495 5.32C4.84987 5.37319 4.90364 5.46285 4.9195 5.55308C4.93251 5.62711 4.91967 5.69249 4.88936 5.75026C4.8605 5.80526 4.77492 5.92373 4.59052 5.97675C4.37525 6.03865 4.2176 5.95762 4.18043 5.93035L5.34543 4.34226ZM7.51544 5.9268L5.34368 4.34098L4.18218 5.93163L6.35395 7.51745L7.51544 5.9268ZM7.51941 8.88011C8.04745 8.49047 8.23867 7.88789 8.23332 7.38776C8.22803 6.89354 8.02891 6.3045 7.51824 5.92885L6.35116 7.5154C6.29744 7.47589 6.27529 7.43565 6.26857 7.42069C6.26222 7.40656 6.26379 7.40339 6.26385 7.40884C6.26391 7.41415 6.26233 7.40802 6.2702 7.38991C6.27908 7.36951 6.3022 7.33054 6.34999 7.29527L7.51941 8.88011ZM5.34368 10.4688L7.51544 8.88302L6.35395 7.29236L4.18218 8.87818L5.34368 10.4688ZM6.40236 9.6647C6.40236 10.357 6.90718 11.2133 7.86976 11.2133V9.24376C8.06095 9.24376 8.20339 9.33751 8.27822 9.42589C8.34953 9.51011 8.37194 9.59762 8.37194 9.6647H6.40236ZM7.86976 8.10725C6.89827 8.10725 6.40236 8.97419 6.40236 9.6647H8.37194C8.37194 9.72115 8.35344 9.80603 8.28156 9.89183C8.20588 9.98217 8.06182 10.0768 7.86976 10.0768V8.10725ZM10.7428 8.10725H7.86976V10.0768H10.7428V8.10725ZM12.2102 9.6647C12.2102 8.97419 11.7143 8.10725 10.7428 8.10725V10.0768C10.5508 10.0768 10.4067 9.98217 10.331 9.89183C10.2592 9.80603 10.2407 9.72115 10.2407 9.6647H12.2102ZM10.7428 11.2133C11.7054 11.2133 12.2102 10.357 12.2102 9.6647H10.2407C10.2407 9.59762 10.2631 9.51011 10.3344 9.42589C10.4092 9.33751 10.5516 9.24376 10.7428 9.24376V11.2133ZM7.86976 11.2133H10.7428V9.24376H7.86976V11.2133Z" fill="currentColor" mask="url(#path-2-inside-1_5121_2805)" display="none"/>
</svg>