<svg width="16" height="16" viewBox="0 0 16 16" fill="none" xmlns="http://www.w3.org/2000/svg">
<path fill-rule="evenodd" clip-rule="evenodd" d="M14.5 8C14.5 11.5899 11.5899 14.5 8 14.5C4.41015 14.5 1.5 11.5899 1.5 8C1.5 4.41015 4.41015 1.5 8 1.5C11.5899 1.5 14.5 4.41015 14.5 8ZM16 8C16 12.4183 12.4183 16 8 16C3.58172 16 0 12.4183 0 8C0 3.58172 3.58172 0 8 0C12.4183 0 16 3.58172 16 8ZM8.00699 4.00003C8.4488 3.99618 8.80384 4.35122 8.79999 4.79303L8.77883 7.22119L11.207 7.20003C11.6488 7.19618 12.0038 7.55122 12 7.99303C11.9961 8.43484 11.6349 8.79612 11.193 8.79997L8.76489 8.82113L8.74422 11.193C8.74037 11.6349 8.37909 11.9961 7.93728 12C7.49547 12.0038 7.14043 11.6488 7.14428 11.207L7.16495 8.83507L4.79303 8.85574C4.35122 8.85959 3.99618 8.50455 4.00003 8.06274C4.00388 7.62093 4.36516 7.25965 4.80697 7.2558L7.17889 7.23513L7.20005 4.80697C7.2039 4.36516 7.56518 4.00388 8.00699 4.00003Z" fill="currentColor"/>
</svg>
