<svg width="30" height="31" viewBox="0 0 30 31" fill="none" xmlns="http://www.w3.org/2000/svg">
<path fill-rule="evenodd" clip-rule="evenodd" d="M7.95837 4.13414C7.70239 4.22838 7.24967 4.53317 6.95228 4.81143C6.64098 5.10295 5.0525 7.25143 3.20587 9.87871L0 14.44L0.00108677 19.3896L0.00217396 24.3393L0.260326 24.8938C0.564674 25.5474 1.13011 26.1437 1.76924 26.4852L2.22826 26.7306H15H27.7717L28.2191 26.4912C28.9476 26.1015 29.3153 25.729 29.6676 25.024L30 24.3589V19.4361V14.5132L26.7332 9.83784C24.7601 7.01404 23.2726 4.99197 22.9772 4.73186C21.5313 3.45914 19.379 3.76545 18.1585 5.41762L17.7105 6.02404H16.1329C14.6029 6.02404 14.5473 6.03208 14.2886 6.29088C13.9647 6.61469 13.9402 7.09491 14.2293 7.45219C14.4364 7.70806 14.445 7.70893 17.2063 7.7411C19.7721 7.7711 19.9895 7.78871 20.1637 7.98132C20.4171 8.26132 20.2982 8.7161 19.9355 8.85393C19.7839 8.91164 18.7863 8.95882 17.7188 8.95882H15.7778L15.3879 9.41436C15.1553 9.6861 14.9604 9.8286 14.905 9.76762C14.8538 9.71132 14.1638 8.73599 13.3715 7.60012C11.5117 4.93349 11.333 4.72034 10.6416 4.34393C9.92457 3.95371 8.70783 3.8586 7.95837 4.13414ZM9.88935 5.94251C10.1068 6.09175 11.4674 7.92371 13.3809 10.6436L16.5161 15.1001L16.5189 19.4243C16.522 24.1021 16.5133 24.1808 15.9292 24.7197L15.6348 24.9914L9.22989 25.0211C2.14674 25.0539 2.38793 25.0759 1.95217 24.3611C1.75076 24.0309 1.73989 23.7847 1.73957 19.5223L1.73913 15.0315L4.91196 10.5204C6.73598 7.92708 8.20304 5.94501 8.36304 5.85806C8.79522 5.62295 9.47902 5.66077 9.88935 5.94251ZM21.5907 5.90654C21.778 6.02077 22.0554 6.27741 22.2072 6.47675C22.8262 7.29012 27.3846 13.8018 27.3878 13.8773C27.3897 13.9221 25.8873 13.957 24.0489 13.9547L20.7065 13.9506L20.4302 13.5471C20.2782 13.3251 19.8928 12.7683 19.5737 12.3096L18.9936 11.4757L19.2198 11.1097C19.4118 10.7989 19.5425 10.7237 20.0842 10.6118C21.9789 10.2204 22.6999 8.0648 21.3777 6.74458C21.1029 6.47023 20.7309 6.2324 20.4348 6.14197L19.9457 5.99262L20.2717 5.85023C20.7368 5.64697 21.1974 5.66664 21.5907 5.90654ZM8.58696 6.97012C8.2825 7.08088 7.83152 7.58023 7.7138 7.93708C7.42446 8.81382 8.12913 9.75588 9.07435 9.75588C10.5565 9.75588 11.0953 7.73545 9.79283 7.06197C9.47283 6.89643 8.90761 6.85338 8.58696 6.97012ZM28.2604 19.8556C28.2601 23.7315 28.2462 24.0359 28.0559 24.3479C27.6349 25.0384 27.5764 25.0458 22.5034 25.0458H17.9201L17.9986 24.8012C18.2237 24.0995 18.2559 23.4731 18.2583 19.7469L18.2609 15.6979H23.2609H28.2609L28.2604 19.8556Z" fill="currentColor"/>
</svg>
