<svg width="14" height="14" viewBox="0 0 14 14" fill="none" xmlns="http://www.w3.org/2000/svg">
<path d="M2.96841 5.74186C3.11028 5.74186 3.20735 5.64479 3.22228 5.51038C3.49107 3.5168 3.55828 3.5168 5.61907 3.12106C5.746 3.09865 5.84307 3.00906 5.84307 2.86719C5.84307 2.73279 5.746 2.63573 5.61907 2.62079C3.55828 2.32959 3.48361 2.2624 3.22228 0.238933C3.20735 0.0970695 3.11028 0 2.96841 0C2.83401 0 2.73694 0.0970695 2.71454 0.246404C2.47561 2.23999 2.36361 2.23253 0.317749 2.62079C0.190816 2.64319 0.09375 2.73279 0.09375 2.86719C0.09375 3.01653 0.190816 3.09865 0.347616 3.12106C2.37855 3.44959 2.47561 3.50186 2.71454 5.49545C2.73694 5.64479 2.83401 5.74186 2.96841 5.74186Z" fill="currentColor"/>
<path d="M8.03055 14C8.22469 14 8.36655 13.8581 8.40388 13.6564C8.93401 9.57224 9.50895 8.94496 13.5559 8.49702C13.7649 8.47463 13.9068 8.32532 13.9068 8.12368C13.9068 7.92959 13.7649 7.78021 13.5559 7.75781C9.50895 7.3098 8.93401 6.6826 8.40388 2.59089C8.36655 2.38929 8.22469 2.25488 8.03055 2.25488C7.83642 2.25488 7.69454 2.38929 7.66468 2.59089C7.13455 6.6826 6.55216 7.3098 2.51269 7.75781C2.29616 7.78021 2.1543 7.92959 2.1543 8.12368C2.1543 8.32532 2.29616 8.47463 2.51269 8.49702C6.54468 9.02709 7.10469 9.57224 7.66468 13.6564C7.69454 13.8581 7.83642 14 8.03055 14Z" fill="currentColor"/>
</svg>
