<svg width="24" height="24" viewBox="0 0 24 24" fill="none" xmlns="http://www.w3.org/2000/svg">
<path fill-rule="evenodd" clip-rule="evenodd" d="M7.23529 4C5.48097 4 4.05882 5.42215 4.05882 7.17647V7.7422C3.4667 7.78667 3 8.28538 3 8.89405C3 9.50272 3.4667 10.0014 4.05882 10.0459V12.4588C3.4667 12.5033 3 13.002 3 13.6107C3 14.2193 3.4667 14.7181 4.05882 14.7625V15.3823C4.05882 17.1367 5.48103 18.5588 7.23535 18.5588L7.23529 18.5716V18.6123C7.23529 19.332 7.81874 19.9154 8.53845 19.9154C9.25817 19.9154 9.84162 19.332 9.84162 18.6123V18.5716L9.84156 18.5588H15.4615L15.4615 18.5716V18.6123C15.4615 19.332 16.0449 19.9154 16.7646 19.9154C17.4843 19.9154 18.0678 19.332 18.0678 18.6123V18.5716L18.0676 18.5496C19.7079 18.4249 21 17.0545 21 15.3823V7.17647C21 5.42215 19.5778 4 17.8235 4H7.23529ZM12.0845 13.997L11.6531 12.779H9.33548L8.9041 13.997H7.5L9.7584 8H11.3063L13.5393 13.997H12.0845ZM10.5112 9.48868L9.77532 11.561H11.2302L10.5112 9.48868ZM14.0708 14H15.3305V8H14.0708V14ZM16.3936 14H17.6533V8H16.3936V14Z" fill="currentColor"/>
</svg>
