<svg width="14" height="15" viewBox="0 0 14 15" fill="none" xmlns="http://www.w3.org/2000/svg">
<path d="M7.00301 11.1893C6.83444 11.1893 6.68192 11.1231 6.54545 10.9907L2.17459 6.51746C2.12242 6.46127 2.08027 6.39906 2.04816 6.33082C2.01605 6.25858 2 6.18031 2 6.09603C2 5.98364 2.02609 5.8833 2.07827 5.795C2.13044 5.70269 2.20068 5.63044 2.28898 5.57827C2.3813 5.52609 2.48364 5.5 2.59603 5.5C2.76059 5.5 2.90307 5.5582 3.02348 5.67459L7.29199 10.0455H6.70801L10.9705 5.67459C11.0989 5.5582 11.2434 5.5 11.404 5.5C11.5164 5.5 11.6167 5.52609 11.705 5.57827C11.7973 5.63044 11.8696 5.70269 11.9217 5.795C11.9739 5.8833 12 5.98364 12 6.09603C12 6.25657 11.9418 6.39705 11.8254 6.51746L7.44852 10.9846C7.38832 11.0529 7.32009 11.1051 7.24383 11.1412C7.16757 11.1733 7.0873 11.1893 7.00301 11.1893Z" fill="currentColor"/>
</svg>
