<svg width="20" height="20" viewBox="0 0 20 20" fill="none" xmlns="http://www.w3.org/2000/svg">
    <g clip-path="url(#a)">
        <path fill-rule="evenodd" clip-rule="evenodd" d="M14.358.717 13.275 1.8a4.971 4.971 0 0 1 2.058 4.033h-10c0-1.658.809-3.116 2.042-4.025L6.284.717a.413.413 0 0 1 0-.592.413.413 0 0 1 .591 0l1.242 1.233a4.936 4.936 0 0 1 2.216-.525c.792 0 1.542.192 2.2.525L13.767.125a.412.412 0 0 1 .591 0 .413.413 0 0 1 0 .592ZM2 7.917c0-.692.558-1.25 1.25-1.25s1.25.558 1.25 1.25v5.833c0 .692-.558 1.25-1.25 1.25S2 14.442 2 13.75V7.917Zm4.167 7.916A.836.836 0 0 1 5.334 15V6.667h10V15a.836.836 0 0 1-.834.833h-.833v2.917c0 .692-.559 1.25-1.25 1.25-.692 0-1.25-.558-1.25-1.25v-2.917H9.5v2.917c0 .692-.558 1.25-1.25 1.25S7 19.442 7 18.75v-2.917h-.833Zm11.25-9.166c-.692 0-1.25.558-1.25 1.25v5.833c0 .692.558 1.25 1.25 1.25.691 0 1.25-.558 1.25-1.25V7.917c0-.692-.559-1.25-1.25-1.25Zm-8.75-2.5h-.834v-.834h.834v.834Zm3.333 0h.833v-.834H12v.834Z" fill="currentColor"/>
    </g>
    <defs>
        <clipPath id="a"><path  d="M0 0h20v20H0z"/></clipPath>
    </defs>
</svg>
