<svg width="16" height="24" viewBox="0 0 16 24" fill="none" xmlns="http://www.w3.org/2000/svg">
<path d="M0.716797 21.0524C0.716797 22.821 1.95251 24 3.80041 24H12.201C14.0489 24 15.2846 22.821 15.2846 21.0524V2.94757C15.2846 1.17903 14.0489 0 12.201 0H3.80041C1.95251 0 0.716797 1.17903 0.716797 2.94757V21.0524ZM2.54202 20.7577V3.24232C2.54202 2.33538 3.07485 1.82522 4.03848 1.82522H11.9742C12.9265 1.82522 13.4594 2.33538 13.4594 3.24232V20.7577C13.4594 21.6646 12.9265 22.1748 11.9742 22.1748H4.03848C3.07485 22.1748 2.54202 21.6646 2.54202 20.7577ZM5.45558 6.15588C6.21514 6.15588 6.87268 5.49835 6.87268 4.69343C6.87268 3.92253 6.21514 3.265 5.45558 3.265C4.63933 3.265 3.99313 3.92253 3.99313 4.69343C3.99313 5.49835 4.63933 6.15588 5.45558 6.15588Z" fill="currentColor"/>
</svg>
