<svg width="20" height="20" viewBox="0 0 20 20" fill="none" xmlns="http://www.w3.org/2000/svg">
    <g clip-path="url(#a)">
        <path fill-rule="evenodd" clip-rule="evenodd" d="m9.466 4.826.005.038.015.002.024.001a3.755 3.755 0 0 0 1.965-.565 4.77 4.77 0 0 0 1.46-1.446 4.127 4.127 0 0 0 .67-2.028 6.626 6.626 0 0 0-.01-.803.06.06 0 0 0-.005-.016.102.102 0 0 1-.002-.009h-.023l-.11.015a8.536 8.536 0 0 0-.258.036 4.076 4.076 0 0 0-1.5.56c-.444.273-.829.617-1.172 1.009a4.81 4.81 0 0 0-.735 1.098 3.601 3.601 0 0 0-.324 2.108ZM1 10.379v.509l.004.014c.002.01.005.02.005.03.008.116.014.231.02.347a11.434 11.434 0 0 0 .318 2.082c.21.848.51 1.663.887 2.45.368.77.791 1.507 1.291 2.198.228.316.474.616.747.893a4.3 4.3 0 0 0 1.006.78c.272.148.559.25.866.293a1.772 1.772 0 0 0 .164.016c.013.001.025.004.038.006l.017.003h.186c.006 0 .012-.002.017-.003a.281.281 0 0 1 .038-.006c.355-.017.7-.09 1.027-.229.35-.147.701-.285 1.062-.4a4.6 4.6 0 0 1 .871-.19c.275-.031.55-.026.825.001.243.024.483.069.714.154.187.069.374.14.56.213.317.124.637.241.966.329.202.054.405.096.613.118l.127.013h.145l.038-.005.084-.01a2.26 2.26 0 0 0 .781-.253c.32-.166.607-.382.876-.62.39-.348.738-.736 1.063-1.145a11.318 11.318 0 0 0 1.794-3.29l.03-.08-.06-.033c-.38-.2-.74-.43-1.073-.7a4.58 4.58 0 0 1-1.08-1.224 4.051 4.051 0 0 1-.502-1.353 4.669 4.669 0 0 1-.068-1.08 4.045 4.045 0 0 1 .642-1.995 5.37 5.37 0 0 1 .998-1.143c.183-.16.374-.31.572-.453l.027-.02.015-.012-.008-.011a5.187 5.187 0 0 0-1.523-1.325 4.89 4.89 0 0 0-1.474-.536 6.089 6.089 0 0 0-1.388-.101 5.616 5.616 0 0 0-1.724.32c-.198.072-.394.148-.59.223l-.27.104a3.13 3.13 0 0 1-.687.178c-.255.035-.501.002-.744-.074a5.736 5.736 0 0 1-.471-.177 17.342 17.342 0 0 0-.328-.133c-.187-.076-.373-.152-.563-.22a3.947 3.947 0 0 0-.87-.193 5.658 5.658 0 0 0-1.099-.011 5.529 5.529 0 0 0-1.28.247 4.816 4.816 0 0 0-2.098 1.358 5.563 5.563 0 0 0-1.275 2.355c-.095.353-.163.711-.198 1.075-.014.147-.024.295-.035.442l-.016.225a.213.213 0 0 1-.006.034.494.494 0 0 0-.004.015Z" fill="currentColor"/>
    </g>
    <defs>
        <clipPath id="a"><path d="M0 0h20v20H0z"/></clipPath>
    </defs>
</svg>
