<svg width="24" height="24" viewBox="0 0 24 24" fill="none" xmlns="http://www.w3.org/2000/svg">
    <g id="apple">
        <path id="Combined Shape" fill-rule="evenodd" clip-rule="evenodd"
              d="M11.4556 6.82001C11.4572 6.83271 11.4588 6.84548 11.4605 6.85837C11.4658 6.85879 11.4706 6.85927 11.4752 6.85972C11.4841 6.8606 11.4919 6.86137 11.4997 6.86135C11.6857 6.86087 11.8707 6.84603 12.0545 6.81807C12.559 6.74131 13.029 6.5682 13.4617 6.2967C14.0546 5.92476 14.536 5.4374 14.9199 4.85297C15.3234 4.23856 15.5413 3.56062 15.5897 2.82694C15.6074 2.55918 15.5938 2.29185 15.579 2.02454C15.5787 2.01924 15.5769 2.01402 15.575 2.00852C15.5741 2.00587 15.5731 2.00314 15.5723 2.00031C15.5691 2.00031 15.5662 2.00022 15.5635 2.00014C15.5583 1.99998 15.5539 1.99984 15.5495 2.00043C15.5128 2.00537 15.4762 2.01012 15.4395 2.01486C15.3534 2.02598 15.2674 2.03711 15.1818 2.05083C14.6454 2.13681 14.1471 2.32628 13.6841 2.61048C13.2399 2.88309 12.8559 3.22631 12.5133 3.61795C12.2214 3.95173 11.9703 4.31324 11.779 4.71504C11.4731 5.3577 11.3581 6.03214 11.4455 6.74017C11.4487 6.76668 11.4521 6.79317 11.4556 6.82001ZM3 12.3666V12.8745C3.00103 12.8792 3.00227 12.8838 3.00351 12.8885C3.00617 12.8985 3.00884 12.9086 3.00946 12.9187C3.01649 13.0342 3.02295 13.1496 3.02907 13.2651C3.04415 13.5497 3.0733 13.8328 3.11116 14.1152C3.1667 14.5295 3.24589 14.9391 3.34636 15.3446C3.55619 16.1915 3.85565 17.006 4.23202 17.792C4.60001 18.5605 5.0229 19.2969 5.52224 19.9876C5.74983 20.3025 5.99551 20.6023 6.26844 20.8789C6.5688 21.1832 6.89528 21.454 7.27268 21.6583C7.54427 21.8054 7.83091 21.9079 8.1373 21.951C8.17144 21.9558 8.20586 21.9586 8.24028 21.9614C8.26069 21.9631 8.28111 21.9648 8.30147 21.9668C8.31414 21.9681 8.32672 21.9704 8.33929 21.9727C8.34504 21.9737 8.35079 21.9747 8.35655 21.9757H8.54233C8.54811 21.9747 8.55389 21.9736 8.55967 21.9725C8.57209 21.9701 8.58452 21.9677 8.59703 21.9671C8.95209 21.9496 9.29541 21.8762 9.62308 21.7381C9.97172 21.5912 10.3234 21.4531 10.684 21.3385C10.9679 21.2483 11.2575 21.1829 11.5537 21.149C11.8281 21.1176 12.1029 21.1229 12.3772 21.1498C12.6206 21.1737 12.8603 21.2183 13.0908 21.3032C13.2778 21.3721 13.4641 21.443 13.6497 21.5158C13.9666 21.6402 14.2859 21.7572 14.6152 21.8448C14.8164 21.8984 15.0197 21.9405 15.2269 21.9623L15.3541 21.9757H15.4986C15.5114 21.9741 15.5242 21.9725 15.537 21.9709C15.5648 21.9674 15.5926 21.9639 15.6203 21.9606C15.8972 21.9281 16.1549 21.8358 16.4011 21.7079C16.721 21.5417 17.0067 21.3266 17.2755 21.0878C17.6657 20.741 18.0131 20.3537 18.3369 19.9447C19.085 18.9995 19.6527 17.953 20.0707 16.8228C20.0906 16.7692 20.1098 16.7153 20.1296 16.6598C20.139 16.6334 20.1486 16.6067 20.1583 16.5795C20.1512 16.5755 20.1445 16.5717 20.1379 16.568C20.1243 16.5603 20.1115 16.5531 20.0986 16.5462C19.7203 16.3461 19.3604 16.1176 19.027 15.8481C18.5985 15.5017 18.2309 15.101 17.9485 14.6247C17.6996 14.205 17.5351 13.7537 17.4477 13.2733C17.3827 12.9164 17.3613 12.5566 17.3798 12.195C17.4169 11.4741 17.6338 10.8104 18.0209 10.2024C18.2955 9.77106 18.6349 9.39683 19.0172 9.06034C19.1998 8.89967 19.3909 8.74994 19.5883 8.60818C19.5976 8.60155 19.6066 8.59464 19.6162 8.58725C19.6209 8.58366 19.6258 8.57995 19.6308 8.57611C19.6281 8.57206 19.6256 8.56821 19.6233 8.56456C19.6186 8.55723 19.6143 8.55063 19.6095 8.54455C19.187 8.01657 18.6921 7.57302 18.1017 7.24098C17.6403 6.98143 17.1482 6.80688 16.6294 6.70587C16.1713 6.61666 15.7087 6.58856 15.2433 6.60533C14.6538 6.62656 14.0775 6.72409 13.5214 6.92568C13.3239 6.99726 13.1278 7.0727 12.9317 7.14814C12.8421 7.1826 12.7526 7.21707 12.6628 7.25116C12.4402 7.33576 12.2118 7.39708 11.9756 7.42948C11.7217 7.4643 11.4756 7.43135 11.2326 7.35557C11.0724 7.30558 10.9175 7.24193 10.7626 7.17827C10.7124 7.15764 10.6622 7.13701 10.6118 7.11684C10.5529 7.09328 10.4941 7.06946 10.4353 7.04565C10.2487 6.97004 10.062 6.89441 9.87247 6.82675C9.59153 6.72644 9.29959 6.66853 9.00332 6.6337C8.63801 6.59074 8.27235 6.59394 7.90628 6.62216C7.47091 6.65571 7.0444 6.73483 6.6284 6.86915C5.80924 7.13365 5.11377 7.59107 4.532 8.22555C3.91135 8.90242 3.49718 9.69223 3.25884 10.5778C3.16404 10.9301 3.09629 11.2877 3.06119 11.6509C3.04697 11.7981 3.03659 11.9457 3.02621 12.0932C3.02096 12.1679 3.01572 12.2425 3.00997 12.3171C3.00909 12.3285 3.00636 12.3397 3.00363 12.3509C3.00235 12.3561 3.00108 12.3614 3 12.3666Z"
              fill="url(#paint0_linear_235_14975)"/>
    </g>
    <defs>
        <linearGradient id="paint0_linear_235_14975" x1="1.3999" y1="-0.204544" x2="17.6973" y2="0.587329"
                        gradientUnits="userSpaceOnUse">
            <stop stop-color="#2091F6"/>
            <stop offset="1" stop-color="#21B568"/>
        </linearGradient>
        <clipPath id="clip0_217_14042">
            <rect width="18" height="18" fill="white" transform="translate(0.5)"/>
        </clipPath>
    </defs>
</svg>
