<svg width="9" height="12" viewBox="0 0 9 12" fill="white" xmlns="http://www.w3.org/2000/svg">
<path d="M4.46931 3.23404C4.9497 3.23404 5.55188 2.90927 5.91048 2.47624C6.23525 2.0838 6.47206 1.53575 6.47206 0.987702C6.47206 0.913276 6.4653 0.838849 6.45177 0.777954C5.91725 0.798252 5.27447 1.13656 4.8888 1.58988C4.58433 1.93495 4.30692 2.47624 4.30692 3.03105C4.30692 3.11225 4.32045 3.19344 4.32722 3.2205C4.36105 3.22727 4.41518 3.23404 4.46931 3.23404ZM2.77779 11.421C3.4341 11.421 3.72504 10.9812 4.54373 10.9812C5.37596 10.9812 5.55864 11.4074 6.28938 11.4074C7.00658 11.4074 7.48697 10.7444 7.9403 10.0948C8.44776 9.35056 8.6575 8.61983 8.67104 8.586C8.62367 8.57246 7.25016 8.01088 7.25016 6.43439C7.25016 5.06764 8.33273 4.45193 8.39363 4.40457C7.67642 3.37612 6.58709 3.34906 6.28938 3.34906C5.48422 3.34906 4.82791 3.83622 4.41518 3.83622C3.96862 3.83622 3.37997 3.37612 2.68307 3.37612C1.35692 3.37612 0.0104675 4.47223 0.0104675 6.54264C0.0104675 7.8282 0.511156 9.18818 1.12687 10.0678C1.65462 10.812 2.11472 11.421 2.77779 11.421Z" fill="black"/>
</svg>
