<svg width="116" height="35" viewBox="0 0 116 35" fill="none" xmlns="http://www.w3.org/2000/svg">
<path d="M114.961 30.3023C114.961 32.0758 113.495 33.5125 111.681 33.5125H4.32341C2.51029 33.5125 1.03857 32.0758 1.03857 30.3023V4.70192C1.03857 2.92919 2.51029 1.48753 4.32341 1.48753H111.68C113.495 1.48753 114.961 2.92919 114.961 4.70192L114.961 30.3023Z" fill="white"/>
<path d="M111.335 1.52624C113.31 1.52624 114.918 3.09356 114.918 5.01968V29.9803C114.918 31.9064 113.31 33.4738 111.335 33.4738H4.66521C2.68969 33.4738 1.08219 31.9064 1.08219 29.9803V5.01968C1.08219 3.09356 2.68969 1.52624 4.66521 1.52624H111.335ZM111.335 0.85958H4.66521C2.31955 0.85958 0.398438 2.73267 0.398438 5.01968V29.9803C0.398438 32.2673 2.31955 34.1404 4.66521 34.1404H111.335C113.68 34.1404 115.601 32.2673 115.601 29.9803V5.01968C115.601 2.73267 113.68 0.85958 111.335 0.85958Z" fill="#A6A6A6"/>
<path d="M26.1083 17.3203C26.0835 14.6387 28.3603 13.3341 28.4644 13.2733C27.175 11.4404 25.1764 11.1899 24.4741 11.17C22.7956 10.9977 21.1674 12.1493 20.3123 12.1493C19.4402 12.1493 18.1235 11.1866 16.7043 11.2149C14.8781 11.2424 13.1697 12.2732 12.2327 13.874C10.299 17.1381 11.7412 21.9347 13.5938 24.573C14.5206 25.8651 15.6035 27.3078 17.0209 27.2571C18.4076 27.2014 18.9256 26.3951 20.599 26.3951C22.2571 26.3951 22.7435 27.2571 24.1891 27.2246C25.6773 27.2014 26.6143 25.9267 27.5086 24.6229C28.5796 23.1419 29.0097 21.6834 29.0268 21.6085C28.9918 21.5969 26.1365 20.5344 26.1083 17.3203Z" fill="#141729"/>
<path d="M23.3776 9.43438C24.1234 8.52498 24.6337 7.28777 24.492 6.03225C23.4125 6.07884 22.0625 6.76027 21.2851 7.6497C20.5973 8.43346 19.9829 9.7181 20.1416 10.9262C21.3543 11.0144 22.5993 10.3296 23.3776 9.43438Z" fill="#141729"/>
<path d="M42.2559 9.1873C42.2559 10.1666 41.9546 10.9038 41.353 11.3988C40.7958 11.8556 40.0038 12.0844 38.9781 12.0844C38.4695 12.0844 38.0343 12.0628 37.6699 12.0195V6.66877C38.1452 6.59389 38.6573 6.55562 39.2102 6.55562C40.1873 6.55562 40.9238 6.76279 41.4204 7.17714C41.9768 7.64557 42.2559 8.31534 42.2559 9.1873ZM41.3129 9.21143C41.3129 8.5766 41.1405 8.08986 40.7958 7.7504C40.451 7.41177 39.9475 7.24204 39.2845 7.24204C39.0029 7.24204 38.7631 7.26034 38.5642 7.29861V11.3664C38.6743 11.383 38.8757 11.3905 39.1684 11.3905C39.8528 11.3905 40.381 11.205 40.7531 10.8339C41.1252 10.4628 41.3129 9.92197 41.3129 9.21143Z" fill="#141729"/>
<path d="M47.2554 10.0426C47.2554 10.6458 47.0787 11.14 46.7254 11.5278C46.3551 11.9263 45.8644 12.1252 45.2517 12.1252C44.6612 12.1252 44.191 11.9346 43.8402 11.5519C43.4904 11.17 43.3154 10.6883 43.3154 10.1075C43.3154 9.50013 43.4955 9.00175 43.8573 8.61486C44.2191 8.22797 44.7055 8.03411 45.3183 8.03411C45.9088 8.03411 46.3832 8.22464 46.7425 8.60654C47.0838 8.97762 47.2554 9.45687 47.2554 10.0426ZM46.3278 10.0709C46.3278 9.70897 46.2476 9.39862 46.088 9.13987C45.9002 8.82703 45.6331 8.67061 45.2858 8.67061C44.9266 8.67061 44.6535 8.82703 44.4658 9.13987C44.3053 9.39862 44.226 9.71396 44.226 10.0867C44.226 10.4486 44.3062 10.759 44.4658 11.0177C44.6595 11.3306 44.9291 11.487 45.2773 11.487C45.6186 11.487 45.8866 11.3281 46.0794 11.0094C46.245 10.7457 46.3278 10.4328 46.3278 10.0709Z" fill="#141729"/>
<path d="M53.9593 8.11398L52.7006 12.0361H51.8814L51.36 10.333C51.2277 9.90781 51.1202 9.48515 51.0365 9.06581H51.0203C50.9427 9.49679 50.8351 9.91863 50.6969 10.333L50.1431 12.0361H49.3145L48.1309 8.11398H49.0499L49.5048 9.97853C49.6148 10.4195 49.7053 10.8397 49.7778 11.2374H49.794C49.8606 10.9096 49.9707 10.4919 50.126 9.98685L50.6969 8.11481H51.4257L51.9727 9.94692C52.1049 10.3937 52.2125 10.8239 52.2952 11.2382H52.32C52.3806 10.8347 52.4719 10.4045 52.593 9.94692L53.0812 8.11481H53.9593V8.11398Z" fill="#141729"/>
<path d="M58.5954 12.0361H57.7011V9.78967C57.7011 9.09743 57.4314 8.75131 56.8904 8.75131C56.625 8.75131 56.4108 8.84616 56.2444 9.03669C56.0797 9.22722 55.9961 9.45187 55.9961 9.70896V12.0353H55.1018V9.23471C55.1018 8.89025 55.0907 8.51668 55.0693 8.11231H55.8553L55.8971 8.72551H55.9218C56.0259 8.53498 56.1813 8.37773 56.3852 8.25209C56.6276 8.10566 56.8989 8.03161 57.1959 8.03161C57.5714 8.03161 57.8837 8.14976 58.132 8.38688C58.4409 8.67726 58.5954 9.11074 58.5954 9.6865V12.0361Z" fill="#141729"/>
<path d="M61.0619 12.0361H60.1685V6.31432H61.0619V12.0361Z" fill="#141729"/>
<path d="M66.3271 10.0426C66.3271 10.6458 66.1505 11.14 65.7972 11.5278C65.4269 11.9263 64.9353 12.1252 64.3235 12.1252C63.7321 12.1252 63.2619 11.9346 62.912 11.5519C62.5621 11.17 62.3872 10.6883 62.3872 10.1075C62.3872 9.50013 62.5673 9.00175 62.9291 8.61486C63.2909 8.22797 63.7773 8.03411 64.3892 8.03411C64.9806 8.03411 65.4542 8.22464 65.8143 8.60654C66.1556 8.97762 66.3271 9.45687 66.3271 10.0426ZM65.3987 10.0709C65.3987 9.70897 65.3185 9.39862 65.1589 9.13987C64.972 8.82703 64.7041 8.67061 64.3576 8.67061C63.9975 8.67061 63.7244 8.82703 63.5375 9.13987C63.3771 9.39862 63.2977 9.71396 63.2977 10.0867C63.2977 10.4486 63.378 10.759 63.5375 11.0177C63.7312 11.3306 64.0009 11.487 64.3491 11.487C64.6904 11.487 64.9575 11.3281 65.1504 11.0094C65.3168 10.7457 65.3987 10.4328 65.3987 10.0709Z" fill="#141729"/>
<path d="M70.6555 12.0361H69.8525L69.7859 11.5843H69.7612C69.4864 11.9446 69.0947 12.1252 68.5861 12.1252C68.2064 12.1252 67.8992 12.0062 67.6679 11.7699C67.458 11.5552 67.353 11.2881 67.353 10.9711C67.353 10.4919 67.5578 10.1266 67.97 9.87371C68.3813 9.62077 68.9599 9.4968 69.7049 9.50263V9.42941C69.7049 8.91272 69.4267 8.6548 68.8694 8.6548C68.4726 8.6548 68.1228 8.75215 67.8207 8.94517L67.6389 8.37274C68.0127 8.14727 68.4743 8.03411 69.0188 8.03411C70.0701 8.03411 70.5975 8.57492 70.5975 9.65655V11.1009C70.5975 11.4928 70.6171 11.8048 70.6555 12.0361ZM69.7271 10.6883V10.0834C68.7406 10.0667 68.2473 10.3305 68.2473 10.8738C68.2473 11.0785 68.3037 11.2316 68.4189 11.3339C68.5341 11.4362 68.6808 11.487 68.8558 11.487C69.0521 11.487 69.2355 11.4263 69.4028 11.3056C69.5709 11.1841 69.6741 11.0302 69.7125 10.8413C69.7219 10.7989 69.7271 10.7473 69.7271 10.6883Z" fill="#141729"/>
<path d="M75.7371 12.0361H74.9434L74.9016 11.4063H74.8769C74.6234 11.8855 74.1916 12.1252 73.5849 12.1252C73.1002 12.1252 72.6966 11.9396 72.3766 11.5685C72.0565 11.1975 71.897 10.7157 71.897 10.1241C71.897 9.48932 72.0702 8.97513 72.4184 8.58241C72.7554 8.21632 73.1685 8.03328 73.66 8.03328C74.2002 8.03328 74.5782 8.2105 74.7933 8.56577H74.8103V6.31432H75.7055V10.9795C75.7055 11.3614 75.7157 11.7133 75.7371 12.0361ZM74.8103 10.3821V9.72811C74.8103 9.61495 74.8018 9.52343 74.7856 9.45354C74.7352 9.24387 74.6268 9.06748 74.4622 8.9252C74.2957 8.78293 74.0952 8.71138 73.8639 8.71138C73.5303 8.71138 73.2692 8.84034 73.0772 9.0991C72.8869 9.35786 72.7904 9.68817 72.7904 10.0917C72.7904 10.4794 72.8817 10.7939 73.0652 11.036C73.2589 11.294 73.52 11.4229 73.8469 11.4229C74.1404 11.4229 74.3751 11.3156 74.5535 11.1001C74.7258 10.9013 74.8103 10.6616 74.8103 10.3821Z" fill="#141729"/>
<path d="M83.3857 10.0426C83.3857 10.6458 83.2091 11.14 82.8558 11.5278C82.4854 11.9263 81.9956 12.1252 81.3821 12.1252C80.7924 12.1252 80.3222 11.9346 79.9706 11.5519C79.6207 11.17 79.4458 10.6883 79.4458 10.1075C79.4458 9.50013 79.6259 9.00175 79.9877 8.61486C80.3495 8.22797 80.8359 8.03411 81.4495 8.03411C82.0391 8.03411 82.5145 8.22464 82.8729 8.60654C83.2142 8.97762 83.3857 9.45687 83.3857 10.0426ZM82.459 10.0709C82.459 9.70897 82.3788 9.39862 82.2192 9.13987C82.0306 8.82703 81.7644 8.67061 81.4162 8.67061C81.0578 8.67061 80.7847 8.82703 80.5961 9.13987C80.4357 9.39862 80.3563 9.71396 80.3563 10.0867C80.3563 10.4486 80.4365 10.759 80.5961 11.0177C80.7898 11.3306 81.0595 11.487 81.4077 11.487C81.749 11.487 82.0178 11.3281 82.2107 11.0094C82.3754 10.7457 82.459 10.4328 82.459 10.0709Z" fill="#141729"/>
<path d="M88.1942 12.0361H87.3007V9.78967C87.3007 9.09743 87.031 8.75131 86.4892 8.75131C86.2238 8.75131 86.0096 8.84616 85.844 9.03669C85.6785 9.22722 85.5957 9.45187 85.5957 9.70896V12.0353H84.7005V9.23471C84.7005 8.89025 84.6903 8.51668 84.6689 8.11231H85.454L85.4958 8.72551H85.5206C85.6256 8.53498 85.7809 8.37773 85.984 8.25209C86.2272 8.10566 86.4977 8.03161 86.7955 8.03161C87.1701 8.03161 87.4824 8.14976 87.7308 8.38688C88.0405 8.67726 88.1942 9.11074 88.1942 9.6865V12.0361Z" fill="#141729"/>
<path d="M94.2127 8.76712H93.2279V10.6724C93.2279 11.1567 93.4028 11.3988 93.7493 11.3988C93.9097 11.3988 94.0429 11.3855 94.1478 11.358L94.1709 12.0195C93.9942 12.0844 93.7621 12.1168 93.4762 12.1168C93.1229 12.1168 92.8482 12.012 92.6493 11.8023C92.4496 11.5927 92.3507 11.2399 92.3507 10.7448V8.76712H91.7627V8.11398H92.3507V7.39512L93.227 7.13719V8.11315H94.2118V8.76712H94.2127Z" fill="#141729"/>
<path d="M98.9473 12.0361H98.0521V9.80632C98.0521 9.10326 97.7824 8.75131 97.2423 8.75131C96.8275 8.75131 96.5442 8.95516 96.3889 9.36285C96.3624 9.44855 96.3471 9.55338 96.3471 9.67652V12.0353H95.4536V6.31432H96.3471V8.67809H96.3641C96.6458 8.24794 97.0494 8.03328 97.5725 8.03328C97.9429 8.03328 98.2492 8.15143 98.4924 8.38855C98.7954 8.68392 98.9473 9.12323 98.9473 9.70398V12.0361Z" fill="#141729"/>
<path d="M103.831 9.88951C103.831 10.0459 103.819 10.1774 103.798 10.2847H101.116C101.128 10.6724 101.256 10.9678 101.504 11.1725C101.731 11.3555 102.024 11.447 102.382 11.447C102.779 11.447 103.141 11.3855 103.467 11.2615L103.607 11.8672C103.225 12.0286 102.777 12.1093 102.257 12.1093C101.634 12.1093 101.143 11.9305 100.788 11.5727C100.432 11.2149 100.255 10.7348 100.255 10.1325C100.255 9.54089 100.42 9.04833 100.752 8.65562C101.098 8.23628 101.566 8.02661 102.158 8.02661C102.736 8.02661 103.176 8.23628 103.473 8.65562C103.713 8.98843 103.831 9.40028 103.831 9.88951ZM102.978 9.66403C102.985 9.40527 102.926 9.18229 102.805 8.99425C102.649 8.75213 102.413 8.63066 102.093 8.63066C101.801 8.63066 101.563 8.74881 101.381 8.98593C101.233 9.1748 101.145 9.40028 101.116 9.66403H102.978Z" fill="#141729"/>
<path d="M46.1768 27.0716H44.2388L43.1773 23.8192H39.4873L38.4761 27.0716H36.5894L40.2451 15.999H42.5031L46.1768 27.0716ZM42.8572 22.4547L41.8972 19.5634C41.7957 19.268 41.6054 18.5725 41.3246 17.4775H41.2905C41.1787 17.9485 40.9986 18.644 40.7512 19.5634L39.8082 22.4547H42.8572Z" fill="#141729"/>
<path d="M55.5782 22.9814C55.5782 24.3392 55.2019 25.4125 54.4492 26.2005C53.7751 26.9018 52.938 27.2521 51.9387 27.2521C50.86 27.2521 50.0852 26.8744 49.6133 26.1189H49.5791V30.3248H47.7598V21.7159C47.7598 20.8622 47.7368 19.9861 47.6924 19.0875H49.2924L49.394 20.353H49.4281C50.0348 19.3995 50.9556 18.9236 52.1913 18.9236C53.1573 18.9236 53.9637 19.2955 54.6088 20.0402C55.2557 20.7857 55.5782 21.7658 55.5782 22.9814ZM53.7247 23.0463C53.7247 22.2692 53.5455 21.6285 53.1854 21.1243C52.792 20.5985 52.2638 20.3355 51.6016 20.3355C51.1527 20.3355 50.7448 20.482 50.3804 20.7707C50.0152 21.0619 49.7763 21.4421 49.6645 21.9131C49.6082 22.1327 49.58 22.3124 49.58 22.4539V23.7851C49.58 24.3658 49.7626 24.8559 50.1279 25.2561C50.4931 25.6563 50.9676 25.856 51.5513 25.856C52.2365 25.856 52.7698 25.5981 53.1513 25.0839C53.5336 24.5689 53.7247 23.8899 53.7247 23.0463Z" fill="#141729"/>
<path d="M64.9968 22.9814C64.9968 24.3392 64.6205 25.4125 63.867 26.2005C63.1937 26.9018 62.3565 27.2521 61.3573 27.2521C60.2786 27.2521 59.5038 26.8744 59.0327 26.1189H58.9986V30.3248H57.1792V21.7159C57.1792 20.8622 57.1562 19.9861 57.1118 19.0875H58.7119L58.8134 20.353H58.8475C59.4534 19.3995 60.3742 18.9236 61.6107 18.9236C62.5759 18.9236 63.3823 19.2955 64.0291 20.0402C64.6734 20.7857 64.9968 21.7658 64.9968 22.9814ZM63.1433 23.0463C63.1433 22.2692 62.9633 21.6285 62.6032 21.1243C62.2098 20.5985 61.6832 20.3355 61.0202 20.3355C60.5705 20.3355 60.1634 20.482 59.7982 20.7707C59.4329 21.0619 59.1949 21.4421 59.0831 21.9131C59.0276 22.1327 58.9986 22.3124 58.9986 22.4539V23.7851C58.9986 24.3658 59.1812 24.8559 59.5447 25.2561C59.91 25.6555 60.3844 25.856 60.9698 25.856C61.6551 25.856 62.1884 25.5981 62.5699 25.0839C62.9522 24.5689 63.1433 23.8899 63.1433 23.0463Z" fill="#141729"/>
<path d="M75.5272 23.9665C75.5272 24.9083 75.1919 25.6746 74.5186 26.2662C73.7787 26.9127 72.7487 27.2355 71.4252 27.2355C70.2032 27.2355 69.2235 27.0058 68.4819 26.5457L68.9035 25.0672C69.7022 25.5382 70.5786 25.7745 71.5335 25.7745C72.2188 25.7745 72.7521 25.623 73.1353 25.3218C73.5167 25.0206 73.707 24.6163 73.707 24.1121C73.707 23.6628 73.55 23.2842 73.2351 22.9772C72.9219 22.6702 72.3988 22.3848 71.6684 22.1211C69.68 21.398 68.6867 20.3389 68.6867 18.9461C68.6867 18.0358 69.0349 17.2895 69.7321 16.7088C70.4267 16.1272 71.3535 15.8368 72.5123 15.8368C73.5457 15.8368 74.4042 16.0124 75.0895 16.3626L74.6346 17.8087C73.9946 17.4692 73.271 17.2995 72.4611 17.2995C71.8211 17.2995 71.321 17.4534 70.9626 17.7596C70.6597 18.0333 70.5078 18.367 70.5078 18.7622C70.5078 19.1998 70.681 19.5618 71.0292 19.8463C71.3321 20.1092 71.8826 20.3938 72.6813 20.7008C73.6584 21.0844 74.3761 21.5328 74.8377 22.047C75.2977 22.5595 75.5272 23.201 75.5272 23.9665Z" fill="#141729"/>
<path d="M81.5422 20.4187H79.5368V24.2951C79.5368 25.2811 79.8901 25.7736 80.5984 25.7736C80.9235 25.7736 81.1932 25.7462 81.4065 25.6912L81.4568 27.0383C81.0984 27.1689 80.6265 27.2346 80.042 27.2346C79.3235 27.2346 78.762 27.0208 78.3566 26.594C77.953 26.1663 77.7499 25.4491 77.7499 24.4416V20.4171H76.5552V19.0858H77.7499V17.624L79.5368 17.0981V19.0858H81.5422V20.4187Z" fill="#141729"/>
<path d="M90.5905 23.0138C90.5905 24.2411 90.2304 25.2486 89.5119 26.0366C88.7584 26.8478 87.7582 27.2521 86.5115 27.2521C85.3099 27.2521 84.3533 26.8636 83.6399 26.0865C82.9265 25.3094 82.5698 24.3284 82.5698 23.1461C82.5698 21.9089 82.9368 20.8955 83.6732 20.1076C84.4079 19.3188 85.3995 18.9244 86.6463 18.9244C87.8478 18.9244 88.8147 19.313 89.5443 20.0909C90.2423 20.8456 90.5905 21.8199 90.5905 23.0138ZM88.7029 23.0712C88.7029 22.3349 88.5416 21.7034 88.2148 21.1767C87.8333 20.5394 87.288 20.2216 86.5814 20.2216C85.8501 20.2216 85.2946 20.5402 84.9131 21.1767C84.5863 21.7042 84.425 22.3457 84.425 23.1045C84.425 23.8408 84.5863 24.4724 84.9131 24.9982C85.3065 25.6355 85.8561 25.9533 86.5652 25.9533C87.2599 25.9533 87.8052 25.6289 88.1986 24.9815C88.5339 24.4449 88.7029 23.8067 88.7029 23.0712Z" fill="#141729"/>
<path d="M96.5042 20.6475C96.3241 20.6151 96.1321 20.5985 95.9307 20.5985C95.2907 20.5985 94.7958 20.8339 94.4476 21.3057C94.1447 21.7217 93.9928 22.2475 93.9928 22.8824V27.0716H92.1742L92.1913 21.6019C92.1913 20.6817 92.1683 19.8438 92.123 19.0883H93.7077L93.7743 20.6159H93.8246C94.0167 20.0909 94.3196 19.6683 94.7343 19.3513C95.1397 19.0659 95.5774 18.9236 96.0493 18.9236C96.2175 18.9236 96.3694 18.9352 96.5042 18.956V20.6475Z" fill="#141729"/>
<path d="M104.641 22.7018C104.641 23.0196 104.62 23.2875 104.575 23.5064H99.1166C99.1379 24.2951 99.4016 24.8983 99.9085 25.3143C100.368 25.6863 100.963 25.8726 101.694 25.8726C102.502 25.8726 103.239 25.747 103.902 25.4949L104.187 26.7263C103.412 27.0558 102.498 27.2197 101.442 27.2197C100.172 27.2197 99.1754 26.8552 98.4501 26.1272C97.7264 25.3992 97.3638 24.4216 97.3638 23.1952C97.3638 21.9913 97.7008 20.9887 98.3759 20.1891C99.0824 19.3354 100.037 18.9086 101.239 18.9086C102.419 18.9086 103.312 19.3354 103.919 20.1891C104.4 20.8672 104.641 21.7059 104.641 22.7018ZM102.906 22.2417C102.918 21.7159 102.8 21.2616 102.553 20.878C102.238 20.3846 101.754 20.1383 101.103 20.1383C100.508 20.1383 100.025 20.3788 99.655 20.8614C99.3521 21.2449 99.172 21.705 99.1166 22.2409H102.906V22.2417Z" fill="#141729"/>
</svg>
