<svg width="4" height="7" viewBox="0 0 4 7" fill="none" xmlns="http://www.w3.org/2000/svg">
<path d="M4 3.5C4 3.44096 3.98871 3.38614 3.96614 3.33554C3.94356 3.28213 3.90829 3.23293 3.86032 3.18795L0.715344 0.122289C0.636332 0.0407631 0.538977 0 0.42328 0C0.341446 0 0.269489 0.0182731 0.207407 0.0548193C0.145326 0.0913655 0.0945326 0.140562 0.0550265 0.20241C0.0183422 0.264257 0 0.335944 0 0.41747C0 0.52992 0.042328 0.628313 0.126984 0.712651L2.98836 3.5L0.126984 6.28735C0.042328 6.37169 0 6.47008 0 6.58253C0 6.66125 0.0183422 6.73153 0.0550265 6.79337C0.0945326 6.85803 0.145326 6.90863 0.207407 6.94518C0.269489 6.98173 0.341446 7 0.42328 7C0.538977 7 0.636332 6.95924 0.715344 6.87771L3.86032 3.81205C3.90829 3.76707 3.94356 3.71928 3.96614 3.66867C3.98871 3.61526 4 3.55904 4 3.5Z" fill="#8FA1A8"/>
</svg>
