<svg width="14" height="14" viewBox="0 0 14 14" fill="none" xmlns="http://www.w3.org/2000/svg">
<path fill-rule="evenodd" clip-rule="evenodd" d="M3 0C1.34315 0 0 1.34315 0 3V11C0 12.6569 1.34315 14 3 14H11C12.6569 14 14 12.6569 14 11V3C14 1.34315 12.6569 0 11 0H3ZM5.68063 8.3245L6.33226 10.0001H7.22932L4.84281 4H3.88651L1.5 10.0001H2.3886L3.02331 8.3245H5.68063ZM3.3195 7.55438L4.3435 4.86321L5.38443 7.55438H3.3195ZM7.76195 10.0001H11.0286V9.28079H8.7521L10.9863 6.62347V5.92952H7.7958V6.64886H9.99613L7.76195 9.30618V10.0001Z" fill="currentColor"/>
</svg>
