<svg width="30" height="30" viewBox="0 0 30 30" fill="none" xmlns="http://www.w3.org/2000/svg">
<rect width="30" height="30" rx="7" fill="#D93731"/>
<path d="M13.8093 12.2502L17.1399 15.4765C17.6206 15.943 18.4012 15.943 18.8832 15.4765C19.364 15.0101 19.3651 14.2544 18.8832 13.7879L15.5524 10.5603C13.1692 8.25041 9.31736 8.21318 6.88358 10.443C6.86086 10.4613 6.83895 10.4805 6.81792 10.5006C6.80729 10.5109 6.79861 10.5218 6.78808 10.5311C6.77723 10.5412 6.76616 10.5502 6.75585 10.5603C6.7348 10.5806 6.71559 10.602 6.69725 10.6231C4.395 12.9826 4.43461 16.7152 6.81803 19.025L10.1487 22.2519C10.6306 22.7181 11.4101 22.7181 11.8918 22.2519C12.3738 21.7853 12.3738 21.0286 11.893 20.5631L8.56217 17.3356C7.10822 15.9272 7.09845 13.6415 8.532 12.221C9.99767 10.8319 12.3552 10.8418 13.8093 12.2502ZM18.108 7.95207C17.6267 8.41866 17.6267 9.17434 18.1093 9.64082L21.4388 12.8685C22.8919 14.2768 22.9013 16.5622 21.4679 17.983C20.0018 19.3711 17.6451 19.3618 16.1913 17.9533L12.8606 14.7261C12.379 14.2595 11.5982 14.2595 11.1172 14.7261C10.635 15.1923 10.635 15.9504 11.1172 16.4155L14.4468 19.6432C16.8307 21.9531 20.6821 21.9906 23.1163 19.7606C23.1389 19.7413 23.1602 19.7233 23.1825 19.7029C23.1927 19.6929 23.2023 19.6827 23.2121 19.6724C23.223 19.6624 23.2335 19.6531 23.2436 19.642C23.265 19.6227 23.2832 19.6016 23.3022 19.5795C25.6045 17.221 25.5659 13.4896 23.1826 11.1785L19.8519 7.95197C19.3705 7.48474 18.589 7.48474 18.108 7.95207Z" fill="white"/>
</svg>
