<svg width="64" height="64" viewBox="0 0 64 64" fill="none" xmlns="http://www.w3.org/2000/svg">
<path d="M44.5293 61C43.7786 61 43.0205 60.9525 42.2576 60.857C32.5945 59.6427 23.3223 55.0235 16.1494 47.8504C8.97631 40.678 4.35696 31.4062 3.14265 21.7429C2.21131 14.329 5.90495 7.31736 12.3336 4.29499C14.53 3.2634 16.6982 2.84401 18.7806 3.05163C20.8978 3.27052 22.7305 4.61947 23.5702 6.57348C25.5563 11.156 26.671 16.3121 26.881 21.8936C26.9616 24.3667 25.4569 26.6297 23.1372 27.5332L21.2561 28.2676C21.1579 28.3055 21.1152 28.3803 21.0962 28.4366C21.0781 28.4906 21.0675 28.5737 21.1209 28.6603C22.8866 31.526 24.9996 34.1972 27.4015 36.5991C29.8194 39.017 32.4901 41.1312 35.339 42.8829C35.4253 42.9357 35.5078 42.9245 35.5623 42.9073C35.6181 42.8883 35.6928 42.845 35.7314 42.7465L36.4673 40.8619C37.3707 38.5425 39.6451 37.0422 42.0989 37.1194C47.687 37.3288 52.842 38.4428 57.4282 40.4306C59.381 41.27 60.7297 43.1024 60.9483 45.2125C61.1559 47.3011 60.7377 49.4699 59.7058 51.6659C56.9945 57.4337 51.0722 60.9994 44.5293 61ZM17.7182 6.32612C16.4541 6.32612 15.1472 6.64941 13.7493 7.30609C8.62898 9.71332 5.69317 15.3482 6.44447 21.3277C7.56713 30.2613 11.8492 38.845 18.5021 45.4978C25.1553 52.1506 33.7391 56.4329 42.6723 57.5553C48.6516 58.3122 54.2871 55.3711 56.6941 50.2505C57.4777 48.583 57.7865 47.0449 57.6376 45.5488C57.5438 44.643 56.9595 43.8511 56.1136 43.4874C56.1118 43.4868 56.1103 43.4862 56.1086 43.485C51.9021 41.6615 47.1493 40.6388 41.9818 40.4449C40.9508 40.3915 39.9598 41.0636 39.5674 42.0708L38.8309 43.9566C38.4418 44.9538 37.6365 45.7208 36.6212 46.0613C35.6086 46.403 34.5058 46.2767 33.5964 45.7179C30.526 43.8297 27.6501 41.5536 25.0485 38.9518C22.4636 36.3672 20.1889 33.4919 18.2877 30.4055C17.7277 29.4961 17.6013 28.3933 17.9409 27.3795C18.2814 26.3634 19.0488 25.5572 20.0463 25.1675L21.9285 24.4331C22.9364 24.0404 23.5898 23.0669 23.5554 22.0104C23.3611 16.8513 22.3381 12.0986 20.5149 7.89158C20.1492 7.04093 19.3569 6.45662 18.4452 6.3623C18.2043 6.33858 17.962 6.32612 17.7182 6.32612Z" fill="url(#paint0_linear_41_5748)"/>
<defs>
<linearGradient id="paint0_linear_41_5748" x1="3" y1="2.34091" x2="64.0854" y2="5.79632" gradientUnits="userSpaceOnUse">
<stop stop-color="#2091F6"/>
<stop offset="1" stop-color="#21B568"/>
</linearGradient>
</defs>
</svg>
