<svg width="60" height="60" viewBox="0 0 60 60" fill="none" xmlns="http://www.w3.org/2000/svg">
<path fill-rule="evenodd" clip-rule="evenodd" d="M9.5 20C13.6421 20 17 16.6421 17 12.5C17 8.35786 13.6421 5 9.5 5C5.35786 5 2 8.35786 2 12.5C2 16.6421 5.35786 20 9.5 20ZM47.2276 10.7846L44.9654 11.7538C44.1 12.1245 43.1476 12.2434 42.2176 12.0967L40.9472 11.8964C40.0838 11.7603 39.4234 11.6872 38.9642 11.6481C38.476 11.6064 38.0768 11.8885 38.0115 12.3741C37.9642 12.7263 37.8861 13.0143 37.8378 13.0143C37.7895 13.0143 36.7108 12.8254 35.4407 12.5946C34.1706 12.3637 31.7045 11.9209 29.9606 11.6106C28.2167 11.3002 24.9803 10.7208 22.7686 10.323C20.557 9.92519 18.6279 9.5997 18.4818 9.5997C18.2197 9.5997 18.2186 9.60751 18.4047 10.179C18.5334 10.5741 18.5974 11.2817 18.6062 12.4046C18.6173 13.8141 18.578 14.1818 18.3335 14.9603C17.9633 16.1396 17.3669 17.3146 16.7292 18.1212C16.4491 18.4757 16.2384 18.7821 16.2609 18.8024C16.2836 18.8225 20.6648 19.6151 25.9972 20.5635C31.3295 21.5119 35.8496 22.3199 36.0419 22.3591C36.3906 22.4301 36.3913 22.4325 36.3114 23.1393C36.2517 23.6672 36.7215 23.9601 37.2453 24.0486C37.7577 24.1352 38.4586 24.251 39.1679 24.3602L40.9239 24.6304C41.4085 24.705 41.8592 24.9246 42.2167 25.2602C42.5185 25.5436 43.7619 26.7135 44.98 27.8601L45.2732 28.1361C46.4755 29.2678 48.1589 29.733 49.7717 29.3792L51.5 29L52.6898 28.757C53.9296 28.4912 55.0697 28.2375 55.9054 28.0489C56.8153 27.8437 57.2303 27.2428 57.03 26.3318C56.9811 26.1093 56.9296 25.8792 56.8795 25.657C56.6743 24.7486 56.0712 24.3267 55.1574 24.5056C54.4181 24.6503 53.4469 24.8502 52.3931 25.0763L50.5034 25.4817C49.122 25.7781 47.6832 25.3763 46.6552 24.407C45.7523 23.5557 44.6467 22.5184 44.1984 22.1019C43.6887 21.6284 43.447 20.933 43.5533 20.2455L43.7825 18.7624C43.7854 18.7438 43.7882 18.7257 43.7913 18.7071C43.8197 18.5372 43.9748 17.6094 44.1017 16.8975C44.202 16.3341 44.5398 15.9361 45.0666 15.7126L49.6289 13.7772C50.2465 13.5152 50.8647 13.5506 51.4357 13.903C52.0895 14.3064 53.0511 14.9073 54.1103 15.5753C54.6893 15.9405 55.2408 16.2856 55.7302 16.5893C56.9478 17.3451 58.1714 17.0489 58.9579 15.851C59.4131 15.1575 59.2904 14.5407 58.5901 14.0959C57.0594 13.1237 54.2269 11.3485 52.4481 10.2352C51.4217 9.59284 50.2425 9.49701 49.1287 9.97191C48.5738 10.2085 47.9217 10.4872 47.2276 10.7846ZM15.3283 19.5456C14.6034 20.1949 13.2118 20.9379 12.0337 21.3043C11.0315 21.6162 9.14776 21.753 8.22276 21.5812C7.8041 21.5034 7.58252 21.5037 7.58252 21.5821C7.58252 21.7221 14.7736 44.6363 14.8376 44.7003C14.8614 44.7241 15.2215 44.5121 15.6379 44.2293C17.5674 42.9191 19.6606 42.262 21.9854 42.2369L22.8866 42.2272C23.1408 42.2245 23.3188 41.9752 23.2389 41.7339C23.15 41.4656 21.5642 36.4168 19.715 30.5143C17.8657 24.6119 16.2958 19.6042 16.2264 19.3863C16.157 19.1684 16.0633 18.9924 16.0181 18.9954C15.9731 18.9984 15.6626 19.2459 15.3283 19.5456ZM29 51.5C29 55.6421 25.6421 59 21.5 59C17.3579 59 14 55.6421 14 51.5C14 47.3579 17.3579 44 21.5 44C25.6421 44 29 47.3579 29 51.5Z" fill="currentColor"/>
</svg>
