<svg width="41" height="50" viewBox="0 0 41 50" fill="none" xmlns="http://www.w3.org/2000/svg">
<path fill-rule="evenodd" clip-rule="evenodd" d="M20.3092 21.4286C26.2265 21.4286 31.0234 16.6316 31.0234 10.7143C31.0234 4.79695 26.2265 0 20.3092 0C14.3918 0 9.59487 4.79695 9.59487 10.7143C9.59487 16.6316 14.3918 21.4286 20.3092 21.4286ZM20.3094 50.0002C28.6744 50.0002 36.0799 45.8918 40.6181 39.5828C39.5303 37.3674 39.1546 36.4737 38.944 35.9728C38.715 35.4281 38.6811 35.3476 38.1394 34.5371C34.2964 28.7874 27.7459 25.0009 20.3111 25.0009C10.8711 25.0009 2.85681 31.1052 0 39.5818C4.53813 45.8914 11.9439 50.0002 20.3094 50.0002Z" fill="url(#paint0_linear)"/>
<defs>
<linearGradient id="paint0_linear" x1="20.309" y1="0" x2="20.309" y2="50.0002" gradientUnits="userSpaceOnUse">
<stop stop-color="#7B7F98"/>
<stop offset="1" stop-color="#5A5E73"/>
</linearGradient>
</defs>
</svg>
