<svg width="20" height="21" viewBox="0 0 20 21" fill="none" xmlns="http://www.w3.org/2000/svg">
<path d="M5.63635 8.74823C5.63635 8.99435 5.66295 9.19391 5.70952 9.34025C5.76273 9.48659 5.82925 9.64624 5.92238 9.81918C5.95564 9.8724 5.96894 9.92562 5.96894 9.97218C5.96894 10.0387 5.92903 10.1052 5.84256 10.1717L5.42349 10.4511C5.36362 10.491 5.30375 10.511 5.25054 10.511C5.18402 10.511 5.1175 10.4777 5.05098 10.4179C4.95785 10.3181 4.87803 10.2116 4.81151 10.1052C4.74499 9.99213 4.67847 9.86575 4.6053 9.71275C4.08646 10.3247 3.43457 10.6307 2.64965 10.6307C2.09089 10.6307 1.64521 10.4711 1.31927 10.1518C0.993324 9.83249 0.827026 9.40677 0.827026 8.87462C0.827026 8.3092 1.02658 7.85022 1.43235 7.50432C1.83811 7.15843 2.37692 6.98548 3.06206 6.98548C3.28823 6.98548 3.52104 7.00543 3.76716 7.03869C4.01328 7.07195 4.26606 7.12517 4.53213 7.18503V6.69945C4.53213 6.1939 4.4257 5.84135 4.21949 5.63514C4.00663 5.42893 3.64743 5.32915 3.13523 5.32915C2.90242 5.32915 2.66295 5.35576 2.41683 5.41563C2.17071 5.4755 1.93124 5.54867 1.69842 5.64179C1.59199 5.68836 1.51217 5.71496 1.46561 5.72827C1.41905 5.74157 1.38579 5.74822 1.35918 5.74822C1.26605 5.74822 1.21949 5.68171 1.21949 5.54202V5.21607C1.21949 5.10964 1.23279 5.02982 1.26605 4.98326C1.29931 4.93669 1.35918 4.89013 1.4523 4.84357C1.68512 4.72383 1.9645 4.62405 2.29044 4.54423C2.61639 4.45776 2.96229 4.41784 3.32814 4.41784C4.11971 4.41784 4.69843 4.59745 5.07094 4.95665C5.43679 5.31585 5.62304 5.86131 5.62304 6.59301V8.74823H5.63635ZM2.93568 9.75932C3.15519 9.75932 3.38135 9.71941 3.62082 9.63958C3.86029 9.55976 4.07315 9.41342 4.25275 9.21386C4.35918 9.08748 4.43901 8.94779 4.47892 8.78814C4.51883 8.6285 4.54544 8.43559 4.54544 8.20943V7.93005C4.35253 7.88348 4.14632 7.84357 3.93346 7.81696C3.7206 7.79036 3.51439 7.77705 3.30818 7.77705C2.86251 7.77705 2.53656 7.86353 2.31705 8.04313C2.09754 8.22273 1.99111 8.4755 1.99111 8.8081C1.99111 9.12074 2.07093 9.35355 2.23723 9.5132C2.39687 9.67949 2.62969 9.75932 2.93568 9.75932ZM8.27715 10.4777C8.15742 10.4777 8.07759 10.4578 8.02438 10.4112C7.97116 10.3713 7.9246 10.2782 7.88469 10.1518L6.32149 5.00986C6.28158 4.87683 6.26163 4.79035 6.26163 4.74379C6.26163 4.63736 6.31484 4.57749 6.42127 4.57749H7.07316C7.19954 4.57749 7.28602 4.59745 7.33258 4.64401C7.3858 4.68392 7.42571 4.77705 7.46562 4.90343L8.58314 9.30699L9.62083 4.90343C9.65409 4.7704 9.694 4.68392 9.74722 4.64401C9.80043 4.6041 9.89356 4.57749 10.0133 4.57749H10.5454C10.6718 4.57749 10.7583 4.59745 10.8115 4.64401C10.8647 4.68392 10.9113 4.77705 10.9379 4.90343L11.9889 9.3602L13.1397 4.90343C13.1796 4.7704 13.2262 4.68392 13.2727 4.64401C13.3259 4.6041 13.4124 4.57749 13.5321 4.57749H14.1508C14.2572 4.57749 14.3171 4.63071 14.3171 4.74379C14.3171 4.77705 14.3104 4.81031 14.3038 4.85022C14.2971 4.89013 14.2838 4.94334 14.2572 5.01652L12.6541 10.1584C12.6142 10.2915 12.5676 10.3779 12.5144 10.4179C12.4612 10.4578 12.3747 10.4844 12.2616 10.4844H11.6896C11.5632 10.4844 11.4767 10.4644 11.4235 10.4179C11.3703 10.3713 11.3237 10.2848 11.2971 10.1518L10.2661 5.86131L9.24168 10.1451C9.20842 10.2782 9.1685 10.3646 9.11529 10.4112C9.06207 10.4578 8.96895 10.4777 8.84921 10.4777H8.27715ZM16.8248 10.6573C16.4789 10.6573 16.133 10.6174 15.8004 10.5376C15.4678 10.4578 15.2084 10.3713 15.0355 10.2715C14.929 10.2116 14.8559 10.1451 14.8293 10.0853C14.8027 10.0254 14.7894 9.95887 14.7894 9.89901V9.55976C14.7894 9.42007 14.8426 9.35355 14.9424 9.35355C14.9823 9.35355 15.0222 9.3602 15.0621 9.37351C15.102 9.38681 15.1619 9.41342 15.2284 9.44003C15.4545 9.53981 15.7007 9.61963 15.9601 9.67284C16.2262 9.72606 16.4856 9.75267 16.7517 9.75267C17.1707 9.75267 17.4967 9.67949 17.7228 9.53315C17.949 9.38681 18.0687 9.17395 18.0687 8.90122C18.0687 8.71497 18.0089 8.56198 17.8891 8.43559C17.7694 8.3092 17.5432 8.19612 17.2173 8.08969L16.2528 7.79036C15.7672 7.63736 15.408 7.4112 15.1885 7.11186C14.969 6.81918 14.8559 6.49324 14.8559 6.14734C14.8559 5.86796 14.9157 5.62184 15.0355 5.40898C15.1552 5.19612 15.3149 5.00986 15.5144 4.86352C15.714 4.71053 15.9401 4.59745 16.2062 4.51762C16.4723 4.4378 16.7517 4.40454 17.0443 4.40454C17.1907 4.40454 17.3437 4.41119 17.49 4.43115C17.643 4.4511 17.7827 4.47771 17.9224 4.50432C18.0554 4.53758 18.1818 4.57084 18.3016 4.61075C18.4213 4.65066 18.5144 4.69057 18.5809 4.73048C18.6741 4.7837 18.7406 4.83691 18.7805 4.89678C18.8204 4.95 18.8404 5.02317 18.8404 5.11629V5.42893C18.8404 5.56862 18.7871 5.64179 18.6874 5.64179C18.6342 5.64179 18.5477 5.61519 18.4346 5.56197C18.0554 5.38902 17.6297 5.30255 17.1574 5.30255C16.7783 5.30255 16.4789 5.36241 16.2727 5.4888C16.0665 5.61519 15.9601 5.80809 15.9601 6.08082C15.9601 6.26707 16.0266 6.42672 16.1596 6.5531C16.2927 6.67949 16.5388 6.80588 16.8914 6.91896L17.8359 7.21829C18.3149 7.37129 18.6608 7.58415 18.867 7.85688C19.0732 8.1296 19.173 8.44224 19.173 8.78814C19.173 9.07417 19.1131 9.3336 19 9.55976C18.8803 9.78592 18.7206 9.98548 18.5144 10.1451C18.3082 10.3114 18.0621 10.4312 17.7761 10.5176C17.4767 10.6108 17.1641 10.6573 16.8248 10.6573Z" fill="currentColor"/>
<path fill-rule="evenodd" clip-rule="evenodd" d="M18.082 14.6873C15.8935 16.3038 12.7139 17.1618 9.97997 17.1618C6.14848 17.1618 2.69615 15.745 0.0886044 13.3902C-0.117604 13.204 0.0686487 12.9512 0.314769 13.0975C3.13517 14.7339 6.61411 15.725 10.2128 15.725C12.6407 15.725 15.3081 15.2195 17.7627 14.1818C18.1285 14.0155 18.4412 14.4213 18.082 14.6873Z" fill="currentColor"/>
<path fill-rule="evenodd" clip-rule="evenodd" d="M18.9929 13.649C18.7136 13.2898 17.1437 13.476 16.432 13.5625C16.2191 13.5891 16.1858 13.4029 16.3787 13.2632C17.6293 12.3851 19.6847 12.6379 19.9242 12.9306C20.1637 13.2299 19.8577 15.2854 18.6869 16.2698C18.5073 16.4228 18.3344 16.343 18.4142 16.1435C18.6803 15.4849 19.2723 14.0015 18.9929 13.649Z" fill="currentColor"/>
</svg>
