<svg width="20" height="20" viewBox="0 0 20 20" fill="none" xmlns="http://www.w3.org/2000/svg">
    <path fill-rule="evenodd" clip-rule="evenodd" d="M5.636 7.965c0 .246.027.446.073.592.054.146.12.306.213.479a.29.29 0 0 1 .047.153c0 .066-.04.133-.127.2l-.419.279c-.06.04-.12.06-.173.06-.066 0-.133-.033-.2-.093a2.058 2.058 0 0 1-.239-.313 5.149 5.149 0 0 1-.206-.392c-.519.612-1.17.918-1.955.918-.56 0-1.005-.16-1.33-.48C.992 9.05.826 8.625.826 8.092c0-.565.2-1.024.605-1.37.406-.346.945-.519 1.63-.519.226 0 .459.02.705.053.246.034.499.087.765.147v-.486c0-.505-.106-.858-.313-1.064-.212-.206-.572-.306-1.084-.306-.233 0-.472.027-.718.086-.246.06-.486.133-.719.227a1.91 1.91 0 0 1-.233.086.408.408 0 0 1-.106.02c-.093 0-.14-.066-.14-.206v-.326c0-.107.014-.186.047-.233a.498.498 0 0 1 .186-.14c.233-.12.512-.22.838-.299a4.033 4.033 0 0 1 1.038-.126c.792 0 1.37.18 1.743.538.366.36.552.905.552 1.637v2.155h.013Zm-2.7 1.011c.22 0 .445-.04.685-.12.24-.08.452-.226.632-.425.106-.127.186-.266.226-.426.04-.16.066-.353.066-.579v-.28a5.556 5.556 0 0 0-.612-.112 5.012 5.012 0 0 0-.625-.04c-.446 0-.772.086-.991.266-.22.18-.326.432-.326.765 0 .313.08.545.246.705.16.166.393.246.699.246Zm5.341.719c-.12 0-.2-.02-.253-.067-.053-.04-.1-.133-.14-.26L6.322 4.228c-.04-.133-.06-.22-.06-.266 0-.107.054-.167.16-.167h.652c.126 0 .213.02.26.067.053.04.093.133.132.26l1.118 4.403L9.621 4.12c.033-.133.073-.22.126-.26a.458.458 0 0 1 .266-.066h.532c.127 0 .213.02.266.067.054.04.1.133.127.26l1.05 4.456L13.14 4.12c.04-.133.086-.22.133-.26a.434.434 0 0 1 .259-.066h.619c.106 0 .166.054.166.167a.53.53 0 0 1-.01.089l-.003.017a.94.94 0 0 1-.047.166l-1.603 5.142c-.04.133-.086.22-.14.26a.426.426 0 0 1-.252.066h-.572c-.127 0-.213-.02-.267-.066-.053-.047-.1-.133-.126-.266l-1.031-4.29-1.024 4.283c-.034.133-.074.22-.127.266-.053.047-.146.067-.266.067h-.572Zm8.548.18c-.346 0-.692-.04-1.025-.12-.332-.08-.592-.167-.765-.267-.106-.06-.18-.126-.206-.186a.47.47 0 0 1-.04-.186v-.34c0-.14.053-.206.153-.206.04 0 .08.007.12.02.026.009.06.023.099.04l.067.027c.226.1.473.18.732.233.266.053.525.08.791.08.42 0 .746-.074.972-.22a.716.716 0 0 0 .346-.632c0-.186-.06-.34-.18-.466s-.346-.24-.672-.346l-.964-.299c-.486-.153-.845-.379-1.065-.678a1.585 1.585 0 0 1-.332-.965c0-.28.06-.525.18-.738.12-.213.279-.4.478-.546.2-.153.426-.266.692-.346.266-.08.546-.113.838-.113.147 0 .3.007.446.027.153.02.293.047.432.073.133.033.26.067.38.107.12.04.212.08.279.12.093.052.16.106.2.166.04.053.06.126.06.22v.312c0 .14-.054.213-.154.213a.692.692 0 0 1-.253-.08 3.043 3.043 0 0 0-1.277-.26c-.379 0-.678.06-.884.187-.207.126-.313.319-.313.592 0 .186.066.346.2.472.133.126.379.253.731.366l.945.3c.479.152.825.365 1.03.638.207.272.307.585.307.93 0 .287-.06.546-.173.773a1.79 1.79 0 0 1-.486.585 2.144 2.144 0 0 1-.738.372c-.3.094-.612.14-.951.14Zm1.257 4.03c-2.189 1.616-5.368 2.474-8.102 2.474-3.832 0-7.284-1.417-9.891-3.772-.207-.186-.02-.44.226-.293 2.82 1.637 6.3 2.628 9.898 2.628 2.428 0 5.095-.506 7.55-1.543.365-.167.678.239.319.505Zm-1.65-1.126c.712-.086 2.282-.272 2.56.087.28.352-.312 1.836-.578 2.494-.08.2.093.28.273.127 1.17-.985 1.477-3.04 1.237-3.34-.24-.292-2.295-.545-3.545.333-.193.14-.16.326.053.3Z" fill="currentColor"/>
</svg>
