<svg width="15" height="14" viewBox="0 0 15 14" fill="none" xmlns="http://www.w3.org/2000/svg">
<path d="M12.7852 13.333H7.18652C6.91309 13.333 6.65788 13.3034 6.4209 13.2441C6.18848 13.1895 5.96745 13.1006 5.75781 12.9775C5.55273 12.8545 5.35677 12.695 5.16992 12.499L1.4375 8.5957C1.20964 8.35872 1.04557 8.13997 0.945312 7.93945C0.849609 7.73438 0.801758 7.53158 0.801758 7.33105C0.801758 7.19434 0.822266 7.0599 0.863281 6.92773C0.908854 6.79557 0.977214 6.65885 1.06836 6.51758C1.16406 6.3763 1.28711 6.22591 1.4375 6.06641L5.16309 2.14941C5.34993 1.94889 5.5459 1.79167 5.75098 1.67773C5.96061 1.55924 6.18164 1.47493 6.41406 1.4248C6.65104 1.37012 6.90625 1.34277 7.17969 1.34277H12.7852C13.4733 1.34277 13.9928 1.51595 14.3438 1.8623C14.6947 2.2041 14.8701 2.7168 14.8701 3.40039V11.3096C14.8701 11.9932 14.6947 12.5013 14.3438 12.834C13.9928 13.1667 13.4733 13.333 12.7852 13.333ZM6.87891 10.0723C7.04753 10.0723 7.18652 10.0153 7.2959 9.90137L9.02539 8.16504L10.7617 9.90137C10.8665 10.0153 11.0033 10.0723 11.1719 10.0723C11.3359 10.0723 11.4727 10.0153 11.582 9.90137C11.696 9.78288 11.7529 9.64388 11.7529 9.48438C11.7529 9.32031 11.696 9.18587 11.582 9.08105L9.83887 7.34473L11.5889 5.60156C11.7028 5.49219 11.7598 5.35775 11.7598 5.19824C11.7598 5.03874 11.7028 4.9043 11.5889 4.79492C11.4795 4.68099 11.3451 4.62402 11.1855 4.62402C11.0306 4.62402 10.8962 4.68099 10.7822 4.79492L9.02539 6.54492L7.28223 4.80176C7.16374 4.68783 7.0293 4.63086 6.87891 4.63086C6.7194 4.63086 6.58268 4.68783 6.46875 4.80176C6.35938 4.91113 6.30469 5.04557 6.30469 5.20508C6.30469 5.36458 6.36165 5.49902 6.47559 5.6084L8.21875 7.34473L6.47559 9.08789C6.36165 9.20182 6.30469 9.33398 6.30469 9.48438C6.30469 9.64388 6.35938 9.78288 6.46875 9.90137C6.58268 10.0153 6.7194 10.0723 6.87891 10.0723Z" fill="currentColor"/>
</svg>
