<svg width="348" height="255" viewBox="0 0 348 255" fill="none" xmlns="http://www.w3.org/2000/svg">
    <path d="M347.807 114.526C347.807 148.446 320.453 176.029 286.815 176.029C285.995 176.029 285.172 176.013 284.349 175.979C272.724 193.775 253.019 204.603 231.647 204.603C209.303 204.603 188.655 192.567 177.363 173.41C175.767 173.535 174.164 173.598 172.564 173.598C138.76 173.598 111.271 145.878 111.271 111.79C111.271 89.2668 123.416 68.6735 142.679 57.8191C144.031 26.1061 170.027 0.738037 201.804 0.738037C217.037 0.738037 231.478 6.58494 242.407 16.9941C250.714 12.7057 259.897 10.4649 269.329 10.4649C301.807 10.4649 328.247 36.9639 328.509 69.6521C340.68 81.2093 347.807 97.6378 347.807 114.526Z" fill="url(#paint0_linear_2757_51862)"/>
    <path d="M193.602 180.93C193.602 208.544 171.235 231 143.73 231C143.059 231 142.386 230.986 141.713 230.959C132.208 245.446 116.095 254.262 98.6204 254.262C80.3501 254.262 63.4667 244.463 54.2327 228.867C52.9277 228.969 51.6177 229.021 50.3087 229.021C22.668 229.021 0.191406 206.454 0.191406 178.703C0.191406 160.366 10.1214 143.601 25.8726 134.765C26.9782 108.947 48.2347 88.2949 74.218 88.2949C86.6736 88.2949 98.4821 93.0549 107.419 101.529C114.21 98.0378 121.719 96.2136 129.432 96.2136C155.988 96.2136 177.608 117.786 177.822 144.398C187.774 153.807 193.602 167.181 193.602 180.93Z" fill="url(#paint1_linear_2757_51862)"/>
    <defs>
        <linearGradient id="paint0_linear_2757_51862" x1="229.539" y1="0.738037" x2="229.539" y2="204.603" gradientUnits="userSpaceOnUse">
            <stop stop-color="var(--stop-color, white)"/>
            <stop offset="0.677083" stop-color="var(--stop-color, white)" stop-opacity="0"/>
        </linearGradient>
        <linearGradient id="paint1_linear_2757_51862" x1="96.8965" y1="88.2949" x2="96.8965" y2="254.262" gradientUnits="userSpaceOnUse">
            <stop stop-color="var(--stop-color, white)"/>
            <stop offset="0.677083" stop-color="var(--stop-color, white)" stop-opacity="0"/>
        </linearGradient>
    </defs>
</svg>
