<svg width="30" height="26" viewBox="0 0 30 26" fill="none" xmlns="http://www.w3.org/2000/svg">
<mask id="path-1-inside-1_53_2065" fill="white">
<path d="M30 14.554C30 18.8441 26.5307 22.3327 22.2644 22.3327C22.1603 22.3327 22.056 22.3305 21.9516 22.3263C20.4772 24.577 17.9779 25.9465 15.2674 25.9465C12.4335 25.9465 9.81468 24.4242 8.38239 22.0014C8.17996 22.0172 7.97677 22.0252 7.77373 22.0252C3.48637 22.0252 0 18.5193 0 14.208C0 11.3594 1.54025 8.75485 3.98343 7.38204C4.15492 3.37115 7.45204 0.16272 11.4823 0.16272C13.4143 0.16272 15.2459 0.902206 16.6321 2.2187C17.6856 1.67633 18.8503 1.39293 20.0466 1.39293C24.1658 1.39293 27.5192 4.74438 27.5525 8.87862C29.0961 10.3403 30 12.4181 30 14.554Z"/>
</mask>
<path d="M27.5525 8.87862L25.7525 8.89309L25.7587 9.65901L26.3149 10.1856L27.5525 8.87862ZM16.6321 2.2187L15.3925 3.52386L16.3195 4.40421L17.456 3.81905L16.6321 2.2187ZM3.98343 7.38204L4.86517 8.95128L5.73897 8.4603L5.78178 7.45893L3.98343 7.38204ZM8.38239 22.0014L9.9319 21.0854L9.3608 20.1193L8.24197 20.2068L8.38239 22.0014ZM21.9516 22.3263L22.0249 20.5278L21.0051 20.4862L20.4459 21.34L21.9516 22.3263ZM22.2644 24.1327C27.5342 24.1327 31.8 19.8288 31.8 14.554H28.2C28.2 17.8594 25.5272 20.5327 22.2644 20.5327V24.1327ZM31.8 14.554C31.8 11.9193 30.6896 9.37024 28.7901 7.57159L26.3149 10.1856C27.5027 11.3104 28.2 12.9169 28.2 14.554H31.8ZM29.3524 8.86414C29.3113 3.75163 25.1644 -0.407072 20.0466 -0.407072V3.19293C23.1672 3.19293 25.7271 5.73713 25.7525 8.89309L29.3524 8.86414ZM20.0466 -0.407072C18.5639 -0.407072 17.1167 -0.0553267 15.8082 0.618344L17.456 3.81905C18.2545 3.40798 19.1367 3.19293 20.0466 3.19293V-0.407072ZM17.8717 0.913532C16.153 -0.718788 13.8784 -1.63728 11.4823 -1.63728V1.96272C12.9503 1.96272 14.3389 2.5232 15.3925 3.52386L17.8717 0.913532ZM11.4823 -1.63728C6.47451 -1.63728 2.39718 2.34429 2.18507 7.30515L5.78178 7.45893C5.91266 4.398 8.42956 1.96272 11.4823 1.96272V-1.63728ZM3.10168 5.8128C0.0923377 7.50373 -1.8 10.7076 -1.8 14.208H1.8C1.8 12.0111 2.98815 10.006 4.86517 8.95128L3.10168 5.8128ZM-1.8 14.208C-1.8 19.5039 2.48281 23.8252 7.77373 23.8252V20.2252C4.48992 20.2252 1.8 17.5347 1.8 14.208H-1.8ZM7.77373 23.8252C8.02375 23.8252 8.27378 23.8154 8.52282 23.7959L8.24197 20.2068C8.08614 20.219 7.92979 20.2252 7.77373 20.2252V23.8252ZM6.83289 22.9174C8.58399 25.8795 11.7871 27.7465 15.2674 27.7465V24.1465C13.0798 24.1465 11.0454 22.9689 9.9319 21.0854L6.83289 22.9174ZM15.2674 27.7465C18.5911 27.7465 21.6537 26.0659 23.4573 23.3126L20.4459 21.34C19.3007 23.0881 17.3648 24.1465 15.2674 24.1465V27.7465ZM21.8782 24.1248C22.0069 24.13 22.1357 24.1327 22.2644 24.1327V20.5327C22.185 20.5327 22.1051 20.5311 22.0249 20.5278L21.8782 24.1248Z" fill="currentColor" mask="url(#path-1-inside-1_53_2065)"/>
<path fill-rule="evenodd" clip-rule="evenodd" d="M15.1183 6.97237C13.6672 6.97237 12.4908 8.14872 12.4908 9.59982V10.6508H13.5418V9.59982C13.5418 8.72916 14.2476 8.02335 15.1183 8.02335C15.9889 8.02335 16.6948 8.72916 16.6948 9.59982V10.6508H17.7457V9.59982C17.7457 8.14872 16.5694 6.97237 15.1183 6.97237ZM11.4399 11.702H18.7968V16.4314C18.7968 17.0118 18.3262 17.4824 17.7458 17.4824H12.4909C11.9104 17.4824 11.4399 17.0118 11.4399 16.4314V11.702ZM15.4937 14.6794C15.7181 14.5496 15.869 14.307 15.869 14.0291C15.869 13.6145 15.5329 13.2784 15.1183 13.2784C14.7037 13.2784 14.3676 13.6145 14.3676 14.0291C14.3676 14.307 14.5186 14.5496 14.743 14.6794V15.5305C14.743 15.7378 14.911 15.9059 15.1183 15.9059C15.3256 15.9059 15.4937 15.7378 15.4937 15.5305V14.6794Z" fill="currentColor"/>
</svg>
