<svg width="14" height="14" viewBox="0 0 14 14" fill="none" xmlns="http://www.w3.org/2000/svg">
<path d="M1.99058 10.7634C1.68476 10.7634 1.44321 10.6881 1.26593 10.5374C1.08864 10.3867 1 10.1895 1 9.94571C1 9.62216 1.12632 9.31634 1.37895 9.02825C1.63158 8.73573 1.89751 8.45208 2.17673 8.17729C2.31856 8.03102 2.42936 7.84266 2.50914 7.61219C2.58892 7.38172 2.64654 7.13352 2.68199 6.86759C2.72188 6.59723 2.75291 6.3313 2.77507 6.06981C2.79723 5.28532 2.8903 4.58283 3.05429 3.96233C3.22271 3.34183 3.47756 2.82105 3.81884 2.4C4.16011 1.97895 4.60554 1.66648 5.15512 1.4626C5.27922 1.05485 5.50083 0.709141 5.81994 0.425485C6.13906 0.141828 6.5313 0 6.99668 0C7.46205 0 7.85429 0.141828 8.17341 0.425485C8.49695 0.709141 8.72078 1.05485 8.84488 1.4626C9.39446 1.66648 9.83767 1.97895 10.1745 2.4C10.5158 2.82105 10.7684 3.34183 10.9324 3.96233C11.1008 4.58283 11.1983 5.28532 11.2249 6.06981C11.2427 6.3313 11.2715 6.59723 11.3114 6.86759C11.3512 7.13352 11.4111 7.38172 11.4909 7.61219C11.5706 7.84266 11.6814 8.03102 11.8233 8.17729C12.1025 8.45208 12.3684 8.73573 12.6211 9.02825C12.8737 9.31634 13 9.62216 13 9.94571C13 10.1895 12.9114 10.3867 12.7341 10.5374C12.5568 10.6881 12.313 10.7634 12.0028 10.7634H1.99058ZM6.99668 13.3163C6.63767 13.3163 6.31413 13.2366 6.02604 13.077C5.73795 12.9219 5.50748 12.7158 5.33463 12.4587C5.16177 12.2061 5.06205 11.9291 5.03546 11.6277H8.96454C8.93795 11.9291 8.83823 12.2061 8.66537 12.4587C8.49252 12.7158 8.26205 12.9219 7.97396 13.077C7.68587 13.2366 7.36011 13.3163 6.99668 13.3163Z" fill="currentColor"/>
</svg>
