<svg width="14" height="14" viewBox="0 0 14 14" fill="none" xmlns="http://www.w3.org/2000/svg">
<path fill-rule="evenodd" clip-rule="evenodd" d="M0.970351 9.55312C0.712348 9.86641 0.583347 10.2031 0.583347 10.5631C0.583347 10.8577 0.684705 11.0962 0.887421 11.2786C1.09014 11.4609 1.36887 11.5521 1.72362 11.5521H4.37736C4.39579 11.9776 4.51558 12.3751 4.73672 12.7445C4.96247 13.1186 5.26885 13.4202 5.65586 13.6493C6.04286 13.8831 6.49206 14 7.00346 14C7.51485 14 7.96175 13.8831 8.34415 13.6493C8.73115 13.4202 9.03522 13.1186 9.25637 12.7445C9.48212 12.3751 9.60421 11.9776 9.62264 11.5521H12.2833C12.638 11.5521 12.9145 11.4609 13.1126 11.2786C13.3153 11.0962 13.4167 10.8577 13.4167 10.5631C13.4167 10.2031 13.2877 9.86641 13.0296 9.55312C12.7716 9.23982 12.4929 8.94056 12.1934 8.65532C12.0368 8.50101 11.9147 8.30462 11.8272 8.06615C11.7396 7.82767 11.6728 7.5588 11.6268 7.25953C11.5807 6.96027 11.5438 6.64464 11.5162 6.31264C11.502 5.99654 11.4767 5.6937 11.4405 5.40412C11.0443 5.64735 10.5855 5.79858 10.0939 5.82805C10.113 6.04169 10.1264 6.26868 10.134 6.50904C10.1479 6.81765 10.1732 7.11224 10.2101 7.3928C10.2515 7.66868 10.2999 7.92587 10.3552 8.16434C10.4151 8.39814 10.4842 8.60856 10.5625 8.7956C10.6454 8.98264 10.7422 9.14163 10.8528 9.27256C10.9541 9.39413 11.0601 9.51337 11.1707 9.63027L11.4747 9.93889C11.5669 10.0277 11.6452 10.1049 11.7097 10.1704V10.2405H2.26958V10.1704C2.33868 10.1049 2.41931 10.0277 2.51145 9.93889C2.6082 9.84537 2.71187 9.7425 2.82244 9.63027C2.93762 9.51337 3.04589 9.39413 3.14724 9.27256C3.26242 9.14163 3.35917 8.98264 3.4375 8.7956C3.52043 8.60856 3.58953 8.39814 3.64482 8.16434C3.70471 7.92587 3.75309 7.66868 3.78995 7.3928C3.8268 7.11224 3.85214 6.81765 3.86596 6.50904C3.89361 5.64397 3.99497 4.95192 4.17004 4.43289C4.34511 3.91385 4.57086 3.52574 4.84729 3.26856C5.12373 3.0067 5.43471 2.82902 5.78025 2.7355C5.85857 2.71679 5.91846 2.6864 5.95993 2.64431C6.006 2.59755 6.03364 2.52741 6.04286 2.43389C6.06129 2.09722 6.15573 1.82835 6.3262 1.62728C6.49667 1.42621 6.72242 1.32568 7.00346 1.32568C7.15794 1.32568 7.29502 1.35606 7.4147 1.41681C7.63858 1.04415 7.94336 0.725636 8.30474 0.485545C8.28819 0.470824 8.27138 0.456279 8.25431 0.441913C7.90877 0.147325 7.49182 3.05176e-05 7.00346 3.05176e-05C6.51509 3.05176e-05 6.09584 0.147325 5.7457 0.441913C5.40016 0.736502 5.16058 1.10591 5.02697 1.55013C4.4649 1.76055 4.00188 2.08319 3.63791 2.51806C3.27394 2.94825 2.99981 3.48366 2.81553 4.12427C2.63124 4.76488 2.52297 5.49434 2.49072 6.31264C2.45847 6.64464 2.41931 6.96027 2.37324 7.25953C2.33177 7.5588 2.26727 7.82767 2.17974 8.06615C2.0922 8.30462 1.97011 8.50101 1.81346 8.65532C1.514 8.94056 1.23296 9.23982 0.970351 9.55312ZM6.09814 12.513C5.86318 12.2746 5.73418 11.9542 5.71114 11.5521H8.29577C8.27273 11.9542 8.14143 12.2746 7.90186 12.513C7.66689 12.7562 7.36742 12.8778 7.00346 12.8778C6.63949 12.8778 6.33772 12.7562 6.09814 12.513Z" fill="currentColor"/>
</svg>
