<svg width="14" height="14" viewBox="0 0 14 14" fill="none" xmlns="http://www.w3.org/2000/svg">
<path d="M1 10.5631C1 10.2031 1.12062 9.8664 1.36187 9.55311C1.60743 9.23981 1.87022 8.94055 2.15024 8.65531C2.29672 8.501 2.41088 8.30461 2.49273 8.06613C2.57458 7.82766 2.63489 7.55878 2.67367 7.25952C2.71675 6.96025 2.75337 6.64462 2.78352 6.31263C2.81368 5.49432 2.91492 4.76486 3.08724 4.12425C3.25956 3.48363 3.51589 2.94823 3.85622 2.51804C4.19655 2.08317 4.62951 1.76052 5.15509 1.5501C5.28002 1.10588 5.50404 0.736473 5.82714 0.441884C6.15455 0.147295 6.54658 0 7.00323 0C7.45988 0 7.84976 0.147295 8.17286 0.441884C8.50027 0.736473 8.72429 1.10588 8.84491 1.5501C9.3748 1.76052 9.80775 2.08317 10.1438 2.51804C10.4841 2.94823 10.7404 3.48363 10.9128 4.12425C11.0851 4.76486 11.1885 5.49432 11.2229 6.31263C11.2488 6.64462 11.2833 6.96025 11.3263 7.25952C11.3694 7.55878 11.4319 7.82766 11.5137 8.06613C11.5956 8.30461 11.7097 8.501 11.8562 8.65531C12.1362 8.94055 12.3969 9.23981 12.6381 9.55311C12.8794 9.8664 13 10.2031 13 10.5631C13 10.8577 12.9052 11.0962 12.7157 11.2786C12.5304 11.4609 12.2719 11.5521 11.9402 11.5521H9.45234C9.43511 11.9776 9.32095 12.3751 9.10985 12.7445C8.90307 13.1186 8.61874 13.4202 8.25687 13.6493C7.8993 13.8831 7.48142 14 7.00323 14C6.52504 14 6.10501 13.8831 5.74313 13.6493C5.38126 13.4202 5.09478 13.1186 4.88368 12.7445C4.6769 12.3751 4.56489 11.9776 4.54766 11.5521H2.06624C1.73452 11.5521 1.47388 11.4609 1.28433 11.2786C1.09478 11.0962 1 10.8577 1 10.5631ZM2.57674 10.2405H11.4039V10.1703C11.3436 10.1049 11.2703 10.0277 11.1842 9.93888C11.098 9.84536 11.0032 9.74249 10.8998 9.63026C10.7964 9.51336 10.6974 9.39412 10.6026 9.27254C10.4992 9.14162 10.4087 8.98263 10.3312 8.79559C10.2579 8.60855 10.1933 8.39813 10.1373 8.16433C10.0856 7.92585 10.0404 7.66867 10.0016 7.39279C9.96715 7.11222 9.94346 6.81764 9.93053 6.50902C9.90468 5.64395 9.80991 4.9519 9.6462 4.43287C9.4825 3.91383 9.27141 3.52572 9.01292 3.26854C8.75444 3.00668 8.46365 2.82899 8.14055 2.73547C8.07162 2.71677 8.01562 2.68637 7.97254 2.64429C7.93376 2.59753 7.91007 2.52739 7.90145 2.43387C7.87991 2.09719 7.78944 1.82832 7.63005 1.62725C7.47496 1.42619 7.26602 1.32565 7.00323 1.32565C6.74044 1.32565 6.52935 1.42619 6.36995 1.62725C6.21055 1.82832 6.12224 2.09719 6.10501 2.43387C6.09639 2.52739 6.07054 2.59753 6.02746 2.64429C5.98869 2.68637 5.93269 2.71677 5.85945 2.73547C5.53635 2.82899 5.24556 3.00668 4.98708 3.26854C4.72859 3.52572 4.5175 3.91383 4.3538 4.43287C4.19009 4.9519 4.09531 5.64395 4.06947 6.50902C4.05654 6.81764 4.03285 7.11222 3.99838 7.39279C3.96392 7.66867 3.91869 7.92585 3.86268 8.16433C3.81099 8.39813 3.74636 8.60855 3.66882 8.79559C3.59558 8.98263 3.50512 9.14162 3.39742 9.27254C3.30264 9.39412 3.2014 9.51336 3.0937 9.63026C2.99031 9.74249 2.89338 9.84536 2.80291 9.93888C2.71675 10.0277 2.64136 10.1049 2.57674 10.1703V10.2405ZM5.79483 11.5521C5.81637 11.9542 5.937 12.2745 6.1567 12.513C6.38072 12.7562 6.6629 12.8778 7.00323 12.8778C7.34356 12.8778 7.62359 12.7562 7.8433 12.513C8.06731 12.2745 8.19009 11.9542 8.21163 11.5521H5.79483Z" fill="currentColor"/>
</svg>
