<svg width="20" height="16" viewBox="0 0 20 16" fill="none" xmlns="http://www.w3.org/2000/svg">
<path d="M17.147 0.92627L2.85303 0.92627C1.11816 0.92627 0.246582 1.78955 0.246582 3.49951L0.246582 4.27148L19.7534 4.27148L19.7534 3.49951C19.7534 1.78955 18.8901 0.92627 17.147 0.92627ZM3.6416 12.5308C3.15186 12.5308 2.82813 12.1987 2.82813 11.7339L2.82813 10.1982C2.82813 9.7251 3.15186 9.40137 3.6416 9.40137L5.67529 9.40137C6.16504 9.40137 6.48877 9.7251 6.48877 10.1982L6.48877 11.7339C6.48877 12.1987 6.16504 12.5308 5.67529 12.5308L3.6416 12.5308ZM2.85303 15.104L17.147 15.104C18.8901 15.104 19.7534 14.249 19.7534 12.5391L19.7534 6.15576L0.246582 6.15576L0.246582 12.5391C0.246582 14.249 1.11816 15.104 2.85303 15.104Z" fill="currentColor"/>
</svg>
