<svg width="60" height="60" viewBox="0 0 60 60" fill="none" xmlns="http://www.w3.org/2000/svg">
<path fill-rule="evenodd" clip-rule="evenodd" d="M11.8797 0H17.1424V5.93987H11.8797C8.59925 5.93987 5.93987 8.59925 5.93987 11.8797V17.1428H0V11.8797C0 5.31875 5.31874 0 11.8797 0ZM0 42.8571V48.1203C0 54.6813 5.31875 60 11.8797 60H17.1424V54.0601H11.8797C8.59925 54.0601 5.93987 51.4008 5.93987 48.1203V42.8571H0ZM54.0601 42.8571V48.1203C54.0601 51.4008 51.4008 54.0601 48.1203 54.0601H42.8567V60H48.1203C54.6813 60 60 54.6813 60 48.1203V42.8571H54.0601ZM60 17.1428V11.8797C60 5.31874 54.6813 0 48.1203 0H42.8567V5.93987H48.1203C51.4008 5.93987 54.0601 8.59925 54.0601 11.8797V17.1428H60Z" fill="currentColor"/>
<path fill-rule="evenodd" clip-rule="evenodd" d="M23.9038 12.8279C25.8299 12.0294 27.8812 11.625 30.0007 11.625C38.399 11.625 45.2314 18.1016 45.2314 26.0625C45.2314 26.7873 45.8514 27.375 46.616 27.375C47.3807 27.375 48.0007 26.7873 48.0007 26.0625C48.0007 16.6539 39.9262 9 30.0007 9C27.4971 9 25.0727 9.47873 22.7949 10.4221C22.0938 10.7124 21.7741 11.4866 22.0803 12.1505C22.388 12.8151 23.2047 13.115 23.9038 12.8279ZM17.5382 26.0625C17.5382 19.5493 23.1287 14.25 29.9997 14.25C32.8278 14.25 35.597 15.1722 37.797 16.8474C38.3926 17.3018 38.4879 18.1278 38.0093 18.6931C37.5299 19.2584 36.6605 19.3474 36.0622 18.8943C34.3273 17.5729 32.2315 16.875 29.9997 16.875C24.6553 16.875 20.3074 20.9964 20.3074 26.0625V28.6875C20.3074 29.4123 19.6874 30 18.9228 30C18.1581 30 17.5382 29.4123 17.5382 28.6875V26.0625ZM23.0764 26.0625C23.0764 22.4442 26.1823 19.5 29.9994 19.5C33.8166 19.5 36.9225 22.4442 36.9225 26.0625C36.9225 26.7873 36.3025 27.375 35.5379 27.375C34.7732 27.375 34.1533 26.7873 34.1533 26.0625C34.1533 23.8912 32.29 22.125 29.9994 22.125C27.7088 22.125 25.8456 23.8912 25.8456 26.0625V47.0625C25.8456 47.788 25.2256 48.375 24.461 48.375C23.6963 48.375 23.0764 47.788 23.0764 47.0625V26.0625ZM28.6145 26.0625C28.6145 25.3376 29.2345 24.75 29.9991 24.75C30.7638 24.75 31.3838 25.3376 31.3838 26.0625V37.875C31.3838 38.5998 30.7638 39.1875 29.9991 39.1875C29.2345 39.1875 28.6145 38.5998 28.6145 37.875V26.0625ZM29.9991 41.8125C29.2345 41.8125 28.6145 42.4002 28.6145 43.125V49.6875C28.6145 50.413 29.2345 51 29.9991 51C30.7638 51 31.3838 50.413 31.3838 49.6875V43.125C31.3838 42.4002 30.7638 41.8125 29.9991 41.8125ZM34.1542 31.3125C34.1542 30.5877 34.7741 30 35.5388 30C36.3034 30 36.9234 30.5877 36.9234 31.3125V47.0625C36.9234 47.788 36.3034 48.375 35.5388 48.375C34.7741 48.375 34.1542 47.788 34.1542 47.0625V31.3125ZM18.9228 32.625C18.1581 32.625 17.5382 33.2127 17.5382 33.9375V43.125C17.5382 43.8505 18.1581 44.4375 18.9228 44.4375C19.6874 44.4375 20.3074 43.8505 20.3074 43.125V33.9375C20.3074 33.2127 19.6874 32.625 18.9228 32.625ZM45.2305 31.3125C45.2305 30.5877 45.8505 30 46.6151 30C47.3798 30 47.9997 30.5877 47.9997 31.3125V37.875C47.9997 38.5998 47.3798 39.1875 46.6151 39.1875C45.8505 39.1875 45.2305 38.5998 45.2305 37.875V31.3125ZM39.7535 20.9111C39.0443 21.1835 38.7022 21.9481 38.9888 22.6203C39.4554 23.713 39.692 24.8711 39.692 26.0624V43.1249C39.692 43.8504 40.3119 44.4374 41.0766 44.4374C41.8412 44.4374 42.4612 43.8504 42.4612 43.1249V26.0624C42.4612 24.5321 42.1569 23.0426 41.5566 21.636C41.2699 20.9644 40.4667 20.64 39.7535 20.9111ZM16.5839 14.6871C17.0943 14.1475 17.9685 14.1001 18.5391 14.5846C19.109 15.0678 19.157 15.8977 18.6473 16.438C16.1464 19.0861 14.7692 22.5045 14.7692 26.0626V37.8751C14.7692 38.5999 14.1493 39.1876 13.3846 39.1876C12.62 39.1876 12 38.5999 12 37.8751V26.0626C12 21.8572 13.628 17.8178 16.5839 14.6871Z" fill="currentColor"/>
</svg>
