<svg width="372" height="294" viewBox="0 0 372 294" fill="none" xmlns="http://www.w3.org/2000/svg">
<path fill-rule="evenodd" clip-rule="evenodd" d="M276.987 0C284.824 0 291.869 3.29033 296.733 8.52417C302.674 3.22942 310.58 0 319.26 0C337.715 0 352.675 14.6002 352.675 32.6104C352.675 33.4798 352.64 34.3413 352.572 35.1936C364.041 40.3596 372 51.6818 372 64.8182C372 82.8284 357.039 97.4286 338.584 97.4286C328.471 97.4286 319.407 93.0439 313.279 86.1161C307.432 93.7441 296.792 97.4286 284.636 97.4286C269.108 97.4286 256.054 91.4161 252.304 78.8511C251.68 78.8896 251.05 78.9091 250.416 78.9091C234.407 78.9091 221.429 66.4719 221.429 51.1299C221.429 35.7878 234.407 23.3506 250.416 23.3506L250.531 23.3509C251.787 10.2532 263.152 0 276.987 0Z" fill="url(#paint0_linear)"/>
<path fill-rule="evenodd" clip-rule="evenodd" d="M47.8337 83.7403C54.5814 83.7403 60.6468 86.5731 64.8341 91.0793C69.9489 86.5207 76.7562 83.7403 84.229 83.7403C100.118 83.7403 112.999 96.3105 112.999 111.817C112.999 112.565 112.969 113.307 112.91 114.041C122.784 118.488 129.636 128.236 129.636 139.546C129.636 155.052 116.756 167.623 100.867 167.623C92.1594 167.623 84.3555 163.848 79.0798 157.883C74.0457 164.45 64.8852 167.623 54.4195 167.623C41.0503 167.623 29.8109 162.446 26.5824 151.628C26.045 151.661 25.5029 151.678 24.9567 151.678C11.1735 151.678 0 140.97 0 127.761C0 114.552 11.1735 103.844 24.9567 103.844L25.0559 103.844C26.1371 92.5679 35.9223 83.7403 47.8337 83.7403Z" fill="url(#paint1_linear)"/>
<path d="M94 205C94 207.761 96.2386 210 99 210H273C275.761 210 278 207.761 278 205V196H94V205Z" fill="#5A5E73"/>
<path fill-rule="evenodd" clip-rule="evenodd" d="M159.464 145.504C157.512 147.457 157.512 150.623 159.464 152.575L185.627 178.738L185.667 178.698L185.707 178.738L211.87 152.575C213.823 150.623 213.823 147.457 211.87 145.504L211.163 144.797C209.21 142.845 206.045 142.845 204.092 144.797L185.667 163.222L167.243 144.797C165.29 142.845 162.124 142.845 160.172 144.797L159.464 145.504Z" fill="#5A5E73"/>
<g filter="url(#filter0_d)">
<path fill-rule="evenodd" clip-rule="evenodd" d="M267 144C267 141.239 269.239 139 272 139H273C275.761 139 278 141.239 278 144V196H267V144ZM274.59 169.674C274.59 170.969 273.562 172.018 272.295 172.018C271.027 172.018 270 170.969 270 169.674C270 168.38 271.027 167.33 272.295 167.33C273.562 167.33 274.59 168.38 274.59 169.674ZM272.476 147.818C273.743 147.818 274.771 146.768 274.771 145.474C274.771 144.179 273.743 143.13 272.476 143.13C271.209 143.13 270.181 144.179 270.181 145.474C270.181 146.768 271.209 147.818 272.476 147.818ZM274.59 181.395C274.59 182.689 273.562 183.739 272.295 183.739C271.027 183.739 270 182.689 270 181.395C270 180.1 271.027 179.051 272.295 179.051C273.562 179.051 274.59 180.1 274.59 181.395ZM272.295 160.298C273.562 160.298 274.59 159.249 274.59 157.954C274.59 156.66 273.562 155.61 272.295 155.61C271.027 155.61 270 156.66 270 157.954C270 159.249 271.027 160.298 272.295 160.298ZM274.59 193.115C274.59 194.409 273.562 195.459 272.295 195.459C271.027 195.459 270 194.409 270 193.115C270 191.82 271.027 190.771 272.295 190.771C273.562 190.771 274.59 191.82 274.59 193.115Z" fill="#5A5E73"/>
</g>
<path fill-rule="evenodd" clip-rule="evenodd" d="M181 84H192V164H181V84Z" fill="#5A5E73"/>
<g filter="url(#filter1_d)">
<path fill-rule="evenodd" clip-rule="evenodd" d="M94 144C94 141.239 96.2386 139 99 139H100C102.761 139 105 141.239 105 144V196H94V144ZM101.59 169.674C101.59 170.969 100.562 172.018 99.2948 172.018C98.0274 172.018 97 170.969 97 169.674C97 168.38 98.0274 167.33 99.2948 167.33C100.562 167.33 101.59 168.38 101.59 169.674ZM99.476 147.818C100.743 147.818 101.771 146.768 101.771 145.474C101.771 144.179 100.743 143.13 99.476 143.13C98.2086 143.13 97.1812 144.179 97.1812 145.474C97.1812 146.768 98.2086 147.818 99.476 147.818ZM101.59 181.395C101.59 182.689 100.562 183.739 99.2948 183.739C98.0274 183.739 97 182.689 97 181.395C97 180.1 98.0274 179.051 99.2948 179.051C100.562 179.051 101.59 180.1 101.59 181.395ZM99.2948 160.298C100.562 160.298 101.59 159.249 101.59 157.954C101.59 156.66 100.562 155.61 99.2948 155.61C98.0274 155.61 97 156.66 97 157.954C97 159.249 98.0274 160.298 99.2948 160.298ZM101.59 193.115C101.59 194.409 100.562 195.459 99.2948 195.459C98.0274 195.459 97 194.409 97 193.115C97 191.82 98.0274 190.771 99.2948 190.771C100.562 190.771 101.59 191.82 101.59 193.115Z" fill="#5A5E73"/>
</g>
<path fill-rule="evenodd" clip-rule="evenodd" d="M274.571 196.468C282.409 196.468 289.454 199.758 294.317 204.992C300.258 199.697 308.165 196.468 316.844 196.468C335.299 196.468 350.26 211.068 350.26 229.078C350.26 229.947 350.225 230.809 350.156 231.661C361.625 236.827 369.584 248.149 369.584 261.286C369.584 279.296 354.624 293.896 336.169 293.896C326.055 293.896 316.991 289.511 310.863 282.584C305.016 290.212 294.377 293.896 282.221 293.896C266.692 293.896 253.638 287.884 249.888 275.319C249.264 275.357 248.634 275.377 248 275.377C231.991 275.377 219.013 262.939 219.013 247.597C219.013 232.255 231.991 219.818 248 219.818L248.115 219.818C249.371 206.721 260.736 196.468 274.571 196.468Z" fill="url(#paint2_linear)"/>
<defs>
<filter id="filter0_d" x="257" y="125" width="31" height="77" filterUnits="userSpaceOnUse" color-interpolation-filters="sRGB">
<feFlood flood-opacity="0" result="BackgroundImageFix"/>
<feColorMatrix in="SourceAlpha" type="matrix" values="0 0 0 0 0 0 0 0 0 0 0 0 0 0 0 0 0 0 127 0"/>
<feOffset dy="-4"/>
<feGaussianBlur stdDeviation="5"/>
<feColorMatrix type="matrix" values="0 0 0 0 0.191214 0 0 0 0 0.288182 0 0 0 0 0.613202 0 0 0 0.154552 0"/>
<feBlend mode="normal" in2="BackgroundImageFix" result="effect1_dropShadow"/>
<feBlend mode="normal" in="SourceGraphic" in2="effect1_dropShadow" result="shape"/>
</filter>
<filter id="filter1_d" x="84" y="125" width="31" height="77" filterUnits="userSpaceOnUse" color-interpolation-filters="sRGB">
<feFlood flood-opacity="0" result="BackgroundImageFix"/>
<feColorMatrix in="SourceAlpha" type="matrix" values="0 0 0 0 0 0 0 0 0 0 0 0 0 0 0 0 0 0 127 0"/>
<feOffset dy="-4"/>
<feGaussianBlur stdDeviation="5"/>
<feColorMatrix type="matrix" values="0 0 0 0 0.191214 0 0 0 0 0.288182 0 0 0 0 0.613202 0 0 0 0.154552 0"/>
<feBlend mode="normal" in2="BackgroundImageFix" result="effect1_dropShadow"/>
<feBlend mode="normal" in="SourceGraphic" in2="effect1_dropShadow" result="shape"/>
</filter>
<linearGradient id="paint0_linear" x1="265.947" y1="34.7557" x2="265.947" y2="74.5717" gradientUnits="userSpaceOnUse">
<stop stop-color="#282B3D"/>
<stop offset="1" stop-color="#282B3D" stop-opacity="0.158486"/>
</linearGradient>
<linearGradient id="paint1_linear" x1="38.3291" y1="113.664" x2="38.3291" y2="147.944" gradientUnits="userSpaceOnUse">
<stop stop-color="#282B3D"/>
<stop offset="1" stop-color="#282B3D" stop-opacity="0.158486"/>
</linearGradient>
<linearGradient id="paint2_linear" x1="263.532" y1="231.223" x2="263.532" y2="271.039" gradientUnits="userSpaceOnUse">
<stop stop-color="#282B3D"/>
<stop offset="1" stop-color="#282B3D" stop-opacity="0.158486"/>
</linearGradient>
</defs>
</svg>
