<svg width="20" height="20" viewBox="0 0 20 20" fill="none" xmlns="http://www.w3.org/2000/svg">
<path fill-rule="evenodd" clip-rule="evenodd" d="M9.33136 10.7385L4.5 10.7385C4.22386 10.7385 4 10.5146 4 10.2385L4 9.3C4 9.02386 4.22386 8.8 4.5 8.8L9.33136 8.8C9.34518 8.80014 9.35898 8.80056 9.37278 8.80126L9.37278 8.47692C9.37278 7.40625 10.2628 6.53846 11.3609 6.53846L14.0118 6.53846C15.11 6.53846 16 7.40625 16 8.47692L16 11.0615C16 12.1322 15.11 13 14.0118 13L11.3609 13C10.2628 13 9.37278 12.1322 9.37278 11.0615L9.37278 10.7372C9.35898 10.7379 9.34518 10.7383 9.33136 10.7385Z" fill="currentColor"/>
</svg>
