<svg width="10" height="10" viewBox="0 0 10 10" fill="none" xmlns="http://www.w3.org/2000/svg">
<path d="M8.20513 0C7.78026 0 7.4359 0.33575 7.4359 0.75H6.28205C5.36617 0.75 4.61539 1.48202 4.61539 2.375V4.625H2.58013C2.57478 4.62505 2.56944 4.62522 2.5641 4.62549V4.5C2.5641 4.08575 2.21974 3.75 1.79487 3.75H0.769231C0.344359 3.75 0 4.08575 0 4.5V5.5C0 5.91425 0.344359 6.25 0.769231 6.25H1.79487C2.21974 6.25 2.5641 5.91425 2.5641 5.5V5.37451C2.56944 5.37478 2.57478 5.37495 2.58013 5.375H4.61539V7.625C4.61539 8.51798 5.36617 9.25 6.28205 9.25H7.4359C7.4359 9.66425 7.78026 10 8.20513 10H9.23077C9.65564 10 10 9.66425 10 9.25V8.25C10 7.83575 9.65564 7.5 9.23077 7.5H8.20513C7.78026 7.5 7.4359 7.83575 7.4359 8.25V8.5H6.28205C5.78204 8.5 5.38462 8.11252 5.38462 7.625V5.375H7.4359V5.5C7.4359 5.91425 7.78026 6.25 8.20513 6.25H9.23077C9.65564 6.25 10 5.91425 10 5.5V4.5C10 4.08575 9.65564 3.75 9.23077 3.75H8.20513C7.78026 3.75 7.4359 4.08575 7.4359 4.5V4.625H5.38462V2.375C5.38462 1.88748 5.78204 1.5 6.28205 1.5H7.4359V1.75C7.4359 2.16425 7.78026 2.5 8.20513 2.5H9.23077C9.65564 2.5 10 2.16425 10 1.75V0.75C10 0.33575 9.65564 0 9.23077 0H8.20513Z" fill="currentColor"/>
</svg>
