<svg xmlns="http://www.w3.org/2000/svg" width="12" height="12" viewBox="0 0 12 12" fill="none">
    <path
        d="M1.93701 11.9999H10.063C11.3386 11.9999 12 11.28 12 9.91094V2.08877C12 0.7133 11.3386 -0.000143796 10.063 -0.000143796H1.93701C0.661417 -0.000143796 0 0.7133 0 2.08877V9.91094C0 11.2864 0.661417 11.9999 1.93701 11.9999ZM1.91929 10.7401C1.42913 10.7401 1.15748 10.4573 1.15748 9.89809V3.95915C1.15748 3.39354 1.42913 3.11716 1.91929 3.11716H10.0689C10.565 3.11716 10.8425 3.39354 10.8425 3.95915V9.89809C10.8425 10.4573 10.565 10.7401 10.0689 10.7401H1.91929ZM2.92913 5.34747H3.27756C3.49016 5.34747 3.56102 5.27677 3.56102 5.04538V4.67259C3.56102 4.44121 3.49016 4.3705 3.27756 4.3705H2.92913C2.72244 4.3705 2.65157 4.44121 2.65157 4.67259V5.04538C2.65157 5.27677 2.72244 5.34747 2.92913 5.34747ZM4.86614 5.34806H5.20866C5.42126 5.34806 5.49213 5.27736 5.49213 5.04597V4.67318C5.49213 4.4418 5.42126 4.37109 5.20866 4.37109H4.86614C4.65354 4.37109 4.58268 4.4418 4.58268 4.67318V5.04597C4.58268 5.27736 4.65354 5.34806 4.86614 5.34806ZM6.79724 5.34806L7.13976 5.34747C7.35236 5.34747 7.42323 5.27677 7.42323 5.04538V4.67259C7.42323 4.44121 7.35236 4.3705 7.13976 4.3705L6.79724 4.37109C6.58465 4.37109 6.51378 4.4418 6.51378 4.67318V5.04597C6.51378 5.27736 6.58465 5.34806 6.79724 5.34806ZM2.92913 7.4171H3.27756C3.49016 7.4171 3.56102 7.3464 3.56102 7.11501V6.74222C3.56102 6.51084 3.49016 6.44013 3.27756 6.44013H2.92913C2.72244 6.44013 2.65157 6.51084 2.65157 6.74222V7.11501C2.65157 7.3464 2.72244 7.4171 2.92913 7.4171ZM4.86024 7.4171H5.20866C5.42126 7.4171 5.49213 7.3464 5.49213 7.11501V6.74222C5.49213 6.51084 5.42126 6.44013 5.20866 6.44013H4.86024C4.65354 6.44013 4.58268 6.51084 4.58268 6.74222V7.11501C4.58268 7.3464 4.65354 7.4171 4.86024 7.4171ZM6.79724 7.4171H7.13976C7.35236 7.4171 7.42323 7.3464 7.42323 7.11501V6.74222C7.42323 6.51084 7.35236 6.44013 7.13976 6.44013H6.79724C6.58465 6.44013 6.51378 6.51084 6.51378 6.74222V7.11501C6.51378 7.3464 6.58465 7.4171 6.79724 7.4171ZM8.72835 7.4171H9.07087C9.28346 7.4171 9.35433 7.3464 9.35433 7.11501V6.74222C9.35433 6.51084 9.28346 6.44013 9.07087 6.44013H8.72835C8.51575 6.44013 8.44488 6.51084 8.44488 6.74222V7.11501C8.44488 7.3464 8.51575 7.4171 8.72835 7.4171ZM2.92913 9.48673H3.27756C3.49016 9.48673 3.56102 9.41603 3.56102 9.18464V8.81185C3.56102 8.58047 3.49016 8.50976 3.27756 8.50976H2.92913C2.72244 8.50976 2.65157 8.58047 2.65157 8.81185V9.18464C2.65157 9.41603 2.72244 9.48673 2.92913 9.48673ZM4.86024 9.48673H5.20866C5.42126 9.48673 5.49213 9.41603 5.49213 9.18464V8.81185C5.49213 8.58047 5.42126 8.50976 5.20866 8.50976H4.86024C4.65354 8.50976 4.58268 8.58047 4.58268 8.81185V9.18464C4.58268 9.41603 4.65354 9.48673 4.86024 9.48673Z"
        fill="currentColor" />
    <path
        d="M9.07087 5.34806H8.72835C8.51575 5.34806 8.44488 5.27736 8.44488 5.04597V4.67318C8.44488 4.4418 8.51575 4.37109 8.72835 4.37109H9.07087C9.28346 4.37109 9.35433 4.4418 9.35433 4.67318V5.04597C9.35433 5.27736 9.28346 5.34806 9.07087 5.34806Z"
        fill="currentColor" />
</svg>