<svg width="14" height="14" viewBox="0 0 14 14" fill="none" xmlns="http://www.w3.org/2000/svg">
<mask id="path-1-inside-1_1738_206035" fill="white">
<path fill-rule="evenodd" clip-rule="evenodd" d="M2.37302 0.0825848C2.28485 0.127884 2.16915 0.224845 2.1159 0.29805C2.01946 0.430647 2.01904 0.451859 2.00614 6.00168C1.99169 12.193 1.97603 11.8655 2.29659 12.0653C2.44137 12.1556 2.52463 12.1615 3.65063 12.1615H4.17465C4.54638 12.1615 4.84631 11.8574 4.84125 11.4857L4.83394 10.9477L4.81899 9.84811C4.81796 9.7725 4.80408 9.69763 4.77794 9.62668L4.6698 9.33321C4.33344 8.42039 4.55779 7.44875 5.26842 6.74065C5.76116 6.24967 6.28779 6.03472 6.99786 6.03472C7.7112 6.03472 8.23469 6.24797 8.73075 6.74065C9.07805 7.0856 9.33947 7.55603 9.43114 8.00096C9.51721 8.4186 9.46494 9.00909 9.30702 9.40391C9.17585 9.73185 9.17491 9.74137 9.16014 10.9477L9.15354 11.4866C9.14899 11.858 9.44877 12.1615 9.82015 12.1615H10.3434C11.7009 12.1615 11.7411 12.1523 11.9075 11.8058C11.9976 11.6182 12 11.5016 12 7.36532V3.77685C12 3.41151 11.7059 3.11422 11.3406 3.11023L10.6326 3.10249C9.14163 3.08613 9.12882 3.08397 8.85861 2.79709C8.60626 2.52925 8.58732 2.41466 8.58732 1.15638V0.666687C8.58732 0.298489 8.28883 9.30011e-06 7.92063 2.07721e-05L5.56032 9.43129e-05C2.77086 0.00014145 2.52075 0.00659928 2.37302 0.0825848ZM9.20394 1.33734C9.21741 2.19387 9.22531 2.26712 9.31418 2.35664C9.40557 2.44865 9.45587 2.45247 10.4225 2.4403L11.435 2.42758L10.3534 1.43769C9.75852 0.893254 9.25331 0.440311 9.23064 0.431166C9.2074 0.421738 9.19576 0.816986 9.20394 1.33734ZM6.56524 6.69455C5.6469 6.92854 5.0143 7.87756 5.16506 8.79513C5.23285 9.20735 5.37595 9.49164 5.67635 9.81076C6.71245 10.9113 8.52982 10.3444 8.82247 8.8294C9.02793 7.76589 8.1994 6.72033 7.10935 6.66763C6.9066 6.65783 6.66178 6.66994 6.56524 6.69455ZM5.50189 12.2782C5.50189 13.3789 5.5183 13.9951 5.54709 13.9772C5.57201 13.9617 5.85073 13.7248 6.16652 13.4508C6.87341 12.8375 6.9232 12.8034 7.05596 12.8404C7.11398 12.8565 7.456 13.124 7.81596 13.4349C8.07385 13.6575 8.47423 13.476 8.47669 13.1353L8.48274 12.2957C8.48948 11.3583 8.48807 10.5844 8.47966 10.5759C8.4712 10.5674 8.32758 10.6336 8.1605 10.7231C7.81461 10.9083 7.36572 11.0285 7.0159 11.0294C6.54317 11.0308 6.30644 10.9571 5.53695 10.5686C5.51769 10.5589 5.50189 11.3282 5.50189 12.2782Z"/>
</mask>
<path fill-rule="evenodd" clip-rule="evenodd" d="M2.37302 0.0825848C2.28485 0.127884 2.16915 0.224845 2.1159 0.29805C2.01946 0.430647 2.01904 0.451859 2.00614 6.00168C1.99169 12.193 1.97603 11.8655 2.29659 12.0653C2.44137 12.1556 2.52463 12.1615 3.65063 12.1615H4.17465C4.54638 12.1615 4.84631 11.8574 4.84125 11.4857L4.83394 10.9477L4.81899 9.84811C4.81796 9.7725 4.80408 9.69763 4.77794 9.62668L4.6698 9.33321C4.33344 8.42039 4.55779 7.44875 5.26842 6.74065C5.76116 6.24967 6.28779 6.03472 6.99786 6.03472C7.7112 6.03472 8.23469 6.24797 8.73075 6.74065C9.07805 7.0856 9.33947 7.55603 9.43114 8.00096C9.51721 8.4186 9.46494 9.00909 9.30702 9.40391C9.17585 9.73185 9.17491 9.74137 9.16014 10.9477L9.15354 11.4866C9.14899 11.858 9.44877 12.1615 9.82015 12.1615H10.3434C11.7009 12.1615 11.7411 12.1523 11.9075 11.8058C11.9976 11.6182 12 11.5016 12 7.36532V3.77685C12 3.41151 11.7059 3.11422 11.3406 3.11023L10.6326 3.10249C9.14163 3.08613 9.12882 3.08397 8.85861 2.79709C8.60626 2.52925 8.58732 2.41466 8.58732 1.15638V0.666687C8.58732 0.298489 8.28883 9.30011e-06 7.92063 2.07721e-05L5.56032 9.43129e-05C2.77086 0.00014145 2.52075 0.00659928 2.37302 0.0825848ZM9.20394 1.33734C9.21741 2.19387 9.22531 2.26712 9.31418 2.35664C9.40557 2.44865 9.45587 2.45247 10.4225 2.4403L11.435 2.42758L10.3534 1.43769C9.75852 0.893254 9.25331 0.440311 9.23064 0.431166C9.2074 0.421738 9.19576 0.816986 9.20394 1.33734ZM6.56524 6.69455C5.6469 6.92854 5.0143 7.87756 5.16506 8.79513C5.23285 9.20735 5.37595 9.49164 5.67635 9.81076C6.71245 10.9113 8.52982 10.3444 8.82247 8.8294C9.02793 7.76589 8.1994 6.72033 7.10935 6.66763C6.9066 6.65783 6.66178 6.66994 6.56524 6.69455ZM5.50189 12.2782C5.50189 13.3789 5.5183 13.9951 5.54709 13.9772C5.57201 13.9617 5.85073 13.7248 6.16652 13.4508C6.87341 12.8375 6.9232 12.8034 7.05596 12.8404C7.11398 12.8565 7.456 13.124 7.81596 13.4349C8.07385 13.6575 8.47423 13.476 8.47669 13.1353L8.48274 12.2957C8.48948 11.3583 8.48807 10.5844 8.47966 10.5759C8.4712 10.5674 8.32758 10.6336 8.1605 10.7231C7.81461 10.9083 7.36572 11.0285 7.0159 11.0294C6.54317 11.0308 6.30644 10.9571 5.53695 10.5686C5.51769 10.5589 5.50189 11.3282 5.50189 12.2782Z" fill="white"/>
<path d="M2.37302 0.0825848L2.98234 1.26855L2.98289 1.26826L2.37302 0.0825848ZM2.1159 0.29805L1.03764 -0.486252L1.03762 -0.486225L2.1159 0.29805ZM2.00614 6.00168L3.33947 6.00479V6.00478L2.00614 6.00168ZM2.29659 12.0653L3.00201 10.9339L3.00178 10.9337L2.29659 12.0653ZM4.83394 10.9477L3.50073 10.9658L4.83394 10.9477ZM4.6698 9.33321L5.92091 8.87222L5.9209 8.8722L4.6698 9.33321ZM5.26842 6.74065L6.20955 7.68514L6.20955 7.68514L5.26842 6.74065ZM8.73075 6.74065L9.67035 5.79465L9.67033 5.79463L8.73075 6.74065ZM9.43114 8.00096L8.12524 8.27004L8.12525 8.27008L9.43114 8.00096ZM9.30702 9.40391L10.545 9.89911L10.545 9.89907L9.30702 9.40391ZM9.16014 10.9477L10.4934 10.964V10.964L9.16014 10.9477ZM11.9075 11.8058L10.7055 11.2287L10.7055 11.2288L11.9075 11.8058ZM10.6326 3.10249L10.618 4.43574L10.618 4.43574L10.6326 3.10249ZM8.85861 2.79709L9.82919 1.8829L9.82905 1.88275L8.85861 2.79709ZM5.56032 9.43129e-05L5.56035 1.33343H5.56037L5.56032 9.43129e-05ZM9.20394 1.33734L10.5371 1.31638V1.31638L9.20394 1.33734ZM9.31418 2.35664L8.36797 3.29603L8.3682 3.29626L9.31418 2.35664ZM10.4225 2.4403L10.4057 1.10708L10.4057 1.10708L10.4225 2.4403ZM11.435 2.42758L11.4517 3.7608L14.8204 3.71846L12.3352 1.44399L11.435 2.42758ZM10.3534 1.43769L11.2536 0.454109L11.2536 0.454102L10.3534 1.43769ZM9.23064 0.431166L8.72932 1.66667L8.73191 1.66771L9.23064 0.431166ZM6.56524 6.69455L6.89445 7.9866L6.89456 7.98657L6.56524 6.69455ZM5.16506 8.79513L3.84937 9.01131L3.8494 9.01149L5.16506 8.79513ZM5.67635 9.81076L4.70551 10.7247L4.70554 10.7247L5.67635 9.81076ZM8.82247 8.8294L7.51334 8.57649L7.51334 8.57653L8.82247 8.8294ZM7.10935 6.66763L7.04495 7.99941L7.04497 7.99941L7.10935 6.66763ZM5.54709 13.9772L4.84255 12.8452L4.84153 12.8458L5.54709 13.9772ZM6.16652 13.4508L7.04027 14.458L7.0403 14.458L6.16652 13.4508ZM7.05596 12.8404L7.41391 11.556L7.41351 11.5559L7.05596 12.8404ZM8.48274 12.2957L9.81604 12.3053L9.81604 12.3053L8.48274 12.2957ZM8.47966 10.5759L7.53296 11.5148L8.47966 10.5759ZM8.1605 10.7231L8.78987 11.8985L8.78991 11.8985L8.1605 10.7231ZM7.0159 11.0294L7.01213 9.69612H7.01205L7.0159 11.0294ZM5.53695 10.5686L4.93439 11.758L4.93607 11.7589L5.53695 10.5686ZM8.47669 13.1353L9.80999 13.1449L8.47669 13.1353ZM4.81899 9.84811L3.48578 9.86624L4.81899 9.84811ZM4.77794 9.62668L3.52683 10.0877L4.77794 9.62668ZM4.84125 11.4857L3.50804 11.5038L4.84125 11.4857ZM1.7637 -1.10338C1.50787 -0.971937 1.22495 -0.743765 1.03764 -0.486252L3.19416 1.08235C3.15846 1.13144 3.12937 1.16196 3.1179 1.17365C3.10412 1.18769 3.09402 1.19655 3.08776 1.2018C3.08134 1.20718 3.07263 1.21406 3.06008 1.22271C3.04919 1.23022 3.0231 1.24761 2.98234 1.26855L1.7637 -1.10338ZM1.03762 -0.486225C1.01231 -0.451429 0.914464 -0.319939 0.839457 -0.124789C0.775776 0.0408928 0.750556 0.192639 0.737434 0.294696C0.712924 0.485312 0.703294 0.745258 0.696606 1.09275C0.682551 1.82299 0.679238 3.23215 0.672807 5.99858L3.33947 6.00478C3.34594 3.22139 3.34929 1.84503 3.36278 1.14406C3.36611 0.97076 3.36992 0.848027 3.37405 0.760412C3.37609 0.717055 3.37805 0.685762 3.37974 0.663705C3.38147 0.641207 3.38256 0.63298 3.38233 0.63478C3.38216 0.636093 3.37965 0.655809 3.37265 0.687319C3.36538 0.720001 3.35214 0.770673 3.3286 0.831925C3.30354 0.897105 3.2733 0.957494 3.24066 1.01161C3.21284 1.05773 3.18715 1.092 3.19418 1.08232L1.03762 -0.486225ZM0.672807 5.99857C0.665655 9.06367 0.657474 10.5831 0.69393 11.3441C0.709039 11.6595 0.733581 12.0947 0.903036 12.4623C1.16102 13.0221 1.74311 13.2914 1.5914 13.1969L3.00178 10.9337C2.68979 10.7393 3.15363 10.9747 3.32484 11.3461C3.40753 11.5255 3.37678 11.6181 3.35754 11.2165C3.3253 10.5435 3.33217 9.13104 3.33947 6.00479L0.672807 5.99857ZM1.59116 13.1967C1.68473 13.2551 1.83321 13.3392 2.04014 13.3991C2.21735 13.4504 2.38365 13.4682 2.51122 13.4772C2.75036 13.4942 3.11263 13.4948 3.65063 13.4948V10.8281C3.36822 10.8281 3.15941 10.8277 2.99993 10.8259C2.83629 10.824 2.74854 10.8207 2.70008 10.8172C2.64799 10.8135 2.69596 10.8128 2.78164 10.8376C2.89706 10.8711 2.98084 10.9207 3.00201 10.9339L1.59116 13.1967ZM3.65063 13.4948H4.17465V10.8281H3.65063V13.4948ZM6.17446 11.4676L6.16715 10.9295L3.50073 10.9658L3.50804 11.5038L6.17446 11.4676ZM6.16715 10.9295L6.1522 9.82998L3.48578 9.86624L3.50073 10.9658L6.16715 10.9295ZM6.02904 9.16568L5.92091 8.87222L3.4187 9.7942L3.52683 10.0877L6.02904 9.16568ZM5.9209 8.8722C5.7718 8.46758 5.85309 8.04033 6.20955 7.68514L4.3273 5.79616C3.26249 6.85717 2.89508 8.3732 3.4187 9.79422L5.9209 8.8722ZM6.20955 7.68514C6.44659 7.44895 6.63233 7.36805 6.99786 7.36805V4.70139C5.94324 4.70139 5.07573 5.05039 4.32729 5.79616L6.20955 7.68514ZM6.99786 7.36805C7.36718 7.36805 7.55052 7.44767 7.79116 7.68667L9.67033 5.79463C8.91886 5.04827 8.05522 4.70139 6.99786 4.70139V7.36805ZM7.79114 7.68665C7.96753 7.86184 8.0906 8.1019 8.12524 8.27004L10.737 7.73189C10.5883 7.01017 10.1886 6.30936 9.67035 5.79465L7.79114 7.68665ZM8.12525 8.27008C8.15872 8.43249 8.12967 8.75718 8.06904 8.90876L10.545 9.89907C10.8002 9.26101 10.8757 8.40472 10.737 7.73185L8.12525 8.27008ZM8.06906 8.90871C7.98653 9.11503 7.89896 9.33793 7.86259 9.72009C7.83743 9.98445 7.83387 10.3629 7.8269 10.9313L10.4934 10.964C10.5012 10.3261 10.5055 10.0967 10.5173 9.97272C10.5206 9.93742 10.5213 9.95041 10.5131 9.97922C10.5098 9.99069 10.5076 9.99257 10.545 9.89911L8.06906 8.90871ZM7.8269 10.9313L7.8203 11.4703L10.4868 11.503L10.4934 10.964L7.8269 10.9313ZM9.82015 13.4948H10.3434V10.8281H9.82015V13.4948ZM10.3434 13.4948C10.6768 13.4948 10.9567 13.4944 11.1794 13.4873C11.3873 13.4807 11.634 13.4669 11.8677 13.4137C12.1405 13.3517 12.4616 13.2222 12.7381 12.9387C12.9627 12.7086 13.0806 12.4431 13.1095 12.3829L10.7055 11.2288C10.6849 11.2716 10.6874 11.2642 10.6992 11.2441C10.7145 11.2182 10.7561 11.1517 10.8295 11.0764C10.9082 10.9957 10.999 10.9299 11.0934 10.882C11.1808 10.8375 11.2495 10.8196 11.2765 10.8134C11.302 10.8076 11.3044 10.8093 11.2681 10.8126C11.2331 10.8159 11.1786 10.8193 11.0947 10.8219C10.9229 10.8274 10.6887 10.8281 10.3434 10.8281V13.4948ZM13.1094 12.383C13.3008 11.9845 13.3099 11.6081 13.3206 11.0941C13.3328 10.5066 13.3333 9.42407 13.3333 7.36532H10.6667C10.6667 9.44287 10.666 10.4868 10.6545 11.0386C10.6485 11.3245 10.6403 11.4225 10.6372 11.4472C10.6368 11.4498 10.6415 11.4107 10.6593 11.3509C10.6683 11.3204 10.6786 11.2919 10.6889 11.2667C10.6984 11.2435 10.7059 11.2279 10.7055 11.2287L13.1094 12.383ZM13.3333 7.36532V3.77685H10.6667V7.36532H13.3333ZM11.3552 1.77697L10.6472 1.76924L10.618 4.43574L11.326 4.44348L11.3552 1.77697ZM10.6472 1.76924C10.269 1.76509 10.0052 1.762 9.80769 1.75558C9.71065 1.75243 9.64046 1.74878 9.58867 1.74484C9.56336 1.74291 9.54494 1.74109 9.53204 1.7396C9.51911 1.73811 9.51363 1.73716 9.514 1.73723C9.5249 1.7391 9.63742 1.76115 9.76902 1.84707C9.86258 1.90815 9.91801 1.9772 9.82919 1.8829L7.88802 3.71128C7.93431 3.76042 8.09267 3.93731 8.31122 4.07999C8.56781 4.24751 8.82738 4.32492 9.06163 4.36524C9.41989 4.42691 9.94323 4.42834 10.618 4.43574L10.6472 1.76924ZM9.82905 1.88275C9.78625 1.83732 9.83285 1.87956 9.87932 1.96444C9.93213 2.06092 9.94442 2.13436 9.94381 2.13065C9.94051 2.11073 9.93219 2.04142 9.92697 1.86619C9.92192 1.69684 9.92066 1.47243 9.92066 1.15638H7.25399C7.25399 1.73591 7.25435 2.21176 7.31286 2.56565C7.34852 2.78136 7.41286 3.0123 7.5402 3.24492C7.66118 3.46593 7.80479 3.62294 7.88816 3.71143L9.82905 1.88275ZM9.92066 1.15638V0.666687H7.25399V1.15638H9.92066ZM7.92059 -1.33331L5.56028 -1.33324L5.56037 1.33343L7.92068 1.33335L7.92059 -1.33331ZM5.5603 -1.33324C4.17457 -1.33322 3.39292 -1.3317 2.94153 -1.32002C2.5942 -1.31104 2.16032 -1.30738 1.76315 -1.10309L2.98289 1.26826C2.73345 1.39657 2.49849 1.359 3.01051 1.34575C3.41848 1.33519 4.15661 1.33345 5.56035 1.33343L5.5603 -1.33324ZM7.87077 1.35829C7.87701 1.75528 7.88211 2.06467 7.90517 2.27795C7.91747 2.39169 7.94382 2.58107 8.02748 2.78536C8.12937 3.03415 8.27111 3.19848 8.36797 3.29603L10.2604 1.41724C10.2769 1.43391 10.321 1.47943 10.3693 1.54713C10.4208 1.61914 10.4631 1.69619 10.4952 1.77475C10.5255 1.84857 10.5406 1.90876 10.548 1.94356C10.5552 1.97714 10.5569 1.99617 10.5564 1.99128C10.5548 1.97621 10.5509 1.92618 10.547 1.80371C10.5434 1.68675 10.5405 1.53134 10.5371 1.31638L7.87077 1.35829ZM8.3682 3.29626C8.44437 3.37296 8.61591 3.53632 8.89352 3.6477C9.11802 3.73776 9.32607 3.7585 9.43972 3.76708C9.65904 3.78364 9.9908 3.77917 10.4392 3.77353L10.4057 1.10708C10.1624 1.11014 9.98692 1.11205 9.85516 1.11197C9.71703 1.11188 9.65973 1.10944 9.64052 1.10799C9.63363 1.10747 9.65466 1.10864 9.6921 1.11555C9.73105 1.12274 9.80088 1.13845 9.88643 1.17277C9.97853 1.20972 10.0646 1.25846 10.1415 1.31532C10.2102 1.36621 10.255 1.41182 10.2602 1.41701L8.3682 3.29626ZM10.4392 3.77353L11.4517 3.7608L11.4182 1.09435L10.4057 1.10708L10.4392 3.77353ZM12.3352 1.44399L11.2536 0.454109L9.45322 2.42127L10.5348 3.41116L12.3352 1.44399ZM11.2536 0.454102C10.9538 0.179708 10.6752 -0.0728312 10.4675 -0.259098C10.3641 -0.35173 10.2753 -0.430703 10.2089 -0.488621C10.1767 -0.516794 10.1442 -0.544868 10.1158 -0.568553C10.1028 -0.579449 10.0818 -0.596807 10.0581 -0.615174C10.0472 -0.623662 10.0248 -0.640882 9.99631 -0.660718C9.9822 -0.670549 9.95731 -0.687529 9.92544 -0.706935C9.90407 -0.719944 9.8307 -0.764509 9.72936 -0.805381L8.73191 1.66771C8.63128 1.62713 8.55885 1.58306 8.53866 1.57077C8.50796 1.55208 8.48448 1.53603 8.47201 1.52734C8.44682 1.50979 8.4286 1.4957 8.42276 1.49116C8.40928 1.4807 8.40207 1.47455 8.40617 1.47797C8.41211 1.48294 8.42744 1.496 8.45502 1.52008C8.50839 1.56668 8.58725 1.63668 8.68742 1.72649C8.88664 1.90509 9.15816 2.15124 9.45322 2.42128L11.2536 0.454102ZM9.73195 -0.804335C9.2657 -0.993521 8.79424 -0.889782 8.4691 -0.664486C8.21757 -0.490198 8.09548 -0.27733 8.05465 -0.202127C7.96355 -0.0343307 7.93037 0.115637 7.92344 0.145617C7.90035 0.245434 7.8916 0.333823 7.88834 0.367582C7.87977 0.456415 7.8754 0.556551 7.87275 0.646328C7.86717 0.835702 7.86649 1.08601 7.87077 1.3583L10.5371 1.31638C10.5332 1.06832 10.5343 0.860821 10.5383 0.72484C10.5404 0.65194 10.5428 0.62251 10.5427 0.623625C10.5425 0.625901 10.5415 0.63617 10.5392 0.65203C10.5374 0.664868 10.5323 0.699869 10.5215 0.74649C10.5171 0.765548 10.4866 0.907483 10.3982 1.07027C10.3587 1.14297 10.238 1.35409 9.98789 1.5274C9.84893 1.62369 9.65488 1.71835 9.4115 1.75188C9.16214 1.78623 8.9274 1.74704 8.72932 1.66667L9.73195 -0.804335ZM6.23603 5.4025C4.6679 5.80205 3.58307 7.39059 3.84937 9.01131L6.48075 8.57896C6.44552 8.36453 6.6259 8.05503 6.89445 7.9866L6.23603 5.4025ZM3.8494 9.01149C3.96238 9.69853 4.23275 10.2225 4.70551 10.7247L6.6472 8.89684C6.56142 8.80572 6.53466 8.75867 6.52441 8.73832C6.51523 8.72008 6.49743 8.6804 6.48072 8.57878L3.8494 9.01149ZM4.70554 10.7247C6.54051 12.6738 9.64774 11.5872 10.1316 9.08228L7.51334 8.57653C7.46445 8.82959 7.30528 8.97378 7.13117 9.02808C6.96099 9.08117 6.78981 9.04833 6.64717 8.89681L4.70554 10.7247ZM10.1316 9.08231C10.4932 7.21036 9.0629 5.42719 7.17374 5.33586L7.04497 7.99941C7.17239 8.00557 7.30637 8.07093 7.40673 8.19757C7.50706 8.32417 7.53532 8.46274 7.51334 8.57649L10.1316 9.08231ZM7.17375 5.33586C7.0253 5.32868 6.86976 5.32965 6.73159 5.33648C6.62479 5.34177 6.42384 5.35463 6.23592 5.40252L6.89456 7.98657C6.85754 7.99601 6.8315 8.00043 6.82294 8.00183C6.8125 8.00353 6.80799 8.00396 6.81077 8.00365C6.81688 8.00296 6.83455 8.00132 6.86335 7.99989C6.9224 7.99697 6.99065 7.99679 7.04495 7.99941L7.17375 5.33586ZM4.16855 12.2782C4.16855 12.8323 4.17265 13.2755 4.18083 13.5827C4.18481 13.7322 4.19023 13.8694 4.1985 13.9766C4.20191 14.0209 4.20906 14.1068 4.2259 14.1976C4.23024 14.221 4.25429 14.3605 4.32523 14.5187C4.34937 14.5726 4.46088 14.8259 4.73201 15.0343C4.89098 15.1564 5.1379 15.2875 5.4604 15.3082C5.78847 15.3292 6.0619 15.2275 6.25266 15.1085L4.84153 12.8458C5.03139 12.7274 5.30392 12.626 5.63111 12.647C5.95272 12.6676 6.19876 12.7983 6.35685 12.9198C6.62623 13.1268 6.73601 13.3776 6.75845 13.4276C6.82598 13.5782 6.84673 13.7053 6.84786 13.7114C6.8583 13.7676 6.85944 13.7998 6.85727 13.7715C6.85436 13.7339 6.85027 13.6516 6.84655 13.5117C6.83932 13.2401 6.83522 12.8248 6.83522 12.2782H4.16855ZM6.25163 15.1092C6.31207 15.0716 6.35917 15.035 6.36211 15.0328C6.37757 15.021 6.39125 15.0102 6.40072 15.0026C6.4203 14.9869 6.44137 14.9696 6.46112 14.9533C6.50163 14.9197 6.55328 14.8761 6.61112 14.827C6.72763 14.728 6.87981 14.5972 7.04027 14.458L5.29277 12.4437C5.13744 12.5785 4.99236 12.7031 4.88434 12.7949C4.82991 12.8411 4.78747 12.8769 4.75884 12.9006C4.74403 12.9129 4.73677 12.9188 4.73511 12.9201C4.73395 12.921 4.73878 12.9171 4.74727 12.9107C4.75152 12.9074 4.76024 12.9008 4.7719 12.8925C4.7802 12.8865 4.80664 12.8675 4.84255 12.8452L6.25163 15.1092ZM7.0403 14.458C7.21829 14.3035 7.34524 14.194 7.44095 14.1139C7.48814 14.0744 7.5227 14.0462 7.54817 14.0262C7.57442 14.0055 7.58367 13.9993 7.58102 14.0011C7.57954 14.0021 7.55078 14.022 7.50161 14.0468C7.45033 14.0726 7.36355 14.1104 7.24763 14.1359C7.12395 14.1632 7.00158 14.169 6.88779 14.1587C6.78596 14.1494 6.71217 14.1287 6.69842 14.1249L7.41351 11.5559C7.29651 11.5233 7.01982 11.4554 6.67314 11.5319C6.38588 11.5953 6.17518 11.7317 6.07206 11.8024C5.87566 11.9372 5.61376 12.1652 5.29274 12.4437L7.0403 14.458ZM6.69802 14.1248C6.63044 14.1059 6.57791 14.0853 6.54646 14.0722C6.51296 14.0581 6.48627 14.0452 6.46833 14.0361C6.43351 14.0185 6.40888 14.0038 6.39891 13.9978C6.37874 13.9855 6.37122 13.9797 6.3821 13.9874C6.40157 14.0011 6.441 14.0302 6.50125 14.0773C6.61893 14.1694 6.7776 14.2999 6.94456 14.444L8.68737 12.4257C8.49436 12.259 8.30204 12.1004 8.14421 11.9769C8.06671 11.9163 7.98726 11.8561 7.91504 11.8054C7.88008 11.7808 7.8335 11.749 7.78212 11.7179C7.7738 11.7128 7.61922 11.6132 7.41391 11.556L6.69802 14.1248ZM9.80999 13.1449L9.81604 12.3053L7.14945 12.2861L7.14339 13.1257L9.80999 13.1449ZM9.81604 12.3053C9.81943 11.8338 9.82078 11.4019 9.82021 11.0851C9.81993 10.9275 9.81916 10.7945 9.81785 10.6982C9.81721 10.6514 9.81634 10.6055 9.81501 10.5673C9.81442 10.5506 9.81328 10.5207 9.81085 10.488C9.80989 10.475 9.80702 10.437 9.80032 10.3901C9.79743 10.3699 9.78942 10.3159 9.77233 10.2486C9.76402 10.2159 9.74649 10.1515 9.71484 10.0737C9.69514 10.0253 9.61504 9.82728 9.42636 9.63704L7.53296 11.5148C7.42759 11.4086 7.36186 11.3064 7.32555 11.2436C7.28696 11.1769 7.26108 11.1187 7.24487 11.0789C7.21335 11.0014 7.19595 10.9374 7.18777 10.9052C7.17093 10.8389 7.16318 10.7863 7.16054 10.7678C7.15433 10.7244 7.15195 10.6914 7.15146 10.6847C7.14998 10.6647 7.14971 10.6532 7.14996 10.6603C7.15029 10.6697 7.15086 10.693 7.15143 10.7347C7.15253 10.8152 7.15327 10.9358 7.15355 11.0899C7.1541 11.3965 7.15279 11.8202 7.14945 12.2861L9.81604 12.3053ZM9.42636 9.63704C9.18663 9.39531 8.92115 9.30941 8.7807 9.27673C8.63267 9.24228 8.51045 9.24063 8.44379 9.24227C8.31119 9.24553 8.20867 9.26816 8.17038 9.277C8.08167 9.29748 8.01173 9.32311 7.98582 9.33272C7.92113 9.35673 7.86125 9.38351 7.82124 9.40196C7.73305 9.44263 7.63093 9.49422 7.5311 9.54768L8.78991 11.8985C8.85716 11.8625 8.91038 11.8363 8.93789 11.8236C8.95572 11.8154 8.94378 11.8216 8.91362 11.8328C8.90497 11.836 8.84894 11.8571 8.77036 11.8753C8.73714 11.883 8.63873 11.905 8.50924 11.9081C8.44414 11.9097 8.32323 11.9082 8.17625 11.874C8.03684 11.8415 7.77216 11.756 7.53296 11.5148L9.42636 9.63704ZM7.53114 9.54766C7.35392 9.64254 7.11817 9.69582 7.01213 9.69612L7.01967 12.3628C7.61328 12.3611 8.2753 12.1741 8.78987 11.8985L7.53114 9.54766ZM7.01205 9.69612C6.86651 9.69654 6.83226 9.68718 6.78432 9.67225C6.68727 9.64201 6.52468 9.57367 6.13783 9.37837L4.93607 11.7589C5.31871 11.9521 5.65923 12.1148 5.9911 12.2182C6.37208 12.3369 6.69256 12.3637 7.01976 12.3628L7.01205 9.69612ZM6.13951 9.37922C5.93046 9.27332 5.66499 9.20911 5.37262 9.24532C5.09043 9.28027 4.87511 9.3972 4.73323 9.5042C4.48363 9.69243 4.37099 9.91644 4.34082 9.97723C4.26399 10.132 4.23596 10.2676 4.23124 10.2891C4.21298 10.372 4.20577 10.4428 4.20368 10.4629C4.19753 10.5223 4.19396 10.5848 4.19161 10.6328C4.18648 10.7375 4.1824 10.8773 4.17914 11.0361C4.17254 11.3577 4.16855 11.7971 4.16855 12.2782H6.83522C6.83522 11.8092 6.83913 11.389 6.84525 11.0908C6.84835 10.9398 6.85183 10.8298 6.85508 10.7632C6.85692 10.7257 6.85775 10.7223 6.85614 10.7378C6.85556 10.7434 6.85422 10.7557 6.85187 10.7723C6.84991 10.7863 6.845 10.8195 6.83552 10.8625C6.83197 10.8786 6.80512 11.0103 6.72949 11.1627C6.69991 11.2223 6.58787 11.4455 6.33887 11.6333C6.19729 11.7401 5.98227 11.8569 5.70037 11.8918C5.40831 11.9279 5.14313 11.8638 4.93439 11.758L6.13951 9.37922ZM9.92066 0.666687C9.92066 -0.437908 9.02519 -1.33335 7.92059 -1.33331L7.92068 1.33335C7.55248 1.33337 7.25399 1.03489 7.25399 0.666687H9.92066ZM6.94457 14.444C8.06295 15.4097 9.79933 14.6225 9.80999 13.1449L7.14339 13.1257C7.14913 12.3295 8.08475 11.9053 8.68736 12.4257L6.94457 14.444ZM13.3333 3.77685C13.3333 2.68081 12.4512 1.78895 11.3552 1.77697L11.326 4.44348C10.9607 4.43949 10.6667 4.1422 10.6667 3.77685H13.3333ZM6.1522 9.82998C6.14911 9.60317 6.10747 9.37853 6.02904 9.16568L3.52683 10.0877C3.50069 10.0167 3.48681 9.94184 3.48578 9.86624L6.1522 9.82998ZM7.8203 11.4703C7.80666 12.5844 8.70601 13.4948 9.82015 13.4948V10.8281C10.1915 10.8281 10.4913 11.1316 10.4868 11.503L7.8203 11.4703ZM4.17465 13.4948C5.28985 13.4948 6.18962 12.5827 6.17446 11.4676L3.50804 11.5038C3.50299 11.1321 3.80291 10.8281 4.17465 10.8281V13.4948Z" fill="white" mask="url(#path-1-inside-1_1738_206035)"/>
</svg>
