<svg width="14" height="14" viewBox="0 0 14 14" fill="none" xmlns="http://www.w3.org/2000/svg">
<path d="M6.99991 0.5C6.64708 0.5 6.29391 0.625826 6.02118 0.877596L5.55444 1.30825L4.91186 1.22187C4.16052 1.12016 3.45977 1.60682 3.32804 2.32011L3.21556 2.93093L2.64151 3.22091C1.97159 3.56019 1.70475 4.34585 2.03772 4.9966L2.32216 5.55436L2.03772 6.11211C1.70475 6.76286 1.97222 7.54853 2.6428 7.8878L3.21556 8.17779L3.32804 8.7886C3.45911 9.5019 4.15986 9.98793 4.91186 9.88684L5.55573 9.80046L6.02247 10.2311C6.56793 10.7347 7.43318 10.7347 7.97865 10.2311L8.44539 9.80046L9.08926 9.88684C9.84059 9.98856 10.5413 9.50253 10.6731 8.7886L10.7856 8.17779L11.3596 7.8878C12.0302 7.54853 12.297 6.76286 11.9634 6.11211L11.6777 5.55436L11.9621 4.9966C12.2957 4.34585 12.0282 3.56019 11.3583 3.22091L10.7843 2.93093L10.6718 2.32011C10.5407 1.60682 9.83996 1.12079 9.08796 1.22187L8.44539 1.30825L7.97865 0.877596C7.70591 0.625826 7.35274 0.5 6.99991 0.5ZM2.35448 8.72444L0.0970565 10.879C-0.0770418 11.0451 -0.00666608 11.3276 0.226348 11.4022L1.70415 11.8723L2.19674 13.2827C2.27486 13.5058 2.57084 13.5723 2.74494 13.4061L5.40446 10.8678L5.24155 10.7198L4.4296 10.8284C4.22373 10.8562 4.02239 10.8466 3.82711 10.8062C3.1466 10.6665 2.64692 10.107 2.52644 9.45248L2.39715 8.74665L2.35448 8.72444ZM11.6453 8.72444L11.6027 8.74665L11.4617 9.51665C11.3201 10.2862 10.6237 10.8444 9.80553 10.8444C9.72742 10.8444 9.64966 10.8391 9.57022 10.8284L8.75827 10.7198L8.59536 10.8691L11.2549 13.4074C11.429 13.5735 11.725 13.5064 11.8031 13.284L12.2957 11.8723L13.7735 11.4022C14.0071 11.3276 14.0769 11.0451 13.9028 10.879L11.6453 8.72444Z" fill="white"/>
</svg>
