<svg width="16" height="16" viewBox="0 0 16 16" fill="none" xmlns="http://www.w3.org/2000/svg">
<path fill-rule="evenodd" clip-rule="evenodd" d="M2.82621 0.0943826C2.72545 0.146153 2.59322 0.256966 2.53236 0.340628C2.42214 0.492168 2.42166 0.516411 2.40692 6.85906C2.39041 13.9349 2.37251 13.5606 2.73886 13.7889C2.90432 13.8921 2.99948 13.8988 4.28633 13.8988H4.69213C5.22318 13.8988 5.65164 13.4645 5.64442 12.9335L5.63869 12.5116L5.62205 11.2876C5.62058 11.1796 5.60075 11.0726 5.5634 10.9713L5.4511 10.6665C5.06669 9.6233 5.32309 8.51286 6.13524 7.7036C6.69837 7.14248 7.30023 6.89682 8.11174 6.89682C8.92699 6.89682 9.52527 7.14054 10.0922 7.7036C10.4891 8.09783 10.7879 8.63547 10.8926 9.14396C10.991 9.62126 10.9313 10.2961 10.7508 10.7473C10.6009 11.1221 10.5998 11.133 10.5829 12.5116L10.5777 12.9348C10.5712 13.4653 10.9995 13.8988 11.53 13.8988H11.9352C13.4866 13.8988 13.5326 13.8884 13.7227 13.4924C13.8257 13.278 13.8285 13.1447 13.8285 8.4175V4.50481C13.8285 3.98289 13.4084 3.55819 12.8865 3.55249L12.2657 3.5457C10.5618 3.52701 10.5471 3.52453 10.2383 3.19667C9.94991 2.89057 9.92827 2.75961 9.92827 1.32157V0.952411C9.92827 0.426414 9.50186 1.32859e-05 8.97586 2.96745e-05L6.46884 0.000107786C3.28088 0.000161658 2.99504 0.00754203 2.82621 0.0943826ZM10.633 1.52838C10.6484 2.50728 10.6574 2.591 10.759 2.6933C10.8634 2.79845 10.9209 2.80282 12.0256 2.78892L13.1827 2.77437L11.9467 1.64308C11.2668 1.02086 10.6894 0.503212 10.6635 0.492761C10.6369 0.481987 10.6236 0.933698 10.633 1.52838ZM7.61732 7.65091C6.56779 7.91833 5.84481 9.00292 6.01711 10.0516C6.09458 10.5227 6.25813 10.8476 6.60145 11.2123C7.78556 12.4701 9.86255 11.8222 10.197 10.0907C10.4318 8.8753 9.48493 7.68038 8.23916 7.62015C8.00745 7.60895 7.72765 7.62279 7.61732 7.65091ZM6.40206 14.0322C6.40206 15.2902 6.42081 15.9945 6.45372 15.9739C6.4822 15.9562 6.80073 15.6855 7.16164 15.3724C7.96951 14.6715 8.02641 14.6325 8.17815 14.6747C8.24445 14.6932 8.63533 14.9989 9.04672 15.3541C9.34144 15.6086 9.79902 15.4012 9.80183 15.0118L9.80875 14.0522C9.81645 12.9809 9.81484 12.0965 9.80523 12.0868C9.79556 12.077 9.63143 12.1527 9.44048 12.255C9.04517 12.4666 8.53216 12.604 8.13236 12.6051C7.5921 12.6066 7.32155 12.5224 6.44213 12.0784C6.42012 12.0673 6.40206 12.9465 6.40206 14.0322Z" fill="currentcolor"/>
</svg>
