<svg width="22" height="21" viewBox="0 0 22 21" fill="none" xmlns="http://www.w3.org/2000/svg">
<mask id="path-1-inside-1_603_26550" fill="white">
<path fill-rule="evenodd" clip-rule="evenodd" d="M4.05953 0.123877C3.92728 0.191826 3.75373 0.337268 3.67385 0.447075C3.52919 0.645971 3.52856 0.677789 3.5092 9.00252C3.48754 18.2896 3.46405 17.7983 3.94488 18.0979C4.16205 18.2333 4.28694 18.2422 5.97594 18.2422H6.76197C7.31957 18.2422 7.76946 17.7861 7.76188 17.2286L7.75091 16.4215L7.72848 14.7722C7.72694 14.6588 7.70612 14.5464 7.6669 14.44L7.5047 13.9998C7.00016 12.6306 7.33669 11.1731 8.40263 10.111C9.14174 9.3745 9.93168 9.05208 10.9968 9.05208C12.0668 9.05208 12.852 9.37195 13.5961 10.111C14.1171 10.6284 14.5092 11.3341 14.6467 12.0014C14.7758 12.6279 14.6974 13.5136 14.4605 14.1059C14.2638 14.5978 14.2624 14.6121 14.2402 16.4215L14.2303 17.2299C14.2235 17.787 14.6732 18.2422 15.2302 18.2422H16.015C18.0513 18.2422 18.1117 18.2285 18.3612 17.7088C18.4964 17.4274 18.5 17.2524 18.5 11.048V5.66528C18.5 5.11726 18.0589 4.67133 17.5109 4.66534L16.4489 4.65374C14.2124 4.6292 14.1932 4.62595 13.7879 4.19563C13.4094 3.79388 13.381 3.62199 13.381 1.73456V1.00003C13.381 0.447735 12.9332 1.39502e-05 12.381 3.11582e-05L8.84049 0.000141469C4.65629 0.000212176 4.28112 0.00989891 4.05953 0.123877ZM14.3059 2.006C14.3261 3.2908 14.338 3.40068 14.4713 3.53495C14.6084 3.67297 14.6838 3.6787 16.1337 3.66046L17.6525 3.64137L16.0301 2.15654C15.1378 1.33988 14.38 0.660466 14.346 0.646749C14.3111 0.632608 14.2936 1.22548 14.3059 2.006ZM10.3479 10.0418C8.97035 10.3928 8.02144 11.8163 8.24759 13.1927C8.34927 13.811 8.56392 14.2375 9.01453 14.7161C10.5687 16.367 13.2947 15.5167 13.7337 13.2441C14.0419 11.6488 12.7991 10.0805 11.164 10.0015C10.8599 9.98674 10.4927 10.0049 10.3479 10.0418ZM8.75283 18.4172C8.75283 20.0684 8.77744 20.9927 8.82064 20.9658C8.85802 20.9425 9.27609 20.5872 9.74978 20.1763C10.8101 19.2563 10.8848 19.2051 11.0839 19.2606C11.171 19.2848 11.684 19.6861 12.2239 20.1523C12.6108 20.4863 13.2113 20.214 13.215 19.703L13.2241 18.4436C13.2342 17.0375 13.2321 15.8766 13.2195 15.8639C13.2068 15.8511 12.9914 15.9505 12.7408 16.0847C12.2219 16.3625 11.5486 16.5427 11.0239 16.5442C10.3148 16.5462 9.95966 16.4356 8.80542 15.8529C8.77653 15.8383 8.75283 16.9922 8.75283 18.4172Z"/>
</mask>
<path fill-rule="evenodd" clip-rule="evenodd" d="M4.05953 0.123877C3.92728 0.191826 3.75373 0.337268 3.67385 0.447075C3.52919 0.645971 3.52856 0.677789 3.5092 9.00252C3.48754 18.2896 3.46405 17.7983 3.94488 18.0979C4.16205 18.2333 4.28694 18.2422 5.97594 18.2422H6.76197C7.31957 18.2422 7.76946 17.7861 7.76188 17.2286L7.75091 16.4215L7.72848 14.7722C7.72694 14.6588 7.70612 14.5464 7.6669 14.44L7.5047 13.9998C7.00016 12.6306 7.33669 11.1731 8.40263 10.111C9.14174 9.3745 9.93168 9.05208 10.9968 9.05208C12.0668 9.05208 12.852 9.37195 13.5961 10.111C14.1171 10.6284 14.5092 11.3341 14.6467 12.0014C14.7758 12.6279 14.6974 13.5136 14.4605 14.1059C14.2638 14.5978 14.2624 14.6121 14.2402 16.4215L14.2303 17.2299C14.2235 17.787 14.6732 18.2422 15.2302 18.2422H16.015C18.0513 18.2422 18.1117 18.2285 18.3612 17.7088C18.4964 17.4274 18.5 17.2524 18.5 11.048V5.66528C18.5 5.11726 18.0589 4.67133 17.5109 4.66534L16.4489 4.65374C14.2124 4.6292 14.1932 4.62595 13.7879 4.19563C13.4094 3.79388 13.381 3.62199 13.381 1.73456V1.00003C13.381 0.447735 12.9332 1.39502e-05 12.381 3.11582e-05L8.84049 0.000141469C4.65629 0.000212176 4.28112 0.00989891 4.05953 0.123877ZM14.3059 2.006C14.3261 3.2908 14.338 3.40068 14.4713 3.53495C14.6084 3.67297 14.6838 3.6787 16.1337 3.66046L17.6525 3.64137L16.0301 2.15654C15.1378 1.33988 14.38 0.660466 14.346 0.646749C14.3111 0.632608 14.2936 1.22548 14.3059 2.006ZM10.3479 10.0418C8.97035 10.3928 8.02144 11.8163 8.24759 13.1927C8.34927 13.811 8.56392 14.2375 9.01453 14.7161C10.5687 16.367 13.2947 15.5167 13.7337 13.2441C14.0419 11.6488 12.7991 10.0805 11.164 10.0015C10.8599 9.98674 10.4927 10.0049 10.3479 10.0418ZM8.75283 18.4172C8.75283 20.0684 8.77744 20.9927 8.82064 20.9658C8.85802 20.9425 9.27609 20.5872 9.74978 20.1763C10.8101 19.2563 10.8848 19.2051 11.0839 19.2606C11.171 19.2848 11.684 19.6861 12.2239 20.1523C12.6108 20.4863 13.2113 20.214 13.215 19.703L13.2241 18.4436C13.2342 17.0375 13.2321 15.8766 13.2195 15.8639C13.2068 15.8511 12.9914 15.9505 12.7408 16.0847C12.2219 16.3625 11.5486 16.5427 11.0239 16.5442C10.3148 16.5462 9.95966 16.4356 8.80542 15.8529C8.77653 15.8383 8.75283 16.9922 8.75283 18.4172Z" fill="currentColor"/>
<path d="M4.05953 0.123877L4.97352 1.90282L4.97434 1.9024L4.05953 0.123877ZM3.67385 0.447075L2.05646 -0.729378L2.05643 -0.729337L3.67385 0.447075ZM3.5092 9.00252L5.5092 9.00718V9.00716L3.5092 9.00252ZM3.94488 18.0979L5.00302 16.4008L5.00267 16.4006L3.94488 18.0979ZM7.75091 16.4215L5.75109 16.4487V16.4487L7.75091 16.4215ZM7.5047 13.9998L9.38136 13.3083L9.38135 13.3083L7.5047 13.9998ZM8.40263 10.111L9.81432 11.5277L9.81433 11.5277L8.40263 10.111ZM13.5961 10.111L15.0055 8.69198L15.0055 8.69195L13.5961 10.111ZM14.6467 12.0014L12.6879 12.4051L12.6879 12.4051L14.6467 12.0014ZM14.4605 14.1059L16.3175 14.8487L16.3175 14.8486L14.4605 14.1059ZM14.2402 16.4215L16.2401 16.446V16.446L14.2402 16.4215ZM18.3612 17.7088L16.5583 16.843L16.5582 16.8432L18.3612 17.7088ZM16.4489 4.65374L16.4269 6.65361L16.427 6.65362L16.4489 4.65374ZM13.7879 4.19563L15.2438 2.82435L15.2436 2.82412L13.7879 4.19563ZM8.84049 0.000141469L8.84052 2.00014H8.84055L8.84049 0.000141469ZM14.3059 2.006L16.3057 1.97457V1.97456L14.3059 2.006ZM14.4713 3.53495L13.052 4.94405L13.0523 4.94439L14.4713 3.53495ZM16.1337 3.66046L16.1085 1.66061L16.1085 1.66061L16.1337 3.66046ZM17.6525 3.64137L17.6776 5.64121L22.7305 5.5777L19.0028 2.16599L17.6525 3.64137ZM16.0301 2.15654L17.3804 0.681164L17.3804 0.681153L16.0301 2.15654ZM14.346 0.646749L13.594 2.5L13.5979 2.50157L14.346 0.646749ZM10.3479 10.0418L10.8417 11.9799L10.8418 11.9799L10.3479 10.0418ZM8.24759 13.1927L6.27405 13.517L6.2741 13.5172L8.24759 13.1927ZM9.01453 14.7161L7.55827 16.087L7.55831 16.0871L9.01453 14.7161ZM13.7337 13.2441L11.77 12.8647L11.77 12.8648L13.7337 13.2441ZM11.164 10.0015L11.0674 11.9991L11.0674 11.9991L11.164 10.0015ZM8.82064 20.9658L7.76383 19.2678L7.7623 19.2687L8.82064 20.9658ZM9.74978 20.1763L11.0604 21.687L11.0604 21.6869L9.74978 20.1763ZM11.0839 19.2606L11.6209 17.334L11.6203 17.3338L11.0839 19.2606ZM13.2241 18.4436L15.2241 18.458L15.2241 18.4579L13.2241 18.4436ZM13.2195 15.8639L11.7994 17.2723L13.2195 15.8639ZM12.7408 16.0847L13.6848 17.8478L13.6849 17.8478L12.7408 16.0847ZM11.0239 16.5442L11.0182 14.5442L11.0181 14.5442L11.0239 16.5442ZM8.80542 15.8529L7.90159 17.6371L7.90411 17.6383L8.80542 15.8529ZM12.381 3.11582e-05L12.381 2.00003L12.381 3.11582e-05ZM17.5109 4.66534L17.4891 6.66522L17.5109 4.66534ZM7.72848 14.7722L9.7283 14.745L7.72848 14.7722ZM7.6669 14.44L9.54356 13.7485L7.6669 14.44ZM14.2303 17.2299L12.2305 17.2054L14.2303 17.2299ZM7.76188 17.2286L9.76169 17.2014L7.76188 17.2286ZM3.14555 -1.65507C2.76181 -1.45791 2.33743 -1.11565 2.05646 -0.729378L5.29125 1.62353C5.23769 1.69716 5.19405 1.74294 5.17685 1.76047C5.15618 1.78154 5.14103 1.79483 5.13164 1.8027C5.12201 1.81077 5.10894 1.82109 5.09011 1.83407C5.07378 1.84533 5.03465 1.87141 4.97352 1.90282L3.14555 -1.65507ZM2.05643 -0.729337C2.01847 -0.677144 1.8717 -0.479908 1.75919 -0.187183C1.66366 0.0613392 1.62583 0.288958 1.60615 0.442044C1.56939 0.727967 1.55494 1.11789 1.54491 1.63912C1.52383 2.73448 1.51886 4.84822 1.50921 8.99787L5.5092 9.00716C5.51891 4.83209 5.52393 2.76755 5.54417 1.7161C5.54917 1.45614 5.55488 1.27204 5.56107 1.14062C5.56414 1.07558 5.56708 1.02864 5.56962 0.995558C5.5722 0.96181 5.57384 0.949469 5.57349 0.952171C5.57324 0.954139 5.56947 0.983713 5.55897 1.03098C5.54807 1.08 5.52821 1.15601 5.49289 1.24789C5.45531 1.34566 5.40995 1.43624 5.36099 1.51741C5.31926 1.5866 5.28072 1.638 5.29128 1.62349L2.05643 -0.729337ZM1.50921 8.99785C1.49848 13.5955 1.48621 15.8747 1.54089 17.0162C1.56356 17.4893 1.60037 18.142 1.85455 18.6935C2.24153 19.5331 3.11467 19.9371 2.88709 19.7953L5.00267 16.4006C4.53468 16.1089 5.23044 16.462 5.48726 17.0192C5.61129 17.2883 5.56517 17.4272 5.53631 16.8248C5.48795 15.8152 5.49826 13.6966 5.5092 9.00718L1.50921 8.99785ZM2.88674 19.7951C3.02709 19.8826 3.24981 20.0089 3.56021 20.0987C3.82602 20.1757 4.07547 20.2022 4.26683 20.2158C4.62553 20.2413 5.16894 20.2422 5.97594 20.2422V16.2422C5.55232 16.2422 5.23911 16.2416 4.99989 16.2388C4.75444 16.236 4.62281 16.231 4.55013 16.2259C4.47199 16.2203 4.54393 16.2193 4.67247 16.2565C4.84559 16.3066 4.97126 16.381 5.00302 16.4008L2.88674 19.7951ZM5.97594 20.2422H6.76197V16.2422H5.97594V20.2422ZM9.76169 17.2014L9.75072 16.3943L5.75109 16.4487L5.76206 17.2558L9.76169 17.2014ZM9.75072 16.3943L9.7283 14.745L5.72867 14.7994L5.75109 16.4487L9.75072 16.3943ZM9.54356 13.7485L9.38136 13.3083L5.62804 14.6913L5.79025 15.1315L9.54356 13.7485ZM9.38135 13.3083C9.15771 12.7014 9.27964 12.0605 9.81432 11.5277L6.99095 8.69424C5.39374 10.2858 4.84262 12.5598 5.62805 14.6913L9.38135 13.3083ZM9.81433 11.5277C10.1699 11.1734 10.4485 11.0521 10.9968 11.0521V7.05208C9.41487 7.05208 8.11359 7.57558 6.99094 8.69425L9.81433 11.5277ZM10.9968 11.0521C11.5508 11.0521 11.8258 11.1715 12.1867 11.53L15.0055 8.69195C13.8783 7.5724 12.5828 7.05208 10.9968 7.05208V11.0521ZM12.1867 11.53C12.4513 11.7928 12.6359 12.1528 12.6879 12.4051L16.6056 11.5978C16.3825 10.5153 15.7828 9.46404 15.0055 8.69198L12.1867 11.53ZM12.6879 12.4051C12.7381 12.6487 12.6945 13.1358 12.6036 13.3631L16.3175 14.8486C16.7003 13.8915 16.8135 12.6071 16.6056 11.5978L12.6879 12.4051ZM12.6036 13.3631C12.4798 13.6725 12.3484 14.0069 12.2939 14.5801C12.2562 14.9767 12.2508 15.5443 12.2404 16.397L16.2401 16.446C16.2518 15.4892 16.2582 15.145 16.2759 14.9591C16.2809 14.9061 16.282 14.9256 16.2697 14.9688C16.2648 14.986 16.2614 14.9889 16.3175 14.8487L12.6036 13.3631ZM12.2404 16.397L12.2305 17.2054L16.2302 17.2544L16.2401 16.446L12.2404 16.397ZM15.2302 20.2422H16.015V16.2422H15.2302V20.2422ZM16.015 20.2422C16.5152 20.2422 16.9351 20.2415 17.2692 20.2309C17.5809 20.221 17.951 20.2003 18.3016 20.1206C18.7107 20.0276 19.1924 19.8333 19.6072 19.4081C19.944 19.063 20.1208 18.6647 20.1642 18.5744L16.5582 16.8432C16.5274 16.9075 16.5311 16.8963 16.5489 16.8661C16.5718 16.8272 16.6341 16.7275 16.7443 16.6146C16.8623 16.4936 16.9985 16.3949 17.1401 16.3229C17.2712 16.2563 17.3742 16.2294 17.4148 16.2201C17.453 16.2115 17.4566 16.2139 17.4021 16.219C17.3497 16.2238 17.2678 16.2289 17.1421 16.2329C16.8843 16.2411 16.533 16.2422 16.015 16.2422V20.2422ZM20.1641 18.5745C20.4512 17.9768 20.4648 17.4121 20.4809 16.6412C20.4992 15.7599 20.5 14.1361 20.5 11.048H16.5C16.5 14.1643 16.499 15.7302 16.4817 16.5579C16.4728 16.9868 16.4604 17.1337 16.4557 17.1708C16.4552 17.1746 16.4622 17.1161 16.4889 17.0263C16.5025 16.9805 16.5179 16.9379 16.5333 16.9001C16.5475 16.8652 16.5589 16.8418 16.5583 16.843L20.1641 18.5745ZM20.5 11.048V5.66528H16.5V11.048H20.5ZM17.5328 2.66546L16.4707 2.65385L16.427 6.65362L17.4891 6.66522L17.5328 2.66546ZM16.4708 2.65386C15.9035 2.64763 15.5078 2.64299 15.2115 2.63337C15.066 2.62865 14.9607 2.62318 14.883 2.61725C14.845 2.61436 14.8174 2.61164 14.7981 2.6094C14.7787 2.60716 14.7705 2.60574 14.771 2.60584C14.7873 2.60865 14.9561 2.64173 15.1535 2.77061C15.2939 2.86223 15.377 2.9658 15.2438 2.82435L12.332 5.56691C12.4015 5.64062 12.639 5.90596 12.9668 6.11999C13.3517 6.37127 13.7411 6.48738 14.0924 6.54786C14.6298 6.64037 15.4148 6.64251 16.4269 6.65361L16.4708 2.65386ZM15.2436 2.82412C15.1794 2.75598 15.2493 2.81934 15.319 2.94666C15.3982 3.09138 15.4166 3.20154 15.4157 3.19598C15.4108 3.16609 15.3983 3.06213 15.3904 2.79929C15.3829 2.54525 15.381 2.20864 15.381 1.73456H11.381C11.381 2.60387 11.3815 3.31764 11.4693 3.84847C11.5228 4.17203 11.6193 4.51845 11.8103 4.86738C11.9918 5.1989 12.2072 5.43441 12.3322 5.56714L15.2436 2.82412ZM15.381 1.73456V1.00003H11.381V1.73456H15.381ZM12.3809 -1.99997L8.84042 -1.99986L8.84055 2.00014L12.381 2.00003L12.3809 -1.99997ZM8.84045 -1.99986C6.76185 -1.99982 5.58938 -1.99756 4.9123 -1.98004C4.3913 -1.96656 3.74048 -1.96108 3.14473 -1.65464L4.97434 1.9024C4.60018 2.09485 4.24773 2.0385 5.01577 2.01862C5.62771 2.00279 6.73492 2.00018 8.84052 2.00014L8.84045 -1.99986ZM12.3062 2.03744C12.3155 2.63293 12.3232 3.097 12.3578 3.41693C12.3762 3.58754 12.4157 3.87161 12.5412 4.17804C12.694 4.55123 12.9067 4.79771 13.052 4.94405L15.8906 2.12585C15.9154 2.15086 15.9815 2.21915 16.054 2.32069C16.1312 2.42871 16.1946 2.54429 16.2428 2.66212C16.2882 2.77285 16.3109 2.86314 16.322 2.91534C16.3327 2.96571 16.3354 2.99426 16.3346 2.98693C16.3321 2.96431 16.3263 2.88927 16.3205 2.70557C16.3151 2.53013 16.3107 2.29701 16.3057 1.97457L12.3062 2.03744ZM13.0523 4.94439C13.1666 5.05943 13.4239 5.30449 13.8403 5.47155C14.177 5.60664 14.4891 5.63775 14.6596 5.65062C14.9886 5.67547 15.4862 5.66876 16.1588 5.6603L16.1085 1.66061C15.7436 1.66521 15.4804 1.66807 15.2827 1.66795C15.0756 1.66783 14.9896 1.66416 14.9608 1.66198C14.9505 1.6612 14.982 1.66297 15.0382 1.67333C15.0966 1.68411 15.2013 1.70768 15.3296 1.75916C15.4678 1.81458 15.5969 1.88769 15.7122 1.97298C15.8154 2.04931 15.8825 2.11773 15.8902 2.12551L13.0523 4.94439ZM16.1588 5.6603L17.6776 5.64121L17.6274 1.64152L16.1085 1.66061L16.1588 5.6603ZM19.0028 2.16599L17.3804 0.681164L14.6798 3.63191L16.3022 5.11674L19.0028 2.16599ZM17.3804 0.681153C16.9307 0.269562 16.5129 -0.109247 16.2012 -0.388646C16.0462 -0.527595 15.9129 -0.646055 15.8134 -0.732931C15.765 -0.775191 15.7162 -0.817302 15.6737 -0.85283C15.6541 -0.869173 15.6227 -0.895211 15.5872 -0.922761C15.5708 -0.935493 15.5372 -0.961323 15.4945 -0.991077C15.4733 -1.00582 15.436 -1.03129 15.3882 -1.0604C15.3561 -1.07992 15.246 -1.14676 15.094 -1.20807L13.5979 2.50157C13.4469 2.44069 13.3383 2.3746 13.308 2.35616C13.2619 2.32812 13.2267 2.30405 13.208 2.29101C13.1702 2.26469 13.1429 2.24355 13.1341 2.23675C13.1139 2.22105 13.1031 2.21182 13.1093 2.21696C13.1182 2.2244 13.1412 2.244 13.1825 2.28013C13.2626 2.35002 13.3809 2.45503 13.5311 2.58973C13.83 2.85763 14.2372 3.22686 14.6798 3.63192L17.3804 0.681153ZM15.0979 -1.2065C14.3985 -1.49028 13.6914 -1.33467 13.2036 -0.996729C12.8263 -0.735296 12.6432 -0.415994 12.582 -0.30319C12.4453 -0.051496 12.3956 0.173456 12.3852 0.218426C12.3505 0.368151 12.3374 0.500734 12.3325 0.551373C12.3197 0.684623 12.3131 0.834827 12.3091 0.969492C12.3008 1.25355 12.2997 1.62901 12.3062 2.03744L16.3057 1.97456C16.2998 1.60247 16.3014 1.29123 16.3074 1.08726C16.3106 0.97791 16.3142 0.933765 16.314 0.935438C16.3137 0.938852 16.3122 0.954256 16.3088 0.978045C16.3061 0.997303 16.2985 1.0498 16.2823 1.11974C16.2757 1.14832 16.2298 1.36122 16.0973 1.60541C16.0381 1.71446 15.857 2.03114 15.4818 2.29111C15.2734 2.43553 14.9823 2.57753 14.6173 2.62782C14.2432 2.67934 13.8911 2.62056 13.594 2.5L15.0979 -1.2065ZM9.85404 8.10375C7.50185 8.70308 5.87461 11.0859 6.27405 13.517L10.2211 12.8684C10.1683 12.5468 10.4389 12.0825 10.8417 11.9799L9.85404 8.10375ZM6.2741 13.5172C6.44357 14.5478 6.84912 15.3337 7.55827 16.087L10.4708 13.3453C10.3421 13.2086 10.302 13.138 10.2866 13.1075C10.2728 13.0801 10.2462 13.0206 10.2211 12.8682L6.2741 13.5172ZM7.55831 16.0871C10.3108 19.0108 14.9716 17.3809 15.6974 13.6234L11.77 12.8648C11.6967 13.2444 11.4579 13.4607 11.1968 13.5421C10.9415 13.6218 10.6847 13.5725 10.4708 13.3452L7.55831 16.0871ZM15.6974 13.6235C16.2399 10.8155 14.0944 8.14079 11.2606 8.00379L11.0674 11.9991C11.2586 12.0084 11.4596 12.1064 11.6101 12.2964C11.7606 12.4863 11.803 12.6941 11.77 12.8647L15.6974 13.6235ZM11.2606 8.00379C11.0379 7.99302 10.8046 7.99447 10.5974 8.00473C10.4372 8.01265 10.1358 8.03194 9.85388 8.10379L10.8418 11.9799C10.7863 11.994 10.7473 12.0006 10.7344 12.0027C10.7188 12.0053 10.712 12.0059 10.7162 12.0055C10.7253 12.0044 10.7518 12.002 10.795 11.9998C10.8836 11.9955 10.986 11.9952 11.0674 11.9991L11.2606 8.00379ZM6.75283 18.4172C6.75283 19.2485 6.75898 19.9132 6.77124 20.374C6.77721 20.5983 6.78534 20.8041 6.79774 20.9649C6.80286 21.0313 6.81359 21.1602 6.83885 21.2964C6.84536 21.3315 6.88144 21.5408 6.98785 21.7781C7.02406 21.8588 7.19131 22.2389 7.59801 22.5514C7.83647 22.7346 8.20684 22.9312 8.69059 22.9622C9.18271 22.9938 9.59285 22.8413 9.87898 22.6628L7.7623 19.2687C8.04708 19.0911 8.45588 18.939 8.94666 18.9704C9.42908 19.0014 9.79814 19.1974 10.0353 19.3797C10.4393 19.6902 10.604 20.0663 10.6377 20.1414C10.739 20.3673 10.7701 20.5579 10.7718 20.5671C10.7874 20.6514 10.7892 20.6996 10.7859 20.6573C10.7815 20.6008 10.7754 20.4773 10.7698 20.2676C10.759 19.8601 10.7528 19.2371 10.7528 18.4172H6.75283ZM9.87745 22.6638C9.9681 22.6073 10.0388 22.5525 10.0432 22.5492C10.0663 22.5315 10.0869 22.5153 10.1011 22.5039C10.1304 22.4804 10.162 22.4545 10.1917 22.4299C10.2524 22.3795 10.3299 22.3142 10.4167 22.2405C10.5914 22.092 10.8197 21.8958 11.0604 21.687L8.43916 18.6656C8.20616 18.8677 7.98854 19.0547 7.82651 19.1923C7.74487 19.2617 7.6812 19.3153 7.63826 19.3509C7.61605 19.3693 7.60516 19.3781 7.60266 19.3801C7.60092 19.3815 7.60817 19.3757 7.6209 19.366C7.62727 19.3612 7.64037 19.3513 7.65785 19.3387C7.67029 19.3297 7.70996 19.3013 7.76383 19.2678L9.87745 22.6638ZM11.0604 21.6869C11.3274 21.4553 11.5179 21.291 11.6614 21.1708C11.7322 21.1116 11.7841 21.0694 11.8223 21.0393C11.8616 21.0083 11.8755 20.9989 11.8715 21.0016C11.8693 21.0032 11.8262 21.0331 11.7524 21.0702C11.6755 21.1088 11.5453 21.1656 11.3714 21.2039C11.1859 21.2449 11.0024 21.2536 10.8317 21.238C10.6789 21.2241 10.5683 21.1931 10.5476 21.1873L11.6203 17.3338C11.4448 17.285 11.0297 17.1831 10.5097 17.2978C10.0788 17.3929 9.76277 17.5975 9.60809 17.7036C9.31349 17.9058 8.92064 18.2478 8.4391 18.6656L11.0604 21.6869ZM10.547 21.1871C10.4457 21.1589 10.3669 21.128 10.3197 21.1082C10.2694 21.0872 10.2294 21.0678 10.2025 21.0542C10.1503 21.0277 10.1133 21.0057 10.0984 20.9966C10.0681 20.9783 10.0568 20.9696 10.0732 20.9811C10.1024 21.0016 10.1615 21.0453 10.2519 21.116C10.4284 21.2541 10.6664 21.4498 10.9168 21.6661L13.531 18.6385C13.2415 18.3886 12.9531 18.1505 12.7163 17.9654C12.6001 17.8744 12.4809 17.7842 12.3726 17.708C12.3201 17.6712 12.2502 17.6236 12.1732 17.5768C12.1607 17.5692 11.9288 17.4198 11.6209 17.334L10.547 21.1871ZM15.215 19.7174L15.2241 18.458L11.2242 18.4291L11.2151 19.6885L15.215 19.7174ZM15.2241 18.4579C15.2291 17.7508 15.2312 17.1028 15.2303 16.6276C15.2299 16.3912 15.2287 16.1917 15.2268 16.0473C15.2258 15.9771 15.2245 15.9083 15.2225 15.851C15.2216 15.8259 15.2199 15.7811 15.2163 15.7319C15.2148 15.7124 15.2105 15.6554 15.2005 15.5851C15.1961 15.5548 15.1841 15.4738 15.1585 15.3729C15.146 15.3238 15.1197 15.2272 15.0723 15.1105C15.0427 15.0379 14.9226 14.7409 14.6395 14.4556L11.7994 17.2723C11.6414 17.1129 11.5428 16.9596 11.4883 16.8654C11.4304 16.7653 11.3916 16.678 11.3673 16.6183C11.32 16.5021 11.2939 16.4061 11.2817 16.3578C11.2564 16.2584 11.2448 16.1794 11.2408 16.1517C11.2315 16.0867 11.2279 16.0371 11.2272 16.0271C11.225 15.9971 11.2246 15.9799 11.2249 15.9905C11.2254 16.0046 11.2263 16.0395 11.2271 16.102C11.2288 16.2227 11.2299 16.4037 11.2303 16.6348C11.2312 17.0948 11.2292 17.7303 11.2242 18.4292L15.2241 18.4579ZM14.6395 14.4556C14.2799 14.093 13.8817 13.9641 13.671 13.9151C13.449 13.8634 13.2657 13.861 13.1657 13.8634C12.9668 13.8683 12.813 13.9022 12.7556 13.9155C12.6225 13.9462 12.5176 13.9847 12.4787 13.9991C12.3817 14.0351 12.2919 14.0753 12.2319 14.1029C12.0996 14.1639 11.9464 14.2413 11.7966 14.3215L13.6849 17.8478C13.7857 17.7938 13.8656 17.7544 13.9068 17.7354C13.9336 17.723 13.9157 17.7324 13.8704 17.7492C13.8575 17.754 13.7734 17.7857 13.6555 17.8129C13.6057 17.8244 13.4581 17.8574 13.2639 17.8622C13.1662 17.8646 12.9848 17.8623 12.7644 17.811C12.5553 17.7623 12.1582 17.6341 11.7994 17.2723L14.6395 14.4556ZM11.7967 14.3215C11.5309 14.4638 11.1772 14.5437 11.0182 14.5442L11.0295 18.5442C11.9199 18.5416 12.9129 18.2611 13.6848 17.8478L11.7967 14.3215ZM11.0181 14.5442C10.7998 14.5448 10.7484 14.5308 10.6765 14.5084C10.5309 14.463 10.287 14.3605 9.70674 14.0676L7.90411 17.6383C8.47806 17.9281 8.98884 18.1722 9.48665 18.3273C10.0581 18.5054 10.5388 18.5456 11.0296 18.5442L11.0181 14.5442ZM9.70926 14.0688C9.3957 13.91 8.99748 13.8137 8.55893 13.868C8.13564 13.9204 7.81266 14.0958 7.59984 14.2563C7.22544 14.5386 7.05649 14.8747 7.01123 14.9658C6.89599 15.1981 6.85394 15.4014 6.84687 15.4336C6.81946 15.558 6.80865 15.6641 6.80552 15.6943C6.79629 15.7834 6.79094 15.8772 6.78741 15.9493C6.77973 16.1062 6.7736 16.316 6.76871 16.5542C6.75882 17.0366 6.75283 17.6956 6.75283 18.4172H10.7528C10.7528 17.7139 10.7587 17.0835 10.7679 16.6363C10.7725 16.4097 10.7777 16.2446 10.7826 16.1448C10.7854 16.0885 10.7866 16.0834 10.7842 16.1066C10.7833 16.1151 10.7813 16.1335 10.7778 16.1585C10.7749 16.1794 10.7675 16.2292 10.7533 16.2938C10.748 16.3179 10.7077 16.5155 10.5942 16.7441C10.5499 16.8335 10.3818 17.1683 10.0083 17.4499C9.79594 17.6101 9.4734 17.7853 9.05056 17.8377C8.61246 17.8919 8.2147 17.7957 7.90159 17.6371L9.70926 14.0688ZM15.381 1.00003C15.381 -0.656858 14.0378 -2.00002 12.3809 -1.99997L12.381 2.00003C11.8287 2.00005 11.381 1.55233 11.381 1.00003H15.381ZM10.9168 21.6661C12.5944 23.1146 15.199 21.9338 15.215 19.7174L11.2151 19.6885C11.2237 18.4943 12.6271 17.858 13.531 18.6385L10.9168 21.6661ZM20.5 5.66528C20.5 4.02121 19.1767 2.68343 17.5328 2.66546L17.4891 6.66522C16.9411 6.65923 16.5 6.2133 16.5 5.66528H20.5ZM9.7283 14.745C9.72367 14.4048 9.6612 14.0678 9.54356 13.7485L5.79025 15.1315C5.75103 15.0251 5.73021 14.9128 5.72867 14.7994L9.7283 14.745ZM12.2305 17.2054C12.21 18.8765 13.559 20.2422 15.2302 20.2422V16.2422C15.7873 16.2422 16.237 16.6974 16.2302 17.2544L12.2305 17.2054ZM6.76197 20.2422C8.43478 20.2422 9.78444 18.874 9.76169 17.2014L5.76206 17.2558C5.75448 16.6982 6.20437 16.2422 6.76197 16.2422V20.2422Z" fill="currentColor" mask="url(#path-1-inside-1_603_26550)"/>
</svg>
