<svg width="14" height="14" viewBox="0 0 14 14" fill="none" xmlns="http://www.w3.org/2000/svg">
<path fill-rule="evenodd" clip-rule="evenodd" d="M7 14C10.866 14 14 10.866 14 7C14 3.13401 10.866 0 7 0C3.13401 0 0 3.13401 0 7C0 10.866 3.13401 14 7 14ZM3.86192 9.13769C3.99192 9.26785 4.16275 9.33302 4.33325 9.33302C4.50375 9.33302 4.67458 9.26785 4.80458 9.13769C5.06492 8.87752 5.06492 8.45535 4.80458 8.19502L3.60942 6.99969L4.80458 5.80435C5.06492 5.54419 5.06492 5.12202 4.80458 4.86169C4.54458 4.60135 4.12208 4.60135 3.86192 4.86169L2.19525 6.52835C1.93492 6.78852 1.93492 7.21069 2.19525 7.47102L3.86192 9.13769ZM5.76592 10.2905C5.84308 10.3195 5.92208 10.3332 5.99975 10.3332C6.26975 10.3332 6.52392 10.1682 6.62408 9.90035L8.62408 4.56702C8.75342 4.22235 8.57858 3.83802 8.23392 3.70885C7.88842 3.57902 7.50475 3.75435 7.37575 4.09902L5.37575 9.43235C5.24642 9.77702 5.42125 10.1614 5.76592 10.2905ZM9.19525 9.13769C9.32525 9.26785 9.49608 9.33302 9.66658 9.33302C9.83708 9.33302 10.0079 9.26785 10.1379 9.13769L11.8046 7.47102C12.0649 7.21085 12.0649 6.78869 11.8046 6.52835L10.1379 4.86169C9.87792 4.60135 9.45542 4.60135 9.19525 4.86169C8.93492 5.12185 8.93492 5.54402 9.19525 5.80435L10.3904 6.99969L9.19525 8.19502C8.93492 8.45519 8.93492 8.87735 9.19525 9.13769Z" fill="currentColor"/>
</svg>
