<svg width="297" height="133" viewBox="0 0 297 133" fill="none" xmlns="http://www.w3.org/2000/svg">
<path fill-rule="evenodd" clip-rule="evenodd" d="M66.2033 0.554688C75.542 0.554688 83.9363 4.02482 89.7316 9.54472C96.8106 3.96058 106.232 0.554688 116.574 0.554688C138.565 0.554688 156.392 15.9536 156.392 34.9491C156.392 35.866 156.35 36.7745 156.268 37.6733C169.935 43.1218 179.419 55.0635 179.419 68.9186C179.419 87.9141 161.592 103.313 139.601 103.313C127.55 103.313 116.749 98.6883 109.447 91.3812C102.48 99.4267 89.8016 103.313 75.3167 103.313C56.8139 103.313 41.2588 96.9718 36.7899 83.7201C36.0463 83.7607 35.2963 83.7812 34.5406 83.7812C15.4644 83.7812 0 70.6637 0 54.4823C0 38.3009 15.4644 25.1833 34.5406 25.1833L34.6783 25.1835C36.1743 11.369 49.7174 0.554688 66.2033 0.554688Z" fill="url(#paint0_linear_3389_9525)"/>
<path fill-rule="evenodd" clip-rule="evenodd" d="M199.156 82.8086C199.156 108.3 178.491 128.965 153 128.965C127.509 128.965 106.844 108.3 106.844 82.8086C106.844 57.3173 127.509 36.6525 153 36.6525C178.491 36.6525 199.156 57.3173 199.156 82.8086ZM203 82.8086C203 110.423 180.614 132.809 153 132.809C125.386 132.809 103 110.423 103 82.8086C103 55.1944 125.386 32.8086 153 32.8086C180.614 32.8086 203 55.1944 203 82.8086ZM146.412 91.1637L169.816 67.7592L173.088 71.0316L148.048 96.0722L146.412 97.6373L144.775 96.0722L133.393 84.6901L136.666 81.4178L146.412 91.1637Z" fill="#2091F6"/>
<path fill-rule="evenodd" clip-rule="evenodd" d="M199.156 82.8086C199.156 108.3 178.491 128.965 153 128.965C127.509 128.965 106.844 108.3 106.844 82.8086C106.844 57.3173 127.509 36.6525 153 36.6525C178.491 36.6525 199.156 57.3173 199.156 82.8086ZM203 82.8086C203 110.423 180.614 132.809 153 132.809C125.386 132.809 103 110.423 103 82.8086C103 55.1944 125.386 32.8086 153 32.8086C180.614 32.8086 203 55.1944 203 82.8086ZM146.412 91.1637L169.816 67.7592L173.088 71.0316L148.048 96.0722L146.412 97.6373L144.775 96.0722L133.393 84.6901L136.666 81.4178L146.412 91.1637Z" fill="url(#paint1_linear_3389_9525)"/>
<path fill-rule="evenodd" clip-rule="evenodd" d="M211.018 45.9121C218.073 45.9121 224.414 48.5334 228.791 52.703C234.139 48.4849 241.255 45.9121 249.068 45.9121C265.679 45.9121 279.146 57.5444 279.146 71.8935C279.146 72.5861 279.115 73.2724 279.053 73.9514C289.377 78.067 296.541 87.0879 296.541 97.5542C296.541 111.903 283.075 123.536 266.463 123.536C257.359 123.536 249.2 120.042 243.685 114.522C238.422 120.6 228.844 123.536 217.902 123.536C203.925 123.536 192.174 118.745 188.799 108.734C188.237 108.765 187.671 108.78 187.1 108.78C172.69 108.78 161.008 98.8714 161.008 86.6481C161.008 74.4248 172.69 64.5158 187.1 64.5158L187.205 64.5159C188.335 54.0809 198.565 45.9121 211.018 45.9121Z" fill="url(#paint2_linear_3389_9525)"/>
<defs>
<linearGradient id="paint0_linear_3389_9525" x1="53.0481" y1="37.2117" x2="53.0481" y2="79.2058" gradientUnits="userSpaceOnUse">
<stop stop-color="currentColor"/>
<stop offset="1" stop-color="currentColor" stop-opacity="0"/>
</linearGradient>
<linearGradient id="paint1_linear_3389_9525" x1="103" y1="132.809" x2="188.224" y2="21.4957" gradientUnits="userSpaceOnUse">
<stop stop-color="#2091F6"/>
<stop offset="1" stop-color="#21B568"/>
</linearGradient>
<linearGradient id="paint2_linear_3389_9525" x1="201.08" y1="73.6028" x2="201.08" y2="105.325" gradientUnits="userSpaceOnUse">
<stop stop-color="currentColor"/>
<stop offset="1" stop-color="currentColor" stop-opacity="0"/>
</linearGradient>
</defs>
</svg>
