<svg width="80" height="80" viewBox="0 0 80 80" fill="none" xmlns="http://www.w3.org/2000/svg">
    <path fill-rule="evenodd" clip-rule="evenodd"
        d="M76.8781 40C76.8781 60.3672 60.3672 76.8781 40 76.8781C19.6328 76.8781 3.12195 60.3672 3.12195 40C3.12195 19.6328 19.6328 3.12195 40 3.12195C60.3672 3.12195 76.8781 19.6328 76.8781 40ZM80 40C80 62.0914 62.0914 80 40 80C17.9086 80 0 62.0914 0 40C0 17.9086 17.9086 0 40 0C62.0914 0 80 17.9086 80 40ZM34.3414 46.2927L53.065 27.5692L55.6829 30.187L35.6504 50.2196L34.3414 51.4716L33.0325 50.2196L23.9268 41.1139L26.5447 38.496L34.3414 46.2927Z"
        fill="#00CC74" />
    <path fill-rule="evenodd" clip-rule="evenodd"
        d="M76.8781 40C76.8781 60.3672 60.3672 76.8781 40 76.8781C19.6328 76.8781 3.12195 60.3672 3.12195 40C3.12195 19.6328 19.6328 3.12195 40 3.12195C60.3672 3.12195 76.8781 19.6328 76.8781 40ZM80 40C80 62.0914 62.0914 80 40 80C17.9086 80 0 62.0914 0 40C0 17.9086 17.9086 0 40 0C62.0914 0 80 17.9086 80 40ZM34.3414 46.2927L53.065 27.5692L55.6829 30.187L35.6504 50.2196L34.3414 51.4716L33.0325 50.2196L23.9268 41.1139L26.5447 38.496L34.3414 46.2927Z"
        fill="url(#paint0_linear_555_31417)" />
    <defs>
        <linearGradient id="paint0_linear_555_31417" x1="-4.51691e-07" y1="-0.909083" x2="84.2557"
            y2="3.857" gradientUnits="userSpaceOnUse">
            <stop stop-color="#2091F6" />
            <stop offset="1" stop-color="#21B568" />
        </linearGradient>
    </defs>
</svg>
    