<svg width="64" height="65" viewBox="0 0 64 65" fill="none" xmlns="http://www.w3.org/2000/svg">
<g clip-path="url(#clip0_8_13739)">
<path d="M31.4343 64.4803C48.656 64.4803 62.8738 49.9908 62.8738 32.4902C62.8738 14.964 48.6308 0.5 31.4093 0.5C14.2181 0.5 0 14.964 0 32.4902C0 49.9908 14.243 64.4803 31.4343 64.4803ZM31.4343 58.1787C17.4267 58.1787 6.21705 46.7453 6.21705 32.4902C6.21705 18.2349 17.4018 6.80163 31.4093 6.80163C45.4168 6.80163 56.682 18.2349 56.682 32.4902C56.682 46.7453 45.4417 58.1787 31.4343 58.1787Z" fill="url(#paint0_linear_8_13739)"/>
<path d="M28.1416 47.2118C29.2335 47.2118 30.1841 46.6607 30.8311 45.6392L44.4424 24.002C44.8266 23.3325 45.1946 22.6121 45.1946 21.9141C45.1946 20.3644 43.846 19.3325 42.4144 19.3325C41.5222 19.3325 40.6958 19.8726 40.0517 20.8933L28.0363 40.5379L22.381 33.198C21.6342 32.2184 20.9154 31.9147 19.9976 31.9147C18.5302 31.9147 17.3477 33.127 17.3477 34.6457C17.3477 35.3938 17.6325 36.0664 18.1352 36.7384L25.3304 45.6614C26.1459 46.7168 27.0388 47.2118 28.1416 47.2118Z" fill="url(#paint1_linear_8_13739)"/>
</g>
<defs>
<linearGradient id="paint0_linear_8_13739" x1="-3.54995e-07" y1="-0.227043" x2="66.2258" y2="3.45435" gradientUnits="userSpaceOnUse">
<stop stop-color="#2091F6"/>
<stop offset="1" stop-color="#21B568"/>
</linearGradient>
<linearGradient id="paint1_linear_8_13739" x1="17.3477" y1="19.0157" x2="46.6762" y2="20.6728" gradientUnits="userSpaceOnUse">
<stop stop-color="#2091F6"/>
<stop offset="1" stop-color="#21B568"/>
</linearGradient>
<clipPath id="clip0_8_13739">
<rect width="64" height="64" fill="white" transform="translate(0 0.5)"/>
</clipPath>
</defs>
</svg>
