<svg xmlns="http://www.w3.org/2000/svg" width="12" height="12" viewBox="0 0 12 12" fill="none">
    <g clip-path="url(#clip0_2240_1156)">
        <path fill-rule="evenodd" clip-rule="evenodd"
            d="M4.81588 2.97736C4.81588 4.23516 3.76681 5.27887 2.50901 5.27887C1.25121 5.27887 0.202148 4.23516 0.202148 2.97736C0.202148 1.71422 1.24586 0.665161 2.50901 0.665161C3.76681 0.665161 4.81588 1.71422 4.81588 2.97736ZM1.96843 4.06389C2.04871 4.15488 2.12364 4.21375 2.23605 4.21375C2.3538 4.21375 2.45013 4.16023 2.50901 4.06389L3.62765 2.30833C3.67582 2.22804 3.69724 2.16381 3.69724 2.08888C3.69724 1.95507 3.56877 1.83732 3.41891 1.83732C3.32257 1.83732 3.24228 1.89085 3.17806 1.98718L2.22533 3.51795L1.80785 2.98807C1.73827 2.89708 1.66334 2.85427 1.56165 2.85427C1.41713 2.85427 1.29938 2.97736 1.29938 3.13259C1.29938 3.21822 1.31544 3.28245 1.36896 3.34133L1.96843 4.06389ZM6.41623 3.38414H11.79C12.0148 3.38414 12.2021 3.20752 12.2021 2.97736C12.2021 2.75256 12.0148 2.57594 11.79 2.57594H6.41623C6.19143 2.57594 6.00945 2.75256 6.00945 2.97736C6.00945 3.20752 6.19143 3.38414 6.41623 3.38414ZM4.81588 9.17C4.81588 10.4278 3.76681 11.4769 2.50901 11.4769C1.25121 11.4769 0.202148 10.4278 0.202148 9.17C0.202148 7.90686 1.24586 6.8578 2.50901 6.8578C3.76681 6.8578 4.81588 7.90151 4.81588 9.17ZM0.983592 9.17C0.983592 9.99423 1.6794 10.6955 2.50901 10.6955C3.33327 10.6955 4.03443 9.99423 4.03443 9.17C4.03443 8.34039 3.33327 7.63924 2.50901 7.63924C1.68475 7.63924 0.983592 8.34039 0.983592 9.17ZM11.79 9.57144H6.41623C6.19143 9.57144 6.00945 9.3948 6.00945 9.17001C6.00945 8.93989 6.19143 8.76326 6.41623 8.76326H11.79C12.0148 8.76326 12.2021 8.93989 12.2021 9.17001C12.2021 9.3948 12.0148 9.57144 11.79 9.57144Z"
            fill="currentColor" />
    </g>
    <defs>
        <clipPath id="clip0_2240_1156">
            <rect width="12" height="12" fill="white" />
        </clipPath>
    </defs>
</svg>