<svg width="16" height="16" viewBox="0 0 16 16" fill="none" xmlns="http://www.w3.org/2000/svg">
    <path fill-rule="evenodd" clip-rule="evenodd"
          d="M8 16C12.4183 16 16 12.4183 16 8C16 3.58172 12.4183 0 8 0C3.58172 0 0 3.58172 0 8C0 12.4183 3.58172 16 8 16ZM11.8096 6.10207C12.0554 5.85821 12.0644 5.45341 11.8298 5.19794C11.5951 4.94247 11.2056 4.93305 10.9598 5.17691L6.8718 9.23186L5.0403 7.41513C4.79445 7.17126 4.40492 7.18068 4.17024 7.43615C3.93558 7.69163 3.94463 8.09642 4.19047 8.34029L6.8718 11L11.8096 6.10207Z"
          fill="currentColor"/>
</svg>
