<svg width="24" height="20" viewBox="0 0 24 20" fill="none" xmlns="http://www.w3.org/2000/svg">
<path fill-rule="evenodd" clip-rule="evenodd" d="M12.611 4.28572C12.611 6.65266 10.6922 8.57144 8.32524 8.57144C5.9583 8.57144 4.03952 6.65266 4.03952 4.28572C4.03952 1.91878 5.9583 0 8.32524 0C10.6922 0 12.611 1.91878 12.611 4.28572ZM16.4892 15.7754C14.6777 18.3316 11.696 20 8.32457 20C4.97831 20 2.01593 18.3564 0.200684 15.8325C1.34342 12.4419 4.54913 10.0002 8.32511 10.0002C10.0747 10.0002 11.7019 10.5244 13.0582 11.4243C14.0273 9.53764 15.9928 8.24687 18.2598 8.24687C20.8345 8.24687 23.0203 9.91176 23.7993 12.2237C22.5616 13.9444 20.5419 15.065 18.2604 15.065C17.7717 15.065 17.2949 15.0136 16.8353 14.9159C16.7835 15.1338 16.6741 15.4139 16.4892 15.7754ZM21.1823 4.35071C21.1823 5.96453 19.874 7.27279 18.2602 7.27279C16.6464 7.27279 15.3381 5.96453 15.3381 4.35071C15.3381 2.73688 16.6464 1.42862 18.2602 1.42862C19.874 1.42862 21.1823 2.73688 21.1823 4.35071Z" fill="currentColor"/>
</svg>
