<svg width="16" height="17" viewBox="0 0 16 17" fill="none" xmlns="http://www.w3.org/2000/svg">
    <path fill-rule="evenodd" clip-rule="evenodd"
          d="M7.9998 15.7008C11.9763 15.7008 15.1998 12.4772 15.1998 8.50078C15.1998 4.52433 11.9763 1.30078 7.9998 1.30078C4.02335 1.30078 0.799805 4.52433 0.799805 8.50078C0.799805 12.4772 4.02335 15.7008 7.9998 15.7008ZM7.0998 4.90078C7.0998 4.40372 7.50275 4.00078 7.9998 4.00078C8.49686 4.00078 8.8998 4.40372 8.8998 4.90078V8.50078C8.8998 8.99784 8.49686 9.40078 7.9998 9.40078C7.50275 9.40078 7.0998 8.99784 7.0998 8.50078V4.90078ZM7.0998 11.2289C7.0998 10.7163 7.51533 10.3008 8.02789 10.3008C8.54046 10.3008 8.95599 10.7163 8.95599 11.2289V11.2989C8.95599 11.8115 8.54046 12.227 8.02789 12.227C7.51533 12.227 7.0998 11.8114 7.0998 11.2989V11.2289Z"
          fill="currentColor"/>
</svg>
