<svg width="20" height="20" viewBox="0 0 20 20" fill="none" xmlns="http://www.w3.org/2000/svg">
    <path fill-rule="evenodd" clip-rule="evenodd" d="M14.788 5h-.007a.436.436 0 0 0-.436.434v4.615a.435.435 0 0 0 .872 0V5.434a.436.436 0 0 0-.43-.434ZM12.39 6.638c.24 0 .435.194.435.434v2.11a.436.436 0 0 1-.871 0v-2.11c0-.24.196-.434.436-.434Zm-2.388 1.198a.434.434 0 0 1 .432.434v.912a.436.436 0 0 1-.871 0V8.27c0-.24.196-.434.436-.434h.003ZM5.22 5c.24 0 .436.194.436.434v4.615a.435.435 0 0 1-.871 0V5.434c0-.24.195-.434.435-.434ZM3.262 7.072a.435.435 0 0 0-.87 0v2.11a.435.435 0 0 0 .87 0v-2.11ZM.872 8.27a.435.435 0 0 0-.871 0v.912a.436.436 0 0 0 .87 0V8.27Zm8.988 3.782a3.724 3.724 0 0 0-.855-.111c-.808 0-1.295.436-1.295 1.086 0 .575.407.863.896 1.017l.11.035.077.025c.218.068.391.17.391.346 0 .197-.2.325-.636.325-.348 0-.682-.09-.8-.122l-.029-.008v.8c.043.01.48.095.947.095.672 0 1.439-.292 1.439-1.165 0-.424-.26-.814-.829-.995l-.242-.077-.013-.004c-.146-.045-.389-.121-.389-.327 0-.167.191-.284.543-.284.303 0 .672.101.686.106v-.742H9.86Zm7.41 1.69a.9.9 0 0 1-.907.914.898.898 0 0 1-.906-.915c0-.504.386-.913.906-.913s.907.409.907.913Zm-.907-1.8c-1.069 0-1.835.807-1.835 1.799 0 .994.766 1.8 1.835 1.8 1.07 0 1.837-.806 1.837-1.8 0-.992-.768-1.799-1.837-1.799Zm-9.83 3.537h-.876v-3.475h.877v3.475Zm-2.082-3.412-.016-.005c-.1-.03-.394-.12-.784-.12-1.067 0-1.85.761-1.85 1.799 0 1.12.865 1.8 1.85 1.8.368 0 .655-.083.779-.118l.021-.006v-.933l-.002.001c-.045.025-.33.183-.734.183-.584 0-.961-.41-.961-.927 0-.533.393-.927.96-.927.397 0 .67.149.73.181l.007.004v-.932Zm9.137-.005.016.005v.932l-.008-.004a1.525 1.525 0 0 0-.728-.181c-.568 0-.961.394-.961.927 0 .516.377.927.96.927.406 0 .69-.158.735-.183h.002v.932l-.021.006a2.75 2.75 0 0 1-.779.117c-.985 0-1.85-.68-1.85-1.8 0-1.037.783-1.798 1.85-1.798.39 0 .683.09.784.12ZM7.61 6.638a.435.435 0 0 0-.435.434v2.11a.436.436 0 0 0 .871 0v-2.11a.436.436 0 0 0-.436-.434Zm9.127.434a.435.435 0 0 1 .872 0v2.11a.435.435 0 0 1-.872 0v-2.11ZM19.13 8.27a.435.435 0 0 1 .871 0v.912a.436.436 0 0 1-.871 0V8.27Z" fill="currentColor"/>
</svg>
