<svg width="14" height="14" viewBox="0 0 14 14" fill="none" xmlns="http://www.w3.org/2000/svg">
<path d="M2.72852 11.2754C2.79883 11.3457 2.88281 11.3926 2.98047 11.416C3.07812 11.4434 3.17383 11.4434 3.26758 11.416C3.36523 11.3926 3.45117 11.3457 3.52539 11.2754L6.99414 7.80078L10.4746 11.2754C10.5801 11.3809 10.7109 11.4336 10.8672 11.4336C11.0234 11.4375 11.1562 11.3848 11.2656 11.2754C11.375 11.166 11.4297 11.0332 11.4297 10.877C11.4297 10.7168 11.377 10.584 11.2715 10.4785L7.79102 7.00391L11.2715 3.53516C11.377 3.42969 11.4297 3.29687 11.4297 3.13672C11.4297 2.97656 11.375 2.84375 11.2656 2.73828C11.1562 2.63281 11.0234 2.58008 10.8672 2.58008C10.7109 2.58008 10.5801 2.63281 10.4746 2.73828L6.99414 6.21289L3.52539 2.73828C3.45117 2.66797 3.36523 2.62109 3.26758 2.59766C3.17383 2.57031 3.07812 2.56836 2.98047 2.5918C2.88281 2.61523 2.79883 2.66406 2.72852 2.73828C2.6582 2.8125 2.61133 2.89844 2.58789 2.99609C2.56445 3.08984 2.56445 3.18555 2.58789 3.2832C2.61133 3.38086 2.6582 3.46484 2.72852 3.53516L6.19727 7.00391L2.72852 10.4785C2.6582 10.5488 2.60938 10.6328 2.58203 10.7305C2.55859 10.8281 2.55859 10.9258 2.58203 11.0234C2.60547 11.1211 2.6543 11.2051 2.72852 11.2754Z" fill="currentColor"/>
</svg>
