<svg width="8" height="8" viewBox="0 0 8 8" fill="none" xmlns="http://www.w3.org/2000/svg"><path d="M2.169 4.555h1.827a.344.344 0 0 0 .254-.1.34.34 0 0 0 .104-.25V1.807c0-.1-.035-.183-.104-.25a.344.344 0 0 0-.254-.1.347.347 0 0 0-.25.1.339.339 0 0 0-.1.25V3.85H2.169a.337.337 0 0 0-.254.105.339.339 0 0 0-.1.25.344.344 0 0 0 .354.35ZM4 8c.55 0 1.066-.105 1.55-.314A4.026 4.026 0 0 0 7.685 5.55C7.896 5.066 8 4.55 8 4c0-.547-.105-1.062-.314-1.545a4.083 4.083 0 0 0-2.14-2.14c-.484-.21-1-.315-1.55-.315-.545 0-1.058.105-1.541.314A4.082 4.082 0 0 0 .31 2.454C.103 2.939 0 3.454 0 4c0 .55.105 1.066.314 1.55a4.083 4.083 0 0 0 2.14 2.136C2.939 7.896 3.454 8 4 8Zm0-.95a3.027 3.027 0 0 1-2.157-.89 3.083 3.083 0 0 1-.656-.969A3.043 3.043 0 0 1 .954 4a3.003 3.003 0 0 1 .89-2.157 3.027 3.027 0 0 1 2.152-.89c.427 0 .824.08 1.191.238a3.015 3.015 0 0 1 1.626 1.626c.158.367.237.762.237 1.183a3.027 3.027 0 0 1-1.863 2.813A2.969 2.969 0 0 1 4 7.05Z" fill="currentColor"/></svg>
