<svg width="14" height="14" viewBox="0 0 14 14" fill="none" xmlns="http://www.w3.org/2000/svg">
<path d="M2.21682 11.7846C2.12123 11.6933 2.05605 11.5802 2.02129 11.4455C1.99088 11.315 1.99305 11.1868 2.02781 11.0607C2.06257 10.9302 2.12557 10.8194 2.21682 10.728L5.9384 6.99752L2.21682 3.27351C2.12557 3.1822 2.06257 3.0735 2.02781 2.94741C1.99739 2.81698 1.99739 2.68654 2.02781 2.5561C2.06257 2.42566 2.12557 2.31262 2.21682 2.21696C2.31241 2.11696 2.42539 2.05174 2.55574 2.0213C2.68609 1.99087 2.81427 1.99304 2.94028 2.02783C3.07063 2.05826 3.18361 2.11913 3.2792 2.21044L7.00078 5.94097L10.7289 2.21044C10.8679 2.07131 11.0417 2.00174 11.2503 2.00174C11.4588 2.00174 11.637 2.07348 11.7847 2.21696C11.9325 2.36044 12.0042 2.53871 11.9998 2.75176C11.9998 2.96046 11.9303 3.13438 11.7912 3.27351L8.06315 6.99752L11.7912 10.728C11.9303 10.8672 11.9998 11.0411 11.9998 11.2498C11.9998 11.4585 11.9281 11.6368 11.7847 11.7846C11.637 11.9324 11.4588 12.0042 11.2503 11.9998C11.0417 11.9998 10.8679 11.9302 10.7289 11.7911L7.00078 8.06059L3.2792 11.7911C3.18361 11.8824 3.07063 11.9433 2.94028 11.9737C2.81427 12.0085 2.68609 12.0085 2.55574 11.9737C2.42539 11.9433 2.31241 11.8802 2.21682 11.7846Z" fill="currentColor"/>
</svg>
