<?xml version="1.0" encoding="UTF-8"?>
<svg width="26" height="26" viewBox="0 0 26 26" fill="none" xmlns="http://www.w3.org/2000/svg">
  <path fill-rule="evenodd" clip-rule="evenodd" d="M18.1647 16.2277C18.7033 16.7663 18.707 17.6299 18.1684 18.1703C17.6354 18.7033 16.7681 18.707 16.2277 18.1666L12.9981 14.9389L9.77043 18.1666C9.23 18.7033 8.36829 18.707 7.82971 18.1703C7.29486 17.6336 7.293 16.77 7.83343 16.2277L11.0611 13L7.83343 9.77229C7.29857 9.23557 7.293 8.372 7.82971 7.83157C8.36457 7.29486 9.22814 7.293 9.77043 7.83157L12.9981 11.0593L16.2277 7.83157C16.7644 7.29671 17.6317 7.293 18.1684 7.83157C18.7033 8.36643 18.707 9.22814 18.1647 9.77229L14.9389 13L18.1647 16.2277ZM13 0C5.82214 0 0 5.82214 0 13C0 20.1779 5.82214 26 13 26C20.1797 26 26 20.1779 26 13C26 5.82214 20.1797 0 13 0Z" fill="currentColor"/>
</svg>
