<svg width="16" height="16" viewBox="0 0 16 16" fill="none" xmlns="http://www.w3.org/2000/svg">
<path d="M8.00412 16C6.90616 16 5.87408 15.7886 4.90787 15.3659C3.94716 14.9487 3.09899 14.3723 2.36336 13.6366C1.62772 12.901 1.04855 12.0528 0.625836 11.0921C0.208612 10.1259 0 9.09384 0 7.99588C0 6.90341 0.208612 5.87408 0.625836 4.90787C1.04306 3.94167 1.61949 3.09075 2.35512 2.35512C3.09624 1.61949 3.94716 1.04306 4.90787 0.625836C5.87408 0.208612 6.90341 0 7.99588 0C9.08835 0 10.1177 0.208612 11.0839 0.625836C12.0501 1.04306 12.901 1.61949 13.6366 2.35512C14.3723 3.09075 14.9487 3.94167 15.3659 4.90787C15.7886 5.87408 16 6.90341 16 7.99588C16 9.09384 15.7914 10.1259 15.3742 11.0921C14.9569 12.0528 14.3805 12.901 13.6449 13.6366C12.9092 14.3723 12.0583 14.9487 11.0921 15.3659C10.1259 15.7886 9.09659 16 8.00412 16ZM5.41843 11.2898C5.62155 11.2898 5.78899 11.2211 5.92074 11.0839L8.00412 8.99228L10.0957 11.0839C10.222 11.2211 10.3867 11.2898 10.5898 11.2898C10.7874 11.2898 10.9521 11.2211 11.0839 11.0839C11.2211 10.9412 11.2898 10.7737 11.2898 10.5816C11.2898 10.3839 11.2211 10.222 11.0839 10.0957L8.98405 8.00412L11.0921 5.90427C11.2294 5.77252 11.298 5.61057 11.298 5.41843C11.298 5.22628 11.2294 5.06433 11.0921 4.93258C10.9604 4.79533 10.7984 4.72671 10.6063 4.72671C10.4196 4.72671 10.2577 4.79533 10.1204 4.93258L8.00412 7.04066L5.90427 4.94081C5.76154 4.80357 5.59959 4.73495 5.41843 4.73495C5.22628 4.73495 5.06159 4.80357 4.92434 4.94081C4.79259 5.07257 4.72671 5.23452 4.72671 5.42666C4.72671 5.6188 4.79533 5.78075 4.93258 5.91251L7.03242 8.00412L4.93258 10.104C4.79533 10.2412 4.72671 10.4004 4.72671 10.5816C4.72671 10.7737 4.79259 10.9412 4.92434 11.0839C5.06159 11.2211 5.22628 11.2898 5.41843 11.2898Z" fill="currentColor"/>
</svg>
