<svg width="18" height="14" viewBox="0 0 18 14" fill="none" xmlns="http://www.w3.org/2000/svg">
<g clip-path="url(#clip0_773_15800)">
<path fill-rule="evenodd" clip-rule="evenodd" d="M15.6031 14.0004H2.39695C0.801528 14.0004 0 13.2181 0 11.6456V2.37049C0 0.798047 0.801528 0.015625 2.39695 0.015625H15.6031C17.2061 0.015625 18 0.805646 18 2.37049V11.6456C18 13.2104 17.2061 14.0004 15.6031 14.0004ZM1.22901 11.5849C1.22901 12.3749 1.64886 12.7775 2.41222 12.7775H11V1.23864H2.41222C1.64886 1.23864 1.22901 1.64124 1.22901 2.43126V11.5849ZM15.214 4.86959C15.4202 4.86959 15.5652 4.73285 15.5652 4.52775V3.10724C15.5652 2.89454 15.4277 2.75781 15.214 2.75781H13.7713C13.5728 2.75781 13.4277 2.89454 13.4277 3.10724V4.52775C13.4277 4.73285 13.5804 4.86959 13.7713 4.86959H15.214ZM15.214 8.06003C15.4202 8.06003 15.5652 7.90811 15.5652 7.71822V6.28251C15.5652 6.08501 15.4277 5.93307 15.214 5.93307H13.7713C13.5728 5.93307 13.4277 6.08501 13.4277 6.28251V7.71822C13.4277 7.90811 13.5804 8.06003 13.7713 8.06003H15.214ZM15.5652 10.8935C15.5652 11.0986 15.4202 11.2353 15.214 11.2353H13.7713C13.5804 11.2353 13.4277 11.0986 13.4277 10.8935V9.47294C13.4277 9.26789 13.5728 9.12352 13.7713 9.12352H15.214C15.4277 9.12352 15.5652 9.26789 15.5652 9.47294V10.8935Z" fill="currentColor"/>
</g>
<defs>
<clipPath id="clip0_773_15800">
<rect width="18" height="14" fill="white"/>
</clipPath>
</defs>
</svg>
