<svg width="26" height="27" viewBox="0 0 26 27" fill="none" xmlns="http://www.w3.org/2000/svg">
<path fill-rule="evenodd" clip-rule="evenodd" d="M18.1647 16.7277C18.7033 17.2663 18.707 18.1299 18.1684 18.6703C17.6354 19.2033 16.7681 19.207 16.2277 18.6666L12.9981 15.4389L9.77043 18.6666C9.23 19.2033 8.36829 19.207 7.82971 18.6703C7.29486 18.1336 7.293 17.27 7.83343 16.7277L11.0611 13.5L7.83343 10.2723C7.29857 9.73557 7.293 8.872 7.82971 8.33157C8.36457 7.79486 9.22814 7.793 9.77043 8.33157L12.9981 11.5593L16.2277 8.33157C16.7644 7.79671 17.6317 7.793 18.1684 8.33157C18.7033 8.86643 18.707 9.72814 18.1647 10.2723L14.9389 13.5L18.1647 16.7277ZM13 0.5C5.82214 0.5 0 6.32214 0 13.5C0 20.6779 5.82214 26.5 13 26.5C20.1797 26.5 26 20.6779 26 13.5C26 6.32214 20.1797 0.5 13 0.5Z" fill="#8D91A5"/>
</svg>
