<svg width="11" height="11" viewBox="0 0 11 11" fill="none" xmlns="http://www.w3.org/2000/svg">
<path d="M0.391998 1.18594C0.738107 0.83983 1.30429 0.834799 1.6504 1.18091L9.8728 9.40331C10.2189 9.74942 10.2139 10.3156 9.86777 10.6617C9.52166 11.0078 8.95548 11.0129 8.60937 10.6667L0.386967 2.44434C0.040857 2.09824 0.0458884 1.53205 0.391998 1.18594Z" fill="currentColor"/>
<path d="M8.60936 1.18091C8.95547 0.834799 9.52166 0.83983 9.86777 1.18594C10.2139 1.53205 10.2189 2.09824 9.8728 2.44434L1.6504 10.6667C1.30429 11.0129 0.738104 11.0078 0.391994 10.6617C0.045885 10.3156 0.0408534 9.74942 0.386963 9.40331L8.60936 1.18091Z" fill="currentColor"/>
</svg>
