<svg width="181" height="117" viewBox="0 0 181 117" fill="none" xmlns="http://www.w3.org/2000/svg">
    <path fill-rule="evenodd" clip-rule="evenodd" d="M66.9328 0.029541C76.2714 0.029541 84.6658 3.95004 90.461 10.1863C97.5401 3.87746 106.961 0.029541 117.303 0.029541C139.294 0.029541 157.121 17.4269 157.121 38.8877C157.121 39.9236 157.079 40.95 156.998 41.9655C170.664 48.1211 180.148 61.6126 180.148 77.2659C180.148 98.7267 162.321 116.124 140.331 116.124C128.279 116.124 117.478 110.899 110.177 102.644C103.209 111.733 90.5311 116.124 76.0462 116.124C57.5434 116.124 41.9883 108.96 37.5194 93.9883C36.7758 94.0341 36.0258 94.0574 35.2701 94.0574C16.1938 94.0574 0.729492 79.2373 0.729492 60.9559C0.729492 42.6745 16.1938 27.8545 35.2701 27.8545L35.4078 27.8548C36.9038 12.2474 50.4469 0.029541 66.9328 0.029541Z" fill="url(#paint0_linear_192_10826)"/>
    <defs>
        <linearGradient id="paint0_linear_192_10826" x1="56.6768" y1="-0.331466" x2="56.6768" y2="116.163" gradientUnits="userSpaceOnUse">
            <stop offset="0.432741" stop-color="var(--stop-color, white)"/>
            <stop offset="1" stop-color="var(--stop-color, white)" stop-opacity="0"/>
        </linearGradient>
    </defs>
</svg>
