<svg width="20" height="21" viewBox="0 0 20 21" fill="none" xmlns="http://www.w3.org/2000/svg">
    <path d="M10 1.62189C9.07958 1.62189 8.33333 2.36814 8.33333 3.28855C8.33333 4.20897 9.07958 4.95522 10 4.95522C10.9204 4.95522 11.6667 4.20897 11.6667 3.28855C11.6667 2.36814 10.9204 1.62189 10 1.62189ZM8.33333 5.78855C7.65017 5.78855 7.08333 6.35539 7.08333 7.03855C7.08333 8.18261 8.09069 9.53855 10 9.53855C11.9093 9.53855 12.9167 8.18261 12.9167 7.03855C12.9167 6.35539 12.3498 5.78855 11.6667 5.78855H8.33333ZM5.97087 6.21336C4.83753 6.99253 3.92109 8.10903 3.39193 9.48403C3.30859 9.69653 3.23714 9.91352 3.17464 10.1302C3.48298 10.0177 3.81667 9.95522 4.16667 9.95522C4.29167 9.95522 4.421 9.96368 4.54183 9.98452C4.546 9.96785 4.55394 9.95561 4.55811 9.93894C4.87061 9.12644 5.34593 8.42635 5.93343 7.85968C5.86676 7.58885 5.83333 7.30939 5.83333 7.03855C5.83333 6.75105 5.88337 6.47169 5.97087 6.21336ZM14.0291 6.21336C14.1166 6.47169 14.1667 6.75105 14.1667 7.03855C14.1667 7.30939 14.1332 7.58885 14.0666 7.85968C14.6874 8.45968 15.1583 9.18868 15.4541 9.98452C15.5791 9.96368 15.7042 9.95522 15.8333 9.95522C16.1792 9.95522 16.5122 10.0135 16.8164 10.1302C16.3789 8.56352 15.4083 7.16336 14.0291 6.21336ZM4.16667 11.2052C3.24625 11.2052 2.5 11.9515 2.5 12.8719C2.5 13.7923 3.24625 14.5386 4.16667 14.5386C5.08708 14.5386 5.83333 13.7923 5.83333 12.8719C5.83333 11.9515 5.08708 11.2052 4.16667 11.2052ZM15.8333 11.2052C14.9129 11.2052 14.1667 11.9515 14.1667 12.8719C14.1667 13.7923 14.9129 14.5386 15.8333 14.5386C16.7537 14.5386 17.5 13.7923 17.5 12.8719C17.5 11.9515 16.7537 11.2052 15.8333 11.2052ZM2.5 15.3719C1.81684 15.3719 1.25 15.9387 1.25 16.6219C1.25 17.7659 2.25736 19.1219 4.16667 19.1219C6.07598 19.1219 7.08333 17.7659 7.08333 16.6219C7.08333 15.9387 6.5165 15.3719 5.83333 15.3719H2.5ZM14.1667 15.3719C13.4835 15.3719 12.9167 15.9387 12.9167 16.6219C12.9167 17.7659 13.924 19.1219 15.8333 19.1219C17.7426 19.1219 18.75 17.7659 18.75 16.6219C18.75 15.9387 18.1832 15.3719 17.5 15.3719H14.1667ZM11.8042 17.5805C10.6667 17.9555 9.4083 17.9804 8.1958 17.5846C8.0833 17.9804 7.89964 18.3673 7.65381 18.7215C9.22464 19.2757 10.8712 19.2383 12.3462 18.7174C12.0962 18.3633 11.9125 17.9764 11.8042 17.5805Z"
          fill="currentColor"/>
</svg>
