<svg width="18" height="18" viewBox="0 0 18 18" fill="none" xmlns="http://www.w3.org/2000/svg">
<path d="M13.0133 2.79291L15.0714 0.734863L17.1484 2.81191L15.0904 4.86995C15.8736 5.69726 15.8599 7.00297 15.0493 7.81355L13.3776 9.4853C13.3241 9.53881 13.2684 9.58884 13.2108 9.63541L14.0869 10.5114L12.7524 11.8459L6.03736 5.1309L7.37185 3.79641L8.24787 4.67243C8.29443 4.61489 8.34447 4.55922 8.39798 4.50571L10.0697 2.83397C10.8803 2.02338 12.186 2.0097 13.0133 2.79291Z" fill="currentColor"/>
<path d="M4.28352 15.6768L2.22548 17.7349L0.148438 15.6578L2.20648 13.5998C1.42327 12.7725 1.43695 11.4668 2.24754 10.6562L3.91928 8.98443C3.97279 8.93092 4.02846 8.88088 4.086 8.83432L3.20998 7.9583L4.54447 6.62381L11.2595 13.3388L9.925 14.6733L9.04897 13.7973C9.00241 13.8548 8.95238 13.9105 8.89887 13.964L7.22712 15.6358C6.41654 16.4463 5.11083 16.46 4.28352 15.6768Z" fill="currentColor"/>
</svg>
