<svg width="10" height="10" viewBox="0 0 10 10" fill="none" xmlns="http://www.w3.org/2000/svg">
<path d="M8.45532 0.955322L7.01164 2.39901L6.64543 2.0328C6.17334 1.56071 5.35035 1.5603 4.87785 2.0328L4.37492 2.53573L4.04452 2.20532L3.45532 2.79452L7.20532 6.54452L7.79452 5.95532L7.46411 5.62492L7.96704 5.12199C8.45454 4.63449 8.45454 3.84191 7.96704 3.35441L7.60083 2.9882L9.04452 1.54452L8.45532 0.955322ZM2.79452 3.45532L2.20532 4.04452L2.53573 4.37492L2.0328 4.87785C1.5453 5.36535 1.5453 6.15793 2.0328 6.64543L2.39901 7.01164L0.955322 8.45532L1.54452 9.04452L2.9882 7.60083L3.35441 7.96704C3.59024 8.20287 3.90403 8.33325 4.2382 8.33325C4.57195 8.33325 4.88616 8.20329 5.12199 7.96704L5.62492 7.46411L5.95532 7.79452L6.54452 7.20532L2.79452 3.45532Z" fill="white"/>
</svg>
