<svg xmlns="http://www.w3.org/2000/svg" width="20" height="20" viewBox="0 0 20 20" fill="none">
    <path
        d="M18.5433 0L14.9738 3.56942L14.0684 2.66398C12.9012 1.49679 10.8664 1.49576 9.69819 2.66398L8.45473 3.90744L7.63783 3.09054L6.18109 4.54728L15.4527 13.8189L16.9095 12.3622L16.0926 11.5453L17.336 10.3018C18.5413 9.0965 18.5413 7.1369 17.336 5.93159L16.4306 5.02616L20 1.45674L18.5433 0ZM4.54728 6.18109L3.09054 7.63783L3.90744 8.45473L2.66398 9.69819C1.45867 10.9035 1.45867 12.8631 2.66398 14.0684L3.56942 14.9738L0 18.5433L1.45674 20L5.02616 16.4306L5.93159 17.336C6.51467 17.9191 7.29049 18.2414 8.1167 18.2414C8.94188 18.2414 9.71873 17.9201 10.3018 17.336L11.5453 16.0926L12.3622 16.9095L13.8189 15.4527L4.54728 6.18109Z"
        fill="currentColor" />
</svg>