<svg width="401" height="80" viewBox="0 0 401 80" fill="none" xmlns="http://www.w3.org/2000/svg">
<circle cx="20" cy="40" r="18" stroke="#00CC74" stroke-width="4"/>
<path fill-rule="evenodd" clip-rule="evenodd" d="M19.9091 38.9999C21.8177 38.9999 23.3636 37.4337 23.3636 35.5C23.3636 33.5662 21.8177 32 19.9091 32C18.0005 32 16.4546 33.5662 16.4546 35.5C16.4546 37.4337 18.0005 38.9999 19.9091 38.9999Z" fill="white"/>
<path fill-rule="evenodd" clip-rule="evenodd" d="M19.909 40.7501C17.6031 40.7501 13 41.9226 13 44.2501V46H26.818V44.2501C26.818 41.9226 22.2149 40.7501 19.909 40.7501Z" fill="white"/>
<rect x="40" y="38" width="80.3333" height="4" fill="#00CC74"/>
<circle cx="140.333" cy="40" r="18" stroke="#00CC74" stroke-width="4"/>
<path fill-rule="evenodd" clip-rule="evenodd" d="M132.333 42.0455V46.1819C132.333 47.0354 133.025 47.7273 133.879 47.7273H146.788C147.641 47.7273 148.333 47.0354 148.333 46.1819V42.0455H146.788V46.1819H133.879L133.879 42.0455H132.333Z" fill="white"/>
<path d="M139.803 42.5303C140.096 42.8232 140.571 42.8232 140.864 42.5303L145.637 37.7574C145.929 37.4645 145.929 36.9896 145.637 36.6967C145.344 36.4038 144.869 36.4038 144.576 36.6967L140.333 40.9393L136.091 36.6967C135.798 36.4038 135.323 36.4038 135.03 36.6967C134.737 36.9896 134.737 37.4645 135.03 37.7574L139.803 42.5303ZM139.583 32L139.583 42L141.083 42L141.083 32L139.583 32Z" fill="#F7F9FA"/>
<rect x="160.333" y="38" width="80.3333" height="4" fill="#00CC74"/>
<circle cx="260.667" cy="40" r="18" stroke="#00CC74" stroke-width="4" transform="rotate(-9, 260.667, 40)" stroke-dasharray="6 8"/>
<path fill-rule="evenodd" clip-rule="evenodd" d="M261.174 37.3333C260.503 35.3917 258.686 34 256.551 34C253.843 34 251.642 36.2417 251.642 39C251.642 41.7583 253.843 44 256.551 44C258.686 44 260.503 42.6083 261.174 40.6667H264.733V44H268.005V40.6667H269.642V37.3333H261.174ZM256.551 40.6666C255.651 40.6666 254.915 39.9166 254.915 38.9999C254.915 38.0832 255.651 37.3332 256.551 37.3332C257.451 37.3332 258.188 38.0832 258.188 38.9999C258.188 39.9166 257.451 40.6666 256.551 40.6666Z" fill="white"/>
<rect x="280.667" y="38" width="80.3333" height="4" fill="#5A5E73"/>
<circle cx="381" cy="40" r="18" stroke="#5A5E73" stroke-width="4"/>
<path fill-rule="evenodd" clip-rule="evenodd" d="M374.05 32C373.47 32 373 32.4701 373 33.05V45.6394C373 46.2193 373.47 46.6894 374.05 46.6894H379.295C379.875 46.6894 380.345 46.2193 380.345 45.6394V41.4447C380.345 40.2849 381.285 39.3447 382.445 39.3447H386.639C387.219 39.3447 387.689 38.8746 387.689 38.2947V33.05C387.689 32.4701 387.219 32 386.639 32H374.05ZM374.662 39.9568C374.082 39.9568 373.612 40.4269 373.612 41.0068V45.0274C373.612 45.6072 374.082 46.0774 374.662 46.0774H378.683C379.263 46.0774 379.733 45.6072 379.733 45.0274V41.0068C379.733 40.4269 379.263 39.9568 378.683 39.9568H374.662ZM380.957 33.662C380.957 33.0821 381.427 32.612 382.007 32.612H386.027C386.607 32.612 387.077 33.0821 387.077 33.662V37.6826C387.077 38.2625 386.607 38.7326 386.027 38.7326H382.007C381.427 38.7326 380.957 38.2625 380.957 37.6826V33.662ZM384.212 44.2164C384.944 44.2164 385.538 43.6227 385.538 42.8903C385.538 42.1579 384.944 41.5642 384.212 41.5642C383.479 41.5642 382.886 42.1579 382.886 42.8903C382.886 43.6227 383.479 44.2164 384.212 44.2164ZM384.212 47.7528C385.254 47.7528 386.177 47.2372 386.737 46.4472C386.795 46.3345 386.829 46.2474 386.845 46.1796C386.987 46.2098 387.135 46.2258 387.286 46.2258C387.992 46.2258 388.617 45.8789 389 45.3463C388.759 44.6311 388.083 44.116 387.286 44.116C386.585 44.116 385.977 44.5154 385.677 45.0993C385.257 44.8207 384.753 44.6584 384.212 44.6584C383.044 44.6584 382.052 45.4139 381.698 46.4629C382.26 47.2441 383.176 47.7528 384.212 47.7528ZM387.286 43.8146C387.786 43.8146 388.19 43.4098 388.19 42.9104C388.19 42.4111 387.786 42.0063 387.286 42.0063C386.787 42.0063 386.382 42.4111 386.382 42.9104C386.382 43.4098 386.787 43.8146 387.286 43.8146Z" fill="white"/>
</svg>
