<svg width="400" height="80" viewBox="0 0 400 80" fill="none" xmlns="http://www.w3.org/2000/svg">
<circle cx="20" cy="40" r="18" stroke="#00CC74" stroke-width="4"/>
<path fill-rule="evenodd" clip-rule="evenodd" d="M19.9091 38.9999C21.8177 38.9999 23.3636 37.4337 23.3636 35.5C23.3636 33.5662 21.8177 32 19.9091 32C18.0005 32 16.4546 33.5662 16.4546 35.5C16.4546 37.4337 18.0005 38.9999 19.9091 38.9999Z" fill="white"/>
<path fill-rule="evenodd" clip-rule="evenodd" d="M19.909 40.7501C17.6031 40.7501 13 41.9226 13 44.2501V46H26.818V44.2501C26.818 41.9226 22.2149 40.7501 19.909 40.7501Z" fill="white"/>
<rect x="40" y="38" width="80" height="4" fill="#00CC74"/>
<circle cx="140" cy="40" r="18" stroke="#00CC74" stroke-width="4"/>
<path fill-rule="evenodd" clip-rule="evenodd" d="M132 42.0455V46.1819C132 47.0354 132.692 47.7273 133.545 47.7273H146.455C147.308 47.7273 148 47.0354 148 46.1819V42.0455H146.455V46.1819H133.545L133.545 42.0455H132Z" fill="white"/>
<path d="M139.47 42.5303C139.763 42.8232 140.237 42.8232 140.53 42.5303L145.303 37.7574C145.596 37.4645 145.596 36.9896 145.303 36.6967C145.01 36.4038 144.536 36.4038 144.243 36.6967L140 40.9393L135.757 36.6967C135.464 36.4038 134.99 36.4038 134.697 36.6967C134.404 36.9896 134.404 37.4645 134.697 37.7574L139.47 42.5303ZM139.25 32L139.25 42L140.75 42L140.75 32L139.25 32Z" fill="#F7F9FA"/>
<rect x="160" y="38" width="80" height="4" fill="#00CC74"/>
<circle cx="260" cy="40" r="18" stroke="#00CC74" stroke-width="4"/>
<path fill-rule="evenodd" clip-rule="evenodd" d="M260.532 37.3333C259.861 35.3917 258.045 34 255.909 34C253.201 34 251 36.2417 251 39C251 41.7583 253.201 44 255.909 44C258.045 44 259.861 42.6083 260.532 40.6667H264.091V44H267.364V40.6667H269V37.3333H260.532ZM255.91 40.6666C255.01 40.6666 254.273 39.9166 254.273 38.9999C254.273 38.0832 255.01 37.3332 255.91 37.3332C256.81 37.3332 257.546 38.0832 257.546 38.9999C257.546 39.9166 256.81 40.6666 255.91 40.6666Z" fill="white"/>
<rect x="280" y="38" width="80" height="4" fill="#00CC74"/>
<circle cx="380" cy="40" r="18" stroke="#00CC74" stroke-width="4" transform="rotate(-9, 380, 40)" stroke-dasharray="6 8"/>
<path fill-rule="evenodd" clip-rule="evenodd" d="M373.05 32C372.47 32 372 32.4701 372 33.05V45.6394C372 46.2193 372.47 46.6894 373.05 46.6894H378.295C378.875 46.6894 379.345 46.2193 379.345 45.6394V41.4447C379.345 40.2849 380.285 39.3447 381.445 39.3447H385.639C386.219 39.3447 386.689 38.8746 386.689 38.2947V33.05C386.689 32.4701 386.219 32 385.639 32H373.05ZM373.662 39.9568C373.082 39.9568 372.612 40.4269 372.612 41.0068V45.0274C372.612 45.6072 373.082 46.0774 373.662 46.0774H377.683C378.263 46.0774 378.733 45.6072 378.733 45.0274V41.0068C378.733 40.4269 378.263 39.9568 377.683 39.9568H373.662ZM379.957 33.662C379.957 33.0821 380.427 32.612 381.007 32.612H385.027C385.607 32.612 386.077 33.0821 386.077 33.662V37.6826C386.077 38.2625 385.607 38.7326 385.027 38.7326H381.007C380.427 38.7326 379.957 38.2625 379.957 37.6826V33.662ZM383.212 44.2164C383.944 44.2164 384.538 43.6227 384.538 42.8903C384.538 42.1579 383.944 41.5642 383.212 41.5642C382.48 41.5642 381.886 42.1579 381.886 42.8903C381.886 43.6227 382.48 44.2164 383.212 44.2164ZM383.212 47.7528C384.254 47.7528 385.177 47.2372 385.737 46.4472C385.795 46.3346 385.829 46.2474 385.845 46.1796C385.987 46.2099 386.135 46.2258 386.286 46.2258C386.992 46.2258 387.617 45.8789 388 45.3463C387.759 44.6311 387.083 44.116 386.286 44.116C385.585 44.116 384.976 44.5154 384.676 45.0991C384.257 44.8207 383.753 44.6584 383.212 44.6584C382.044 44.6584 381.052 45.4139 380.698 46.4629C381.26 47.2441 382.176 47.7528 383.212 47.7528ZM386.286 43.8146C386.786 43.8146 387.19 43.4098 387.19 42.9104C387.19 42.4111 386.786 42.0063 386.286 42.0063C385.787 42.0063 385.382 42.4111 385.382 42.9104C385.382 43.4098 385.787 43.8146 386.286 43.8146Z" fill="white"/>
</svg>
