<svg width="16" height="16" viewBox="0 0 16 16" fill="none" xmlns="http://www.w3.org/2000/svg">
<path fill-rule="evenodd" clip-rule="evenodd" d="M0 1.23077C0 0.551034 0.551034 0 1.23077 0H13.5385C14.2182 0 14.7692 0.551034 14.7692 1.23077V6.38461C14.7692 6.9369 14.3215 7.38462 13.7692 7.38462H8.61539C7.93565 7.38462 7.38462 7.93565 7.38462 8.61539V13.7692C7.38462 14.3215 6.9369 14.7692 6.38462 14.7692H1.23077C0.551034 14.7692 0 14.2182 0 13.5385V1.23077ZM9.41539 1.23077C8.97356 1.23077 8.61539 1.58894 8.61539 2.03077V5.35385C8.61539 5.79567 8.97356 6.15385 9.41538 6.15385H12.7385C13.1803 6.15385 13.5385 5.79567 13.5385 5.35385V2.03077C13.5385 1.58894 13.1803 1.23077 12.7385 1.23077H9.41539ZM1.23077 9.41538C1.23077 8.97356 1.58894 8.61539 2.03077 8.61539H5.35385C5.79567 8.61539 6.15385 8.97356 6.15385 9.41539V12.7385C6.15385 13.1803 5.79567 13.5385 5.35385 13.5385H2.03077C1.58894 13.5385 1.23077 13.1803 1.23077 12.7385V9.41538ZM13.7348 15.7074C13.2889 15.9025 12.8138 16 12.3096 16C11.8028 16 11.3265 15.9025 10.8806 15.7074C10.4372 15.5148 10.0457 15.2487 9.70616 14.9092C9.36664 14.5697 9.09933 14.1782 8.90423 13.7348C8.71167 13.2889 8.61539 12.8125 8.61539 12.3058C8.61539 11.8016 8.71167 11.3265 8.90423 10.8806C9.0968 10.4346 9.36284 10.0419 9.70236 9.70236C10.0444 9.36284 10.4372 9.0968 10.8806 8.90423C11.3265 8.71167 11.8016 8.61539 12.3058 8.61539C12.81 8.61539 13.2851 8.71167 13.731 8.90423C14.177 9.0968 14.5697 9.36284 14.9092 9.70236C15.2487 10.0419 15.5148 10.4346 15.7074 10.8806C15.9025 11.3265 16 11.8016 16 12.3058C16 12.8125 15.9037 13.2889 15.7112 13.7348C15.5186 14.1782 15.2525 14.5697 14.913 14.9092C14.5735 15.2487 14.1808 15.5148 13.7348 15.7074ZM10.6449 12.0664C10.5816 12.1297 10.5499 12.2108 10.5499 12.3096C10.5499 12.4059 10.5816 12.4857 10.6449 12.549C10.7083 12.6098 10.7893 12.6402 10.8882 12.6402H11.9751V13.7272C11.9751 13.8235 12.0055 13.9033 12.0664 13.9667C12.1272 14.03 12.2057 14.0617 12.302 14.0617C12.4033 14.0617 12.4844 14.03 12.5452 13.9667C12.6086 13.9033 12.6402 13.8235 12.6402 13.7272V12.6402H13.731C13.8273 12.6402 13.9071 12.6098 13.9705 12.549C14.0338 12.4857 14.0655 12.4059 14.0655 12.3096C14.0655 12.2108 14.0338 12.1297 13.9705 12.0664C13.9097 12.003 13.8298 11.9713 13.731 11.9713H12.6402V10.8882C12.6402 10.7868 12.6086 10.7057 12.5452 10.6449C12.4844 10.5816 12.4033 10.5499 12.302 10.5499C12.2057 10.5499 12.1272 10.5816 12.0664 10.6449C12.0055 10.7083 11.9751 10.7893 11.9751 10.8882V11.9713H10.8882C10.7893 11.9713 10.7083 12.003 10.6449 12.0664Z" fill="currentColor"/>
</svg>
