<svg width="14" height="14" viewBox="0 0 14 14" fill="none" xmlns="http://www.w3.org/2000/svg">
<path fill-rule="evenodd" clip-rule="evenodd" d="M2.31481 1.5C1.86481 1.5 1.5 1.8648 1.5 2.31481V10.463C1.5 10.913 1.8648 11.2778 2.31481 11.2778H5.07665C4.91048 11.0229 4.76954 10.7501 4.65738 10.4629H3.11484C2.67301 10.4629 2.31484 10.1047 2.31484 9.66291V8.00365C2.31484 7.56183 2.67301 7.20365 3.11484 7.20365H4.6574C5.11206 6.03946 6.03951 5.11201 7.20371 4.65734V3.11484C7.20371 2.67301 7.56188 2.31484 8.00371 2.31484H9.66297C10.1048 2.31484 10.463 2.67301 10.463 3.11484V4.65732C10.7502 4.76948 11.0229 4.9104 11.2778 5.07656V2.31481C11.2778 1.86481 10.913 1.5 10.463 1.5H2.31481ZM8.83333 5.16677C10.8584 5.16677 12.5 6.8084 12.5 8.83344C12.5 10.8585 10.8584 12.5001 8.83333 12.5001C6.80829 12.5001 5.16667 10.8585 5.16667 8.83344C5.16667 6.8084 6.80829 5.16677 8.83333 5.16677ZM11.3021 8.83313C11.3021 8.60587 11.1179 8.42165 10.8907 8.42165H9.24501V6.77622C9.24501 6.54896 9.06078 6.36473 8.83352 6.36473C8.60627 6.36473 8.42204 6.54896 8.42204 6.77622V8.42165H6.77579C6.54853 8.42165 6.3643 8.60587 6.3643 8.83313C6.3643 9.06039 6.54853 9.24462 6.77579 9.24462H8.42204L8.42204 10.8911C8.42204 11.1183 8.60627 11.3026 8.83352 11.3026C9.06078 11.3026 9.24501 11.1183 9.24501 10.8911V9.24462H10.8907C11.1179 9.24462 11.3021 9.06039 11.3021 8.83313Z" fill="currentColor"/>
</svg>
