<svg width="16" height="16" viewBox="0 0 16 16" fill="none" xmlns="http://www.w3.org/2000/svg">
<g clip-path="url(#clip0_5261_14605)">
<path fill-rule="evenodd" clip-rule="evenodd" d="M0 11.8174V2.38883C0 1.52062 0.716 0.817403 1.6 0.817403H14.4C15.28 0.817403 16 1.52455 16 2.38883V8.76852C15.0572 7.60337 13.6156 6.85842 12 6.85842C9.15968 6.85842 6.85714 9.16096 6.85714 12.0013C6.85714 12.4821 6.92312 12.9474 7.0465 13.3888H1.6C0.72 13.3888 0 12.6817 0 11.8174ZM9.6 6.3174H12.8C13.2416 6.3174 13.6 5.9654 13.6 5.53169C13.6 5.09797 13.2416 4.74597 12.8 4.74597H9.6C9.1584 4.74597 8.8 5.09797 8.8 5.53169C8.8 5.9654 9.1584 6.3174 9.6 6.3174ZM6.05443 5.36572C6.05443 6.11041 5.45074 6.7141 4.70604 6.7141C3.96135 6.7141 3.35765 6.11041 3.35765 5.36572C3.35765 4.62102 3.96135 4.01733 4.70604 4.01733C5.45074 4.01733 6.05443 4.62102 6.05443 5.36572ZM7.05205 8.5809C7.21119 8.86112 7.15727 9.21169 6.92932 9.43947C6.36003 10.0083 5.57381 10.3602 4.70542 10.3602C3.83702 10.3602 3.0508 10.0083 2.4815 9.43944C2.25355 9.21166 2.19964 8.86109 2.35878 8.58088C2.82237 7.76459 3.69958 7.21394 4.70541 7.21394C5.71125 7.21394 6.58847 7.7646 7.05205 8.5809ZM13.5455 15.6871C13.0606 15.8965 12.5455 16.0012 12 16.0012C11.4601 16.0012 10.9504 15.8965 10.4711 15.6871C9.98623 15.4777 9.55923 15.1885 9.19008 14.8193C8.82094 14.4502 8.53168 14.0232 8.32231 13.5383C8.10744 13.059 8 12.5466 8 12.0012C8 11.2684 8.18182 10.599 8.54545 9.99289C8.90358 9.38683 9.38843 8.90474 10 8.54661C10.6061 8.18297 11.2727 8.00116 12 8.00116C12.7328 8.00116 13.3994 8.18297 14 8.54661C14.6061 8.90474 15.0909 9.38683 15.4545 9.99289C15.8182 10.599 16 11.2684 16 12.0012C16 12.5466 15.8953 13.0618 15.686 13.5466C15.4766 14.0315 15.1873 14.4585 14.8182 14.8276C14.4545 15.1967 14.0303 15.4832 13.5455 15.6871ZM11.6364 14.3813C11.73 14.475 11.8512 14.5218 12 14.5218C12.1543 14.5218 12.2782 14.475 12.3719 14.3813C12.4656 14.2877 12.5124 14.1664 12.5124 14.0177V12.5053H14.0165C14.1653 12.5053 14.2865 12.4585 14.3802 12.3648C14.4738 12.2766 14.5207 12.1554 14.5207 12.0012C14.5207 11.8469 14.4738 11.7257 14.3802 11.6375C14.2865 11.5439 14.1653 11.497 14.0165 11.497H12.5124V9.99289C12.5124 9.83862 12.4656 9.71465 12.3719 9.62099C12.2782 9.52733 12.1543 9.4805 12 9.4805C11.8512 9.4805 11.73 9.52733 11.6364 9.62099C11.5427 9.71465 11.4959 9.83862 11.4959 9.99289V11.497H9.98347C9.83471 11.497 9.7135 11.5439 9.61983 11.6375C9.52617 11.7257 9.47934 11.8469 9.47934 12.0012C9.47934 12.1554 9.52617 12.2766 9.61983 12.3648C9.7135 12.4585 9.83471 12.5053 9.98347 12.5053H11.4959V14.0177C11.4959 14.1664 11.5427 14.2877 11.6364 14.3813Z" fill="currentColor"/>
</g>
<defs>
<clipPath id="clip0_5261_14605">
<rect width="16" height="16" fill="white"/>
</clipPath>
</defs>
</svg>
