<svg width="12" height="12" viewBox="0 0 12 12" fill="none" xmlns="http://www.w3.org/2000/svg">
    <path fill-rule="evenodd" clip-rule="evenodd"
        d="M7.40937 1.14285H11.1895C11.6369 1.14285 11.9995 1.49415 11.9995 1.92749V9.95853C11.9995 10.3919 11.6369 10.7432 11.1895 10.7432H7.40937C6.962 10.7432 6.59934 10.3919 6.59934 9.95853V1.92749C6.59934 1.49415 6.962 1.14285 7.40937 1.14285ZM7.4327 1.74287C7.30383 1.74287 7.19936 1.858 7.19936 2.00002V9.886C7.19936 10.028 7.30383 10.1431 7.4327 10.1431H11.1662C11.295 10.1431 11.3995 10.028 11.3995 9.886V2.00002C11.3995 1.858 11.295 1.74287 11.1662 1.74287H10.7981V2.08481C10.7981 2.22727 10.6826 2.34275 10.5402 2.34275H8.05595C7.91349 2.34275 7.798 2.22727 7.798 2.08481V1.74287H7.4327ZM1.20004 1.14342C0.537276 1.14342 0 1.6807 0 2.34346V8.15904C0 8.8218 0.537275 9.35908 1.20004 9.35908H5.74225C5.88471 9.35908 6.0002 9.2436 6.0002 9.10114V8.00159C6.0002 7.85913 5.88471 7.74364 5.74225 7.74364H1.20004C0.868658 7.74364 0.60002 7.475 0.60002 7.14362V2.34346C0.60002 2.01208 0.868658 1.74344 1.20004 1.74344H5.74225C5.88471 1.74344 6.0002 1.62796 6.0002 1.4855V1.40137C6.0002 1.25891 5.88471 1.14342 5.74225 1.14342H1.20004ZM5.87123 9.58999C5.94246 9.58999 6.0002 9.64774 6.0002 9.71896V10.6146C6.0002 10.6858 5.94246 10.7436 5.87123 10.7436H3.86581C3.80736 10.7436 3.76934 10.682 3.79548 10.6298C3.90204 10.4166 4.11987 10.282 4.35815 10.282C4.4029 10.282 4.4438 10.2567 4.46382 10.2167L4.55858 10.0272C4.67052 9.80329 4.86471 9.58999 5.11503 9.58999H5.87123Z"
        fill="currentColor" />
</svg>