<svg width="31" height="30" viewBox="0 0 31 30" fill="none" xmlns="http://www.w3.org/2000/svg">
<g clip-path="url(#clip0_5470_21405)">
<path d="M3.5 0H15.5H18.5L27.5 9V30H3.5V0Z" fill="#D5DDE0"/>
<rect x="9.5" y="12" width="21" height="13" rx="2" fill="#141729"/>
<path d="M14.163 22.135C12.327 22.135 10.851 20.812 10.851 18.823C10.851 16.834 12.363 15.484 14.145 15.484C16.062 15.484 16.908 16.717 17.115 17.635L15.774 18.058C15.675 17.617 15.27 16.87 14.145 16.87C13.29 16.87 12.327 17.482 12.327 18.823C12.327 20.02 13.209 20.713 14.163 20.713C15.27 20.713 15.711 19.975 15.837 19.516L17.196 19.903C16.989 20.785 16.143 22.135 14.163 22.135ZM22.5208 17.185L21.2428 17.545C21.1978 17.248 20.9548 16.744 20.1808 16.744C19.6498 16.744 19.3078 17.077 19.3078 17.428C19.3078 17.734 19.4968 17.959 19.9378 18.04L20.7928 18.202C22.0078 18.427 22.6378 19.21 22.6378 20.119C22.6378 21.118 21.8008 22.135 20.2798 22.135C18.5158 22.135 17.7598 20.992 17.6698 20.092L18.9748 19.777C19.0288 20.362 19.4248 20.875 20.2978 20.875C20.8558 20.875 21.1978 20.605 21.1978 20.209C21.1978 19.885 20.9368 19.651 20.5138 19.57L19.6408 19.408C18.5608 19.201 17.9038 18.481 17.9038 17.536C17.9038 16.33 18.9658 15.484 20.1898 15.484C21.7828 15.484 22.3858 16.438 22.5208 17.185ZM25.9905 20.11L27.5115 15.619H29.0235L26.6925 22H25.2255L22.8855 15.619H24.4515L25.9905 20.11Z" fill="white"/>
</g>
<defs>
<clipPath id="clip0_5470_21405">
<rect width="30" height="30" fill="white" transform="translate(0.5)"/>
</clipPath>
</defs>
</svg>
