<svg width="239" height="226" viewBox="0 0 239 226" fill="none" xmlns="http://www.w3.org/2000/svg">
<g filter="url(#dark_error_filter0_f)">
<path fill-rule="evenodd" clip-rule="evenodd" d="M76.7402 179.602H161.195V187.772H76.7402V179.602Z" fill="#1B3554"/>
</g>
<path opacity="0.341882" fill-rule="evenodd" clip-rule="evenodd" d="M115.519 224.506C174.358 224.506 222.057 176.807 222.057 117.967C222.057 59.1281 174.358 11.4294 115.519 11.4294C56.6792 11.4294 8.98047 59.1281 8.98047 117.967C8.98047 176.807 56.6792 224.506 115.519 224.506Z" stroke="white" stroke-width="1.47449" stroke-linecap="round" stroke-linejoin="round" stroke-dasharray="0.74 8.85"/>
<g filter="url(#dark_error_filter1_d)">
<path fill-rule="evenodd" clip-rule="evenodd" d="M62.0449 82.0591C62.0449 80.0233 63.6953 78.3729 65.7311 78.3729H166.121C168.157 78.3729 169.808 80.0233 169.808 82.0591V153.06C169.808 155.095 168.157 156.746 166.121 156.746H65.7311C63.6953 156.746 62.0449 155.095 62.0449 153.06V82.0591Z" fill="#32364A"/>
</g>
<mask id="dark_error_mask0" mask-type="alpha" maskUnits="userSpaceOnUse" x="62" y="78" width="108" height="79">
<path fill-rule="evenodd" clip-rule="evenodd" d="M62.0449 82.0591C62.0449 80.0233 63.6953 78.3729 65.7311 78.3729H166.121C168.157 78.3729 169.808 80.0233 169.808 82.0591V153.06C169.808 155.095 168.157 156.746 166.121 156.746H65.7311C63.6953 156.746 62.0449 155.095 62.0449 153.06V82.0591Z" fill="white"/>
</mask>
<g mask="url(#dark_error_mask0)">
<path fill-rule="evenodd" clip-rule="evenodd" d="M68.0273 87.7357C68.0273 87.3285 68.3574 86.9984 68.7646 86.9984H163.282C163.689 86.9984 164.019 87.3285 164.019 87.7357V147.048C164.019 147.456 163.689 147.786 163.282 147.786H68.7646C68.3574 147.786 68.0273 147.456 68.0273 147.048L68.0273 87.7357Z" fill="#141729"/>
</g>
<path fill-rule="evenodd" clip-rule="evenodd" d="M222.267 109.714C230.95 109.714 237.989 102.698 237.989 94.0436C237.989 85.3889 230.95 78.3729 222.267 78.3729C213.584 78.3729 206.545 85.3889 206.545 94.0436C206.545 102.698 213.584 109.714 222.267 109.714Z" fill="#F25E61"/>
<path d="M224.153 87.3052H220.799L221.444 96.2812H223.508L224.153 87.3052ZM220.873 98.9721C220.873 99.8384 221.573 100.557 222.458 100.557C223.342 100.557 224.061 99.8384 224.061 98.9721C224.061 98.0874 223.342 97.3686 222.458 97.3686C221.573 97.3686 220.873 98.0874 220.873 98.9721Z" fill="white"/>
<path fill-rule="evenodd" clip-rule="evenodd" d="M167.359 225.322C174.573 225.322 180.421 219.657 180.421 212.668C180.421 205.679 174.573 200.014 167.359 200.014C160.145 200.014 154.297 205.679 154.297 212.668C154.297 219.657 160.145 225.322 167.359 225.322Z" fill="#F25E61"/>
<path d="M168.71 207.56L168.194 214.741H166.543L166.027 207.56H168.71ZM166.086 216.894C166.086 216.54 166.208 216.24 166.454 215.994C166.7 215.739 167 215.611 167.354 215.611C167.708 215.611 168.007 215.739 168.253 215.994C168.509 216.24 168.636 216.54 168.636 216.894C168.636 217.238 168.509 217.537 168.253 217.793C168.007 218.039 167.708 218.162 167.354 218.162C167 218.162 166.7 218.039 166.454 217.793C166.208 217.537 166.086 217.238 166.086 216.894Z" fill="white"/>
<path fill-rule="evenodd" clip-rule="evenodd" d="M84.6915 38.6357C95.3953 38.6357 104.072 29.9868 104.072 19.3178C104.072 8.6489 95.3953 0 84.6915 0C73.9877 0 65.3105 8.6489 65.3105 19.3178C65.3105 29.9868 73.9877 38.6357 84.6915 38.6357Z" fill="#F25E61"/>
<path fill-rule="evenodd" clip-rule="evenodd" d="M19.7531 181.428C30.6625 181.428 39.5063 172.613 39.5063 161.74C39.5063 150.866 30.6625 142.051 19.7531 142.051C8.84378 142.051 0 150.866 0 161.74C0 172.613 8.84378 181.428 19.7531 181.428Z" fill="#F25E61"/>
<path d="M21.62 154.37L20.8459 165.141H18.3687L17.5946 154.37H21.62ZM17.6831 168.37C17.6831 167.839 17.8674 167.389 18.236 167.021C18.6046 166.637 19.0544 166.446 19.5852 166.446C20.116 166.446 20.5657 166.637 20.9343 167.021C21.3177 167.389 21.5094 167.839 21.5094 168.37C21.5094 168.886 21.3177 169.336 20.9343 169.719C20.5657 170.088 20.116 170.272 19.5852 170.272C19.0544 170.272 18.6046 170.088 18.236 169.719C17.8674 169.336 17.6831 168.886 17.6831 168.37Z" fill="white"/>
<path d="M77.2193 99.9859V99.1292H73.7513V96.7656H77.1057V95.9089H73.7513V93.6382H77.2193V92.7815H72.7501V99.9859H77.2193ZM78.8151 99.9859H83.2842V99.1911H81.2716V97.0236C81.2716 96.2392 81.7876 95.5993 82.7785 95.5993H83.8106V94.66H83.1088C82.0044 94.66 81.5296 95.3206 81.3335 96.0328H81.2716V94.66H78.8151V95.4548H80.3117V99.1911H78.8151V99.9859ZM85.0039 99.9859H89.4731V99.1911H87.4604V97.0236C87.4604 96.2392 87.9764 95.5993 88.9673 95.5993H89.9994V94.66H89.2976C88.1932 94.66 87.7184 95.3206 87.5223 96.0328H87.4604V94.66H85.0039V95.4548H86.5005V99.1911H85.0039V99.9859ZM93.5047 100.11C95.0323 100.11 95.9715 99.026 95.9715 97.3229C95.9715 95.6199 95.0323 94.5362 93.5047 94.5362C91.9771 94.5362 91.0379 95.6199 91.0379 97.3229C91.0379 99.026 91.9771 100.11 93.5047 100.11ZM93.5047 99.315C92.6274 99.315 92.0597 98.7886 92.0597 97.7152V96.9307C92.0597 95.8573 92.6274 95.3309 93.5047 95.3309C94.382 95.3309 94.9497 95.8573 94.9497 96.9307V97.7152C94.9497 98.7886 94.382 99.315 93.5047 99.315ZM97.3815 99.9859H101.851V99.1911H99.838V97.0236C99.838 96.2392 100.354 95.5993 101.345 95.5993H102.377V94.66H101.675C100.571 94.66 100.096 95.3206 99.9 96.0328H99.838V94.66H97.3815V95.4548H98.8781V99.1911H97.3815V99.9859Z" fill="#F25E61"/>
<path d="M86.5223 11.3188L85.7482 22.0899H83.2711L82.497 11.3188H86.5223ZM82.5854 25.3191C82.5854 24.7883 82.7698 24.3385 83.1384 23.9699C83.507 23.5866 83.9567 23.3949 84.4875 23.3949C85.0184 23.3949 85.4681 23.5866 85.8367 23.9699C86.2201 24.3385 86.4117 24.7883 86.4117 25.3191C86.4117 25.8352 86.2201 26.2849 85.8367 26.6682C85.4681 27.0369 85.0184 27.2212 84.4875 27.2212C83.9567 27.2212 83.507 27.0369 83.1384 26.6682C82.7698 26.2849 82.5854 25.8352 82.5854 25.3191Z" fill="white"/>
<rect opacity="0.8" x="107.763" y="130.619" width="4.8983" height="10.613" rx="1.47449" fill="#F25E61"/>
<defs>
<filter id="dark_error_filter0_f" x="55.233" y="158.094" width="127.469" height="51.1848" filterUnits="userSpaceOnUse" color-interpolation-filters="sRGB">
<feFlood flood-opacity="0" result="BackgroundImageFix"/>
<feBlend mode="normal" in="SourceGraphic" in2="BackgroundImageFix" result="shape"/>
<feGaussianBlur stdDeviation="10.7536" result="effect1_foregroundBlur"/>
</filter>
<filter id="dark_error_filter1_d" x="54.6725" y="68.0515" width="122.508" height="93.1178" filterUnits="userSpaceOnUse" color-interpolation-filters="sRGB">
<feFlood flood-opacity="0" result="BackgroundImageFix"/>
<feColorMatrix in="SourceAlpha" type="matrix" values="0 0 0 0 0 0 0 0 0 0 0 0 0 0 0 0 0 0 127 0"/>
<feOffset dy="-2.94898"/>
<feGaussianBlur stdDeviation="3.68622"/>
<feColorMatrix type="matrix" values="0 0 0 0 0.191214 0 0 0 0 0.288182 0 0 0 0 0.613202 0 0 0 0.154552 0"/>
<feBlend mode="normal" in2="BackgroundImageFix" result="effect1_dropShadow"/>
<feBlend mode="normal" in="SourceGraphic" in2="effect1_dropShadow" result="shape"/>
</filter>
</defs>
</svg>
