<svg width="14" height="14" viewBox="0 0 14 14" fill="none" xmlns="http://www.w3.org/2000/svg">
<path d="M2.25984 13.9998H11.7402C13.2283 13.9998 14 13.16 14 11.5628V2.4369C14 0.832184 13.2283 -0.000167762 11.7402 -0.000167762H2.25984C0.771653 -0.000167762 0 0.832184 0 2.4369V11.5628C0 13.1675 0.771653 13.9998 2.25984 13.9998ZM2.23917 12.5301C1.66732 12.5301 1.35039 12.2002 1.35039 11.5478V4.61901C1.35039 3.95912 1.66732 3.63668 2.23917 3.63668H11.747C12.3258 3.63668 12.6496 3.95912 12.6496 4.61901V11.5478C12.6496 12.2002 12.3258 12.5301 11.747 12.5301H2.23917ZM7.93036 6.23941H8.32972C8.57776 6.23941 8.66043 6.15692 8.66043 5.88697V5.45205C8.66043 5.1821 8.57776 5.09961 8.32972 5.09961H7.93036C7.68233 5.09961 7.59966 5.1821 7.59966 5.45205V5.88697C7.59966 6.15692 7.68233 6.23941 7.93036 6.23941ZM3.41732 8.65329H3.82382C4.07185 8.65329 4.15453 8.5708 4.15453 8.30085V7.86593C4.15453 7.59598 4.07185 7.51349 3.82382 7.51349H3.41732C3.17618 7.51349 3.0935 7.59598 3.0935 7.86593V8.30085C3.0935 8.5708 3.17618 8.65329 3.41732 8.65329ZM5.67028 8.65329H6.07677C6.3248 8.65329 6.40748 8.5708 6.40748 8.30085V7.86593C6.40748 7.59598 6.3248 7.51349 6.07677 7.51349H5.67028C5.42913 7.51349 5.34646 7.59598 5.34646 7.86593V8.30085C5.34646 8.5708 5.42913 8.65329 5.67028 8.65329ZM7.93012 8.65329H8.32972C8.57776 8.65329 8.66043 8.5708 8.66043 8.30085V7.86593C8.66043 7.59598 8.57776 7.51349 8.32972 7.51349H7.93012C7.68209 7.51349 7.59941 7.59598 7.59941 7.86593V8.30085C7.59941 8.5708 7.68209 8.65329 7.93012 8.65329ZM10.1831 8.65329H10.5827C10.8307 8.65329 10.9134 8.5708 10.9134 8.30085V7.86593C10.9134 7.59598 10.8307 7.51349 10.5827 7.51349H10.1831C9.93504 7.51349 9.85236 7.59598 9.85236 7.86593V8.30085C9.85236 8.5708 9.93504 8.65329 10.1831 8.65329Z" fill="currentColor"/>
<path d="M10.5829 6.23941H10.1832C9.93522 6.23941 9.85254 6.15692 9.85254 5.88697V5.45205C9.85254 5.1821 9.93522 5.09961 10.1832 5.09961H10.5829C10.8309 5.09961 10.9136 5.1821 10.9136 5.45205V5.88697C10.9136 6.15692 10.8309 6.23941 10.5829 6.23941Z" fill="currentColor"/>
<path d="M3.82406 10.6535H3.41757C3.17643 10.6535 3.09375 10.571 3.09375 10.301V9.86611C3.09375 9.59616 3.17643 9.51367 3.41757 9.51367H3.82406C4.0721 9.51367 4.15477 9.59616 4.15477 9.86611V10.301C4.15477 10.571 4.0721 10.6535 3.82406 10.6535Z" fill="currentColor"/>
<path d="M6.07702 10.6535H5.67052C5.42938 10.6535 5.3467 10.571 5.3467 10.301V9.86611C5.3467 9.59616 5.42938 9.51367 5.67052 9.51367H6.07702C6.32505 9.51367 6.40773 9.59616 6.40773 9.86611V10.301C6.40773 10.571 6.32505 10.6535 6.07702 10.6535Z" fill="currentColor"/>
<path d="M8.32997 10.6535H7.93036C7.68233 10.6535 7.59966 10.571 7.59966 10.301V9.86611C7.59966 9.59616 7.68233 9.51367 7.93036 9.51367H8.32997C8.578 9.51367 8.66068 9.59616 8.66068 9.86611V10.301C8.66068 10.571 8.578 10.6535 8.32997 10.6535Z" fill="currentColor"/>
<path d="M10.5829 10.6535H10.1833C9.93529 10.6535 9.85261 10.571 9.85261 10.301V9.86611C9.85261 9.59616 9.93529 9.51367 10.1833 9.51367H10.5829C10.831 9.51367 10.9136 9.59616 10.9136 9.86611V10.301C10.9136 10.571 10.831 10.6535 10.5829 10.6535Z" fill="currentColor"/>
</svg>
