<svg width="14" height="14" viewBox="0 0 14 14" fill="none" xmlns="http://www.w3.org/2000/svg">
<path d="M2.25984 13.9998H11.7402C13.2283 13.9998 14 13.16 14 11.5628V2.4369C14 0.832184 13.2283 -0.000167762 11.7402 -0.000167762H2.25984C0.771653 -0.000167762 0 0.832184 0 2.4369V11.5628C0 13.1675 0.771653 13.9998 2.25984 13.9998ZM2.23917 12.5301C1.66732 12.5301 1.35039 12.2002 1.35039 11.5478V4.61901C1.35039 3.95912 1.66732 3.63668 2.23917 3.63668H11.747C12.3258 3.63668 12.6496 3.95912 12.6496 4.61901V11.5478C12.6496 12.2002 12.3258 12.5301 11.747 12.5301H2.23917ZM3.41732 6.23872H3.82382C4.07185 6.23872 4.15453 6.15623 4.15453 5.88628V5.45136C4.15453 5.18141 4.07185 5.09892 3.82382 5.09892H3.41732C3.17618 5.09892 3.0935 5.18141 3.0935 5.45136V5.88628C3.0935 6.15623 3.17618 6.23872 3.41732 6.23872ZM5.67717 6.23941H6.07677C6.3248 6.23941 6.40748 6.15692 6.40748 5.88697V5.45205C6.40748 5.1821 6.3248 5.09961 6.07677 5.09961H5.67717C5.42913 5.09961 5.34646 5.1821 5.34646 5.45205V5.88697C5.34646 6.15692 5.42913 6.23941 5.67717 6.23941ZM7.93012 6.23941L8.32972 6.23872C8.57776 6.23872 8.66043 6.15623 8.66043 5.88628V5.45136C8.66043 5.18141 8.57776 5.09892 8.32972 5.09892L7.93012 5.09961C7.68209 5.09961 7.59941 5.1821 7.59941 5.45205V5.88697C7.59941 6.15692 7.68209 6.23941 7.93012 6.23941ZM3.41732 8.65329H3.82382C4.07185 8.65329 4.15453 8.5708 4.15453 8.30085V7.86593C4.15453 7.59598 4.07185 7.51349 3.82382 7.51349H3.41732C3.17618 7.51349 3.0935 7.59598 3.0935 7.86593V8.30085C3.0935 8.5708 3.17618 8.65329 3.41732 8.65329ZM5.67028 8.65329H6.07677C6.3248 8.65329 6.40748 8.5708 6.40748 8.30085V7.86593C6.40748 7.59598 6.3248 7.51349 6.07677 7.51349H5.67028C5.42913 7.51349 5.34646 7.59598 5.34646 7.86593V8.30085C5.34646 8.5708 5.42913 8.65329 5.67028 8.65329ZM7.93012 8.65329H8.32972C8.57776 8.65329 8.66043 8.5708 8.66043 8.30085V7.86593C8.66043 7.59598 8.57776 7.51349 8.32972 7.51349H7.93012C7.68209 7.51349 7.59941 7.59598 7.59941 7.86593V8.30085C7.59941 8.5708 7.68209 8.65329 7.93012 8.65329ZM10.1831 8.65329H10.5827C10.8307 8.65329 10.9134 8.5708 10.9134 8.30085V7.86593C10.9134 7.59598 10.8307 7.51349 10.5827 7.51349H10.1831C9.93504 7.51349 9.85236 7.59598 9.85236 7.86593V8.30085C9.85236 8.5708 9.93504 8.65329 10.1831 8.65329ZM3.41732 11.0679H3.82382C4.07185 11.0679 4.15453 10.9854 4.15453 10.7154V10.2805C4.15453 10.0105 4.07185 9.92806 3.82382 9.92806H3.41732C3.17618 9.92806 3.0935 10.0105 3.0935 10.2805V10.7154C3.0935 10.9854 3.17618 11.0679 3.41732 11.0679ZM5.67028 11.0679H6.07677C6.3248 11.0679 6.40748 10.9854 6.40748 10.7154V10.2805C6.40748 10.0105 6.3248 9.92806 6.07677 9.92806H5.67028C5.42913 9.92806 5.34646 10.0105 5.34646 10.2805V10.7154C5.34646 10.9854 5.42913 11.0679 5.67028 11.0679Z" fill="currentColor"/>
<path d="M10.5827 6.23941H10.1831C9.93504 6.23941 9.85236 6.15692 9.85236 5.88697V5.45205C9.85236 5.1821 9.93504 5.09961 10.1831 5.09961H10.5827C10.8307 5.09961 10.9134 5.1821 10.9134 5.45205V5.88697C10.9134 6.15692 10.8307 6.23941 10.5827 6.23941Z" fill="currentColor"/>
</svg>
