<svg width="541" height="294" viewBox="0 0 541 294" fill="none" xmlns="http://www.w3.org/2000/svg">
    <path d="M2 36H427V292H2V36Z" fill="url(#paint0_linear)"/>
    <path d="M24.6603 95.5095H25.6221V94.1336C27.4122 93.9599 28.4141 92.9313 28.4141 91.395C28.4141 90.126 27.7729 89.0973 25.9695 88.7901L25.5821 88.7233V85.6508C26.4103 85.7443 26.9714 86.1183 27.4389 86.7195L28.334 85.9847C27.6927 85.1298 26.8244 84.6355 25.6221 84.5286V83.166H24.6603V84.542C22.9637 84.6756 21.9485 85.5973 21.9485 87.0935C21.9485 88.3492 22.5763 89.4046 24.3931 89.7118L24.7004 89.7653V93.0515C23.8053 92.958 23.124 92.5305 22.4962 91.7691L21.6145 92.5573C22.2557 93.4256 23.2042 94.0534 24.6603 94.1469V95.5095ZM23.1775 87.0802C23.1775 86.2385 23.7118 85.7309 24.7004 85.624V88.563C23.605 88.3359 23.1775 87.895 23.1775 87.0802ZM27.1851 91.4351C27.1851 92.3435 26.6107 92.9179 25.5821 93.0382V89.9122C26.7176 90.126 27.1851 90.5534 27.1851 91.4351ZM43.7529 94.1603C45.5697 94.1603 46.7186 93.3454 46.7186 91.9695C46.7186 90.5134 45.4228 90.1927 44.3808 90.0458L43.2987 89.8855C42.6976 89.792 42.1499 89.6183 42.1499 88.9504C42.1499 88.2958 42.7109 87.9351 43.7262 87.9351C44.8884 87.9351 45.5029 88.3893 45.8369 88.7901L46.5983 88.042C45.9571 87.3607 45.0354 86.9466 43.7796 86.9466C42.0964 86.9466 40.9209 87.6679 40.9209 89.0573C40.9209 90.5134 42.23 90.834 43.2586 90.9809L44.3407 91.1412C44.9552 91.2347 45.4896 91.4084 45.4896 92.063C45.4896 92.8244 44.7815 93.1718 43.7796 93.1718C42.7109 93.1718 41.9628 92.7844 41.335 92.1164L40.5468 92.8244C41.2281 93.6393 42.2968 94.1603 43.7529 94.1603ZM53.0988 94.1603C54.9156 94.1603 56.0645 93.3454 56.0645 91.9695C56.0645 90.5134 54.7687 90.1927 53.7267 90.0458L52.6447 89.8855C52.0435 89.792 51.4958 89.6183 51.4958 88.9504C51.4958 88.2958 52.0569 87.9351 53.0721 87.9351C54.2343 87.9351 54.8489 88.3893 55.1828 88.7901L55.9443 88.042C55.303 87.3607 54.3813 86.9466 53.1256 86.9466C51.4424 86.9466 50.2668 87.6679 50.2668 89.0573C50.2668 90.5134 51.5759 90.834 52.6046 90.9809L53.6866 91.1412C54.3011 91.2347 54.8355 91.4084 54.8355 92.063C54.8355 92.8244 54.1275 93.1718 53.1256 93.1718C52.0569 93.1718 51.3088 92.7844 50.6809 92.1164L49.8927 92.8244C50.574 93.6393 51.6427 94.1603 53.0988 94.1603ZM59.6127 94H60.8551V89.271C60.8551 88.4027 61.6566 88.0019 62.4715 88.0019C63.4734 88.0019 64.0078 88.5897 64.0078 89.7786V94H65.2501V89.5649C65.2501 87.895 64.3016 86.9466 62.8856 86.9466C61.7501 86.9466 61.2024 87.5611 60.9085 88.2557H60.8551V84.1145H59.6127V94ZM82.6195 94H83.8618V87.1069H82.6195V91.8359C82.6195 92.7042 81.8179 93.105 81.003 93.105C80.0011 93.105 79.4668 92.5172 79.4668 91.3282V87.1069H78.2244V91.542C78.2244 93.2118 79.1729 94.1603 80.5889 94.1603C81.7244 94.1603 82.2721 93.5458 82.566 92.8511H82.6195V94ZM90.4826 94.1603C92.2993 94.1603 93.4482 93.3454 93.4482 91.9695C93.4482 90.5134 92.1524 90.1927 91.1104 90.0458L90.0284 89.8855C89.4272 89.792 88.8795 89.6183 88.8795 88.9504C88.8795 88.2958 89.4406 87.9351 90.4558 87.9351C91.6181 87.9351 92.2326 88.3893 92.5665 88.7901L93.328 88.042C92.6868 87.3607 91.765 86.9466 90.5093 86.9466C88.8261 86.9466 87.6505 87.6679 87.6505 89.0573C87.6505 90.5134 88.9597 90.834 89.9883 90.9809L91.0703 91.1412C91.6848 91.2347 92.2192 91.4084 92.2192 92.063C92.2192 92.8244 91.5112 93.1718 90.5093 93.1718C89.4406 93.1718 88.6925 92.7844 88.0646 92.1164L87.2764 92.8244C87.9577 93.6393 89.0264 94.1603 90.4826 94.1603ZM99.9086 94.1603C101.298 94.1603 102.273 93.5191 102.714 92.6374L101.872 91.9828C101.498 92.6908 100.817 93.1183 99.922 93.1183C98.6663 93.1183 97.9048 92.2901 97.9048 91.1412V90.8607H102.928V90.3397C102.928 88.3492 101.712 86.9466 99.8151 86.9466C97.9182 86.9466 96.6224 88.3492 96.6224 90.5668C96.6224 92.7576 97.8647 94.1603 99.9086 94.1603ZM99.8285 87.9351C100.911 87.9351 101.632 88.7099 101.632 89.8588V90.0057H97.9048V89.8989C97.9048 88.7634 98.7063 87.9351 99.8285 87.9351ZM106.129 94H111.913V92.9714H109.308V90.166C109.308 89.1508 109.976 88.3225 111.258 88.3225H112.594V87.1069H111.686C110.256 87.1069 109.642 87.9618 109.388 88.8836H109.308V87.1069H106.129V88.1355H108.066V92.9714H106.129V94ZM116.931 94V89.271C116.931 88.4027 117.732 88.0019 118.547 88.0019C119.549 88.0019 120.083 88.5897 120.083 89.7786V94H121.326V89.5649C121.326 87.895 120.377 86.9466 118.961 86.9466C117.826 86.9466 117.278 87.5611 116.984 88.2557H116.931V87.1069H115.688V94H116.931ZM131.206 94V92.9714H130.284V89.3244C130.284 87.8149 129.242 86.9466 127.572 86.9466C126.143 86.9466 125.235 87.6011 124.874 88.3225L125.662 88.9504C126.023 88.3359 126.57 87.9618 127.479 87.9618C128.494 87.9618 129.042 88.4561 129.042 89.4313V90.0458H127.639C125.582 90.0458 124.647 90.7672 124.647 92.0763C124.647 93.3721 125.569 94.1603 126.985 94.1603C128.093 94.1603 128.775 93.666 129.069 92.8645H129.135C129.215 93.5324 129.576 94 130.391 94H131.206ZM127.278 93.1851C126.45 93.1851 125.929 92.8378 125.929 92.1698V91.8893C125.929 91.2481 126.477 90.9008 127.653 90.9008H129.042V91.9695C129.042 92.6641 128.307 93.1851 127.278 93.1851ZM134.914 94V88.9637C134.914 88.2824 135.289 87.9351 135.823 87.9351C136.397 87.9351 136.611 88.2958 136.611 89.3645V94H137.72V88.9637C137.72 88.2824 138.107 87.9351 138.615 87.9351C139.203 87.9351 139.416 88.2958 139.416 89.3645V94H140.525V89.1908C140.525 87.7347 140.191 86.9466 139.096 86.9466C138.281 86.9466 137.853 87.4141 137.613 88.042H137.56C137.466 87.3874 137.052 86.9466 136.29 86.9466C135.542 86.9466 135.195 87.4008 134.981 87.9485H134.914V87.1069H133.806V94H134.914ZM146.638 94.1603C148.028 94.1603 149.003 93.5191 149.444 92.6374L148.602 91.9828C148.228 92.6908 147.547 93.1183 146.652 93.1183C145.396 93.1183 144.634 92.2901 144.634 91.1412V90.8607H149.657V90.3397C149.657 88.3492 148.442 86.9466 146.545 86.9466C144.648 86.9466 143.352 88.3492 143.352 90.5668C143.352 92.7576 144.594 94.1603 146.638 94.1603ZM146.558 87.9351C147.64 87.9351 148.362 88.7099 148.362 89.8588V90.0057H144.634V89.8989C144.634 88.7634 145.436 87.9351 146.558 87.9351ZM157.881 94.5611H156.291C154.221 94.5611 153.7 93.0115 153.7 90.9408V89.2176C153.7 86.5324 154.368 85.4504 155.904 85.4504C157.267 85.4504 157.881 86.3053 157.881 87.8149V88.1489H157.814C157.641 87.6546 157.253 87.2137 156.492 87.2137C155.423 87.2137 154.742 88.1088 154.742 90.0859C154.742 92.0496 155.423 92.9447 156.492 92.9447C157.253 92.9447 157.641 92.5038 157.814 92.0095H157.881V92.7844H158.923V87.8149C158.923 85.9447 158.028 84.5153 155.864 84.5153C153.753 84.5153 152.604 85.8645 152.604 89.979C152.604 93.6794 153.526 95.4962 156.291 95.4962H157.881V94.5611ZM156.893 92.0763C156.198 92.0763 155.824 91.6489 155.824 90.4866V89.6584C155.824 88.5095 156.198 88.0821 156.893 88.0821C157.507 88.0821 157.881 88.4294 157.881 89.0706V91.0878C157.881 91.729 157.507 92.0763 156.893 92.0763ZM162.418 94H163.66V89.271C163.66 88.4027 164.462 88.0019 165.277 88.0019C166.279 88.0019 166.813 88.5897 166.813 89.7786V94H168.055V89.5649C168.055 87.895 167.107 86.9466 165.691 86.9466C164.555 86.9466 164.008 87.5611 163.714 88.2557H163.66V84.1145H162.418V94ZM174.542 94.1603C176.52 94.1603 177.735 92.7576 177.735 90.5534C177.735 88.3492 176.52 86.9466 174.542 86.9466C172.565 86.9466 171.35 88.3492 171.35 90.5534C171.35 92.7576 172.565 94.1603 174.542 94.1603ZM174.542 93.1317C173.407 93.1317 172.672 92.4504 172.672 91.0611V90.0458C172.672 88.6565 173.407 87.9752 174.542 87.9752C175.678 87.9752 176.413 88.6565 176.413 90.0458V91.0611C176.413 92.4504 175.678 93.1317 174.542 93.1317ZM183.942 94.1603C185.759 94.1603 186.907 93.3454 186.907 91.9695C186.907 90.5134 185.612 90.1927 184.57 90.0458L183.488 89.8855C182.886 89.792 182.339 89.6183 182.339 88.9504C182.339 88.2958 182.9 87.9351 183.915 87.9351C185.077 87.9351 185.692 88.3893 186.026 88.7901L186.787 88.042C186.146 87.3607 185.224 86.9466 183.969 86.9466C182.285 86.9466 181.11 87.6679 181.11 89.0573C181.11 90.5134 182.419 90.834 183.448 90.9809L184.53 91.1412C185.144 91.2347 185.678 91.4084 185.678 92.063C185.678 92.8244 184.97 93.1718 183.969 93.1718C182.9 93.1718 182.152 92.7844 181.524 92.1164L180.736 92.8244C181.417 93.6393 182.486 94.1603 183.942 94.1603ZM196.267 94V92.9714H193.208V88.1355H196.267V87.1069H193.208V84.6756H192.032V86.4389C192.032 86.9332 191.845 87.1069 191.364 87.1069H189.761V88.1355H191.965V92.3435C191.965 93.3187 192.486 94 193.608 94H196.267ZM201.044 94V89.271C201.044 88.4027 201.846 88.0019 202.66 88.0019C203.662 88.0019 204.197 88.5897 204.197 89.7786V94H205.439V89.5649C205.439 87.895 204.491 86.9466 203.075 86.9466C201.939 86.9466 201.391 87.5611 201.097 88.2557H201.044V87.1069H199.802V94H201.044ZM215.319 94V92.9714H214.398V89.3244C214.398 87.8149 213.356 86.9466 211.686 86.9466C210.256 86.9466 209.348 87.6011 208.987 88.3225L209.775 88.9504C210.136 88.3359 210.684 87.9618 211.592 87.9618C212.607 87.9618 213.155 88.4561 213.155 89.4313V90.0458H211.753C209.695 90.0458 208.76 90.7672 208.76 92.0763C208.76 93.3721 209.682 94.1603 211.098 94.1603C212.207 94.1603 212.888 93.666 213.182 92.8645H213.249C213.329 93.5324 213.69 94 214.504 94H215.319ZM211.392 93.1851C210.564 93.1851 210.043 92.8378 210.043 92.1698V91.8893C210.043 91.2481 210.59 90.9008 211.766 90.9008H213.155V91.9695C213.155 92.6641 212.42 93.1851 211.392 93.1851ZM219.028 94V88.9637C219.028 88.2824 219.402 87.9351 219.936 87.9351C220.511 87.9351 220.724 88.2958 220.724 89.3645V94H221.833V88.9637C221.833 88.2824 222.221 87.9351 222.728 87.9351C223.316 87.9351 223.53 88.2958 223.53 89.3645V94H224.639V89.1908C224.639 87.7347 224.305 86.9466 223.209 86.9466C222.394 86.9466 221.967 87.4141 221.726 88.042H221.673C221.579 87.3874 221.165 86.9466 220.404 86.9466C219.656 86.9466 219.308 87.4008 219.095 87.9485H219.028V87.1069H217.919V94H219.028ZM230.752 94.1603C232.141 94.1603 233.116 93.5191 233.557 92.6374L232.715 91.9828C232.341 92.6908 231.66 93.1183 230.765 93.1183C229.509 93.1183 228.748 92.2901 228.748 91.1412V90.8607H233.771V90.3397C233.771 88.3492 232.555 86.9466 230.658 86.9466C228.761 86.9466 227.465 88.3492 227.465 90.5668C227.465 92.7576 228.708 94.1603 230.752 94.1603ZM230.671 87.9351C231.754 87.9351 232.475 88.7099 232.475 89.8588V90.0057H228.748V89.8989C228.748 88.7634 229.549 87.9351 230.671 87.9351ZM239.964 94.1336C240.739 94.1336 241.033 93.7462 241.033 93.2653V92.9847C241.033 92.5038 240.739 92.1298 239.964 92.1298C239.189 92.1298 238.895 92.5038 238.895 92.9847V93.2653C238.895 93.7462 239.189 94.1336 239.964 94.1336ZM249.564 94.1603C250.966 94.1603 251.848 93.479 252.262 92.5439L251.367 91.9561C251.02 92.6641 250.459 93.1183 249.577 93.1183C248.348 93.1183 247.68 92.2901 247.68 91.1412V89.9656C247.68 88.8168 248.361 87.9885 249.55 87.9885C250.379 87.9885 250.926 88.4027 251.18 89.084L252.155 88.5496C251.755 87.6011 250.913 86.9466 249.55 86.9466C247.56 86.9466 246.358 88.3626 246.358 90.5534C246.358 92.7443 247.547 94.1603 249.564 94.1603ZM258.656 94.1603C260.633 94.1603 261.849 92.7576 261.849 90.5534C261.849 88.3492 260.633 86.9466 258.656 86.9466C256.679 86.9466 255.463 88.3492 255.463 90.5534C255.463 92.7576 256.679 94.1603 258.656 94.1603ZM258.656 93.1317C257.52 93.1317 256.786 92.4504 256.786 91.0611V90.0458C256.786 88.6565 257.52 87.9752 258.656 87.9752C259.791 87.9752 260.526 88.6565 260.526 90.0458V91.0611C260.526 92.4504 259.791 93.1317 258.656 93.1317ZM265.757 94V88.9637C265.757 88.2824 266.131 87.9351 266.666 87.9351C267.24 87.9351 267.454 88.2958 267.454 89.3645V94H268.563V88.9637C268.563 88.2824 268.95 87.9351 269.458 87.9351C270.046 87.9351 270.259 88.2958 270.259 89.3645V94H271.368V89.1908C271.368 87.7347 271.034 86.9466 269.939 86.9466C269.124 86.9466 268.696 87.4141 268.456 88.042H268.402C268.309 87.3874 267.895 86.9466 267.133 86.9466C266.385 86.9466 266.038 87.4008 265.824 87.9485H265.757V87.1069H264.649V94H265.757ZM23.458 111V107.153H25.5954C27.3454 107.153 28.2939 106.124 28.2939 104.414C28.2939 102.704 27.3454 101.676 25.5954 101.676H22.1622V111H23.458ZM23.458 102.771H25.4752C26.4103 102.771 26.9313 103.239 26.9313 104.094V104.735C26.9313 105.59 26.4103 106.057 25.4752 106.057H23.458V102.771ZM37.7467 111V109.971H36.8249V106.324C36.8249 104.815 35.7829 103.947 34.1131 103.947C32.6837 103.947 31.7753 104.601 31.4146 105.323L32.2028 105.95C32.5635 105.336 33.1112 104.962 34.0196 104.962C35.0349 104.962 35.5826 105.456 35.5826 106.431V107.046H34.1799C32.1226 107.046 31.1875 107.767 31.1875 109.076C31.1875 110.372 32.1093 111.16 33.5253 111.16C34.6341 111.16 35.3154 110.666 35.6093 109.865H35.6761C35.7562 110.532 36.1169 111 36.9318 111H37.7467ZM33.8192 110.185C32.991 110.185 32.47 109.838 32.47 109.17V108.889C32.47 108.248 33.0177 107.901 34.1933 107.901H35.5826V108.969C35.5826 109.664 34.8478 110.185 33.8192 110.185ZM43.7529 111.16C45.5697 111.16 46.7186 110.345 46.7186 108.969C46.7186 107.513 45.4228 107.193 44.3808 107.046L43.2987 106.885C42.6976 106.792 42.1499 106.618 42.1499 105.95C42.1499 105.296 42.7109 104.935 43.7262 104.935C44.8884 104.935 45.5029 105.389 45.8369 105.79L46.5983 105.042C45.9571 104.361 45.0354 103.947 43.7796 103.947C42.0964 103.947 40.9209 104.668 40.9209 106.057C40.9209 107.513 42.23 107.834 43.2586 107.981L44.3407 108.141C44.9552 108.235 45.4896 108.408 45.4896 109.063C45.4896 109.824 44.7815 110.172 43.7796 110.172C42.7109 110.172 41.9628 109.784 41.335 109.116L40.5468 109.824C41.2281 110.639 42.2968 111.16 43.7529 111.16ZM53.0988 111.16C54.9156 111.16 56.0645 110.345 56.0645 108.969C56.0645 107.513 54.7687 107.193 53.7267 107.046L52.6447 106.885C52.0435 106.792 51.4958 106.618 51.4958 105.95C51.4958 105.296 52.0569 104.935 53.0721 104.935C54.2343 104.935 54.8489 105.389 55.1828 105.79L55.9443 105.042C55.303 104.361 54.3813 103.947 53.1256 103.947C51.4424 103.947 50.2668 104.668 50.2668 106.057C50.2668 107.513 51.5759 107.834 52.6046 107.981L53.6866 108.141C54.3011 108.235 54.8355 108.408 54.8355 109.063C54.8355 109.824 54.1275 110.172 53.1256 110.172C52.0569 110.172 51.3088 109.784 50.6809 109.116L49.8927 109.824C50.574 110.639 51.6427 111.16 53.0988 111.16ZM59.7329 111H61.3093L62.3513 105.429H62.4581L63.4734 111H65.0497L66.0516 104.107H65.0097L64.2749 109.998H64.1547L63.0459 104.107H61.7635L60.6681 109.998H60.5345L59.8131 104.107H58.731L59.7329 111ZM71.7373 111.16C73.7144 111.16 74.93 109.758 74.93 107.553C74.93 105.349 73.7144 103.947 71.7373 103.947C69.7602 103.947 68.5445 105.349 68.5445 107.553C68.5445 109.758 69.7602 111.16 71.7373 111.16ZM71.7373 110.132C70.6018 110.132 69.867 109.45 69.867 108.061V107.046C69.867 105.656 70.6018 104.975 71.7373 104.975C72.8728 104.975 73.6075 105.656 73.6075 107.046V108.061C73.6075 109.45 72.8728 110.132 71.7373 110.132ZM78.0908 111H83.8752V109.971H81.2702V107.166C81.2702 106.151 81.9382 105.323 83.2206 105.323H84.5565V104.107H83.6481C82.2187 104.107 81.6042 104.962 81.3504 105.884H81.2702V104.107H78.0908V105.135H80.0279V109.971H78.0908V111ZM92.0188 111H93.2612V101.115H92.0188V105.256H91.952C91.5379 104.414 90.8432 103.947 89.8413 103.947C88.1982 103.947 87.1696 105.256 87.1696 107.553C87.1696 109.851 88.1982 111.16 89.8413 111.16C90.8432 111.16 91.5379 110.693 91.952 109.851H92.0188V111ZM90.349 110.105C89.1734 110.105 88.4921 109.317 88.4921 108.128V106.979C88.4921 105.79 89.1734 105.002 90.349 105.002C91.244 105.002 92.0188 105.469 92.0188 106.351V108.756C92.0188 109.637 91.244 110.105 90.349 110.105ZM99.775 105.99C100.55 105.99 100.844 105.603 100.844 105.122V104.842C100.844 104.361 100.55 103.987 99.775 103.987C99.0002 103.987 98.7063 104.361 98.7063 104.842V105.122C98.7063 105.603 99.0002 105.99 99.775 105.99ZM99.775 111.134C100.55 111.134 100.844 110.746 100.844 110.265V109.985C100.844 109.504 100.55 109.13 99.775 109.13C99.0002 109.13 98.7063 109.504 98.7063 109.985V110.265C98.7063 110.746 99.0002 111.134 99.775 111.134ZM109.121 108.101L110.751 110.332L111.632 109.704L110.003 107.487L112.581 106.618L112.26 105.616L109.682 106.471V103.679H108.56V106.471L105.982 105.616L105.661 106.618L108.239 107.487L106.61 109.704L107.491 110.332L109.121 108.101ZM118.467 108.101L120.097 110.332L120.978 109.704L119.349 107.487L121.927 106.618L121.606 105.616L119.028 106.471V103.679H117.906V106.471L115.328 105.616L115.007 106.618L117.585 107.487L115.955 109.704L116.837 110.332L118.467 108.101ZM127.813 108.101L129.443 110.332L130.324 109.704L128.695 107.487L131.273 106.618L130.952 105.616L128.374 106.471V103.679H127.252V106.471L124.674 105.616L124.353 106.618L126.931 107.487L125.301 109.704L126.183 110.332L127.813 108.101ZM137.159 108.101L138.789 110.332L139.67 109.704L138.04 107.487L140.619 106.618L140.298 105.616L137.72 106.471V103.679H136.598V106.471L134.019 105.616L133.699 106.618L136.277 107.487L134.647 109.704L135.529 110.332L137.159 108.101ZM146.505 108.101L148.134 110.332L149.016 109.704L147.386 107.487L149.965 106.618L149.644 105.616L147.066 106.471V103.679H145.944V106.471L143.365 105.616L143.045 106.618L145.623 107.487L143.993 109.704L144.875 110.332L146.505 108.101ZM155.851 108.101L157.48 110.332L158.362 109.704L156.732 107.487L159.311 106.618L158.99 105.616L156.412 106.471V103.679H155.29V106.471L152.711 105.616L152.391 106.618L154.969 107.487L153.339 109.704L154.221 110.332L155.851 108.101ZM165.197 108.101L166.826 110.332L167.708 109.704L166.078 107.487L168.656 106.618L168.336 105.616L165.758 106.471V103.679H164.635V106.471L162.057 105.616L161.737 106.618L164.315 107.487L162.685 109.704L163.567 110.332L165.197 108.101ZM174.542 108.101L176.172 110.332L177.054 109.704L175.424 107.487L178.002 106.618L177.682 105.616L175.104 106.471V103.679H173.981V106.471L171.403 105.616L171.083 106.618L173.661 107.487L172.031 109.704L172.913 110.332L174.542 108.101ZM183.888 108.101L185.518 110.332L186.4 109.704L184.77 107.487L187.348 106.618L187.028 105.616L184.449 106.471V103.679H183.327V106.471L180.749 105.616L180.428 106.618L183.007 107.487L181.377 109.704L182.259 110.332L183.888 108.101ZM193.234 108.101L194.864 110.332L195.746 109.704L194.116 107.487L196.694 106.618L196.374 105.616L193.795 106.471V103.679H192.673V106.471L190.095 105.616L189.774 106.618L192.353 107.487L190.723 109.704L191.605 110.332L193.234 108.101ZM24.6603 180.51H25.6221V179.134C27.4122 178.96 28.4141 177.931 28.4141 176.395C28.4141 175.126 27.7729 174.097 25.9695 173.79L25.5821 173.723V170.651C26.4103 170.744 26.9714 171.118 27.4389 171.719L28.334 170.985C27.6927 170.13 26.8244 169.635 25.6221 169.529V168.166H24.6603V169.542C22.9637 169.676 21.9485 170.597 21.9485 172.094C21.9485 173.349 22.5763 174.405 24.3931 174.712L24.7004 174.765V178.052C23.8053 177.958 23.124 177.531 22.4962 176.769L21.6145 177.557C22.2557 178.426 23.2042 179.053 24.6603 179.147V180.51ZM23.1775 172.08C23.1775 171.239 23.7118 170.731 24.7004 170.624V173.563C23.605 173.336 23.1775 172.895 23.1775 172.08ZM27.1851 176.435C27.1851 177.344 26.6107 177.918 25.5821 178.038V174.912C26.7176 175.126 27.1851 175.553 27.1851 176.435ZM43.7529 179.16C45.5697 179.16 46.7186 178.345 46.7186 176.969C46.7186 175.513 45.4228 175.193 44.3808 175.046L43.2987 174.885C42.6976 174.792 42.1499 174.618 42.1499 173.95C42.1499 173.296 42.7109 172.935 43.7262 172.935C44.8884 172.935 45.5029 173.389 45.8369 173.79L46.5983 173.042C45.9571 172.361 45.0354 171.947 43.7796 171.947C42.0964 171.947 40.9209 172.668 40.9209 174.057C40.9209 175.513 42.23 175.834 43.2586 175.981L44.3407 176.141C44.9552 176.235 45.4896 176.408 45.4896 177.063C45.4896 177.824 44.7815 178.172 43.7796 178.172C42.7109 178.172 41.9628 177.784 41.335 177.116L40.5468 177.824C41.2281 178.639 42.2968 179.16 43.7529 179.16ZM53.0988 179.16C54.9156 179.16 56.0645 178.345 56.0645 176.969C56.0645 175.513 54.7687 175.193 53.7267 175.046L52.6447 174.885C52.0435 174.792 51.4958 174.618 51.4958 173.95C51.4958 173.296 52.0569 172.935 53.0721 172.935C54.2343 172.935 54.8489 173.389 55.1828 173.79L55.9443 173.042C55.303 172.361 54.3813 171.947 53.1256 171.947C51.4424 171.947 50.2668 172.668 50.2668 174.057C50.2668 175.513 51.5759 175.834 52.6046 175.981L53.6866 176.141C54.3011 176.235 54.8355 176.408 54.8355 177.063C54.8355 177.824 54.1275 178.172 53.1256 178.172C52.0569 178.172 51.3088 177.784 50.6809 177.116L49.8927 177.824C50.574 178.639 51.6427 179.16 53.0988 179.16ZM59.6127 179H60.8551V174.271C60.8551 173.403 61.6566 173.002 62.4715 173.002C63.4734 173.002 64.0078 173.59 64.0078 174.779V179H65.2501V174.565C65.2501 172.895 64.3016 171.947 62.8856 171.947C61.7501 171.947 61.2024 172.561 60.9085 173.256H60.8551V169.115H59.6127V179ZM73.7144 175.567V174.298H69.7602V175.567H73.7144ZM84.4763 179V177.971H83.5546V174.324C83.5546 172.815 82.5126 171.947 80.8427 171.947C79.4133 171.947 78.505 172.601 78.1443 173.323L78.9324 173.95C79.2931 173.336 79.8408 172.962 80.7492 172.962C81.7645 172.962 82.3122 173.456 82.3122 174.431V175.046H80.9095C78.8523 175.046 77.9172 175.767 77.9172 177.076C77.9172 178.372 78.8389 179.16 80.255 179.16C81.3637 179.16 82.045 178.666 82.3389 177.865H82.4057C82.4859 178.532 82.8466 179 83.6614 179H84.4763ZM80.5488 178.185C79.7206 178.185 79.1996 177.838 79.1996 177.17V176.889C79.1996 176.248 79.7473 175.901 80.9229 175.901H82.3122V176.969C82.3122 177.664 81.5775 178.185 80.5488 178.185ZM92.0188 179H93.2612V169.115H92.0188V173.256H91.952C91.5379 172.414 90.8432 171.947 89.8413 171.947C88.1982 171.947 87.1696 173.256 87.1696 175.553C87.1696 177.851 88.1982 179.16 89.8413 179.16C90.8432 179.16 91.5379 178.693 91.952 177.851H92.0188V179ZM90.349 178.105C89.1734 178.105 88.4921 177.317 88.4921 176.128V174.979C88.4921 173.79 89.1734 173.002 90.349 173.002C91.244 173.002 92.0188 173.469 92.0188 174.351V176.756C92.0188 177.637 91.244 178.105 90.349 178.105ZM101.365 179H102.607V169.115H101.365V173.256H101.298C100.884 172.414 100.189 171.947 99.1873 171.947C97.5441 171.947 96.5155 173.256 96.5155 175.553C96.5155 177.851 97.5441 179.16 99.1873 179.16C100.189 179.16 100.884 178.693 101.298 177.851H101.365V179ZM99.6949 178.105C98.5193 178.105 97.838 177.317 97.838 176.128V174.979C97.838 173.79 98.5193 173.002 99.6949 173.002C100.59 173.002 101.365 173.469 101.365 174.351V176.756C101.365 177.637 100.59 178.105 99.6949 178.105ZM119.896 175.901C120.885 175.901 121.553 175.26 121.82 174.311L120.885 173.95C120.671 174.498 120.391 174.859 119.883 174.859C119.455 174.859 119.015 174.618 118.547 174.391C118.053 174.151 117.585 173.95 117.038 173.95C116.049 173.95 115.381 174.592 115.114 175.54L116.049 175.901C116.263 175.353 116.543 174.992 117.051 174.992C117.478 174.992 117.919 175.233 118.387 175.46C118.881 175.7 119.349 175.901 119.896 175.901ZM126.076 180.844L130.658 168.847H129.549L124.967 180.844H126.076ZM137.159 179.134C137.934 179.134 138.227 178.746 138.227 178.265V177.985C138.227 177.504 137.934 177.13 137.159 177.13C136.384 177.13 136.09 177.504 136.09 177.985V178.265C136.09 178.746 136.384 179.134 137.159 179.134ZM146.558 179.16C148.375 179.16 149.524 178.345 149.524 176.969C149.524 175.513 148.228 175.193 147.186 175.046L146.104 174.885C145.503 174.792 144.955 174.618 144.955 173.95C144.955 173.296 145.516 172.935 146.531 172.935C147.694 172.935 148.308 173.389 148.642 173.79L149.404 173.042C148.762 172.361 147.841 171.947 146.585 171.947C144.902 171.947 143.726 172.668 143.726 174.057C143.726 175.513 145.035 175.834 146.064 175.981L147.146 176.141C147.76 176.235 148.295 176.408 148.295 177.063C148.295 177.824 147.587 178.172 146.585 178.172C145.516 178.172 144.768 177.784 144.14 177.116L143.352 177.824C144.033 178.639 145.102 179.16 146.558 179.16ZM155.904 179.16C157.721 179.16 158.87 178.345 158.87 176.969C158.87 175.513 157.574 175.193 156.532 175.046L155.45 174.885C154.849 174.792 154.301 174.618 154.301 173.95C154.301 173.296 154.862 172.935 155.877 172.935C157.04 172.935 157.654 173.389 157.988 173.79L158.749 173.042C158.108 172.361 157.186 171.947 155.931 171.947C154.248 171.947 153.072 172.668 153.072 174.057C153.072 175.513 154.381 175.834 155.41 175.981L156.492 176.141C157.106 176.235 157.641 176.408 157.641 177.063C157.641 177.824 156.933 178.172 155.931 178.172C154.862 178.172 154.114 177.784 153.486 177.116L152.698 177.824C153.379 178.639 154.448 179.16 155.904 179.16ZM162.418 179H163.66V174.271C163.66 173.403 164.462 173.002 165.277 173.002C166.279 173.002 166.813 173.59 166.813 174.779V179H168.055V174.565C168.055 172.895 167.107 171.947 165.691 171.947C164.555 171.947 164.008 172.561 163.714 173.256H163.66V169.115H162.418V179ZM172.806 180.844L177.388 168.847H176.279L171.697 180.844H172.806ZM183.942 179.16C185.759 179.16 186.907 178.345 186.907 176.969C186.907 175.513 185.612 175.193 184.57 175.046L183.488 174.885C182.886 174.792 182.339 174.618 182.339 173.95C182.339 173.296 182.9 172.935 183.915 172.935C185.077 172.935 185.692 173.389 186.026 173.79L186.787 173.042C186.146 172.361 185.224 171.947 183.969 171.947C182.285 171.947 181.11 172.668 181.11 174.057C181.11 175.513 182.419 175.834 183.448 175.981L184.53 176.141C185.144 176.235 185.678 176.408 185.678 177.063C185.678 177.824 184.97 178.172 183.969 178.172C182.9 178.172 182.152 177.784 181.524 177.116L180.736 177.824C181.417 178.639 182.486 179.16 183.942 179.16ZM193.288 179.16C195.105 179.16 196.253 178.345 196.253 176.969C196.253 175.513 194.958 175.193 193.916 175.046L192.834 174.885C192.232 174.792 191.685 174.618 191.685 173.95C191.685 173.296 192.246 172.935 193.261 172.935C194.423 172.935 195.038 173.389 195.372 173.79L196.133 173.042C195.492 172.361 194.57 171.947 193.314 171.947C191.631 171.947 190.456 172.668 190.456 174.057C190.456 175.513 191.765 175.834 192.793 175.981L193.876 176.141C194.49 176.235 195.024 176.408 195.024 177.063C195.024 177.824 194.316 178.172 193.314 178.172C192.246 178.172 191.498 177.784 190.87 177.116L190.082 177.824C190.763 178.639 191.832 179.16 193.288 179.16ZM199.802 179H201.044V174.271C201.044 173.403 201.846 173.002 202.66 173.002C203.662 173.002 204.197 173.59 204.197 174.779V179H205.439V174.565C205.439 172.895 204.491 171.947 203.075 171.947C201.939 171.947 201.391 172.561 201.097 173.256H201.044V169.115H199.802V179ZM213.903 175.567V174.298H209.949V175.567H213.903ZM218.56 179H219.803V176.529L220.898 175.527L223.45 179H224.972L221.82 174.805L224.639 172.107H223.156L221.018 174.111L219.869 175.233H219.803V169.115H218.56V179ZM230.752 179.16C232.141 179.16 233.116 178.519 233.557 177.637L232.715 176.983C232.341 177.691 231.66 178.118 230.765 178.118C229.509 178.118 228.748 177.29 228.748 176.141V175.861H233.771V175.34C233.771 173.349 232.555 171.947 230.658 171.947C228.761 171.947 227.465 173.349 227.465 175.567C227.465 177.758 228.708 179.16 230.752 179.16ZM230.671 172.935C231.754 172.935 232.475 173.71 232.475 174.859V175.006H228.748V174.899C228.748 173.763 229.549 172.935 230.671 172.935ZM240.966 174.992L240.017 177.49H239.951L239.002 174.992L237.867 172.107H236.571L239.349 178.88L238.641 180.643H237.038V181.672H238.12C239.189 181.672 239.63 181.258 239.964 180.429L243.357 172.107H242.101L240.966 174.992Z" fill="#00CC74"/>
    <path d="M2 7C2 4.23858 4.23858 2 7 2H422C424.761 2 427 4.23858 427 7V36H2V7Z" fill="#32364A"/>
    <path d="M2 7C2 4.23858 4.23858 2 7 2H163C165.761 2 168 4.23858 168 7V36H2V7Z" fill="#5A5E73"/>
    <path d="M52.9962 16.8645C53.624 16.8645 54.0515 16.5172 54.3053 16.1298L53.8244 15.5286C53.5439 15.7557 53.3435 15.8893 53.0363 15.8893C52.7958 15.8893 52.5019 15.7824 52.0878 15.5687C51.7939 15.4218 51.4733 15.2481 51.0191 15.2481C50.3912 15.2481 49.9637 15.5954 49.7099 15.9828L50.1908 16.584C50.4714 16.3569 50.6718 16.2233 50.979 16.2233C51.2195 16.2233 51.5134 16.3302 51.9275 16.5439C52.2214 16.6908 52.542 16.8645 52.9962 16.8645ZM63.3307 21.5668V20.2977H59.3765V21.5668H63.3307ZM67.8674 25H69.1098V23.8511H69.1766C69.5907 24.6927 70.2854 25.1603 71.2873 25.1603C72.9304 25.1603 73.959 23.8511 73.959 21.5534C73.959 19.2557 72.9304 17.9466 71.2873 17.9466C70.2854 17.9466 69.5907 18.4141 69.1766 19.2557H69.1098V15.1145H67.8674V25ZM70.7796 24.105C69.8846 24.105 69.1098 23.6374 69.1098 22.7557V20.3511C69.1098 19.4695 69.8846 19.0019 70.7796 19.0019C71.9552 19.0019 72.6365 19.7901 72.6365 20.979V22.1279C72.6365 23.3168 71.9552 24.105 70.7796 24.105ZM83.4385 25V23.9714H82.5168V20.3244C82.5168 18.8149 81.4748 17.9466 79.805 17.9466C78.3756 17.9466 77.4672 18.6011 77.1065 19.3225L77.8947 19.9504C78.2553 19.3359 78.803 18.9618 79.7114 18.9618C80.7267 18.9618 81.2744 19.4561 81.2744 20.4313V21.0458H79.8718C77.8145 21.0458 76.8794 21.7672 76.8794 23.0763C76.8794 24.3721 77.8011 25.1603 79.2172 25.1603C80.3259 25.1603 81.0072 24.666 81.3011 23.8645H81.3679C81.4481 24.5324 81.8088 25 82.6237 25H83.4385ZM79.5111 24.1851C78.6828 24.1851 78.1618 23.8378 78.1618 23.1698V22.8893C78.1618 22.2481 78.7095 21.9008 79.8851 21.9008H81.2744V22.9695C81.2744 23.6641 80.5397 24.1851 79.5111 24.1851ZM89.4448 25.1603C91.2616 25.1603 92.4104 24.3454 92.4104 22.9695C92.4104 21.5134 91.1146 21.1927 90.0726 21.0458L88.9906 20.8855C88.3894 20.792 87.8417 20.6183 87.8417 19.9504C87.8417 19.2958 88.4028 18.9351 89.4181 18.9351C90.5803 18.9351 91.1948 19.3893 91.5287 19.7901L92.2902 19.042C91.649 18.3607 90.7272 17.9466 89.4715 17.9466C87.7883 17.9466 86.6127 18.6679 86.6127 20.0573C86.6127 21.5134 87.9219 21.834 88.9505 21.9809L90.0326 22.1412C90.6471 22.2347 91.1814 22.4084 91.1814 23.063C91.1814 23.8244 90.4734 24.1718 89.4715 24.1718C88.4028 24.1718 87.6547 23.7844 87.0268 23.1164L86.2387 23.8244C86.92 24.6393 87.9887 25.1603 89.4448 25.1603ZM95.9586 25H97.201V20.271C97.201 19.4027 98.0025 19.0019 98.8174 19.0019C99.8193 19.0019 100.354 19.5897 100.354 20.7786V25H101.596V20.5649C101.596 18.895 100.648 17.9466 99.2315 17.9466C98.096 17.9466 97.5483 18.5611 97.2544 19.2557H97.201V15.1145H95.9586V25Z" fill="white"/>
    <rect x="1" y="1" width="427" height="292" rx="6" stroke="url(#paint1_linear)" stroke-width="2"/>
    <path d="M113 78.8533L113 57C113 54.2386 115.239 52 118 52L474.927 52C477.689 52 479.927 54.2386 479.927 57L479.928 85C479.928 87.7614 482.166 90 484.928 90L541 90" stroke="#00CC74" stroke-width="2"/>
    <path d="M79 84L79 83C79 80.2386 81.2386 78 84 78L144 78C146.761 78 149 80.2386 149 83L149 84" stroke="#00CC74" stroke-width="2"/>
    <path d="M107 113L107 114C107 116.761 109.239 119 112 119L190 119C192.761 119 195 116.761 195 114L195 113" stroke="#00CC74" stroke-width="2"/>
    <path d="M115 181L115 182C115 184.761 117.239 187 120 187L239 187C241.761 187 244 184.761 244 182L244 181" stroke="#00CC74" stroke-width="2"/>
    <path d="M155 119L155 149C155 151.761 157.239 154 160 154L459.716 154L541 154" stroke="#00CC74" stroke-width="2"/>
    <path d="M184 187.5L184 241C184 243.761 186.239 246 189 246L387.865 246L541 246" stroke="#00CC74" stroke-width="2"/>
    <defs>
        <linearGradient id="paint0_linear" x1="214.5" y1="66" x2="214.5" y2="292" gradientUnits="userSpaceOnUse">
            <stop offset="0.469265" stop-color="#1D2033"/>
            <stop offset="1" stop-color="#1D2033" stop-opacity="0"/>
        </linearGradient>
        <linearGradient id="paint1_linear" x1="214.5" y1="2" x2="214.5" y2="292" gradientUnits="userSpaceOnUse">
            <stop stop-color="#3E4257"/>
            <stop offset="1" stop-color="#3E4257" stop-opacity="0.2"/>
        </linearGradient>
    </defs>
</svg>
