<svg width="14" height="14" viewBox="0 0 14 14" fill="none" xmlns="http://www.w3.org/2000/svg">
<path fill-rule="evenodd" clip-rule="evenodd" d="M3 0C1.34315 0 0 1.34315 0 3V11C0 12.6569 1.34315 14 3 14H11C12.6569 14 14 12.6569 14 11V3C14 1.34315 12.6569 0 11 0H3ZM2.5 9.8755H7.033V9.11309H3.46958L6.99157 4.78727V4H2.58287V4.75412H6.00541L2.5 9.06337V9.8755ZM8.91396 7.59657C8.22614 7.69601 7.70406 8.09379 7.70406 8.80647C7.70406 9.43629 8.22614 9.99981 9.03827 9.99981C9.75095 9.99981 10.1487 9.6186 10.3228 9.33684C10.3228 9.62689 10.3476 9.77606 10.3642 9.8755H11.1266C11.11 9.77606 11.0769 9.56888 11.0769 9.22083V7.22365C11.0769 6.44467 10.6128 5.76514 9.41947 5.76514C8.55762 5.76514 7.8698 6.29551 7.78693 7.05791L8.53276 7.23194C8.58248 6.76787 8.8891 6.4281 9.43605 6.4281C10.041 6.4281 10.2979 6.75129 10.2979 7.14078C10.2979 7.28166 10.2316 7.40597 9.99128 7.43912L8.91396 7.59657ZM10.2979 8.16837C10.2979 9.03851 9.7841 9.34513 9.146 9.34513C8.74822 9.34513 8.49961 9.06337 8.49961 8.76504C8.49961 8.4087 8.74822 8.2181 9.0797 8.16837L10.2979 7.98606V8.16837Z" fill="currentColor"/>
</svg>
