<svg width="62" height="28" viewBox="0 0 62 28" fill="none" xmlns="http://www.w3.org/2000/svg">
<path d="M5.14648 2.66504C5.14648 1.83661 5.81806 1.16504 6.64648 1.16504H41.6465C42.4749 1.16504 43.1465 1.83661 43.1465 2.66504V25.665H5.14648V2.66504Z" stroke="currentColor"/>
<mask id="path-2-inside-1" fill="white">
<path fill-rule="evenodd" clip-rule="evenodd" d="M0.073223 27.0918C-0.0842682 26.9343 0.0272737 26.665 0.25 26.665H21.3964C21.5345 26.665 21.6464 26.777 21.6464 26.915C21.6464 27.0531 21.7584 27.165 21.8964 27.165H26.3964C26.5345 27.165 26.6464 27.0531 26.6464 26.915C26.6464 26.777 26.7584 26.665 26.8964 26.665H47.0429C47.2656 26.665 47.3772 26.9343 47.2197 27.0918L46.9393 27.3721C46.7518 27.5597 46.4974 27.665 46.2322 27.665H1.06066C0.795444 27.665 0.54109 27.5597 0.353553 27.3721L0.073223 27.0918Z"/>
</mask>
<path fill-rule="evenodd" clip-rule="evenodd" d="M0.073223 27.0918C-0.0842682 26.9343 0.0272737 26.665 0.25 26.665H21.3964C21.5345 26.665 21.6464 26.777 21.6464 26.915C21.6464 27.0531 21.7584 27.165 21.8964 27.165H26.3964C26.5345 27.165 26.6464 27.0531 26.6464 26.915C26.6464 26.777 26.7584 26.665 26.8964 26.665H47.0429C47.2656 26.665 47.3772 26.9343 47.2197 27.0918L46.9393 27.3721C46.7518 27.5597 46.4974 27.665 46.2322 27.665H1.06066C0.795444 27.665 0.54109 27.5597 0.353553 27.3721L0.073223 27.0918Z" fill="#D8D8D8"/>
<path d="M46.9393 27.3721L46.2322 26.665L46.9393 27.3721ZM47.2197 27.0918L46.5126 26.3847L47.2197 27.0918ZM0.25 27.665H21.3964V25.665H0.25V27.665ZM21.8964 28.165H26.3964V26.165H21.8964V28.165ZM26.8964 27.665H47.0429V25.665H26.8964V27.665ZM46.5126 26.3847L46.2322 26.665L47.6464 28.0793L47.9268 27.7989L46.5126 26.3847ZM46.2322 26.665H1.06066V28.665H46.2322V26.665ZM1.06066 26.665L0.78033 26.3847L-0.633884 27.7989L-0.353553 28.0793L1.06066 26.665ZM1.06066 26.665L1.06066 26.665L-0.353553 28.0793C0.0215196 28.4543 0.530228 28.665 1.06066 28.665V26.665ZM46.2322 26.665V26.665V28.665C46.7627 28.665 47.2714 28.4543 47.6464 28.0793L46.2322 26.665ZM47.0429 27.665C46.3747 27.665 46.0401 26.8572 46.5126 26.3847L47.9268 27.7989C48.7142 27.0115 48.1565 25.665 47.0429 25.665V27.665ZM27.6464 26.915C27.6464 27.3293 27.3107 27.665 26.8964 27.665V25.665C26.2061 25.665 25.6464 26.2247 25.6464 26.915H27.6464ZM26.3964 28.165C27.0868 28.165 27.6464 27.6054 27.6464 26.915H25.6464C25.6464 26.5008 25.9822 26.165 26.3964 26.165V28.165ZM20.6464 26.915C20.6464 27.6054 21.2061 28.165 21.8964 28.165V26.165C22.3107 26.165 22.6464 26.5008 22.6464 26.915H20.6464ZM21.3964 27.665C20.9822 27.665 20.6464 27.3293 20.6464 26.915H22.6464C22.6464 26.2247 22.0868 25.665 21.3964 25.665V27.665ZM0.25 25.665C-0.863628 25.665 -1.42134 27.0115 -0.633884 27.7989L0.78033 26.3847C1.25281 26.8572 0.918176 27.665 0.25 27.665V25.665Z" fill="currentColor" mask="url(#path-2-inside-1)"/>
<path fill-rule="evenodd" clip-rule="evenodd" d="M53.5 6.66504H60.5C61.3284 6.66504 62 7.33661 62 8.16504V25.665C62 26.4935 61.3284 27.165 60.5 27.165H53.5C52.6716 27.165 52 26.4935 52 25.665V8.16504C52 7.33661 52.6716 6.66504 53.5 6.66504ZM53 7.66504C52.7239 7.66504 52.5 7.8889 52.5 8.16504V25.665C52.5 25.9412 52.7239 26.165 53 26.165H61C61.2761 26.165 61.5 25.9412 61.5 25.665V8.16504C61.5 7.8889 61.2761 7.66504 61 7.66504H53Z" fill="currentColor"/>
</svg>
