<svg width="20" height="20" viewBox="0 0 20 20" fill="none" xmlns="http://www.w3.org/2000/svg">
<g id="Group 3">
<g id="Combined Shape phone" fill="currentColor">
<path id="Subtract" fill-rule="evenodd" clip-rule="evenodd" d="M0 4C0 2.89543 0.895431 2 2 2H9.5C9.77614 2 10 2.22386 10 2.5C10 2.77614 9.77614 3 9.5 3H2C1.44772 3 1 3.44771 1 4V12C1 12.5523 1.44772 13 2 13H9C9.55229 13 10 13.4477 10 14V14.6923C10 15.2446 9.55229 15.6923 9 15.6923H2C0.895429 15.6923 0 14.7969 0 13.6923V4ZM10 16.5771C10 16.301 9.77614 16.0771 9.5 16.0771H8.52478C8.10758 16.0771 7.78395 16.4326 7.59738 16.8058L7.43945 17.1216C7.4061 17.1883 7.33792 17.2305 7.26335 17.2305C6.86622 17.2305 6.50319 17.4548 6.32559 17.81C6.28202 17.8972 6.34538 17.9997 6.44281 17.9997H9.5C9.77614 17.9997 10 17.7758 10 17.4997V16.5771Z"/>
<path id="Union" fill-rule="evenodd" clip-rule="evenodd" d="M18.65 2H12.35C11.6044 2 11 2.58547 11 3.30769V16.6923C11 17.4145 11.6044 18 12.35 18H18.65C19.3956 18 20 17.4145 20 16.6923V3.30769C20 2.58547 19.3956 2 18.65 2ZM12 3.42857C12 3.19188 12.1741 3 12.3889 3H13C13 3.55228 13.4477 4 14 4H17C17.5523 4 18 3.55228 18 3H18.6111C18.8259 3 19 3.19188 19 3.42857V16.5714C19 16.8081 18.8259 17 18.6111 17H12.3889C12.1741 17 12 16.8081 12 16.5714V3.42857Z"/>
</g>
</g>
</svg>
