<svg xmlns="http://www.w3.org/2000/svg" width="20" height="17" viewBox="0 0 20 17" fill="none">
    <path fill-rule="evenodd" clip-rule="evenodd"
        d="M0 2.23718C0 1.13261 0.895431 0.237183 2 0.237183H9.5C9.77614 0.237183 10 0.46104 10 0.737183C10 1.01332 9.77614 1.23718 9.5 1.23718H2C1.44772 1.23718 1 1.6849 1 2.23718V10.2372C1 10.7895 1.44772 11.2372 2 11.2372H9C9.55229 11.2372 10 11.6849 10 12.2372V12.9295C10 13.4818 9.55229 13.9295 9 13.9295H2C0.895429 13.9295 0 13.0341 0 11.9295V2.23718ZM10 14.8143C10 14.5382 9.77614 14.3143 9.5 14.3143H8.52478C8.10758 14.3143 7.78395 14.6698 7.59738 15.043L7.43945 15.3588C7.4061 15.4255 7.33792 15.4677 7.26335 15.4677C6.86622 15.4677 6.50319 15.692 6.32559 16.0472C6.28202 16.1344 6.34538 16.2369 6.44281 16.2369H9.5C9.77614 16.2369 10 16.013 10 15.7369V14.8143Z"
        fill="url(#paint0_linear_21_1364)" />
    <path fill-rule="evenodd" clip-rule="evenodd"
        d="M18.65 0.236938H12.35C11.6044 0.236938 11 0.822412 11 1.54463V14.9292C11 15.6515 11.6044 16.2369 12.35 16.2369H18.65C19.3956 16.2369 20 15.6515 20 14.9292V1.54463C20 0.822412 19.3956 0.236938 18.65 0.236938ZM12 1.66551C12 1.42882 12.1741 1.23694 12.3889 1.23694H13C13 1.78922 13.4477 2.23694 14 2.23694H17C17.5523 2.23694 18 1.78922 18 1.23694H18.6111C18.8259 1.23694 19 1.42882 19 1.66551V14.8084C19 15.0451 18.8259 15.2369 18.6111 15.2369H12.3889C12.1741 15.2369 12 15.0451 12 14.8084V1.66551Z"
        fill="url(#paint1_linear_21_1364)" />
    <defs>
        <linearGradient id="paint0_linear_21_1364" x1="-5.64614e-08" y1="0.0553695" x2="10.5525"
            y2="0.428452" gradientUnits="userSpaceOnUse">
            <stop stop-color="#2091F6" />
            <stop offset="1" stop-color="#21B568" />
        </linearGradient>
        <linearGradient id="paint1_linear_21_1364" x1="11" y1="0.0551219" x2="20.4995" y2="0.357384"
            gradientUnits="userSpaceOnUse">
            <stop stop-color="#2091F6" />
            <stop offset="1" stop-color="#21B568" />
        </linearGradient>
    </defs>
</svg>