<svg width="40" height="34" viewBox="0 0 40 34" fill="none" xmlns="http://www.w3.org/2000/svg">
<path fill-rule="evenodd" clip-rule="evenodd" d="M0 4.36873C0 2.04332 1.88512 0.158203 4.21053 0.158203H18.3806C18.9619 0.158203 19.4332 0.629482 19.4332 1.21083C19.4332 1.79219 18.9619 2.26347 18.3806 2.26347H4.21053C3.04782 2.26347 2.10526 3.20602 2.10526 4.36873V21.2108C2.10526 22.3735 3.04782 23.3161 4.21053 23.3161H17.3279C18.4906 23.3161 19.4332 24.2587 19.4332 25.4214V26.8789C19.4332 28.0416 18.4906 28.9841 17.3279 28.9841H4.21052C1.88511 28.9841 0 27.099 0 24.7736V4.36873ZM19.4332 30.8469C19.4332 30.2656 18.9619 29.7943 18.3806 29.7943H16.3275C15.4492 29.7943 14.7678 30.5427 14.375 31.3283L14.0426 31.9932C13.9723 32.1336 13.8288 32.2223 13.6718 32.2223C12.8358 32.2223 12.0715 32.6947 11.6976 33.4425C11.6059 33.6259 11.7393 33.8418 11.9444 33.8418H18.3806C18.9619 33.8418 19.4332 33.3705 19.4332 32.7892V30.8469Z" fill="currentColor"/>
<path fill-rule="evenodd" clip-rule="evenodd" d="M37.158 0.158203H23.8948C22.3252 0.158203 21.0527 1.39078 21.0527 2.91124V31.0894C21.0527 32.6098 22.3252 33.8424 23.8948 33.8424H37.158C38.7276 33.8424 40.0001 32.6098 40.0001 31.0894V2.91124C40.0001 1.39078 38.7276 0.158203 37.158 0.158203ZM23.158 3.16572C23.158 2.66742 23.5245 2.26347 23.9767 2.26347H25.2626C25.2628 3.42603 26.2053 4.36841 27.3679 4.36841H33.6837C34.8463 4.36841 35.7888 3.42603 35.7889 2.26347H37.0761C37.5283 2.26347 37.8948 2.66742 37.8948 3.16572V30.8349C37.8948 31.3332 37.5283 31.7372 37.0761 31.7372H23.9767C23.5245 31.7372 23.158 31.3332 23.158 30.8349V3.16572Z" fill="currentColor"/>
</svg>
