<svg width="8" height="8" viewBox="0 0 8 8" fill="none" xmlns="http://www.w3.org/2000/svg"><path d="M1.2 7.375h5.667c.357 0 .635-.102.834-.306.2-.204.299-.5.299-.886v-3.55c0-.386-.103-.681-.31-.885-.204-.204-.5-.306-.89-.306H3.733c-.129 0-.24-.016-.335-.048a1.102 1.102 0 0 1-.295-.175l-.183-.146a1.26 1.26 0 0 0-.368-.215A1.48 1.48 0 0 0 2.088.8h-.965C.775.8.5.902.299 1.106.099 1.308 0 1.6 0 1.981v4.202c0 .389.102.684.306.886.207.204.504.306.893.306Zm.083-.842c-.143 0-.253-.036-.328-.11C.88 6.352.842 6.24.842 6.089V2.076c0-.141.039-.25.117-.325a.452.452 0 0 1 .328-.113h.575c.132 0 .242.017.332.051.09.034.19.094.299.179l.179.142c.13.102.253.174.368.215.116.039.272.058.466.058h3.211c.143 0 .253.037.328.11.075.073.113.184.113.335v3.364c0 .148-.038.259-.113.332-.075.073-.185.11-.328.11H1.283ZM.539 3.636h6.936v-.7H.54v.7Z" fill="currentColor"/></svg>
