<svg width="64" height="64" viewBox="0 0 64 64" fill="none" xmlns="http://www.w3.org/2000/svg">
<g clip-path="url(#clip0_6068_1108)">
<path fill-rule="evenodd" clip-rule="evenodd" d="M13.4822 27.5725C13.4533 26.1121 13.6296 24.8383 13.9731 23.7468L10.1386 19.8976C9.47392 21.2306 9.08051 22.7453 9.0266 24.3831C3.23156 25.4061 -0.362305 30.6552 -0.362305 37.0069C-0.362305 44.7522 6.36949 51.2168 15.2294 51.2168H41.3388L36.3645 46.2238H15.2385C9.16758 46.2238 4.66077 41.9675 4.66077 37.0069C4.66077 31.9327 7.78397 28.119 12.9775 28.119C13.3462 28.119 13.4913 27.9266 13.4822 27.5725ZM64.3625 38.14C64.3625 32.7145 61.2848 27.9293 56.2668 25.8165C56.2993 14.3029 48.0312 6 37.4266 6C30.6638 6 25.6191 9.51658 22.439 14.1235C21.1748 13.7816 19.897 13.6941 18.6598 13.8378L23.8178 19.0185C23.9439 19.0516 24.0701 19.0894 24.1963 19.1294C24.5098 19.2268 24.7055 19.1503 24.8668 18.8608C27.3677 14.4333 31.0686 10.9932 37.3946 10.9932C45.4158 10.9932 51.0764 17.3673 51.4802 24.7945C51.5607 26.132 51.4665 27.6137 51.3468 28.8437C51.3169 29.1979 51.4527 29.3811 51.7843 29.4528C56.3907 30.3577 59.3393 33.628 59.3393 38.14C59.3393 42.4485 55.6961 45.9344 50.877 46.1972L55.0926 50.4313C60.5479 48.6339 64.3625 43.828 64.3625 38.14ZM54.7488 57.4059C53.9745 58.198 52.7023 58.198 51.8934 57.4059L9.19504 14.5236C8.46215 13.787 8.43224 12.4205 9.19504 11.6538C9.95327 10.8918 11.2623 10.8362 12.0758 11.6538L54.7488 54.5362C55.558 55.3283 55.537 56.6277 54.7488 57.4059Z" fill="url(#paint0_linear_6068_1108)"/>
</g>
<defs>
<linearGradient id="paint0_linear_6068_1108" x1="-0.362305" y1="5.4091" x2="67.6864" y2="10.2004" gradientUnits="userSpaceOnUse">
<stop stop-color="#2091F6"/>
<stop offset="1" stop-color="#21B568"/>
</linearGradient>
<clipPath id="clip0_6068_1108">
<rect width="64" height="64" fill="white"/>
</clipPath>
</defs>
</svg>
