<svg width="14" height="14" viewBox="0 0 14 14" fill="none" xmlns="http://www.w3.org/2000/svg">
<path fill-rule="evenodd" clip-rule="evenodd" d="M1.9126 5.15015C2.04533 3.25446 3.62521 1.75781 5.55466 1.75781C6.683 1.75781 7.6918 2.26966 8.36153 3.07383C8.52999 3.04302 8.70458 3.02682 8.88349 3.02682C8.96703 3.02682 9.04962 3.03035 9.13108 3.03725L1.74096 10.4274C0.718909 10.0037 0 8.99635 0 7.82109C0 6.58107 0.800319 5.52797 1.9126 5.15015ZM5.76974 10.6412H11.1799C12.7374 10.6412 14 9.37861 14 7.82109C14 6.34012 12.8584 5.12577 11.4073 5.00998C11.407 5.00812 11.4068 5.00626 11.4066 5.0044L5.76974 10.6412Z" fill="#F25E61"/>
<rect x="11.8477" y="1.3999" width="1.5" height="15.3409" rx="0.75" transform="rotate(45 11.8477 1.3999)" fill="#F25E61"/>
</svg>
