<svg width="18" height="18" viewBox="0 0 8 8" fill="none" xmlns="http://www.w3.org/2000/svg">
<path d="M7.65382 1.17808e-05C7.58531 0.00722332 7.52041 0.0384733 7.47113 0.0865502L6.96151 0.596166C6.28363 0.106983 5.34252 0.194723 4.71151 0.798089C4.71151 0.822127 4.44829 1.07814 4.21151 1.3077L3.91344 1.00963C3.84974 0.941118 3.75719 0.906262 3.66344 0.913473C3.65022 0.915877 3.637 0.919483 3.62498 0.923089C3.50959 0.943521 3.41704 1.02766 3.38459 1.13943C3.35214 1.25242 3.38579 1.37261 3.47113 1.45193L4.17305 2.15386L3.16344 3.16347C3.04084 3.28607 3.04084 3.48318 3.16344 3.60578C3.28603 3.72838 3.48315 3.72838 3.60575 3.60578L4.61536 2.59617L5.40382 3.38463L4.39421 4.39424C4.27161 4.51684 4.27161 4.71395 4.39421 4.83655C4.5168 4.95915 4.71392 4.95915 4.83651 4.83655L5.84613 3.82693L6.54805 4.52886C6.67065 4.65145 6.86776 4.65145 6.99036 4.52886C7.11296 4.40626 7.11296 4.20915 6.99036 4.08655L6.69228 3.78847L7.2019 3.28847C7.80526 2.68511 7.86656 1.74761 7.39421 1.04809L7.91344 0.528858C8.0132 0.43631 8.03964 0.289675 7.97954 0.168281C7.92065 0.045685 7.78724 -0.0216228 7.65382 1.17808e-05ZM1.2019 3.37501C1.18868 3.37742 1.17546 3.38102 1.16344 3.38463C1.04805 3.40506 0.955506 3.48919 0.923054 3.60097C0.890602 3.71395 0.924255 3.83415 1.00959 3.91347L1.30767 4.21155L0.798054 4.71155C0.194688 5.31492 0.13339 6.25242 0.605746 6.95193L0.0865151 7.47117C-0.0360812 7.59376 -0.0360812 7.79088 0.0865151 7.91347C0.209111 8.03607 0.406227 8.03607 0.528823 7.91347L1.03844 7.40386C1.71632 7.89304 2.65743 7.8053 3.28844 7.20193C3.28844 7.1779 3.55166 6.92189 3.78844 6.69232L4.08651 6.9904C4.20911 7.11299 4.40623 7.11299 4.52882 6.9904C4.65142 6.8678 4.65142 6.67068 4.52882 6.54809L1.4519 3.47117C1.3882 3.40266 1.29565 3.3678 1.2019 3.37501Z" fill="currentColor"/>
</svg>
