<svg width="14" height="14" viewBox="0 0 14 14" fill="none" xmlns="http://www.w3.org/2000/svg">
<path d="M3.41907 11.2171C2.9382 11.2171 2.48952 11.1357 2.07302 10.9729C1.66031 10.8139 1.29872 10.5905 0.988235 10.3027C0.677755 10.015 0.435429 9.68367 0.261258 9.30883C0.0870859 8.93019 0 8.52884 0 8.10477C0 7.64284 0.0814064 7.21877 0.244219 6.83256C0.407032 6.44635 0.637999 6.12262 0.93712 5.86136C1.24003 5.6001 1.59973 5.42783 2.01623 5.34453C2.02001 5.23472 2.03327 5.12871 2.05598 5.02647C2.0787 4.92046 2.1071 4.82201 2.14118 4.73114L3.22028 5.81025C3.20514 5.86326 3.19378 5.92194 3.18621 5.98631C3.17863 6.04689 3.17674 6.11126 3.18053 6.17942C3.1881 6.26271 3.15024 6.30436 3.06694 6.30436C2.71481 6.30436 2.41001 6.38009 2.15254 6.53154C1.89506 6.683 1.69439 6.89503 1.55051 7.16765C1.41041 7.43648 1.34037 7.74885 1.34037 8.10477C1.34037 8.4304 1.43124 8.73141 1.61298 9.00781C1.79473 9.28043 2.04273 9.50004 2.357 9.66664C2.67126 9.82945 3.02718 9.91086 3.42475 9.91086H7.32657L8.64422 11.2171H3.41907ZM11.7793 11.0752L10.6207 9.91086H10.8819C11.2151 9.91086 11.5162 9.84081 11.785 9.70071C12.0538 9.55683 12.2659 9.36752 12.4211 9.13276C12.5801 8.89422 12.6596 8.62918 12.6596 8.33763C12.6596 7.87948 12.5158 7.49706 12.228 7.19037C11.9402 6.87989 11.5521 6.683 11.0637 6.5997C10.9918 6.59213 10.9596 6.54858 10.9671 6.46907C10.9785 6.33276 10.9899 6.1832 11.0012 6.02039C11.0126 5.85758 11.0126 5.69287 11.0012 5.52627C10.9747 5.0189 10.8365 4.55318 10.5866 4.12911C10.3367 3.70504 9.99973 3.36616 9.57566 3.11248C9.15538 2.85879 8.6764 2.73195 8.13874 2.73195C7.71846 2.73195 7.3474 2.802 7.02556 2.94209C6.70751 3.0784 6.42921 3.26772 6.19067 3.51004C5.95592 3.75237 5.74767 4.03067 5.56592 4.34493C5.53563 4.40551 5.48452 4.42634 5.41258 4.40741C5.35199 4.38848 5.29141 4.37522 5.23083 4.36765C5.17025 4.35629 5.11156 4.34872 5.05477 4.34493L3.85071 3.14655C4.02488 3.09733 4.20284 3.07272 4.38458 3.07272C4.56633 3.06893 4.74807 3.08597 4.92982 3.12384C5.16836 2.78685 5.44855 2.49152 5.77039 2.23783C6.09601 1.98036 6.45761 1.77969 6.85517 1.6358C7.25653 1.49192 7.69006 1.41998 8.15578 1.41998C8.73509 1.41998 9.27275 1.526 9.76876 1.73804C10.2686 1.94628 10.704 2.24162 11.0751 2.62404C11.4461 3.00267 11.7358 3.45136 11.944 3.97008C12.1523 4.48503 12.2564 5.05298 12.2564 5.67394C12.6199 5.82161 12.9304 6.03175 13.1878 6.30436C13.4491 6.57319 13.6498 6.88367 13.7899 7.2358C13.93 7.58415 14 7.95142 14 8.33763C14 8.77306 13.9034 9.1782 13.7103 9.55305C13.521 9.92411 13.2598 10.2422 12.9266 10.5072C12.5934 10.7722 12.211 10.9616 11.7793 11.0752ZM10.8706 12.4382L1.71521 3.29422C1.6357 3.21471 1.59405 3.11058 1.59026 2.98185C1.59026 2.85311 1.63191 2.7471 1.71521 2.6638C1.8023 2.57671 1.90642 2.53317 2.02759 2.53317C2.15254 2.52938 2.26045 2.57292 2.35132 2.6638L11.501 11.8078C11.5919 11.8949 11.6373 12.0009 11.6373 12.1259C11.6373 12.2508 11.5919 12.3549 11.501 12.4382C11.4177 12.5253 11.3136 12.5689 11.1886 12.5689C11.0675 12.5689 10.9615 12.5253 10.8706 12.4382Z" fill="currentColor"/>
</svg>
