<svg xmlns="http://www.w3.org/2000/svg" width="8" height="14" viewBox="0 0 8 14" fill="none">
    <path d="M3.89097 12.1246C5.98338 12.1246 7.80065 11.1366 7.80065 9.2C7.80065 7.4415 6.3874 6.81316 4.69331 6.4293L3.54744 6.16517C2.43976 5.91314 1.61055 5.4881 1.61055 4.57839C1.61055 3.56509 2.72993 3.04325 3.8936 3.04325C5.02695 3.04325 5.86952 3.53275 6.20424 4.47029C6.3459 4.78018 6.56958 4.97849 6.93363 4.97849C7.31168 4.97849 7.59537 4.75188 7.59537 4.38135C7.59537 3.84034 7.20491 3.20519 6.70831 2.80463C5.96513 2.15516 4.95079 1.86132 3.885 1.86132C1.94823 1.86132 0.162812 2.83454 0.162812 4.69828C0.162812 6.34477 1.57451 7.07703 3.1588 7.42299L4.3085 7.67769C5.5038 7.94274 6.35996 8.30644 6.35996 9.33028C6.35996 10.501 5.17913 10.9484 3.91043 10.9484C2.67419 10.9484 1.69613 10.4865 1.39056 9.45884C1.26129 9.13116 1.0431 8.9518 0.692532 8.9518C0.279902 8.9518 0 9.20556 0 9.57327C0 10.1104 0.367277 10.7154 0.784447 11.0955C1.59873 11.8289 2.76705 12.1246 3.89097 12.1246ZM3.88691 13.5041C4.09424 13.5041 4.26194 13.3371 4.26194 13.1364V0.871698C4.26194 0.675805 4.09424 0.508789 3.88691 0.508789C3.6785 0.508789 3.5108 0.675805 3.5108 0.871698V13.1364C3.5108 13.3371 3.6785 13.5041 3.88691 13.5041Z" fill="currentColor"/>
</svg>
