<svg width="16" height="4" viewBox="0 0 16 4" fill="none" xmlns="http://www.w3.org/2000/svg">
<path d="M2.00396 3.5C2.83509 3.5 3.5 2.83509 3.5 2.00396C3.5 1.17282 2.83509 0.5 2.00396 0.5C1.17282 0.5 0.5 1.17282 0.5 2.00396C0.5 2.83509 1.17282 3.5 2.00396 3.5Z" fill="currentColor"/>
<path d="M8.00396 3.50001C8.8351 3.50001 9.5 2.8351 9.5 2.00397C9.5 1.17282 8.8351 0.5 8.00396 0.5C7.17282 0.5 6.5 1.17282 6.5 2.00397C6.5 2.8351 7.17282 3.50001 8.00396 3.50001Z" fill="currentColor"/>
<path d="M14.0001 3.5C14.829 3.5 15.5 2.83509 15.5 2.00396C15.5 1.17282 14.829 0.5 14.0001 0.5C13.171 0.5 12.5 1.17282 12.5 2.00396C12.5 2.83509 13.171 3.5 14.0001 3.5Z" fill="currentColor"/>
</svg>
