<svg width="14" height="14" viewBox="0 0 14 14" fill="none" xmlns="http://www.w3.org/2000/svg">
<g clip-path="url(#clip0_4051_13448)">
<path fill-rule="evenodd" clip-rule="evenodd" d="M0.753918 0.000488281C0.33754 0.000488281 0 0.338029 0 0.754406V8.29358C0 8.70996 0.33754 9.0475 0.753918 9.0475H3.14987V8.28902C3.12376 8.29198 3.09722 8.29349 3.07033 8.29349H1.45466C1.06806 8.29349 0.754655 7.98009 0.754655 7.59349V5.97782C0.754655 5.59122 1.06806 5.27782 1.45466 5.27782H3.07033C3.09722 5.27782 3.12376 5.27934 3.14987 5.28229V4.151C3.14987 3.59871 3.59758 3.151 4.14987 3.151H5.28107C5.27801 3.12444 5.27644 3.09742 5.27644 3.07005V1.45437C5.27644 1.06778 5.58984 0.754375 5.97644 0.754375H7.59211C7.97871 0.754375 8.29211 1.06778 8.29211 1.45437V3.07005C8.29211 3.09742 8.29053 3.12444 8.28748 3.151H9.04701V0.754406C9.04701 0.338029 8.70947 0.000488281 8.29309 0.000488281H0.753918ZM4.95494 4.20099C4.53857 4.20099 4.20103 4.53854 4.20103 4.95491V12.4941C4.20103 12.9105 4.53857 13.248 4.95494 13.248H7.69875C8.26527 13.248 8.72453 12.7887 8.72453 12.2222V9.47842C8.72453 9.06204 9.06207 8.7245 9.47845 8.7245H12.2223C12.7888 8.7245 13.248 8.26524 13.248 7.69872V4.95491C13.248 4.53854 12.9105 4.20099 12.4941 4.20099H4.95494ZM9.47746 5.65488C9.47746 5.26828 9.79086 4.95488 10.1775 4.95488H11.7931C12.1797 4.95488 12.4931 5.26828 12.4931 5.65488V7.27055C12.4931 7.65715 12.1797 7.97055 11.7931 7.97055H10.1775C9.79086 7.97055 9.47746 7.65715 9.47746 7.27055V5.65488ZM5.65568 9.47846C5.26908 9.47846 4.95568 9.79186 4.95568 10.1785V11.7941C4.95568 12.1807 5.26908 12.4941 5.65568 12.4941H7.27135C7.65795 12.4941 7.97135 12.1807 7.97135 11.7941V10.1785C7.97135 9.79186 7.65795 9.47846 7.27135 9.47846H5.65568ZM9.47686 10.5042C9.47686 9.93769 9.93612 9.47843 10.5026 9.47843H12.9746C13.5411 9.47843 14.0004 9.93769 14.0004 10.5042V12.9762C14.0004 13.5427 13.5411 14.0019 12.9746 14.0019H10.5026C9.93612 14.0019 9.47686 13.5427 9.47686 12.9762V10.5042Z" fill="currentColor"/>
</g>
<defs>
<clipPath id="clip0_4051_13448">
<rect width="14" height="14" fill="white"/>
</clipPath>
</defs>
</svg>
