<svg width="19" height="16" viewBox="0 0 19 16" fill="none" xmlns="http://www.w3.org/2000/svg">
<path fill-rule="evenodd" clip-rule="evenodd" d="M0.21967 0.96967C0.512563 0.676777 0.987437 0.676777 1.28033 0.96967L6.56066 6.25H11.5925L17.1309 12.6405L17.4828 7.71372C17.5123 7.30056 17.8712 6.98955 18.2844 7.01906C18.6975 7.04857 19.0085 7.40743 18.979 7.82059L18.4981 14.5534C18.4686 14.9666 18.1097 15.2776 17.6966 15.2481L10.9637 14.7672C10.5506 14.7377 10.2395 14.3788 10.2691 13.9656C10.2986 13.5525 10.6574 13.2415 11.0706 13.271L15.9974 13.6229L10.9075 7.75H5.93934L0.21967 2.03033C-0.0732233 1.73744 -0.0732233 1.26256 0.21967 0.96967Z" fill="currentColor"/>
</svg>
