<svg width="17" height="16" viewBox="0 0 17 16" fill="none" xmlns="http://www.w3.org/2000/svg">
<path fill-rule="evenodd" clip-rule="evenodd" d="M0.5 10.0455V14.1819C0.5 15.0354 1.19192 15.7273 2.04545 15.7273H14.9545C15.8081 15.7273 16.5 15.0354 16.5 14.1819V10.0455H14.9545V14.1819H2.04545L2.04545 10.0455H0.5Z" fill="currentColor"/>
<path d="M7.96967 10.5303C8.26256 10.8232 8.73744 10.8232 9.03033 10.5303L13.8033 5.75736C14.0962 5.46447 14.0962 4.98959 13.8033 4.6967C13.5104 4.40381 13.0355 4.40381 12.7426 4.6967L8.5 8.93934L4.25736 4.6967C3.96447 4.40381 3.48959 4.40381 3.1967 4.6967C2.90381 4.98959 2.90381 5.46447 3.1967 5.75736L7.96967 10.5303ZM7.75 3.27835e-08L7.75 10L9.25 10L9.25 -3.27835e-08L7.75 3.27835e-08Z" fill="currentColor"/>
</svg>
