<svg width="21" height="20" viewBox="0 0 21 20" fill="none" xmlns="http://www.w3.org/2000/svg">
<path fill-rule="evenodd" clip-rule="evenodd" d="M1.91752 10.0836V17.3321C1.91752 18.0688 2.51479 18.6661 3.25155 18.6661H17.7484C18.4852 18.6661 19.0825 18.0688 19.0825 17.3321V10.0836H20.4165V17.3321C20.4165 18.8056 19.222 20.0001 17.7484 20.0001H3.25155C1.77802 20.0001 0.583496 18.8056 0.583496 17.3321V10.0836H1.91752Z" fill="currentColor"/>
<path d="M10.0283 15.1481C10.2888 15.4086 10.7112 15.4086 10.9716 15.1481L15.2165 10.9032C15.477 10.6427 15.477 10.2204 15.2165 9.95992C14.956 9.69943 14.5337 9.69943 14.2732 9.95992L10.5 13.7331L6.7268 9.95992C6.46631 9.69943 6.04398 9.69943 5.7835 9.95992C5.52301 10.2204 5.52301 10.6427 5.7835 10.9032L10.0283 15.1481ZM9.83299 -2.28431e-08L9.83299 14.6764L11.167 14.6764L11.167 2.28431e-08L9.83299 -2.28431e-08Z" fill="currentColor"/>
</svg>
