<svg width="20" height="20" viewBox="0 0 20 20" fill="none" xmlns="http://www.w3.org/2000/svg">
<path fill-rule="evenodd" clip-rule="evenodd" d="M4 0C1.79086 0 0 1.79086 0 4V16C0 18.2091 1.79086 20 4 20H16C18.2091 20 20 18.2091 20 16V4C20 1.79086 18.2091 0 16 0H4ZM8.254 7.13701V12.48H9.45C10.867 12.48 12.024 11.661 12.024 9.81501C12.024 7.96901 10.867 7.13701 9.45 7.13701H8.254ZM14.169 9.81501C14.169 12.662 12.31 14.417 9.528 14.417H6.2V5.20001H9.541C12.31 5.20001 14.169 6.96801 14.169 9.81501Z" fill="currentColor"/>
</svg>
