<svg width="250" height="150" viewBox="0 0 250 150" fill="none" xmlns="http://www.w3.org/2000/svg">
<g id="dynamic-port-forwarding">
<g id="dynamic-port-forwarding-cloud-2">
<g id="cloud">
<mask id="path-1-outside-1_2882_1035" maskUnits="userSpaceOnUse" x="208.777" y="104.619" width="39" height="28" fill="black">
<rect fill="white" x="208.777" y="104.619" width="39" height="28"/>
<path fill-rule="evenodd" clip-rule="evenodd" d="M224.146 108.619C225.749 108.619 227.191 109.292 228.186 110.363C229.402 109.279 231.02 108.619 232.796 108.619C236.572 108.619 239.633 111.606 239.633 115.291C239.633 115.469 239.626 115.645 239.612 115.82C241.959 116.877 243.587 119.194 243.587 121.882C243.587 125.567 240.526 128.554 236.75 128.554C234.68 128.554 232.826 127.657 231.572 126.24C230.375 127.8 228.198 128.554 225.711 128.554C222.534 128.554 219.862 127.324 219.095 124.753C218.967 124.761 218.838 124.765 218.709 124.765C215.433 124.765 212.777 122.22 212.777 119.081C212.777 115.942 215.433 113.397 218.709 113.397L218.732 113.397C218.989 110.717 221.315 108.619 224.146 108.619Z"/>
</mask>
<path fill-rule="evenodd" clip-rule="evenodd" d="M224.146 108.619C225.749 108.619 227.191 109.292 228.186 110.363C229.402 109.279 231.02 108.619 232.796 108.619C236.572 108.619 239.633 111.606 239.633 115.291C239.633 115.469 239.626 115.645 239.612 115.82C241.959 116.877 243.587 119.194 243.587 121.882C243.587 125.567 240.526 128.554 236.75 128.554C234.68 128.554 232.826 127.657 231.572 126.24C230.375 127.8 228.198 128.554 225.711 128.554C222.534 128.554 219.862 127.324 219.095 124.753C218.967 124.761 218.838 124.765 218.709 124.765C215.433 124.765 212.777 122.22 212.777 119.081C212.777 115.942 215.433 113.397 218.709 113.397L218.732 113.397C218.989 110.717 221.315 108.619 224.146 108.619Z" fill="#282B3D"/>
<path d="M228.186 110.363L225.842 112.541L227.975 114.837L230.315 112.752L228.186 110.363ZM239.612 115.82L236.422 115.564L236.242 117.811L238.298 118.738L239.612 115.82ZM231.572 126.24L233.969 124.12L231.395 121.21L229.032 124.293L231.572 126.24ZM219.095 124.753L222.161 123.838L221.435 121.403L218.898 121.559L219.095 124.753ZM218.709 113.397L218.715 110.197H218.709V113.397ZM218.732 113.397L218.726 116.597L221.64 116.602L221.918 113.702L218.732 113.397ZM230.53 108.185C228.943 106.477 226.659 105.419 224.146 105.419V111.819C224.84 111.819 225.438 112.107 225.842 112.541L230.53 108.185ZM232.796 105.419C230.214 105.419 227.843 106.382 226.057 107.974L230.315 112.752C230.96 112.177 231.825 111.819 232.796 111.819V105.419ZM242.833 115.291C242.833 109.766 238.265 105.419 232.796 105.419V111.819C234.878 111.819 236.433 113.447 236.433 115.291H242.833ZM242.802 116.076C242.822 115.816 242.833 115.555 242.833 115.291H236.433C236.433 115.384 236.429 115.475 236.422 115.564L242.802 116.076ZM246.787 121.882C246.787 117.856 244.347 114.443 240.926 112.902L238.298 118.738C239.57 119.311 240.387 120.531 240.387 121.882H246.787ZM236.75 131.754C242.219 131.754 246.787 127.407 246.787 121.882H240.387C240.387 123.726 238.833 125.354 236.75 125.354V131.754ZM229.175 128.36C231.02 130.446 233.74 131.754 236.75 131.754V125.354C235.621 125.354 234.631 124.868 233.969 124.12L229.175 128.36ZM225.711 131.754C228.706 131.754 232.064 130.857 234.111 128.186L229.032 124.293C228.686 124.744 227.69 125.354 225.711 125.354V131.754ZM216.029 125.668C217.398 130.255 221.955 131.754 225.711 131.754V125.354C224.503 125.354 223.599 125.116 223.024 124.804C222.501 124.521 222.27 124.202 222.161 123.838L216.029 125.668ZM218.709 127.965C218.904 127.965 219.099 127.959 219.292 127.947L218.898 121.559C218.836 121.563 218.773 121.565 218.709 121.565V127.965ZM209.577 119.081C209.577 124.114 213.795 127.965 218.709 127.965V121.565C217.07 121.565 215.977 120.326 215.977 119.081H209.577ZM218.709 110.197C213.795 110.197 209.577 114.047 209.577 119.081H215.977C215.977 117.836 217.07 116.597 218.709 116.597V110.197ZM218.738 110.197L218.715 110.197L218.702 116.597L218.726 116.597L218.738 110.197ZM224.146 105.419C219.731 105.419 215.967 108.706 215.547 113.091L221.918 113.702C222.011 112.727 222.899 111.819 224.146 111.819V105.419Z" fill="#5A5E73" mask="url(#path-1-outside-1_2882_1035)"/>
</g>
<g id="Subtract">
<mask id="path-3-outside-2_2882_1035" maskUnits="userSpaceOnUse" x="188.859" y="103.68" width="51" height="36" fill="black">
<rect fill="white" x="188.859" y="103.68" width="51" height="36"/>
<path fill-rule="evenodd" clip-rule="evenodd" d="M208.924 107.68C211.19 107.68 213.227 108.632 214.634 110.145C216.351 108.614 218.638 107.68 221.147 107.68C226.483 107.68 230.809 111.902 230.809 117.109C230.809 117.361 230.799 117.61 230.779 117.856C234.096 119.35 236.397 122.624 236.397 126.422C236.397 131.63 232.071 135.852 226.735 135.852C223.811 135.852 221.19 134.584 219.418 132.581C217.727 134.786 214.651 135.851 211.136 135.851C206.646 135.851 202.871 134.113 201.787 130.48C201.606 130.491 201.424 130.497 201.241 130.497C196.612 130.497 192.859 126.901 192.859 122.464C192.859 118.028 196.612 114.432 201.241 114.432L201.274 114.432C201.637 110.645 204.924 107.68 208.924 107.68Z"/>
</mask>
<path fill-rule="evenodd" clip-rule="evenodd" d="M208.924 107.68C211.19 107.68 213.227 108.632 214.634 110.145C216.351 108.614 218.638 107.68 221.147 107.68C226.483 107.68 230.809 111.902 230.809 117.109C230.809 117.361 230.799 117.61 230.779 117.856C234.096 119.35 236.397 122.624 236.397 126.422C236.397 131.63 232.071 135.852 226.735 135.852C223.811 135.852 221.19 134.584 219.418 132.581C217.727 134.786 214.651 135.851 211.136 135.851C206.646 135.851 202.871 134.113 201.787 130.48C201.606 130.491 201.424 130.497 201.241 130.497C196.612 130.497 192.859 126.901 192.859 122.464C192.859 118.028 196.612 114.432 201.241 114.432L201.274 114.432C201.637 110.645 204.924 107.68 208.924 107.68Z" fill="#3E4257"/>
<path d="M214.634 110.145L212.289 112.323L214.423 114.619L216.763 112.534L214.634 110.145ZM230.779 117.856L227.59 117.6L227.409 119.848L229.465 120.774L230.779 117.856ZM219.418 132.581L221.815 130.461L219.241 127.551L216.878 130.634L219.418 132.581ZM201.787 130.48L204.853 129.565L204.127 127.13L201.59 127.286L201.787 130.48ZM201.241 114.432L201.247 111.232H201.241V114.432ZM201.274 114.432L201.268 117.632L204.182 117.638L204.46 114.737L201.274 114.432ZM216.978 107.967C214.98 105.817 212.1 104.48 208.924 104.48V110.88C210.281 110.88 211.475 111.447 212.289 112.323L216.978 107.967ZM221.147 104.48C217.832 104.48 214.793 105.717 212.504 107.756L216.763 112.534C217.91 111.511 219.443 110.88 221.147 110.88V104.48ZM234.009 117.109C234.009 110.061 228.177 104.48 221.147 104.48V110.88C224.79 110.88 227.609 113.742 227.609 117.109H234.009ZM233.969 118.113C233.996 117.781 234.009 117.446 234.009 117.109H227.609C227.609 117.275 227.603 117.439 227.59 117.6L233.969 118.113ZM239.597 126.422C239.597 121.286 236.484 116.916 232.094 114.939L229.465 120.774C231.707 121.784 233.197 123.962 233.197 126.422H239.597ZM226.735 139.052C233.764 139.052 239.597 133.47 239.597 126.422H233.197C233.197 129.79 230.378 132.652 226.735 132.652V139.052ZM217.021 134.701C219.384 137.372 222.87 139.052 226.735 139.052V132.652C224.751 132.652 222.995 131.795 221.815 130.461L217.021 134.701ZM211.136 139.051C215.159 139.051 219.416 137.843 221.958 134.527L216.878 130.634C216.038 131.73 214.143 132.651 211.136 132.651V139.051ZM198.721 131.395C200.407 137.044 206.068 139.051 211.136 139.051V132.651C207.224 132.651 205.336 131.182 204.853 129.565L198.721 131.395ZM201.241 133.697C201.49 133.697 201.738 133.689 201.984 133.674L201.59 127.286C201.475 127.293 201.359 127.297 201.241 127.297V133.697ZM189.659 122.464C189.659 128.795 194.974 133.697 201.241 133.697V127.297C198.25 127.297 196.059 125.006 196.059 122.464H189.659ZM201.241 111.232C194.974 111.232 189.659 116.134 189.659 122.464H196.059C196.059 119.923 198.25 117.632 201.241 117.632V111.232ZM201.28 111.232L201.247 111.232L201.235 117.632L201.268 117.632L201.28 111.232ZM208.924 104.48C203.34 104.48 198.615 108.634 198.089 114.127L204.46 114.737C204.659 112.656 206.508 110.88 208.924 110.88V104.48Z" fill="#5A5E73" mask="url(#path-3-outside-2_2882_1035)"/>
</g>
</g>
<g id="dynamic-port-forwarding-cloud-1">
<g id="cloud_2">
<mask id="path-5-outside-3_2882_1035" maskUnits="userSpaceOnUse" x="212.027" y="28.5405" width="37" height="26" fill="black">
<rect fill="white" x="212.027" y="28.5405" width="37" height="26"/>
<path fill-rule="evenodd" clip-rule="evenodd" d="M226.396 31.5405C227.999 31.5405 229.441 32.2138 230.436 33.2847C231.652 32.2013 233.27 31.5405 235.046 31.5405C238.822 31.5405 241.883 34.528 241.883 38.2133C241.883 38.3912 241.876 38.5675 241.862 38.7419C244.209 39.799 245.837 42.1157 245.837 44.8037C245.837 48.4889 242.776 51.4764 239 51.4764C236.93 51.4764 235.076 50.5793 233.822 49.1617C232.625 50.7226 230.448 51.4765 227.961 51.4765C224.784 51.4765 222.112 50.2462 221.345 47.6752C221.217 47.6831 221.088 47.6871 220.959 47.6871C217.683 47.6871 215.027 45.1422 215.027 42.0029C215.027 38.8636 217.683 36.3187 220.959 36.3187L220.982 36.3188C221.239 33.6386 223.565 31.5405 226.396 31.5405Z"/>
</mask>
<path fill-rule="evenodd" clip-rule="evenodd" d="M226.396 31.5405C227.999 31.5405 229.441 32.2138 230.436 33.2847C231.652 32.2013 233.27 31.5405 235.046 31.5405C238.822 31.5405 241.883 34.528 241.883 38.2133C241.883 38.3912 241.876 38.5675 241.862 38.7419C244.209 39.799 245.837 42.1157 245.837 44.8037C245.837 48.4889 242.776 51.4764 239 51.4764C236.93 51.4764 235.076 50.5793 233.822 49.1617C232.625 50.7226 230.448 51.4765 227.961 51.4765C224.784 51.4765 222.112 50.2462 221.345 47.6752C221.217 47.6831 221.088 47.6871 220.959 47.6871C217.683 47.6871 215.027 45.1422 215.027 42.0029C215.027 38.8636 217.683 36.3187 220.959 36.3187L220.982 36.3188C221.239 33.6386 223.565 31.5405 226.396 31.5405Z" fill="#282B3D"/>
<path d="M230.436 33.2847L228.341 35.2316L230.248 37.2836L232.339 35.4199L230.436 33.2847ZM241.862 38.7419L239.011 38.513L238.85 40.5219L240.687 41.3496L241.862 38.7419ZM233.822 49.1617L235.964 47.2669L233.664 44.6665L231.552 47.4218L233.822 49.1617ZM221.345 47.6752L224.086 46.8573L223.436 44.6809L221.169 44.8206L221.345 47.6752ZM220.959 36.3187L220.964 33.4587H220.959V36.3187ZM220.982 36.3188L220.977 39.1788L223.581 39.1839L223.829 36.5916L220.982 36.3188ZM232.531 31.3379C231.007 29.6978 228.812 28.6805 226.396 28.6805V34.4006C227.187 34.4006 227.875 34.7298 228.341 35.2316L232.531 31.3379ZM235.046 28.6805C232.549 28.6805 230.259 29.6118 228.533 31.1496L232.339 35.4199C233.045 34.7909 233.99 34.4006 235.046 34.4006V28.6805ZM244.743 38.2133C244.743 32.8831 240.335 28.6805 235.046 28.6805V34.4006C237.308 34.4006 239.023 36.1729 239.023 38.2133H244.743ZM244.713 38.9709C244.733 38.7204 244.743 38.4677 244.743 38.2133H239.023C239.023 38.3147 239.019 38.4146 239.011 38.513L244.713 38.9709ZM248.697 44.8037C248.697 40.9202 246.343 37.6237 243.036 36.1342L240.687 41.3496C242.074 41.9743 242.977 43.3113 242.977 44.8037H248.697ZM239 54.3365C244.289 54.3365 248.697 50.1339 248.697 44.8037H242.977C242.977 46.844 241.263 48.6164 239 48.6164V54.3365ZM231.68 51.0566C233.462 53.0717 236.09 54.3365 239 54.3365V48.6164C237.771 48.6164 236.689 48.0868 235.964 47.2669L231.68 51.0566ZM227.961 54.3365C230.902 54.3365 234.135 53.4544 236.092 50.9017L231.552 47.4218C231.116 47.9908 229.994 48.6164 227.961 48.6164V54.3365ZM218.604 48.4932C219.91 52.8661 224.267 54.3365 227.961 54.3365V48.6164C225.3 48.6164 224.315 47.6264 224.086 46.8573L218.604 48.4932ZM220.959 50.5472C221.147 50.5472 221.335 50.5414 221.521 50.5299L221.169 44.8206C221.1 44.8249 221.03 44.8271 220.959 44.8271V50.5472ZM212.167 42.0029C212.167 46.8353 216.219 50.5472 220.959 50.5472V44.8271C219.147 44.8271 217.887 43.4492 217.887 42.0029H212.167ZM220.959 33.4587C216.219 33.4587 212.167 37.1706 212.167 42.0029H217.887C217.887 40.5567 219.147 39.1788 220.959 39.1788V33.4587ZM220.988 33.4588L220.964 33.4587L220.953 39.1788L220.977 39.1788L220.988 33.4588ZM226.396 28.6805C222.149 28.6805 218.538 31.8416 218.135 36.046L223.829 36.5916C223.94 35.4357 224.981 34.4006 226.396 34.4006V28.6805Z" fill="#5A5E73" mask="url(#path-5-outside-3_2882_1035)"/>
</g>
<g id="Subtract_2">
<mask id="path-7-outside-4_2882_1035" maskUnits="userSpaceOnUse" x="192.109" y="27.6025" width="50" height="35" fill="black">
<rect fill="white" x="192.109" y="27.6025" width="50" height="35"/>
<path fill-rule="evenodd" clip-rule="evenodd" d="M211.174 30.6025C213.44 30.6025 215.477 31.5539 216.884 33.0673C218.601 31.5363 220.888 30.6025 223.397 30.6025C228.733 30.6025 233.059 34.8242 233.059 40.0318C233.059 40.2832 233.049 40.5323 233.029 40.7788C236.346 42.2725 238.647 45.5463 238.647 49.3447C238.647 54.5524 234.321 58.774 228.985 58.774C226.061 58.774 223.44 57.5062 221.668 55.503C219.977 57.7087 216.901 58.7741 213.386 58.7741C208.896 58.7741 205.121 57.0356 204.037 53.4023C203.856 53.4135 203.674 53.4191 203.491 53.4191C198.862 53.4191 195.109 49.8229 195.109 45.3868C195.109 40.9506 198.862 37.3544 203.491 37.3544L203.524 37.3545C203.887 33.5673 207.174 30.6025 211.174 30.6025Z"/>
</mask>
<path fill-rule="evenodd" clip-rule="evenodd" d="M211.174 30.6025C213.44 30.6025 215.477 31.5539 216.884 33.0673C218.601 31.5363 220.888 30.6025 223.397 30.6025C228.733 30.6025 233.059 34.8242 233.059 40.0318C233.059 40.2832 233.049 40.5323 233.029 40.7788C236.346 42.2725 238.647 45.5463 238.647 49.3447C238.647 54.5524 234.321 58.774 228.985 58.774C226.061 58.774 223.44 57.5062 221.668 55.503C219.977 57.7087 216.901 58.7741 213.386 58.7741C208.896 58.7741 205.121 57.0356 204.037 53.4023C203.856 53.4135 203.674 53.4191 203.491 53.4191C198.862 53.4191 195.109 49.8229 195.109 45.3868C195.109 40.9506 198.862 37.3544 203.491 37.3544L203.524 37.3545C203.887 33.5673 207.174 30.6025 211.174 30.6025Z" fill="#3E4257"/>
<path d="M216.884 33.0673L214.788 35.0142L216.695 37.0662L218.786 35.2024L216.884 33.0673ZM233.029 40.7788L230.179 40.5499L230.017 42.5588L231.855 43.3865L233.029 40.7788ZM221.668 55.503L223.81 53.6082L221.51 51.0077L219.398 53.7631L221.668 55.503ZM204.037 53.4023L206.778 52.5845L206.128 50.408L203.861 50.5477L204.037 53.4023ZM203.491 37.3544L203.496 34.4944H203.491V37.3544ZM203.524 37.3545L203.519 40.2145L206.123 40.2195L206.371 37.6274L203.524 37.3545ZM218.979 31.1204C217.044 29.0379 214.253 27.7425 211.174 27.7425V33.4626C212.627 33.4626 213.911 34.0699 214.788 35.0142L218.979 31.1204ZM223.397 27.7425C220.167 27.7425 217.208 28.9468 214.981 30.9322L218.786 35.2024C219.994 34.1258 221.608 33.4626 223.397 33.4626V27.7425ZM235.919 40.0318C235.919 33.1792 230.247 27.7425 223.397 27.7425V33.4626C227.22 33.4626 230.199 36.4691 230.199 40.0318H235.919ZM235.88 41.0077C235.906 40.6852 235.919 40.3598 235.919 40.0318H230.199C230.199 40.2067 230.192 40.3794 230.179 40.5499L235.88 41.0077ZM241.507 49.3447C241.507 44.3507 238.48 40.0972 234.204 38.1711L231.855 43.3865C234.211 44.4478 235.787 46.7419 235.787 49.3447H241.507ZM228.985 61.6341C235.835 61.6341 241.507 56.1973 241.507 49.3447H235.787C235.787 52.9075 232.808 55.914 228.985 55.914V61.6341ZM219.526 57.3979C221.826 59.9986 225.22 61.6341 228.985 61.6341V55.914C226.901 55.914 225.053 55.0137 223.81 53.6082L219.526 57.3979ZM213.386 61.6341C217.355 61.6341 221.487 60.4405 223.938 57.2429L219.398 53.7631C218.468 54.9769 216.447 55.914 213.386 55.914V61.6341ZM201.296 54.2202C202.918 59.6554 208.379 61.6341 213.386 61.6341V55.914C209.413 55.914 207.324 54.4158 206.778 52.5845L201.296 54.2202ZM203.491 56.2791C203.733 56.2791 203.974 56.2717 204.213 56.257L203.861 50.5477C203.739 50.5552 203.616 50.5591 203.491 50.5591V56.2791ZM192.249 45.3868C192.249 51.516 197.398 56.2791 203.491 56.2791V50.5591C200.326 50.5591 197.969 48.1298 197.969 45.3868H192.249ZM203.491 34.4944C197.398 34.4944 192.249 39.2576 192.249 45.3868H197.969C197.969 42.6437 200.326 40.2145 203.491 40.2145V34.4944ZM203.53 34.4944L203.496 34.4944L203.485 40.2144L203.519 40.2145L203.53 34.4944ZM211.174 27.7425C205.758 27.7425 201.186 31.7702 200.677 37.0815L206.371 37.6274C206.588 35.3643 208.589 33.4626 211.174 33.4626V27.7425Z" fill="#5A5E73" mask="url(#path-7-outside-4_2882_1035)"/>
</g>
</g>
<g id="dynamic-port-forwarding-line-to-cloud-2">
<line id="dynamic-port-forwarding-line-to-cloud-2-border" x1="1.43002" y1="-1.43002" x2="26.57" y2="-1.43002" transform="matrix(-1 0 0 1 184.793 128)" stroke="#5A5E73" stroke-width="2.86004" stroke-linecap="round" stroke-linejoin="round" stroke-dasharray="8 8"/>
<line id="dynamic-port-forwarding-line-to-cloud-2-border_2" x1="1.43002" y1="-1.43002" x2="26.57" y2="-1.43002" transform="matrix(-1 0 0 1 184.793 120)" stroke="#5A5E73" stroke-width="2.86004" stroke-linecap="round" stroke-linejoin="round" stroke-dasharray="8 8"/>
<line id="dynamic-port-forwarding-line-to-cloud-2-center" x1="1.43002" y1="-1.43002" x2="26.57" y2="-1.43002" transform="matrix(1 0 0 -1 156.793 121)" stroke="#21B568" stroke-width="2.86004" stroke-linecap="round" stroke-linejoin="round"/>
</g>
<g id="dynamic-port-forwarding-line-to-cloud-1">
<line id="dynamic-port-forwarding-line-to-cloud-1-border" x1="1.43002" y1="-1.43002" x2="51.7946" y2="-1.43002" transform="matrix(-0.707107 0.707107 0.707107 0.707107 198.309 68.0962)" stroke="#5A5E73" stroke-width="2.86004" stroke-linecap="round" stroke-linejoin="round" stroke-dasharray="8 8"/>
<line id="dynamic-port-forwarding-line-to-cloud-1-border_2" x1="1.43002" y1="-1.43002" x2="51.8105" y2="-1.43002" transform="matrix(-0.707107 0.707107 0.707107 0.707107 192.727 62.5381)" stroke="#5A5E73" stroke-width="2.86004" stroke-linecap="round" stroke-linejoin="round" stroke-dasharray="8 8"/>
<line id="dynamic-port-forwarding-line-to-cloud-1-center" x1="1.43002" y1="-1.43002" x2="51.8105" y2="-1.43002" transform="matrix(0.707107 -0.707107 -0.707107 -0.707107 155.809 100.915)" stroke="#21B568" stroke-width="2.86004" stroke-linecap="round" stroke-linejoin="round"/>
</g>
<g id="dynamic-port-forwarding-remote-host">
<rect id="Rectangle" x="107" y="98" width="38" height="10" rx="2.82884" fill="#5A5E73"/>
<rect id="Rectangle_2" x="109.004" y="100" width="10" height="3" rx="1.5" fill="#21B568"/>
<rect id="Rectangle_3" x="107" y="109" width="38" height="10" rx="2.82884" fill="#5A5E73"/>
<rect id="Rectangle_4" x="107" y="120" width="38" height="10" rx="2.82884" fill="#5A5E73"/>
<rect id="Rectangle_5" x="107" y="131" width="38" height="10" rx="2.82884" fill="#5A5E73"/>
<g id="Group">
<path id="Union" fill-rule="evenodd" clip-rule="evenodd" d="M126.004 142C124.899 142 124.004 142.895 124.004 144V145.996H113.004C111.899 145.996 111.004 146.892 111.004 147.996C111.004 149.101 111.899 149.996 113.004 149.996H125.878C125.92 149.999 125.962 150 126.004 150C126.046 150 126.088 149.999 126.13 149.996H139.004C140.108 149.996 141.004 149.101 141.004 147.996C141.004 146.892 140.108 145.996 139.004 145.996H128.004V144C128.004 142.895 127.108 142 126.004 142Z" fill="#5A5E73"/>
</g>
</g>
<g id="dynamic-port-forwarding-line-to-remote-host">
<line id="dynamic-port-forwarding-line-to-remote-host-border" x1="51.0224" y1="82.7383" x2="90.0122" y2="121.728" stroke="#5A5E73" stroke-width="2.86004" stroke-linecap="round" stroke-linejoin="round"/>
<line id="dynamic-port-forwarding-line-to-remote-host-border_2" x1="56.7724" y1="77" x2="95.7622" y2="115.99" stroke="#5A5E73" stroke-width="2.86004" stroke-linecap="round" stroke-linejoin="round"/>
<line id="dynamic-port-forwarding-line-to-remote-host-center" x1="53.913" y1="79.8599" x2="92.9028" y2="118.85" stroke="#21B568" stroke-width="2.86004" stroke-linecap="round" stroke-linejoin="round"/>
</g>
<g id="dynamic-port-forwarding-firewall">
<g id="wall">
<g id="Group 2">
<rect id="Rectangle_6" x="108" y="33" width="26" height="10" rx="2.82884" fill="#F24E50"/>
<rect id="Rectangle_7" x="136" y="33" width="8" height="10" rx="2.82884" fill="#F24E50"/>
<rect id="Rectangle_8" x="118" y="44" width="26" height="10" rx="2.82884" fill="#F24E50"/>
<rect id="Rectangle_9" x="108" y="44" width="8" height="10" rx="2.82884" fill="#F24E50"/>
<rect id="Rectangle_10" x="127" y="55" width="17" height="10" rx="2.82884" fill="#F24E50"/>
<rect id="Rectangle_11" x="108" y="55" width="17" height="10" rx="2.82884" fill="#F24E50"/>
</g>
<g id="Group 2.1">
<rect id="Rectangle_12" x="108" width="26" height="10" rx="2.82884" fill="#F24E50"/>
<rect id="Rectangle_13" x="136" width="8" height="10" rx="2.82884" fill="#F24E50"/>
<rect id="Rectangle_14" x="118" y="11" width="26" height="10" rx="2.82884" fill="#F24E50"/>
<rect id="Rectangle_15" x="108" y="11" width="8" height="10" rx="2.82884" fill="#F24E50"/>
<rect id="Rectangle_16" x="126.504" y="22" width="17" height="10" rx="2.82884" fill="#F24E50"/>
<rect id="Rectangle_17" x="108" y="22" width="17" height="10" rx="2.82884" fill="#F24E50"/>
</g>
</g>
<g id="fire">
<path id="Vector" d="M134.293 34.9211C134.293 39.6174 130.64 43.2928 125.999 43.2928C121.359 43.2928 117.707 39.6176 117.707 34.9211C117.707 33.8397 118.138 32.7557 118.848 31.6254C119.523 30.5509 120.408 29.4986 121.321 28.4141C121.371 28.3545 121.421 28.2948 121.471 28.2351C122.418 27.1088 123.388 25.9387 124.056 24.7471C124.544 23.8757 124.897 22.9482 124.948 21.976C125.312 22.1502 125.753 22.4026 126.245 22.7295C127.303 23.4309 128.559 24.4483 129.764 25.6926C132.195 28.2046 134.293 31.5152 134.293 34.9211Z" fill="#DD2C00" stroke="#F7F9FA" stroke-width="1.41442"/>
<path id="Vector_2" d="M131.402 37.3421C131.402 32.7427 126.002 28.2632 126.002 28.2632C126.002 31.9432 120.602 33.6627 120.602 37.3421C120.602 40.3902 122.979 42.7895 126.002 42.7895C129.024 42.7895 131.402 40.3902 131.402 37.3421Z" fill="white"/>
<path id="Vector_3" d="M123 39.4038C123.001 37.3422 126.001 36.1626 126.001 34.3159C126.001 34.3159 129 36.6353 129 39.4038C129 40.932 127.658 42.1722 126 42.1722C124.342 42.1722 122.999 40.9327 123 39.4038Z" fill="#FFC107"/>
</g>
</g>
<line id="dynamic-port-forwarding-line-to-firewall" x1="61.43" y1="32.57" x2="94.57" y2="32.57" stroke="#F25E61" stroke-width="2.86004" stroke-linecap="round"/>
<g id="dynamic-port-forwarding-termius">
<rect x="2" y="7" width="46" height="46" rx="10" fill="#5A5E73"/>
<path id="logo" fill-rule="evenodd" clip-rule="evenodd" d="M33.233 40.4572C38.0681 40.4572 42 36.5253 42 31.6902C42 29.2828 40.9756 26.941 39.2261 25.2936C39.1884 20.634 35.3879 16.8567 30.7195 16.8567C29.3637 16.8567 28.0436 17.1761 26.8497 17.7874C25.2787 16.3037 23.2029 15.4702 21.0133 15.4702C16.4456 15.4702 12.7089 19.0863 12.5146 23.6069C9.74561 25.1541 8 28.0896 8 31.3002C8 36.1593 11.9512 40.1106 16.8102 40.1106C17.0403 40.1106 17.2706 40.1016 17.5 40.0838C19.1233 42.8145 22.0913 44.5302 25.3031 44.5302C28.375 44.5302 31.2075 42.9867 32.8784 40.45C32.9968 40.4548 33.115 40.4572 33.233 40.4572ZM25.3031 42.2167C22.7009 42.2167 20.3066 40.6986 19.1911 38.3425L18.8136 37.5453L17.945 37.6983C17.5726 37.7638 17.191 37.7971 16.8102 37.7971C13.229 37.7971 10.3135 34.8816 10.3135 31.3002C10.3135 28.744 11.8148 26.4234 14.1465 25.3731L14.8637 25.05L14.8269 24.2642C14.8224 24.1688 14.8202 24.0724 14.8202 23.977C14.8202 20.5631 17.5994 17.7838 21.0133 17.7838C22.8508 17.7838 24.5727 18.5863 25.7557 19.9936L26.4221 20.7862L27.2834 20.2113C28.3052 19.5293 29.4898 19.1703 30.7195 19.1703C34.1335 19.1703 36.9129 21.9496 36.9129 25.3635C36.9129 25.4867 36.9091 25.6111 36.9016 25.7334L36.8655 26.3228L37.3218 26.6978C38.8014 27.9137 39.6865 29.7824 39.6865 31.6902C39.6865 35.2476 36.7904 38.1437 33.233 38.1437C32.9582 38.1437 32.6797 38.1258 32.405 38.0906L31.6202 37.9899L31.2419 38.6849C30.054 40.8669 27.7849 42.2167 25.3031 42.2167ZM29.6976 32.9616L29.7204 32.9519C30.021 32.8226 30.1285 32.7089 30.1285 32.3954V32.0016C30.1285 31.6553 29.929 31.4324 29.6038 31.4324H29.5855L29.5201 31.4467C28.7924 31.7028 28.0767 31.8324 27.3932 31.8324C26.7124 31.8324 26.0409 31.7037 25.3971 31.4498L25.3777 31.4422L25.3048 31.4324C24.9797 31.4324 24.7802 31.6553 24.7802 32.0016V32.3954C24.7802 32.6904 24.8912 32.8248 25.1506 32.9364L25.1634 32.9419L25.2074 32.9603C25.9112 33.2613 26.6478 33.4144 27.3944 33.4144C28.1384 33.4144 28.912 33.2622 29.6976 32.9616ZM19.6665 29.7235C19.6665 29.4061 19.8312 29.2311 20.052 29.1848L22.1786 28.6265L20.047 28.067C19.8259 28.0092 19.6665 27.8347 19.6665 27.5295V26.8591C19.6665 26.5661 19.8424 26.4399 20.0436 26.4399C20.1087 26.4399 20.1761 26.4541 20.2435 26.4795L24.0389 27.7073C24.3272 27.8034 24.4859 28.035 24.4859 28.3522V28.9007C24.4859 29.2179 24.3274 29.4496 24.0386 29.5458L20.2352 30.7762C20.171 30.7952 20.1137 30.8045 20.0579 30.8045C19.8196 30.8045 19.6665 30.6332 19.6665 30.3838V29.7235Z" fill="white"/>
</g>
</g>
</svg>
