<svg width="22" height="21" viewBox="0 0 22 21" fill="none" xmlns="http://www.w3.org/2000/svg">
<path fill-rule="evenodd" clip-rule="evenodd" d="M0.5 4.4C0.5 3.6268 1.1268 3 1.9 3H20.1C20.8732 3 21.5 3.6268 21.5 4.4V15.6C21.5 16.3732 20.8732 17 20.1 17H19.4001V17.7C19.4001 18.0866 19.0867 18.4 18.7001 18.4H17.3001C16.9135 18.4 16.6001 18.0866 16.6001 17.7V17H5.4001V17.7C5.4001 18.0866 5.0867 18.4 4.7001 18.4H3.3001C2.9135 18.4 2.6001 18.0866 2.6001 17.7V17H1.9C1.1268 17 0.5 16.3732 0.5 15.6V4.4ZM18 10C18 11.933 16.433 13.5 14.5 13.5C12.567 13.5 11 11.933 11 10C11 8.067 12.567 6.5 14.5 6.5C16.433 6.5 18 8.067 18 10ZM5.4002 6.5C5.0136 6.5 4.7002 6.8134 4.7002 7.2V12.8C4.7002 13.1866 5.0136 13.5 5.4002 13.5C5.78679 13.5 6.1002 13.1866 6.1002 12.8V7.2C6.1002 6.8134 5.78679 6.5 5.4002 6.5ZM14.4999 12.1C15.6597 12.1 16.5999 11.1598 16.5999 10C16.5999 8.84023 15.6597 7.90002 14.4999 7.90002C13.3401 7.90002 12.3999 8.84023 12.3999 10C12.3999 11.1598 13.3401 12.1 14.4999 12.1Z" fill="currentColor"/>
</svg>
