<svg width="19" height="13" viewBox="0 0 19 13" fill="none" xmlns="http://www.w3.org/2000/svg">
<path d="M14.4692 12.6517C16.5564 12.6517 18.1875 11.1243 18.1875 9.22372C18.1875 7.77235 17.3512 6.51449 16.0035 5.94777C16.0174 2.86533 13.7988 0.639893 10.9721 0.639893C9.09914 0.639893 7.76526 1.64203 6.93591 2.85151C5.23573 2.35389 3.3835 3.64631 3.34895 5.58147C1.78699 5.83028 0.8125 7.22636 0.8125 8.91271C0.8125 10.9446 2.5887 12.6517 4.95237 12.6517L14.4692 12.6517ZM5.58129 7.44752C5.58129 6.26569 6.52814 5.32575 7.70306 5.32575C8.58771 5.32575 9.3756 5.85101 9.69352 6.68728L12.9764 6.68728C13.0524 6.68728 13.1146 6.70801 13.1906 6.77712L13.7435 7.33003C13.7988 7.39223 13.8057 7.4959 13.7435 7.56501L12.693 8.61553C12.6239 8.69155 12.5202 8.69155 12.4511 8.61553L11.8015 7.95896L10.9099 8.86434C10.8546 8.93345 10.7509 8.92654 10.6749 8.85051L9.77645 7.96587C9.36869 8.99565 8.60844 9.56238 7.70306 9.56238C6.52814 9.56238 5.58129 8.62244 5.58129 7.44752ZM6.59726 7.44061C6.59726 7.8 6.89444 8.09027 7.25383 8.09027C7.62704 8.09027 7.9104 7.8 7.9104 7.44061C7.9104 7.08122 7.62704 6.79095 7.25383 6.79095C6.89444 6.79095 6.59726 7.07431 6.59726 7.44061Z" fill="currentColor"/>
</svg>
