<svg width="20" height="20" viewBox="0 0 20 20" fill="none" xmlns="http://www.w3.org/2000/svg">
    <path fill-rule="evenodd" clip-rule="evenodd" d="M18.7805 1C18.107 1 17.5611 1.54598 17.5611 2.21947V11.359H4.66863L7.95558 8.07205C8.43181 7.59582 8.43181 6.82369 7.95558 6.34746C7.47935 5.87123 6.70722 5.87123 6.23099 6.34746L0.707109 11.8713C0.316584 12.2619 0.316583 12.895 0.707108 13.2855L6.23099 18.8094C6.70722 19.2857 7.47935 19.2857 7.95558 18.8094C8.43181 18.3332 8.43181 17.5611 7.95558 17.0848L4.66868 13.7979H19C19.5523 13.7979 20 13.3502 20 12.7979V2.21947C20 1.54598 19.454 1 18.7805 1Z" fill="currentColor"/>
</svg>
