<svg width="14" height="14" viewBox="0 0 14 14" fill="none" xmlns="http://www.w3.org/2000/svg">
<path fill-rule="evenodd" clip-rule="evenodd" d="M1.55556 0.666016C0.696446 0.666016 0 1.36246 0 2.22157L0 2.44434L0 2.99935L0 10.4443C0 11.9171 1.19391 13.111 2.66667 13.111L11.3333 13.111C12.8061 13.111 14 11.9171 14 10.4443L14 2.99935V2.44434V2.22157C14 1.36246 13.3036 0.666016 12.4444 0.666016L1.55556 0.666016ZM13.3333 3.111L0.666667 3.111L0.666667 10.4443C0.666667 11.5489 1.5621 12.4443 2.66667 12.4443L11.3333 12.4443C12.4379 12.4443 13.3333 11.5489 13.3333 10.4443L13.3333 3.111ZM2.76542 9.889L2.76542 9.39523C3.27344 9.3001 3.56249 8.91051 3.56249 8.49375C3.56249 8.08605 3.33037 7.73271 2.74353 7.59681L2.36251 7.51074C2.19171 7.46997 2.10412 7.37484 2.10412 7.25253C2.10412 7.10757 2.22675 6.95808 2.472 6.95808C2.81798 6.95808 2.89243 7.19364 2.9187 7.33407L3.52745 7.16646C3.46614 6.85842 3.24716 6.50055 2.76542 6.39183L2.76542 5.889H2.26178L2.26178 6.37824C1.80194 6.45978 1.43406 6.80859 1.43406 7.31595C1.43406 7.7463 1.73625 8.05434 2.22675 8.17665L2.61652 8.27178C2.7917 8.31255 2.88805 8.39862 2.88805 8.52999C2.88805 8.70666 2.73039 8.81538 2.51141 8.81538C2.13478 8.81538 1.9596 8.57982 1.9377 8.31708L1.33333 8.45751C1.36399 8.82897 1.64428 9.3001 2.26178 9.40429L2.26178 9.889H2.76542ZM6.02115 9.35899V8.67948H4.74235V8.0634H5.89853V7.43373H4.74235V6.82218H6.01677V6.14721H4.05039V9.35899H6.02115ZM9.29286 6.14721L9.29286 9.35899H8.56149L7.28268 7.248V9.35899L6.5951 9.35899V6.14721H7.43596L8.6009 8.09964L8.6009 6.14721H9.29286ZM11.1908 8.40768L10.4419 6.14721H9.67986L10.8185 9.35899H11.5324L12.6667 6.14721H11.9309L11.1908 8.40768Z" fill="white"/>
</svg>
