<svg width="14" height="14" viewBox="0 0 14 14" fill="none" xmlns="http://www.w3.org/2000/svg">
<path d="M2.02632 0.5C0.908895 0.5 0 1.39086 0 2.48611V11.5139C0 12.6091 0.908895 13.5 2.02632 13.5H11.9737C13.0911 13.5 14 12.6091 14 11.5139V2.48611C14 1.39086 13.0911 0.5 11.9737 0.5H2.02632ZM1.47368 3.75H12.5263V11.5139C12.5263 11.8125 12.2784 12.0556 11.9737 12.0556H2.02632C1.72163 12.0556 1.47368 11.8125 1.47368 11.5139V3.75ZM10.0337 5.91596C9.91582 5.91574 9.79783 5.96177 9.70775 6.05349C9.52759 6.2373 9.52689 6.53583 9.70631 6.72C9.71994 6.7348 10.1316 7.18994 10.1316 8.08333C10.1316 8.97672 9.72003 9.43176 9.70271 9.4509C9.52956 9.63832 9.53333 9.93582 9.71423 10.1153C9.80412 10.2045 9.92019 10.2493 10.0359 10.2493C10.1527 10.2493 10.2694 10.2035 10.359 10.1118C10.3873 10.0829 11.0526 9.38442 11.0526 8.08333C11.0526 6.78225 10.3873 6.08379 10.359 6.0549C10.2693 5.96264 10.1516 5.91619 10.0337 5.91596ZM3.96628 5.91667C3.84839 5.91689 3.73075 5.96335 3.64104 6.05561C3.61267 6.0845 2.94737 6.78332 2.94737 8.08404C2.94737 9.38476 3.61267 10.0832 3.64104 10.1125C3.73056 10.2042 3.84733 10.25 3.96412 10.25C4.07981 10.25 4.19623 10.2052 4.28649 10.116C4.46739 9.93652 4.47116 9.63902 4.29801 9.45161C4.28069 9.43247 3.86914 8.97743 3.86914 8.08404C3.86914 7.19065 4.28006 6.73551 4.29369 6.7207C4.47311 6.53654 4.47241 6.23801 4.29225 6.0542C4.20217 5.96248 4.08418 5.91644 3.96628 5.91667ZM5.87747 5.92443C5.76164 5.90316 5.63761 5.92542 5.53279 5.99566C5.32316 6.13649 5.26929 6.41683 5.41334 6.62267L6.43298 8.08333L5.41334 9.544C5.26929 9.74983 5.32316 10.0302 5.53279 10.171C5.61237 10.2241 5.70303 10.25 5.79256 10.25C5.93956 10.25 6.08405 10.1811 6.17321 10.0532L6.99065 8.88243L7.80808 10.0532C7.89724 10.1811 8.04138 10.25 8.18801 10.25C8.27791 10.25 8.36857 10.2241 8.44778 10.171C8.65741 10.0302 8.712 9.74983 8.56795 9.544L7.54831 8.08333L8.56795 6.62267C8.712 6.41683 8.65741 6.13649 8.44778 5.99566C8.23778 5.85483 7.95176 5.90761 7.80808 6.11344L6.99065 7.28423L6.17321 6.11344C6.10137 6.01053 5.99329 5.94569 5.87747 5.92443Z" fill="currentColor"/>
</svg>
