<svg width="21" height="21" viewBox="0 0 21 21" fill="none" xmlns="http://www.w3.org/2000/svg">
<path fill-rule="evenodd" clip-rule="evenodd" d="M2.33333 1C1.04467 1 0 2.04467 0 3.33333V3.66663V4.5V15.6666C0 17.8758 1.79086 19.6666 4 19.6666H17C19.2091 19.6666 21 17.8758 21 15.6666V4.5V3.66663V3.33333C21 2.04467 19.9553 1 18.6667 1H2.33333ZM20 4.66663H1V15.6666C1 17.3235 2.34315 18.6666 4 18.6666H17C18.6569 18.6666 20 17.3235 20 15.6666V4.66663ZM4.14813 14.8333V14.0926C4.91016 13.9499 5.34373 13.3655 5.34373 12.7404C5.34373 12.1288 4.99556 11.5988 4.11529 11.395L3.54377 11.2659C3.28757 11.2047 3.15618 11.062 3.15618 10.8786C3.15618 10.6611 3.34012 10.4369 3.708 10.4369C4.22696 10.4369 4.33864 10.7902 4.37806 11.0009L5.29118 10.7494C5.19921 10.2874 4.87075 9.75058 4.14813 9.5875V8.83325H3.39267V9.56711C2.70291 9.68942 2.15109 10.2126 2.15109 10.9737C2.15109 11.6192 2.60437 12.0813 3.34012 12.2647L3.92478 12.4074C4.18755 12.4686 4.33207 12.5977 4.33207 12.7947C4.33207 13.0598 4.09558 13.2228 3.76712 13.2228C3.20217 13.2228 2.9394 12.8695 2.90655 12.4754L2 12.686C2.04598 13.2432 2.46641 13.9499 3.39267 14.1062V14.8333H4.14813ZM9.03173 14.0382V13.019H7.11352V12.0949H8.84779V11.1504H7.11352V10.233H9.02516V9.22057H6.07558V14.0382H9.03173ZM13.9393 9.22057V14.0382H12.8422L10.924 10.8718V14.0382H9.89266V9.22057H11.1539L12.9014 12.1492V9.22057H13.9393ZM16.7862 12.6113L15.6628 9.22057H14.5198L16.2278 14.0382H17.2986L19 9.22057H17.8964L16.7862 12.6113Z" fill="currentColor"/>
</svg>
