<svg width="52" height="52" viewBox="0 0 52 52" fill="none" xmlns="http://www.w3.org/2000/svg">
<path d="M14.6411 3.27509C10.5384 3.3467 7.29109 6.70936 7.3627 10.8121L7.8998 41.5825C7.97141 45.6852 11.3341 48.9325 15.4368 48.8608L38.1157 48.465C42.2184 48.3934 45.4657 45.0307 45.3941 40.928L44.9783 17.1094C44.9704 16.6536 44.7915 16.2007 44.4436 15.8648L30.832 3.44847C30.4851 3.16953 30.0833 3.00554 29.6274 3.0135L14.6411 3.27509ZM32.814 19.0318L41.6462 18.8776L42.0321 40.9867C42.0709 43.209 40.3353 45.0063 38.113 45.0451L15.3771 45.4419C13.1548 45.4807 11.3575 43.7451 11.3187 41.5228L10.7816 10.7524C10.7428 8.53009 12.4785 6.73281 14.7008 6.69402L28.0346 6.46128L28.1758 14.5527C28.2206 17.1169 30.2498 19.0765 32.814 19.0318Z" fill="currentColor"/>
</svg>
