<svg width="9" height="8" viewBox="0 0 9 8" fill="none" xmlns="http://www.w3.org/2000/svg"><path d="M2.633 7.504a.473.473 0 0 0 .355-.137.471.471 0 0 0 .137-.347.465.465 0 0 0-.043-.204.508.508 0 0 0-.117-.152l-.79-.773-.937-.774-.18.27 1.376.062H6.91c.503 0 .87-.116 1.102-.347.231-.232.347-.6.347-1.106v-2.2c0-.504-.116-.872-.347-1.1-.232-.23-.6-.344-1.102-.344H4.887a.504.504 0 1 0 0 1.007H6.87c.175 0 .3.04.375.118.078.078.117.204.117.378v2.083c0 .177-.039.304-.117.382-.075.078-.2.117-.375.117H2.434L1.059 4.5l.18.27.937-.778.789-.77a.559.559 0 0 0 .117-.156.45.45 0 0 0 .043-.203.466.466 0 0 0-.492-.48.498.498 0 0 0-.363.156L.21 4.57a.532.532 0 0 0-.113.578.467.467 0 0 0 .114.168L2.27 7.348a.498.498 0 0 0 .363.156Z" fill="currentColor"/></svg>
