<svg width="20" height="8" viewBox="0 0 20 8" fill="currentColor" xmlns="http://www.w3.org/2000/svg">
<path fill-rule="evenodd" clip-rule="evenodd" d="M4.39785 0.160328L4.00191 1.46468C3.18922 1.24517 2.84353 1.5791 2.84353 1.5791C2.82457 1.59495 2.80663 1.61193 2.78981 1.62995C2.65392 1.79282 2.58585 1.99984 2.5992 2.20966V2.82073H3.59903V3.97507H2.5992V7.88219H0.99896V3.97507H0V2.81904H1.00243V2.24187C1.00243 1.57316 1.21383 1.03074 1.63057 0.631556C1.79256 0.474859 1.97882 0.344145 2.18246 0.244234C2.28077 0.194495 2.38378 0.15419 2.49004 0.123884C3.00116 -0.0229166 3.54215 -0.0395455 4.06169 0.0755746C4.1756 0.0962289 4.28792 0.124547 4.39785 0.160328ZM14.1492 5.38197C14.1492 3.73437 15.2469 2.68597 16.9217 2.68597C18.5003 2.68597 19.5547 3.76064 19.5564 5.2879C19.5564 7.15247 18.2126 8 16.8264 8C15.3102 8 14.1492 7.02958 14.1492 5.38197ZM15.8058 5.3396C15.8058 6.2151 16.1757 6.86515 16.8688 6.86515C17.4952 6.86515 17.8972 6.25832 17.8972 5.33112C17.8972 4.58529 17.5949 3.82251 16.8688 3.82251C16.1064 3.82251 15.8058 4.59377 15.8058 5.3396ZM18.9378 2.17576H18.7446V2.07914H19.2471V2.17491H19.0548V2.65631H18.9378V2.17576ZM19.6812 2.49189L19.8328 2.07999L20 2.07914V2.65546H19.8917V2.19017L19.7288 2.65546H19.6344L19.4698 2.19017V2.65631H19.3615V2.07999H19.5304L19.6812 2.49189ZM6.03841 0.48799C6.18707 0.390951 6.36177 0.339162 6.54049 0.33916C6.65967 0.339046 6.77769 0.361996 6.88777 0.406687C6.99785 0.451379 7.0978 0.51693 7.18187 0.599565C7.26595 0.6822 7.33248 0.780288 7.37764 0.88818C7.4228 0.996072 7.44569 1.11164 7.44501 1.22822C7.44415 1.40304 7.39038 1.57369 7.29047 1.71864C7.19056 1.86359 7.04899 1.97634 6.88364 2.04266C6.71829 2.10898 6.53656 2.1259 6.36138 2.09129C6.18621 2.05667 6.02544 1.97206 5.89938 1.84815C5.77331 1.72424 5.68759 1.56657 5.65304 1.39505C5.61849 1.22353 5.63665 1.04584 5.70524 0.884404C5.77382 0.722971 5.88976 0.58503 6.03841 0.48799ZM4.11456 3.97677V2.81734L4.11803 2.82073H7.34104V7.8822H6.74929V5.66336H6.32475V7.8822H5.74166V3.97677H4.11456ZM11.7467 3.25382H11.7649L11.7683 0.455272H13.3799V7.8822H11.9893L11.8879 7.14908C11.5751 7.70252 10.9401 7.99661 10.2755 7.99661C9.04352 7.99661 8.05929 6.96517 8.05929 5.38706C8.05062 3.67928 9.14056 2.68174 10.3812 2.68174C11.0284 2.68174 11.5076 2.91481 11.7467 3.25382ZM11.738 5.98542C11.7556 5.8647 11.7646 5.74292 11.7649 5.62098L11.7606 4.95312C11.7632 4.8573 11.7571 4.76143 11.7424 4.66666C11.6453 4.25052 11.2988 3.89456 10.7936 3.89456C10.0581 3.89456 9.68639 4.53783 9.68639 5.33536C9.68639 6.20239 10.1205 6.73972 10.785 6.73972C11.0088 6.74225 11.2265 6.66828 11.4005 6.53057C11.5745 6.39286 11.6938 6.20005 11.738 5.98542Z" />
</svg>
