<svg width="14" height="14" viewBox="0 0 14 14" fill="none" xmlns="http://www.w3.org/2000/svg">
<path d="M14 9.01544V5.14393C14 5.10218 13.9927 5.06083 13.9786 5.02226C13.9645 4.98369 13.9439 4.94864 13.9178 4.91911C13.8918 4.88959 13.8609 4.86617 13.8268 4.8502C13.7928 4.83422 13.7563 4.82599 13.7195 4.82599H11.0334V5.46186V8.69751V9.33337H13.7195C13.7939 9.33337 13.8652 9.29988 13.9178 9.24025C13.9704 9.18063 14 9.09976 14 9.01544Z" fill="currentColor"/>
<path fill-rule="evenodd" clip-rule="evenodd" d="M10.5 4.77176V9.22827C10.5 9.5632 10.3873 9.88463 10.1862 10.1227C9.98516 10.3608 9.71205 10.4964 9.4262 10.5H1.0738C0.787948 10.4964 0.514842 10.3608 0.313793 10.1227C0.112743 9.88463 -1.64037e-05 9.5632 1.78988e-09 9.22827L1.78988e-09 4.77176C-1.64037e-05 4.43682 0.112743 4.1154 0.313793 3.87729C0.514842 3.63918 0.787948 3.50361 1.0738 3.50003L9.4262 3.50003C9.71205 3.50361 9.98516 3.63918 10.1862 3.87729C10.3873 4.1154 10.5 4.43682 10.5 4.77176ZM8.72999 8.19073C8.9647 7.84978 9.09341 7.44708 9.09996 7.03322C9.10355 6.4721 8.8845 5.93245 8.49083 5.53257C8.09716 5.13269 7.56098 4.90521 6.99985 4.9C6.58591 4.90005 6.18122 5.02242 5.83662 5.25174C5.49201 5.48105 5.22286 5.80709 5.06298 6.18888C4.9031 6.57067 4.85961 6.9912 4.93799 7.39763C5.01637 7.80405 5.21311 8.17826 5.5035 8.47323C5.79389 8.7682 6.16498 8.97078 6.57015 9.05552C6.97532 9.14026 7.3965 9.10338 7.78077 8.94952C8.16505 8.79566 8.49528 8.53167 8.72999 8.19073ZM3.5596 5.82397C3.32612 5.67317 3.05305 5.59528 2.77516 5.60022C2.5929 5.6017 2.41272 5.6391 2.24493 5.71029C2.07714 5.78147 1.92504 5.88505 1.79732 6.01508C1.6696 6.14511 1.56877 6.29905 1.50061 6.4681C1.43244 6.63714 1.39828 6.81796 1.40007 7.00022C1.40011 7.27816 1.48288 7.5498 1.63784 7.78054C1.7928 8.01128 2.01293 8.19067 2.27019 8.29586C2.52746 8.40105 2.81021 8.42729 3.08243 8.37122C3.35466 8.31515 3.60403 8.17933 3.79879 7.98103C3.99355 7.78275 4.12489 7.53097 4.17606 7.25778C4.22724 6.98458 4.19594 6.70234 4.08616 6.447C3.97637 6.19166 3.79307 5.97478 3.5596 5.82397Z" fill="currentColor"/>
</svg>
