<svg width="12" height="14" viewBox="0 0 12 14" fill="none" xmlns="http://www.w3.org/2000/svg">
<g id="Group">
<path id="Union" fill-rule="evenodd" clip-rule="evenodd" d="M9.23798 13.9934H2.30651C0.955464 13.9934 0.283203 13.3147 0.283203 11.9506V2.04941C0.283203 0.691841 0.961991 0 2.30651 0H5.40674C6.13775 0 6.54893 0.110956 7.04497 0.620046L10.6412 4.28159C11.1634 4.81678 11.2612 5.18227 11.2612 6.02424V11.9506C11.2612 13.3082 10.589 13.9934 9.23798 13.9934ZM1.33402 11.931C1.33402 12.5837 1.67994 12.9427 2.3522 12.9427H9.18576C9.86459 12.9427 10.2105 12.5837 10.2105 11.931V6.06992H6.49019C5.67434 6.06992 5.26315 5.66526 5.26315 4.84289V4.83066C5.22851 4.84091 5.19183 4.84641 5.15386 4.84641H4.38463C4.17221 4.84641 4 4.67421 4 4.46178C4 4.24935 4.17221 4.07715 4.38463 4.07715H5.15386C5.19183 4.07715 5.22851 4.08265 5.26315 4.0929V3.2927C5.22937 3.3024 5.19369 3.30759 5.15679 3.30759H4.38756C4.17514 3.30759 4.00293 3.13539 4.00293 2.92296C4.00293 2.71054 4.17514 2.53833 4.38756 2.53833H5.15679C5.19369 2.53833 5.22937 2.54353 5.26315 2.55323V1.75351C5.22851 1.76376 5.19183 1.76926 5.15386 1.76926H4.38463C4.17221 1.76926 4 1.59706 4 1.38463C4 1.24181 4.07785 1.11716 4.19342 1.05082H2.35873C1.67994 1.05082 1.33402 1.42284 1.33402 2.06899V11.931ZM6.2487 4.71887C6.2487 4.97995 6.3466 5.08438 6.60767 5.08438H10.0081L6.2487 1.25315V4.71887ZM4.00293 5.99987C4.00293 5.78744 4.17514 5.61523 4.38756 5.61523H5.15679C5.36922 5.61523 5.54142 5.78744 5.54142 5.99987C5.54142 6.21229 5.36922 6.3845 5.15679 6.3845H4.38756C4.17514 6.3845 4.00293 6.21229 4.00293 5.99987ZM5.92565 6.38452C5.71322 6.38452 5.54102 6.55673 5.54102 6.76915C5.54102 6.98158 5.71322 7.15379 5.92565 7.15379H6.69487C6.9073 7.15379 7.07951 6.98158 7.07951 6.76915C7.07951 6.55673 6.9073 6.38452 6.69487 6.38452H5.92565ZM4.00293 10.4229C4.00293 10.7403 4.26255 10.9999 4.57986 10.9999H6.50298C6.82029 10.9999 7.07991 10.7403 7.07991 10.4229V8.49978C7.07991 8.18246 6.82029 7.92283 6.50298 7.92283H5.92605C5.71363 7.92283 5.54142 7.75062 5.54142 7.5382C5.54142 7.32577 5.36922 7.15356 5.15679 7.15356H4.77218C4.34733 7.15356 4.00293 7.49797 4.00293 7.92281V10.4229ZM5.92603 9.46136C6.13846 9.46136 6.31067 9.63356 6.31067 9.84599C6.31067 10.0584 6.13846 10.2306 5.92603 10.2306H5.15681C4.94438 10.2306 4.77217 10.0584 4.77217 9.84599C4.77217 9.63356 4.94438 9.46136 5.15681 9.46136H5.92603Z" fill="currentColor"/>
</g>
</svg>
