<svg width="12" height="14" viewBox="0 0 12 14" fill="none" xmlns="http://www.w3.org/2000/svg">
<g id="Group">
<path id="Vector" d="M2.30651 13.9934H9.23798C10.589 13.9934 11.2612 13.3082 11.2612 11.9506V6.02424C11.2612 5.18227 11.1634 4.81678 10.6412 4.28159L7.04497 0.620046C6.54893 0.110956 6.13775 0 5.40674 0H2.30651C0.961991 0 0.283203 0.691841 0.283203 2.04941V11.9506C0.283203 13.3147 0.955464 13.9934 2.30651 13.9934ZM2.3522 12.9427C1.67994 12.9427 1.33402 12.5837 1.33402 11.931V2.06899C1.33402 1.42284 1.67994 1.05082 2.35873 1.05082H5.26315V4.84289C5.26315 5.66526 5.67434 6.06992 6.49019 6.06992H10.2105V11.931C10.2105 12.5837 9.86459 12.9427 9.18576 12.9427H2.3522ZM6.60767 5.08438C6.3466 5.08438 6.2487 4.97995 6.2487 4.71887V1.25315L10.0081 5.08438H6.60767Z" fill="currentColor"/>
<path id="Union" fill-rule="evenodd" clip-rule="evenodd" d="M8.8125 8H2.6875C2.446 8 2.25 7.776 2.25 7.5C2.25 7.224 2.446 7 2.6875 7H8.8125C9.054 7 9.25 7.224 9.25 7.5C9.25 7.776 9.054 8 8.8125 8ZM8.8125 10H2.6875C2.446 10 2.25 9.776 2.25 9.5C2.25 9.224 2.446 9 2.6875 9H8.8125C9.054 9 9.25 9.224 9.25 9.5C9.25 9.776 9.054 10 8.8125 10ZM2.6875 12H8.8125C9.054 12 9.25 11.776 9.25 11.5C9.25 11.224 9.054 11 8.8125 11H2.6875C2.446 11 2.25 11.224 2.25 11.5C2.25 11.776 2.446 12 2.6875 12Z" fill="currentColor"/>
</g>
</svg>
