<svg width="12" height="14" viewBox="0 0 12 14" fill="none" xmlns="http://www.w3.org/2000/svg">
<g id="Group">
<path id="Vector" d="M2.30651 13.9934H9.23798C10.589 13.9934 11.2612 13.3082 11.2612 11.9506V6.02424C11.2612 5.18227 11.1634 4.81678 10.6412 4.28159L7.04497 0.620046C6.54893 0.110956 6.13775 0 5.40674 0H2.30651C0.961991 0 0.283203 0.691841 0.283203 2.04941V11.9506C0.283203 13.3147 0.955464 13.9934 2.30651 13.9934ZM2.3522 12.9427C1.67994 12.9427 1.33402 12.5837 1.33402 11.931V2.06899C1.33402 1.42284 1.67994 1.05082 2.35873 1.05082H5.26315V4.84289C5.26315 5.66526 5.67434 6.06992 6.49019 6.06992H10.2105V11.931C10.2105 12.5837 9.86459 12.9427 9.18576 12.9427H2.3522ZM6.60767 5.08438C6.3466 5.08438 6.2487 4.97995 6.2487 4.71887V1.25315L10.0081 5.08438H6.60767Z" fill="currentColor"/>
<path id="Vector_2" d="M7.89833 7.06293C7.83389 7.01016 7.74944 6.98905 7.66778 7.00543L4.89 7.56099C4.76028 7.5871 4.66667 7.70099 4.66667 7.83349V9.8896C4.50333 9.81877 4.31361 9.77793 4.11111 9.77793C3.4975 9.77793 3 10.151 3 10.6113C3 11.0715 3.4975 11.4446 4.11111 11.4446C4.72472 11.4446 5.22222 11.0715 5.22222 10.6113V8.61682L7.44444 8.17238V9.33432C7.28111 9.26349 7.09139 9.22266 6.88889 9.22266C6.27528 9.22266 5.77778 9.59571 5.77778 10.056C5.77778 10.5163 6.27528 10.8893 6.88889 10.8893C7.5025 10.8893 8 10.5163 8 10.056V7.27821C8 7.19488 7.96278 7.11627 7.89833 7.06349V7.06293Z" fill="currentColor"/>
</g>
</svg>
