<svg width="12" height="14" viewBox="0 0 12 14" fill="none" xmlns="http://www.w3.org/2000/svg">
<path d="M2.30651 13.9934H9.23798C10.589 13.9934 11.2612 13.3082 11.2612 11.9506V6.02424C11.2612 5.18227 11.1634 4.81678 10.6412 4.28159L7.04497 0.620046C6.54893 0.110956 6.13775 0 5.40674 0H2.30651C0.961991 0 0.283203 0.691841 0.283203 2.04941V11.9506C0.283203 13.3147 0.955464 13.9934 2.30651 13.9934ZM2.3522 12.9427C1.67994 12.9427 1.33402 12.5837 1.33402 11.931V2.06899C1.33402 1.42284 1.67994 1.05082 2.35873 1.05082H5.26315V4.84289C5.26315 5.66526 5.67434 6.06992 6.49019 6.06992H10.2105V11.931C10.2105 12.5837 9.86459 12.9427 9.18576 12.9427H2.3522ZM6.60767 5.08438C6.3466 5.08438 6.2487 4.97995 6.2487 4.71887V1.25315L10.0081 5.08438H6.60767Z" fill="currentColor"/>
</svg>
