<svg xmlns="http://www.w3.org/2000/svg" width="25" height="26" viewBox="0 0 25 26" fill="none">
    <path d="M12.5002 0C5.59653 0 0 5.82038 0 13.0002V14.032C0 15.0576 0.799506 15.8891 1.78574 15.8891C2.77198 15.8891 3.57149 15.0576 3.57149 14.032V13.0002C3.57149 7.87175 7.56901 3.71434 12.5002 3.71434C14.2415 3.71434 15.8613 4.23087 17.2321 5.12383C18.0679 5.6683 19.1698 5.40503 19.6934 4.5358C20.2169 3.66655 19.9638 2.52051 19.128 1.97603C17.2055 0.723688 14.9314 0 12.5002 0Z" fill="currentColor"/>
    <path d="M20.7419 5.64483C21.5851 5.11296 22.6833 5.39277 23.1947 6.26978C24.3407 8.23495 25 10.5416 25 13.0027C25 14.748 24.6683 16.4174 24.0653 17.943C23.6903 18.8916 22.6469 19.3445 21.7347 18.9545C20.8225 18.5645 20.3871 17.4793 20.762 16.5307C21.191 15.4454 21.4285 14.2552 21.4285 13.0027C21.4285 11.2397 20.9578 9.59669 20.1409 8.19582C19.6295 7.31881 19.8986 6.17669 20.7419 5.64483Z" fill="currentColor"/>
    <path d="M5.35723 13.0002C5.35723 8.89744 8.55525 5.57151 12.5002 5.57151C16.4452 5.57151 19.6432 8.89744 19.6432 13.0002C19.6432 14.0259 18.8437 14.8574 17.8574 14.8574C16.8712 14.8574 16.0717 14.0259 16.0717 13.0002C16.0717 10.9488 14.4727 9.28584 12.5002 9.28584C10.5277 9.28584 8.92872 10.9488 8.92872 13.0002V22.63C8.92872 23.6557 8.12922 24.4872 7.14298 24.4872C6.15674 24.4872 5.35723 23.6557 5.35723 22.63V13.0002Z" fill="currentColor"/>
    <path d="M17.8574 16.7145C18.8437 16.7145 19.6432 17.546 19.6432 18.5717V22.6296C19.6432 23.6553 18.8437 24.4868 17.8574 24.4868C16.8712 24.4868 16.0717 23.6553 16.0717 22.6296V18.5717C16.0717 17.546 16.8712 16.7145 17.8574 16.7145Z" fill="currentColor"/>
    <path d="M14.2859 13.9288C14.2859 12.9031 13.4864 12.0716 12.5002 12.0716C11.514 12.0716 10.7145 12.9031 10.7145 13.9288V24.1428C10.7145 25.1685 11.514 26 12.5002 26C13.4864 26 14.2859 25.1685 14.2859 24.1428V13.9288Z" fill="currentColor"/>
</svg>