<svg width="9" height="11" viewBox="0 0 9 11" fill="none" xmlns="http://www.w3.org/2000/svg">
<path fill-rule="evenodd" clip-rule="evenodd" d="M2.81818 1.04234C2.62657 1.12526 2.40364 1.03831 2.31969 0.847197C2.23591 0.655831 2.32341 0.432759 2.51507 0.349141C3.04586 0.117502 3.61082 0 4.1939 0C6.50648 0 8.38771 1.87902 8.38771 4.18895C8.38771 4.39782 8.2182 4.56713 8.00915 4.56713C7.80011 4.56713 7.6306 4.39782 7.6306 4.18895C7.6306 2.29628 6.08887 0.756357 4.1939 0.756357C3.71542 0.756357 3.25269 0.852539 2.81818 1.04234ZM6.02226 1.91204C5.50635 1.49808 4.85711 1.27021 4.19386 1.27021C2.58267 1.27021 1.27181 2.57954 1.27181 4.1889V4.82403C1.27181 5.0329 1.44132 5.20221 1.65036 5.20221C1.8594 5.20221 2.02891 5.0329 2.02891 4.82403V4.1889C2.02891 2.99664 3.00012 2.02657 4.19386 2.02657C4.69259 2.02657 5.16045 2.19076 5.54799 2.50182C5.71165 2.63239 5.9493 2.60659 6.08026 2.44386C6.21114 2.28098 6.18514 2.04296 6.02226 1.91204ZM5.84422 4.18905C5.84422 3.2801 5.10387 2.54062 4.19392 2.54062C3.28396 2.54062 2.54361 3.2801 2.54361 4.18905V9.27008C2.54361 9.47906 2.71307 9.64826 2.92217 9.64826C3.13126 9.64826 3.30072 9.47906 3.30072 9.27008V4.18905C3.30072 3.69719 3.70141 3.29697 4.19392 3.29697C4.68643 3.29697 5.08712 3.69719 5.08712 4.18905C5.08712 4.39792 5.25663 4.56723 5.46567 4.56723C5.67471 4.56723 5.84422 4.39792 5.84422 4.18905ZM4.57253 4.189C4.57253 3.98014 4.40301 3.81083 4.19397 3.81083C3.98493 3.81083 3.81542 3.98014 3.81542 4.189V7.04708C3.81542 7.25595 3.98493 7.42526 4.19397 7.42526C4.40301 7.42526 4.57253 7.25595 4.57253 7.04708V4.189ZM4.19397 7.9391C4.40301 7.9391 4.57253 8.10841 4.57253 8.31728V9.9051C4.57253 10.1141 4.40306 10.2833 4.19397 10.2833C3.98488 10.2833 3.81542 10.1141 3.81542 9.9051V8.31728C3.81542 8.10841 3.98493 7.9391 4.19397 7.9391ZM5.84393 5.45921C5.84393 5.25035 5.67442 5.08103 5.46538 5.08103C5.25634 5.08103 5.08683 5.25035 5.08683 5.45921V9.26998C5.08683 9.47896 5.25629 9.64816 5.46538 9.64816C5.67447 9.64816 5.84393 9.47896 5.84393 9.26998V5.45921ZM1.65036 5.71614C1.8594 5.71614 2.02891 5.88545 2.02891 6.09432V8.31727C2.02891 8.52624 1.85945 8.69545 1.65036 8.69545C1.44127 8.69545 1.27181 8.52624 1.27181 8.31727V6.09432C1.27181 5.88545 1.44132 5.71614 1.65036 5.71614ZM8.38755 5.45921C8.38755 5.25035 8.21803 5.08103 8.00899 5.08103C7.79995 5.08103 7.63044 5.25035 7.63044 5.45921V7.04703C7.63044 7.2559 7.79995 7.42521 8.00899 7.42521C8.21803 7.42521 8.38755 7.2559 8.38755 7.04703V5.45921ZM6.41078 2.88643C6.60557 2.80842 6.82529 2.90162 6.90374 3.09524C7.0445 3.44279 7.11588 3.81089 7.11588 4.189V8.31734C7.11588 8.52631 6.94642 8.69551 6.73733 8.69551C6.52824 8.69551 6.35878 8.52631 6.35878 8.31734V4.189C6.35878 3.90855 6.30595 3.63606 6.20175 3.3789C6.12337 3.18521 6.21692 2.96488 6.41078 2.88643ZM0.757104 4.18897C0.757104 3.34296 1.06786 2.53028 1.63211 1.90073C1.77154 1.74501 1.75833 1.50587 1.60254 1.36665C1.4467 1.22725 1.20772 1.2406 1.06806 1.39615C0.379294 2.16484 0 3.1566 0 4.18897V7.04705C0 7.25592 0.169511 7.42523 0.378552 7.42523C0.587594 7.42523 0.757104 7.25592 0.757104 7.04705V4.18897Z" fill="white"/>
</svg>
