<svg width="15" height="14" viewBox="0 0 15 14" fill="none" xmlns="http://www.w3.org/2000/svg">
<g clip-path="url(#clip0_13_2942)">
<path d="M0.333496 3.95999C0.333496 4.68042 1.09763 4.89029 1.56294 4.41077L4.66552 1.25272C5.1424 0.773192 4.93044 0 4.22265 0H1.07518C0.626382 0 0.333496 0.319683 0.333496 0.763418V3.95999ZM2.15141 2.89571L11.2133 12.1281L12.2472 11.0887L3.1854 1.85171L2.15141 2.89571ZM14.0723 10.0257C14.0723 9.29931 13.3069 9.09537 12.8357 9.56896L9.73316 12.7271C9.26202 13.2124 9.47402 13.9844 10.1818 13.9844H13.3293C13.7781 13.9844 14.0723 13.6601 14.0723 13.221V10.0257ZM14.0723 3.95999V0.763418C14.0723 0.319683 13.7781 0 13.3293 0H10.1818C9.47402 0 9.26202 0.773192 9.73316 1.25272L12.8357 4.41077C13.3069 4.89029 14.0723 4.68042 14.0723 3.95999ZM3.1854 12.1281L12.253 2.89571L11.2191 1.85171L2.15141 11.0828L3.1854 12.1281ZM0.333496 10.0257V13.221C0.333496 13.6601 0.626382 13.9844 1.07518 13.9844H4.22265C4.93044 13.9844 5.1424 13.2124 4.66552 12.7271L1.56294 9.56896C1.09763 9.09537 0.333496 9.29931 0.333496 10.0257Z" fill="currentColor"/>
</g>
<defs>
<clipPath id="clip0_13_2942">
<rect width="14" height="14" fill="white" transform="translate(0.333496)"/>
</clipPath>
</defs>
</svg>
