<svg width="20" height="20" viewBox="0 0 20 20" fill="none" xmlns="http://www.w3.org/2000/svg">
    <g clip-path="url(#a)">
        <path fill-rule="evenodd" clip-rule="evenodd" d="M4.904 1.457C3.286.54.983-.483.25.25-.492.992.567 3.347 1.495 4.97a9.95 9.95 0 0 1 3.41-3.512ZM19.771.337c1.06 1.059-1.879 5.717-2.376 6.214-.497.496-1.758.04-2.819-1.02-1.06-1.06-1.516-2.322-1.02-2.82.497-.496 5.155-3.435 6.215-2.375ZM18.035 7.35c.241-.241.268-.659.12-1.165.15-.243.316-.528.486-.838a9.576 9.576 0 0 1 1.238 4.721c0 5.315-4.31 9.624-9.625 9.624a9.624 9.624 0 0 1 0-19.247c1.603 0 3.114.391 4.442 1.084-.326.182-.624.36-.877.52-.387-.07-.704-.016-.903.182-.364.364-.243 1.127.238 1.99.248.488.635 1.018 1.132 1.515.093.094.188.183.284.269 1.375 1.309 2.9 1.91 3.465 1.345Z" fill="currentColor"/>
    </g>
    <defs>
        <clipPath id="a"><path d="M0 0h20v20H0z"/></clipPath>
    </defs>
</svg>
