<svg width="14" height="14" viewBox="0 0 14 14" fill="none" xmlns="http://www.w3.org/2000/svg">
<path d="M14 6.99999C14 10.8225 10.8294 14 6.99999 14C3.17744 14 0 10.8225 0 6.99999C0 3.17059 3.17059 0 6.99313 0C10.8225 0 14 3.17059 14 6.99999ZM6.40293 4.2549V6.40293H4.2549C3.89804 6.40293 3.65097 6.64999 3.65097 7.00685C3.65097 7.35689 3.89804 7.5902 4.2549 7.5902H6.40293V9.7451C6.40293 10.0951 6.64313 10.349 6.99313 10.349C7.35 10.349 7.59702 10.1019 7.59702 9.7451V7.5902H9.75198C10.1019 7.5902 10.3559 7.35689 10.3559 7.00685C10.3559 6.64999 10.1019 6.40293 9.75198 6.40293H7.59702V4.2549C7.59702 3.89804 7.35 3.64412 6.99313 3.64412C6.64313 3.64412 6.40293 3.89804 6.40293 4.2549Z" fill="currentColor"/>
</svg>
