<svg width="10" height="10" viewBox="0 0 10 10" fill="none" xmlns="http://www.w3.org/2000/svg">
<path d="M4.52042 10H5.47958C5.81197 10 6.05888 9.80048 6.1396 9.47268L6.34853 8.55582L6.57645 8.47506L7.36942 8.96912C7.65432 9.15439 7.97246 9.11164 8.20988 8.87411L8.87464 8.20903C9.11681 7.9715 9.1548 7.65321 8.97436 7.36817L8.47578 6.57482L8.55651 6.35154L9.47293 6.14252C9.80057 6.06176 10 5.81473 10 5.48219V4.53682C10 4.20428 9.80057 3.95724 9.47293 3.87648L8.566 3.65796L8.47578 3.43468L8.97911 2.64133C9.15954 2.35629 9.12156 2.04276 8.87939 1.80048L8.21463 1.13064C7.97721 0.897862 7.66382 0.855107 7.37417 1.03563L6.5812 1.52969L6.34853 1.44418L6.1396 0.527316C6.05888 0.194774 5.81197 0 5.47958 0H4.52042C4.18329 0 3.94112 0.194774 3.8604 0.527316L3.65147 1.44418L3.41406 1.52969L2.62108 1.03563C2.33143 0.855107 2.01804 0.897862 1.78538 1.13064L1.11586 1.80048C0.878443 2.04276 0.835708 2.35629 1.02089 2.64133L1.51947 3.43468L1.42925 3.65796L0.527066 3.87648C0.194682 3.95724 0 4.20428 0 4.53682V5.48219C0 5.81473 0.19943 6.06176 0.527066 6.14252L1.43875 6.35154L1.51947 6.57482L1.02089 7.36817C0.840456 7.65321 0.878443 7.9715 1.12061 8.20903L1.78538 8.87411C2.02279 9.11164 2.34093 9.15439 2.62583 8.96912L3.4188 8.47506L3.65147 8.55582L3.8604 9.47268C3.94112 9.80048 4.18329 10 4.52042 10ZM4.58215 9.42518C4.46819 9.42518 4.40646 9.37292 4.38746 9.26841L4.11206 8.11401C3.8509 8.04276 3.60399 7.94299 3.40931 7.83373L2.40266 8.46081C2.31244 8.51781 2.22697 8.50831 2.1415 8.42755L1.56695 7.84798C1.48623 7.76722 1.47673 7.68646 1.53846 7.59145L2.16049 6.58432C2.07028 6.39905 1.95632 6.14727 1.88984 5.88599L0.731244 5.6152C0.626781 5.5962 0.569801 5.53444 0.569801 5.42043V4.59382C0.569801 4.47981 0.622032 4.41805 0.731244 4.3943L1.88509 4.12352C1.95632 3.85273 2.07502 3.5962 2.15575 3.42043L1.53371 2.41805C1.47198 2.31829 1.47673 2.23753 1.55745 2.15677L2.13675 1.58195C2.22222 1.50119 2.30294 1.49169 2.40266 1.54869L3.39981 2.16627C3.59449 2.06651 3.8604 1.962 4.11681 1.88599L4.38746 0.731591C4.40646 0.627078 4.46819 0.574822 4.58215 0.574822H5.41785C5.53181 0.574822 5.59354 0.622328 5.61254 0.731591L5.88794 1.89549C6.15385 1.962 6.39126 2.07126 6.59069 2.17102L7.59259 1.54869C7.69231 1.49169 7.77303 1.50119 7.8585 1.58195L8.4378 2.15677C8.51852 2.23753 8.52327 2.31829 8.46154 2.41805L7.83951 3.42043C7.92498 3.5962 8.04368 3.84798 8.11491 4.12352L9.26876 4.3943C9.37797 4.41805 9.42545 4.47981 9.42545 4.59382V5.42043C9.42545 5.53444 9.37322 5.5962 9.26876 5.6152L8.11016 5.88599C8.03894 6.15202 7.93447 6.39905 7.83476 6.58432L8.45679 7.59145C8.51852 7.68646 8.50902 7.76722 8.43305 7.84798L7.85375 8.42755C7.76828 8.50831 7.68281 8.51781 7.59259 8.46081L6.58595 7.83373C6.39601 7.94299 6.15385 8.04276 5.88794 8.11401L5.61254 9.26841C5.59354 9.37767 5.53181 9.42518 5.41785 9.42518H4.58215ZM5 6.8171C5.99715 6.8171 6.81387 5.99525 6.81387 4.99762C6.81387 4.0095 5.99715 3.1924 5 3.1924C4.0076 3.1924 3.18613 4.0095 3.18613 4.99762C3.18613 5.99525 4.0076 6.8171 5 6.8171ZM5 6.24703C4.32099 6.24703 3.75594 5.68171 3.75594 4.99762C3.75594 4.32304 4.32099 3.75772 5 3.75772C5.67426 3.75772 6.23932 4.32304 6.23932 4.99762C6.23932 5.67696 5.67426 6.24703 5 6.24703Z" fill="white"/>
</svg>
