<svg width="54" height="55" viewBox="0 0 54 55" fill="none" xmlns="http://www.w3.org/2000/svg">
    <path d="M27 54.5C23.2985 54.5 19.8225 53.7954 16.572 52.3862C13.3215 50.977 10.4562 49.0324 7.97599 46.5522C5.49582 44.072 3.54175 41.2067 2.11378 37.9562C0.704593 34.6868 0 31.2015 0 27.5C0 23.8173 0.704593 20.3507 2.11378 17.1002C3.52296 13.8309 5.46764 10.9562 7.94781 8.47599C10.4468 5.97704 13.3215 4.02296 16.572 2.61378C19.8225 1.20459 23.2891 0.5 26.9718 0.5C30.6733 0.5 34.1493 1.20459 37.3998 2.61378C40.6503 4.02296 43.5157 5.97704 45.9958 8.47599C48.4948 10.9562 50.4489 13.8309 51.858 17.1002C53.286 20.3507 54 23.8173 54 27.5C54 31.2015 53.2954 34.6868 51.8862 37.9562C50.477 41.2067 48.523 44.072 46.024 46.5522C43.5438 49.0324 40.6785 50.977 37.428 52.3862C34.1775 53.7954 30.7015 54.5 27 54.5ZM27 50.4134C30.1754 50.4134 33.1441 49.8215 35.9061 48.6378C38.6868 47.4541 41.12 45.8194 43.2056 43.7338C45.31 41.6294 46.9447 39.1962 48.1096 36.4342C49.2933 33.6534 49.8852 30.6754 49.8852 27.5C49.8852 24.3434 49.2933 21.3841 48.1096 18.6221C46.9447 15.8413 45.31 13.4081 43.2056 11.3225C41.12 9.21816 38.6868 7.57411 35.9061 6.3904C33.1441 5.20668 30.166 4.61482 26.9718 4.61482C23.7964 4.61482 20.8278 5.20668 18.0658 6.3904C15.3038 7.57411 12.88 9.21816 10.7944 11.3225C8.70877 13.4081 7.07411 15.8413 5.8904 18.6221C4.70668 21.3841 4.11482 24.3434 4.11482 27.5C4.11482 30.6754 4.70668 33.6534 5.8904 36.4342C7.07411 39.1962 8.70877 41.6294 10.7944 43.7338C12.88 45.8194 15.3038 47.4541 18.0658 48.6378C20.8466 49.8215 23.8246 50.4134 27 50.4134ZM17.8121 38.6608C17.2672 38.6608 16.8069 38.4729 16.4311 38.0971C16.0553 37.7025 15.8674 37.2422 15.8674 36.7161C15.8674 36.1712 16.0647 35.7202 16.4593 35.3633L24.238 27.5282L16.4593 19.7213C16.0647 19.3643 15.8674 18.9134 15.8674 18.3685C15.8674 17.8236 16.0553 17.3727 16.4311 17.0157C16.8069 16.6399 17.2672 16.452 17.8121 16.452C18.357 16.452 18.8079 16.6493 19.1649 17.0438L26.9718 24.8225L34.8351 17.0157C35.2484 16.6211 35.7088 16.4238 36.2161 16.4238C36.7422 16.4238 37.1931 16.6117 37.5689 16.9875C37.9635 17.3445 38.1608 17.8048 38.1608 18.3685C38.1608 18.8758 37.9635 19.3267 37.5689 19.7213L29.762 27.5282L37.5407 35.3351C37.9353 35.7296 38.1326 36.19 38.1326 36.7161C38.1326 37.2422 37.9353 37.7025 37.5407 38.0971C37.1649 38.4729 36.714 38.6608 36.1879 38.6608C35.643 38.6608 35.1733 38.4635 34.7787 38.0689L26.9718 30.2902L19.2213 38.0689C18.8643 38.4635 18.3946 38.6608 17.8121 38.6608Z" fill="#F25E61" />
</svg>
