<svg xmlns="http://www.w3.org/2000/svg" width="38" height="37" viewBox="0 0 38 37" fill="none">
  <mask id="path-1-outside-1_536_8123" maskUnits="userSpaceOnUse" x="-1.07154e-10" y="-0.5" width="38" height="38" fill="black">
    <rect fill="white" x="-1.07154e-10" y="-0.5" width="38" height="38"/>
    <path fill-rule="evenodd" clip-rule="evenodd" d="M13.4621 2.57692L14.8467 2.57692C16.7585 2.57692 18.3082 4.12671 18.3082 6.03846L18.3082 9.5L13.4621 9.5C11.5503 9.5 10.0005 7.95022 10.0005 6.03846C10.0005 4.12671 11.5503 2.57692 13.4621 2.57692ZM14.8467 0.5C17.3818 0.5 19.5191 2.20327 20.1766 4.52786C20.9315 3.75009 21.9881 3.2668 23.1576 3.2668L24.5422 3.2668C26.8364 3.2668 28.6961 5.12654 28.6961 7.42064C28.6961 8.48752 28.2939 9.46046 27.6328 10.1961L32.8462 10.1961C35.1403 10.1961 37 12.0558 37 14.3499L37 20.5807L37 22.6576L34.9231 22.6576L34.2283 22.6576L34.2283 30.9615C34.2283 34.0203 31.7487 36.5 28.6899 36.5L9.30526 36.5C6.24645 36.5 3.7668 34.0203 3.7668 30.9615L3.7668 22.6576L3.07692 22.6576L1 22.6576L1 20.5807L1 14.3499C1 12.0558 2.85974 10.1961 5.15385 10.1961L9.80292 10.1961C8.65062 9.18116 7.92362 7.69471 7.92362 6.03846C7.92362 2.97965 10.4033 0.5 13.4621 0.5L14.8467 0.5ZM5.84372 22.6576L5.84372 30.9615C5.84372 32.8733 7.3935 34.4231 9.30526 34.4231L28.6899 34.4231C30.6016 34.4231 32.1514 32.8733 32.1514 30.9615L32.1514 22.6576L21.0769 22.6576L20.3846 22.6576L19 22.6576L18.3077 22.6576L5.84372 22.6576ZM24.5422 5.34372L23.1576 5.34372C22.0106 5.34372 21.0807 6.27359 21.0807 7.42064L21.0807 9.49757L24.5422 9.49757C25.6893 9.49757 26.6192 8.5677 26.6192 7.42064C26.6192 6.27359 25.6893 5.34372 24.5422 5.34372ZM18.3077 12.273L5.15385 12.273C4.00679 12.273 3.07692 13.2029 3.07692 14.3499L3.07692 20.5807L18.3077 20.5807L18.3077 12.273ZM21.0769 12.273L32.8462 12.273C33.9932 12.273 34.9231 13.2029 34.9231 14.3499L34.9231 20.5807L21.0769 20.5807L21.0769 12.273Z"/>
  </mask>
  <path fill-rule="evenodd" clip-rule="evenodd" d="M13.4621 2.57692L14.8467 2.57692C16.7585 2.57692 18.3082 4.12671 18.3082 6.03846L18.3082 9.5L13.4621 9.5C11.5503 9.5 10.0005 7.95022 10.0005 6.03846C10.0005 4.12671 11.5503 2.57692 13.4621 2.57692ZM14.8467 0.5C17.3818 0.5 19.5191 2.20327 20.1766 4.52786C20.9315 3.75009 21.9881 3.2668 23.1576 3.2668L24.5422 3.2668C26.8364 3.2668 28.6961 5.12654 28.6961 7.42064C28.6961 8.48752 28.2939 9.46046 27.6328 10.1961L32.8462 10.1961C35.1403 10.1961 37 12.0558 37 14.3499L37 20.5807L37 22.6576L34.9231 22.6576L34.2283 22.6576L34.2283 30.9615C34.2283 34.0203 31.7487 36.5 28.6899 36.5L9.30526 36.5C6.24645 36.5 3.7668 34.0203 3.7668 30.9615L3.7668 22.6576L3.07692 22.6576L1 22.6576L1 20.5807L1 14.3499C1 12.0558 2.85974 10.1961 5.15385 10.1961L9.80292 10.1961C8.65062 9.18116 7.92362 7.69471 7.92362 6.03846C7.92362 2.97965 10.4033 0.5 13.4621 0.5L14.8467 0.5ZM5.84372 22.6576L5.84372 30.9615C5.84372 32.8733 7.3935 34.4231 9.30526 34.4231L28.6899 34.4231C30.6016 34.4231 32.1514 32.8733 32.1514 30.9615L32.1514 22.6576L21.0769 22.6576L20.3846 22.6576L19 22.6576L18.3077 22.6576L5.84372 22.6576ZM24.5422 5.34372L23.1576 5.34372C22.0106 5.34372 21.0807 6.27359 21.0807 7.42064L21.0807 9.49757L24.5422 9.49757C25.6893 9.49757 26.6192 8.5677 26.6192 7.42064C26.6192 6.27359 25.6893 5.34372 24.5422 5.34372ZM18.3077 12.273L5.15385 12.273C4.00679 12.273 3.07692 13.2029 3.07692 14.3499L3.07692 20.5807L18.3077 20.5807L18.3077 12.273ZM21.0769 12.273L32.8462 12.273C33.9932 12.273 34.9231 13.2029 34.9231 14.3499L34.9231 20.5807L21.0769 20.5807L21.0769 12.273Z" fill="url(#paint0_linear_536_8123)"/>
  <path d="M18.3082 9.5L18.3082 10L18.8082 10L18.8082 9.5L18.3082 9.5ZM20.1766 4.52786L19.6955 4.66395L19.9315 5.49831L20.5354 4.8761L20.1766 4.52786ZM27.6328 10.1961L27.2609 9.86189L26.5113 10.6961L27.6328 10.6961L27.6328 10.1961ZM37 14.3499L37.5 14.3499L37 14.3499ZM37 20.5807L36.5 20.5807L37 20.5807ZM37 22.6576L37 23.1576L37.5 23.1576L37.5 22.6576L37 22.6576ZM34.2283 22.6576L34.2283 22.1576L33.7283 22.1576L33.7283 22.6576L34.2283 22.6576ZM3.7668 22.6576L4.2668 22.6576L4.2668 22.1576L3.7668 22.1576L3.7668 22.6576ZM1 22.6576L0.5 22.6576L0.5 23.1576L1 23.1576L1 22.6576ZM1 20.5807L0.5 20.5807L1 20.5807ZM1 14.3499L1.5 14.3499L1 14.3499ZM5.15385 10.1961L5.15385 9.69609L5.15385 10.1961ZM9.80292 10.1961L9.80292 10.6961L11.1271 10.6961L10.1334 9.82088L9.80292 10.1961ZM5.84372 22.6576L5.84372 22.1576L5.34372 22.1576L5.34372 22.6576L5.84372 22.6576ZM32.1514 22.6576L32.6514 22.6576L32.6514 22.1576L32.1514 22.1576L32.1514 22.6576ZM21.0769 22.6576L21.0769 23.1576L21.0769 22.6576ZM20.3846 22.6576L20.3846 22.1576L20.3846 22.6576ZM19 22.6576L19 23.1576L19 22.6576ZM21.0807 9.49757L20.5807 9.49757L20.5807 9.99757L21.0807 9.99757L21.0807 9.49757ZM5.15385 12.273L5.15385 11.773L5.15385 12.273ZM18.3077 12.273L18.8077 12.273L18.8077 11.773L18.3077 11.773L18.3077 12.273ZM3.07692 14.3499L3.57692 14.3499L3.07692 14.3499ZM3.07692 20.5807L2.57692 20.5807L2.57692 21.0807L3.07692 21.0807L3.07692 20.5807ZM18.3077 20.5807L18.3077 21.0807L18.8077 21.0807L18.8077 20.5807L18.3077 20.5807ZM21.0769 12.273L21.0769 11.773L20.5769 11.773L20.5769 12.273L21.0769 12.273ZM34.9231 14.3499L35.4231 14.3499L34.9231 14.3499ZM34.9231 20.5807L34.9231 21.0807L35.4231 21.0807L35.4231 20.5807L34.9231 20.5807ZM21.0769 20.5807L20.5769 20.5807L20.5769 21.0807L21.0769 21.0807L21.0769 20.5807ZM14.8467 2.07692L13.4621 2.07692L13.4621 3.07692L14.8467 3.07692L14.8467 2.07692ZM18.8082 6.03846C18.8082 3.85056 17.0346 2.07692 14.8467 2.07692L14.8467 3.07692C16.4823 3.07692 17.8082 4.40285 17.8082 6.03846L18.8082 6.03846ZM18.8082 9.5L18.8082 6.03846L17.8082 6.03846L17.8082 9.5L18.8082 9.5ZM13.4621 10L18.3082 10L18.3082 9L13.4621 9L13.4621 10ZM9.50054 6.03846C9.50054 8.22636 11.2742 10 13.4621 10L13.4621 9C11.8265 9 10.5005 7.67408 10.5005 6.03846L9.50054 6.03846ZM13.4621 2.07692C11.2742 2.07692 9.50054 3.85056 9.50054 6.03846L10.5005 6.03846C10.5005 4.40285 11.8265 3.07692 13.4621 3.07692L13.4621 2.07692ZM20.6578 4.39177C19.941 1.85758 17.6114 0 14.8467 0L14.8467 1C17.1522 1 19.0973 2.54895 19.6955 4.66395L20.6578 4.39177ZM23.1576 2.7668C21.8475 2.7668 20.663 3.30885 19.8179 4.17962L20.5354 4.8761C21.2001 4.19134 22.1288 3.7668 23.1576 3.7668L23.1576 2.7668ZM24.5422 2.7668L23.1576 2.7668L23.1576 3.7668L24.5422 3.7668L24.5422 2.7668ZM29.1961 7.42064C29.1961 4.8504 27.1125 2.7668 24.5422 2.7668L24.5422 3.7668C26.5602 3.7668 28.1961 5.40268 28.1961 7.42064L29.1961 7.42064ZM28.0047 10.5303C28.745 9.70645 29.1961 8.61563 29.1961 7.42064L28.1961 7.42064C28.1961 8.35942 27.8427 9.21447 27.2609 9.86189L28.0047 10.5303ZM32.8462 9.69609L27.6328 9.69609L27.6328 10.6961L32.8462 10.6961L32.8462 9.69609ZM37.5 14.3499C37.5 11.7797 35.4164 9.69609 32.8462 9.69609L32.8462 10.6961C34.8641 10.6961 36.5 12.332 36.5 14.3499L37.5 14.3499ZM37.5 20.5807L37.5 14.3499L36.5 14.3499L36.5 20.5807L37.5 20.5807ZM37.5 22.6576L37.5 20.5807L36.5 20.5807L36.5 22.6576L37.5 22.6576ZM34.9231 23.1576L37 23.1576L37 22.1576L34.9231 22.1576L34.9231 23.1576ZM34.2283 23.1576L34.9231 23.1576L34.9231 22.1576L34.2283 22.1576L34.2283 23.1576ZM33.7283 22.6576L33.7283 30.9615L34.7283 30.9615L34.7283 22.6576L33.7283 22.6576ZM33.7283 30.9615C33.7283 33.7442 31.4725 36 28.6899 36L28.6899 37C32.0248 37 34.7283 34.2965 34.7283 30.9615L33.7283 30.9615ZM28.6899 36L9.30526 36L9.30526 37L28.6899 37L28.6899 36ZM9.30526 36C6.52259 36 4.2668 33.7442 4.2668 30.9615L3.2668 30.9615C3.2668 34.2965 5.97031 37 9.30526 37L9.30526 36ZM4.2668 30.9615L4.2668 22.6576L3.2668 22.6576L3.2668 30.9615L4.2668 30.9615ZM3.07692 23.1576L3.7668 23.1576L3.7668 22.1576L3.07692 22.1576L3.07692 23.1576ZM1 23.1576L3.07692 23.1576L3.07692 22.1576L1 22.1576L1 23.1576ZM0.5 20.5807L0.5 22.6576L1.5 22.6576L1.5 20.5807L0.5 20.5807ZM0.5 14.3499L0.5 20.5807L1.5 20.5807L1.5 14.3499L0.5 14.3499ZM5.15385 9.69609C2.5836 9.69609 0.5 11.7797 0.5 14.3499L1.5 14.3499C1.5 12.332 3.13588 10.6961 5.15385 10.6961L5.15385 9.69609ZM9.80292 9.69609L5.15385 9.69609L5.15385 10.6961L9.80292 10.6961L9.80292 9.69609ZM7.42362 6.03846C7.42362 7.84431 8.21695 9.46547 9.47244 10.5713L10.1334 9.82088C9.0843 8.89684 8.42362 7.54511 8.42362 6.03846L7.42362 6.03846ZM13.4621 0C10.1271 0 7.42362 2.70351 7.42362 6.03846L8.42362 6.03846C8.42362 3.2558 10.6794 1 13.4621 1L13.4621 0ZM14.8467 0L13.4621 0L13.4621 1L14.8467 1L14.8467 0ZM6.34372 30.9615L6.34372 22.6576L5.34372 22.6576L5.34372 30.9615L6.34372 30.9615ZM9.30526 33.9231C7.66965 33.9231 6.34372 32.5972 6.34372 30.9615L5.34372 30.9615C5.34372 33.1494 7.11736 34.9231 9.30526 34.9231L9.30526 33.9231ZM28.6899 33.9231L9.30526 33.9231L9.30526 34.9231L28.6899 34.9231L28.6899 33.9231ZM31.6514 30.9615C31.6514 32.5972 30.3255 33.9231 28.6899 33.9231L28.6899 34.9231C30.8778 34.9231 32.6514 33.1494 32.6514 30.9615L31.6514 30.9615ZM31.6514 22.6576L31.6514 30.9615L32.6514 30.9615L32.6514 22.6576L31.6514 22.6576ZM21.0769 23.1576L32.1514 23.1576L32.1514 22.1576L21.0769 22.1576L21.0769 23.1576ZM20.3846 23.1576L21.0769 23.1576L21.0769 22.1576L20.3846 22.1576L20.3846 23.1576ZM19 23.1576L20.3846 23.1576L20.3846 22.1576L19 22.1576L19 23.1576ZM18.3077 23.1576L19 23.1576L19 22.1576L18.3077 22.1576L18.3077 23.1576ZM5.84372 23.1576L18.3077 23.1576L18.3077 22.1576L5.84372 22.1576L5.84372 23.1576ZM23.1576 5.84372L24.5422 5.84372L24.5422 4.84372L23.1576 4.84372L23.1576 5.84372ZM21.5807 7.42064C21.5807 6.54973 22.2867 5.84372 23.1576 5.84372L23.1576 4.84372C21.7344 4.84372 20.5807 5.99745 20.5807 7.42064L21.5807 7.42064ZM21.5807 9.49757L21.5807 7.42064L20.5807 7.42064L20.5807 9.49757L21.5807 9.49757ZM24.5422 8.99757L21.0807 8.99757L21.0807 9.99757L24.5422 9.99757L24.5422 8.99757ZM26.1192 7.42064C26.1192 8.29156 25.4132 8.99757 24.5422 8.99757L24.5422 9.99757C25.9654 9.99757 27.1192 8.84384 27.1192 7.42064L26.1192 7.42064ZM24.5422 5.84372C25.4132 5.84372 26.1192 6.54973 26.1192 7.42064L27.1192 7.42064C27.1192 5.99745 25.9654 4.84372 24.5422 4.84372L24.5422 5.84372ZM5.15385 12.773L18.3077 12.773L18.3077 11.773L5.15385 11.773L5.15385 12.773ZM3.57692 14.3499C3.57692 13.479 4.28293 12.773 5.15385 12.773L5.15385 11.773C3.73065 11.773 2.57692 12.9267 2.57692 14.3499L3.57692 14.3499ZM3.57692 20.5807L3.57692 14.3499L2.57692 14.3499L2.57692 20.5807L3.57692 20.5807ZM18.3077 20.0807L3.07692 20.0807L3.07692 21.0807L18.3077 21.0807L18.3077 20.0807ZM17.8077 12.273L17.8077 20.5807L18.8077 20.5807L18.8077 12.273L17.8077 12.273ZM32.8462 11.773L21.0769 11.773L21.0769 12.773L32.8462 12.773L32.8462 11.773ZM35.4231 14.3499C35.4231 12.9267 34.2694 11.773 32.8462 11.773L32.8462 12.773C33.7171 12.773 34.4231 13.479 34.4231 14.3499L35.4231 14.3499ZM35.4231 20.5807L35.4231 14.3499L34.4231 14.3499L34.4231 20.5807L35.4231 20.5807ZM21.0769 21.0807L34.9231 21.0807L34.9231 20.0807L21.0769 20.0807L21.0769 21.0807ZM20.5769 12.273L20.5769 20.5807L21.5769 20.5807L21.5769 12.273L20.5769 12.273Z" fill="url(#paint1_linear_536_8123)" mask="url(#path-1-outside-1_536_8123)"/>
  <defs>
    <linearGradient id="paint0_linear_536_8123" x1="1" y1="0.0909127" x2="38.9151" y2="2.23565" gradientUnits="userSpaceOnUse">
      <stop stop-color="#2091F6"/>
      <stop offset="1" stop-color="#21B568"/>
    </linearGradient>
    <linearGradient id="paint1_linear_536_8123" x1="1" y1="0.0909127" x2="38.9151" y2="2.23565" gradientUnits="userSpaceOnUse">
      <stop stop-color="#2091F6"/>
      <stop offset="1" stop-color="#21B568"/>
    </linearGradient>
  </defs>
</svg>