<svg width="62" height="64" viewBox="0 0 62 64" fill="none" xmlns="http://www.w3.org/2000/svg">
<path id="Union" fill-rule="evenodd" clip-rule="evenodd" d="M50.4639 0.708685C50.8606 -0.236228 52.3516 -0.236228 52.7482 0.708685C53.5716 2.67198 54.74 5.08462 55.908 6.24112C57.0833 7.40472 59.4235 8.56837 61.3047 9.38458C62.2318 9.78683 62.2318 11.2134 61.3047 11.6156C59.4235 12.4317 57.0833 13.5953 55.908 14.7589C54.74 15.9154 53.5716 18.328 52.7482 20.2913C52.3516 21.2362 50.8606 21.2362 50.4639 20.2913C49.6406 18.328 48.4722 15.9154 47.3042 14.7589C46.1358 13.6024 43.6988 12.446 41.7156 11.6306C40.7615 11.2382 40.7615 9.762 41.7156 9.36951C43.6988 8.5541 46.1358 7.39757 47.3042 6.24112C48.4722 5.08462 49.6406 2.67198 50.4639 0.708685ZM27.0827 10.8326C27.5093 9.72247 29.2026 9.72247 29.6292 10.8326C31.4332 15.528 34.9014 23.6934 38.3697 27.1164C41.847 30.5485 49.7038 33.9805 54.18 35.7571C55.273 36.191 55.273 37.8094 54.18 38.2433C49.7033 40.0199 41.847 43.4519 38.3697 46.8835C34.9014 50.3066 31.4332 58.4724 29.6292 63.1676C29.2026 64.2775 27.5093 64.2775 27.0827 63.1676C25.2787 58.4724 21.8104 50.3066 18.3422 46.8835C14.8739 43.4603 6.60066 40.0377 1.84336 38.2571C0.718562 37.8361 0.718562 36.1648 1.84331 35.7438C6.60061 33.9627 14.8739 30.5396 18.3422 27.1164C21.8104 23.6934 25.2787 15.528 27.0827 10.8326ZM8.97285 6.83654C8.45545 5.72115 6.63913 5.72115 6.12172 6.83654C5.53425 8.10284 4.82599 9.3881 4.11773 10.0919C3.40948 10.7957 2.11606 11.4996 0.841788 12.0834C-0.28063 12.5976 -0.280579 14.4025 0.84184 14.9167C2.11612 15.5004 3.40948 16.2043 4.11773 16.9081C4.82599 17.6119 5.53425 18.8972 6.12172 20.1635C6.63913 21.2788 8.45545 21.2788 8.97285 20.1635C9.56027 18.8972 10.2686 17.6119 10.9768 16.9081C11.6945 16.1949 12.957 15.4817 14.1826 14.8935C15.2725 14.3703 15.2725 12.6298 14.1826 12.1066C12.9571 11.5183 11.6945 10.8052 10.9768 10.0919C10.2686 9.3881 9.56027 8.10284 8.97285 6.83654Z" fill="url(#paint0_linear_704_15058)"/>
<defs>
<linearGradient id="paint0_linear_704_15058" x1="-3.50061e-07" y1="-0.727266" x2="65.311" y2="2.85172" gradientUnits="userSpaceOnUse">
<stop stop-color="#2091F6"/>
<stop offset="1" stop-color="#21B568"/>
</linearGradient>
</defs>
</svg>
