<svg width="20" height="20" viewBox="0 0 14 11" fill="none" xmlns="http://www.w3.org/2000/svg">
<path d="M0.057675 0.793196C0.200571 0.444291 0.564036 0.293765 0.869477 0.456995L4.76074 2.53654C5.43608 2.89745 5.39741 4.00914 4.69912 4.30768L0.824757 5.96407C0.508939 6.09909 0.157113 5.91607 0.0389123 5.55531C-0.0792886 5.19455 0.0808967 4.79266 0.396714 4.65764L3.42525 3.36283L0.351994 1.72052C0.046553 1.55729 -0.0852213 1.1421 0.057675 0.793196Z" fill="currentColor"/>
<path d="M13.9423 0.793196C13.7994 0.444291 13.436 0.293765 13.1305 0.456995L9.23926 2.53654C8.56392 2.89745 8.60259 4.00914 9.30088 4.30768L13.1752 5.96407C13.4911 6.09909 13.8429 5.91607 13.9611 5.55531C14.0793 5.19455 13.9191 4.79266 13.6033 4.65764L10.5747 3.36283L13.648 1.72052C13.9534 1.55729 14.0852 1.1421 13.9423 0.793196Z" fill="currentColor"/>
<path fill-rule="evenodd" clip-rule="evenodd" d="M3.33259 7.97224C3.7448 7.56003 4.41312 7.56003 4.82532 7.97224C6.0214 9.16832 7.96063 9.16832 9.1567 7.97224C9.56891 7.56003 10.2372 7.56003 10.6494 7.97224C11.0616 8.38445 11.0616 8.68078 10.6494 9.09299C8.62894 11.1135 5.35308 11.1135 3.33259 9.09299C2.92039 8.68078 2.92039 8.38445 3.33259 7.97224Z" fill="currentColor"/>
</svg>
