<svg width="11" height="12" viewBox="0 0 11 12" fill="none" xmlns="http://www.w3.org/2000/svg">
<g clip-path="url(#clip0)">
<path fill-rule="evenodd" clip-rule="evenodd" d="M10.3828 6.0827C10.3828 5.70715 10.3491 5.34605 10.2865 4.99939H5.29845V7.04805H8.14875C8.02598 7.71007 7.65284 8.27098 7.09192 8.64653V9.97539H8.80355C9.80501 9.05337 10.3828 7.69562 10.3828 6.0827Z" fill="#4285F4"/>
<path fill-rule="evenodd" clip-rule="evenodd" d="M5.2979 11.259C6.72787 11.259 7.92673 10.7848 8.80301 9.9759L7.09138 8.64704C6.61713 8.96481 6.01048 9.15258 5.2979 9.15258C3.91849 9.15258 2.75092 8.22094 2.33445 6.96912H0.565048V8.34131C1.43651 10.0722 3.22758 11.259 5.2979 11.259Z" fill="#34A853"/>
<path fill-rule="evenodd" clip-rule="evenodd" d="M2.33306 6.96921C2.22714 6.65144 2.16695 6.312 2.16695 5.96294C2.16695 5.61387 2.22714 5.27443 2.33306 4.95666V3.58447H0.563656C0.204961 4.29946 0.000335693 5.10833 0.000335693 5.96294C0.000335693 6.81755 0.204961 7.62642 0.563656 8.3414L2.33306 6.96921Z" fill="#FBBC05"/>
<path fill-rule="evenodd" clip-rule="evenodd" d="M5.2979 2.77391C6.07548 2.77391 6.77361 3.04113 7.32248 3.56593L8.84152 2.04689C7.92432 1.19228 6.72546 0.66748 5.2979 0.66748C3.22758 0.66748 1.43651 1.85431 0.565048 3.58519L2.33445 4.95738C2.75092 3.70556 3.91849 2.77391 5.2979 2.77391Z" fill="#EA4335"/>
</g>
<defs>
<clipPath id="clip0">
<rect width="10.5923" height="10.5923" fill="white" transform="translate(0 0.667358)"/>
</clipPath>
</defs>
</svg>
