<svg width="116" height="35" viewBox="0 0 116 35" fill="none" xmlns="http://www.w3.org/2000/svg">
<path d="M111.241 34.1111H4.75926C2.41773 34.1111 0.5 32.2413 0.5 29.9583V5.04167C0.5 2.75868 2.41773 0.888894 4.75926 0.888894H111.241C113.582 0.888894 115.5 2.75868 115.5 5.04167V29.9583C115.5 32.2413 113.582 34.1111 111.241 34.1111Z" fill="white"/>
<path d="M111.241 1.55438C113.213 1.55438 114.817 3.11893 114.817 5.04167V29.9583C114.817 31.8811 113.213 33.4456 111.241 33.4456H4.75926C2.78722 33.4456 1.18255 31.8811 1.18255 29.9583V5.04167C1.18255 3.11893 2.78722 1.55438 4.75926 1.55438H111.241ZM111.241 0.888894H4.75926C2.41773 0.888894 0.5 2.75868 0.5 5.04167V29.9583C0.5 32.2413 2.41773 34.1111 4.75926 34.1111H111.241C113.582 34.1111 115.5 32.2413 115.5 29.9583V5.04167C115.5 2.75868 113.582 0.888894 111.241 0.888894Z" fill="#A6A6A6"/>
<path d="M8.75003 7.15026C8.49979 7.40566 8.35498 7.80329 8.35498 8.31823V26.686C8.35498 27.2009 8.49979 27.5985 8.75003 27.8539L8.81179 27.91L19.3684 17.6215V17.3786L8.81179 7.09005L8.75003 7.15026Z" fill="#141729"/>
<path d="M24.1612 21.0527L20.6462 17.6215V17.3785L24.1655 13.9473L24.2442 13.9919L28.4119 16.304C29.6013 16.9601 29.6013 18.0399 28.4119 18.7002L24.2442 21.0081L24.1612 21.0527Z" fill="#141729"/>
<path d="M23.6055 21.647L20.0075 18.1389L9.38916 28.4928C9.78421 28.8977 10.4284 28.9465 11.161 28.5416L23.6055 21.647Z" fill="#141729"/>
<path d="M23.6055 13.3531L11.161 6.45842C10.4284 6.05768 9.78421 6.10647 9.38916 6.51137L20.0075 16.8611L23.6055 13.3531Z" fill="#141729"/>
<path d="M40.8928 9.39688C40.8928 10.0904 40.6798 10.6458 40.2603 11.0601C39.7779 11.5511 39.1497 11.7982 38.3798 11.7982C37.6441 11.7982 37.0158 11.547 36.5004 11.0518C35.984 10.5493 35.7263 9.93259 35.7263 9.19444C35.7263 8.45628 35.984 7.83959 36.5004 7.34126C37.0158 6.84189 37.6441 6.59064 38.3798 6.59064C38.7461 6.59064 39.0954 6.66436 39.4287 6.8014C39.7609 6.93948 40.0314 7.12635 40.2273 7.35683L39.7822 7.79495C39.4404 7.40148 38.9751 7.20733 38.3798 7.20733C37.8432 7.20733 37.3778 7.39005 36.9828 7.75861C36.592 8.12821 36.3961 8.60682 36.3961 9.19444C36.3961 9.78205 36.592 10.2648 36.9828 10.6344C37.3778 10.9988 37.8432 11.1857 38.3798 11.1857C38.9495 11.1857 39.4287 10.9988 39.8067 10.6303C40.0559 10.3863 40.1975 10.0499 40.2347 9.6201H38.3798V9.02002H40.8545C40.8843 9.14979 40.8928 9.27542 40.8928 9.39688Z" fill="#141729" stroke="#141729" stroke-width="0.102222" stroke-miterlimit="10"/>
<path d="M44.8187 7.31634H42.4942V8.89439H44.5898V9.49447H42.4942V11.0725H44.8187V11.684H41.8362V6.70484H44.8187V7.31634Z" fill="#141729" stroke="#141729" stroke-width="0.102222" stroke-miterlimit="10"/>
<path d="M47.5892 11.684H46.9312V7.31634H45.5054V6.70484H49.0161V7.31634H47.5892V11.684Z" fill="#141729" stroke="#141729" stroke-width="0.102222" stroke-miterlimit="10"/>
<path d="M51.5569 11.684V6.70484H52.2139V11.684H51.5569Z" fill="#141729" stroke="#141729" stroke-width="0.102222" stroke-miterlimit="10"/>
<path d="M55.1261 11.684H54.4733V7.31634H53.0422V6.70484H56.5572V7.31634H55.1261V11.684Z" fill="#141729" stroke="#141729" stroke-width="0.102222" stroke-miterlimit="10"/>
<path d="M63.2039 11.0435C62.7002 11.547 62.0762 11.7982 61.3319 11.7982C60.5833 11.7982 59.9594 11.547 59.4557 11.0435C58.9531 10.541 58.7029 9.92429 58.7029 9.19444C58.7029 8.46459 58.9531 7.8479 59.4557 7.34541C59.9594 6.84189 60.5833 6.59064 61.3319 6.59064C62.072 6.59064 62.6959 6.84189 63.1996 7.34956C63.7065 7.8562 63.9567 8.46874 63.9567 9.19444C63.9567 9.92429 63.7064 10.541 63.2039 11.0435ZM59.9423 10.6261C60.3214 10.9988 60.7825 11.1857 61.3319 11.1857C61.8771 11.1857 62.3424 10.9988 62.7172 10.6261C63.0952 10.2534 63.2869 9.77479 63.2869 9.19444C63.2869 8.61409 63.0952 8.13548 62.7172 7.76277C62.3424 7.39006 61.8771 7.20318 61.3319 7.20318C60.7825 7.20318 60.3214 7.39006 59.9423 7.76277C59.5643 8.13548 59.3727 8.61409 59.3727 9.19444C59.3727 9.77479 59.5643 10.2534 59.9423 10.6261Z" fill="#141729" stroke="#141729" stroke-width="0.102222" stroke-miterlimit="10"/>
<path d="M64.8796 11.684V6.70484H65.6782L68.1614 10.5773H68.1901L68.1614 9.62009V6.70484H68.8184V11.684H68.1326L65.5324 7.62053H65.5036L65.5324 8.5819V11.684H64.8796Z" fill="#141729" stroke="#141729" stroke-width="0.102222" stroke-miterlimit="10"/>
<path d="M58.5409 18.9556C56.5401 18.9556 54.9056 20.4402 54.9056 22.4885C54.9056 24.5203 56.5401 26.0205 58.5409 26.0205C60.5459 26.0205 62.1804 24.5203 62.1804 22.4885C62.1804 20.4402 60.5459 18.9556 58.5409 18.9556ZM58.5409 24.6293C57.4431 24.6293 56.4986 23.7458 56.4986 22.4885C56.4986 21.2147 57.4431 20.3468 58.5409 20.3468C59.6387 20.3468 60.5875 21.2147 60.5875 22.4885C60.5875 23.7458 59.6387 24.6293 58.5409 24.6293ZM50.6091 18.9556C48.604 18.9556 46.9738 20.4402 46.9738 22.4885C46.9738 24.5203 48.604 26.0205 50.6091 26.0205C52.6131 26.0205 54.2444 24.5203 54.2444 22.4885C54.2444 20.4402 52.6131 18.9556 50.6091 18.9556ZM50.6091 24.6293C49.5102 24.6293 48.5625 23.7458 48.5625 22.4885C48.5625 21.2147 49.5102 20.3468 50.6091 20.3468C51.7069 20.3468 52.6514 21.2147 52.6514 22.4885C52.6514 23.7458 51.7069 24.6293 50.6091 24.6293ZM41.1706 20.0384V21.5396H44.8474C44.7398 22.3785 44.4523 22.9952 44.0115 23.425C43.4748 23.9441 42.6389 24.5203 41.1706 24.5203C38.9078 24.5203 37.136 22.7398 37.136 20.5336C37.136 18.3275 38.9078 16.547 41.1706 16.547C42.394 16.547 43.2842 17.0131 43.9412 17.6173L45.0263 16.5594C44.1073 15.7039 42.8849 15.0468 41.1706 15.0468C38.0677 15.0468 35.46 17.5083 35.46 20.5336C35.46 23.5589 38.0677 26.0205 41.1706 26.0205C42.8476 26.0205 44.1073 25.4848 45.0976 24.4798C46.1124 23.4904 46.4286 22.0992 46.4286 20.9759C46.4286 20.6271 46.3988 20.3063 46.3456 20.0384H41.1706ZM79.7658 21.2022C79.4666 20.4122 78.5434 18.9556 76.663 18.9556C74.7995 18.9556 73.2481 20.3872 73.2481 22.4885C73.2481 24.4673 74.7836 26.0205 76.8418 26.0205C78.5062 26.0205 79.4666 25.0311 79.8617 24.4549L78.6265 23.6524C78.2144 24.24 77.6532 24.6293 76.8418 24.6293C76.0358 24.6293 75.4576 24.2691 75.087 23.5589L79.933 21.604L79.7658 21.2022ZM74.8251 22.3785C74.7836 21.0164 75.9101 20.3187 76.7173 20.3187C77.3498 20.3187 77.8864 20.6271 78.0653 21.0683L74.8251 22.3785ZM70.8863 25.8056H72.4793V15.4236H70.8863V25.8056ZM68.2775 19.7425H68.2243C67.8665 19.3293 67.184 18.9556 66.3194 18.9556C64.5049 18.9556 62.8459 20.5087 62.8459 22.5C62.8459 24.4798 64.5049 26.0205 66.3194 26.0205C67.184 26.0205 67.8665 25.6436 68.2243 25.218H68.2775V25.7246C68.2775 27.0753 67.5375 27.801 66.3438 27.801C65.3706 27.801 64.7669 27.1158 64.5177 26.5396L63.1324 27.1033C63.5317 28.0398 64.589 29.1922 66.3438 29.1922C68.2115 29.1922 69.7874 28.1208 69.7874 25.5138V19.1705H68.2775V19.7425ZM66.4556 24.6293C65.3578 24.6293 64.4389 23.7333 64.4389 22.5C64.4389 21.2552 65.3578 20.3468 66.4556 20.3468C67.5375 20.3468 68.3904 21.2552 68.3904 22.5C68.3904 23.7333 67.5375 24.6293 66.4556 24.6293ZM87.2238 15.4236H83.4139V25.8056H85.0026V21.8719H87.2238C88.9882 21.8719 90.7185 20.6271 90.7185 18.6472C90.7185 16.6684 88.9839 15.4236 87.2238 15.4236ZM87.2653 20.4277H85.0026V16.8678H87.2653C88.4515 16.8678 89.1287 17.8281 89.1287 18.6472C89.1287 19.4508 88.4515 20.4277 87.2653 20.4277ZM97.0861 18.9358C95.9382 18.9358 94.7446 19.43 94.2537 20.5253L95.6635 21.1015C95.967 20.5253 96.5249 20.3384 97.1149 20.3384C97.939 20.3384 98.7749 20.8212 98.7877 21.6736V21.7826C98.5002 21.6206 97.8847 21.3808 97.1276 21.3808C95.6092 21.3808 94.062 22.1958 94.062 23.7167C94.062 25.1079 95.3057 26.0039 96.7038 26.0039C97.7729 26.0039 98.3628 25.5336 98.7334 24.9864H98.7877V25.789H100.322V21.8065C100.322 19.9657 98.9123 18.9358 97.0861 18.9358ZM96.8944 24.6252C96.3748 24.6252 95.6507 24.3739 95.6507 23.7458C95.6507 22.9422 96.5537 22.6339 97.3353 22.6339C98.0349 22.6339 98.3628 22.7844 98.7877 22.9827C98.6631 23.9441 97.8144 24.6252 96.8944 24.6252ZM105.912 19.1632L104.086 23.6638H104.032L102.144 19.1632H100.431L103.267 25.4526L101.649 28.9523H103.309L107.68 19.1632H105.912ZM91.5917 25.8056H93.1846V15.4236H91.5917V25.8056Z" fill="#141729"/>
</svg>
