<svg width="14" height="14" viewBox="0 0 14 14" fill="none" xmlns="http://www.w3.org/2000/svg">
<path d="M12.2227 2.14941C11.89 1.81673 11.4935 1.60254 11.0332 1.50684C10.5775 1.41113 10.0648 1.36328 9.49512 1.36328H4.48438C3.92383 1.36328 3.41341 1.41113 2.95312 1.50684C2.4974 1.60254 2.10319 1.81673 1.77051 2.14941C1.44238 2.4821 1.23047 2.8763 1.13477 3.33203C1.04362 3.7832 0.998047 4.28906 0.998047 4.84961V9.8125C0.998047 10.3822 1.04362 10.8971 1.13477 11.3574C1.22591 11.8132 1.43783 12.2051 1.77051 12.5332C2.10319 12.8659 2.49967 13.0801 2.95996 13.1758C3.42025 13.2715 3.93522 13.3193 4.50488 13.3193H9.49512C10.0648 13.3193 10.5775 13.2715 11.0332 13.1758C11.4935 13.0801 11.89 12.8659 12.2227 12.5332C12.5553 12.2005 12.7673 11.8063 12.8584 11.3506C12.9495 10.8949 12.9951 10.3822 12.9951 9.8125V4.87012C12.9951 4.2959 12.9495 3.78092 12.8584 3.3252C12.7673 2.86947 12.5553 2.47754 12.2227 2.14941ZM11.833 4.69238V9.99023C11.833 10.3229 11.8011 10.6419 11.7373 10.9473C11.6781 11.2526 11.5573 11.4987 11.375 11.6855C11.1882 11.8724 10.9398 11.9954 10.6299 12.0547C10.3245 12.1185 10.0055 12.1504 9.67285 12.1504H4.32715C3.98991 12.1504 3.66862 12.1185 3.36328 12.0547C3.05794 11.9954 2.80957 11.8724 2.61816 11.6855C2.43132 11.4987 2.30827 11.2526 2.24902 10.9473C2.19434 10.6419 2.16699 10.3229 2.16699 9.99023V4.70605C2.16699 4.36882 2.19434 4.04753 2.24902 3.74219C2.30827 3.43229 2.43132 3.18392 2.61816 2.99707C2.80957 2.81022 3.05794 2.6849 3.36328 2.62109C3.67318 2.55729 3.99902 2.52539 4.34082 2.52539H9.67285C10.0055 2.52539 10.3245 2.55729 10.6299 2.62109C10.9398 2.6849 11.1882 2.81022 11.375 2.99707C11.5573 3.18392 11.6781 3.43001 11.7373 3.73535C11.8011 4.03613 11.833 4.35514 11.833 4.69238ZM9.02344 8.97168C9.17383 8.97168 9.2946 8.92155 9.38574 8.82129C9.47689 8.71647 9.52246 8.58203 9.52246 8.41797V5.38965C9.52246 5.18457 9.47005 5.03646 9.36523 4.94531C9.26042 4.84961 9.11458 4.80176 8.92773 4.80176H5.88574C5.72168 4.80176 5.58952 4.84733 5.48926 4.93848C5.39355 5.02962 5.3457 5.15039 5.3457 5.30078C5.3457 5.45573 5.39583 5.58105 5.49609 5.67676C5.59635 5.7679 5.72852 5.81348 5.89258 5.81348H7.02734L7.94336 5.71094L6.95898 6.61328L4.6416 8.9375C4.52767 9.04688 4.4707 9.1722 4.4707 9.31348C4.4707 9.47298 4.51855 9.60286 4.61426 9.70312C4.71452 9.79883 4.84212 9.84668 4.99707 9.84668C5.15658 9.84668 5.28874 9.78971 5.39355 9.67578L7.71777 7.36523L8.61328 6.3877L8.51758 7.3584V8.43164C8.51758 8.5957 8.56315 8.72786 8.6543 8.82812C8.75 8.92383 8.87305 8.97168 9.02344 8.97168Z" fill="currentColor"/>
</svg>
