<svg width="38" height="38" viewBox="0 0 38 38" fill="none" xmlns="http://www.w3.org/2000/svg">
<path d="M0 19C0 8.50659 8.50659 0 19 0C29.4934 0 38 8.50659 38 19C38 29.4934 29.4934 38 19 38C8.50659 38 0 29.4934 0 19Z" fill="currentColor"/>
<g clip-path="url(#clip0)">
<path fill-rule="evenodd" clip-rule="evenodd" d="M26.8419 14.6892L25.312 13.1581C25.1006 12.9472 24.7591 12.9472 24.5477 13.1588L17.0892 20.6229L14.4523 17.9843C14.2409 17.7728 13.8994 17.7727 13.688 17.9839L12.1581 19.515C11.9472 19.7266 11.9472 20.0689 12.1586 20.2806L16.512 24.6375C16.6684 24.7942 16.8711 25 17.0781 25C17.2851 25 17.5098 24.7942 17.6662 24.6375L26.8414 15.4547C27.0528 15.2433 27.0528 14.9007 26.8419 14.6892Z" fill="#00CC74"/>
</g>
<defs>
<clipPath id="clip0">
<rect x="12" y="13" width="15" height="12" fill="white"/>
</clipPath>
</defs>
</svg>
