<svg width="24" height="27" viewBox="0 0 24 27" fill="none" xmlns="http://www.w3.org/2000/svg">
<path fill-rule="evenodd" clip-rule="evenodd" d="M0 6C0 5.44772 0.447715 5 1 5H19.3077C19.86 5 20.3077 5.44772 20.3077 6V14.1538C20.3077 14.7061 19.86 15.1538 19.3077 15.1538H12.1538C11.0493 15.1538 10.1538 16.0493 10.1538 17.1538V24.3077C10.1538 24.86 9.70613 25.3077 9.15385 25.3077H1C0.447716 25.3077 0 24.86 0 24.3077V6ZM0.846153 17C0.846153 16.4477 1.29387 16 1.84615 16H8.30769C8.85998 16 9.30769 16.4477 9.30769 17V23.4615C9.30769 24.0138 8.85998 24.4615 8.30769 24.4615H1.84615C1.29387 24.4615 0.846153 24.0138 0.846153 23.4615V17ZM12 5.84616C11.4477 5.84616 11 6.29388 11 6.84616V13.3077C11 13.86 11.4477 14.3077 12 14.3077H18.4615C19.0138 14.3077 19.4615 13.86 19.4615 13.3077V6.84616C19.4615 6.29388 19.0138 5.84616 18.4615 5.84616H12Z" fill="white"/>
<mask id="c" mask-type="alpha" maskUnits="userSpaceOnUse" x="11" y="18" width="9" height="9">
<path fill-rule="evenodd" clip-rule="evenodd" d="M15.4999 26.7778C17.8625 26.7778 19.7777 24.8626 19.7777 22.5C19.7777 20.1375 17.8625 18.2222 15.4999 18.2222C13.1374 18.2222 11.2222 20.1375 11.2222 22.5C11.2222 24.8626 13.1374 26.7778 15.4999 26.7778Z" fill="white"/>
</mask>
<g mask="url(#c)">
<path d="M19.1668 26.1666C19.1668 28.1916 17.5252 29.8333 15.5002 29.8333C13.4751 29.8333 11.8335 28.1917 11.8335 26.1666C11.8335 24.1416 13.4751 22.4999 15.5002 22.4999C16.7724 22.4999 17.8932 23.1478 18.5508 24.1317C18.7291 24.3985 19.5001 23.9999 18.9773 24.9999C19.1002 25.3664 19.1668 25.7587 19.1668 26.1666Z" fill="white"/>
<circle cx="15.4998" cy="20.0555" r="1.83333" fill="white"/>
</g>
<mask id="d" mask-type="alpha" maskUnits="userSpaceOnUse" x="16" y="18" width="7" height="7">
<path fill-rule="evenodd" clip-rule="evenodd" d="M19.7502 24.6666C21.361 24.6666 22.6668 23.3607 22.6668 21.7499C22.6668 20.1391 21.361 18.8333 19.7502 18.8333C18.1393 18.8333 16.8335 20.1391 16.8335 21.7499C16.8335 23.3607 18.1393 24.6666 19.7502 24.6666Z" fill="white"/>
</mask>
<g mask="url(#d)">
<circle cx="19.75" cy="24.2499" r="2.5" fill="white"/>
<circle cx="19.75" cy="20.0833" r="1.25" fill="white"/>
</g>
</svg>
