<svg width="14" height="14" viewBox="0 0 14 14" fill="none" xmlns="http://www.w3.org/2000/svg">
<path fill-rule="evenodd" clip-rule="evenodd" d="M0.5 1.5C0.5 0.947715 0.947715 0.5 1.5 0.5H11.5C12.0523 0.5 12.5 0.947715 12.5 1.5V5.5C12.5 6.05228 12.0523 6.5 11.5 6.5H7.5C6.94772 6.5 6.5 6.94772 6.5 7.5V11.5C6.5 12.0523 6.05228 12.5 5.5 12.5H1.5C0.947715 12.5 0.5 12.0523 0.5 11.5V1.5ZM8.3 1.5C7.85817 1.5 7.5 1.85817 7.5 2.3V4.7C7.5 5.14183 7.85817 5.5 8.3 5.5H10.7C11.1418 5.5 11.5 5.14183 11.5 4.7V2.3C11.5 1.85817 11.1418 1.5 10.7 1.5H8.3ZM1.5 8.3C1.5 7.85817 1.85817 7.5 2.3 7.5H4.7C5.14183 7.5 5.5 7.85817 5.5 8.3V10.7C5.5 11.1418 5.14183 11.5 4.7 11.5H2.3C1.85817 11.5 1.5 11.1418 1.5 10.7V8.3ZM8.5 7.5C7.94772 7.5 7.5 7.94772 7.5 8.5V12.5C7.5 13.0523 7.94772 13.5 8.5 13.5H12.5C13.0523 13.5 13.5 13.0523 13.5 12.5V8.5C13.5 7.94772 13.0523 7.5 12.5 7.5H8.5Z" fill="currentColor"/>
</svg>
