<svg width="20" height="20" viewBox="0 0 20 20" fill="none" xmlns="http://www.w3.org/2000/svg">
<path fill-rule="evenodd" clip-rule="evenodd" d="M1 0C0.447715 0 0 0.447714 0 0.999998V17.3617C0 17.914 0.447714 18.3617 0.999999 18.3617H8.18087C8.73315 18.3617 9.18087 17.914 9.18087 17.3617V11.1809C9.18087 10.0763 10.0763 9.18087 11.1809 9.18087H17.3617C17.914 9.18087 18.3617 8.73315 18.3617 8.18087V1C18.3617 0.447715 17.914 0 17.3617 0H1ZM1.76507 9.94594C1.21278 9.94594 0.765069 10.3937 0.765069 10.9459V16.5967C0.765069 17.1489 1.21278 17.5967 1.76507 17.5967H7.41579C7.96808 17.5967 8.41579 17.1489 8.41579 16.5967V10.9459C8.41579 10.3937 7.96808 9.94594 7.41579 9.94594H1.76507ZM9.94594 1.76508C9.94594 1.21279 10.3937 0.765077 10.9459 0.765077H16.5967C17.1489 0.765077 17.5967 1.21279 17.5967 1.76508V7.4158C17.5967 7.96808 17.1489 8.4158 16.5967 8.4158H10.9459C10.3937 8.4158 9.94594 7.96808 9.94594 7.4158V1.76508ZM14.0147 15.2705C14.9302 15.2705 15.6723 14.5283 15.6723 13.6128C15.6723 12.6973 14.9302 11.9552 14.0147 11.9552C13.0992 11.9552 12.357 12.6973 12.357 13.6128C12.357 14.5283 13.0992 15.2705 14.0147 15.2705ZM14.0147 19.6909C15.3183 19.6909 16.4712 19.0461 17.1719 18.058C17.2438 17.9176 17.2863 17.809 17.3064 17.7244C17.4841 17.7622 17.6685 17.7821 17.8575 17.7821C18.74 17.7821 19.5213 17.3486 20 16.6829C19.6986 15.7888 18.8532 15.145 17.8575 15.145C16.9807 15.145 16.2204 15.6442 15.8456 16.374C15.321 16.0258 14.6915 15.8231 14.0148 15.8231C12.5543 15.8231 11.3144 16.7674 10.8724 18.0788C11.5745 19.0551 12.7204 19.6909 14.0147 19.6909ZM17.8575 14.7682C18.4817 14.7682 18.9877 14.2622 18.9877 13.638C18.9877 13.0138 18.4817 12.5077 17.8575 12.5077C17.2333 12.5077 16.7273 13.0138 16.7273 13.638C16.7273 14.2622 17.2333 14.7682 17.8575 14.7682Z" fill="currentColor"/>
</svg>
