<svg width="20" height="20" viewBox="0 0 20 20" fill="none" xmlns="http://www.w3.org/2000/svg">
<path fill-rule="evenodd" clip-rule="evenodd" d="M1 0C0.447715 0 0 0.447714 0 0.999999V17.4615C0 18.0138 0.447715 18.4615 0.999999 18.4615H8.23077C8.78305 18.4615 9.23077 18.0138 9.23077 17.4615V11.2308C9.23077 10.1262 10.1262 9.23077 11.2308 9.23077H17.4615C18.0138 9.23077 18.4615 8.78305 18.4615 8.23077V1C18.4615 0.447715 18.0138 0 17.4615 0H1ZM11.6047 10.7692C11.1425 10.7692 10.7692 11.1433 10.7692 11.6047V19.1646C10.7692 19.6267 11.1433 20 11.6047 20H18.3284C19.2446 20 20 19.2516 20 18.3284V11.6047C20 11.1425 19.626 10.7692 19.1646 10.7692H11.6047ZM0.769231 11C0.769231 10.4477 1.21695 10 1.76923 10H7.46154C8.01382 10 8.46154 10.4477 8.46154 11V16.6923C8.46154 17.2446 8.01382 17.6923 7.46154 17.6923H1.76923C1.21695 17.6923 0.769231 17.2446 0.769231 16.6923V11ZM11 0.76923C10.4477 0.76923 10 1.21695 10 1.76923V7.46154C10 8.01382 10.4477 8.46154 11 8.46154H16.6923C17.2446 8.46154 17.6923 8.01382 17.6923 7.46154V1.76923C17.6923 1.21695 17.2446 0.76923 16.6923 0.76923H11Z" fill="currentColor"/>
</svg>
