<svg width="18" height="20" viewBox="0 0 18 20" fill="none" xmlns="http://www.w3.org/2000/svg">
    <path d="M2.65243 7.72729C2.65243 4.96587 4.89101 2.72729 7.65243 2.72729H10.1658C12.9272 2.72729 15.1658 4.96587 15.1658 7.72729V11.3488C15.1658 12.5323 15.5856 13.6775 16.3506 14.5805L17.0909 15.4546H0.727295L1.46766 14.5805C2.23261 13.6775 2.65243 12.5323 2.65243 11.3488V7.72729Z" fill="currentColor"/>
    <path d="M11.4812 3.63636C11.5817 3.35202 11.6364 3.04603 11.6364 2.72727C11.6364 1.22104 10.4153 0 8.9091 0C7.40287 0 6.18182 1.22104 6.18182 2.72727C6.18182 3.04603 6.23651 3.35202 6.33701 3.63636H11.4812Z" fill="currentColor"/>
    <path d="M11.6364 16.3636C11.7369 16.648 11.6364 16.954 11.6364 17.2727C11.6364 18.779 10.4153 20 8.90909 20C7.40286 20 6.18181 18.779 6.18181 17.2727C6.18181 16.954 6.08131 16.648 6.18181 16.3636H11.6364Z" fill="currentColor"/>
</svg>
