<svg width="64" height="64" viewBox="0 0 64 64" fill="none" xmlns="http://www.w3.org/2000/svg">
<path fill-rule="evenodd" clip-rule="evenodd" d="M34.3689 1.77721C40.8542 6.73372 48.0725 10.6491 55.7637 13.3825C56.5223 13.6558 57.1775 14.1574 57.6394 14.8183C58.1012 15.4792 58.3469 16.267 58.3427 17.0733C58.3427 30.6128 55.7111 40.8365 50.3426 48.3036C46.0389 54.3523 40.5624 57.8235 35.7116 60.8982L35.5597 60.9944L34.1058 61.9221C33.4774 62.3248 32.7468 62.5389 32.0005 62.5389C31.2542 62.5389 30.5235 62.3248 29.8952 61.9221L28.4413 61.001C23.5268 57.9023 18.007 54.3892 13.6583 48.3102C8.34254 40.8365 5.71096 30.6128 5.71096 17.0601C5.7085 16.2559 5.95509 15.4706 6.41686 14.8121C6.87863 14.1536 7.53293 13.6542 8.28991 13.3825C15.9746 10.6481 23.1861 6.73265 29.665 1.77721C30.3453 1.27249 31.1699 1 32.0169 1C32.864 1 33.6886 1.27249 34.3689 1.77721ZM33.4742 57.6589C38.2834 54.6129 43.2571 51.4615 47.1584 46.0076C52.0137 39.2312 54.3953 29.7575 54.3953 17.0601C46.3531 14.2171 38.8055 10.1326 32.0268 4.95485C25.2425 10.1239 17.6963 14.2077 9.65833 17.0601C9.65833 29.7575 12.0399 39.2247 16.8952 46.0076C20.7965 51.4615 25.7702 54.6129 30.5794 57.6589L32.0465 58.5931C32.4151 58.3346 32.8203 58.0761 33.2317 57.8138C33.3124 57.7623 33.3933 57.7107 33.4742 57.6589ZM21.3496 33.241L24.1391 30.4449L29.5404 35.8462L39.6654 23.9844L42.6654 26.5436L29.7707 41.6555L21.3496 33.241Z" fill="url(#paint0_linear_304_9542)"/>
<defs>
<linearGradient id="paint0_linear_304_9542" x1="5.71094" y1="0.300701" x2="61.1901" y2="2.98475" gradientUnits="userSpaceOnUse">
<stop stop-color="#2091F6"/>
<stop offset="1" stop-color="#21B568"/>
</linearGradient>
</defs>
</svg>
