<svg width="13" height="6" viewBox="0 0 13 6" fill="none" xmlns="http://www.w3.org/2000/svg">
<path d="M12.8001 4.72748V1.40903C12.8001 1.37325 12.7939 1.33781 12.7818 1.30475C12.7697 1.27168 12.752 1.24164 12.7297 1.21634C12.7073 1.19103 12.6808 1.17096 12.6516 1.15726C12.6225 1.14357 12.5912 1.13652 12.5596 1.13652H10.2573V1.68155V4.45497V5H12.5596C12.6234 5 12.6846 4.97129 12.7297 4.92018C12.7748 4.86908 12.8001 4.79976 12.8001 4.72748Z" fill="white"/>
<path fill-rule="evenodd" clip-rule="evenodd" d="M10.1048 1.09006V4.90994C10.1048 5.19703 10.0048 5.47254 9.82668 5.67663C9.64852 5.88072 9.40651 5.99692 9.15319 6L1.75161 6C1.4983 5.99692 1.25628 5.88072 1.07812 5.67663C0.899958 5.47254 0.800034 5.19703 0.800049 4.90994L0.800049 1.09006C0.800034 0.80297 0.899958 0.527464 1.07812 0.323371C1.25628 0.119277 1.4983 0.00307608 1.75161 0L9.15319 0C9.40651 0.00307608 9.64852 0.119277 9.82668 0.323371C10.0048 0.527464 10.1048 0.80297 10.1048 1.09006ZM8.44766 4.13402C8.67119 3.80931 8.79377 3.42579 8.80001 3.03164C8.80343 2.49724 8.59481 1.98328 8.21989 1.60245C7.84496 1.22161 7.33432 1.00496 6.7999 1C6.40568 1.00005 6.02026 1.11659 5.69206 1.33499C5.36387 1.55338 5.10754 1.86389 4.95527 2.2275C4.803 2.59112 4.76159 2.99162 4.83623 3.37869C4.91088 3.76576 5.09825 4.12215 5.37481 4.40307C5.65138 4.684 6.00479 4.87693 6.39067 4.95764C6.77654 5.03834 7.17767 5.00322 7.54364 4.85669C7.90962 4.71015 8.22413 4.45873 8.44766 4.13402ZM3.34262 2.15998C3.17585 2.05227 2.9808 1.99663 2.7823 2.00016C2.65212 2.00121 2.52342 2.02793 2.40357 2.07878C2.28372 2.12962 2.17508 2.2036 2.08385 2.29649C1.99262 2.38937 1.9206 2.49932 1.87191 2.62007C1.82322 2.74081 1.79882 2.86997 1.8001 3.00016C1.80013 3.19869 1.85925 3.39272 1.96994 3.55753C2.08062 3.72234 2.23786 3.85048 2.42162 3.92562C2.60538 4.00075 2.80734 4.01949 3.00179 3.97944C3.19623 3.9394 3.37436 3.84238 3.51347 3.70074C3.65259 3.5591 3.7464 3.37926 3.78295 3.18413C3.81951 2.98899 3.79715 2.78739 3.71873 2.605C3.64031 2.42261 3.50938 2.2677 3.34262 2.15998Z" fill="white"/>
</svg>
