<svg width="21" height="20" viewBox="0 0 21 20" fill="none" xmlns="http://www.w3.org/2000/svg">
<path class="fill" d="M17.5 6.5H20C20.2761 6.5 20.5 6.72386 20.5 7V13C20.5 13.2761 20.2761 13.5 20 13.5H17.5V6.5Z" fill="currentcolor" stroke="currentcolor"/>
<path class="fill" fill-rule="evenodd" clip-rule="evenodd" d="M16 6.8168V13.1832C16 13.6617 15.8389 14.1209 15.5517 14.4611C15.2645 14.8012 14.8744 14.9949 14.466 15H2.534C2.12564 14.9949 1.73549 14.8012 1.44828 14.4611C1.16106 14.1209 0.999977 13.6617 1 13.1832L1 6.8168C0.999977 6.33832 1.16106 5.87914 1.44828 5.53899C1.73549 5.19883 2.12564 5.00516 2.534 5.00004H14.466C14.8744 5.00516 15.2645 5.19883 15.5517 5.53899C15.8389 5.87914 16 6.33832 16 6.8168ZM13.4714 11.701C13.8067 11.214 13.9906 10.6387 13.9999 10.0475C14.0051 9.24586 13.6921 8.47493 13.1298 7.90367C12.5674 7.33241 11.8014 7.00744 10.9998 7C10.4084 7.00007 9.83031 7.17489 9.33802 7.50248C8.84573 7.83008 8.46123 8.29584 8.23283 8.84126C8.00443 9.38668 7.94231 9.98743 8.05427 10.568C8.16624 11.1486 8.4473 11.6832 8.86215 12.1046C9.27699 12.526 9.80712 12.8154 10.3859 12.9365C10.9647 13.0575 11.5664 13.0048 12.1154 12.785C12.6644 12.5652 13.1361 12.1881 13.4714 11.701ZM6.08514 8.31996C5.7516 8.10453 5.3615 7.99326 4.96451 8.00032C4.70414 8.00243 4.44674 8.05586 4.20704 8.15755C3.96735 8.25925 3.75005 8.40721 3.5676 8.59297C3.38514 8.77873 3.2411 8.99865 3.14372 9.24014C3.04635 9.48163 2.99754 9.73995 3.0001 10.0003C3.00016 10.3974 3.11841 10.7854 3.33977 11.1151C3.56114 11.4447 3.87562 11.701 4.24313 11.8512C4.61065 12.0015 5.01458 12.039 5.40348 11.9589C5.79237 11.8788 6.14862 11.6848 6.42685 11.4015C6.70508 11.1182 6.8927 10.7585 6.9658 10.3683C7.03891 9.97798 6.9942 9.57478 6.83737 9.21C6.68053 8.84523 6.41867 8.53539 6.08514 8.31996Z" fill="currentcolor"/>
<path d="M16 13.1832H15.5V13.1833L16 13.1832ZM16 6.8168L15.5 6.81677V6.8168L16 6.8168ZM15.5517 14.4611L15.9338 14.7836V14.7836L15.5517 14.4611ZM14.466 15V15.5L14.4723 15.5L14.466 15ZM2.534 15L2.52773 15.5H2.534V15ZM1.44828 14.4611L1.06625 14.7836L1.06625 14.7836L1.44828 14.4611ZM1 13.1832L1.5 13.1833V13.1832H1ZM1 6.8168H1.5V6.81677L1 6.8168ZM1.44828 5.53899L1.06625 5.21641L1.06625 5.21641L1.44828 5.53899ZM2.534 5.00004V4.5L2.52773 4.50008L2.534 5.00004ZM14.466 5.00004L14.4723 4.50004H14.466V5.00004ZM15.5517 5.53899L15.9338 5.21641V5.21641L15.5517 5.53899ZM13.9999 10.0475L14.4999 10.0554L14.4999 10.0507L13.9999 10.0475ZM13.4714 11.701L13.0596 11.4175L13.0596 11.4175L13.4714 11.701ZM13.1298 7.90367L12.7734 8.25445V8.25445L13.1298 7.90367ZM10.9998 7L11.0044 6.5L10.9997 6.5L10.9998 7ZM9.33802 7.50248L9.06102 7.08622H9.06102L9.33802 7.50248ZM8.23283 8.84126L8.69402 9.03439L8.23283 8.84126ZM8.05427 10.568L7.56332 10.6627V10.6627L8.05427 10.568ZM10.3859 12.9365L10.2836 13.4259L10.3859 12.9365ZM12.1154 12.785L12.3012 13.2492L12.1154 12.785ZM4.96451 8.00032L4.96856 8.50032L4.97339 8.50024L4.96451 8.00032ZM6.08514 8.31996L6.35642 7.89996H6.35642L6.08514 8.31996ZM4.20704 8.15755L4.01176 7.69726L4.01176 7.69727L4.20704 8.15755ZM3.0001 10.0003L3.50012 10.0002L3.50007 9.99541L3.0001 10.0003ZM3.33977 11.1151L2.92469 11.3938L2.92469 11.3938L3.33977 11.1151ZM4.24313 11.8512L4.0539 12.314V12.314L4.24313 11.8512ZM6.42685 11.4015L6.07013 11.0511V11.0511L6.42685 11.4015ZM6.9658 10.3683L6.47435 10.2762V10.2762L6.9658 10.3683ZM6.83737 9.21L7.29671 9.01251V9.01251L6.83737 9.21ZM16.5 13.1832V6.8168L15.5 6.8168V13.1832H16.5ZM15.9338 14.7836C16.3031 14.3462 16.5 13.7703 16.5 13.1832L15.5 13.1833C15.5 13.5532 15.3748 13.8956 15.1697 14.1385L15.9338 14.7836ZM14.4723 15.5C15.0398 15.4928 15.5625 15.2234 15.9338 14.7836L15.1697 14.1385C14.9666 14.3791 14.7089 14.4969 14.4597 14.5L14.4723 15.5ZM2.534 15.5H14.466V14.5H2.534V15.5ZM1.06625 14.7836C1.43754 15.2234 1.96019 15.4928 2.52773 15.5L2.54028 14.5C2.29109 14.4969 2.03344 14.3791 1.83031 14.1385L1.06625 14.7836ZM0.5 13.1832C0.499971 13.7703 0.69692 14.3462 1.06625 14.7836L1.83031 14.1385C1.6252 13.8956 1.49998 13.5532 1.5 13.1833L0.5 13.1832ZM0.5 6.8168L0.5 13.1832H1.5L1.5 6.8168H0.5ZM1.06625 5.21641C0.69692 5.65382 0.499971 6.22977 0.5 6.81682L1.5 6.81677C1.49998 6.44686 1.6252 6.10446 1.83031 5.86156L1.06625 5.21641ZM2.52773 4.50008C1.96019 4.5072 1.43754 4.77668 1.06625 5.21641L1.83031 5.86156C2.03344 5.62098 2.29109 5.50313 2.54028 5.5L2.52773 4.50008ZM14.466 4.50004H2.534V5.50004H14.466V4.50004ZM15.9338 5.21641C15.5625 4.77668 15.0398 4.5072 14.4723 4.50008L14.4597 5.5C14.7089 5.50313 14.9666 5.62098 15.1697 5.86156L15.9338 5.21641ZM16.5 6.81682C16.5 6.22977 16.3031 5.65381 15.9338 5.21641L15.1697 5.86156C15.3748 6.10447 15.5 6.44686 15.5 6.81677L16.5 6.81682ZM13.5 10.0395C13.4922 10.5322 13.339 11.0116 13.0596 11.4175L13.8833 11.9846C14.2744 11.4163 14.489 10.7451 14.4999 10.0554L13.5 10.0395ZM12.7734 8.25445C13.243 8.73138 13.5042 9.37502 13.4999 10.0442L14.4999 10.0507C14.5059 9.1167 14.1413 8.21847 13.4861 7.55289L12.7734 8.25445ZM10.9951 7.49998C11.6644 7.50619 12.3039 7.77751 12.7734 8.25445L13.4861 7.55289C12.8308 6.88731 11.9384 6.50869 11.0044 6.50002L10.9951 7.49998ZM9.61502 7.91874C10.0253 7.64574 10.5071 7.50006 10.9998 7.5L10.9997 6.5C10.3098 6.50009 9.63536 6.70403 9.06102 7.08622L9.61502 7.91874ZM8.69402 9.03439C8.88436 8.57988 9.20477 8.19174 9.61502 7.91874L9.06102 7.08622C8.48669 7.46841 8.03811 8.0118 7.77163 8.64812L8.69402 9.03439ZM8.54523 10.4734C8.45192 9.98952 8.50369 9.4889 8.69402 9.03439L7.77163 8.64812C7.50516 9.28445 7.43269 9.98533 7.56332 10.6627L8.54523 10.4734ZM9.21845 11.7538C8.87275 11.4027 8.63853 10.9572 8.54523 10.4734L7.56332 10.6627C7.69395 11.3401 8.02185 11.9638 8.50584 12.4554L9.21845 11.7538ZM10.4883 12.447C10.0059 12.3462 9.56416 12.105 9.21845 11.7538L8.50584 12.4554C8.98982 12.947 9.6083 13.2846 10.2836 13.4259L10.4883 12.447ZM11.9295 12.3209C11.4721 12.504 10.9706 12.5479 10.4883 12.447L10.2836 13.4259C10.9588 13.5671 11.6608 13.5056 12.3012 13.2492L11.9295 12.3209ZM13.0596 11.4175C12.7802 11.8234 12.387 12.1377 11.9295 12.3209L12.3012 13.2492C12.9417 12.9928 13.4921 12.5528 13.8833 11.9846L13.0596 11.4175ZM4.97339 8.50024C5.27113 8.49495 5.56371 8.5784 5.81385 8.73997L6.35642 7.89996C5.9395 7.63067 5.45187 7.49157 4.95562 7.50039L4.97339 8.50024ZM4.40233 8.61784C4.58151 8.54182 4.77393 8.50188 4.96856 8.5003L4.96045 7.50033C4.63435 7.50298 4.31197 7.5699 4.01176 7.69726L4.40233 8.61784ZM3.92431 8.94334C4.0607 8.80447 4.22314 8.69386 4.40233 8.61784L4.01176 7.69727C3.71155 7.82463 3.4394 8.00995 3.21088 8.2426L3.92431 8.94334ZM3.60744 9.42713C3.68024 9.2466 3.78791 9.0822 3.92431 8.94334L3.21088 8.2426C2.98236 8.47526 2.80197 8.7507 2.68001 9.05315L3.60744 9.42713ZM3.50007 9.99541C3.49816 9.80076 3.53465 9.60765 3.60744 9.42713L2.68001 9.05315C2.55805 9.3556 2.49692 9.67913 2.50012 10.0052L3.50007 9.99541ZM3.75486 10.8363C3.58883 10.5891 3.50014 10.298 3.5001 10.0002L2.5001 10.0004C2.50017 10.4967 2.64798 10.9818 2.92469 11.3938L3.75486 10.8363ZM4.43237 11.3884C4.15674 11.2757 3.92088 11.0835 3.75486 10.8363L2.92469 11.3938C3.2014 11.8059 3.5945 12.1262 4.0539 12.314L4.43237 11.3884ZM5.30261 11.4692C5.01095 11.5292 4.70801 11.5011 4.43237 11.3884L4.0539 12.314C4.5133 12.5019 5.01822 12.5487 5.50434 12.4486L5.30261 11.4692ZM6.07013 11.0511C5.86146 11.2636 5.59428 11.4091 5.30261 11.4692L5.50434 12.4486C5.99045 12.3485 6.43577 12.1059 6.78356 11.7518L6.07013 11.0511ZM6.47435 10.2762C6.41952 10.5689 6.27881 10.8387 6.07013 11.0511L6.78356 11.7518C7.13135 11.3978 7.36587 10.9482 7.45726 10.4603L6.47435 10.2762ZM6.37802 9.4075C6.49565 9.68108 6.52918 9.98348 6.47435 10.2762L7.45726 10.4603C7.54864 9.97247 7.49275 9.46847 7.29671 9.01251L6.37802 9.4075ZM5.81385 8.73997C6.064 8.90154 6.2604 9.13392 6.37802 9.4075L7.29671 9.01251C7.10066 8.55654 6.77334 8.16925 6.35642 7.89996L5.81385 8.73997Z" fill="currentcolor"/>
</svg>
