<svg width="81" height="40" viewBox="0 0 81 40" fill="none" xmlns="http://www.w3.org/2000/svg">
<path d="M79.8931 9.39355V31.5166C79.8931 31.8604 79.7719 32.1773 79.5752 32.4002C79.3806 32.6207 79.1343 32.7273 78.896 32.7273H64.1534V29.6998V11.2103V8.18285H78.896C79.0157 8.18285 79.1364 8.20943 79.252 8.2637C79.3679 8.31812 79.4785 8.40037 79.5752 8.5099C79.672 8.61958 79.7521 8.75375 79.8079 8.90636L80.3771 8.69831L79.8079 8.90636C79.8637 9.05901 79.8931 9.22474 79.8931 9.39355Z" stroke="#8D91A5" stroke-width="1.21212"/>
<mask id="path-2-inside-1" fill="white">
<path fill-rule="evenodd" clip-rule="evenodd" d="M62.5319 7.26707V32.7329C62.532 34.6469 61.8658 36.4836 60.6781 37.8442C59.4903 39.2048 57.8769 39.9795 56.1881 40L6.84424 40C5.15549 39.9795 3.54205 39.2048 2.3543 37.8442C1.16655 36.4836 0.500391 34.6469 0.500488 32.7329L0.500488 7.26707C0.500391 5.35313 1.16655 3.51643 2.3543 2.15581C3.54205 0.795185 5.15549 0.0205078 6.84424 0H56.1881C57.8769 0.0205078 59.4903 0.795185 60.6781 2.15581C61.8658 3.51643 62.532 5.35313 62.5319 7.26707ZM51.4847 27.5602C52.9749 25.3954 53.7921 22.8386 53.8337 20.2109C53.8565 16.6483 52.4657 13.2219 49.9662 10.683C47.4667 8.14406 44.0624 6.69975 40.4996 6.66667C37.8715 6.667 35.302 7.44395 33.114 8.89992C30.9261 10.3559 29.2172 12.4259 28.2021 14.85C27.1869 17.2741 26.9109 19.9441 27.4085 22.5246C27.9061 25.1051 29.1553 27.481 30.999 29.3538C32.8428 31.2266 35.1989 32.5129 37.7714 33.0509C40.3439 33.5889 43.0181 33.3548 45.4579 32.3779C47.8977 31.401 49.9945 29.7249 51.4847 27.5602ZM17.4511 14.3999C16.3393 13.6818 15.0389 13.3109 13.7156 13.3344C12.8477 13.3414 11.9897 13.5195 11.1908 13.8585C10.3918 14.1975 9.66745 14.6907 9.05926 15.3099C8.45107 15.9291 7.97094 16.6622 7.64635 17.4671C7.32176 18.2721 7.15907 19.1332 7.16759 20.0011C7.1678 21.3246 7.56196 22.6181 8.29985 23.7169C9.03775 24.8156 10.086 25.6699 11.3111 26.1708C12.5361 26.6717 13.8826 26.7966 15.1789 26.5296C16.4752 26.2626 17.6627 25.6158 18.5901 24.6716C19.5175 23.7274 20.1429 22.5284 20.3866 21.2275C20.6303 19.9266 20.4813 18.5826 19.9585 17.3667C19.4357 16.1508 18.5628 15.118 17.4511 14.3999Z"/>
</mask>
<path d="M62.5319 32.7329H61.3197V32.733L62.5319 32.7329ZM62.5319 7.26707L61.3197 7.26701V7.26707H62.5319ZM60.6781 37.8442L59.7649 37.0471V37.0471L60.6781 37.8442ZM56.1881 40V41.2121H56.1955L56.2028 41.212L56.1881 40ZM6.84424 40L6.82952 41.212L6.83688 41.2121H6.84424V40ZM2.3543 37.8442L1.44116 38.6413L2.3543 37.8442ZM0.500488 32.7329L1.71261 32.733V32.7329H0.500488ZM0.500488 7.26707H1.71261V7.26701L0.500488 7.26707ZM2.3543 2.15581L1.44116 1.35868H1.44116L2.3543 2.15581ZM6.84424 0V-1.21212H6.83688L6.82952 -1.21203L6.84424 0ZM56.1881 0L56.2028 -1.21203L56.1955 -1.21212H56.1881V0ZM60.6781 2.15581L59.7649 2.95293V2.95293L60.6781 2.15581ZM53.8337 20.2109L55.0457 20.2301L55.0458 20.2187L53.8337 20.2109ZM51.4847 27.5602L50.4862 26.8729V26.8729L51.4847 27.5602ZM40.4996 6.66667L40.5109 5.45454L40.4995 5.45455L40.4996 6.66667ZM33.114 8.89992L32.4425 7.89081L33.114 8.89992ZM28.2021 14.85L27.084 14.3818V14.3818L28.2021 14.85ZM27.4085 22.5246L28.5987 22.2951L27.4085 22.5246ZM30.999 29.3538L30.1353 30.2042V30.2042L30.999 29.3538ZM37.7714 33.0509L37.5233 34.2374L37.7714 33.0509ZM45.4579 32.3779L45.0073 31.2526L45.4579 32.3779ZM13.7156 13.3344L13.7255 14.5465L13.7372 14.5463L13.7156 13.3344ZM17.4511 14.3999L18.1087 13.3817L18.1087 13.3817L17.4511 14.3999ZM11.1908 13.8585L11.6642 14.9744L11.6642 14.9744L11.1908 13.8585ZM9.05926 15.3099L8.1945 14.4605H8.1945L9.05926 15.3099ZM7.64635 17.4671L8.77052 17.9204L7.64635 17.4671ZM7.16759 20.0011L8.37977 20.0009L8.37965 19.9892L7.16759 20.0011ZM8.29985 23.7169L7.2936 24.3927V24.3927L8.29985 23.7169ZM11.3111 26.1708L11.7698 25.0488L11.7698 25.0488L11.3111 26.1708ZM15.1789 26.5296L14.9343 25.3424H14.9343L15.1789 26.5296ZM18.5901 24.6716L19.4549 25.521L19.4549 25.521L18.5901 24.6716ZM20.3866 21.2275L19.1952 21.0043V21.0043L20.3866 21.2275ZM19.9585 17.3667L18.8449 17.8455V17.8455L19.9585 17.3667ZM63.744 32.7329V7.26707H61.3197V32.7329H63.744ZM61.5912 38.6413C62.9839 37.0459 63.7441 34.9209 63.744 32.7329L61.3197 32.733C61.3198 34.3728 60.7477 35.9212 59.7649 37.0471L61.5912 38.6413ZM56.2028 41.212C58.2626 41.187 60.1944 40.2414 61.5912 38.6413L59.7649 37.0471C58.7862 38.1682 57.4912 38.772 56.1734 38.788L56.2028 41.212ZM6.84424 41.2121H56.1881V38.7879H6.84424V41.2121ZM1.44116 38.6413C2.83796 40.2414 4.7698 41.187 6.82952 41.212L6.85896 38.788C5.54117 38.772 4.24614 38.1682 3.26744 37.0471L1.44116 38.6413ZM-0.711633 32.7329C-0.711744 34.9209 0.048468 37.0459 1.44116 38.6413L3.26744 37.0471C2.28463 35.9212 1.71253 34.3728 1.71261 32.733L-0.711633 32.7329ZM-0.711633 7.26707L-0.711633 32.7329H1.71261L1.71261 7.26707H-0.711633ZM1.44116 1.35868C0.048468 2.95407 -0.711744 5.07909 -0.711633 7.26713L1.71261 7.26701C1.71253 5.62717 2.28463 4.07879 3.26744 2.95293L1.44116 1.35868ZM6.82952 -1.21203C4.7698 -1.18702 2.83796 -0.241421 1.44116 1.35868L3.26744 2.95293C4.24614 1.83179 5.54117 1.22803 6.85896 1.21203L6.82952 -1.21203ZM56.1881 -1.21212H6.84424V1.21212H56.1881V-1.21212ZM61.5912 1.35868C60.1944 -0.241425 58.2626 -1.18702 56.2028 -1.21203L56.1734 1.21203C57.4912 1.22803 58.7862 1.83179 59.7649 2.95293L61.5912 1.35868ZM63.744 7.26713C63.7441 5.07909 62.9839 2.95407 61.5912 1.35868L59.7649 2.95293C60.7477 4.07879 61.3198 5.62717 61.3197 7.26701L63.744 7.26713ZM52.6217 20.1917C52.5839 22.5805 51.841 24.9049 50.4862 26.8729L52.4831 28.2475C54.1088 25.8859 55.0003 23.0967 55.0456 20.2301L52.6217 20.1917ZM49.1024 11.5333C51.3768 13.8436 52.6423 16.9614 52.6216 20.2031L55.0458 20.2187C55.0707 16.3351 53.5546 12.6002 50.83 9.83261L49.1024 11.5333ZM40.4884 7.87874C43.7303 7.90884 46.828 9.22309 49.1024 11.5333L50.83 9.83261C48.1054 7.06503 44.3945 5.49065 40.5109 5.4546L40.4884 7.87874ZM33.7855 9.90904C35.7746 8.58542 38.1105 7.87909 40.4998 7.87879L40.4995 5.45455C37.6324 5.45491 34.8294 6.30248 32.4425 7.89081L33.7855 9.90904ZM29.3201 15.3182C30.2429 13.1145 31.7965 11.2327 33.7855 9.90904L32.4425 7.89081C30.0557 9.47913 28.1914 11.7374 27.084 14.3818L29.3201 15.3182ZM28.5987 22.2951C28.1463 19.9492 28.3973 17.5219 29.3201 15.3182L27.084 14.3818C25.9766 17.0263 25.6754 19.939 26.2183 22.7541L28.5987 22.2951ZM31.8628 28.5034C30.1867 26.8009 29.0511 24.641 28.5987 22.2951L26.2183 22.7541C26.7612 25.5692 28.1239 28.1611 30.1353 30.2042L31.8628 28.5034ZM38.0196 31.8645C35.6809 31.3753 33.539 30.206 31.8628 28.5034L30.1353 30.2042C32.1466 32.2473 34.7169 33.6504 37.5233 34.2374L38.0196 31.8645ZM45.0073 31.2526C42.7893 32.1407 40.3582 32.3536 38.0196 31.8645L37.5233 34.2374C40.3296 34.8243 43.2468 34.5689 45.9084 33.5032L45.0073 31.2526ZM50.4862 26.8729C49.1315 28.8408 47.2254 30.3645 45.0073 31.2526L45.9084 33.5032C48.5701 32.4375 50.8574 30.609 52.4831 28.2475L50.4862 26.8729ZM13.7372 14.5463C14.8199 14.5271 15.8838 14.8305 16.7934 15.4181L18.1087 13.3817C16.7948 12.533 15.258 12.0947 13.6941 12.1225L13.7372 14.5463ZM11.6642 14.9744C12.3165 14.6976 13.0169 14.5522 13.7255 14.5465L13.7058 12.1223C12.6786 12.1306 11.663 12.3414 10.7173 12.7427L11.6642 14.9744ZM9.92402 16.1593C10.4205 15.6538 11.0119 15.2511 11.6642 14.9744L10.7173 12.7427C9.77165 13.1439 8.91435 13.7276 8.1945 14.4605L9.92402 16.1593ZM8.77052 17.9204C9.03552 17.2633 9.42749 16.6648 9.92402 16.1593L8.1945 14.4605C7.47465 15.1934 6.90637 16.0611 6.52219 17.0138L8.77052 17.9204ZM8.37965 19.9892C8.37269 19.2806 8.50552 18.5776 8.77052 17.9204L6.52219 17.0138C6.138 17.9666 5.94544 18.9857 5.95553 20.013L8.37965 19.9892ZM9.30611 23.0411C8.70238 22.1421 8.37988 21.0838 8.37971 20.0009L5.95547 20.0012C5.95572 21.5654 6.42154 23.0941 7.2936 24.3927L9.30611 23.0411ZM11.7698 25.0488C10.7675 24.639 9.90985 23.9401 9.30611 23.0411L7.2936 24.3927C8.16566 25.6912 9.40449 26.7007 10.8523 27.2927L11.7698 25.0488ZM14.9343 25.3424C13.8737 25.5609 12.7721 25.4587 11.7698 25.0488L10.8523 27.2927C12.3001 27.8847 13.8914 28.0324 15.4234 27.7168L14.9343 25.3424ZM17.7253 23.8222C16.9665 24.5948 15.9949 25.124 14.9343 25.3424L15.4234 27.7168C16.9554 27.4013 18.3588 26.6369 19.4549 25.521L17.7253 23.8222ZM19.1952 21.0043C18.9958 22.0687 18.4841 23.0497 17.7253 23.8222L19.4549 25.521C20.5509 24.405 21.29 22.9881 21.578 21.4507L19.1952 21.0043ZM18.8449 17.8455C19.2727 18.8403 19.3946 19.9399 19.1952 21.0043L21.578 21.4507C21.866 19.9133 21.6899 18.3249 21.0721 16.8879L18.8449 17.8455ZM16.7934 15.4181C17.703 16.0056 18.4172 16.8506 18.8449 17.8455L21.0721 16.8879C20.4542 15.4509 19.4226 14.2303 18.1087 13.3817L16.7934 15.4181Z" fill="#8D91A5" mask="url(#path-2-inside-1)"/>
<path fill-rule="evenodd" clip-rule="evenodd" d="M47.7386 17.4713C47.5812 17.1076 47.7463 16.6844 48.1091 16.525C48.4723 16.366 48.8958 16.5321 49.0545 16.8959C49.4942 17.9035 49.7173 18.9759 49.7173 20.0828C49.7173 24.4727 46.1504 28.0438 41.7655 28.0438C41.369 28.0438 41.0476 27.7221 41.0476 27.3252C41.0476 26.9284 41.369 26.6066 41.7655 26.6066C45.3583 26.6066 48.2815 23.68 48.2815 20.0828C48.2815 19.1745 48.0989 18.2961 47.7386 17.4713ZM46.0877 23.5535C46.8735 22.5742 47.3061 21.3417 47.3061 20.0827C47.3061 17.0242 44.8206 14.5358 41.7656 14.5358L40.5599 14.5358C40.1634 14.5358 39.842 14.8576 39.842 15.2544C39.842 15.6512 40.1634 15.973 40.5599 15.973L41.7656 15.973C44.0288 15.973 45.8703 17.8166 45.8703 20.0827C45.8703 21.0294 45.5586 21.9175 44.9681 22.6532C44.7202 22.9639 44.7692 23.415 45.0781 23.6636C45.3873 23.9121 45.8392 23.8627 46.0877 23.5535ZM41.7651 23.215C43.4905 23.215 44.8942 21.8096 44.8943 20.0822C44.8943 18.3549 43.4905 16.9495 41.7651 16.9495L32.1198 16.9495C31.7231 16.9495 31.4019 17.2712 31.4019 17.6681C31.4019 18.065 31.7231 18.3867 32.1198 18.3867L41.7651 18.3867C42.6987 18.3867 43.4585 19.1473 43.4585 20.0822C43.4585 21.0172 42.6987 21.7778 41.7651 21.7778C41.3686 21.7778 41.0472 22.0996 41.0472 22.4964C41.0472 22.8932 41.3686 23.215 41.7651 23.215ZM41.7651 20.8011C42.1616 20.8011 42.483 20.4793 42.483 20.0825C42.483 19.6857 42.1616 19.3639 41.7651 19.3639L36.3397 19.3639C35.9432 19.3639 35.6218 19.6857 35.6218 20.0825C35.6218 20.4793 35.9432 20.8011 36.3397 20.8011L41.7651 20.8011ZM34.6463 20.0825C34.6463 20.4793 34.3249 20.8011 33.9284 20.8011L30.9142 20.8011C30.5175 20.8011 30.1963 20.4794 30.1963 20.0825C30.1963 19.6856 30.5175 19.3639 30.9142 19.3639L33.9284 19.3639C34.3249 19.3639 34.6463 19.6857 34.6463 20.0825ZM39.3539 23.2148C39.7504 23.2148 40.0718 22.893 40.0718 22.4962C40.0718 22.0994 39.7504 21.7776 39.3539 21.7776L32.12 21.7776C31.7233 21.7776 31.4021 22.0993 31.4021 22.4962C31.4021 22.8931 31.7233 23.2148 32.12 23.2148L39.3539 23.2148ZM38.8662 15.2544C38.8662 15.6512 38.5448 15.973 38.1483 15.973L33.9285 15.973C33.5318 15.973 33.2106 15.6513 33.2106 15.2544C33.2106 14.8575 33.5318 14.5358 33.9285 14.5358L38.1483 14.5358C38.5448 14.5358 38.8662 14.8576 38.8662 15.2544ZM39.3539 28.043C39.7504 28.043 40.0718 27.7213 40.0718 27.3244C40.0718 26.9276 39.7504 26.6058 39.3539 26.6058L36.3398 26.6058C35.9433 26.6058 35.6219 26.9276 35.6219 27.3244C35.6219 27.7213 35.9433 28.043 36.3398 28.043L39.3539 28.043ZM44.2376 24.2904C44.3857 24.6601 44.2088 25.0772 43.8413 25.2261C43.1815 25.4933 42.4828 25.6289 41.765 25.6289L33.9282 25.6289C33.5315 25.6289 33.2104 25.3072 33.2104 24.9103C33.2104 24.5133 33.5315 24.1917 33.9282 24.1917L41.765 24.1917C42.2974 24.1917 42.8146 24.0914 43.3028 23.8936C43.6705 23.7448 44.0887 23.9224 44.2376 24.2904ZM41.7654 13.5584C43.3714 13.5584 44.9141 14.1483 46.1092 15.2194C46.4048 15.4841 46.8587 15.459 47.123 15.1633C47.3876 14.8675 47.3623 14.4138 47.067 14.1487C45.6078 12.8412 43.7252 12.1212 41.7654 12.1212L36.34 12.1212C35.9435 12.1212 35.6221 12.443 35.6221 12.8398C35.6221 13.2366 35.9435 13.5584 36.34 13.5584L41.7654 13.5584Z" fill="#8D91A5"/>
</svg>
