<svg width="29" height="23" viewBox="0 0 29 23" fill="none" xmlns="http://www.w3.org/2000/svg">
<path d="M4.476 7.824C4.476 7.95 4.518 8.118 4.532 8.188L5.19 10.75H5.848L6.506 8.188C6.534 8.104 6.562 7.936 6.562 7.824C6.562 7.208 6.128 6.76 5.526 6.76C4.924 6.76 4.476 7.208 4.476 7.824ZM7.98716 14.95C7.98716 15.594 8.43516 16.056 9.09316 16.056C9.23316 16.056 9.38716 16.014 9.42916 15.972C9.41516 16.7 8.77116 17.274 8.16916 17.414V18.268C9.16316 18.142 10.5072 17.316 10.5072 15.356C10.5072 14.502 10.0172 13.83 9.19116 13.83C8.50516 13.83 7.98716 14.306 7.98716 14.95ZM7.97316 10.274C7.97316 10.96 8.53316 11.52 9.21916 11.52C9.91916 11.52 10.4932 10.96 10.4932 10.274C10.4932 9.574 9.91916 9.014 9.21916 9.014C8.53316 9.014 7.97316 9.574 7.97316 10.274ZM16.1275 12.668V11.016H12.0675V12.668H16.1275ZM21.4459 12.668V11.016H17.3859V12.668H21.4459Z" fill="currentColor"/>
<rect x="1" y="1" width="27" height="21" rx="2" stroke="currentColor" stroke-width="2"/>
</svg>
