<svg width="14" height="14" viewBox="0 0 14 14" fill="none" xmlns="http://www.w3.org/2000/svg">
<path fill-rule="evenodd" clip-rule="evenodd" d="M4.9078 1.05596L6.3373 1.88128C6.3982 1.91644 6.44035 1.97553 6.45464 2.04279C6.45394 2.05974 6.45358 2.07674 6.45358 2.0938V3.74444C6.45358 3.7615 6.45394 3.7785 6.45464 3.79545C6.44035 3.86271 6.3982 3.9218 6.3373 3.95696L4.9078 4.78228C4.83187 4.82612 4.73833 4.82612 4.6624 4.78228L3.2329 3.95696C3.15698 3.91312 3.11021 3.83211 3.11021 3.74444V2.0938C3.11021 2.00613 3.15698 1.92512 3.2329 1.88128L4.6624 1.05596C4.73833 1.01212 4.83187 1.01212 4.9078 1.05596ZM11.7457 3.96989C11.7594 3.89629 11.7665 3.82087 11.7665 3.74444V2.0938C11.7665 1.65544 11.5327 1.25039 11.153 1.03121L9.72354 0.205887C9.34391 -0.0132904 8.8762 -0.0132904 8.49657 0.205887L7.06707 1.03121C7.02545 1.05524 6.98558 1.0815 6.94758 1.1098C6.90958 1.0815 6.86971 1.05524 6.82809 1.03121L5.39859 0.205887C5.01896 -0.0132904 4.55124 -0.0132904 4.17161 0.205887L2.74211 1.03121C2.36249 1.25039 2.12863 1.65544 2.12863 2.0938V3.74444C2.12863 3.83422 2.13844 3.92259 2.1573 4.00826C2.11845 4.02557 2.08029 4.04499 2.04299 4.06653L0.613486 4.89186C0.23386 5.11103 0 5.51609 0 5.95445V7.60509C0 8.04344 0.23386 8.4485 0.613486 8.66768L2.04299 9.493C2.07517 9.51158 2.10799 9.52859 2.14134 9.54402C2.129 9.61384 2.12264 9.68526 2.12264 9.75758V11.4082C2.12264 11.8466 2.3565 12.2516 2.73612 12.4708L4.16562 13.2961C4.54525 13.5153 5.01297 13.5153 5.39259 13.2961L6.8221 12.4708C6.86372 12.4468 6.90359 12.4205 6.94159 12.3922C6.97959 12.4205 7.01946 12.4468 7.06108 12.4708L8.49058 13.2961C8.8702 13.5153 9.33792 13.5153 9.71755 13.2961L11.1471 12.4708C11.5267 12.2516 11.7605 11.8466 11.7605 11.4082V9.75758C11.7605 9.70055 11.7566 9.64409 11.7489 9.58853C11.8203 9.56351 11.89 9.53166 11.957 9.493L13.3865 8.66768C13.7661 8.4485 14 8.04344 14 7.60509V5.95445C14 5.51609 13.7661 5.11103 13.3865 4.89186L11.957 4.06653C11.8891 4.0273 11.8183 3.99508 11.7457 3.96989ZM7.44052 3.79545C7.45481 3.86271 7.49695 3.9218 7.55786 3.95696L8.98736 4.78228C9.06328 4.82612 9.15683 4.82612 9.23275 4.78228L10.6623 3.95696C10.7382 3.91312 10.785 3.83211 10.785 3.74444V2.0938C10.785 2.00613 10.7382 1.92512 10.6623 1.88128L9.23275 1.05596C9.15683 1.01212 9.06328 1.01212 8.98736 1.05596L7.55786 1.88128C7.49695 1.91644 7.45481 1.97553 7.44052 2.04279C7.44122 2.05974 7.44157 2.07674 7.44157 2.0938V3.74444C7.44157 3.7615 7.44122 3.7785 7.44052 3.79545ZM4.90181 8.71974L6.33131 9.54506C6.39221 9.58022 6.43436 9.63931 6.44865 9.70657C6.44795 9.72352 6.44759 9.74052 6.44759 9.75758V11.4082C6.44759 11.4253 6.44795 11.4423 6.44865 11.4592C6.43436 11.5265 6.39221 11.5856 6.33131 11.6207L4.90181 12.4461C4.82588 12.4899 4.73234 12.4899 4.65641 12.4461L3.22691 11.6207C3.15099 11.5769 3.10421 11.4959 3.10421 11.4082V9.75758C3.10421 9.66991 3.15099 9.5889 3.22691 9.54506L4.65641 8.71974C4.73234 8.6759 4.82588 8.6759 4.90181 8.71974ZM7.43452 11.4592C7.44881 11.5265 7.49096 11.5856 7.55187 11.6207L8.98137 12.4461C9.05729 12.4899 9.15084 12.4899 9.22676 12.4461L10.6563 11.6207C10.7322 11.5769 10.779 11.4959 10.779 11.4082V9.75758C10.779 9.66991 10.7322 9.5889 10.6563 9.54506L9.22676 8.71974C9.15084 8.6759 9.05729 8.6759 8.98137 8.71974L7.55187 9.54506C7.49096 9.58022 7.44881 9.63931 7.43452 9.70657C7.43523 9.72352 7.43558 9.74052 7.43558 9.75758V11.4082C7.43558 11.4253 7.43523 11.4423 7.43452 11.4592ZM2.77917 4.91661L4.20867 5.74193C4.26958 5.77709 4.31172 5.83618 4.32601 5.90344C4.32531 5.92038 4.32496 5.93739 4.32496 5.95445V7.60509C4.32496 7.62215 4.32531 7.63915 4.32601 7.6561C4.31172 7.72336 4.26958 7.78244 4.20867 7.81761L2.77917 8.64293C2.70324 8.68677 2.6097 8.68677 2.53377 8.64293L1.10427 7.81761C1.02835 7.77377 0.981577 7.69276 0.981577 7.60509V5.95445C0.981577 5.86677 1.02835 5.78576 1.10427 5.74193L2.53377 4.91661C2.6097 4.87277 2.70324 4.87277 2.77917 4.91661ZM5.31189 7.6561C5.32618 7.72336 5.36832 7.78244 5.42923 7.81761L6.85873 8.64293C6.93466 8.68677 7.0282 8.68677 7.10412 8.64293L8.53362 7.81761C8.60955 7.77377 8.65632 7.69276 8.65632 7.60509V5.95445C8.65632 5.86677 8.60955 5.78576 8.53362 5.74193L7.10412 4.91661C7.0282 4.87277 6.93465 4.87277 6.85873 4.91661L5.42923 5.74193C5.36832 5.77709 5.32618 5.83618 5.31189 5.90344C5.31259 5.92038 5.31294 5.93739 5.31294 5.95445V7.60509C5.31294 7.62215 5.31259 7.63915 5.31189 7.6561ZM12.8957 5.74193L11.4662 4.91661C11.3903 4.87277 11.2968 4.87277 11.2208 4.91661L9.79133 5.74193C9.7154 5.78576 9.66863 5.86677 9.66863 5.95445V7.60509C9.66863 7.69276 9.7154 7.77377 9.79133 7.81761L11.2208 8.64293C11.2968 8.68677 11.3903 8.68677 11.4662 8.64293L12.8957 7.81761C12.9717 7.77377 13.0184 7.69276 13.0184 7.60509V5.95445C13.0184 5.86677 12.9717 5.78576 12.8957 5.74193Z" fill="currentColor"/>
</svg>
