<svg width="14" height="14" viewBox="0 0 14 14" fill="none" xmlns="http://www.w3.org/2000/svg">
<path fill-rule="evenodd" clip-rule="evenodd" d="M0 4.34C0 2.407 1.567 0.839996 3.5 0.839996H9.66C11.3785 0.839996 12.8078 2.07855 13.1038 3.71171C13.1224 3.71058 13.1411 3.71 13.16 3.71C13.6626 3.71 14.07 4.11742 14.07 4.62C14.07 5.12258 13.6626 5.53 13.16 5.53V7.42C13.6626 7.42 14.07 7.82742 14.07 8.33C14.07 8.83258 13.6626 9.24 13.16 9.24C13.1411 9.24 13.1224 9.23942 13.1038 9.23829C12.8828 10.4574 12.0303 11.4567 10.8974 11.885C10.9122 11.9577 10.92 12.0329 10.92 12.11C10.92 12.7286 10.4186 13.23 9.8 13.23C9.18145 13.23 8.68001 12.7286 8.68001 12.11H4.48C4.48 12.7286 3.97856 13.23 3.36 13.23C2.74144 13.23 2.24 12.7286 2.24 12.11C2.24 12.0329 2.24779 11.9577 2.26262 11.885C0.940291 11.3851 0 10.1074 0 8.61V4.34ZM8.12 9.59C9.82104 9.59 11.2 8.21104 11.2 6.51C11.2 4.80896 9.82104 3.43 8.12 3.43C6.41897 3.43 5.04 4.80896 5.04 6.51C5.04 8.21104 6.41897 9.59 8.12 9.59ZM2.03 4.97C2.03 4.69938 2.24939 4.48 2.52 4.48C2.79062 4.48 3.01 4.69938 3.01 4.97V8.05C3.01 8.32062 2.79062 8.54 2.52 8.54C2.24939 8.54 2.03 8.32062 2.03 8.05V4.97ZM8.12 8.54C9.24114 8.54 10.15 7.63114 10.15 6.51C10.15 5.38886 9.24114 4.48 8.12 4.48C6.99886 4.48 6.09 5.38886 6.09 6.51C6.09 7.63114 6.99886 8.54 8.12 8.54Z" fill="currentColor"/>
</svg>
