<svg width="20" height="20" viewBox="0 0 20 20" fill="none" xmlns="http://www.w3.org/2000/svg">
<path fill-rule="evenodd" clip-rule="evenodd" d="M2 0C0.895431 0 0 0.89543 0 2V8C0 8.55229 0.447715 9 1 9H19C19.5523 9 20 8.55229 20 8V2C20 0.895431 19.1046 0 18 0H2ZM16.1905 4.7619C16.1905 5.81388 15.3377 6.66667 14.2857 6.66667C13.2337 6.66667 12.381 5.81388 12.381 4.7619C12.381 3.70993 13.2337 2.85714 14.2857 2.85714C15.3377 2.85714 16.1905 3.70993 16.1905 4.7619ZM5.71429 2.85714C5.71429 2.33116 6.14068 1.90476 6.66667 1.90476C7.19265 1.90476 7.61905 2.33116 7.61905 2.85714V5.71428C7.61905 6.24027 7.19265 6.66667 6.66667 6.66667C6.14068 6.66667 5.71429 6.24027 5.71429 5.71429V2.85714ZM3.80952 1.90476C3.28354 1.90476 2.85714 2.33116 2.85714 2.85714V5.71429C2.85714 6.24027 3.28354 6.66667 3.80952 6.66667C4.33551 6.66667 4.7619 6.24027 4.7619 5.71428V2.85714C4.7619 2.33116 4.33551 1.90476 3.80952 1.90476ZM8.57143 2.85714C8.57143 2.33116 8.99782 1.90476 9.52381 1.90476C10.0498 1.90476 10.4762 2.33116 10.4762 2.85714V5.71428C10.4762 6.24027 10.0498 6.66667 9.52381 6.66667C8.99782 6.66667 8.57143 6.24027 8.57143 5.71429V2.85714ZM1 11C0.447715 11 0 11.4477 0 12V18C0 19.1046 0.895431 20 2 20H18C19.1046 20 20 19.1046 20 18V12C20 11.4477 19.5523 11 19 11H1ZM14.2857 16.7143C15.3377 16.7143 16.1905 15.8615 16.1905 14.8095C16.1905 13.7576 15.3377 12.9048 14.2857 12.9048C13.2337 12.9048 12.381 13.7576 12.381 14.8095C12.381 15.8615 13.2337 16.7143 14.2857 16.7143ZM9.52381 12.9048C8.99782 12.9048 8.57143 13.3312 8.57143 13.8571V16.7143C8.57143 17.2403 8.99782 17.6667 9.52381 17.6667C10.0498 17.6667 10.4762 17.2403 10.4762 16.7143V13.8571C10.4762 13.3312 10.0498 12.9048 9.52381 12.9048ZM2.85714 13.8571C2.85714 13.3312 3.28354 12.9048 3.80952 12.9048C4.33551 12.9048 4.7619 13.3312 4.7619 13.8571V16.7143C4.7619 17.2403 4.33551 17.6667 3.80952 17.6667C3.28354 17.6667 2.85714 17.2403 2.85714 16.7143V13.8571ZM6.66667 12.9048C6.14068 12.9048 5.71429 13.3312 5.71429 13.8571V16.7143C5.71429 17.2403 6.14068 17.6667 6.66667 17.6667C7.19265 17.6667 7.61905 17.2403 7.61905 16.7143V13.8571C7.61905 13.3312 7.19265 12.9048 6.66667 12.9048Z" fill="currentColor"/>
</svg>
