<svg xmlns="http://www.w3.org/2000/svg" width="14" height="14" viewBox="0 0 14 14" fill="none">
    <path fill-rule="evenodd" clip-rule="evenodd"
        d="M2.39646 0.5C1.06664 0.5 0 1.65293 0 3.06061V6.01515C0 6.3871 0.120925 6.72979 0.323951 7C0.120925 7.27021 0 7.61289 0 7.98485V10.9394C0 12.3471 1.06664 13.5 2.39646 13.5H11.5884C12.9182 13.5 13.9848 12.3471 13.9848 10.9394V7.98485C13.9848 7.61289 13.8639 7.27021 13.6609 7C13.8639 6.72979 13.9848 6.3871 13.9848 6.01515V3.06061C13.9848 1.65293 12.9182 0.5 11.5884 0.5H2.39646ZM1.11616 3.06061C1.11616 2.29261 1.69566 1.68182 2.39646 1.68182H11.5884C12.2892 1.68182 12.8687 2.29261 12.8687 3.06061V6.01515C12.8687 6.23923 12.7007 6.40909 12.5076 6.40909H1.47727C1.28413 6.40909 1.11616 6.23923 1.11616 6.01515V3.06061ZM3.77519 2.79814C3.46697 2.79814 3.21711 3.048 3.21711 3.35622V4.27541C3.21711 4.58363 3.46697 4.83349 3.77519 4.83349C4.08341 4.83349 4.33327 4.58363 4.33327 4.27541V3.35622C4.33327 3.048 4.08341 2.79814 3.77519 2.79814ZM5.6136 2.79814C5.30538 2.79814 5.05552 3.048 5.05552 3.35622V4.27541C5.05552 4.58363 5.30538 4.83349 5.6136 4.83349C5.92182 4.83349 6.17168 4.58363 6.17168 4.27541V3.35622C6.17168 3.048 5.92182 2.79814 5.6136 2.79814ZM7.45202 2.79814C7.1438 2.79814 6.89394 3.048 6.89394 3.35622V4.27541C6.89394 4.58363 7.1438 4.83349 7.45202 4.83349C7.76024 4.83349 8.0101 4.58363 8.0101 4.27541V3.35622C8.0101 3.048 7.76024 2.79814 7.45202 2.79814ZM9.75003 2.79814C9.18798 2.79814 8.73235 3.25377 8.73235 3.81582C8.73235 4.37786 9.18798 4.83349 9.75003 4.83349C10.3121 4.83349 10.7677 4.37786 10.7677 3.81582C10.7677 3.25377 10.3121 2.79814 9.75003 2.79814ZM1.11616 7.98485C1.11616 7.76077 1.28413 7.59091 1.47727 7.59091H12.5076C12.7007 7.59091 12.8687 7.76077 12.8687 7.98485V10.9394C12.8687 11.7074 12.2892 12.3182 11.5884 12.3182H2.39646C1.69566 12.3182 1.11616 11.7074 1.11616 10.9394V7.98485ZM3.77503 9.16655C3.46681 9.16655 3.21695 9.41642 3.21695 9.72464V10.6438C3.21695 10.952 3.46681 11.2019 3.77503 11.2019C4.08325 11.2019 4.33311 10.952 4.33311 10.6438V9.72463C4.33311 9.41642 4.08325 9.16655 3.77503 9.16655ZM5.61352 9.16655C5.3053 9.16655 5.05544 9.41642 5.05544 9.72464V10.6438C5.05544 10.952 5.3053 11.2019 5.61352 11.2019C5.92174 11.2019 6.1716 10.952 6.1716 10.6438V9.72463C6.1716 9.41642 5.92174 9.16655 5.61352 9.16655ZM7.45202 9.16655C7.1438 9.16655 6.89394 9.41642 6.89394 9.72464V10.6438C6.89394 10.952 7.1438 11.2019 7.45202 11.2019C7.76024 11.2019 8.0101 10.952 8.0101 10.6438V9.72463C8.0101 9.41642 7.76024 9.16655 7.45202 9.16655ZM9.75011 9.16655C9.18806 9.16655 8.73243 9.62218 8.73243 10.1842C8.73243 10.7463 9.18806 11.2019 9.75011 11.2019C10.3122 11.2019 10.7678 10.7463 10.7678 10.1842C10.7678 9.62218 10.3122 9.16655 9.75011 9.16655Z"
        fill="currentColor" />
</svg>