<svg width="12" height="15" viewBox="0 0 12 15" fill="none" xmlns="http://www.w3.org/2000/svg">
<path fill-rule="evenodd" clip-rule="evenodd" d="M0.726156 10.0336L5.29216 14.5996C5.48016 14.7876 5.73416 14.8926 5.99916 14.8926C6.26516 14.8926 6.51916 14.7876 6.70616 14.5996L11.2732 10.0336C11.6642 9.64259 11.6642 9.00959 11.2732 8.61959C11.0782 8.42459 10.8222 8.32659 10.5662 8.32659C10.3102 8.32659 10.0542 8.42459 9.85916 8.61959L7.00516 11.4726L7.00516 1.99559C7.00516 1.44259 6.55816 0.995593 6.00516 0.995593C5.45316 0.995593 5.00516 1.44259 5.00516 1.99559L5.00516 11.4846L2.14016 8.61959C1.74916 8.22859 1.11716 8.22859 0.726156 8.61959C0.335156 9.01059 0.335156 9.64259 0.726156 10.0336Z"/>
</svg>
