<svg width="14" height="20" viewBox="0 0 14 20" fill="none" xmlns="http://www.w3.org/2000/svg">
<path d="M3.98682 15.5569L9.99658 15.5569C10.2788 15.5569 10.4614 15.3826 10.4614 15.1003L10.4614 13.7722C10.4614 11.7634 13.375 10.4685 13.375 6.88257C13.375 3.10571 10.8184 0.582275 6.9917 0.582275C3.16504 0.582275 0.616699 3.10571 0.616699 6.88257C0.616699 10.4685 3.53027 11.7634 3.53027 13.7722L3.53027 15.1003C3.53027 15.3826 3.71289 15.5569 3.98682 15.5569ZM4.30225 17.7981L9.68945 17.7981C10.1128 17.7981 10.4614 17.4495 10.4614 17.0178C10.4614 16.5862 10.1128 16.2375 9.68945 16.2375L4.30225 16.2375C3.87891 16.2375 3.53027 16.5862 3.53027 17.0178C3.53027 17.4495 3.87891 17.7981 4.30225 17.7981ZM6.9917 19.7986C8.13721 19.7986 8.95068 19.2756 9.03369 18.4705L4.95801 18.4705C5.03272 19.2756 5.84619 19.7986 6.9917 19.7986Z" fill="#F7F9FA"/>
</svg>
