<svg width="8" height="8" viewBox="0 0 8 8" fill="none" xmlns="http://www.w3.org/2000/svg"><path d="M1.423 8h5.128c.79 0 1.184-.282 1.184-.847 0-.316-.092-.632-.275-.948a2.979 2.979 0 0 0-.78-.869 3.984 3.984 0 0 0-1.188-.63 4.514 4.514 0 0 0-1.502-.238c-.547 0-1.05.08-1.507.239a4.046 4.046 0 0 0-1.193.63c-.333.26-.592.549-.775.868a1.878 1.878 0 0 0-.275.948C.24 7.718.634 8 1.423 8Zm.023-.962c-.036 0-.061-.009-.076-.026a.078.078 0 0 1-.022-.058c0-.133.06-.285.177-.456.119-.175.29-.343.514-.506a3.05 3.05 0 0 1 .83-.403 3.63 3.63 0 0 1 1.12-.16c.414 0 .785.054 1.113.16.328.106.604.24.829.403.227.163.4.331.518.506.119.17.178.323.178.456a.078.078 0 0 1-.022.058c-.012.017-.037.026-.076.026H1.446ZM3.99 4.055c.348 0 .666-.091.952-.274.287-.184.515-.43.683-.74a2.1 2.1 0 0 0 .257-1.033 2 2 0 0 0-.257-1.006 1.957 1.957 0 0 0-.687-.727A1.725 1.725 0 0 0 3.99 0c-.35 0-.667.092-.953.275a2.03 2.03 0 0 0-.692.731c-.171.304-.255.64-.252 1.006.003.378.088.723.257 1.033.168.307.396.552.682.736.287.183.606.274.958.274Zm0-.961a.812.812 0 0 1-.457-.138.975.975 0 0 1-.332-.38 1.274 1.274 0 0 1-.129-.568c0-.204.041-.384.124-.541a.99.99 0 0 1 .337-.368.812.812 0 0 1 .457-.137.81.81 0 0 1 .452.133c.139.088.25.212.332.372.086.157.129.337.129.54 0 .216-.042.406-.125.568a.975.975 0 0 1-.332.381.812.812 0 0 1-.456.138Z" fill="currentColor"/></svg>
