<svg width="20" height="20" viewBox="0 0 20 20" fill="none" xmlns="http://www.w3.org/2000/svg">
    <path fill-rule="evenodd" clip-rule="evenodd"
          d="M0.00012207 15.8943V4.10857C0.00012207 3.0233 0.895122 2.14429 2.00012 2.14429H18.0001C19.1001 2.14429 20.0001 3.02822 20.0001 4.10857V15.8943C20.0001 16.9746 19.1001 17.8586 18.0001 17.8586H2.00012C0.900122 17.8586 0.00012207 16.9746 0.00012207 15.8943ZM12.0001 9.01929H16.0001C16.5521 9.01929 17.0001 8.57929 17.0001 8.03714C17.0001 7.495 16.5521 7.055 16.0001 7.055H12.0001C11.4481 7.055 11.0001 7.495 11.0001 8.03714C11.0001 8.57929 11.4481 9.01929 12.0001 9.01929ZM12.0001 12.9479H16.0001C16.5521 12.9479 17.0001 12.5079 17.0001 11.9657C17.0001 11.4236 16.5521 10.9836 16.0001 10.9836H12.0001C11.4481 10.9836 11.0001 11.4236 11.0001 11.9657C11.0001 12.5079 11.4481 12.9479 12.0001 12.9479ZM7.91586 8.13985C7.91586 8.93773 7.26905 9.58455 6.47116 9.58455C5.67327 9.58455 5.02646 8.93773 5.02646 8.13985C5.02646 7.34196 5.67327 6.69514 6.47116 6.69514C7.26905 6.69514 7.91586 7.34196 7.91586 8.13985ZM9.00265 11.6165C9.15821 11.8987 9.10453 12.2481 8.87905 12.4784C8.26716 13.1032 7.41411 13.4909 6.47051 13.4909C5.52689 13.4909 4.67383 13.1031 4.06194 12.4783C3.83647 12.2481 3.78278 11.8987 3.93835 11.6165C4.43014 10.7243 5.37974 10.1199 6.47049 10.1199C7.56126 10.1199 8.51086 10.7243 9.00265 11.6165Z"
          fill="currentColor"/>
</svg>
