<svg xmlns="http://www.w3.org/2000/svg" width="14" height="14" viewBox="0 0 14 14" fill="none">
    <path fill-rule="evenodd" clip-rule="evenodd"
        d="M12.0609 12.502H1.93906C0.66322 12.502 0 11.8504 0 10.593V3.41583C0 2.15728 0.66322 1.50195 1.93906 1.50195H12.0609C13.3416 1.50195 14 2.15728 14 3.41583V10.593C14 11.8504 13.3416 12.502 12.0609 12.502ZM1.15809 10.4911C1.15809 11.0637 1.45659 11.3474 2.00621 11.3474H11.9938C12.5386 11.3474 12.8419 11.0637 12.8419 10.4911V3.5166C12.8419 2.94401 12.5386 2.65654 11.9938 2.65654H2.00621C1.45659 2.65654 1.15809 2.94401 1.15809 3.5166V10.4911ZM3.44497 5.55501C3.44497 6.13768 3.91731 6.61002 4.49998 6.61002C5.08265 6.61002 5.55499 6.13768 5.55499 5.55501C5.55499 4.97234 5.08265 4.5 4.49998 4.5C3.91731 4.5 3.44497 4.97234 3.44497 5.55501ZM2.84078 8.78017C3.27841 9.17971 3.86077 9.42339 4.50004 9.42339C5.13933 9.42339 5.7217 9.17971 6.15933 8.78016C6.39731 8.56288 6.45215 8.20702 6.2784 7.93562C5.90345 7.34994 5.24709 6.96172 4.50005 6.96172C3.75301 6.96172 3.09665 7.34994 2.7217 7.93564C2.54795 8.20704 2.60279 8.5629 2.84078 8.78017ZM7.5 5.6C7.5 5.26863 7.76863 5 8.1 5H10.9C11.2314 5 11.5 5.26863 11.5 5.6C11.5 5.93137 11.2314 6.2 10.9 6.2H8.1C7.76863 6.2 7.5 5.93137 7.5 5.6ZM8.1 8C7.76863 8 7.5 8.26863 7.5 8.6C7.5 8.93137 7.76863 9.2 8.1 9.2H10.9C11.2314 9.2 11.5 8.93137 11.5 8.6C11.5 8.26863 11.2314 8 10.9 8H8.1Z"
        fill="currentColor" />
</svg>