<svg width="24" height="24" viewBox="0 0 24 24" fill="none" xmlns="http://www.w3.org/2000/svg">
<path fill-rule="evenodd" clip-rule="evenodd" d="M0 5C0 2.23858 2.23858 0 5 0H19C21.7614 0 24 2.23858 24 5V19C24 21.7614 21.7614 24 19 24H5C2.23858 24 0 21.7614 0 19V5Z" fill="currentColor"/>
<path fill-rule="evenodd" clip-rule="evenodd" d="M15.4884 8.74419C15.4884 10.5325 14.2346 12.028 12.5581 12.3997V13.1395L13.8605 14.4419L12.5581 15.7442L13.8605 17.0465L11.907 19L10.6047 17.6977V12.3118C9.09401 11.8297 8 10.4147 8 8.74419C8 6.67633 9.67633 5 11.7442 5C13.812 5 15.4884 6.67633 15.4884 8.74419ZM12.8837 8.09303C12.8837 8.72237 12.3735 9.23256 11.7442 9.23256C11.1148 9.23256 10.6047 8.72237 10.6047 8.09303C10.6047 7.46368 11.1148 6.95349 11.7442 6.95349C12.3735 6.95349 12.8837 7.46368 12.8837 8.09303Z" fill="white"/>
</svg>
