<svg width="540" height="600" viewBox="0 0 540 600" fill="none" xmlns="http://www.w3.org/2000/svg">
<g clip-path="url(#clip0_1848_4274)">
<g filter="url(#filter0_f_1848_4274)">
<ellipse cx="270.5" cy="300" rx="242" ry="138.5" transform="rotate(90 270.5 300)" fill="url(#paint0_radial_1848_4274)" fill-opacity="0.6"/>
</g>
<rect width="170" height="170" rx="35" transform="matrix(1 0 0 -1 185 385)" fill="url(#paint1_linear_1848_4274)" fill-opacity="0.6"/>
<rect width="170" height="170" rx="35" transform="matrix(1 0 0 -1 185 385)" fill="url(#paint2_linear_1848_4274)" fill-opacity="0.4"/>
<rect x="0.5" y="-0.5" width="169" height="169" rx="34.5" transform="matrix(1 0 0 -1 185 384)" stroke="url(#paint3_linear_1848_4274)" stroke-opacity="0.7"/>
<path fill-rule="evenodd" clip-rule="evenodd" d="M247.189 269.179C240.457 269.179 235 274.636 235 281.368V313.06C235 319.44 239.902 324.675 246.144 325.205L246.144 325.249C246.144 328.326 248.639 330.821 251.716 330.821C254.794 330.821 257.289 328.326 257.289 325.249L278.184 325.249C278.184 328.326 280.679 330.821 283.756 330.821C286.834 330.821 289.328 328.326 289.328 325.249L289.328 325.205C295.571 324.675 300.473 319.44 300.473 313.06L300.473 310.97C302.973 310.97 305 308.943 305 306.443C305 303.943 302.973 301.916 300.473 301.916V292.513C302.973 292.513 305 290.486 305 287.985C305 285.485 302.973 283.458 300.473 283.458L300.473 281.368C300.473 274.636 295.015 269.179 288.284 269.179H247.189ZM290.721 297.388C290.721 305.851 283.861 312.712 275.398 312.712C266.935 312.712 260.075 305.851 260.075 297.388C260.075 288.925 266.935 282.065 275.398 282.065C283.861 282.065 290.721 288.925 290.721 297.388ZM247 287.289C245.654 287.289 245.099 288.38 245.099 289.727V305.05C245.099 306.396 245.654 307.488 247 307.488C248.346 307.488 248.975 306.396 248.975 305.05V289.727C248.975 288.38 248.346 287.289 247 287.289ZM286.5 297.388C286.5 302.966 280.976 308.179 275.398 308.179C269.82 308.179 264 302.966 264 297.388C264 291.81 269.82 286.179 275.398 286.179C280.976 286.179 286.5 291.81 286.5 297.388ZM275.524 290.554C274.588 290.554 273.807 291.323 273.807 292.261L273.806 298.715L273.806 298.722L272.661 297.484C272.349 297.13 271.902 296.948 271.462 296.948C270.608 296.948 269.875 297.603 269.875 298.528C269.875 299.028 270.085 299.392 270.367 299.68L274.26 303.513C274.65 303.905 275.061 304.064 275.524 304.064C275.98 304.064 276.386 303.902 276.781 303.518L280.661 299.688L280.669 299.68C280.948 299.395 281.163 299.031 281.163 298.528C281.163 297.593 280.408 296.948 279.564 296.948C279.117 296.948 278.682 297.135 278.374 297.485L277.229 298.724V292.261C277.229 291.332 276.469 290.554 275.524 290.554Z" fill="#A2CEF5" fill-opacity="0.7"/>
</g>
<defs>
<filter id="filter0_f_1848_4274" x="28" y="-46" width="485" height="692" filterUnits="userSpaceOnUse" color-interpolation-filters="sRGB">
<feFlood flood-opacity="0" result="BackgroundImageFix"/>
<feBlend mode="normal" in="SourceGraphic" in2="BackgroundImageFix" result="shape"/>
<feGaussianBlur stdDeviation="52" result="effect1_foregroundBlur_1848_4274"/>
</filter>
<radialGradient id="paint0_radial_1848_4274" cx="0" cy="0" r="1" gradientUnits="userSpaceOnUse" gradientTransform="translate(270.5 300.208) rotate(-90) scale(213.686 220.688)">
<stop offset="0.0109635" stop-color="#0D6D75"/>
<stop offset="0.533542" stop-color="#1E6DB5" stop-opacity="0.45"/>
<stop offset="1" stop-color="#264E72" stop-opacity="0"/>
</radialGradient>
<linearGradient id="paint1_linear_1848_4274" x1="-2.1821e-05" y1="22.1013" x2="110.097" y2="120.85" gradientUnits="userSpaceOnUse">
<stop stop-color="#4D6EA9" stop-opacity="0.4"/>
<stop offset="1" stop-color="#0C1A38" stop-opacity="0"/>
</linearGradient>
<linearGradient id="paint2_linear_1848_4274" x1="-40.375" y1="8.68495e-07" x2="199.651" y2="208.581" gradientUnits="userSpaceOnUse">
<stop stop-color="#060A1D" stop-opacity="0"/>
<stop offset="0.00423948" stop-color="#4797F8" stop-opacity="0.7"/>
<stop offset="1" stop-color="#060A1D" stop-opacity="0"/>
</linearGradient>
<linearGradient id="paint3_linear_1848_4274" x1="84.9999" y1="-9.38838e-05" x2="-46.964" y2="55.8075" gradientUnits="userSpaceOnUse">
<stop stop-color="#346292"/>
<stop offset="1" stop-color="#1A2F54"/>
</linearGradient>
<clipPath id="clip0_1848_4274">
<path d="M0 9.99999C0 4.47714 4.47715 0 10 0H530C535.523 0 540 4.47715 540 10V590C540 595.523 535.523 600 530 600H9.99999C4.47715 600 0 595.523 0 590V9.99999Z" fill="white"/>
</clipPath>
</defs>
</svg>
