<svg width="24" height="24" viewBox="0 0 24 24" fill="none" xmlns="http://www.w3.org/2000/svg">
<path fill-rule="evenodd" clip-rule="evenodd" d="M0 5C0 2.23858 2.23858 0 5 0H19C21.7614 0 24 2.23858 24 5V19C24 21.7614 21.7614 24 19 24H5C2.23858 24 0 21.7614 0 19V5Z" fill="currentColor"/>
<path d="M8.25349 14.922H5.30986C5.20303 14.922 5.10386 14.8646 5.04743 14.7701C4.99059 14.6755 4.98454 14.5569 5.0309 14.4565L7.19972 9.75219C7.25132 9.63991 7.35976 9.56857 7.47868 9.56857H10.4227C10.5291 9.56857 10.6283 9.62598 10.6847 9.72053C10.7416 9.81508 10.748 9.93369 10.7017 10.0341L8.53245 14.7384C8.48085 14.8507 8.37241 14.922 8.25349 14.922Z" fill="white"/>
<path d="M13.2112 17.869C13.1737 17.869 13.1362 17.8618 13.1003 17.8474C12.9802 17.7993 12.9012 17.679 12.9012 17.5444V15.0844H9.64794C9.54192 15.0844 9.44315 15.0278 9.38631 14.9341C9.32947 14.8404 9.32222 14.7231 9.36696 14.6226L11.5362 9.7558C11.587 9.64183 11.6962 9.56881 11.8168 9.56881H12.7464V6.32414C12.7464 6.19076 12.8246 6.07088 12.9431 6.02234C13.062 5.9738 13.1971 6.00588 13.2837 6.10381L18.2543 11.7278C18.3635 11.8507 18.3643 12.0406 18.2571 12.1651L13.4414 17.7617C13.3813 17.8314 13.2974 17.869 13.2112 17.869Z" fill="white"/>
</svg>
