<svg width="20" height="21" viewBox="0 0 20 21" fill="none" xmlns="http://www.w3.org/2000/svg">
<path d="M9.99536 14.3053C10.226 14.3053 10.4289 14.2315 10.6411 14.0194L13.7407 11.0304C13.8976 10.8736 13.9806 10.7076 13.9806 10.4862C13.9806 10.0618 13.6393 9.74815 13.2241 9.74815C13.012 9.74815 12.7998 9.8404 12.6522 10.0065L11.3514 11.381L10.761 12.0544L10.8533 10.6891V1.12269C10.8533 0.670657 10.4658 0.283203 9.99536 0.283203C9.5341 0.283203 9.14665 0.670657 9.14665 1.12269V10.6891L9.2389 12.0636L8.63927 11.381L7.34776 10.0065C7.20016 9.8404 6.97875 9.74815 6.76658 9.74815C6.35145 9.74815 6.01012 10.0618 6.01012 10.4862C6.01012 10.7076 6.10237 10.8736 6.2592 11.0304L9.35883 14.0194C9.571 14.2315 9.77396 14.3053 9.99536 14.3053ZM4.69093 20.2832H15.309C17.3016 20.2832 18.3348 19.2592 18.3348 17.2943V8.20756C18.3348 6.24261 17.3016 5.21863 15.309 5.21863H12.809V7.02675H15.1983C16.047 7.02675 16.5267 7.46955 16.5267 8.36438V17.1374C16.5267 18.0323 16.047 18.4751 15.1983 18.4751H4.80163C3.9437 18.4751 3.47322 18.0323 3.47322 17.1374V8.36438C3.47322 7.46955 3.9437 7.02675 4.80163 7.02675H7.20938V5.21863H4.69093C2.69831 5.21863 1.6651 6.24261 1.6651 8.20756V17.2943C1.6651 19.2592 2.69831 20.2832 4.69093 20.2832Z" fill="currentColor"/>
</svg>
