<svg width="24" height="24" viewBox="0 0 24 24" fill="none" xmlns="http://www.w3.org/2000/svg">
<path fill-rule="evenodd" clip-rule="evenodd" d="M0 5C0 2.23858 2.23858 0 5 0H19C21.7614 0 24 2.23858 24 5V19C24 21.7614 21.7614 24 19 24H5C2.23858 24 0 21.7614 0 19V5Z" fill="currentColor"/>
<path fill-rule="evenodd" clip-rule="evenodd" d="M5 7C5 5.89543 5.89543 5 7 5H17C18.1046 5 19 5.89543 19 7V11H5V7ZM15 9.66667C15.7364 9.66667 16.3334 9.06971 16.3334 8.33333C16.3334 7.59695 15.7364 7 15 7C14.2636 7 13.6667 7.59695 13.6667 8.33333C13.6667 9.06971 14.2636 9.66667 15 9.66667ZM9.66667 6.33334C9.29848 6.33334 9 6.63182 9 7.00001V9.00001C9 9.3682 9.29848 9.66668 9.66667 9.66668C10.0349 9.66668 10.3333 9.3682 10.3333 9.00001V7.00001C10.3333 6.63182 10.0349 6.33334 9.66667 6.33334ZM7 7.00001C7 6.63182 7.29848 6.33334 7.66667 6.33334C8.03486 6.33334 8.33333 6.63182 8.33333 7.00001V9.00001C8.33333 9.3682 8.03486 9.66668 7.66667 9.66668C7.29848 9.66668 7 9.3682 7 9.00001V7.00001ZM11.6667 6.33334C11.2985 6.33334 11 6.63182 11 7.00001V9.00001C11 9.3682 11.2985 9.66668 11.6667 9.66668C12.0349 9.66668 12.3333 9.3682 12.3333 9.00001V7.00001C12.3333 6.63182 12.0349 6.33334 11.6667 6.33334Z" fill="white"/>
<path fill-rule="evenodd" clip-rule="evenodd" d="M5 13H19V17C19 18.1046 18.1046 19 17 19H7C5.89543 19 5 18.1046 5 17V13ZM15 17C15.7364 17 16.3334 16.4031 16.3334 15.6667C16.3334 14.9303 15.7364 14.3333 15 14.3333C14.2636 14.3333 13.6667 14.9303 13.6667 15.6667C13.6667 16.4031 14.2636 17 15 17ZM11.6667 14.3333C11.2985 14.3333 11 14.6318 11 15V17C11 17.3682 11.2985 17.6667 11.6667 17.6667C12.0349 17.6667 12.3333 17.3682 12.3333 17V15C12.3333 14.6318 12.0349 14.3333 11.6667 14.3333ZM7 15C7 14.6318 7.29848 14.3333 7.66667 14.3333C8.03486 14.3333 8.33333 14.6318 8.33333 15V17C8.33333 17.3682 8.03486 17.6667 7.66667 17.6667C7.29848 17.6667 7 17.3682 7 17V15ZM9.66667 14.3333C9.29848 14.3333 9 14.6318 9 15V17C9 17.3682 9.29848 17.6667 9.66667 17.6667C10.0349 17.6667 10.3333 17.3682 10.3333 17V15C10.3333 14.6318 10.0349 14.3333 9.66667 14.3333Z" fill="white"/>
</svg>
