<svg xmlns="http://www.w3.org/2000/svg" width="20" height="15" viewBox="0 0 20 15" fill="none">
    <path d="M16.8669 3.16919V4.10347C16.4974 3.94138 16.0943 3.85251 15.6765 3.85251C15.6077 3.85251 15.5392 3.85491 15.4722 3.86337V3.29092C15.4722 2.59921 15.101 2.25192 14.4449 2.25192H2.42333C1.76011 2.25192 1.39476 2.59921 1.39476 3.29092V11.7166C1.39476 12.4082 1.76011 12.7509 2.42333 12.7509H10.3931C10.3343 12.9776 10.3057 13.2034 10.3057 13.4246C10.3057 13.6874 10.3583 13.9301 10.4558 14.1458H2.33662C0.804599 14.1458 0 13.3586 0 11.8396V3.16919C0 1.64878 0.804599 0.857117 2.33662 0.857117H14.5316C16.0694 0.857117 16.8669 1.64878 16.8669 3.16919Z" fill="currentColor"/>
    <path d="M4.76227 9.67345C4.11338 10.1486 3.6154 9.10156 4.20393 8.68804L6.02232 7.40349L4.20393 6.12774C3.60785 5.70542 4.11338 4.66722 4.76227 5.14233L6.93529 6.72602C7.34274 7.02516 7.36537 7.77302 6.93529 8.08976L4.76227 9.67345Z" fill="currentColor"/>
    <path d="M7.8709 10.2277C7.59927 10.2277 7.38801 9.97259 7.38801 9.66465C7.38801 9.34791 7.59927 9.09276 7.8709 9.09276H10.7456C11.0173 9.09276 11.2285 9.34791 11.2285 9.66465C11.2285 9.97259 11.0173 10.2277 10.7456 10.2277H7.8709Z" fill="currentColor"/>
    <path d="M15.677 9.38352C16.788 9.38352 17.7394 8.3908 17.7394 7.10548C17.7394 5.8492 16.7868 4.89349 15.677 4.89349C14.5615 4.89349 13.6062 5.86087 13.6088 7.11715C13.6088 8.3908 14.5601 9.38352 15.677 9.38352ZM12.2616 14.1461H19.0853C19.6487 14.1461 20 13.8789 20 13.4248C20 12.1032 18.3291 10.2896 15.677 10.2896C13.0132 10.2896 11.3469 12.1032 11.3469 13.4248C11.3469 13.8789 11.6924 14.1461 12.2616 14.1461Z" fill="currentColor"/>
</svg>