<svg width="14" height="17" viewBox="0 0 14 17" fill="none" xmlns="http://www.w3.org/2000/svg">
<path d="M3.5 5C1.57405 5 0 6.57405 0 8.5C0 10.4259 1.57405 12 3.5 12C4.63167 12 5.63486 11.4636 6.27653 10.6294C6.01986 10.2619 5.79268 9.88792 5.58268 9.53792C5.20935 10.3079 4.41583 10.8333 3.5 10.8333C2.20478 10.8333 1.16667 9.79522 1.16667 8.5C1.16667 7.20478 2.20478 6.16667 3.5 6.16667C4.21296 6.16667 4.69214 6.43368 5.16569 6.90723C5.63924 7.38077 6.06234 8.07048 6.49984 8.79964C6.93734 9.52881 7.38924 10.2974 8.00944 10.9176C8.62964 11.5378 9.46296 12 10.5 12C12.4259 12 14 10.4259 14 8.5C14 6.57405 12.4259 5 10.5 5C9.36833 5 8.36514 5.53644 7.72347 6.37061C7.98014 6.73811 8.20732 7.11208 8.41732 7.46208C8.79065 6.69208 9.58417 6.16667 10.5 6.16667C11.7952 6.16667 12.8333 7.20478 12.8333 8.5C12.8333 9.79522 11.7952 10.8333 10.5 10.8333C9.78704 10.8333 9.30785 10.5663 8.83431 10.0928C8.36076 9.61923 7.93766 8.92952 7.50016 8.20036C7.06266 7.47119 6.61076 6.70256 5.99056 6.08236C5.37036 5.46215 4.53704 5 3.5 5Z" fill="currentColor"/>
</svg>
