<svg xmlns="http://www.w3.org/2000/svg" width="14" height="15" viewBox="0 0 14 15" fill="none">
    <path fill-rule="evenodd" clip-rule="evenodd"
        d="M7 0.5C10.866 0.5 14 3.63401 14 7.5C14 11.366 10.866 14.5 7 14.5C3.13401 14.5 0 11.366 0 7.5C0 3.63401 3.13401 0.5 7 0.5ZM6.125 11C6.125 11.4832 6.51675 11.875 7 11.875C7.48325 11.875 7.875 11.4832 7.875 11V7.5C7.875 7.01675 7.48325 6.625 7 6.625C6.51675 6.625 6.125 7.01675 6.125 7.5V11ZM6.125 4.84769C6.125 5.34602 6.52898 5.75 7.02731 5.75C7.52564 5.75 7.92962 5.34602 7.92962 4.84769V4.77963C7.92962 4.28129 7.52564 3.87732 7.02731 3.87732C6.52898 3.87732 6.125 4.28129 6.125 4.77963V4.84769Z"
        fill="url(#paint0_linear_2883_20125)" />
    <defs>
        <linearGradient id="paint0_linear_2883_20125" x1="-7.9046e-08" y1="14.6591" x2="14.7448"
            y2="13.825" gradientUnits="userSpaceOnUse">
            <stop stop-color="#2091F6" />
            <stop offset="1" stop-color="#21B568" />
        </linearGradient>
    </defs>
</svg>