<svg width="540" height="600" viewBox="0 0 540 600" fill="none" xmlns="http://www.w3.org/2000/svg">
<g clip-path="url(#clip0_1848_4258)">
<g filter="url(#filter0_f_1848_4258)">
<ellipse cx="270.5" cy="300" rx="242" ry="138.5" transform="rotate(90 270.5 300)" fill="url(#paint0_radial_1848_4258)" fill-opacity="0.6"/>
</g>
<rect width="170" height="170" rx="35" transform="matrix(1 0 0 -1 185 385)" fill="url(#paint1_linear_1848_4258)" fill-opacity="0.6"/>
<rect width="170" height="170" rx="35" transform="matrix(1 0 0 -1 185 385)" fill="url(#paint2_linear_1848_4258)" fill-opacity="0.4"/>
<rect x="0.5" y="-0.5" width="169" height="169" rx="34.5" transform="matrix(1 0 0 -1 185 384)" stroke="url(#paint3_linear_1848_4258)" stroke-opacity="0.7"/>
<path d="M304.893 282.124V317.901C304.893 324.169 301.611 327.417 295.227 327.417H244.771C238.412 327.417 235.105 324.169 235.105 317.901V282.124C235.105 275.85 238.412 272.583 244.771 272.583H295.227C301.611 272.583 304.893 275.85 304.893 282.124ZM245.04 311.842C245.04 312.824 245.58 313.57 246.664 313.57H269.21C270.293 313.57 270.834 312.824 270.834 311.842C270.834 309.08 266.759 302.019 257.927 302.019C249.101 302.019 245.04 309.08 245.04 311.842ZM277.229 309.608C276.115 309.608 275.288 310.463 275.288 311.544C275.288 312.596 276.115 313.396 277.229 313.396H292.718C293.797 313.396 294.625 312.596 294.625 311.544C294.625 310.463 293.797 309.608 292.718 309.608H277.229ZM277.229 298.138C276.115 298.138 275.288 298.944 275.288 299.991C275.288 301.072 276.115 301.926 277.229 301.926H292.718C293.797 301.926 294.625 301.072 294.625 299.991C294.625 298.944 293.797 298.138 292.718 298.138H277.229ZM251.469 292.994C251.469 297.019 254.362 300.015 257.927 300.015C261.517 300.039 264.386 297.019 264.386 292.994C264.386 289.229 261.517 286.109 257.927 286.109C254.362 286.109 251.469 289.229 251.469 292.994ZM277.229 286.628C276.115 286.628 275.288 287.463 275.288 288.51C275.288 289.585 276.115 290.416 277.229 290.416H292.718C293.797 290.416 294.625 289.585 294.625 288.51C294.625 287.463 293.797 286.628 292.718 286.628H277.229Z" fill="#A2CEF5" fill-opacity="0.7"/>
</g>
<defs>
<filter id="filter0_f_1848_4258" x="28" y="-46" width="485" height="692" filterUnits="userSpaceOnUse" color-interpolation-filters="sRGB">
<feFlood flood-opacity="0" result="BackgroundImageFix"/>
<feBlend mode="normal" in="SourceGraphic" in2="BackgroundImageFix" result="shape"/>
<feGaussianBlur stdDeviation="52" result="effect1_foregroundBlur_1848_4258"/>
</filter>
<radialGradient id="paint0_radial_1848_4258" cx="0" cy="0" r="1" gradientUnits="userSpaceOnUse" gradientTransform="translate(270.5 300.208) rotate(-90) scale(213.686 220.688)">
<stop offset="0.0109635" stop-color="#0D6D75"/>
<stop offset="0.533542" stop-color="#1E6DB5" stop-opacity="0.45"/>
<stop offset="1" stop-color="#264E72" stop-opacity="0"/>
</radialGradient>
<linearGradient id="paint1_linear_1848_4258" x1="-2.1821e-05" y1="22.1013" x2="110.097" y2="120.85" gradientUnits="userSpaceOnUse">
<stop stop-color="#4D6EA9" stop-opacity="0.4"/>
<stop offset="1" stop-color="#0C1A38" stop-opacity="0"/>
</linearGradient>
<linearGradient id="paint2_linear_1848_4258" x1="-40.375" y1="8.68495e-07" x2="199.651" y2="208.581" gradientUnits="userSpaceOnUse">
<stop stop-color="#060A1D" stop-opacity="0"/>
<stop offset="0.00423948" stop-color="#4797F8" stop-opacity="0.7"/>
<stop offset="1" stop-color="#060A1D" stop-opacity="0"/>
</linearGradient>
<linearGradient id="paint3_linear_1848_4258" x1="84.9999" y1="-9.38838e-05" x2="-46.964" y2="55.8075" gradientUnits="userSpaceOnUse">
<stop stop-color="#346292"/>
<stop offset="1" stop-color="#1A2F54"/>
</linearGradient>
<clipPath id="clip0_1848_4258">
<path d="M0 9.99999C0 4.47714 4.47715 0 10 0H530C535.523 0 540 4.47715 540 10V590C540 595.523 535.523 600 530 600H9.99999C4.47715 600 0 595.523 0 590V9.99999Z" fill="white"/>
</clipPath>
</defs>
</svg>
