<svg width="19" height="19" viewBox="0 0 19 19" fill="none" xmlns="http://www.w3.org/2000/svg">
<circle cx="9.5" cy="9.5" r="8.5" stroke="currentColor" stroke-width="2"/>
<path d="M10.628 14H8.804V8.036H10.628V14ZM8.96 6.968C8.752 6.76 8.648 6.508 8.648 6.212C8.648 5.916 8.752 5.664 8.96 5.456C9.168 5.248 9.416 5.144 9.704 5.144C10 5.144 10.252 5.248 10.46 5.456C10.676 5.664 10.784 5.916 10.784 6.212C10.784 6.508 10.676 6.76 10.46 6.968C10.252 7.176 10 7.28 9.704 7.28C9.416 7.28 9.168 7.176 8.96 6.968Z" fill="currentColor"/>
</svg>
