<svg xmlns="http://www.w3.org/2000/svg" width="20" height="20" viewBox="0 0 20 20" fill="none">
    <path d="M20 10C20 15.5121 15.5205 20 9.99916 20C4.4875 20 0 15.5121 0 10C0 4.47994 4.4875 0 9.99916 0C15.5205 0 20 4.47994 20 10ZM8.40039 8.24213C7.94678 8.24213 7.59423 8.59297 7.59423 9.02376C7.59423 9.4871 7.94678 9.81508 8.40039 9.81508H9.41642V14.0027H8.22537C7.76732 14.0027 7.41302 14.3535 7.41302 14.7826C7.41302 15.2477 7.76732 15.5756 8.22537 15.5756H12.3005C12.7603 15.5756 13.1128 15.2477 13.1128 14.7826C13.1128 14.3535 12.7603 14.0027 12.3005 14.0027H11.1862V9.25321C11.1862 8.6466 10.8872 8.24213 10.3114 8.24213H8.40039ZM8.55818 5.30242C8.55818 6.07129 9.17557 6.69047 9.9382 6.69047C10.7008 6.69047 11.3102 6.07129 11.3102 5.30242C11.3102 4.52311 10.7008 3.91089 9.9382 3.91089C9.17557 3.91089 8.55818 4.52311 8.55818 5.30242Z" fill="currentColor"/>
</svg>
