<svg width="21" height="21" viewBox="0 0 21 21" fill="none" xmlns="http://www.w3.org/2000/svg">
<path d="M20.4448 11.841C21.1611 11.1225 21.2087 9.87735 20.4448 9.15915L18.7259 7.43485C18.5349 8.00961 18.2005 8.58435 17.7709 9.01535C16.243 10.548 13.9515 10.4999 12.2807 8.91975L12.1854 8.82416C10.6098 7.14809 10.6098 4.80125 12.0901 3.31672C12.5197 2.88575 13.045 2.55037 13.6657 2.35878L11.8515 0.538914C11.1352 -0.17964 9.94205 -0.17964 9.22569 0.538914L6.74324 3.02915C5.74066 4.03488 4.64277 3.41232 4.59478 2.31059C4.49948 0.490726 2.54199 -0.562803 0.918745 0.921728C-0.561146 2.55006 0.441469 4.51373 2.25569 4.6093C3.35361 4.65709 3.9746 5.7588 2.97199 6.7645L0.53723 9.2069C-0.179077 9.92545 -0.179077 11.1223 0.53723 11.8409L2.97199 14.2833C3.97458 15.2891 3.35397 16.3904 2.25569 16.4385C0.441509 16.5341 -0.608728 18.4978 0.871161 20.1261C2.4944 21.6106 4.45193 20.6049 4.5472 18.7372C4.59484 17.6359 5.69311 17.0129 6.69566 18.0187L9.13042 20.4611C9.84673 21.1796 11.0399 21.1796 11.7562 20.4611L14.191 18.0187C15.1936 17.013 16.2438 17.5877 16.3394 18.7372C16.4347 20.5571 18.3922 21.6106 20.0155 20.0784C21.4954 18.45 20.4928 16.4864 18.6785 16.3908C17.5806 16.343 16.9596 15.2413 17.9622 14.2356L20.4448 11.841Z" fill="currentColor"/>
</svg>
