<svg width="30" height="30" viewBox="0 0 30 30" fill="none"
     xmlns="http://www.w3.org/2000/svg">
    <rect width="30" height="30" rx="10"
          transform="matrix(-1 0 0 1 30 -3.05176e-05)" fill="#E6EBED"
          fill-opacity="0.25"/>
    <path fill-rule="evenodd" clip-rule="evenodd"
          d="M15.0001 13.7143C17.1303 13.7143 18.8572 11.9874 18.8572 9.85714C18.8572 7.7269 17.1303 6 15.0001 6C12.8698 6 11.1429 7.7269 11.1429 9.85714C11.1429 11.9874 12.8698 13.7143 15.0001 13.7143ZM14.9999 24C18.0117 24 20.678 22.5206 22.3117 20.2488C21.2831 17.1974 18.3981 15.0001 14.9998 15.0001C11.6016 15.0001 8.71656 17.1974 7.68799 20.2487C9.32167 22.5205 11.988 24 14.9999 24Z"
          fill="#798C94"/>
</svg>
