<svg width="16" height="24" viewBox="0 0 16 24" fill="none" xmlns="http://www.w3.org/2000/svg">
<path d="M3.80041 24H12.201C14.0489 24 15.2846 22.821 15.2846 21.0524V2.94757C15.2846 1.17903 14.0489 0 12.201 0H3.80041C1.95251 0 0.716797 1.17903 0.716797 2.94757V21.0524C0.716797 22.821 1.95251 24 3.80041 24ZM4.03848 22.1748C3.07485 22.1748 2.54202 21.6646 2.54202 20.7577V3.24232C2.54202 2.33538 3.07485 1.82522 4.03848 1.82522H5.48959C5.67098 1.82522 5.76167 1.91592 5.76167 2.08597V2.34672C5.76167 2.82286 6.0791 3.14029 6.54391 3.14029H9.4688C9.94495 3.14029 10.251 2.82286 10.251 2.34672V2.08597C10.251 1.91592 10.3417 1.82522 10.5231 1.82522H11.9742C12.9265 1.82522 13.4594 2.33538 13.4594 3.24232V20.7577C13.4594 21.6646 12.9265 22.1748 11.9742 22.1748H4.03848ZM5.60296 21.3472H10.4211C10.7272 21.3472 10.9426 21.1318 10.9426 20.8144C10.9426 20.4969 10.7272 20.2929 10.4211 20.2929H5.60296C5.29686 20.2929 5.07013 20.4969 5.07013 20.8144C5.07013 21.1318 5.29686 21.3472 5.60296 21.3472Z" fill="currentColor"/>
</svg>
