<svg width="14" height="14" viewBox="0 0 14 14" fill="none" xmlns="http://www.w3.org/2000/svg">
<path fill-rule="evenodd" clip-rule="evenodd" d="M1.5 0C0.671573 0 0 0.671573 0 1.5V3.79893C0 4.18631 0.314033 4.50034 0.701411 4.50034H3V4.5C3 3.73571 3.57161 3.10493 4.31065 3.01184C4.29424 2.96365 4.28533 2.91198 4.28533 2.85824V1.42967C4.28533 1.16668 4.49853 0.95348 4.76152 0.95348C5.02452 0.95348 5.23771 1.16668 5.23771 1.42967V2.85824C5.23771 2.90761 5.2302 2.95522 5.21626 3H6.41848C6.27634 2.83362 6.19052 2.61769 6.19052 2.38171C6.19052 1.85573 6.61691 1.42933 7.1429 1.42933C7.66888 1.42933 8.09528 1.85573 8.09528 2.38171C8.09528 2.61769 8.00946 2.83362 7.86732 3H10V1.5C10 0.671573 9.32843 0 8.5 0H1.5ZM0.701411 5.49935H3V6.58878C2.91169 6.67522 2.85689 6.79576 2.85689 6.9291V8.35767C2.85689 8.491 2.91169 8.61154 3 8.69798V9.9997H1.5C0.671573 9.9997 0 9.32812 0 8.4997V6.20076C0 5.81339 0.314033 5.49935 0.701411 5.49935ZM2.85689 1.42967C2.85689 1.16668 3.07009 0.95348 3.33308 0.95348C3.59607 0.95348 3.80927 1.16668 3.80927 1.42967V2.85824C3.80927 3.12123 3.59607 3.33443 3.33308 3.33443C3.07009 3.33443 2.85689 3.12123 2.85689 2.85824V1.42967ZM1.90552 0.95348C1.64253 0.95348 1.42933 1.16668 1.42933 1.42967V2.85824C1.42933 3.12123 1.64253 3.33443 1.90552 3.33443C2.16852 3.33443 2.38171 3.12123 2.38171 2.85824V1.42967C2.38171 1.16668 2.16852 0.95348 1.90552 0.95348ZM1.42933 6.9291C1.42933 6.6661 1.64253 6.45291 1.90552 6.45291C2.16852 6.45291 2.38171 6.6661 2.38171 6.9291V8.35767C2.38171 8.62066 2.16852 8.83386 1.90552 8.83386C1.64253 8.83386 1.42933 8.62066 1.42933 8.35767V6.9291ZM4 5.5003C4 4.67188 4.67157 4.0003 5.5 4.0003H12.5C13.3284 4.0003 14 4.67188 14 5.5003V7.79923C14 8.18661 13.686 8.50065 13.2986 8.50065H4.70141C4.31403 8.50065 4 8.18661 4 7.79924V5.5003ZM11.1429 7.3344C11.6689 7.3344 12.0953 6.908 12.0953 6.38202C12.0953 5.85603 11.6689 5.42964 11.1429 5.42964C10.6169 5.42964 10.1905 5.85603 10.1905 6.38202C10.1905 6.908 10.6169 7.3344 11.1429 7.3344ZM7.33308 4.95378C7.07009 4.95378 6.85689 5.16698 6.85689 5.42998V6.85855C6.85689 7.12154 7.07009 7.33474 7.33308 7.33474C7.59607 7.33474 7.80927 7.12154 7.80927 6.85855V5.42998C7.80927 5.16698 7.59607 4.95378 7.33308 4.95378ZM5.42933 5.42998C5.42933 5.16698 5.64253 4.95378 5.90552 4.95378C6.16852 4.95378 6.38171 5.16698 6.38171 5.42998V6.85855C6.38171 7.12154 6.16852 7.33474 5.90552 7.33474C5.64253 7.33474 5.42933 7.12154 5.42933 6.85855V5.42998ZM8.76152 4.95378C8.49853 4.95378 8.28533 5.16698 8.28533 5.42998V6.85855C8.28533 7.12154 8.49853 7.33474 8.76152 7.33474C9.02452 7.33474 9.23771 7.12154 9.23771 6.85855V5.42998C9.23771 5.16698 9.02452 4.95378 8.76152 4.95378ZM4 10.2011C4 9.81369 4.31403 9.49966 4.70141 9.49966H13.2986C13.686 9.49966 14 9.81369 14 10.2011V12.5C14 13.3284 13.3284 14 12.5 14H5.5C4.67157 14 4 13.3284 4 12.5V10.2011ZM12.0953 11.4056C12.0953 11.9316 11.6689 12.358 11.1429 12.358C10.6169 12.358 10.1905 11.9316 10.1905 11.4056C10.1905 10.8796 10.6169 10.4532 11.1429 10.4532C11.6689 10.4532 12.0953 10.8796 12.0953 11.4056ZM8.28533 10.9294C8.28533 10.6664 8.49853 10.4532 8.76152 10.4532C9.02452 10.4532 9.23771 10.6664 9.23771 10.9294V12.358C9.23771 12.621 9.02452 12.8342 8.76152 12.8342C8.49853 12.8342 8.28533 12.621 8.28533 12.358V10.9294ZM5.90552 10.4532C5.64253 10.4532 5.42933 10.6664 5.42933 10.9294V12.358C5.42933 12.621 5.64253 12.8342 5.90552 12.8342C6.16852 12.8342 6.38171 12.621 6.38171 12.358V10.9294C6.38171 10.6664 6.16852 10.4532 5.90552 10.4532ZM6.85689 10.9294C6.85689 10.6664 7.07009 10.4532 7.33308 10.4532C7.59607 10.4532 7.80927 10.6664 7.80927 10.9294V12.358C7.80927 12.621 7.59607 12.8342 7.33308 12.8342C7.07009 12.8342 6.85689 12.621 6.85689 12.358V10.9294Z" fill="currentColor"/>
</svg>
