<svg width="16" height="16" viewBox="0 0 16 16" fill="none" xmlns="http://www.w3.org/2000/svg">
<path fill-rule="evenodd" clip-rule="evenodd" d="M12.5581 4.27907C12.5581 6.32287 11.1253 8.03201 9.2093 8.45674V9.30233L10.6977 10.7907L9.2093 12.2791L10.6977 13.7674L8.46512 16L6.97674 14.5116V8.35635C5.25029 7.80537 4 6.18823 4 4.27907C4 1.9158 5.9158 0 8.27907 0C10.6423 0 12.5581 1.9158 12.5581 4.27907ZM9.5814 3.53488C9.5814 4.25414 8.99832 4.83721 8.27907 4.83721C7.55982 4.83721 6.97674 4.25414 6.97674 3.53488C6.97674 2.81563 7.55982 2.23256 8.27907 2.23256C8.99832 2.23256 9.5814 2.81563 9.5814 3.53488Z" fill="currentcolor"/>
</svg>
