<svg width="38" height="39" viewBox="0 0 38 39" fill="none" xmlns="http://www.w3.org/2000/svg">
<rect y="0.5" width="38" height="38" rx="10" fill="#8D91A5"/>
<path fill-rule="evenodd" clip-rule="evenodd" d="M24.6977 15.3488C24.6977 17.9036 22.9066 20.04 20.5116 20.5709V21.6279L22.3721 23.4884L20.5116 25.3488L22.3721 27.2093L19.5814 30L17.7209 28.1395V20.4454C15.5629 19.7567 14 17.7353 14 15.3488C14 12.3948 16.3948 10 19.3488 10C22.3029 10 24.6977 12.3948 24.6977 15.3488ZM20.9767 14.4186C20.9767 15.3177 20.2479 16.0465 19.3488 16.0465C18.4498 16.0465 17.7209 15.3177 17.7209 14.4186C17.7209 13.5195 18.4498 12.7907 19.3488 12.7907C20.2479 12.7907 20.9767 13.5195 20.9767 14.4186Z" fill="#F7F9FA"/>
</svg>
