<svg width="10" height="10" viewBox="0 0 14 23" fill="none" xmlns="http://www.w3.org/2000/svg">
<path class="fill"  fill-rule="evenodd" clip-rule="evenodd" d="M12.1656 6.74553C12.1656 9.35714 10.3419 11.5411 7.90323 12.0837V13.1642L9.79752 15.0661L7.90323 16.9679L9.79752 18.8696L6.95608 21.7224L5.06179 19.8206V11.9553C2.86461 11.2512 1.27344 9.18494 1.27344 6.74553C1.27344 3.7258 3.71173 1.27783 6.71953 1.27783C9.72731 1.27783 12.1656 3.7258 12.1656 6.74553ZM8.3768 5.7947C8.3768 6.71375 7.63471 7.45879 6.7193 7.45879C5.80388 7.45879 5.06179 6.71375 5.06179 5.7947C5.06179 4.87566 5.80388 4.13062 6.7193 4.13062C7.63471 4.13062 8.3768 4.87566 8.3768 5.7947Z" fill="white"/>
</svg>
