<svg width="20" height="20" viewBox="0 0 20 20" fill="none" xmlns="http://www.w3.org/2000/svg">
<path fill-rule="evenodd" clip-rule="evenodd" d="M15.6977 5.34884C15.6977 7.90359 13.9066 10.04 11.5116 10.5709V11.6279L13.3721 13.4884L11.5116 15.3488L13.3721 17.2093L10.5814 20L8.72093 18.1395V10.4454C6.56287 9.75672 5 7.73529 5 5.34884C5 2.39476 7.39476 0 10.3488 0C13.3029 0 15.6977 2.39476 15.6977 5.34884ZM11.9767 4.4186C11.9767 5.31767 11.2479 6.04651 10.3488 6.04651C9.44977 6.04651 8.72093 5.31767 8.72093 4.4186C8.72093 3.51954 9.44977 2.7907 10.3488 2.7907C11.2479 2.7907 11.9767 3.51954 11.9767 4.4186Z" fill="currentColor"/>
</svg>
