<svg xmlns="http://www.w3.org/2000/svg" width="20" height="16" viewBox="0 0 20 16" fill="none">
    <path d="M4.0896 11.2073C4.0896 10.8134 4.38856 10.493 4.75627 10.493H11.9229C12.2917 10.493 12.5896 10.8134 12.5896 11.2073C12.5896 11.6013 12.2917 11.9216 11.9229 11.9216H4.75627C4.38856 11.9216 4.0896 11.6013 4.0896 11.2073Z" fill="currentColor"/>
    <path fill-rule="evenodd" clip-rule="evenodd" d="M15.9239 5.13382C15.9239 5.67623 15.5135 6.11597 15.0072 6.11597C14.501 6.11597 14.0906 5.67623 14.0906 5.13382C14.0906 4.59142 14.501 4.15167 15.0072 4.15167C15.5135 4.15167 15.9239 4.59142 15.9239 5.13382Z" fill="currentColor"/>
    <path fill-rule="evenodd" clip-rule="evenodd" d="M15.9239 8.17026C15.9239 8.71267 15.5135 9.15241 15.0072 9.15241C14.501 9.15241 14.0906 8.71267 14.0906 8.17026C14.0906 7.62786 14.501 7.18811 15.0072 7.18811C15.5135 7.18811 15.9239 7.62786 15.9239 8.17026Z" fill="currentColor"/>
    <path fill-rule="evenodd" clip-rule="evenodd" d="M15.9239 11.2052C15.9239 11.7476 15.5135 12.1874 15.0072 12.1874C14.501 12.1874 14.0906 11.7476 14.0906 11.2052C14.0906 10.6628 14.501 10.2231 15.0072 10.2231C15.5135 10.2231 15.9239 10.6628 15.9239 11.2052Z" fill="currentColor"/>
    <path fill-rule="evenodd" clip-rule="evenodd" d="M12.5829 5.13382C12.5829 5.67623 12.1724 6.11597 11.6662 6.11597C11.1599 6.11597 10.7495 5.67623 10.7495 5.13382C10.7495 4.59142 11.1599 4.15167 11.6662 4.15167C12.1724 4.15167 12.5829 4.59142 12.5829 5.13382Z" fill="currentColor"/>
    <path fill-rule="evenodd" clip-rule="evenodd" d="M12.5829 8.17026C12.5829 8.71267 12.1724 9.15241 11.6662 9.15241C11.1599 9.15241 10.7495 8.71267 10.7495 8.17026C10.7495 7.62786 11.1599 7.18811 11.6662 7.18811C12.1724 7.18811 12.5829 7.62786 12.5829 8.17026Z" fill="currentColor"/>
    <path fill-rule="evenodd" clip-rule="evenodd" d="M5.92294 5.13382C5.92294 5.67623 5.51251 6.11597 5.00627 6.11597C4.50003 6.11597 4.0896 5.67623 4.0896 5.13382C4.0896 4.59142 4.50003 4.15167 5.00627 4.15167C5.51251 4.15167 5.92294 4.59142 5.92294 5.13382Z" fill="currentColor"/>
    <path fill-rule="evenodd" clip-rule="evenodd" d="M9.25302 5.13382C9.25302 5.67623 8.84259 6.11597 8.33635 6.11597C7.83011 6.11597 7.41968 5.67623 7.41968 5.13382C7.41968 4.59142 7.83011 4.15167 8.33635 4.15167C8.84259 4.15167 9.25302 4.59142 9.25302 5.13382Z" fill="currentColor"/>
    <path fill-rule="evenodd" clip-rule="evenodd" d="M5.92294 8.17026C5.92294 8.71267 5.51251 9.15241 5.00627 9.15241C4.50003 9.15241 4.0896 8.71267 4.0896 8.17026C4.0896 7.62786 4.50003 7.18811 5.00627 7.18811C5.51251 7.18811 5.92294 7.62786 5.92294 8.17026Z" fill="currentColor"/>
    <path fill-rule="evenodd" clip-rule="evenodd" d="M9.25302 8.17026C9.25302 8.71267 8.84259 9.15241 8.33635 9.15241C7.83011 9.15241 7.41968 8.71267 7.41968 8.17026C7.41968 7.62786 7.83011 7.18811 8.33635 7.18811C8.84259 7.18811 9.25302 7.62786 9.25302 8.17026Z" fill="currentColor"/>
    <path fill-rule="evenodd" clip-rule="evenodd" d="M11.2286 0.857117L10.4929 0.857702L9.77763 0.857509H8.79877H7.6505H6.69046H5.51429H3.33333C1.49272 0.857509 0 2.45687 0 4.42897V11.5719C0 13.544 1.49272 15.1433 3.33333 15.1433H16.6667C18.5073 15.1433 20 13.544 20 11.5719V4.42897C20 2.45687 18.5073 0.857509 16.6667 0.857509H15.8333L14.5234 0.857214L13.0927 0.857304L11.9048 0.857117H11.2286ZM16.6667 13.3577C17.5875 13.3577 18.3333 12.5585 18.3333 11.5719V4.42903C18.3333 3.44242 17.5875 2.6433 16.6667 2.6433H3.33333C2.41251 2.6433 1.66667 3.44242 1.66667 4.42903V11.5719C1.66667 12.5585 2.41251 13.3577 3.33333 13.3577H16.6667Z" fill="currentColor"/>
</svg>