<svg width="10" height="9" viewBox="0 0 10 9" fill="none" xmlns="http://www.w3.org/2000/svg">
<path d="M7.3875 0C7.3875 1.13281 6.91563 1.19687 6.2625 1.2875C5.74141 1.35937 5.11562 1.45 4.8875 2.23125H5.3125C5.48672 1.80312 5.85078 1.75156 6.3125 1.6875C6.96719 1.59687 7.7875 1.48125 7.7875 0H7.3875ZM0.8 2.63125C0.358594 2.63125 0 2.98984 0 3.43125V7.43125C0 7.87266 0.358594 8.23125 0.8 8.23125H9.2C9.64141 8.23125 10 7.87266 10 7.43125V3.43125C10 2.98984 9.64141 2.63125 9.2 2.63125H0.8ZM1 3.83125H1.8V4.63125H1V3.83125ZM2.2 3.83125H3V4.63125H2.2V3.83125ZM3.4 3.83125H4.2V4.63125H3.4V3.83125ZM4.6 3.83125H5.4V4.63125H4.6V3.83125ZM5.8 3.83125H6.6V4.63125H5.8V3.83125ZM7 3.83125H7.8V4.63125H7V3.83125ZM8.2 3.83125H9V4.63125H8.2V3.83125ZM1 5.03125H2.4V5.83125H1V5.03125ZM2.8 5.03125H3.6V5.83125H2.8V5.03125ZM4 5.03125H4.8V5.83125H4V5.03125ZM5.2 5.03125H6V5.83125H5.2V5.03125ZM6.4 5.03125H7.2V5.83125H6.4V5.03125ZM7.6 5.03125H9V5.83125H7.6V5.03125ZM1 6.23125H1.8V7.03125H1V6.23125ZM2.2 6.23125H3V7.03125H2.2V6.23125ZM3.4 6.23125H6.6V7.03125H3.4V6.23125ZM7 6.23125H7.8V7.03125H7V6.23125ZM8.2 6.23125H9V7.03125H8.2V6.23125Z" fill="white"/>
</svg>
