<svg width="64" height="64" viewBox="0 0 64 64" fill="none" xmlns="http://www.w3.org/2000/svg">
<path fill-rule="evenodd" clip-rule="evenodd" d="M15 5.49999C9.7533 5.49999 5.5 9.75329 5.5 15V22V23.5H8.5V22V15C8.5 11.4101 11.4102 8.49999 15 8.49999H22H23.5V5.49999H22H15ZM58.5 15C58.5 9.75329 54.2467 5.49999 49 5.49999H42H40.5L40.5 8.49999H42L49 8.49999C52.5899 8.49999 55.5 11.4101 55.5 15V22V23.5H58.5V22V15ZM58.5 49C58.5 54.2467 54.2467 58.5 49 58.5H42H40.5L40.5 55.5H42H49C52.5899 55.5 55.5 52.5898 55.5 49V42V40.5L58.5 40.5V42V49ZM5.5 49C5.5 54.2467 9.7533 58.5 15 58.5H22H23.5V55.5H22H15C11.4102 55.5 8.5 52.5898 8.5 49L8.5 42V40.5L5.5 40.5V42V49Z" fill="url(#paint0_linear_1_4509)"/>
<path fill-rule="evenodd" clip-rule="evenodd" d="M41.2558 24.6279C41.2558 29.2265 38.0319 33.072 33.7209 34.0277V35.9302L37.0698 39.2791L33.7209 42.6279L37.0698 45.9767L32.0465 51L28.6977 47.6512V33.8018C24.8132 32.5621 22 28.9235 22 24.6279C22 19.3106 26.3106 15 31.6279 15C36.9453 15 41.2558 19.3106 41.2558 24.6279ZM34.5581 22.9535C34.5581 24.5718 33.2462 25.8837 31.6279 25.8837C30.0096 25.8837 28.6977 24.5718 28.6977 22.9535C28.6977 21.3352 30.0096 20.0233 31.6279 20.0233C33.2462 20.0233 34.5581 21.3352 34.5581 22.9535Z" fill="url(#paint1_linear_1_4509)"/>
<defs>
<linearGradient id="paint0_linear_1_4509" x1="5.5" y1="4.89772" x2="61.3194" y2="8.05525" gradientUnits="userSpaceOnUse">
<stop stop-color="#2091F6"/>
<stop offset="1" stop-color="#21B568"/>
</linearGradient>
<linearGradient id="paint1_linear_1_4509" x1="22" y1="14.5909" x2="42.3264" y2="15.2059" gradientUnits="userSpaceOnUse">
<stop stop-color="#2091F6"/>
<stop offset="1" stop-color="#21B568"/>
</linearGradient>
</defs>
</svg>
