<svg width="64" height="64" viewBox="0 0 64 64" fill="none" xmlns="http://www.w3.org/2000/svg">
<path fill-rule="evenodd" clip-rule="evenodd" d="M38.6645 25.1057C35.1376 32.798 26.7954 36.7581 18.8513 35.0504L17.3921 38.2329L20.4255 46.4031L12.2553 49.4365L15.2887 57.6067L3.03339 62.1567L0 53.9866L10.6218 30.8199C5.07477 25.767 3.15964 17.5229 6.45418 10.3374C10.5323 1.44279 21.0489 -2.46174 29.9435 1.61642C38.8381 5.69458 42.7427 16.2111 38.6645 25.1057ZM28.7451 17.168C27.5039 19.8751 24.3032 21.0634 21.5962 19.8222C18.8891 18.5811 17.7008 15.3804 18.942 12.6733C20.1831 9.96626 23.3838 8.77793 26.0909 10.0191C28.798 11.2603 29.9863 14.461 28.7451 17.168Z" fill="url(#paint0_linear_36_6481)"/>
<path d="M34.3465 36.0189C38.1547 33.8623 41.344 30.5302 43.3074 26.248C47.3701 17.3871 44.9248 7.20398 37.9681 1.07622C44.8541 0.879139 51.5181 4.73248 54.579 11.3858C58.1157 19.0736 55.6835 27.982 49.2116 32.8952L50.6748 36.0758L58.8489 39.0988L55.8259 47.2728L64 50.2958L59.4656 62.5569L51.2915 59.5339L40.6401 36.3809C38.5136 36.6421 36.3828 36.5093 34.3465 36.0189Z" fill="url(#paint1_linear_36_6481)"/>
<defs>
<linearGradient id="paint0_linear_36_6481" x1="-3.61353e-07" y1="-0.710867" x2="67.3946" y2="3.18938" gradientUnits="userSpaceOnUse">
<stop stop-color="#2091F6"/>
<stop offset="1" stop-color="#21B568"/>
</linearGradient>
<linearGradient id="paint1_linear_36_6481" x1="-3.61353e-07" y1="-0.710867" x2="67.3946" y2="3.18938" gradientUnits="userSpaceOnUse">
<stop stop-color="#2091F6"/>
<stop offset="1" stop-color="#21B568"/>
</linearGradient>
</defs>
</svg>
