<svg width="24" height="23" viewBox="0 0 24 23" fill="none" xmlns="http://www.w3.org/2000/svg">
<path fill-rule="evenodd" clip-rule="evenodd" d="M15.8305 9.32069C14.7657 11.643 12.2472 12.8385 9.84885 12.323L9.40833 13.2838L10.3241 15.7503L7.85753 16.6661L8.77331 19.1327L5.07344 20.5064L4.15766 18.0398L7.36438 11.0458C5.68973 9.52031 5.11156 7.03145 6.10618 4.86214C7.33737 2.17685 10.5123 0.99808 13.1976 2.22927C15.8829 3.46047 17.0616 6.6354 15.8305 9.32069ZM12.8358 6.9243C12.4611 7.74156 11.4948 8.10032 10.6775 7.7256C9.86028 7.35089 9.50152 6.38461 9.87623 5.56735C10.2509 4.75009 11.2172 4.39133 12.0345 4.76604C12.8517 5.14075 13.2105 6.10704 12.8358 6.9243Z" fill="currentColor"/>
<path fill-rule="evenodd" clip-rule="evenodd" d="M14.5269 12.6153C15.6766 11.9642 16.6394 10.9583 17.2321 9.66549C18.4587 6.99039 17.7204 3.9161 15.6202 2.06614C17.6991 2.00664 19.711 3.16996 20.635 5.17861C21.7027 7.49954 20.9685 10.189 19.0146 11.6723L19.4564 12.6325L21.9241 13.5451L21.0115 16.0129L23.4792 16.9255L22.1103 20.6271L19.6425 19.7145L16.4269 12.7246C15.7849 12.8035 15.1416 12.7634 14.5269 12.6153Z" fill="currentColor"/>
</svg>
