<svg width="16" height="16" viewBox="0 0 16 16" fill="none" xmlns="http://www.w3.org/2000/svg">
    <path d="M14.7851 12.2667C14.8768 12.1093 14.9333 11.9285 14.9333 11.7333V3.73332C14.9333 3.14506 14.4549 2.66666 13.8667 2.66666H2.13333C1.54507 2.66666 1.06667 3.14506 1.06667 3.73332V11.7333C1.06667 11.9285 1.1232 12.1093 1.21493 12.2667H0V12.8C0 13.3893 0.477333 13.8667 1.06667 13.8667H14.9333C15.5227 13.8667 16 13.3893 16 12.8V12.2667H14.7851ZM9.6 11.7333C9.6 12.0277 9.36107 12.2667 9.06667 12.2667H7.46667C7.17227 12.2667 6.93333 12.0277 6.93333 11.7333H2.13333V3.73332H13.8667L13.8672 11.7333H9.6Z"
          fill="currentColor"/>
</svg>
