<svg xmlns="http://www.w3.org/2000/svg" width="20" height="13" viewBox="0 0 20 13" fill="none">
    <path
        d="M0 11.3509C0 10.914 0.353675 10.5603 0.783634 10.5603H2.30236V2.3287C2.30236 1.35783 2.87101 0.858521 3.78641 0.858521H16.2136C17.1775 0.858521 17.6976 1.35783 17.6976 2.3287V10.5603H19.2164C19.6463 10.5603 20 10.914 20 11.3509C20 11.7878 19.6463 12.1415 19.2164 12.1415H0.783634C0.353675 12.1415 0 11.7878 0 11.3509ZM3.41886 10.5603H16.5811V2.64077C16.5811 2.19694 16.3592 1.97503 15.9154 1.97503H4.0846C3.64078 1.97503 3.41886 2.19694 3.41886 2.64077V10.5603Z"
        fill="currentColor" />
</svg>