<svg width="11" height="21" viewBox="0 0 11 21" fill="none" xmlns="http://www.w3.org/2000/svg">
<path d="M10.9697 7.20232C10.9167 7.07911 10.8024 7.00003 10.6766 7.00003H6.84278L10.6264 0.537265C10.6895 0.429475 10.6934 0.292975 10.6365 0.18133C10.5795 0.0693165 10.4708 0 10.353 0H5.17659C5.05398 0 4.94202 0.0748947 4.88705 0.193553L0.0341149 10.6936C-0.0160447 10.8017 -0.0105472 10.9305 0.0483325 11.0338C0.107553 11.137 0.211399 11.2 0.323661 11.2H3.6505L0.0253569 20.5142C-0.0364422 20.6735 0.0185704 20.8582 0.154756 20.9486C0.207152 20.9832 0.265388 21 0.323319 21C0.41617 21 0.507731 20.9569 0.57116 20.8758L10.9241 7.57572C11.0053 7.47146 11.0227 7.32586 10.9697 7.20232Z" fill="white"/>
</svg>
