<svg width="20" height="20" viewBox="0 0 20 20" fill="none" xmlns="http://www.w3.org/2000/svg">
<path d="M15.3022 6.85935C15.2475 6.74201 15.1298 6.66669 15.0002 6.66669H11.0502L14.9485 0.511681C15.0135 0.409024 15.0175 0.279024 14.9588 0.172696C14.9002 0.0660158 14.7881 0 14.6668 0H9.33348C9.20715 0 9.0918 0.0713283 9.03516 0.184336L4.03515 10.1844C3.98347 10.2874 3.98913 10.41 4.0498 10.5083C4.11081 10.6067 4.21781 10.6667 4.33347 10.6667H7.76113L4.02613 19.5373C3.96245 19.689 4.01913 19.865 4.15945 19.951C4.21343 19.984 4.27343 20 4.33312 20C4.42878 20 4.52312 19.959 4.58847 19.8817L15.2552 7.21498C15.3388 7.11568 15.3568 6.97701 15.3022 6.85935Z" fill="currentColor"/>
</svg>
