<svg width="15" height="15" viewBox="0 0 15 15" fill="none" xmlns="http://www.w3.org/2000/svg">
<path d="M2.71603 8.61509L3.70474 6.90259L4.92098 7.60478L3.93227 9.31728C3.19083 10.6015 3.63083 12.2436 4.91504 12.985C6.19924 13.7265 7.84135 13.2865 8.58278 12.0023L9.57149 10.2898L10.7877 10.992L9.79902 12.7044C8.66977 14.6604 6.16876 15.3305 4.21284 14.2013C2.25693 13.072 1.58679 10.571 2.71603 8.61509Z" fill="currentColor"/>
<path d="M12.1532 8.62682L13.1416 6.915C14.2708 4.95909 13.6007 2.45807 11.6447 1.32883C9.68883 0.19958 7.18782 0.869728 6.05857 2.82564L5.07025 4.53746L6.28649 5.23965L7.27481 3.52783C8.01624 2.24363 9.65835 1.80362 10.9426 2.54506C12.2268 3.2865 12.6668 4.9286 11.9253 6.2128L10.937 7.92463L12.1532 8.62682Z" fill="currentColor"/>
<path d="M6.0777 11.0158C5.74185 10.8219 5.62678 10.3925 5.82068 10.0566L8.85953 4.79319C9.05343 4.45734 9.48289 4.34226 9.81874 4.53617C10.1546 4.73007 10.2697 5.15953 10.0758 5.49538L7.03692 10.7588C6.84301 11.0947 6.41356 11.2097 6.0777 11.0158Z" fill="currentColor"/>
</svg>
