
<svg width="20" height="20" viewBox="0 0 20 20" fill="none" xmlns="http://www.w3.org/2000/svg">
<g id="Extra icons/Link">
<g id="Subtract">
<path d="M2.55306 11.1926L3.9655 8.74617L5.70298 9.7493L4.29053 12.1957C3.23134 14.0303 3.85991 16.3762 5.69449 17.4354C7.52907 18.4946 9.87494 17.866 10.9341 16.0314L12.3466 13.585L14.084 14.5881L12.6716 17.0345C11.0584 19.8287 7.48552 20.786 4.69136 19.1728C1.8972 17.5596 0.939848 13.9868 2.55306 11.1926Z" fill="currentColor"/>
<path d="M16.0348 11.2094L17.4467 8.76389C19.0599 5.96973 18.1025 2.39685 15.3084 0.783646C12.5142 -0.829562 8.94132 0.127793 7.32811 2.92195L5.91623 5.3674L7.65371 6.37054L9.06559 3.92508C10.1248 2.09051 12.4707 1.46193 14.3052 2.52112C16.1398 3.58032 16.7684 5.92618 15.7092 7.76076L14.2973 10.2062L16.0348 11.2094Z" fill="currentColor"/>
<path d="M7.35544 14.6222C6.87565 14.3452 6.71126 13.7317 6.98827 13.2519L11.3295 5.73274C11.6065 5.25295 12.22 5.08856 12.6998 5.36557C13.1796 5.64257 13.344 6.25608 13.067 6.73587L8.72574 14.2551C8.44874 14.7349 7.83523 14.8992 7.35544 14.6222Z" fill="currentColor"/>
</g>
</g>
</svg>
