<svg width="24" height="24" viewBox="0 0 24 24" fill="none" xmlns="http://www.w3.org/2000/svg">
    <g id="linux">
        <path id="Fill 1" fill-rule="evenodd" clip-rule="evenodd"
              d="M19.5504 17.8306C19.5155 18.5179 19.9733 18.8761 20.5327 19.1033C21.0921 19.3306 21.2556 20.0782 20.3646 20.5685C20.21 20.654 20.0343 20.7483 19.8464 20.8492C18.9586 21.326 17.7995 21.9486 17.3117 22.4613C16.7219 23.0781 15.8016 23.0467 15.3742 22.815C14.9468 22.5878 14.7178 22.0673 14.7178 22.0673C14.7178 22.0673 13.537 21.7751 12.2897 21.8098C11.0435 21.8401 9.85818 22.1031 9.85818 22.1031C9.85818 22.1031 9.53227 22.947 8.47891 22.815C7.96435 22.7529 7.40051 22.5485 6.8279 22.3409C6.23469 22.1258 5.63206 21.9073 5.06505 21.8401C3.94637 21.7092 2.80057 21.4819 3.02944 20.7343C3.07174 20.5962 3.113 20.4724 3.1509 20.3586C3.3182 19.8566 3.42021 19.5505 3.25844 19.0732C3.06103 18.4867 3.06103 17.9628 3.87986 17.7961C4.70428 17.6382 5.16215 17.4065 5.39108 16.9218C5.62448 16.4316 5.91999 16.3308 5.91999 16.3308C5.91999 16.3308 5.6246 15.6492 6.04748 14.9014C6.23588 14.5733 6.42345 14.0413 6.62402 13.4725C6.88323 12.7374 7.16416 11.9407 7.49666 11.4428C7.78196 11.0186 8.13692 10.5547 8.44212 10.1559C8.7691 9.72856 9.03898 9.37588 9.10492 9.22657C9.23229 8.94221 9.26841 8.1509 9.20189 7.045C9.19335 6.90214 9.17891 6.73895 9.16317 6.561C9.05642 5.35439 8.88966 3.4694 10.0917 2.64606C11.471 1.70147 14.0299 1.57044 15.0168 3.78668C15.4951 4.85925 15.5253 5.81875 15.5529 6.69361C15.5823 7.6237 15.6086 8.45812 16.1671 9.23101C17.2509 10.7264 18.6606 12.7154 19.088 13.9522C19.5155 15.1947 19.0565 16.6945 19.0565 16.6945C19.0565 16.6945 19.5808 17.149 19.5504 17.8306ZM12.8492 4.73139C13.413 4.73139 13.8675 5.28656 13.8675 5.96932C13.8675 6.45404 13.6385 6.87374 13.3036 7.07522C13.2596 7.05713 13.2146 7.03784 13.1679 7.01781L13.1678 7.01777C13.1249 6.99937 13.0805 6.98034 13.0341 6.96106C13.2371 6.86144 13.378 6.60737 13.378 6.31408C13.378 5.93016 13.14 5.61457 12.8412 5.61457C12.5502 5.61457 12.3077 5.93022 12.3077 6.31408C12.3077 6.45398 12.3427 6.59394 12.4002 6.70361C12.2243 6.63316 12.0653 6.5727 11.9379 6.52449C11.8714 6.35774 11.8319 6.16974 11.8319 5.96932C11.8319 5.28656 12.2853 4.73139 12.8492 4.73139ZM10.2373 4.92843C10.6815 4.92843 11.0436 5.45337 11.0436 6.10035C11.0436 6.21783 11.0301 6.32757 11.0086 6.43724C10.8981 6.47196 10.7876 6.52905 10.6815 6.62086L10.6534 6.64443C10.6121 6.67898 10.5731 6.71161 10.5372 6.74727C10.6071 6.61636 10.6342 6.42831 10.6026 6.23132C10.5417 5.88207 10.3038 5.6235 10.0703 5.65823C9.83571 5.69739 9.69582 6.01754 9.75221 6.37128C9.81425 6.72941 10.0477 6.98791 10.2856 6.94881L10.3039 6.94255L10.3251 6.93532C10.2113 7.04506 10.1052 7.1413 9.99467 7.21968C9.67329 7.07073 9.43536 6.62529 9.43536 6.10035C9.43536 5.44894 9.79172 4.92843 10.2373 4.92843ZM15.1803 16.8513C15.0834 17.3102 15.0834 18.9724 15.0834 18.9724C15.0834 18.9724 14.0649 20.3715 12.4883 20.6032C10.9116 20.8304 10.1222 20.6648 10.1222 20.6648L9.23688 19.6585C9.23688 19.6585 9.92482 19.5577 9.82784 18.8716C9.77863 18.5257 9.23802 18.112 8.67024 17.6776L8.67023 17.6776C8.11914 17.2559 7.54246 16.8146 7.3647 16.3967C7.00381 15.5484 7.29813 14.1145 7.76172 13.3971C7.97485 13.0636 8.15277 12.5461 8.32827 12.0356C8.5298 11.4494 8.72813 10.8725 8.9729 10.5944C9.43536 10.075 9.79166 8.96795 9.62931 8.47885C9.62931 8.47885 10.6161 9.65071 11.3029 9.45828C11.6036 9.37213 12.0683 9.10573 12.5153 8.84948C13.0909 8.51948 13.6371 8.20631 13.766 8.31659C13.995 8.51358 15.9641 12.8117 16.1625 14.1806C16.3611 15.5484 16.0306 16.5938 16.0306 16.5938C16.0306 16.5938 15.2772 16.3968 15.1803 16.8513ZM20.2202 19.925C20.0962 20.0374 19.7464 20.2146 19.3391 20.4211C18.7317 20.7289 17.9965 21.1015 17.6907 21.4204C17.1842 21.9499 16.5188 22.383 16.114 22.2554C15.7046 22.1289 15.3472 21.5737 15.5231 20.7611C15.7046 19.9519 15.858 19.0642 15.8321 18.5572C15.8254 18.4322 15.8143 18.2965 15.8032 18.1614C15.7694 17.7488 15.736 17.3425 15.8321 17.2667C15.9595 17.167 16.1625 17.2151 16.1625 17.2151C16.1625 17.2151 16.0611 18.1766 16.6475 18.4295C17.2329 18.6837 18.0741 18.3299 18.3302 18.0758C18.585 17.8228 18.7655 17.4467 18.7655 17.4467C18.7655 17.4467 19.0214 17.5732 18.9955 17.9751C18.9684 18.3825 19.1715 18.9634 19.5549 19.1649L19.616 19.1967C19.9967 19.3943 20.5079 19.6596 20.2202 19.925ZM8.71238 22.2039C8.71238 22.2039 9.26841 21.8625 9.36878 21.3947C9.47476 20.9268 9.13532 20.4063 8.76537 20.0134C8.4986 19.729 7.9497 18.8171 7.58208 18.2064C7.44629 17.9809 7.33523 17.7964 7.27226 17.6997C7.03427 17.3326 6.45684 16.6812 6.14446 16.8648C5.9934 16.9501 5.89641 17.1488 5.79381 17.359C5.68108 17.5899 5.56156 17.8347 5.35609 17.9583C5.19586 18.0547 4.93076 18.1118 4.66774 18.1684C4.2865 18.2505 3.90965 18.3316 3.86299 18.5303C3.82469 18.6913 3.85806 18.8462 3.89519 19.0186C3.93573 19.2068 3.98076 19.4159 3.9419 19.6765C3.91372 19.8432 3.85932 20.0129 3.80778 20.1737C3.70668 20.4892 3.61658 20.7703 3.75695 20.9268C3.86544 21.0485 4.35997 21.128 4.89628 21.2141C5.38031 21.2918 5.89839 21.3751 6.19744 21.4998L6.28531 21.5364C6.94881 21.8127 8.23703 22.3493 8.71238 22.2039ZM12.4233 7.20566L12.4232 7.20565L12.4232 7.20564C12.084 7.0713 11.6483 6.89873 11.453 6.86487C11.171 6.81335 10.7042 7.20619 10.5237 7.37301C10.3432 7.53415 9.92929 7.84873 9.92929 7.84873C9.79619 8.07583 10.3251 8.50459 10.6071 8.68814C10.6577 8.72045 10.704 8.75172 10.7475 8.78108C10.9465 8.91546 11.0864 9.00988 11.303 8.98143C11.5499 8.94914 12.2853 8.5068 12.6911 8.26275L12.7748 8.21248C12.8939 8.14053 12.99 8.09092 13.067 8.05119C13.2379 7.96296 13.3145 7.92342 13.3386 7.79609C13.3691 7.61702 13.0567 7.4379 12.7748 7.34166C12.6913 7.31185 12.5658 7.26213 12.4233 7.20566Z"
              fill="url(#paint0_linear_235_14975)"/>
    </g>
    <defs>
        <linearGradient id="paint0_linear_235_14975" x1="1.3999" y1="-0.204544" x2="17.6973" y2="0.587329"
                        gradientUnits="userSpaceOnUse">
            <stop stop-color="#2091F6"/>
            <stop offset="1" stop-color="#21B568"/>
        </linearGradient>
        <clipPath id="clip0_217_14042">
            <rect width="18" height="18" fill="white" transform="translate(0.5)"/>
        </clipPath>
    </defs>
</svg>
