<svg xmlns="http://www.w3.org/2000/svg" width="64" height="64" viewBox="0 0 64 64" fill="none">
    <path d="M31.9584 0.354492C18.2336 0.354492 7.10742 11.4807 7.10742 25.2054C7.10742 31.3326 9.33505 36.9323 13.0112 41.2653L31.9584 63.5795L50.9048 41.2646C54.581 36.9323 56.8086 31.3319 56.8086 25.2047C56.8093 11.4807 45.6831 0.354492 31.9584 0.354492ZM31.9584 34.5698C26.3138 34.5698 21.7384 29.9944 21.7384 24.3498C21.7384 18.7052 26.3138 14.1298 31.9584 14.1298C37.6029 14.1298 42.1783 18.7052 42.1783 24.3498C42.1783 29.9944 37.6029 34.5698 31.9584 34.5698Z" fill="url(#paint0_linear_3443_29583)"/>
    <defs>
        <linearGradient id="paint0_linear_3443_29583" x1="7.10742" y1="-0.363967" x2="59.5164" y2="1.96651" gradientUnits="userSpaceOnUse">
            <stop stop-color="#2091F6"/>
            <stop offset="1" stop-color="#21B568"/>
        </linearGradient>
    </defs>
</svg>
