<svg width="20" height="20" viewBox="0 0 20 20" fill="none" xmlns="http://www.w3.org/2000/svg">
    <path fill-rule="evenodd" clip-rule="evenodd" d="M17.143 3.074V6.36l.83.593c.376.268.598.701.598 1.162v8.53c0 .79-.64 1.429-1.428 1.429H2.857c-.789 0-1.428-.64-1.428-1.429v-8.53c0-.46.222-.894.598-1.162L9.17 1.851a1.429 1.429 0 0 1 1.66 0l4.884 3.488V3.074a.714.714 0 0 1 1.429 0ZM8.339.688a2.857 2.857 0 0 1 3.322 0l2.625 1.875V2.36A1.427 1.427 0 0 1 15.714.931h1.429c.789 0 1.428.64 1.428 1.428v3.266l.232.165A2.857 2.857 0 0 1 20 8.116v8.53a2.857 2.857 0 0 1-2.857 2.857H2.857A2.857 2.857 0 0 1 0 16.645v-8.53c0-.922.446-1.788 1.196-2.325L8.34.688ZM4.627 13.544c-.756.456-.117 1.61.717 1.086l2.792-1.745c.552-.349.523-1.173 0-1.502L5.344 9.637c-.834-.524-1.483.62-.717 1.085l2.336 1.406-2.336 1.415Zm4.09 1.076c0 .34.272.62.62.62h3.694c.349 0 .62-.28.62-.62a.62.62 0 0 0-.62-.63H9.338a.62.62 0 0 0-.62.63Z" fill="currentColor"/>
</svg>
