<svg width="250" height="150" viewBox="0 0 250 150" fill="none" xmlns="http://www.w3.org/2000/svg">
<g id="local-port-forwarding">
<g id="local-port-forwarding-termius">
<rect x="2" y="7" width="46" height="46" rx="10" fill="#5A5E73"/>
<path id="logo" fill-rule="evenodd" clip-rule="evenodd" d="M33.233 40.4572C38.0681 40.4572 42 36.5253 42 31.6902C42 29.2828 40.9756 26.941 39.2261 25.2936C39.1884 20.634 35.3879 16.8567 30.7195 16.8567C29.3637 16.8567 28.0436 17.1761 26.8497 17.7874C25.2787 16.3037 23.2029 15.4702 21.0133 15.4702C16.4456 15.4702 12.7089 19.0863 12.5146 23.6069C9.74561 25.1541 8 28.0896 8 31.3002C8 36.1593 11.9512 40.1106 16.8102 40.1106C17.0403 40.1106 17.2706 40.1016 17.5 40.0838C19.1233 42.8145 22.0913 44.5302 25.3031 44.5302C28.375 44.5302 31.2075 42.9867 32.8784 40.45C32.9968 40.4548 33.115 40.4572 33.233 40.4572ZM25.3031 42.2167C22.7009 42.2167 20.3066 40.6986 19.1911 38.3425L18.8136 37.5453L17.945 37.6983C17.5726 37.7638 17.191 37.7971 16.8102 37.7971C13.229 37.7971 10.3135 34.8816 10.3135 31.3002C10.3135 28.744 11.8148 26.4234 14.1465 25.3731L14.8637 25.05L14.8269 24.2642C14.8224 24.1688 14.8202 24.0724 14.8202 23.977C14.8202 20.5631 17.5994 17.7838 21.0133 17.7838C22.8508 17.7838 24.5727 18.5863 25.7557 19.9936L26.4221 20.7862L27.2834 20.2113C28.3052 19.5293 29.4898 19.1703 30.7195 19.1703C34.1335 19.1703 36.9129 21.9496 36.9129 25.3635C36.9129 25.4867 36.9091 25.6111 36.9016 25.7334L36.8655 26.3228L37.3218 26.6978C38.8014 27.9137 39.6865 29.7824 39.6865 31.6902C39.6865 35.2476 36.7904 38.1437 33.233 38.1437C32.9582 38.1437 32.6797 38.1258 32.405 38.0906L31.6202 37.9899L31.2419 38.6849C30.054 40.8669 27.7849 42.2167 25.3031 42.2167ZM29.6976 32.9616L29.7204 32.9519C30.021 32.8226 30.1285 32.7089 30.1285 32.3954V32.0016C30.1285 31.6553 29.929 31.4324 29.6038 31.4324H29.5855L29.5201 31.4467C28.7924 31.7028 28.0767 31.8324 27.3932 31.8324C26.7124 31.8324 26.0409 31.7037 25.3971 31.4498L25.3777 31.4422L25.3048 31.4324C24.9797 31.4324 24.7802 31.6553 24.7802 32.0016V32.3954C24.7802 32.6904 24.8912 32.8248 25.1506 32.9364L25.179 32.9485L25.2074 32.9603C25.9112 33.2613 26.6478 33.4144 27.3944 33.4144C28.1384 33.4144 28.912 33.2622 29.6976 32.9616ZM19.667 29.7235C19.667 29.4061 19.8317 29.2311 20.0525 29.1848L22.1791 28.6265L20.0475 28.067C19.8264 28.0092 19.667 27.8347 19.667 27.5295V26.8591C19.667 26.5661 19.8429 26.4399 20.0441 26.4399C20.1092 26.4399 20.1766 26.4541 20.244 26.4795L24.0394 27.7073C24.3277 27.8034 24.4864 28.035 24.4864 28.3522V28.9007C24.4864 29.2179 24.3279 29.4496 24.0391 29.5458L20.2357 30.7762C20.1714 30.7952 20.1142 30.8045 20.0584 30.8045C19.8201 30.8045 19.667 30.6332 19.667 30.3838V29.7235Z" fill="white"/>
</g>
<g id="local-port-forwarding-firewall">
<g id="wall">
<g id="Group 2">
<rect id="Rectangle" x="108" y="33" width="26" height="10" rx="2.82884" fill="#F24E50"/>
<rect id="Rectangle_2" x="136" y="33" width="8" height="10" rx="2.82884" fill="#F24E50"/>
<rect id="Rectangle_3" x="118" y="44" width="26" height="10" rx="2.82884" fill="#F24E50"/>
<rect id="Rectangle_4" x="108" y="44" width="8" height="10" rx="2.82884" fill="#F24E50"/>
<rect id="Rectangle_5" x="127" y="55" width="17" height="10" rx="2.82884" fill="#F24E50"/>
<rect id="Rectangle_6" x="108" y="55" width="17" height="10" rx="2.82884" fill="#F24E50"/>
</g>
<g id="Group 2.1">
<rect id="Rectangle_7" x="108" width="26" height="10" rx="2.82884" fill="#F24E50"/>
<rect id="Rectangle_8" x="136" width="8" height="10" rx="2.82884" fill="#F24E50"/>
<rect id="Rectangle_9" x="118" y="11" width="26" height="10" rx="2.82884" fill="#F24E50"/>
<rect id="Rectangle_10" x="108" y="11" width="8" height="10" rx="2.82884" fill="#F24E50"/>
<rect id="Rectangle_11" x="126.504" y="22" width="17" height="10" rx="2.82884" fill="#F24E50"/>
<rect id="Rectangle_12" x="108" y="22" width="17" height="10" rx="2.82884" fill="#F24E50"/>
</g>
</g>
<g id="fire">
<path id="Vector" d="M134.293 34.9211C134.293 39.6174 130.64 43.2928 125.999 43.2928C121.359 43.2928 117.707 39.6176 117.707 34.9211C117.707 33.8397 118.138 32.7557 118.848 31.6254C119.523 30.5509 120.408 29.4986 121.321 28.4141C121.371 28.3545 121.421 28.2948 121.471 28.2351C122.418 27.1088 123.388 25.9387 124.056 24.7471C124.544 23.8757 124.897 22.9482 124.948 21.976C125.312 22.1502 125.753 22.4026 126.245 22.7295C127.303 23.4309 128.559 24.4483 129.764 25.6926C132.195 28.2046 134.293 31.5152 134.293 34.9211Z" fill="#DD2C00" stroke="#F7F9FA" stroke-width="1.41442"/>
<path id="Vector_2" d="M131.402 37.3421C131.402 32.7427 126.002 28.2632 126.002 28.2632C126.002 31.9432 120.602 33.6627 120.602 37.3421C120.602 40.3902 122.979 42.7895 126.002 42.7895C129.024 42.7895 131.402 40.3902 131.402 37.3421Z" fill="white"/>
<path id="Vector_3" d="M123 39.4038C123.001 37.3422 126.001 36.1626 126.001 34.3159C126.001 34.3159 129 36.6353 129 39.4038C129 40.932 127.658 42.1722 126 42.1722C124.342 42.1722 122.999 40.9327 123 39.4038Z" fill="#FFC107"/>
</g>
</g>
<g id="local-port-forwarding-target-host">
<rect id="Rectangle_13" x="209.996" y="7" width="38" height="10" rx="2.82884" fill="#5A5E73"/>
<rect id="Rectangle_14" x="212" y="9" width="10" height="3" rx="1.5" fill="#21B568"/>
<rect id="Rectangle_15" x="209.996" y="18" width="38" height="10" rx="2.82884" fill="#5A5E73"/>
<rect id="Rectangle_16" x="209.996" y="29" width="38" height="10" rx="2.82884" fill="#5A5E73"/>
<rect id="Rectangle_17" x="209.996" y="40" width="38" height="10" rx="2.82884" fill="#5A5E73"/>
<g id="Group">
<path id="Union" fill-rule="evenodd" clip-rule="evenodd" d="M229 51C227.895 51 227 51.8954 227 53V54.9961H216C214.895 54.9961 214 55.8915 214 56.9961C214 58.1007 214.895 58.9961 216 58.9961H228.874C228.916 58.9987 228.958 59 229 59C229.042 59 229.084 58.9987 229.126 58.9961H242C243.105 58.9961 244 58.1007 244 56.9961C244 55.8915 243.105 54.9961 242 54.9961H231V53C231 51.8954 230.105 51 229 51Z" fill="#5A5E73"/>
</g>
</g>
<g id="local-port-forwarding-remote-host">
<rect id="Rectangle_18" x="107" y="98" width="38" height="10" rx="2.82884" fill="#5A5E73"/>
<rect id="Rectangle_19" x="109.004" y="100" width="10" height="3" rx="1.5" fill="#2091F6"/>
<rect id="Rectangle_20" x="107" y="109" width="38" height="10" rx="2.82884" fill="#5A5E73"/>
<rect id="Rectangle_21" x="107" y="120" width="38" height="10" rx="2.82884" fill="#5A5E73"/>
<rect id="Rectangle_22" x="107" y="131" width="38" height="10" rx="2.82884" fill="#5A5E73"/>
<g id="Group_2">
<path id="Union_2" fill-rule="evenodd" clip-rule="evenodd" d="M126.004 142C124.899 142 124.004 142.895 124.004 144V145.996H113.004C111.899 145.996 111.004 146.892 111.004 147.996C111.004 149.101 111.899 149.996 113.004 149.996H125.878C125.92 149.999 125.962 150 126.004 150C126.046 150 126.088 149.999 126.13 149.996H139.004C140.108 149.996 141.004 149.101 141.004 147.996C141.004 146.892 140.108 145.996 139.004 145.996H128.004V144C128.004 142.895 127.108 142 126.004 142Z" fill="#5A5E73"/>
</g>
</g>
<line id="local-port-forwarding-line-to-firewall" x1="61.4144" y1="32.5856" x2="94.5856" y2="32.5856" stroke="#F25E61" stroke-width="2.82884" stroke-linecap="round"/>
<g id="local-port-forwarding-line-to-remote-host">
<line id="local-port-forwarding-line-to-remote-host-border" x1="1.41442" y1="-1.41442" x2="56.5856" y2="-1.41442" transform="matrix(0.709377 0.704829 -0.709377 0.704829 49 82.6758)" stroke="#5A5E73" stroke-width="2.82884" stroke-linecap="round" stroke-linejoin="round"/>
<line id="local-port-forwarding-line-to-remote-host-border_2" x1="1.41442" y1="-1.41442" x2="56.5856" y2="-1.41442" transform="matrix(0.709377 0.704829 -0.709377 0.704829 54.7227 77)" stroke="#5A5E73" stroke-width="2.82884" stroke-linecap="round" stroke-linejoin="round"/>
<line id="local-port-forwarding-line-to-remote-host-center" x1="1.41442" y1="-1.41442" x2="56.5856" y2="-1.41442" transform="matrix(0.709377 0.704829 -0.709377 0.704829 51.875 79.8286)" stroke="#21B568" stroke-width="2.82884" stroke-linecap="round" stroke-linejoin="round"/>
</g>
<g id="local-port-forwarding-line-to-target-host">
<line id="local-port-forwarding-line-to-target-host-border" x1="1.41442" y1="-1.41442" x2="56.5856" y2="-1.41442" transform="matrix(-0.707107 0.707107 0.707107 0.707107 201.699 82.6758)" stroke="#5A5E73" stroke-width="2.82884" stroke-linecap="round" stroke-linejoin="round" stroke-dasharray="8 8"/>
<line id="local-port-forwarding-line-to-target-host-border_2" x1="1.41442" y1="-1.41442" x2="56.5856" y2="-1.41442" transform="matrix(-0.707107 0.707107 0.707107 0.707107 196.012 77)" stroke="#5A5E73" stroke-width="2.82884" stroke-linecap="round" stroke-linejoin="round" stroke-dasharray="8 8"/>
<line id="local-port-forwarding-line-to-target-host-center" x1="1.41442" y1="-1.41442" x2="56.5856" y2="-1.41442" transform="matrix(0.707107 -0.707107 -0.707107 -0.707107 155.828 118.841)" stroke="#21B568" stroke-width="2.82884" stroke-linecap="round" stroke-linejoin="round"/>
</g>
</g>
</svg>
