<svg width="540" height="600" viewBox="0 0 540 600" fill="none" xmlns="http://www.w3.org/2000/svg">
<g clip-path="url(#clip0_2889_5561)">
<g filter="url(#filter0_f_2889_5561)">
<ellipse cx="270.5" cy="300" rx="242" ry="138.5" transform="rotate(90 270.5 300)" fill="url(#paint0_radial_2889_5561)" fill-opacity="0.6"/>
</g>
<mask id="path-2-inside-1_2889_5561" fill="white">
<path d="M369.899 264.886C369.899 293.172 346.898 316.173 318.612 316.173C317.922 316.173 317.23 316.159 316.538 316.131C306.763 330.97 290.193 340 272.222 340C253.433 340 236.071 329.963 226.575 313.989C225.233 314.093 223.886 314.145 222.539 314.145C194.114 314.145 171 291.03 171 262.605C171 243.823 181.212 226.65 197.41 217.599C198.547 191.154 220.407 170 247.127 170C259.936 170 272.08 174.876 281.27 183.556C288.255 179.98 295.977 178.111 303.908 178.111C331.218 178.111 353.451 200.208 353.672 227.466C363.906 237.104 369.899 250.803 369.899 264.886Z"/>
</mask>
<path d="M369.899 264.886C369.899 293.172 346.898 316.173 318.612 316.173C317.922 316.173 317.23 316.159 316.538 316.131C306.763 330.97 290.193 340 272.222 340C253.433 340 236.071 329.963 226.575 313.989C225.233 314.093 223.886 314.145 222.539 314.145C194.114 314.145 171 291.03 171 262.605C171 243.823 181.212 226.65 197.41 217.599C198.547 191.154 220.407 170 247.127 170C259.936 170 272.08 174.876 281.27 183.556C288.255 179.98 295.977 178.111 303.908 178.111C331.218 178.111 353.451 200.208 353.672 227.466C363.906 237.104 369.899 250.803 369.899 264.886Z" fill="url(#paint1_linear_2889_5561)" fill-opacity="0.6"/>
<path d="M369.899 264.886C369.899 293.172 346.898 316.173 318.612 316.173C317.922 316.173 317.23 316.159 316.538 316.131C306.763 330.97 290.193 340 272.222 340C253.433 340 236.071 329.963 226.575 313.989C225.233 314.093 223.886 314.145 222.539 314.145C194.114 314.145 171 291.03 171 262.605C171 243.823 181.212 226.65 197.41 217.599C198.547 191.154 220.407 170 247.127 170C259.936 170 272.08 174.876 281.27 183.556C288.255 179.98 295.977 178.111 303.908 178.111C331.218 178.111 353.451 200.208 353.672 227.466C363.906 237.104 369.899 250.803 369.899 264.886Z" fill="url(#paint2_linear_2889_5561)" fill-opacity="0.4"/>
<path d="M369.899 264.886C369.899 293.172 346.898 316.173 318.612 316.173C317.922 316.173 317.23 316.159 316.538 316.131C306.763 330.97 290.193 340 272.222 340C253.433 340 236.071 329.963 226.575 313.989C225.233 314.093 223.886 314.145 222.539 314.145C194.114 314.145 171 291.03 171 262.605C171 243.823 181.212 226.65 197.41 217.599C198.547 191.154 220.407 170 247.127 170C259.936 170 272.08 174.876 281.27 183.556C288.255 179.98 295.977 178.111 303.908 178.111C331.218 178.111 353.451 200.208 353.672 227.466C363.906 237.104 369.899 250.803 369.899 264.886Z" fill="url(#paint3_linear_2889_5561)" fill-opacity="0.4"/>
<path d="M353.672 227.466L352.672 227.475L352.675 227.902L352.986 228.194L353.672 227.466ZM281.27 183.556L280.583 184.283L281.097 184.768L281.726 184.446L281.27 183.556ZM197.41 217.599L197.898 218.472L198.385 218.2L198.409 217.642L197.41 217.599ZM226.575 313.989L227.435 313.478L227.117 312.943L226.497 312.992L226.575 313.989ZM316.538 316.131L316.579 315.132L316.014 315.109L315.703 315.581L316.538 316.131ZM318.612 316.173V317.173C347.45 317.173 370.899 293.724 370.899 264.886H369.899H368.899C368.899 292.619 346.345 315.173 318.612 315.173V316.173ZM369.899 264.886H370.899C370.899 250.524 364.79 236.563 354.357 226.738L353.672 227.466L352.986 228.194C363.022 237.645 368.899 251.082 368.899 264.886H369.899ZM353.672 227.466L354.672 227.458C354.447 199.652 331.768 177.111 303.908 177.111V178.111V179.111C330.669 179.111 352.456 200.765 352.672 227.475L353.672 227.466ZM303.908 178.111V177.111C295.819 177.111 287.94 179.017 280.814 182.666L281.27 183.556L281.726 184.446C288.569 180.942 296.135 179.111 303.908 179.111V178.111ZM281.27 183.556L281.957 182.829C272.582 173.974 260.193 169 247.127 169V170V171C259.68 171 271.578 175.777 280.583 184.283L281.27 183.556ZM247.127 170V169C219.869 169 197.571 190.579 196.411 217.556L197.41 217.599L198.409 217.642C199.523 191.73 220.945 171 247.127 171V170ZM197.41 217.599L196.922 216.726C180.41 225.953 170 243.458 170 262.605H171H172C172 244.188 182.014 227.348 197.898 218.472L197.41 217.599ZM171 262.605H170C170 291.583 193.562 315.145 222.539 315.145V314.145V313.145C194.667 313.145 172 290.478 172 262.605H171ZM222.539 314.145V315.145C223.912 315.145 225.285 315.092 226.653 314.986L226.575 313.989L226.497 312.992C225.181 313.094 223.86 313.145 222.539 313.145V314.145ZM226.575 313.989L225.715 314.499C235.39 330.774 253.077 341 272.222 341V340V339C253.79 339 236.752 329.152 227.435 313.478L226.575 313.989ZM272.222 340V341C290.531 341 307.414 331.8 317.373 316.681L316.538 316.131L315.703 315.581C306.112 330.141 289.855 339 272.222 339V340ZM316.538 316.131L316.497 317.13C317.203 317.159 317.909 317.173 318.612 317.173V316.173V315.173C317.936 315.173 317.257 315.159 316.579 315.132L316.538 316.131Z" fill="url(#paint4_linear_2889_5561)" fill-opacity="0.7" mask="url(#path-2-inside-1_2889_5561)"/>
<path fill-rule="evenodd" clip-rule="evenodd" d="M284.549 252.35H254.449V271.7C254.449 274.075 256.374 276 258.749 276H280.249C282.624 276 284.549 274.075 284.549 271.7V252.35ZM272.571 261.871C272.571 263.008 271.953 264.001 271.035 264.532V268.014C271.035 268.862 270.347 269.55 269.499 269.55C268.651 269.55 267.963 268.862 267.963 268.014V264.532C267.045 264.001 266.428 263.008 266.428 261.871C266.428 260.175 267.803 258.8 269.499 258.8C271.195 258.8 272.571 260.175 272.571 261.871Z" fill="#A2CEF5"/>
<path fill-rule="evenodd" clip-rule="evenodd" d="M258.749 243.75C258.749 237.813 263.562 233 269.499 233C275.436 233 280.249 237.813 280.249 243.75V248.05H275.949V243.75C275.949 240.188 273.061 237.3 269.499 237.3C265.937 237.3 263.049 240.188 263.049 243.75V248.05H258.749V243.75Z" fill="#A2CEF5"/>
<path d="M180 401C180 395.399 180 392.599 181.09 390.46C182.049 388.578 183.578 387.049 185.46 386.09C187.599 385 190.399 385 196 385H344C349.601 385 352.401 385 354.54 386.09C356.422 387.049 357.951 388.578 358.91 390.46C360 392.599 360 395.399 360 401V413C360 418.601 360 421.401 358.91 423.54C357.951 425.422 356.422 426.951 354.54 427.91C352.401 429 349.601 429 344 429H196C190.399 429 187.599 429 185.46 427.91C183.578 426.951 182.049 425.422 181.09 423.54C180 421.401 180 418.601 180 413V401Z" fill="url(#paint5_linear_2889_5561)" fill-opacity="0.6"/>
<path d="M180 401C180 395.399 180 392.599 181.09 390.46C182.049 388.578 183.578 387.049 185.46 386.09C187.599 385 190.399 385 196 385H344C349.601 385 352.401 385 354.54 386.09C356.422 387.049 357.951 388.578 358.91 390.46C360 392.599 360 395.399 360 401V413C360 418.601 360 421.401 358.91 423.54C357.951 425.422 356.422 426.951 354.54 427.91C352.401 429 349.601 429 344 429H196C190.399 429 187.599 429 185.46 427.91C183.578 426.951 182.049 425.422 181.09 423.54C180 421.401 180 418.601 180 413V401Z" fill="url(#paint6_linear_2889_5561)" fill-opacity="0.4"/>
<path d="M215.556 399.299C216.125 396.671 219.875 396.671 220.444 399.299L221.137 402.507L224.353 402.178C227.036 401.904 228.192 405.485 225.856 406.831L223.076 408.433L224.394 411.39C225.491 413.849 222.459 416.065 220.449 414.275L218 412.095L215.551 414.275C213.541 416.065 210.509 413.849 211.606 411.39L212.924 408.433L210.144 406.831C207.808 405.485 208.964 401.904 211.647 402.178L214.863 402.507L215.556 399.299Z" fill="#7DAFDB" fill-opacity="0.7"/>
<path d="M241.556 399.299C242.125 396.671 245.875 396.671 246.444 399.299L247.137 402.507L250.353 402.178C253.036 401.904 254.192 405.485 251.856 406.831L249.076 408.433L250.394 411.39C251.491 413.849 248.459 416.065 246.449 414.275L244 412.095L241.551 414.275C239.541 416.065 236.509 413.849 237.606 411.39L238.924 408.433L236.144 406.831C233.808 405.485 234.964 401.904 237.647 402.178L240.863 402.507L241.556 399.299Z" fill="#7DAFDB" fill-opacity="0.7"/>
<path d="M267.556 399.299C268.125 396.671 271.875 396.671 272.444 399.299L273.137 402.507L276.353 402.178C279.036 401.904 280.192 405.485 277.856 406.831L275.076 408.433L276.394 411.39C277.491 413.849 274.459 416.065 272.449 414.275L270 412.095L267.551 414.275C265.541 416.065 262.509 413.849 263.606 411.39L264.924 408.433L262.144 406.831C259.808 405.485 260.964 401.904 263.647 402.178L266.863 402.507L267.556 399.299Z" fill="#7DAFDB" fill-opacity="0.7"/>
<path d="M293.556 399.299C294.125 396.671 297.875 396.671 298.444 399.299L299.137 402.507L302.353 402.178C305.036 401.904 306.192 405.485 303.856 406.831L301.076 408.433L302.394 411.39C303.491 413.849 300.459 416.065 298.449 414.275L296 412.095L293.551 414.275C291.541 416.065 288.509 413.849 289.606 411.39L290.924 408.433L288.144 406.831C285.808 405.485 286.964 401.904 289.647 402.178L292.863 402.507L293.556 399.299Z" fill="#7DAFDB" fill-opacity="0.7"/>
<path d="M319.556 399.299C320.125 396.671 323.875 396.671 324.444 399.299L325.137 402.507L328.353 402.178C331.036 401.904 332.192 405.485 329.856 406.831L327.076 408.433L328.394 411.39C329.491 413.849 326.459 416.065 324.449 414.275L322 412.095L319.551 414.275C317.541 416.065 314.509 413.849 315.606 411.39L316.924 408.433L314.144 406.831C311.808 405.485 312.964 401.904 315.647 402.178L318.863 402.507L319.556 399.299Z" fill="#7DAFDB" fill-opacity="0.7"/>
</g>
<defs>
<filter id="filter0_f_2889_5561" x="28" y="-46" width="485" height="692" filterUnits="userSpaceOnUse" color-interpolation-filters="sRGB">
<feFlood flood-opacity="0" result="BackgroundImageFix"/>
<feBlend mode="normal" in="SourceGraphic" in2="BackgroundImageFix" result="shape"/>
<feGaussianBlur stdDeviation="52" result="effect1_foregroundBlur_2889_5561"/>
</filter>
<radialGradient id="paint0_radial_2889_5561" cx="0" cy="0" r="1" gradientUnits="userSpaceOnUse" gradientTransform="translate(270.5 300.208) rotate(-90) scale(213.686 220.688)">
<stop offset="0.0109635" stop-color="#0D6D75"/>
<stop offset="0.533542" stop-color="#1E6DB5" stop-opacity="0.45"/>
<stop offset="1" stop-color="#264E72" stop-opacity="0"/>
</radialGradient>
<linearGradient id="paint1_linear_2889_5561" x1="171" y1="192.101" x2="281.62" y2="308.186" gradientUnits="userSpaceOnUse">
<stop stop-color="#4D6EA9" stop-opacity="0.4"/>
<stop offset="1" stop-color="#0C1A38" stop-opacity="0"/>
</linearGradient>
<linearGradient id="paint2_linear_2889_5561" x1="123.762" y1="170" x2="366.125" y2="416.414" gradientUnits="userSpaceOnUse">
<stop stop-color="#060A1D" stop-opacity="0"/>
<stop offset="0.0602431" stop-color="#4797F8" stop-opacity="0.7"/>
<stop offset="1" stop-color="#060A1D" stop-opacity="0"/>
</linearGradient>
<linearGradient id="paint3_linear_2889_5561" x1="123.762" y1="170" x2="366.125" y2="416.414" gradientUnits="userSpaceOnUse">
<stop offset="0.384615" stop-color="#060A1D" stop-opacity="0"/>
<stop offset="0.939757" stop-color="#4797F8" stop-opacity="0.7"/>
<stop offset="1" stop-color="#060A1D" stop-opacity="0"/>
</linearGradient>
<linearGradient id="paint4_linear_2889_5561" x1="270.449" y1="170" x2="260.513" y2="333.727" gradientUnits="userSpaceOnUse">
<stop stop-color="#346292"/>
<stop offset="1" stop-color="#1A2F54"/>
</linearGradient>
<linearGradient id="paint5_linear_2889_5561" x1="180" y1="390.72" x2="194.544" y2="444.085" gradientUnits="userSpaceOnUse">
<stop stop-color="#4D6EA9" stop-opacity="0.4"/>
<stop offset="1" stop-color="#0C1A38" stop-opacity="0"/>
</linearGradient>
<linearGradient id="paint6_linear_2889_5561" x1="137.25" y1="385" x2="169.958" y2="501.275" gradientUnits="userSpaceOnUse">
<stop stop-color="#060A1D" stop-opacity="0"/>
<stop offset="0.00423948" stop-color="#4797F8" stop-opacity="0.7"/>
<stop offset="1" stop-color="#060A1D" stop-opacity="0"/>
</linearGradient>
<clipPath id="clip0_2889_5561">
<rect width="540" height="600" fill="white"/>
</clipPath>
</defs>
</svg>
