<svg width="14" height="14" viewBox="0 0 14 14" fill="none" xmlns="http://www.w3.org/2000/svg">
<path d="M4.39804 13C3.93837 13 3.59045 12.8777 3.35429 12.6331C3.11813 12.3885 3.00005 12.0153 3.00005 11.5134V7.22457C3.00005 6.73115 3.11813 6.36215 3.35429 6.11755C3.59045 5.86874 3.93837 5.74433 4.39804 5.74433H10.0596C10.5235 5.74433 10.8735 5.86874 11.1097 6.11755C11.3459 6.36215 11.4639 6.73115 11.4639 7.22457V11.5134C11.4639 12.0153 11.3459 12.3885 11.1097 12.6331C10.8735 12.8777 10.5235 13 10.0596 13H4.39804ZM4.63842 11.855H9.83189C9.9584 11.855 10.0533 11.8171 10.1165 11.7412C10.1798 11.6695 10.2114 11.564 10.2114 11.4249V7.31313C10.2114 7.17396 10.1798 7.07064 10.1165 7.00316C10.0533 6.93147 9.9584 6.89562 9.83189 6.89562H4.63842C4.51191 6.89562 4.41491 6.93147 4.34744 7.00316C4.28418 7.07064 4.25255 7.17396 4.25255 7.31313V11.4249C4.25255 11.564 4.28418 11.6695 4.34744 11.7412C4.41491 11.8171 4.51191 11.855 4.63842 11.855ZM4.11971 6.26305V4.35266C4.11971 3.62309 4.26309 3.00949 4.54986 2.51186C4.83663 2.01423 5.21618 1.6389 5.6885 1.38587C6.16504 1.12862 6.67954 1 7.23199 1C7.78444 1 8.29683 1.12862 8.76915 1.38587C9.2457 1.6389 9.62735 2.01423 9.91412 2.51186C10.2051 3.00949 10.3506 3.62309 10.3506 4.35266V6.26305H9.15503V4.25145C9.15503 3.80443 9.06647 3.42488 8.88934 3.11281C8.71644 2.79652 8.48449 2.55825 8.19351 2.398C7.90252 2.23353 7.58202 2.15129 7.23199 2.15129C6.88196 2.15129 6.56146 2.23353 6.27047 2.398C5.97949 2.55825 5.74543 2.79652 5.56831 3.11281C5.39541 3.42488 5.30895 3.80443 5.30895 4.25145V6.26305H4.11971Z" fill="currentColor"/>
</svg>
