<svg width="21" height="22" viewBox="0 0 21 22" fill="currentColor" xmlns="http://www.w3.org/2000/svg">
<path fill-rule="evenodd" clip-rule="evenodd" d="M14 2H7C6.44772 2 6 2.44772 6 3V6.38568H15V3C15 2.44772 14.5523 2 14 2ZM4 3V6.38568H2C0.895431 6.38568 0 7.28111 0 8.38568V20C0 21.1046 0.89543 22 2 22H19C20.1046 22 21 21.1046 21 20V8.38568C21 7.28111 20.1046 6.38568 19 6.38568H17V3C17 1.34315 15.6569 0 14 0H7C5.34315 0 4 1.34315 4 3ZM13 13.5C13 14.3179 12.6072 15.0441 12 15.5002V17.1364C12 17.9648 11.3284 18.6364 10.5 18.6364C9.67157 18.6364 8.99999 17.9648 8.99999 17.1364V15.5002C8.39277 15.0441 8 14.3179 8 13.5C8 12.1193 9.11929 11 10.5 11C11.8807 11 13 12.1193 13 13.5Z"/>
</svg>
