<svg width="20" height="16" viewBox="0 0 20 16" fill="none" xmlns="http://www.w3.org/2000/svg">
<path d="M6.92593 7.84897C6.93216 8.20584 7.23616 8.49941 7.58474 8.49333L16.1083 8.34455L17.3524 8.27302L16.773 8.84767L15.4503 10.1244C15.3196 10.2429 15.2562 10.4183 15.259 10.576C15.2651 10.9246 15.5185 11.1775 15.8588 11.1716C16.0331 11.1686 16.1647 11.0998 16.2871 10.9732L18.9437 8.12071C19.1068 7.95182 19.1623 7.80142 19.1594 7.63543C19.1565 7.46944 19.0958 7.32106 18.9269 7.15797L16.1723 4.39996C16.0457 4.27764 15.9116 4.20526 15.7373 4.2083C15.397 4.21424 15.1525 4.47587 15.1584 4.81615C15.1613 4.98215 15.2308 5.15528 15.3656 5.26915L16.7321 6.50721L17.3312 7.06129L16.0853 7.02492L7.5617 7.1737C7.21312 7.17979 6.9197 7.49209 6.92593 7.84897ZM0.344254 3.19848L0.510418 12.718C0.540695 14.4526 1.41906 15.309 3.12876 15.2792L11.4117 15.1346C13.1214 15.1047 13.9693 14.2182 13.939 12.4836L13.8986 10.1681L12.5624 10.1914L12.6024 12.482C12.6167 13.3037 12.1768 13.7846 11.3137 13.7997L3.18013 13.9416C2.31698 13.9567 1.86055 13.4915 1.84621 12.6698L1.68077 3.19175C1.66628 2.3618 2.10648 1.8975 2.96963 1.88244L11.1032 1.74046C11.9663 1.7254 12.4225 2.17405 12.4369 3.004L12.4771 5.30297L13.8133 5.27964L13.7729 2.96408C13.7426 1.22948 12.8642 0.373095 11.1545 0.402938L2.87162 0.547517C1.16191 0.57736 0.313976 1.46388 0.344254 3.19848Z" fill="currentColor"/>
</svg>
