<svg width="140" height="140" viewBox="0 0 140 140" fill="none" xmlns="http://www.w3.org/2000/svg">
<circle cx="70" cy="70" r="70" fill="url(#paint0_linear_83_2527)"/>
<path fill-rule="evenodd" clip-rule="evenodd" d="M89.9653 96.2164C101.963 96.4258 111.889 86.8401 112.098 74.843C112.202 68.8698 109.762 63.0148 105.493 58.8514C105.601 47.2883 96.3343 37.7513 84.751 37.5491C81.3868 37.4904 78.0977 38.2257 75.1088 39.6908C71.2751 35.9411 66.1605 33.7832 60.7276 33.6884C49.3941 33.4906 39.9658 42.3012 39.2878 53.5093C32.3503 57.2285 27.8919 64.4365 27.7529 72.4027C27.5424 84.4593 37.1752 94.4347 49.2316 94.6451C49.8025 94.6551 50.3743 94.6428 50.9444 94.6084C54.8538 101.454 62.1437 105.84 70.1129 105.979C77.7351 106.112 84.8302 102.405 89.086 96.1832C89.3794 96.2002 89.6727 96.2113 89.9653 96.2164ZM70.2131 100.239C63.7565 100.126 57.8814 96.2555 55.2156 90.3612L54.3137 88.3668L52.1517 88.7087C51.2248 88.8552 50.2764 88.9212 49.3318 88.9047C40.4458 88.7496 33.3382 81.3892 33.4933 72.5029C33.604 66.1604 37.4295 60.4674 43.2604 57.9625L45.0541 57.1919L44.9967 55.2406C44.9898 55.0036 44.9883 54.7642 44.9925 54.5276C45.1403 46.0568 52.1566 39.281 60.6274 39.4289C65.1866 39.5085 69.4243 41.5745 72.2988 45.1173L73.9179 47.1129L76.0798 45.7238C78.6448 44.0757 81.5995 43.2363 84.6508 43.2896C93.1217 43.4374 99.8976 50.454 99.7498 58.9247C99.7444 59.2304 99.7297 59.5389 99.7058 59.8419L99.5907 61.303L100.707 62.2531C104.325 65.334 106.44 70.0091 106.358 74.7428C106.204 83.5696 98.8924 90.63 90.0655 90.4759C89.3838 90.464 88.6936 90.4077 88.0135 90.3084L86.0705 90.0246L85.1017 91.7326C82.0598 97.0953 76.3712 100.346 70.2131 100.239ZM81.5181 77.4639L81.5749 77.4407C82.3264 77.1328 82.5982 76.8555 82.6118 76.0777L82.6288 75.1005C82.6438 74.2411 82.1583 73.6794 81.3514 73.6654L81.3061 73.6646L81.1432 73.6974C79.3264 74.3012 77.5451 74.5918 75.8491 74.5622C74.1599 74.5327 72.4994 74.1843 70.9129 73.5264L70.8651 73.5068L70.6847 73.4792C69.8779 73.4651 69.3732 74.0095 69.3582 74.8689L69.3411 75.8461C69.3284 76.5779 69.5982 76.9162 70.237 77.2044L70.3068 77.2355L70.3767 77.2661C72.1101 78.0435 73.931 78.4552 75.7835 78.4875C77.6297 78.5198 79.5557 78.1756 81.5181 77.4639ZM56.7679 68.997C56.7816 68.2094 57.1977 67.7825 57.7477 67.677L63.0485 66.384L57.7837 64.9034C57.2377 64.7502 56.8497 64.3105 56.8629 63.5531L56.8919 61.8897C56.9046 61.1627 57.3465 60.8573 57.8458 60.8661C58.0072 60.8689 58.1739 60.9069 58.34 60.9728L67.7041 64.1838C68.4154 64.4348 68.799 65.0161 68.7852 65.8033L68.7615 67.1643C68.7477 67.9512 68.3445 68.5192 67.6239 68.7455L58.1334 71.6336C57.9731 71.6779 57.8306 71.6986 57.6922 71.6962C57.101 71.6858 56.7285 71.2541 56.7393 70.6353L56.7679 68.997Z" fill="white"/>
<defs>
<linearGradient id="paint0_linear_83_2527" x1="70" y1="0" x2="70" y2="140" gradientUnits="userSpaceOnUse">
<stop stop-color="#1C265B"/>
<stop offset="1" stop-color="#060816"/>
</linearGradient>
</defs>
</svg>
