<svg width="195" height="152" viewBox="0 0 195 152" fill="none" xmlns="http://www.w3.org/2000/svg">
<g filter="url(#filter0_f_448_10035)">
<ellipse cx="97.5" cy="129" rx="81" ry="7" fill="#08080C" fill-opacity="0.25"/>
</g>
<g filter="url(#filter1_f_448_10035)">
<ellipse cx="139.5" cy="126.5" rx="11" ry="2" fill="#0C0D13" fill-opacity="0.6"/>
</g>
<g filter="url(#filter2_f_448_10035)">
<ellipse cx="56.5" cy="126.5" rx="11" ry="2" fill="#0C0D13" fill-opacity="0.6"/>
</g>
<g filter="url(#filter3_i_448_10035)">
<path d="M46.5 114L67.5 115.3V116.6C67.5 122.344 62.7438 127 57 127C51.2562 127 46.5 122.344 46.5 116.6V114Z" fill="#292C40"/>
</g>
<g filter="url(#filter4_i_448_10035)">
<path d="M150.75 114L129.75 115.3V116.6C129.75 122.344 134.506 127 140.25 127C145.994 127 150.75 122.344 150.75 116.6V114Z" fill="#292C40"/>
</g>
<rect x="30.5" y="10.5" width="132" height="104" rx="12" fill="url(#paint0_linear_448_10035)"/>
<g filter="url(#filter5_i_448_10035)">
<rect x="30" y="7.5" width="136" height="110" rx="18.5" stroke="url(#paint1_linear_448_10035)" stroke-width="7"/>
</g>
<path d="M100.5 4H134.3C146.621 4 152.782 4 157.488 6.39786C161.627 8.50707 164.993 11.8726 167.102 16.0122C169.5 20.7183 169.5 26.8788 169.5 39.2V85.8C169.5 98.1212 169.5 104.282 167.102 108.988C164.993 113.127 161.627 116.493 157.488 118.602C152.782 121 146.621 121 134.3 121H100.5V4Z" fill="url(#paint2_linear_448_10035)"/>
<path d="M34.5 47.1998C34.5 33.8501 34.5 27.1753 37.0048 21.8898C39.2109 17.2347 42.7501 13.3398 47.1734 10.6994C52.1956 7.70143 58.84 7.06422 72.1287 5.78979L106.209 2.5214C115.323 1.64733 119.88 1.21029 123.401 2.71677C126.494 4.04012 129.052 6.36469 130.664 9.31701C132.5 12.6779 132.5 17.2558 132.5 26.4118V98.5882C132.5 107.744 132.5 112.322 130.664 115.683C129.052 118.635 126.494 120.96 123.401 122.283C119.88 123.79 115.323 123.353 106.209 122.479L72.1286 119.21C58.8399 117.936 52.1956 117.298 47.1734 114.3C42.7501 111.66 39.2109 107.765 37.0048 103.11C34.5 97.8246 34.5 91.1498 34.5 77.8001V47.1998Z" fill="url(#paint3_linear_448_10035)"/>
<path d="M29.5 42.8381C29.5 31.0288 29.5 25.1241 31.7158 20.4485C33.6674 16.3305 36.7982 12.8851 40.7111 10.5493C45.1538 7.89725 51.0315 7.33356 62.7869 6.20618L101.209 2.5214C110.323 1.64733 114.88 1.21029 118.401 2.71677C121.494 4.04012 124.052 6.36469 125.664 9.31701C127.5 12.6779 127.5 17.2558 127.5 26.4118V98.5882C127.5 107.744 127.5 112.322 125.664 115.683C124.052 118.635 121.494 120.96 118.401 122.283C114.88 123.79 110.323 123.353 101.209 122.479L62.7868 118.794C51.0315 117.666 45.1538 117.103 40.7111 114.451C36.7982 112.115 33.6674 108.669 31.7158 104.551C29.5 99.8758 29.5 93.9711 29.5 82.1618V42.8381Z" fill="url(#paint4_linear_448_10035)"/>
<g filter="url(#filter6_i_448_10035)">
<rect x="28.5" y="76" width="3" height="15" rx="1.5" fill="#515675"/>
</g>
<g filter="url(#filter7_i_448_10035)">
<rect x="28.5" y="34" width="3" height="15" rx="1.5" fill="#515675"/>
</g>
<g filter="url(#filter8_i_448_10035)">
<path fill-rule="evenodd" clip-rule="evenodd" d="M46.5 46C44.2909 46 42.5 47.7909 42.5 50V76C42.5 78.2091 44.2909 80 46.5 80C47.6046 80 48.5 79.1046 48.5 78V76C48.5 75.4477 48.04 75.0163 47.5181 74.8356C46.3435 74.4289 45.5 73.313 45.5 72V54C45.5 52.687 46.3435 51.5711 47.5181 51.1644C48.04 50.9837 48.5 50.5523 48.5 50V48C48.5 46.8954 47.6046 46 46.5 46Z" fill="#515675"/>
</g>
<ellipse cx="97" cy="62" rx="20.5" ry="25" fill="url(#paint5_linear_448_10035)"/>
<path fill-rule="evenodd" clip-rule="evenodd" d="M95.5 44.0475C87.7753 44.7219 81.6818 52.5018 81.6818 62C81.6818 71.4982 87.7753 79.2781 95.5 79.9525C95.1398 79.984 94.776 80 94.4091 80C86.175 80 79.5 71.9411 79.5 62C79.5 52.0589 86.175 44 94.4091 44C94.776 44 95.1398 44.016 95.5 44.0475Z" fill="#1C1E2A"/>
<g filter="url(#filter9_i_448_10035)">
<path d="M110 62C110 74.5557 101.771 83.5 93 83.5C84.2287 83.5 76 74.5557 76 62C76 49.4443 84.2287 40.5 93 40.5C101.771 40.5 110 49.4443 110 62Z" stroke="url(#paint6_linear_448_10035)" stroke-width="7"/>
</g>
<path fill-rule="evenodd" clip-rule="evenodd" d="M94.364 50.027C91.7245 50.027 89.4733 51.5273 87.9394 53.6747C86.4036 55.8248 85.4995 58.7201 85.4995 61.8504V62.8094C85.4995 63.6196 86.1564 64.2765 86.9667 64.2765C87.7769 64.2765 88.4338 63.6196 88.4338 62.8094V61.8504C88.4338 59.2611 89.1857 56.9782 90.3272 55.3802C91.4706 53.7793 92.9181 52.9613 94.364 52.9613C95.3928 52.9613 96.4039 53.3688 97.3181 54.1705C97.9273 54.7047 98.8543 54.6439 99.3885 54.0347C99.9227 53.4255 99.862 52.4985 99.2528 51.9643C97.8933 50.7721 96.2159 50.027 94.364 50.027ZM100.111 55.144C100.855 54.8219 101.718 55.1635 102.04 55.907C102.801 57.6636 103.229 59.6984 103.229 61.8528C103.229 63.3829 103.013 64.8511 102.617 66.2013C102.389 66.9788 101.573 67.424 100.796 67.1957C100.018 66.9674 99.5731 66.152 99.8014 65.3746C100.117 64.2983 100.295 63.1088 100.295 61.8528C100.295 60.0812 99.9422 58.4452 99.3479 57.0734C99.0259 56.3299 99.3675 55.466 100.111 55.144ZM90.5563 57.3367C91.4208 56.1264 92.7474 55.2057 94.3655 55.2057C95.9837 55.2057 97.3103 56.1264 98.1748 57.3367C99.0413 58.5498 99.5314 60.1505 99.5314 61.851C99.5314 62.6613 98.8745 63.3181 98.0642 63.3181C97.2539 63.3181 96.5971 62.6613 96.5971 61.851C96.5971 60.6916 96.2592 59.7032 95.787 59.0422C95.3129 58.3784 94.7901 58.14 94.3655 58.14C93.941 58.14 93.4182 58.3784 92.944 59.0422C92.4719 59.7032 92.134 60.6916 92.134 61.851V70.8009C92.134 71.6112 91.4771 72.2681 90.6669 72.2681C89.8566 72.2681 89.1997 71.6112 89.1997 70.8009V61.851C89.1997 60.1505 89.6898 58.5498 90.5563 57.3367ZM98.0643 65.6475C98.8269 65.6475 99.4452 66.2657 99.4452 67.0283V70.7998C99.4452 71.5624 98.8269 72.1806 98.0643 72.1806C97.3017 72.1806 96.6835 71.5624 96.6835 70.7998V67.0283C96.6835 66.2657 97.3017 65.6475 98.0643 65.6475ZM95.8322 62.7138C95.8322 61.9036 95.1754 61.2467 94.3651 61.2467C93.5548 61.2467 92.8979 61.9036 92.8979 62.7138V72.2068C92.8979 73.0171 93.5548 73.6739 94.3651 73.6739C95.1754 73.6739 95.8322 73.0171 95.8322 72.2068V62.7138Z" fill="#1C1E2A"/>
<path fill-rule="evenodd" clip-rule="evenodd" d="M93.1978 50.027C90.533 50.027 88.249 51.5152 86.686 53.6646C85.122 55.8154 84.1997 58.7142 84.1997 61.8504V62.8094C84.1997 63.6196 84.8566 64.2765 85.6669 64.2765C86.4771 64.2765 87.134 63.6196 87.134 62.8094V61.8504C87.134 59.267 87.8976 56.9877 89.0592 55.3903C90.2219 53.7914 91.7033 52.9613 93.1978 52.9613C94.2607 52.9613 95.2991 53.375 96.2325 54.179C96.8464 54.7078 97.7728 54.6388 98.3016 54.0249C98.8304 53.411 98.7614 52.4846 98.1475 51.9558C96.7661 50.7659 95.0676 50.027 93.1978 50.027ZM99.0574 55.1468C99.7989 54.8199 100.665 55.156 100.992 55.8974C101.767 57.6559 102.203 59.6938 102.203 61.8518C102.203 63.3845 101.983 64.855 101.579 66.2071C101.347 66.9834 100.53 67.4247 99.7532 67.1927C98.9769 66.9607 98.5356 66.1432 98.7676 65.3669C99.0887 64.2925 99.2687 63.1053 99.2687 61.8518C99.2687 60.0839 98.9107 58.4509 98.3068 57.0811C97.9799 56.3396 98.316 55.4736 99.0574 55.1468ZM89.3556 57.3256C90.2372 56.1133 91.5798 55.2047 93.2048 55.2047C94.8297 55.2047 96.1724 56.1133 97.0539 57.3256C97.9365 58.5394 98.4374 60.1437 98.4374 61.85C98.4374 62.6603 97.7805 63.3172 96.9702 63.3172C96.16 63.3172 95.5031 62.6603 95.5031 61.85C95.5031 60.6965 95.161 59.7117 94.6808 59.0514C94.1995 58.3895 93.6595 58.139 93.2048 58.139C92.7501 58.139 92.21 58.3895 91.7288 59.0514C91.2486 59.7117 90.9065 60.6965 90.9065 61.85V70.8C90.9065 71.6102 90.2496 72.2671 89.4393 72.2671C88.629 72.2671 87.9722 71.6102 87.9722 70.8V61.85C87.9722 60.1437 88.473 58.5394 89.3556 57.3256ZM96.9696 65.6465C97.7322 65.6465 98.3504 66.2647 98.3504 67.0273V70.7988C98.3504 71.5614 97.7322 72.1796 96.9696 72.1796C96.207 72.1796 95.5887 71.5614 95.5887 70.7988V67.0273C95.5887 66.2647 96.207 65.6465 96.9696 65.6465ZM94.6721 62.7129C94.6721 61.9026 94.0152 61.2457 93.2049 61.2457C92.3947 61.2457 91.7378 61.9026 91.7378 62.7129V72.2058C91.7378 73.0161 92.3947 73.673 93.2049 73.673C94.0152 73.673 94.6721 73.0161 94.6721 72.2058V62.7129Z" fill="#A7ACC5"/>
<g clip-path="url(#clip0_448_10035)">
<path d="M185.581 63.9049C186.491 63.1081 186.491 61.6919 185.581 60.8951L159.317 37.904C158.024 36.7721 156 37.6903 156 39.4089V47C147.1 47 124.5 47 103.5 47L103.5 62.4V77C124.5 77 149 77 156 77V85.3911C156 87.1097 158.024 88.0279 159.317 86.896L185.581 63.9049Z" fill="#686E92"/>
<rect opacity="0.75" x="127.5" y="47" width="15" height="30" fill="url(#paint7_linear_448_10035)"/>
</g>
<defs>
<filter id="filter0_f_448_10035" x="0.5" y="106" width="194" height="46" filterUnits="userSpaceOnUse" color-interpolation-filters="sRGB">
<feFlood flood-opacity="0" result="BackgroundImageFix"/>
<feBlend mode="normal" in="SourceGraphic" in2="BackgroundImageFix" result="shape"/>
<feGaussianBlur stdDeviation="8" result="effect1_foregroundBlur_448_10035"/>
</filter>
<filter id="filter1_f_448_10035" x="121.5" y="117.5" width="36" height="18" filterUnits="userSpaceOnUse" color-interpolation-filters="sRGB">
<feFlood flood-opacity="0" result="BackgroundImageFix"/>
<feBlend mode="normal" in="SourceGraphic" in2="BackgroundImageFix" result="shape"/>
<feGaussianBlur stdDeviation="3.5" result="effect1_foregroundBlur_448_10035"/>
</filter>
<filter id="filter2_f_448_10035" x="38.5" y="117.5" width="36" height="18" filterUnits="userSpaceOnUse" color-interpolation-filters="sRGB">
<feFlood flood-opacity="0" result="BackgroundImageFix"/>
<feBlend mode="normal" in="SourceGraphic" in2="BackgroundImageFix" result="shape"/>
<feGaussianBlur stdDeviation="3.5" result="effect1_foregroundBlur_448_10035"/>
</filter>
<filter id="filter3_i_448_10035" x="46.5" y="114" width="21" height="13" filterUnits="userSpaceOnUse" color-interpolation-filters="sRGB">
<feFlood flood-opacity="0" result="BackgroundImageFix"/>
<feBlend mode="normal" in="SourceGraphic" in2="BackgroundImageFix" result="shape"/>
<feColorMatrix in="SourceAlpha" type="matrix" values="0 0 0 0 0 0 0 0 0 0 0 0 0 0 0 0 0 0 127 0" result="hardAlpha"/>
<feOffset dy="-1"/>
<feComposite in2="hardAlpha" operator="arithmetic" k2="-1" k3="1"/>
<feColorMatrix type="matrix" values="0 0 0 0 0 0 0 0 0 0 0 0 0 0 0 0 0 0 0.17 0"/>
<feBlend mode="normal" in2="shape" result="effect1_innerShadow_448_10035"/>
</filter>
<filter id="filter4_i_448_10035" x="129.75" y="114" width="21" height="13" filterUnits="userSpaceOnUse" color-interpolation-filters="sRGB">
<feFlood flood-opacity="0" result="BackgroundImageFix"/>
<feBlend mode="normal" in="SourceGraphic" in2="BackgroundImageFix" result="shape"/>
<feColorMatrix in="SourceAlpha" type="matrix" values="0 0 0 0 0 0 0 0 0 0 0 0 0 0 0 0 0 0 127 0" result="hardAlpha"/>
<feOffset dy="-1"/>
<feComposite in2="hardAlpha" operator="arithmetic" k2="-1" k3="1"/>
<feColorMatrix type="matrix" values="0 0 0 0 0 0 0 0 0 0 0 0 0 0 0 0 0 0 0.17 0"/>
<feBlend mode="normal" in2="shape" result="effect1_innerShadow_448_10035"/>
</filter>
<filter id="filter5_i_448_10035" x="26.5" y="4" width="143" height="117" filterUnits="userSpaceOnUse" color-interpolation-filters="sRGB">
<feFlood flood-opacity="0" result="BackgroundImageFix"/>
<feBlend mode="normal" in="SourceGraphic" in2="BackgroundImageFix" result="shape"/>
<feColorMatrix in="SourceAlpha" type="matrix" values="0 0 0 0 0 0 0 0 0 0 0 0 0 0 0 0 0 0 127 0" result="hardAlpha"/>
<feOffset dy="1"/>
<feComposite in2="hardAlpha" operator="arithmetic" k2="-1" k3="1"/>
<feColorMatrix type="matrix" values="0 0 0 0 1 0 0 0 0 1 0 0 0 0 1 0 0 0 0.14 0"/>
<feBlend mode="normal" in2="shape" result="effect1_innerShadow_448_10035"/>
</filter>
<filter id="filter6_i_448_10035" x="28.5" y="76" width="3" height="15" filterUnits="userSpaceOnUse" color-interpolation-filters="sRGB">
<feFlood flood-opacity="0" result="BackgroundImageFix"/>
<feBlend mode="normal" in="SourceGraphic" in2="BackgroundImageFix" result="shape"/>
<feColorMatrix in="SourceAlpha" type="matrix" values="0 0 0 0 0 0 0 0 0 0 0 0 0 0 0 0 0 0 127 0" result="hardAlpha"/>
<feOffset dx="0.5"/>
<feComposite in2="hardAlpha" operator="arithmetic" k2="-1" k3="1"/>
<feColorMatrix type="matrix" values="0 0 0 0 0.398177 0 0 0 0 0.414454 0 0 0 0 0.579167 0 0 0 1 0"/>
<feBlend mode="normal" in2="shape" result="effect1_innerShadow_448_10035"/>
</filter>
<filter id="filter7_i_448_10035" x="28.5" y="34" width="3" height="15" filterUnits="userSpaceOnUse" color-interpolation-filters="sRGB">
<feFlood flood-opacity="0" result="BackgroundImageFix"/>
<feBlend mode="normal" in="SourceGraphic" in2="BackgroundImageFix" result="shape"/>
<feColorMatrix in="SourceAlpha" type="matrix" values="0 0 0 0 0 0 0 0 0 0 0 0 0 0 0 0 0 0 127 0" result="hardAlpha"/>
<feOffset dx="0.5"/>
<feComposite in2="hardAlpha" operator="arithmetic" k2="-1" k3="1"/>
<feColorMatrix type="matrix" values="0 0 0 0 0.398177 0 0 0 0 0.414454 0 0 0 0 0.579167 0 0 0 1 0"/>
<feBlend mode="normal" in2="shape" result="effect1_innerShadow_448_10035"/>
</filter>
<filter id="filter8_i_448_10035" x="42.5" y="46" width="6" height="34" filterUnits="userSpaceOnUse" color-interpolation-filters="sRGB">
<feFlood flood-opacity="0" result="BackgroundImageFix"/>
<feBlend mode="normal" in="SourceGraphic" in2="BackgroundImageFix" result="shape"/>
<feColorMatrix in="SourceAlpha" type="matrix" values="0 0 0 0 0 0 0 0 0 0 0 0 0 0 0 0 0 0 127 0" result="hardAlpha"/>
<feOffset dx="1"/>
<feComposite in2="hardAlpha" operator="arithmetic" k2="-1" k3="1"/>
<feColorMatrix type="matrix" values="0 0 0 0 0.501961 0 0 0 0 0.529412 0 0 0 0 0.717647 0 0 0 1 0"/>
<feBlend mode="normal" in2="shape" result="effect1_innerShadow_448_10035"/>
</filter>
<filter id="filter9_i_448_10035" x="72.5" y="37" width="41" height="50" filterUnits="userSpaceOnUse" color-interpolation-filters="sRGB">
<feFlood flood-opacity="0" result="BackgroundImageFix"/>
<feBlend mode="normal" in="SourceGraphic" in2="BackgroundImageFix" result="shape"/>
<feColorMatrix in="SourceAlpha" type="matrix" values="0 0 0 0 0 0 0 0 0 0 0 0 0 0 0 0 0 0 127 0" result="hardAlpha"/>
<feOffset dx="1"/>
<feComposite in2="hardAlpha" operator="arithmetic" k2="-1" k3="1"/>
<feColorMatrix type="matrix" values="0 0 0 0 1 0 0 0 0 1 0 0 0 0 1 0 0 0 0.4 0"/>
<feBlend mode="normal" in2="shape" result="effect1_innerShadow_448_10035"/>
</filter>
<linearGradient id="paint0_linear_448_10035" x1="162.5" y1="62.5" x2="115.709" y2="62.5" gradientUnits="userSpaceOnUse">
<stop stop-color="#282B3D"/>
<stop offset="1" stop-color="#191B26"/>
</linearGradient>
<linearGradient id="paint1_linear_448_10035" x1="98" y1="4" x2="98" y2="121" gradientUnits="userSpaceOnUse">
<stop stop-color="#4A4E71"/>
<stop offset="1" stop-color="#3C405A"/>
</linearGradient>
<linearGradient id="paint2_linear_448_10035" x1="100.5" y1="62" x2="169.5" y2="62" gradientUnits="userSpaceOnUse">
<stop stop-opacity="0.65"/>
<stop offset="1" stop-opacity="0"/>
</linearGradient>
<linearGradient id="paint3_linear_448_10035" x1="132.5" y1="62" x2="104.5" y2="62" gradientUnits="userSpaceOnUse">
<stop stop-color="#282C42"/>
<stop offset="1" stop-color="#404562"/>
</linearGradient>
<linearGradient id="paint4_linear_448_10035" x1="127.5" y1="33" x2="37.5" y2="109.5" gradientUnits="userSpaceOnUse">
<stop stop-color="#545C88"/>
<stop offset="1" stop-color="#68709F"/>
</linearGradient>
<linearGradient id="paint5_linear_448_10035" x1="114" y1="56.5" x2="76.5" y2="56" gradientUnits="userSpaceOnUse">
<stop stop-color="#34384E"/>
<stop offset="1" stop-color="#474B63"/>
</linearGradient>
<linearGradient id="paint6_linear_448_10035" x1="113.5" y1="60.5" x2="72.5" y2="60.5" gradientUnits="userSpaceOnUse">
<stop stop-color="#757CA6"/>
<stop offset="0.96875" stop-color="#8088B8"/>
</linearGradient>
<linearGradient id="paint7_linear_448_10035" x1="132.5" y1="62" x2="141.5" y2="62" gradientUnits="userSpaceOnUse">
<stop stop-color="#181B26"/>
<stop offset="1" stop-color="#181B26" stop-opacity="0"/>
</linearGradient>
<clipPath id="clip0_448_10035">
<rect width="55" height="60" fill="white" transform="translate(132.5 32)"/>
</clipPath>
</defs>
</svg>
