<svg width="14" height="14" viewBox="0 0 14 14" fill="none" xmlns="http://www.w3.org/2000/svg">
<path fill-rule="evenodd" clip-rule="evenodd" d="M2.95177 6.37217C2.94562 6.0608 2.98322 5.78921 3.05646 5.5565L2.23889 4.73582C2.09718 5.02002 2.0133 5.34296 2.00181 5.69217C0.766247 5.91029 0 7.02943 0 8.38367C0 10.035 1.43528 11.4134 3.32431 11.4134H8.89109L7.83051 10.3488H3.32625C2.03186 10.3488 1.07097 9.44133 1.07097 8.38367C1.07097 7.3018 1.73687 6.48869 2.84418 6.48869C2.9228 6.48869 2.95372 6.44768 2.95177 6.37217ZM13.8 8.62527C13.8 7.46851 13.1438 6.44824 12.0739 5.99777C12.0808 3.54296 10.318 1.77271 8.05696 1.77271C6.61507 1.77271 5.53948 2.52247 4.86146 3.50471C4.59193 3.43181 4.31948 3.41317 4.05571 3.4438L5.15543 4.54838C5.18232 4.55543 5.20924 4.56348 5.23614 4.57203C5.30297 4.59278 5.34471 4.57648 5.3791 4.51475C5.91232 3.57077 6.70139 2.83731 8.05015 2.83731C9.76033 2.83731 10.9672 4.19632 11.0533 5.77987C11.0705 6.06504 11.0504 6.38097 11.0249 6.64321C11.0185 6.71872 11.0475 6.75778 11.1182 6.77308C12.1003 6.966 12.729 7.66326 12.729 8.62527C12.729 9.54388 11.9522 10.2871 10.9247 10.3431L11.8235 11.2459C12.9866 10.8627 13.8 9.83801 13.8 8.62527ZM11.7504 12.7331C11.5853 12.9019 11.3141 12.9019 11.1417 12.7331L2.03793 3.59012C1.88167 3.43309 1.8753 3.14172 2.03793 2.97826C2.19959 2.81579 2.47869 2.80395 2.65214 2.97826L11.7504 12.1212C11.923 12.2901 11.9185 12.5671 11.7504 12.7331Z" fill="#8D91A5"/>
</svg>
