<svg width="19" height="16" viewBox="0 0 19 16" fill="none" xmlns="http://www.w3.org/2000/svg">
<path fill-rule="evenodd" clip-rule="evenodd" d="M16.0747 0.357254H9.87042H9.86719H2.92534C1.58805 0.357254 0.5 1.44524 0.5 2.7826V13.2174C0.5 14.5548 1.58805 15.6427 2.92534 15.6427H16.0746C17.412 15.6427 18.5 14.5548 18.5 13.2174V2.7826C18.5001 1.44524 17.4121 0.357254 16.0747 0.357254ZM1.46733 13.2174V2.7826C1.46733 1.97862 2.12143 1.32458 2.92534 1.32458H9.07592L5.69757 7.77561C5.61909 7.92554 5.62463 8.10559 5.71227 8.25037C5.79985 8.39515 5.95681 8.48363 6.12609 8.48363H9.01646V12.0792C8.38512 12.1121 7.76371 12.0587 7.15423 11.9183C5.81732 11.6105 5.03534 10.9758 5.02547 10.9677C4.82053 10.7974 4.51653 10.8247 4.34544 11.0292C4.17397 11.234 4.20099 11.539 4.4058 11.7105C4.44314 11.7417 5.33734 12.4798 6.88157 12.848C7.36982 12.9644 7.95918 13.0506 8.63437 13.0506C8.75883 13.0506 8.88632 13.0475 9.01653 13.0413V14.6753H2.92534C2.12143 14.6754 1.46733 14.0214 1.46733 13.2174ZM17.5327 13.2174C17.5327 14.0214 16.8786 14.6754 16.0747 14.6754H9.98372V12.9379C10.9628 12.7761 12.063 12.4221 13.2534 11.7628C13.4871 11.6334 13.5716 11.3391 13.4422 11.1054C13.3127 10.8718 13.0184 10.7871 12.7847 10.9166C11.8369 11.4415 10.9013 11.7901 9.98366 11.9625V8.00003C9.98366 7.73285 9.76711 7.51637 9.5 7.51637H6.9253L10.168 1.32458H16.0747C16.8787 1.32458 17.5327 1.97868 17.5327 2.7826V13.2174ZM13.0191 3.34497C12.752 3.34497 12.5354 3.56146 12.5354 3.82864V6.01944C12.5354 6.28661 12.752 6.5031 13.0191 6.5031C13.2862 6.5031 13.5027 6.28661 13.5027 6.01944V3.82864C13.5027 3.56146 13.2862 3.34497 13.0191 3.34497ZM5.19983 6.01944C5.19983 6.28661 4.98328 6.5031 4.71617 6.5031C4.44906 6.5031 4.2325 6.28655 4.2325 6.01944V3.82864C4.2325 3.56146 4.44906 3.34497 4.71617 3.34497C4.98328 3.34497 5.19983 3.56146 5.19983 3.82864V6.01944Z" fill="url(#paint0_linear_217_14036)"/>
<defs>
<linearGradient id="paint0_linear_217_14036" x1="0.5" y1="0.183557" x2="19.4342" y2="1.44481" gradientUnits="userSpaceOnUse">
<stop stop-color="#2091F6"/>
<stop offset="1" stop-color="#21B568"/>
</linearGradient>
</defs>
</svg>
