<svg width="155" height="155" viewBox="0 0 155 155" fill="none" xmlns="http://www.w3.org/2000/svg">
<circle cx="77.5" cy="77.5" r="77.5" transform="rotate(90 77.5 77.5)" fill="#27AA35"/>
<circle cx="78" cy="77" r="71" transform="rotate(90 78 77)" fill="#36C84B"/>
<path d="M116.117 114.242C116.118 114.797 115.668 115.247 115.114 115.245L61.4109 115.092C60.5214 115.09 60.0777 114.014 60.7067 113.385L114.257 59.8351C114.886 59.2061 115.961 59.6499 115.964 60.5394L116.117 114.242Z" fill="#0B650D"/>
<path d="M39.7549 39.8862C39.7533 39.3317 40.2032 38.8818 40.7577 38.8833L94.4606 39.0361C95.3502 39.0387 95.7939 40.1142 95.1649 40.7432L41.6148 94.2934C40.9858 94.9223 39.9102 94.4786 39.9077 93.5891L39.7549 39.8862Z" fill="#0B650D"/>
</svg>
