<svg width="14" height="12" viewBox="0 0 14 12" fill="none" xmlns="http://www.w3.org/2000/svg">
<path d="M0.998204 1.71565L7.23082 1.71565C7.59875 1.71565 7.89309 1.42948 7.89309 1.06156C7.89309 0.685457 7.59875 0.399292 7.23082 0.399292L0.998204 0.399292C0.622102 0.399292 0.335937 0.685457 0.335937 1.06156C0.335937 1.42948 0.622102 1.71565 0.998204 1.71565ZM0.998204 6.66221L13.0017 6.66221C13.3697 6.66221 13.664 6.36787 13.664 5.99994C13.664 5.63202 13.3697 5.34585 13.0017 5.34585L0.998204 5.34585C0.622102 5.34585 0.335937 5.63202 0.335937 5.99994C0.335937 6.36787 0.622102 6.66221 0.998204 6.66221ZM0.998204 11.6006L13.0017 11.6006C13.3697 11.6006 13.664 11.3144 13.664 10.9465C13.664 10.5704 13.3697 10.2842 13.0017 10.2842L0.998204 10.2842C0.622102 10.2842 0.335938 10.5704 0.335938 10.9465C0.335938 11.3144 0.622102 11.6006 0.998204 11.6006Z" fill="currentColor"/>
</svg>
