<svg width="14" height="14" viewBox="0 0 14 14" fill="none" xmlns="http://www.w3.org/2000/svg">
<path fill-rule="evenodd" clip-rule="evenodd" d="M0 2C0 1.58579 0.335786 1.25 0.75 1.25H13.25C13.6642 1.25 14 1.58579 14 2C14 2.41421 13.6642 2.75 13.25 2.75H0.75C0.335786 2.75 0 2.41421 0 2ZM0 7C0 6.58579 0.335786 6.25 0.75 6.25H13.25C13.6642 6.25 14 6.58579 14 7C14 7.41421 13.6642 7.75 13.25 7.75H0.75C0.335786 7.75 0 7.41421 0 7ZM0.75 11.25C0.335786 11.25 0 11.5858 0 12C0 12.4142 0.335786 12.75 0.75 12.75H13.25C13.6642 12.75 14 12.4142 14 12C14 11.5858 13.6642 11.25 13.25 11.25H0.75Z" fill="currentColor"/>
</svg>
