<svg width="16" height="4" viewBox="0 0 16 4" fill="none" xmlns="http://www.w3.org/2000/svg">
<path d="M3.51758 2.01514C3.51758 1.09375 2.77051 0.35498 1.83252 0.35498C0.919434 0.35498 0.172363 1.09375 0.172363 2.01514C0.172363 2.93652 0.919434 3.67529 1.83252 3.67529C2.77051 3.67529 3.51758 2.93652 3.51758 2.01514ZM9.66016 2.01514C9.66016 1.09375 8.92139 0.354981 8 0.354981C7.08691 0.354981 6.34814 1.09375 6.34814 2.01514C6.34814 2.93652 7.08691 3.67529 8 3.67529C8.92139 3.67529 9.66016 2.93652 9.66016 2.01514ZM15.8276 2.01514C15.8276 1.09375 15.0889 0.354981 14.1675 0.354981C13.2295 0.354981 12.4907 1.09375 12.4907 2.01514C12.4907 2.93652 13.2295 3.67529 14.1675 3.67529C15.0889 3.67529 15.8276 2.93652 15.8276 2.01514Z" fill="currentColor"/>
</svg>
