<svg width="30" height="30" viewBox="0 0 30 30" fill="none" xmlns="http://www.w3.org/2000/svg">
<path fill-rule="evenodd" clip-rule="evenodd" d="M0 6C0 4.34314 1.34315 3 3 3H14.25C14.6642 3 15 3.33579 15 3.75C15 4.16421 14.6642 4.5 14.25 4.5H3C2.17157 4.5 1.5 5.17157 1.5 6V18C1.5 18.8284 2.17157 19.5 3 19.5H13.5C14.3284 19.5 15 20.1716 15 21V22.0385C15 22.8669 14.3284 23.5385 13.5 23.5385H3C1.34314 23.5385 0 22.1953 0 20.5385V6ZM15 24.8657C15 24.4515 14.6642 24.1157 14.25 24.1157H12.7872C12.1614 24.1157 11.6759 24.6489 11.3961 25.2087L11.1592 25.6824C11.1091 25.7825 11.0069 25.8457 10.895 25.8457C10.2993 25.8457 9.75478 26.1823 9.48838 26.715C9.42303 26.8458 9.51808 26.9995 9.66421 26.9995H14.25C14.6642 26.9995 15 26.6638 15 26.2495V24.8657Z" fill="url(#paint0_linear_2996_272700)"/>
<path fill-rule="evenodd" clip-rule="evenodd" d="M27.975 3H18.525C17.4066 3 16.5 3.87821 16.5 4.96154V25.0385C16.5 26.1218 17.4066 27 18.525 27H27.975C29.0934 27 30 26.1218 30 25.0385V4.96154C30 3.87821 29.0934 3 27.975 3ZM18 5.14286C18 4.78782 18.2612 4.5 18.5833 4.5L19.5 4.5C19.5 5.32843 20.1716 6 21 6H25.5C26.3284 6 27 5.32843 27 4.5L27.9167 4.5C28.2388 4.5 28.5 4.78782 28.5 5.14286V24.8571C28.5 25.2122 28.2388 25.5 27.9167 25.5H18.5833C18.2612 25.5 18 25.2122 18 24.8571V5.14286Z" fill="url(#paint1_linear_2996_272700)"/>
<defs>
<linearGradient id="paint0_linear_2996_272700" x1="-8.46921e-08" y1="2.72728" x2="15.8287" y2="3.2869" gradientUnits="userSpaceOnUse">
<stop stop-color="#2091F6"/>
<stop offset="1" stop-color="#21B568"/>
</linearGradient>
<linearGradient id="paint1_linear_2996_272700" x1="16.5" y1="2.72728" x2="30.7492" y2="3.18067" gradientUnits="userSpaceOnUse">
<stop stop-color="#2091F6"/>
<stop offset="1" stop-color="#21B568"/>
</linearGradient>
</defs>
</svg>
