<svg width="112" height="113" viewBox="0 0 112 113" fill="none" xmlns="http://www.w3.org/2000/svg">
<rect y="0.859581" width="112" height="112" rx="10.742" fill="url(#paint0_linear_174_14553)"/>
<path d="M32.9771 9.04271H36.519V5.50072C34.5629 5.50073 32.9771 7.0865 32.9771 9.04271Z" fill="white"/>
<path d="M40.0615 5.50072H36.5195V9.04271H40.0615V5.50072Z" fill="white"/>
<path d="M40.061 5.50072V9.04271H43.603C43.603 7.08649 42.0172 5.50072 40.061 5.50072Z" fill="white"/>
<path d="M59.542 5.50072C59.9548 5.50072 61.313 5.50072 61.313 5.50072C61.313 5.50072 61.313 6.70629 61.313 7.27172C61.313 7.71309 61.313 9.04271 61.313 9.04271C61.313 9.04271 60.0788 9.04271 59.542 9.04271C58.5636 9.04271 57.771 8.24946 57.771 7.27172C57.771 6.29387 58.5636 5.50072 59.542 5.50072Z" fill="white"/>
<path d="M61.3135 5.50072V9.04271H64.8555C64.8555 7.08649 63.2697 5.50072 61.3135 5.50072Z" fill="white"/>
<path d="M70.168 5.50072C71.1461 5.50072 71.939 6.29363 71.939 7.27172C71.939 8.24985 71.1461 9.04271 70.168 9.04271C69.1899 9.04271 68.397 8.24985 68.397 7.27172C68.397 6.29363 69.1899 5.50072 70.168 5.50072Z" fill="white"/>
<path d="M36.5186 9.04271H32.9766V12.5847H36.5186V9.04271Z" fill="white"/>
<path d="M43.603 12.5847V9.04272H40.061C40.061 10.9989 41.6468 12.5847 43.603 12.5847Z" fill="white"/>
<path d="M45.3745 12.5847C44.9617 12.5847 43.6035 12.5847 43.6035 12.5847C43.6035 12.5847 43.6035 11.3789 43.6035 10.8137C43.6035 10.3722 43.6035 9.0427 43.6035 9.0427C43.6035 9.0427 44.838 9.0427 45.3745 9.0427C46.3526 9.0427 47.1455 9.8356 47.1455 10.8137C47.1455 11.7917 46.3526 12.5847 45.3745 12.5847Z" fill="white"/>
<path d="M64.855 9.04272H61.313V12.5847H64.855V9.04272Z" fill="white"/>
<path d="M73.7104 9.0427C74.6886 9.0427 75.4814 9.83561 75.4814 10.8137C75.4814 11.7918 74.6886 12.5847 73.7104 12.5847C72.7324 12.5847 71.9395 11.7918 71.9395 10.8137C71.9395 9.83561 72.7324 9.0427 73.7104 9.0427Z" fill="white"/>
<path d="M36.519 16.1267V12.5847H32.9771C32.9771 14.5409 34.5628 16.1267 36.519 16.1267Z" fill="white"/>
<path d="M38.2905 16.1267C37.8777 16.1267 36.5195 16.1267 36.5195 16.1267C36.5195 16.1267 36.5195 14.921 36.5195 14.3557C36.5195 13.9142 36.5195 12.5847 36.5195 12.5847C36.5195 12.5847 37.754 12.5847 38.2905 12.5847C39.2686 12.5847 40.0615 13.3776 40.0615 14.3557C40.0615 15.3338 39.2686 16.1267 38.2905 16.1267Z" fill="white"/>
<path d="M48.9155 12.5847C49.8937 12.5847 50.6865 13.3776 50.6865 14.3557C50.6865 15.3338 49.8937 16.1267 48.9155 16.1267C47.9374 16.1267 47.1445 15.3338 47.1445 14.3557C47.1445 13.3776 47.9374 12.5847 48.9155 12.5847Z" fill="white"/>
<path d="M59.542 12.5847C59.9548 12.5847 61.313 12.5847 61.313 12.5847C61.313 12.5847 61.313 13.7903 61.313 14.3557C61.313 14.7971 61.313 16.1267 61.313 16.1267C61.313 16.1267 60.0788 16.1267 59.542 16.1267C58.5636 16.1267 57.771 15.3334 57.771 14.3557C57.771 13.3779 58.5636 12.5847 59.542 12.5847Z" fill="white"/>
<path d="M64.855 12.5847H61.313V16.1267H64.855V12.5847Z" fill="white"/>
<path d="M79.0229 14.3557C79.0229 14.7685 79.0229 16.1267 79.0229 16.1267C79.0229 16.1267 77.8173 16.1267 77.252 16.1266C76.8104 16.1267 75.481 16.1266 75.481 16.1266C75.481 16.1266 75.481 14.8923 75.481 14.3557C75.481 13.3776 76.2739 12.5847 77.2519 12.5847C78.23 12.5847 79.0229 13.3776 79.0229 14.3557Z" fill="white"/>
<path d="M40.061 19.6687H43.603V16.1267C41.6469 16.1267 40.061 17.7125 40.061 19.6687Z" fill="white"/>
<path d="M45.3745 19.6687C44.9617 19.6687 43.6035 19.6687 43.6035 19.6687C43.6035 19.6687 43.6035 18.4629 43.6035 17.8977C43.6035 17.4562 43.6035 16.1267 43.6035 16.1267C43.6035 16.1267 44.838 16.1267 45.3745 16.1267C46.3526 16.1267 47.1455 16.9196 47.1455 17.8977C47.1455 18.8757 46.3526 19.6687 45.3745 19.6687Z" fill="white"/>
<path d="M64.855 16.1267H61.313V19.6687H64.855V16.1267Z" fill="white"/>
<path d="M68.3975 16.1267H64.8555V19.6687H68.3975V16.1267Z" fill="white"/>
<path d="M71.939 16.1267H68.397V19.6687H71.939V16.1267Z" fill="white"/>
<path d="M75.4814 16.1267H71.9395V19.6687H75.4814V16.1267Z" fill="white"/>
<path d="M79.0229 16.1267H75.481V19.6687C77.4371 19.6687 79.0229 18.0829 79.0229 16.1267Z" fill="white"/>
<path d="M34.7476 19.6687C35.7257 19.6687 36.5186 20.4616 36.5186 21.4397C36.5186 22.4178 35.7257 23.2107 34.7476 23.2107C33.7695 23.2107 32.9766 22.4178 32.9766 21.4397C32.9766 20.4616 33.7695 19.6687 34.7476 19.6687Z" fill="white"/>
<path d="M43.6025 19.6687H40.0605V23.2107H43.6025V19.6687Z" fill="white"/>
<path d="M55.9995 19.6687C56.4123 19.6687 57.7705 19.6687 57.7705 19.6687C57.7705 19.6687 57.7705 20.8742 57.7705 21.4397C57.7705 21.881 57.7705 23.2107 57.7705 23.2107C57.7705 23.2107 56.5363 23.2107 55.9995 23.2107C55.0211 23.2107 54.2285 22.4174 54.2285 21.4397C54.2285 20.4618 55.0211 19.6687 55.9995 19.6687Z" fill="white"/>
<path d="M61.313 19.6687H57.771V23.2107H61.313V19.6687Z" fill="white"/>
<path d="M64.855 19.6687H61.313V23.2107H64.855V19.6687Z" fill="white"/>
<path d="M71.939 23.2107V19.6687H68.397C68.397 21.6249 69.9827 23.2107 71.939 23.2107Z" fill="white"/>
<path d="M75.481 19.6687H71.939V23.2107C73.8951 23.2107 75.481 21.6249 75.481 19.6687Z" fill="white"/>
<path d="M43.6025 23.2107H40.0605V26.7527H43.6025V23.2107Z" fill="white"/>
<path d="M45.3745 26.7527C44.9617 26.7527 43.6035 26.7527 43.6035 26.7527C43.6035 26.7527 43.6035 25.5469 43.6035 24.9817C43.6035 24.5402 43.6035 23.2107 43.6035 23.2107C43.6035 23.2107 44.838 23.2107 45.3745 23.2107C46.3526 23.2107 47.1455 24.0036 47.1455 24.9817C47.1455 25.9597 46.3526 26.7527 45.3745 26.7527Z" fill="white"/>
<path d="M61.313 26.7527V23.2107H57.771C57.771 25.1669 59.3568 26.7527 61.313 26.7527Z" fill="white"/>
<path d="M64.855 23.2107H61.313V26.7527H64.855V23.2107Z" fill="white"/>
<path d="M79.0229 24.9817C79.0229 25.3944 79.0229 26.7527 79.0229 26.7527C79.0229 26.7527 77.8173 26.7527 77.252 26.7526C76.8104 26.7527 75.481 26.7526 75.481 26.7526C75.481 26.7526 75.481 25.5183 75.481 24.9816C75.481 24.0036 76.2739 23.2107 77.2519 23.2107C78.23 23.2107 79.0229 24.0036 79.0229 24.9817Z" fill="white"/>
<path d="M34.7476 26.7527C35.7257 26.7527 36.5186 27.5456 36.5186 28.5237C36.5186 29.5018 35.7257 30.2946 34.7476 30.2946C33.7695 30.2946 32.9766 29.5018 32.9766 28.5237C32.9766 27.5456 33.7695 26.7527 34.7476 26.7527Z" fill="white"/>
<path d="M40.0605 28.5237C40.0605 28.1109 40.0605 26.7527 40.0605 26.7527C40.0605 26.7527 41.2662 26.7527 41.8315 26.7527C42.273 26.7527 43.6025 26.7527 43.6025 26.7527C43.6025 26.7527 43.6025 27.9871 43.6025 28.5237C43.6025 29.5017 42.8096 30.2947 41.8315 30.2947C40.8534 30.2947 40.0605 29.5017 40.0605 28.5237Z" fill="white"/>
<path d="M50.6865 28.5237C50.6865 28.9364 50.6865 30.2947 50.6865 30.2947C50.6865 30.2947 49.4809 30.2947 48.9155 30.2946C48.474 30.2947 47.1445 30.2946 47.1445 30.2946C47.1445 30.2946 47.1445 29.0603 47.1445 28.5236C47.1446 27.5456 47.9374 26.7527 48.9155 26.7527C49.8936 26.7527 50.6865 27.5456 50.6865 28.5237Z" fill="white"/>
<path d="M55.9995 26.7527C56.9776 26.7527 57.7705 27.5456 57.7705 28.5236C57.7705 29.5018 56.9776 30.2946 55.9995 30.2946C55.0214 30.2946 54.2285 29.5018 54.2285 28.5236C54.2285 27.5456 55.0214 26.7527 55.9995 26.7527Z" fill="white"/>
<path d="M64.855 26.7527H61.313V30.2947H64.855V26.7527Z" fill="white"/>
<path d="M70.168 26.7527C71.1461 26.7527 71.939 27.5456 71.939 28.5237C71.939 29.5018 71.1461 30.2947 70.168 30.2947C69.1899 30.2947 68.397 29.5018 68.397 28.5237C68.397 27.5456 69.1899 26.7527 70.168 26.7527Z" fill="white"/>
<path d="M79.0229 26.7527H75.481V30.2947H79.0229V26.7527Z" fill="white"/>
<path d="M40.0615 32.0657C40.0615 32.4784 40.0615 33.8367 40.0615 33.8367C40.0615 33.8367 38.8559 33.8367 38.2905 33.8366C37.849 33.8367 36.5195 33.8366 36.5195 33.8366C36.5195 33.8366 36.5195 32.6022 36.5195 32.0656C36.5196 31.0876 37.3124 30.2947 38.2905 30.2947C39.2686 30.2947 40.0615 31.0876 40.0615 32.0657Z" fill="white"/>
<path d="M50.6865 30.2947H47.1445V33.8367H50.6865V30.2947Z" fill="white"/>
<path d="M50.6875 30.2947V33.8367H54.2295C54.2295 31.8804 52.6437 30.2947 50.6875 30.2947Z" fill="white"/>
<path d="M59.542 30.2947C59.9548 30.2947 61.313 30.2947 61.313 30.2947C61.313 30.2947 61.313 31.5002 61.313 32.0657C61.313 32.507 61.313 33.8367 61.313 33.8367C61.313 33.8367 60.0788 33.8367 59.542 33.8367C58.5636 33.8367 57.771 33.0434 57.771 32.0657C57.771 31.0878 58.5636 30.2947 59.542 30.2947Z" fill="white"/>
<path d="M64.8555 30.2946H61.3135V33.8366C63.2697 33.8366 64.8555 32.2508 64.8555 30.2946Z" fill="white"/>
<path d="M75.481 32.0656C75.481 31.6529 75.481 30.2946 75.481 30.2946C75.481 30.2946 76.6867 30.2946 77.252 30.2946C77.6935 30.2946 79.0229 30.2946 79.0229 30.2946C79.0229 30.2946 79.0229 31.5291 79.0229 32.0656C79.0229 33.0437 78.23 33.8366 77.252 33.8366C76.2739 33.8366 75.481 33.0437 75.481 32.0656Z" fill="white"/>
<path d="M8.1831 35.6076C8.1831 36.0204 8.1831 37.3786 8.1831 37.3786C8.1831 37.3786 6.97745 37.3786 6.41211 37.3785C5.97061 37.3786 4.64111 37.3785 4.64111 37.3785C4.64111 37.3785 4.64111 36.1442 4.64111 35.6076C4.64116 34.6295 5.43402 33.8366 6.41207 33.8366C7.39015 33.8366 8.1831 34.6295 8.1831 35.6076Z" fill="white"/>
<path d="M15.2671 37.3786H18.8091V33.8366C16.8529 33.8366 15.2671 35.4224 15.2671 37.3786Z" fill="white"/>
<path d="M22.3506 33.8366H18.8086V37.3786H22.3506V33.8366Z" fill="white"/>
<path d="M25.8931 33.8366H22.3511V37.3786H25.8931V33.8366Z" fill="white"/>
<path d="M29.4351 33.8366H25.8931V37.3786H29.4351V33.8366Z" fill="white"/>
<path d="M32.977 33.8366H29.4351V37.3786H32.977V33.8366Z" fill="white"/>
<path d="M36.5186 33.8366H32.9766V37.3786H36.5186V33.8366Z" fill="white"/>
<path d="M40.0615 33.8366H36.5195V37.3786H40.0615V33.8366Z" fill="white"/>
<path d="M40.061 33.8366V37.3786H43.603C43.603 35.4224 42.0172 33.8366 40.061 33.8366Z" fill="white"/>
<path d="M50.6865 37.3786V33.8366H47.1445C47.1445 35.7928 48.7303 37.3786 50.6865 37.3786Z" fill="white"/>
<path d="M54.2295 33.8366H50.6875V37.3786H54.2295V33.8366Z" fill="white"/>
<path d="M66.6265 33.8366C67.6046 33.8366 68.3975 34.6295 68.3975 35.6076C68.3975 36.5857 67.6046 37.3786 66.6265 37.3786C65.6484 37.3786 64.8555 36.5857 64.8555 35.6076C64.8555 34.6295 65.6484 33.8366 66.6265 33.8366Z" fill="white"/>
<path d="M75.4814 35.6076C75.4814 36.0204 75.4814 37.3786 75.4814 37.3786C75.4814 37.3786 74.2758 37.3786 73.7104 37.3785C73.2689 37.3786 71.9395 37.3785 71.9395 37.3785C71.9395 37.3785 71.9395 36.1442 71.9395 35.6076C71.9395 34.6296 72.7324 33.8366 73.7104 33.8366C74.6885 33.8366 75.4814 34.6296 75.4814 35.6076Z" fill="white"/>
<path d="M82.5649 35.6076C82.5649 36.0204 82.5649 37.3786 82.5649 37.3786C82.5649 37.3786 81.3593 37.3786 80.7939 37.3785C80.3524 37.3786 79.0229 37.3785 79.0229 37.3785C79.0229 37.3785 79.0229 36.1442 79.0229 35.6076C79.023 34.6295 79.8159 33.8366 80.7939 33.8366C81.772 33.8366 82.5649 34.6295 82.5649 35.6076Z" fill="white"/>
<path d="M93.1909 35.6076C93.1909 36.0204 93.1909 37.3786 93.1909 37.3786C93.1909 37.3786 91.9853 37.3786 91.4199 37.3785C90.9784 37.3786 89.6489 37.3785 89.6489 37.3785C89.6489 37.3785 89.6489 36.1442 89.6489 35.6076C89.649 34.6296 90.4418 33.8366 91.4199 33.8366C92.398 33.8366 93.1909 34.6296 93.1909 35.6076Z" fill="white"/>
<path d="M96.7329 37.3786H100.275V33.8366C98.3187 33.8367 96.7329 35.4224 96.7329 37.3786Z" fill="white"/>
<path d="M103.817 33.8366H100.275V37.3786H103.817V33.8366Z" fill="white"/>
<path d="M105.588 37.3786C105.175 37.3786 103.817 37.3786 103.817 37.3786C103.817 37.3786 103.817 36.1729 103.817 35.6076C103.817 35.1661 103.817 33.8367 103.817 33.8367C103.817 33.8367 105.051 33.8367 105.588 33.8367C106.566 33.8367 107.359 34.6296 107.359 35.6076C107.359 36.5857 106.566 37.3786 105.588 37.3786Z" fill="white"/>
<path d="M8.1831 40.9206V37.3786H4.64111C4.64112 39.3348 6.22688 40.9206 8.1831 40.9206Z" fill="white"/>
<path d="M11.7251 37.3786H8.18311V40.9206H11.7251V37.3786Z" fill="white"/>
<path d="M15.2671 37.3786H11.7251V40.9206H15.2671V37.3786Z" fill="white"/>
<path d="M18.8091 37.3786H15.2671V40.9206H18.8091V37.3786Z" fill="white"/>
<path d="M22.3516 37.3786H18.8096V40.9206C20.7658 40.9206 22.3516 39.3348 22.3516 37.3786Z" fill="white"/>
<path d="M32.977 37.3786H29.4351V40.9206H32.977V37.3786Z" fill="white"/>
<path d="M36.519 37.3786H32.9771V40.9206C34.9332 40.9206 36.519 39.3348 36.519 37.3786Z" fill="white"/>
<path d="M40.0605 39.1496C40.0605 38.7368 40.0605 37.3786 40.0605 37.3786C40.0605 37.3786 41.2662 37.3786 41.8315 37.3786C42.273 37.3786 43.6025 37.3786 43.6025 37.3786C43.6025 37.3786 43.6025 38.6131 43.6025 39.1496C43.6025 40.1277 42.8096 40.9206 41.8315 40.9206C40.8534 40.9206 40.0605 40.1277 40.0605 39.1496Z" fill="white"/>
<path d="M54.2295 37.3786H50.6875V40.9206H54.2295V37.3786Z" fill="white"/>
<path d="M64.855 39.1496C64.855 39.5624 64.855 40.9206 64.855 40.9206C64.855 40.9206 63.6493 40.9206 63.084 40.9205C62.6425 40.9206 61.313 40.9205 61.313 40.9205C61.313 40.9205 61.313 39.6862 61.313 39.1496C61.313 38.1716 62.1059 37.3786 63.0839 37.3786C64.062 37.3786 64.855 38.1715 64.855 39.1496Z" fill="white"/>
<path d="M70.168 37.3786C70.5808 37.3786 71.939 37.3786 71.939 37.3786C71.939 37.3786 71.939 38.5842 71.939 39.1496C71.939 39.591 71.939 40.9206 71.939 40.9206C71.939 40.9206 70.7048 40.9206 70.168 40.9206C69.1895 40.9206 68.397 40.1274 68.397 39.1496C68.397 38.1718 69.1895 37.3786 70.168 37.3786Z" fill="white"/>
<path d="M75.481 37.3786H71.939V40.9206C73.8951 40.9206 75.481 39.3348 75.481 37.3786Z" fill="white"/>
<path d="M79.0229 39.1496C79.0229 38.7368 79.0229 37.3786 79.0229 37.3786C79.0229 37.3786 80.2286 37.3786 80.7939 37.3786C81.2354 37.3786 82.5649 37.3786 82.5649 37.3786C82.5649 37.3786 82.5649 38.6131 82.5649 39.1496C82.5649 40.1277 81.772 40.9206 80.7939 40.9206C79.8159 40.9206 79.0229 40.1277 79.0229 39.1496Z" fill="white"/>
<path d="M86.1069 40.9206H89.6489V37.3786C87.6928 37.3786 86.1069 38.9644 86.1069 40.9206Z" fill="white"/>
<path d="M93.1909 37.3786H89.6489V40.9206C91.6051 40.9206 93.1909 39.3348 93.1909 37.3786Z" fill="white"/>
<path d="M100.275 37.3786H96.7329V40.9206H100.275V37.3786Z" fill="white"/>
<path d="M103.817 37.3786H100.275V40.9206C102.231 40.9206 103.817 39.3348 103.817 37.3786Z" fill="white"/>
<path d="M11.7256 44.4626V40.9206H8.18359C8.1836 42.8768 9.76936 44.4626 11.7256 44.4626Z" fill="white"/>
<path d="M15.2671 40.9206H11.7251V44.4626H15.2671V40.9206Z" fill="white"/>
<path d="M18.8091 40.9206H15.2671V44.4626C17.2233 44.4626 18.8091 42.8768 18.8091 40.9206Z" fill="white"/>
<path d="M27.6641 40.9206C28.0768 40.9206 29.4351 40.9206 29.4351 40.9206C29.4351 40.9206 29.4351 42.1262 29.4351 42.6916C29.4351 43.133 29.4351 44.4626 29.4351 44.4626C29.4351 44.4626 28.2009 44.4626 27.6641 44.4626C26.6856 44.4626 25.8931 43.6694 25.8931 42.6916C25.8931 41.7138 26.6856 40.9206 27.6641 40.9206Z" fill="white"/>
<path d="M32.977 40.9206H29.4351V44.4626H32.977V40.9206Z" fill="white"/>
<path d="M38.2905 40.9206C39.2687 40.9206 40.0615 41.7135 40.0615 42.6916C40.0615 43.6697 39.2687 44.4626 38.2905 44.4626C37.3124 44.4626 36.5195 43.6697 36.5195 42.6916C36.5195 41.7135 37.3124 40.9206 38.2905 40.9206Z" fill="white"/>
<path d="M48.9155 40.9206C49.3283 40.9206 50.6865 40.9206 50.6865 40.9206C50.6865 40.9206 50.6865 42.1262 50.6865 42.6916C50.6865 43.133 50.6865 44.4626 50.6865 44.4626C50.6865 44.4626 49.4524 44.4626 48.9155 44.4626C47.9371 44.4626 47.1445 43.6694 47.1445 42.6916C47.1445 41.7138 47.9371 40.9206 48.9155 40.9206Z" fill="white"/>
<path d="M54.2295 40.9206H50.6875V44.4626H54.2295V40.9206Z" fill="white"/>
<path d="M59.542 40.9206C59.9548 40.9206 61.313 40.9206 61.313 40.9206C61.313 40.9206 61.313 42.1262 61.313 42.6916C61.313 43.133 61.313 44.4626 61.313 44.4626C61.313 44.4626 60.0788 44.4626 59.542 44.4626C58.5636 44.4626 57.771 43.6694 57.771 42.6916C57.771 41.7138 58.5636 40.9206 59.542 40.9206Z" fill="white"/>
<path d="M64.855 40.9206H61.313V44.4626H64.855V40.9206Z" fill="white"/>
<path d="M64.8555 40.9206V44.4626H68.3975C68.3975 42.5064 66.8117 40.9206 64.8555 40.9206Z" fill="white"/>
<path d="M79.0229 42.6916C79.0229 43.1044 79.0229 44.4626 79.0229 44.4626C79.0229 44.4626 77.8173 44.4626 77.252 44.4625C76.8104 44.4626 75.481 44.4625 75.481 44.4625C75.481 44.4625 75.481 43.2282 75.481 42.6916C75.481 41.7135 76.2739 40.9206 77.2519 40.9206C78.23 40.9206 79.0229 41.7135 79.0229 42.6916Z" fill="white"/>
<path d="M86.1069 42.6916C86.1069 42.2788 86.1069 40.9206 86.1069 40.9206C86.1069 40.9206 87.3126 40.9206 87.8779 40.9206C88.3194 40.9206 89.6489 40.9206 89.6489 40.9206C89.6489 40.9206 89.6489 42.1551 89.6489 42.6916C89.6489 43.6697 88.856 44.4626 87.8779 44.4626C86.8998 44.4626 86.1069 43.6697 86.1069 42.6916Z" fill="white"/>
<path d="M96.7329 42.6916C96.7329 42.2788 96.7329 40.9206 96.7329 40.9206C96.7329 40.9206 97.9386 40.9206 98.5039 40.9206C98.9454 40.9206 100.275 40.9206 100.275 40.9206C100.275 40.9206 100.275 42.1551 100.275 42.6916C100.275 43.6697 99.4819 44.4626 98.5039 44.4626C97.5258 44.4626 96.7329 43.6697 96.7329 42.6916Z" fill="white"/>
<path d="M20.5796 44.4626C21.5577 44.4626 22.3506 45.2555 22.3506 46.2336C22.3506 47.2117 21.5577 48.0046 20.5796 48.0046C19.6015 48.0046 18.8086 47.2117 18.8086 46.2336C18.8086 45.2555 19.6015 44.4626 20.5796 44.4626Z" fill="white"/>
<path d="M29.4351 46.2336C29.4351 45.8208 29.4351 44.4626 29.4351 44.4626C29.4351 44.4626 30.6408 44.4626 31.2061 44.4626C31.6476 44.4626 32.977 44.4626 32.977 44.4626C32.977 44.4626 32.977 45.6971 32.977 46.2336C32.977 47.2116 32.1841 48.0046 31.2061 48.0046C30.228 48.0046 29.4351 47.2116 29.4351 46.2336Z" fill="white"/>
<path d="M40.061 48.0046H43.603V44.4626C41.6469 44.4626 40.061 46.0484 40.061 48.0046Z" fill="white"/>
<path d="M45.3745 48.0046C44.9617 48.0046 43.6035 48.0046 43.6035 48.0046C43.6035 48.0046 43.6035 46.7989 43.6035 46.2336C43.6035 45.7921 43.6035 44.4626 43.6035 44.4626C43.6035 44.4626 44.838 44.4626 45.3745 44.4626C46.3526 44.4626 47.1455 45.2555 47.1455 46.2336C47.1455 47.2116 46.3526 48.0046 45.3745 48.0046Z" fill="white"/>
<path d="M54.2295 44.4626H50.6875V48.0046H54.2295V44.4626Z" fill="white"/>
<path d="M64.855 44.4626H61.313V48.0046H64.855V44.4626Z" fill="white"/>
<path d="M68.3975 44.4626H64.8555V48.0046H68.3975V44.4626Z" fill="white"/>
<path d="M71.939 44.4626H68.397V48.0046H71.939V44.4626Z" fill="white"/>
<path d="M75.4814 44.4626H71.9395V48.0046H75.4814V44.4626Z" fill="white"/>
<path d="M79.0229 44.4626H75.481V48.0046H79.0229V44.4626Z" fill="white"/>
<path d="M86.1069 46.2336C86.1069 46.6464 86.1069 48.0046 86.1069 48.0046C86.1069 48.0046 84.9013 48.0046 84.3359 48.0045C83.8944 48.0046 82.5649 48.0045 82.5649 48.0045C82.5649 48.0045 82.5649 46.7702 82.5649 46.2336C82.565 45.2555 83.3578 44.4626 84.3359 44.4626C85.314 44.4626 86.1069 45.2555 86.1069 46.2336Z" fill="white"/>
<path d="M94.9619 44.4626C95.94 44.4626 96.7329 45.2555 96.7329 46.2336C96.7329 47.2117 95.94 48.0046 94.9619 48.0046C93.9838 48.0046 93.1909 47.2117 93.1909 46.2336C93.1909 45.2555 93.9838 44.4626 94.9619 44.4626Z" fill="white"/>
<path d="M107.359 46.2336C107.359 46.6464 107.359 48.0046 107.359 48.0046C107.359 48.0046 106.153 48.0046 105.588 48.0045C105.146 48.0046 103.817 48.0045 103.817 48.0045C103.817 48.0045 103.817 46.7702 103.817 46.2336C103.817 45.2555 104.61 44.4626 105.588 44.4626C106.566 44.4626 107.359 45.2555 107.359 46.2336Z" fill="white"/>
<path d="M17.0381 48.0046C18.0162 48.0046 18.8091 48.7975 18.8091 49.7756C18.8091 50.7537 18.0162 51.5466 17.0381 51.5466C16.06 51.5466 15.2671 50.7537 15.2671 49.7756C15.2671 48.7975 16.06 48.0046 17.0381 48.0046Z" fill="white"/>
<path d="M24.1221 48.0046C24.5349 48.0046 25.8931 48.0046 25.8931 48.0046C25.8931 48.0046 25.8931 49.2102 25.8931 49.7756C25.8931 50.217 25.8931 51.5466 25.8931 51.5466C25.8931 51.5466 24.6589 51.5466 24.1221 51.5466C23.1436 51.5466 22.3511 50.7533 22.3511 49.7756C22.3511 48.7978 23.1436 48.0046 24.1221 48.0046Z" fill="white"/>
<path d="M27.6641 51.5466C27.2513 51.5466 25.8931 51.5466 25.8931 51.5466C25.8931 51.5466 25.8931 50.3408 25.8931 49.7756C25.8931 49.3341 25.8931 48.0046 25.8931 48.0046C25.8931 48.0046 27.1275 48.0046 27.6641 48.0046C28.6421 48.0046 29.4351 48.7975 29.4351 49.7756C29.4351 50.7536 28.6421 51.5466 27.6641 51.5466Z" fill="white"/>
<path d="M40.0605 49.7756C40.0605 49.3628 40.0605 48.0046 40.0605 48.0046C40.0605 48.0046 41.2662 48.0046 41.8315 48.0046C42.273 48.0046 43.6025 48.0046 43.6025 48.0046C43.6025 48.0046 43.6025 49.2391 43.6025 49.7756C43.6025 50.7537 42.8096 51.5466 41.8315 51.5466C40.8534 51.5466 40.0605 50.7537 40.0605 49.7756Z" fill="white"/>
<path d="M54.2295 48.0046H50.6875V51.5466H54.2295V48.0046Z" fill="white"/>
<path d="M59.542 48.0046C59.9548 48.0046 61.313 48.0046 61.313 48.0046C61.313 48.0046 61.313 49.2102 61.313 49.7756C61.313 50.217 61.313 51.5466 61.313 51.5466C61.313 51.5466 60.0788 51.5466 59.542 51.5466C58.5636 51.5466 57.771 50.7533 57.771 49.7756C57.771 48.7978 58.5636 48.0046 59.542 48.0046Z" fill="white"/>
<path d="M64.855 48.0046H61.313V51.5466H64.855V48.0046Z" fill="white"/>
<path d="M79.0229 48.0046H75.481V51.5466H79.0229V48.0046Z" fill="white"/>
<path d="M86.1069 48.0046H82.5649V51.5466H86.1069V48.0046Z" fill="white"/>
<path d="M87.8779 51.5466C87.4651 51.5466 86.1069 51.5466 86.1069 51.5466C86.1069 51.5466 86.1069 50.3409 86.1069 49.7756C86.1069 49.3341 86.1069 48.0046 86.1069 48.0046C86.1069 48.0046 87.3414 48.0046 87.8779 48.0046C88.856 48.0046 89.6489 48.7975 89.6489 49.7756C89.6489 50.7537 88.856 51.5466 87.8779 51.5466Z" fill="white"/>
<path d="M107.359 48.0046H103.817V51.5466H107.359V48.0046Z" fill="white"/>
<path d="M6.41211 51.5466C6.82489 51.5466 8.1831 51.5466 8.1831 51.5466C8.1831 51.5466 8.1831 52.7522 8.1831 53.3176C8.1831 53.759 8.1831 55.0886 8.1831 55.0886C8.1831 55.0886 6.94894 55.0886 6.41211 55.0886C5.43368 55.0886 4.64111 54.2953 4.64111 53.3176C4.64111 52.3397 5.43368 51.5466 6.41211 51.5466Z" fill="white"/>
<path d="M11.7251 51.5466H8.18311V55.0886H11.7251V51.5466Z" fill="white"/>
<path d="M11.7251 51.5466V55.0886H15.2671C15.2671 53.1324 13.6813 51.5466 11.7251 51.5466Z" fill="white"/>
<path d="M34.7476 51.5466C35.1603 51.5466 36.5186 51.5466 36.5186 51.5466C36.5186 51.5466 36.5186 52.7522 36.5186 53.3176C36.5186 53.759 36.5186 55.0886 36.5186 55.0886C36.5186 55.0886 35.2844 55.0886 34.7476 55.0886C33.7691 55.0886 32.9766 54.2953 32.9766 53.3176C32.9766 52.3397 33.7691 51.5466 34.7476 51.5466Z" fill="white"/>
<path d="M38.2905 55.0886C37.8777 55.0886 36.5195 55.0886 36.5195 55.0886C36.5195 55.0886 36.5195 53.8829 36.5195 53.3176C36.5195 52.8761 36.5195 51.5467 36.5195 51.5467C36.5195 51.5467 37.754 51.5467 38.2905 51.5467C39.2686 51.5467 40.0615 52.3396 40.0615 53.3176C40.0615 54.2957 39.2686 55.0886 38.2905 55.0886Z" fill="white"/>
<path d="M45.3745 51.5466C46.3526 51.5466 47.1455 52.3395 47.1455 53.3176C47.1455 54.2957 46.3526 55.0886 45.3745 55.0886C44.3964 55.0886 43.6035 54.2957 43.6035 53.3176C43.6035 52.3395 44.3964 51.5466 45.3745 51.5466Z" fill="white"/>
<path d="M54.2295 51.5466H50.6875V55.0886H54.2295V51.5466Z" fill="white"/>
<path d="M55.9995 55.0886C55.5867 55.0886 54.2285 55.0886 54.2285 55.0886C54.2285 55.0886 54.2285 53.8829 54.2285 53.3176C54.2285 52.8761 54.2285 51.5466 54.2285 51.5466C54.2285 51.5466 55.463 51.5466 55.9995 51.5466C56.9776 51.5466 57.7705 52.3395 57.7705 53.3176C57.7705 54.2957 56.9776 55.0886 55.9995 55.0886Z" fill="white"/>
<path d="M64.855 51.5466H61.313V55.0886H64.855V51.5466Z" fill="white"/>
<path d="M68.3975 51.5466H64.8555V55.0886H68.3975V51.5466Z" fill="white"/>
<path d="M70.168 55.0886C69.7552 55.0886 68.397 55.0886 68.397 55.0886C68.397 55.0886 68.397 53.8828 68.397 53.3176C68.397 52.8761 68.397 51.5466 68.397 51.5466C68.397 51.5466 69.6314 51.5466 70.168 51.5466C71.146 51.5466 71.939 52.3395 71.939 53.3176C71.939 54.2956 71.146 55.0886 70.168 55.0886Z" fill="white"/>
<path d="M79.0229 51.5466H75.481V55.0886H79.0229V51.5466Z" fill="white"/>
<path d="M86.1069 51.5466H82.5649V55.0886H86.1069V51.5466Z" fill="white"/>
<path d="M91.4199 51.5467C91.8327 51.5467 93.1909 51.5467 93.1909 51.5467C93.1909 51.5467 93.1909 52.7522 93.1909 53.3176C93.1909 53.759 93.1909 55.0886 93.1909 55.0886C93.1909 55.0886 91.9568 55.0886 91.4199 55.0886C90.4415 55.0886 89.6489 54.2954 89.6489 53.3176C89.6489 52.3398 90.4415 51.5467 91.4199 51.5467Z" fill="white"/>
<path d="M96.7329 51.5466H93.1909V55.0886H96.7329V51.5466Z" fill="white"/>
<path d="M100.275 51.5466H96.7329V55.0886H100.275V51.5466Z" fill="white"/>
<path d="M103.817 51.5466H100.275V55.0886H103.817V51.5466Z" fill="white"/>
<path d="M107.359 51.5466H103.817V55.0886H107.359V51.5466Z" fill="white"/>
<path d="M11.7251 56.8596C11.7251 56.4468 11.7251 55.0886 11.7251 55.0886C11.7251 55.0886 12.9308 55.0886 13.4961 55.0886C13.9376 55.0886 15.2671 55.0886 15.2671 55.0886C15.2671 55.0886 15.2671 56.3231 15.2671 56.8596C15.2671 57.8376 14.4741 58.6306 13.4961 58.6306C12.518 58.6306 11.7251 57.8376 11.7251 56.8596Z" fill="white"/>
<path d="M18.8096 58.6306H22.3516V55.0886C20.3954 55.0886 18.8096 56.6744 18.8096 58.6306Z" fill="white"/>
<path d="M25.8931 55.0886H22.3511V58.6306H25.8931V55.0886Z" fill="white"/>
<path d="M27.6641 58.6305C27.2513 58.6305 25.8931 58.6305 25.8931 58.6305C25.8931 58.6305 25.8931 57.4248 25.8931 56.8595C25.8931 56.418 25.8931 55.0885 25.8931 55.0885C25.8931 55.0885 27.1275 55.0885 27.6641 55.0885C28.6421 55.0885 29.4351 55.8814 29.4351 56.8595C29.4351 57.8376 28.6421 58.6305 27.6641 58.6305Z" fill="white"/>
<path d="M41.8315 55.0885C42.8097 55.0885 43.6025 55.8815 43.6025 56.8595C43.6025 57.8377 42.8097 58.6305 41.8315 58.6305C40.8535 58.6305 40.0605 57.8377 40.0605 56.8595C40.0605 55.8815 40.8535 55.0885 41.8315 55.0885Z" fill="white"/>
<path d="M50.6875 56.8595C50.6875 56.4468 50.6875 55.0885 50.6875 55.0885C50.6875 55.0885 51.8932 55.0885 52.4585 55.0885C52.9 55.0885 54.2295 55.0885 54.2295 55.0885C54.2295 55.0885 54.2295 56.323 54.2295 56.8595C54.2295 57.8376 53.4365 58.6305 52.4585 58.6305C51.4804 58.6305 50.6875 57.8376 50.6875 56.8595Z" fill="white"/>
<path d="M64.8555 58.6306V55.0886H61.3135C61.3135 57.0448 62.8992 58.6306 64.8555 58.6306Z" fill="white"/>
<path d="M68.3975 55.0885H64.8555V58.6305C66.8117 58.6305 68.3975 57.0447 68.3975 55.0885Z" fill="white"/>
<path d="M71.939 58.6306H75.481V55.0886C73.5248 55.0886 71.939 56.6744 71.939 58.6306Z" fill="white"/>
<path d="M79.0229 55.0886H75.481V58.6306H79.0229V55.0886Z" fill="white"/>
<path d="M86.1069 55.0886H82.5649V58.6306H86.1069V55.0886Z" fill="white"/>
<path d="M86.1069 55.0886V58.6306H89.6489C89.6489 56.6744 88.0631 55.0886 86.1069 55.0886Z" fill="white"/>
<path d="M100.275 55.0886H96.7329V58.6306H100.275V55.0886Z" fill="white"/>
<path d="M107.359 55.0886H103.817V58.6306H107.359V55.0886Z" fill="white"/>
<path d="M8.1831 60.4015C8.1831 60.8143 8.1831 62.1725 8.1831 62.1725C8.1831 62.1725 6.97745 62.1725 6.41211 62.1725C5.97061 62.1725 4.64111 62.1725 4.64111 62.1725C4.64111 62.1725 4.64111 60.9381 4.64111 60.4015C4.64116 59.4235 5.43402 58.6306 6.41207 58.6306C7.39015 58.6306 8.1831 59.4235 8.1831 60.4015Z" fill="white"/>
<path d="M22.3506 58.6306H18.8086V62.1725H22.3506V58.6306Z" fill="white"/>
<path d="M31.2061 58.6306C32.1842 58.6306 32.977 59.4235 32.977 60.4015C32.977 61.3797 32.1842 62.1725 31.2061 62.1725C30.228 62.1725 29.4351 61.3797 29.4351 60.4015C29.4351 59.4235 30.228 58.6306 31.2061 58.6306Z" fill="white"/>
<path d="M38.2905 58.6306C39.2687 58.6306 40.0615 59.4235 40.0615 60.4015C40.0615 61.3797 39.2687 62.1725 38.2905 62.1725C37.3124 62.1725 36.5195 61.3797 36.5195 60.4015C36.5195 59.4235 37.3124 58.6306 38.2905 58.6306Z" fill="white"/>
<path d="M47.1455 60.4015C47.1455 60.8143 47.1455 62.1725 47.1455 62.1725C47.1455 62.1725 45.9399 62.1725 45.3745 62.1725C44.933 62.1725 43.6035 62.1725 43.6035 62.1725C43.6035 62.1725 43.6035 60.9381 43.6035 60.4015C43.6036 59.4235 44.3964 58.6306 45.3745 58.6306C46.3526 58.6306 47.1455 59.4235 47.1455 60.4015Z" fill="white"/>
<path d="M59.542 58.6306C60.5201 58.6306 61.313 59.4235 61.313 60.4015C61.313 61.3797 60.5201 62.1725 59.542 62.1725C58.5639 62.1725 57.771 61.3797 57.771 60.4015C57.771 59.4235 58.5639 58.6306 59.542 58.6306Z" fill="white"/>
<path d="M75.481 62.1725V58.6306H71.939C71.939 60.5867 73.5247 62.1725 75.481 62.1725Z" fill="white"/>
<path d="M79.0229 58.6306H75.481V62.1725H79.0229V58.6306Z" fill="white"/>
<path d="M82.5649 58.6306H79.0229V62.1725H82.5649V58.6306Z" fill="white"/>
<path d="M86.1069 58.6306H82.5649V62.1725H86.1069V58.6306Z" fill="white"/>
<path d="M89.6489 58.6306H86.1069V62.1725H89.6489V58.6306Z" fill="white"/>
<path d="M91.4199 62.1725C91.0071 62.1725 89.6489 62.1725 89.6489 62.1725C89.6489 62.1725 89.6489 60.9668 89.6489 60.4015C89.6489 59.96 89.6489 58.6306 89.6489 58.6306C89.6489 58.6306 90.8834 58.6306 91.4199 58.6306C92.398 58.6306 93.1909 59.4235 93.1909 60.4015C93.1909 61.3796 92.398 62.1725 91.4199 62.1725Z" fill="white"/>
<path d="M96.7329 60.4015C96.7329 59.9888 96.7329 58.6306 96.7329 58.6306C96.7329 58.6306 97.9386 58.6306 98.5039 58.6306C98.9454 58.6306 100.275 58.6306 100.275 58.6306C100.275 58.6306 100.275 59.865 100.275 60.4015C100.275 61.3796 99.4819 62.1725 98.5039 62.1725C97.5258 62.1725 96.7329 61.3796 96.7329 60.4015Z" fill="white"/>
<path d="M103.817 60.4016C103.817 59.9888 103.817 58.6306 103.817 58.6306C103.817 58.6306 105.023 58.6306 105.588 58.6306C106.029 58.6306 107.359 58.6306 107.359 58.6306C107.359 58.6306 107.359 59.865 107.359 60.4016C107.359 61.3796 106.566 62.1725 105.588 62.1725C104.61 62.1725 103.817 61.3796 103.817 60.4016Z" fill="white"/>
<path d="M8.1831 62.1725H4.64111V65.7145H8.1831V62.1725Z" fill="white"/>
<path d="M13.4961 62.1725C13.9089 62.1725 15.2671 62.1725 15.2671 62.1725C15.2671 62.1725 15.2671 63.3781 15.2671 63.9435C15.2671 64.3849 15.2671 65.7145 15.2671 65.7145C15.2671 65.7145 14.0329 65.7145 13.4961 65.7145C12.5177 65.7145 11.7251 64.9213 11.7251 63.9435C11.7251 62.9657 12.5177 62.1725 13.4961 62.1725Z" fill="white"/>
<path d="M18.8091 62.1725H15.2671V65.7145H18.8091V62.1725Z" fill="white"/>
<path d="M22.3506 62.1726H18.8086V65.7146H22.3506V62.1726Z" fill="white"/>
<path d="M25.8931 62.1725H22.3511V65.7145H25.8931V62.1725Z" fill="white"/>
<path d="M27.6641 65.7145C27.2513 65.7145 25.8931 65.7145 25.8931 65.7145C25.8931 65.7145 25.8931 64.5088 25.8931 63.9435C25.8931 63.502 25.8931 62.1725 25.8931 62.1725C25.8931 62.1725 27.1275 62.1725 27.6641 62.1725C28.6421 62.1725 29.4351 62.9654 29.4351 63.9435C29.4351 64.9216 28.6421 65.7145 27.6641 65.7145Z" fill="white"/>
<path d="M41.8315 62.1725C42.2443 62.1725 43.6025 62.1725 43.6025 62.1725C43.6025 62.1725 43.6025 63.3781 43.6025 63.9435C43.6025 64.3849 43.6025 65.7145 43.6025 65.7145C43.6025 65.7145 42.3684 65.7145 41.8315 65.7145C40.8531 65.7145 40.0605 64.9213 40.0605 63.9435C40.0605 62.9657 40.8531 62.1725 41.8315 62.1725Z" fill="white"/>
<path d="M47.1455 62.1725H43.6035V65.7145H47.1455V62.1725Z" fill="white"/>
<path d="M57.7705 63.9436C57.7705 64.3563 57.7705 65.7146 57.7705 65.7146C57.7705 65.7146 56.5649 65.7146 55.9995 65.7145C55.558 65.7146 54.2285 65.7145 54.2285 65.7145C54.2285 65.7145 54.2285 64.4801 54.2285 63.9435C54.2286 62.9655 55.0214 62.1726 55.9995 62.1726C56.9776 62.1726 57.7705 62.9655 57.7705 63.9436Z" fill="white"/>
<path d="M94.9619 62.1725C95.94 62.1725 96.7329 62.9655 96.7329 63.9435C96.7329 64.9217 95.94 65.7145 94.9619 65.7145C93.9838 65.7145 93.1909 64.9217 93.1909 63.9435C93.1909 62.9655 93.9838 62.1725 94.9619 62.1725Z" fill="white"/>
<path d="M8.1831 65.7145H4.64111V69.2565H8.1831V65.7145Z" fill="white"/>
<path d="M18.8091 65.7145H15.2671V69.2565H18.8091V65.7145Z" fill="white"/>
<path d="M22.3506 65.7145H18.8086V69.2565H22.3506V65.7145Z" fill="white"/>
<path d="M25.8931 65.7145H22.3511V69.2565H25.8931V65.7145Z" fill="white"/>
<path d="M29.4351 69.2565H32.977V65.7145C31.0209 65.7145 29.4351 67.3003 29.4351 69.2565Z" fill="white"/>
<path d="M36.5186 65.7146H32.9766V69.2566H36.5186V65.7146Z" fill="white"/>
<path d="M38.2905 69.2565C37.8777 69.2565 36.5195 69.2565 36.5195 69.2565C36.5195 69.2565 36.5195 68.0508 36.5195 67.4855C36.5195 67.044 36.5195 65.7145 36.5195 65.7145C36.5195 65.7145 37.754 65.7145 38.2905 65.7145C39.2686 65.7145 40.0615 66.5074 40.0615 67.4855C40.0615 68.4636 39.2686 69.2565 38.2905 69.2565Z" fill="white"/>
<path d="M43.6035 67.4856C43.6035 67.0728 43.6035 65.7146 43.6035 65.7146C43.6035 65.7146 44.8092 65.7146 45.3745 65.7146C45.816 65.7146 47.1455 65.7146 47.1455 65.7146C47.1455 65.7146 47.1455 66.949 47.1455 67.4856C47.1455 68.4636 46.3526 69.2566 45.3745 69.2566C44.3964 69.2566 43.6035 68.4636 43.6035 67.4856Z" fill="white"/>
<path d="M52.4585 65.7146C52.8713 65.7146 54.2295 65.7146 54.2295 65.7146C54.2295 65.7146 54.2295 66.9201 54.2295 67.4856C54.2295 67.9269 54.2295 69.2566 54.2295 69.2566C54.2295 69.2566 52.9953 69.2566 52.4585 69.2566C51.4801 69.2566 50.6875 68.4633 50.6875 67.4856C50.6875 66.5077 51.4801 65.7146 52.4585 65.7146Z" fill="white"/>
<path d="M57.771 65.7145H54.229V69.2565C56.1852 69.2565 57.771 67.6707 57.771 65.7145Z" fill="white"/>
<path d="M61.3135 69.2566H64.8555V65.7146C62.8993 65.7146 61.3135 67.3003 61.3135 69.2566Z" fill="white"/>
<path d="M66.6265 69.2566C66.2137 69.2566 64.8555 69.2566 64.8555 69.2566C64.8555 69.2566 64.8555 68.0508 64.8555 67.4856C64.8555 67.0441 64.8555 65.7146 64.8555 65.7146C64.8555 65.7146 66.0899 65.7146 66.6265 65.7146C67.6045 65.7146 68.3975 66.5075 68.3975 67.4856C68.3975 68.4636 67.6045 69.2566 66.6265 69.2566Z" fill="white"/>
<path d="M71.939 69.2565H75.481V65.7145C73.5248 65.7145 71.939 67.3003 71.939 69.2565Z" fill="white"/>
<path d="M79.0229 65.7145H75.481V69.2565H79.0229V65.7145Z" fill="white"/>
<path d="M79.0225 65.7146V69.2566H82.5645C82.5645 67.3003 80.9786 65.7146 79.0225 65.7146Z" fill="white"/>
<path d="M91.4199 65.7145C92.3981 65.7145 93.1909 66.5075 93.1909 67.4855C93.1909 68.4637 92.3981 69.2565 91.4199 69.2565C90.4418 69.2565 89.6489 68.4637 89.6489 67.4855C89.6489 66.5075 90.4418 65.7145 91.4199 65.7145Z" fill="white"/>
<path d="M98.5039 65.7145C98.9167 65.7145 100.275 65.7145 100.275 65.7145C100.275 65.7145 100.275 66.9201 100.275 67.4855C100.275 67.9269 100.275 69.2565 100.275 69.2565C100.275 69.2565 99.0407 69.2565 98.5039 69.2565C97.5255 69.2565 96.7329 68.4633 96.7329 67.4855C96.7329 66.5077 97.5255 65.7145 98.5039 65.7145Z" fill="white"/>
<path d="M102.046 69.2565C101.633 69.2565 100.275 69.2565 100.275 69.2565C100.275 69.2565 100.275 68.0508 100.275 67.4855C100.275 67.044 100.275 65.7145 100.275 65.7145C100.275 65.7145 101.509 65.7145 102.046 65.7145C103.024 65.7145 103.817 66.5074 103.817 67.4855C103.817 68.4636 103.024 69.2565 102.046 69.2565Z" fill="white"/>
<path d="M8.1831 69.2565H4.64111V72.7985H8.1831V69.2565Z" fill="white"/>
<path d="M11.7251 69.2565H8.18311V72.7985H11.7251V69.2565Z" fill="white"/>
<path d="M15.2671 69.2565H11.7251V72.7985H15.2671V69.2565Z" fill="white"/>
<path d="M18.8091 69.2565H15.2671V72.7985C17.2233 72.7985 18.8091 71.2127 18.8091 69.2565Z" fill="white"/>
<path d="M25.8931 72.7986V69.2566H22.3511C22.3511 71.2127 23.9368 72.7986 25.8931 72.7986Z" fill="white"/>
<path d="M29.4351 69.2565H25.8931V72.7985H29.4351V69.2565Z" fill="white"/>
<path d="M32.977 69.2565H29.4351V72.7985C31.3912 72.7985 32.977 71.2127 32.977 69.2565Z" fill="white"/>
<path d="M41.8315 69.2565C42.8097 69.2565 43.6025 70.0495 43.6025 71.0275C43.6025 72.0057 42.8097 72.7985 41.8315 72.7985C40.8535 72.7985 40.0605 72.0057 40.0605 71.0275C40.0605 70.0495 40.8535 69.2565 41.8315 69.2565Z" fill="white"/>
<path d="M50.6865 71.0275C50.6865 71.4403 50.6865 72.7985 50.6865 72.7985C50.6865 72.7985 49.4809 72.7985 48.9155 72.7985C48.474 72.7985 47.1445 72.7985 47.1445 72.7985C47.1445 72.7985 47.1445 71.5641 47.1445 71.0275C47.1446 70.0495 47.9374 69.2565 48.9155 69.2565C49.8936 69.2565 50.6865 70.0495 50.6865 71.0275Z" fill="white"/>
<path d="M59.542 69.2565C59.9548 69.2565 61.313 69.2565 61.313 69.2565C61.313 69.2565 61.313 70.4621 61.313 71.0275C61.313 71.4689 61.313 72.7985 61.313 72.7985C61.313 72.7985 60.0788 72.7985 59.542 72.7985C58.5636 72.7985 57.771 72.0053 57.771 71.0275C57.771 70.0497 58.5636 69.2565 59.542 69.2565Z" fill="white"/>
<path d="M64.855 69.2565H61.313V72.7985H64.855V69.2565Z" fill="white"/>
<path d="M75.4814 69.2565H71.9395V72.7985H75.4814V69.2565Z" fill="white"/>
<path d="M82.5645 72.7985V69.2565H79.0225C79.0225 71.2127 80.6082 72.7985 82.5645 72.7985Z" fill="white"/>
<path d="M82.5649 69.2565V72.7985H86.1069C86.1069 70.8423 84.5211 69.2565 82.5649 69.2565Z" fill="white"/>
<path d="M96.7329 71.0275C96.7329 71.4403 96.7329 72.7985 96.7329 72.7985C96.7329 72.7985 95.5273 72.7985 94.9619 72.7984C94.5204 72.7985 93.1909 72.7984 93.1909 72.7984C93.1909 72.7984 93.1909 71.5641 93.1909 71.0275C93.191 70.0495 93.9838 69.2565 94.9619 69.2565C95.94 69.2565 96.7329 70.0494 96.7329 71.0275Z" fill="white"/>
<path d="M105.588 69.2565C106.566 69.2565 107.359 70.0494 107.359 71.0275C107.359 72.0056 106.566 72.7985 105.588 72.7985C104.61 72.7985 103.817 72.0056 103.817 71.0275C103.817 70.0494 104.61 69.2565 105.588 69.2565Z" fill="white"/>
<path d="M8.1831 72.7985H4.64111V76.3405H8.1831V72.7985Z" fill="white"/>
<path d="M11.7251 72.7985H8.18311V76.3405H11.7251V72.7985Z" fill="white"/>
<path d="M15.2671 72.7985H11.7251V76.3405H15.2671V72.7985Z" fill="white"/>
<path d="M20.5796 72.7985C21.5577 72.7985 22.3506 73.5914 22.3506 74.5695C22.3506 75.5477 21.5577 76.3405 20.5796 76.3405C19.6015 76.3405 18.8086 75.5477 18.8086 74.5695C18.8086 73.5914 19.6015 72.7985 20.5796 72.7985Z" fill="white"/>
<path d="M34.7476 72.7985C35.7257 72.7985 36.5186 73.5914 36.5186 74.5695C36.5186 75.5477 35.7257 76.3405 34.7476 76.3405C33.7695 76.3405 32.9766 75.5477 32.9766 74.5695C32.9766 73.5914 33.7695 72.7985 34.7476 72.7985Z" fill="white"/>
<path d="M50.6865 72.7985H47.1445V76.3405H50.6865V72.7985Z" fill="white"/>
<path d="M57.7705 74.5695C57.7705 74.9823 57.7705 76.3405 57.7705 76.3405C57.7705 76.3405 56.5649 76.3405 55.9995 76.3404C55.558 76.3405 54.2285 76.3404 54.2285 76.3404C54.2285 76.3404 54.2285 75.1061 54.2285 74.5695C54.2286 73.5915 55.0214 72.7985 55.9995 72.7985C56.9776 72.7985 57.7705 73.5914 57.7705 74.5695Z" fill="white"/>
<path d="M64.855 72.7985H61.313V76.3405H64.855V72.7985Z" fill="white"/>
<path d="M75.4814 72.7985H71.9395V76.3405H75.4814V72.7985Z" fill="white"/>
<path d="M86.1069 72.7985H82.5649V76.3405H86.1069V72.7985Z" fill="white"/>
<path d="M89.6489 72.7985H86.1069V76.3405H89.6489V72.7985Z" fill="white"/>
<path d="M93.1909 72.7985H89.6489V76.3405H93.1909V72.7985Z" fill="white"/>
<path d="M96.7329 72.7985H93.1909V76.3405H96.7329V72.7985Z" fill="white"/>
<path d="M96.7329 72.7985V76.3405H100.275C100.275 74.3843 98.6891 72.7985 96.7329 72.7985Z" fill="white"/>
<path d="M8.1831 79.8825V76.3405H4.64111C4.64112 78.2967 6.22688 79.8825 8.1831 79.8825Z" fill="white"/>
<path d="M11.7251 76.3405H8.18311V79.8825H11.7251V76.3405Z" fill="white"/>
<path d="M15.2671 76.3405H11.7251V79.8825C13.6813 79.8825 15.2671 78.2967 15.2671 76.3405Z" fill="white"/>
<path d="M24.1221 76.3405C24.5349 76.3405 25.8931 76.3405 25.8931 76.3405C25.8931 76.3405 25.8931 77.5461 25.8931 78.1115C25.8931 78.5529 25.8931 79.8825 25.8931 79.8825C25.8931 79.8825 24.6589 79.8825 24.1221 79.8825C23.1436 79.8825 22.3511 79.0893 22.3511 78.1115C22.3511 77.1337 23.1436 76.3405 24.1221 76.3405Z" fill="white"/>
<path d="M29.4351 76.3405H25.8931V79.8825H29.4351V76.3405Z" fill="white"/>
<path d="M31.2061 79.8825C30.7933 79.8825 29.4351 79.8825 29.4351 79.8825C29.4351 79.8825 29.4351 78.6768 29.4351 78.1115C29.4351 77.67 29.4351 76.3405 29.4351 76.3405C29.4351 76.3405 30.6695 76.3405 31.2061 76.3405C32.1841 76.3405 32.977 77.1334 32.977 78.1115C32.977 79.0896 32.1841 79.8825 31.2061 79.8825Z" fill="white"/>
<path d="M45.3745 76.3405C45.7873 76.3405 47.1455 76.3405 47.1455 76.3405C47.1455 76.3405 47.1455 77.546 47.1455 78.1115C47.1455 78.5528 47.1455 79.8825 47.1455 79.8825C47.1455 79.8825 45.9113 79.8825 45.3745 79.8825C44.3961 79.8825 43.6035 79.0892 43.6035 78.1115C43.6035 77.1336 44.3961 76.3405 45.3745 76.3405Z" fill="white"/>
<path d="M50.6865 76.3405H47.1445V79.8825H50.6865V76.3405Z" fill="white"/>
<path d="M54.2295 76.3405H50.6875V79.8825H54.2295V76.3405Z" fill="white"/>
<path d="M57.7705 76.3405H54.2285V79.8825H57.7705V76.3405Z" fill="white"/>
<path d="M61.313 76.3405H57.771V79.8825H61.313V76.3405Z" fill="white"/>
<path d="M64.855 76.3405H61.313V79.8825H64.855V76.3405Z" fill="white"/>
<path d="M64.8555 76.3405V79.8825H68.3975C68.3975 77.9263 66.8117 76.3405 64.8555 76.3405Z" fill="white"/>
<path d="M75.4814 76.3405H71.9395V79.8825H75.4814V76.3405Z" fill="white"/>
<path d="M79.0229 76.3405H75.481V79.8825H79.0229V76.3405Z" fill="white"/>
<path d="M82.5649 76.3405H79.0229V79.8825H82.5649V76.3405Z" fill="white"/>
<path d="M86.1069 76.3405H82.5649V79.8825H86.1069V76.3405Z" fill="white"/>
<path d="M89.6489 76.3405H86.1069V79.8825H89.6489V76.3405Z" fill="white"/>
<path d="M93.1909 76.3405H89.6489V79.8825H93.1909V76.3405Z" fill="white"/>
<path d="M96.7329 76.3405H93.1909V79.8825H96.7329V76.3405Z" fill="white"/>
<path d="M100.275 76.3405H96.7329V79.8825H100.275V76.3405Z" fill="white"/>
<path d="M102.046 79.8825C101.633 79.8825 100.275 79.8825 100.275 79.8825C100.275 79.8825 100.275 78.6768 100.275 78.1115C100.275 77.67 100.275 76.3405 100.275 76.3405C100.275 76.3405 101.509 76.3405 102.046 76.3405C103.024 76.3405 103.817 77.1334 103.817 78.1115C103.817 79.0896 103.024 79.8825 102.046 79.8825Z" fill="white"/>
<path d="M32.9771 83.4245H36.519V79.8825C34.5629 79.8825 32.9771 81.4683 32.9771 83.4245Z" fill="white"/>
<path d="M36.519 79.8825V83.4245H40.061C40.061 81.4683 38.4752 79.8825 36.519 79.8825Z" fill="white"/>
<path d="M47.1445 81.6535C47.1445 81.2407 47.1445 79.8825 47.1445 79.8825C47.1445 79.8825 48.3502 79.8825 48.9155 79.8825C49.357 79.8825 50.6865 79.8825 50.6865 79.8825C50.6865 79.8825 50.6865 81.1169 50.6865 81.6535C50.6865 82.6315 49.8936 83.4245 48.9155 83.4245C47.9374 83.4245 47.1445 82.6315 47.1445 81.6535Z" fill="white"/>
<path d="M57.7705 79.8825H54.2285V83.4245H57.7705V79.8825Z" fill="white"/>
<path d="M61.313 79.8825H57.771V83.4245H61.313V79.8825Z" fill="white"/>
<path d="M68.3975 83.4245V79.8825H64.8555C64.8555 81.8387 66.4412 83.4245 68.3975 83.4245Z" fill="white"/>
<path d="M71.939 79.8825H68.397V83.4245H71.939V79.8825Z" fill="white"/>
<path d="M75.4814 79.8825H71.9395V83.4245H75.4814V79.8825Z" fill="white"/>
<path d="M79.0229 79.8825H75.481V83.4245H79.0229V79.8825Z" fill="white"/>
<path d="M93.1909 79.8825H89.6489V83.4245H93.1909V79.8825Z" fill="white"/>
<path d="M96.7329 79.8825H93.1909V83.4245H96.7329V79.8825Z" fill="white"/>
<path d="M36.5186 83.4245H32.9766V86.9665H36.5186V83.4245Z" fill="white"/>
<path d="M40.0615 83.4245H36.5195V86.9665H40.0615V83.4245Z" fill="white"/>
<path d="M40.061 83.4245V86.9665H43.603C43.603 85.0103 42.0172 83.4245 40.061 83.4245Z" fill="white"/>
<path d="M57.7705 83.4245H54.2285V86.9665H57.7705V83.4245Z" fill="white"/>
<path d="M61.313 83.4245H57.771V86.9665H61.313V83.4245Z" fill="white"/>
<path d="M61.3135 83.4245V86.9665H64.8555C64.8555 85.0103 63.2697 83.4245 61.3135 83.4245Z" fill="white"/>
<path d="M75.4814 83.4245H71.9395V86.9665H75.4814V83.4245Z" fill="white"/>
<path d="M79.0229 83.4245H75.481V86.9665H79.0229V83.4245Z" fill="white"/>
<path d="M84.3359 83.4245C85.3141 83.4245 86.1069 84.2174 86.1069 85.1955C86.1069 86.1736 85.3141 86.9665 84.3359 86.9665C83.3579 86.9665 82.5649 86.1736 82.5649 85.1955C82.5649 84.2174 83.3579 83.4245 84.3359 83.4245Z" fill="white"/>
<path d="M93.1909 83.4245H89.6489V86.9665H93.1909V83.4245Z" fill="white"/>
<path d="M96.7329 83.4245H93.1909V86.9665C95.1471 86.9665 96.7329 85.3807 96.7329 83.4245Z" fill="white"/>
<path d="M36.5186 86.9665H32.9766V90.5085H36.5186V86.9665Z" fill="white"/>
<path d="M43.603 90.5085V86.9665H40.061C40.061 88.9227 41.6468 90.5085 43.603 90.5085Z" fill="white"/>
<path d="M47.1455 86.9665H43.6035V90.5085H47.1455V86.9665Z" fill="white"/>
<path d="M48.9155 90.5085C48.5027 90.5085 47.1445 90.5085 47.1445 90.5085C47.1445 90.5085 47.1445 89.3027 47.1445 88.7375C47.1445 88.296 47.1445 86.9665 47.1445 86.9665C47.1445 86.9665 48.379 86.9665 48.9155 86.9665C49.8936 86.9665 50.6865 87.7594 50.6865 88.7375C50.6865 89.7155 49.8936 90.5085 48.9155 90.5085Z" fill="white"/>
<path d="M57.7705 86.9665H54.2285V90.5085H57.7705V86.9665Z" fill="white"/>
<path d="M64.855 86.9665H61.313V90.5085H64.855V86.9665Z" fill="white"/>
<path d="M68.3975 86.9665H64.8555V90.5085H68.3975V86.9665Z" fill="white"/>
<path d="M71.939 86.9665H68.397V90.5085H71.939V86.9665Z" fill="white"/>
<path d="M75.4814 86.9665H71.9395V90.5085H75.4814V86.9665Z" fill="white"/>
<path d="M79.0229 86.9665H75.481V90.5085H79.0229V86.9665Z" fill="white"/>
<path d="M93.1909 86.9665H89.6489V90.5085H93.1909V86.9665Z" fill="white"/>
<path d="M107.359 88.7375C107.359 89.1502 107.359 90.5084 107.359 90.5084C107.359 90.5084 106.153 90.5084 105.588 90.5084C105.146 90.5084 103.817 90.5084 103.817 90.5084C103.817 90.5084 103.817 89.274 103.817 88.7374C103.817 87.7594 104.61 86.9665 105.588 86.9665C106.566 86.9665 107.359 87.7594 107.359 88.7375Z" fill="white"/>
<path d="M36.5186 90.5085H32.9766V94.0505H36.5186V90.5085Z" fill="white"/>
<path d="M47.1455 90.5085H43.6035V94.0505H47.1455V90.5085Z" fill="white"/>
<path d="M52.4585 90.5085C52.8713 90.5085 54.2295 90.5085 54.2295 90.5085C54.2295 90.5085 54.2295 91.714 54.2295 92.2795C54.2295 92.7208 54.2295 94.0505 54.2295 94.0505C54.2295 94.0505 52.9953 94.0505 52.4585 94.0505C51.4801 94.0505 50.6875 93.2572 50.6875 92.2795C50.6875 91.3016 51.4801 90.5085 52.4585 90.5085Z" fill="white"/>
<path d="M57.7705 90.5085H54.2285V94.0505H57.7705V90.5085Z" fill="white"/>
<path d="M61.313 90.5085H57.771V94.0505H61.313V90.5085Z" fill="white"/>
<path d="M64.855 90.5085H61.313V94.0505H64.855V90.5085Z" fill="white"/>
<path d="M75.481 94.0505V90.5085H71.939C71.939 92.4647 73.5247 94.0505 75.481 94.0505Z" fill="white"/>
<path d="M79.0229 90.5085H75.481V94.0505H79.0229V90.5085Z" fill="white"/>
<path d="M82.5649 90.5085H79.0229V94.0505H82.5649V90.5085Z" fill="white"/>
<path d="M86.1069 90.5085H82.5649V94.0505H86.1069V90.5085Z" fill="white"/>
<path d="M89.6489 90.5085H86.1069V94.0505H89.6489V90.5085Z" fill="white"/>
<path d="M93.1909 90.5085H89.6489V94.0505H93.1909V90.5085Z" fill="white"/>
<path d="M94.9619 94.0505C94.5491 94.0505 93.1909 94.0505 93.1909 94.0505C93.1909 94.0505 93.1909 92.8447 93.1909 92.2795C93.1909 91.838 93.1909 90.5085 93.1909 90.5085C93.1909 90.5085 94.4254 90.5085 94.9619 90.5085C95.94 90.5085 96.7329 91.3014 96.7329 92.2795C96.7329 93.2575 95.94 94.0505 94.9619 94.0505Z" fill="white"/>
<path d="M102.046 90.5085C102.459 90.5085 103.817 90.5085 103.817 90.5085C103.817 90.5085 103.817 91.714 103.817 92.2795C103.817 92.7208 103.817 94.0505 103.817 94.0505C103.817 94.0505 102.583 94.0505 102.046 94.0505C101.067 94.0505 100.275 93.2572 100.275 92.2795C100.275 91.3016 101.067 90.5085 102.046 90.5085Z" fill="white"/>
<path d="M107.359 90.5085H103.817V94.0504H107.359V90.5085Z" fill="white"/>
<path d="M32.9766 95.8215C32.9766 95.4087 32.9766 94.0505 32.9766 94.0505C32.9766 94.0505 34.1823 94.0505 34.7476 94.0505C35.1891 94.0505 36.5186 94.0505 36.5186 94.0505C36.5186 94.0505 36.5186 95.2849 36.5186 95.8215C36.5186 96.7995 35.7256 97.5925 34.7476 97.5925C33.7695 97.5925 32.9766 96.7995 32.9766 95.8215Z" fill="white"/>
<path d="M41.8315 94.0505C42.2443 94.0505 43.6025 94.0505 43.6025 94.0505C43.6025 94.0505 43.6025 95.256 43.6025 95.8215C43.6025 96.2628 43.6025 97.5925 43.6025 97.5925C43.6025 97.5925 42.3684 97.5925 41.8315 97.5925C40.8531 97.5925 40.0605 96.7992 40.0605 95.8215C40.0605 94.8436 40.8531 94.0505 41.8315 94.0505Z" fill="white"/>
<path d="M47.1455 94.0505H43.6035V97.5925H47.1455V94.0505Z" fill="white"/>
<path d="M61.313 94.0505H57.771V97.5925H61.313V94.0505Z" fill="white"/>
<path d="M64.855 94.0505H61.313V97.5925H64.855V94.0505Z" fill="white"/>
<path d="M68.3975 94.0505H64.8555V97.5925H68.3975V94.0505Z" fill="white"/>
<path d="M70.168 97.5925C69.7552 97.5925 68.397 97.5925 68.397 97.5925C68.397 97.5925 68.397 96.3867 68.397 95.8215C68.397 95.38 68.397 94.0505 68.397 94.0505C68.397 94.0505 69.6314 94.0505 70.168 94.0505C71.146 94.0505 71.939 94.8434 71.939 95.8215C71.939 96.7995 71.146 97.5925 70.168 97.5925Z" fill="white"/>
<path d="M79.0229 94.0505H75.481V97.5925H79.0229V94.0505Z" fill="white"/>
<path d="M82.5649 94.0505H79.0229V97.5925H82.5649V94.0505Z" fill="white"/>
<path d="M89.6489 94.0505H86.1069V97.5925H89.6489V94.0505Z" fill="white"/>
<path d="M107.359 94.0505H103.817V97.5925H107.359V94.0505Z" fill="white"/>
<path d="M43.6035 99.3634C43.6035 98.9506 43.6035 97.5924 43.6035 97.5924C43.6035 97.5924 44.8092 97.5924 45.3745 97.5924C45.816 97.5924 47.1455 97.5924 47.1455 97.5924C47.1455 97.5924 47.1455 98.8269 47.1455 99.3634C47.1455 100.341 46.3526 101.134 45.3745 101.134C44.3964 101.134 43.6035 100.341 43.6035 99.3634Z" fill="white"/>
<path d="M54.2295 99.3634C54.2295 99.7762 54.2295 101.134 54.2295 101.134C54.2295 101.134 53.0238 101.134 52.4585 101.134C52.017 101.134 50.6875 101.134 50.6875 101.134C50.6875 101.134 50.6875 99.9 50.6875 99.3634C50.6875 98.3854 51.4804 97.5924 52.4585 97.5924C53.4365 97.5924 54.2295 98.3854 54.2295 99.3634Z" fill="white"/>
<path d="M61.313 97.5924H57.771V101.134H61.313V97.5924Z" fill="white"/>
<path d="M73.7104 97.5925C74.1232 97.5925 75.4814 97.5925 75.4814 97.5925C75.4814 97.5925 75.4814 98.798 75.4814 99.3635C75.4814 99.8048 75.4814 101.134 75.4814 101.134C75.4814 101.134 74.2473 101.134 73.7104 101.134C72.732 101.134 71.9395 100.341 71.9395 99.3635C71.9395 98.3856 72.732 97.5925 73.7104 97.5925Z" fill="white"/>
<path d="M79.0229 97.5924H75.481V101.134H79.0229V97.5924Z" fill="white"/>
<path d="M82.5649 97.5924H79.0229V101.134H82.5649V97.5924Z" fill="white"/>
<path d="M89.6489 97.5924H86.1069V101.134H89.6489V97.5924Z" fill="white"/>
<path d="M91.4199 101.134C91.0071 101.134 89.6489 101.134 89.6489 101.134C89.6489 101.134 89.6489 99.9287 89.6489 99.3635C89.6489 98.922 89.6489 97.5925 89.6489 97.5925C89.6489 97.5925 90.8834 97.5925 91.4199 97.5925C92.398 97.5925 93.1909 98.3854 93.1909 99.3635C93.1909 100.342 92.398 101.134 91.4199 101.134Z" fill="white"/>
<path d="M96.7329 101.134H100.275V97.5924C98.3187 97.5924 96.7329 99.1782 96.7329 101.134Z" fill="white"/>
<path d="M103.817 97.5924H100.275V101.134H103.817V97.5924Z" fill="white"/>
<path d="M107.359 97.5924H103.817V101.134H107.359V97.5924Z" fill="white"/>
<path d="M54.2295 101.134H50.6875V104.676H54.2295V101.134Z" fill="white"/>
<path d="M57.7705 101.134H54.2285V104.676H57.7705V101.134Z" fill="white"/>
<path d="M61.313 101.134H57.771V104.676C59.7272 104.676 61.313 103.091 61.313 101.134Z" fill="white"/>
<path d="M70.168 101.134C71.1461 101.134 71.939 101.927 71.939 102.905C71.939 103.884 71.1461 104.676 70.168 104.676C69.1899 104.676 68.397 103.884 68.397 102.905C68.397 101.927 69.1899 101.134 70.168 101.134Z" fill="white"/>
<path d="M79.0229 102.905C79.0229 102.493 79.0229 101.134 79.0229 101.134C79.0229 101.134 80.2286 101.134 80.7939 101.134C81.2354 101.134 82.5649 101.134 82.5649 101.134C82.5649 101.134 82.5649 102.369 82.5649 102.905C82.5649 103.883 81.772 104.676 80.7939 104.676C79.8159 104.676 79.0229 103.883 79.0229 102.905Z" fill="white"/>
<path d="M86.1069 102.905C86.1069 102.493 86.1069 101.134 86.1069 101.134C86.1069 101.134 87.3126 101.134 87.8779 101.134C88.3194 101.134 89.6489 101.134 89.6489 101.134C89.6489 101.134 89.6489 102.369 89.6489 102.905C89.6489 103.883 88.856 104.676 87.8779 104.676C86.8998 104.676 86.1069 103.883 86.1069 102.905Z" fill="white"/>
<path d="M93.1909 104.676H96.7329V101.134C94.7767 101.134 93.1909 102.72 93.1909 104.676Z" fill="white"/>
<path d="M100.275 101.134H96.7329V104.676C98.6891 104.676 100.275 103.091 100.275 101.134Z" fill="white"/>
<path d="M103.817 102.905C103.817 102.493 103.817 101.134 103.817 101.134C103.817 101.134 105.023 101.134 105.588 101.134C106.029 101.134 107.359 101.134 107.359 101.134C107.359 101.134 107.359 102.369 107.359 102.905C107.359 103.883 106.566 104.676 105.588 104.676C104.61 104.676 103.817 103.883 103.817 102.905Z" fill="white"/>
<path d="M34.7476 104.676C35.7257 104.676 36.5186 105.469 36.5186 106.447C36.5186 107.426 35.7257 108.218 34.7476 108.218C33.7695 108.218 32.9766 107.426 32.9766 106.447C32.9766 105.469 33.7695 104.676 34.7476 104.676Z" fill="white"/>
<path d="M48.9155 104.676C49.3283 104.676 50.6865 104.676 50.6865 104.676C50.6865 104.676 50.6865 105.882 50.6865 106.447C50.6865 106.889 50.6865 108.218 50.6865 108.218C50.6865 108.218 49.4524 108.218 48.9155 108.218C47.9371 108.218 47.1445 107.425 47.1445 106.447C47.1445 105.47 47.9371 104.676 48.9155 104.676Z" fill="white"/>
<path d="M54.2295 104.676H50.6875V108.218C52.6437 108.218 54.2295 106.633 54.2295 104.676Z" fill="white"/>
<path d="M73.7104 104.676C74.1232 104.676 75.4814 104.676 75.4814 104.676C75.4814 104.676 75.4814 105.882 75.4814 106.447C75.4814 106.889 75.4814 108.218 75.4814 108.218C75.4814 108.218 74.2473 108.218 73.7104 108.218C72.732 108.218 71.9395 107.425 71.9395 106.447C71.9395 105.47 72.732 104.676 73.7104 104.676Z" fill="white"/>
<path d="M77.252 108.218C76.8392 108.218 75.481 108.218 75.481 108.218C75.481 108.218 75.481 107.013 75.481 106.447C75.481 106.006 75.481 104.676 75.481 104.676C75.481 104.676 76.7154 104.676 77.252 104.676C78.23 104.676 79.0229 105.469 79.0229 106.447C79.0229 107.426 78.23 108.218 77.252 108.218Z" fill="white"/>
<path d="M91.4199 104.676C91.8327 104.676 93.1909 104.676 93.1909 104.676C93.1909 104.676 93.1909 105.882 93.1909 106.447C93.1909 106.889 93.1909 108.218 93.1909 108.218C93.1909 108.218 91.9568 108.218 91.4199 108.218C90.4415 108.218 89.6489 107.425 89.6489 106.447C89.6489 105.47 90.4415 104.676 91.4199 104.676Z" fill="white"/>
<path d="M96.7329 104.676H93.1909V108.218C95.1471 108.218 96.7329 106.633 96.7329 104.676Z" fill="white"/>
<path d="M20.9701 5.5027H13.106C9.27336 5.5027 6.02635 8.03491 4.98823 11.4959C4.88087 11.8539 4.79707 12.2219 4.7388 12.598C4.67459 13.013 4.64111 13.438 4.64111 13.8707V21.9215C4.64111 26.5379 8.43954 30.2919 13.106 30.2919L17.0381 30.2927L20.9701 30.2917C25.6364 30.2917 29.435 26.5376 29.435 21.9212V13.8707C29.435 9.25651 25.6366 5.5027 20.9701 5.5027ZM25.716 21.9215C25.716 24.4862 23.5871 26.5728 20.9692 26.5728L17.0381 26.5736L13.107 26.5726C10.489 26.5726 8.3602 24.4859 8.3602 21.9215V13.8707C8.3602 13.0696 8.56798 12.3153 8.93369 11.6563C9.28576 11.0223 9.78387 10.4771 10.3836 10.0643C11.1547 9.53345 12.0937 9.22179 13.1058 9.22179H20.9701C23.5871 9.22179 25.716 11.3072 25.716 13.8707V21.9215Z" fill="white"/>
<path d="M98.894 5.5027H91.0298C87.1972 5.5027 83.9502 8.03491 82.9121 11.4959C82.8047 11.8539 82.7209 12.2219 82.6626 12.598C82.5984 13.013 82.5649 13.438 82.5649 13.8707V21.9215C82.5649 26.5379 86.3634 30.2919 91.0298 30.2919L94.9619 30.2927L98.894 30.2917C103.56 30.2917 107.359 26.5376 107.359 21.9212V13.8707C107.359 9.25651 103.56 5.5027 98.894 5.5027ZM103.64 21.9215C103.64 24.4862 101.511 26.5728 98.893 26.5728L94.9619 26.5736L91.0308 26.5726C88.4128 26.5726 86.284 24.4859 86.284 21.9215V13.8707C86.284 13.0696 86.4918 12.3153 86.8575 11.6563C87.2096 11.0223 87.7077 10.4771 88.3075 10.0643C89.0786 9.53345 90.0175 9.22179 91.0296 9.22179H98.894C101.511 9.22179 103.64 11.3072 103.64 13.8707V21.9215Z" fill="white"/>
<path d="M20.9701 83.4265H13.106C9.27336 83.4265 6.02635 85.9587 4.98823 89.4197C4.88087 89.7777 4.79707 90.1456 4.7388 90.5218C4.67459 90.9368 4.64111 91.3618 4.64111 91.7944V99.8453C4.64111 104.462 8.43954 108.216 13.106 108.216L17.0381 108.216L20.9701 108.215C25.6364 108.215 29.435 104.461 29.435 99.845V91.7944C29.435 87.1803 25.6366 83.4265 20.9701 83.4265ZM25.716 99.8453C25.716 102.41 23.5871 104.497 20.9692 104.497L17.0381 104.497L13.107 104.496C10.489 104.496 8.3602 102.41 8.3602 99.8453V91.7944C8.3602 90.9933 8.56798 90.2391 8.93369 89.5801C9.28576 88.9461 9.78387 88.4009 10.3836 87.9881C11.1547 87.4572 12.0937 87.1456 13.1058 87.1456H20.9701C23.5871 87.1456 25.716 89.231 25.716 91.7944V99.8453Z" fill="white"/>
<path d="M14.6309 23.2107C13.0275 23.2107 11.7231 21.9322 11.7231 20.3621V15.4318C11.7231 14.9413 11.8507 14.4797 12.0739 14.0759C12.2895 13.6872 12.5947 13.3531 12.9622 13.101C13.4344 12.7761 14.0099 12.5847 14.6293 12.5847H19.4458C21.0478 12.5847 22.3521 13.8617 22.3521 15.4317V20.362C22.3521 21.9319 21.0479 23.2106 19.4458 23.2106H17.0376H14.6309V23.2107Z" fill="white"/>
<path d="M92.5553 23.2107C90.9518 23.2107 89.6475 21.9321 89.6475 20.3621V15.4318C89.6475 14.9413 89.775 14.4797 89.9982 14.0758C90.2138 13.6871 90.519 13.3531 90.8866 13.101C91.3587 12.7761 91.9342 12.5847 92.5537 12.5847H97.3701C98.9721 12.5847 100.276 13.8617 100.276 15.4317V20.3619C100.276 21.9319 98.9722 23.2106 97.3701 23.2106H94.9619H92.5553V23.2107Z" fill="white"/>
<path d="M14.6309 101.134C13.0275 101.134 11.7231 99.8559 11.7231 98.2858V93.3556C11.7231 92.8651 11.8507 92.4035 12.0739 91.9996C12.2895 91.6109 12.5947 91.2768 12.9622 91.0248C13.4344 90.6998 14.0099 90.5085 14.6293 90.5085H19.4458C21.0478 90.5085 22.3521 91.7855 22.3521 93.3555V98.2857C22.3521 99.8557 21.0479 101.134 19.4458 101.134H17.0376H14.6309V101.134Z" fill="white"/>
<defs>
<linearGradient id="paint0_linear_174_14553" x1="-7.86723" y1="60.8627" x2="133.146" y2="-9.35038" gradientUnits="userSpaceOnUse">
<stop stop-color="#2091F6"/>
<stop offset="1" stop-color="#21B568"/>
</linearGradient>
</defs>
</svg>
