<svg width="14" height="16" viewBox="0 0 14 16" fill="none" xmlns="http://www.w3.org/2000/svg">
<path d="M2.8584 9.08984C2.8584 8.95312 2.91764 8.81413 3.03613 8.67285L8.99707 1.24902C9.14746 1.06217 9.30924 0.971029 9.48242 0.975586C9.6556 0.980143 9.79004 1.05306 9.88574 1.19434C9.986 1.33105 9.99056 1.51562 9.89941 1.74805L7.95117 7.01855H11.6562C11.7975 7.01855 11.9115 7.06185 11.998 7.14844C12.0892 7.23503 12.1348 7.34212 12.1348 7.46973C12.1348 7.60645 12.0778 7.74772 11.9639 7.89355L6.00293 15.3105C5.85254 15.4974 5.68848 15.5885 5.51074 15.584C5.33757 15.584 5.20312 15.5133 5.10742 15.3721C5.01172 15.2308 5.00716 15.0439 5.09375 14.8115L7.04883 9.54102H3.34375C3.20247 9.54102 3.08626 9.49772 2.99512 9.41113C2.90397 9.32454 2.8584 9.21745 2.8584 9.08984Z" fill="currentColor"/>
</svg>
