<svg width="38" height="38" viewBox="0 0 38 38" fill="none" xmlns="http://www.w3.org/2000/svg">
<rect width="38" height="38" rx="12" fill="#004878"/>
<path fill-rule="evenodd" clip-rule="evenodd" d="M14 6C13.4477 6 13 6.44772 13 7V9H12C10.3431 9 9 10.3431 9 12V13H7C6.44772 13 6 13.4477 6 14C6 14.5523 6.44772 15 7 15H9V23H7C6.44772 23 6 23.4477 6 24C6 24.5523 6.44772 25 7 25H9V26C9 27.6569 10.3431 29 12 29H13V31C13 31.5523 13.4477 32 14 32C14.5523 32 15 31.5523 15 31V29H23V31C23 31.5523 23.4477 32 24 32C24.5523 32 25 31.5523 25 31V29H26C27.6569 29 29 27.6569 29 26V25H31C31.5523 25 32 24.5523 32 24C32 23.4477 31.5523 23 31 23H29V15H31C31.5523 15 32 14.5523 32 14C32 13.4477 31.5523 13 31 13H29V12C29 10.3431 27.6569 9 26 9H25V7C25 6.44772 24.5523 6 24 6C23.4477 6 23 6.44772 23 7V9H15V7C15 6.44772 14.5523 6 14 6ZM19.5582 19.3996C21.2346 19.028 22.4884 17.5325 22.4884 15.7442C22.4884 13.6763 20.812 12 18.7442 12C16.6763 12 15 13.6763 15 15.7442C15 17.4147 16.094 18.8297 17.6047 19.3118V24.6976L18.907 25.9999L20.8605 24.0464L19.5582 22.7441L20.8605 21.4418L19.5582 20.1394V19.3996ZM18.7442 16.2324C19.3735 16.2324 19.8837 15.7223 19.8837 15.0929C19.8837 14.4636 19.3735 13.9534 18.7442 13.9534C18.1149 13.9534 17.6047 14.4636 17.6047 15.0929C17.6047 15.7223 18.1149 16.2324 18.7442 16.2324Z" fill="white"/>
</svg>
