<svg width="26" height="26" viewBox="0 0 26 26" fill="currentColor" xmlns="http://www.w3.org/2000/svg">
<path fill-rule="evenodd" clip-rule="evenodd" d="M8 0C7.44772 0 7 0.447716 7 1V3H6C4.34315 3 3 4.34315 3 6V7H1C0.447715 7 0 7.44771 0 8C0 8.55228 0.447716 9 1 9H3V17H1C0.447715 17 0 17.4477 0 18C0 18.5523 0.447716 19 1 19H3V20C3 21.6569 4.34315 23 6 23H7V25C7 25.5523 7.44772 26 8 26C8.55229 26 9 25.5523 9 25V23H17V25C17 25.5523 17.4477 26 18 26C18.5523 26 19 25.5523 19 25V23H20C21.6569 23 23 21.6569 23 20V19H25C25.5523 19 26 18.5523 26 18C26 17.4477 25.5523 17 25 17H23V9H25C25.5523 9 26 8.55229 26 8C26 7.44772 25.5523 7 25 7H23V6C23 4.34315 21.6569 3 20 3H19V1C19 0.447715 18.5523 0 18 0C17.4477 0 17 0.447716 17 1V3H9V1C9 0.447715 8.55229 0 8 0ZM13.5582 13.3996C15.2346 13.028 16.4884 11.5325 16.4884 9.74419C16.4884 7.67633 14.812 6 12.7442 6C10.6763 6 9 7.67633 9 9.74419C9 11.4147 10.094 12.8297 11.6047 13.3118V18.6976L12.907 19.9999L14.8605 18.0464L13.5582 16.7441L14.8605 15.4418L13.5582 14.1394V13.3996ZM12.7442 10.2324C13.3735 10.2324 13.8837 9.72225 13.8837 9.0929C13.8837 8.46356 13.3735 7.95337 12.7442 7.95337C12.1149 7.95337 11.6047 8.46356 11.6047 9.0929C11.6047 9.72225 12.1149 10.2324 12.7442 10.2324Z"/>
</svg>
