<svg xmlns="http://www.w3.org/2000/svg" width="12" height="14" viewBox="0 0 12 14" fill="none">
    <path fill-rule="evenodd" clip-rule="evenodd" d="M1.8158 2.65438V3.78972C1.8158 3.95513 1.92107 4.07543 2.094 4.07543H3.26693C3.43986 4.07543 3.55265 3.95513 3.55265 3.78972V2.65438C3.55265 2.48897 3.43986 2.36866 3.26693 2.36866H2.094C1.92107 2.36866 1.8158 2.48897 1.8158 2.65438ZM4.84587 2.65438V3.78972C4.84587 3.95513 4.95866 4.07543 5.13159 4.07543H6.30453C6.46994 4.07543 6.58272 3.95513 6.58272 3.78972V2.65438C6.58272 2.48897 6.46994 2.36866 6.30453 2.36866H5.13159C4.95866 2.36866 4.84587 2.48897 4.84587 2.65438ZM1.8158 5.09799V6.23333C1.8158 6.40626 1.92107 6.51152 2.094 6.51152H3.26693C3.43986 6.51152 3.55265 6.40626 3.55265 6.23333V5.09799C3.55265 4.92506 3.43986 4.8198 3.26693 4.8198H2.094C1.92107 4.8198 1.8158 4.92506 1.8158 5.09799ZM4.84587 5.09799V6.23333C4.84587 6.40626 4.95866 6.51152 5.13159 6.51152H6.30453C6.46994 6.51152 6.58272 6.40626 6.58272 6.23333V5.09799C6.58272 4.92506 6.46994 4.8198 6.30453 4.8198H5.13159C4.95866 4.8198 4.84587 4.92506 4.84587 5.09799ZM1.8158 7.54157V8.67691C1.8158 8.84236 1.92107 8.96263 2.094 8.96263H3.26693C3.43986 8.96263 3.55265 8.84236 3.55265 8.67691V7.54157C3.55265 7.3762 3.43986 7.25586 3.26693 7.25586H2.094C1.92107 7.25586 1.8158 7.3762 1.8158 7.54157ZM4.84587 7.54157V8.67691C4.84587 8.84236 4.95866 8.96263 5.13159 8.96263H6.30453C6.46994 8.96263 6.58272 8.84236 6.58272 8.67691V7.54157C6.58272 7.3762 6.46994 7.25586 6.30453 7.25586H5.13159C4.95866 7.25586 4.84587 7.3762 4.84587 7.54157ZM7.29699 14.0002H1.10151C0.515045 14.0002 0.131592 13.5642 0.131592 12.9176V1.08295C0.131592 0.436337 0.515045 0.000244141 1.10151 0.000244141H7.29699C7.89099 0.000244141 8.26694 0.436337 8.26694 1.08295V12.9176C8.26694 13.5642 7.89099 14.0002 7.29699 14.0002ZM2.74814 11.1506V12.9627H5.65039V11.1506C5.65039 10.8649 5.47746 10.6845 5.18422 10.6845H3.22182C2.93611 10.6845 2.74814 10.8649 2.74814 11.1506ZM11.8688 12.9177V3.9101C11.8688 3.25596 11.4854 2.82739 10.899 2.82739H9.14708V5.33115H10.1095C10.2448 5.33115 10.3275 5.41385 10.3275 5.53415V6.40633C10.3275 6.52664 10.2448 6.61686 10.1095 6.61686H9.14708V7.54919H10.1095C10.2448 7.54919 10.3275 7.63189 10.3275 7.75969V8.62439C10.3275 8.7522 10.2448 8.82742 10.1095 8.82742H9.14708V9.75973H10.1095C10.2448 9.75973 10.3275 9.84996 10.3275 9.97777V10.8424C10.3275 10.9627 10.2448 11.053 10.1095 11.053H9.14708V12.9177C9.14708 13.3229 9.04699 13.6937 8.8649 14.0003H10.899C11.4854 14.0003 11.8688 13.5642 11.8688 12.9177Z" fill="currentColor"/>
</svg>
