<svg width="64" height="64" viewBox="0 0 64 64" fill="none" xmlns="http://www.w3.org/2000/svg">
    <path d="M7.97385 5.30762C7.44336 5.30776 6.92497 5.4661 6.48494 5.7624C6.04492 6.05871 5.70325 6.47951 5.50364 6.971C5.30402 7.4625 5.25551 8.00237 5.36432 8.52158C5.47313 9.04079 5.73431 9.51575 6.11448 9.88574L13.9114 17.6826C11.3657 18.977 8.96103 20.5098 6.76552 22.2972C5.05085 23.6919 4.95285 26.2866 6.51552 27.8493C7.81685 29.1506 9.87685 29.3177 11.3489 28.2191C13.9245 26.2944 16.7937 24.7704 19.8489 23.6201L24.0884 27.8597C21.4526 28.5861 18.9468 29.6227 16.6718 31.0316C14.4744 32.3889 14.1107 35.4445 15.9374 37.2712C17.2627 38.5965 19.3061 38.7785 20.9061 37.7972C23.8599 35.984 27.2985 34.9179 30.9686 34.7399L37.0624 40.8337C35.4714 40.2974 33.7704 40.0003 31.9999 40.0003C29.5839 40.0003 27.298 40.5427 25.2447 41.5107C23.57 42.2974 23.1854 44.5191 24.4947 45.8284L29.2447 50.5784C30.7674 52.1011 33.2324 52.1011 34.7551 50.5784L39.5051 45.8284C40.0057 45.3279 40.2583 44.6937 40.2864 44.0576L54.1145 57.8857C54.3602 58.1417 54.6545 58.346 54.9802 58.4868C55.3059 58.6275 55.6564 58.7019 56.0111 58.7055C56.3659 58.7091 56.7178 58.6419 57.0463 58.5078C57.3748 58.3737 57.6732 58.1754 57.9241 57.9245C58.175 57.6736 58.3733 57.3752 58.5074 57.0467C58.6415 56.7183 58.7087 56.3663 58.7051 56.0116C58.7015 55.6568 58.6271 55.3063 58.4863 54.9806C58.3456 54.6549 58.1412 54.3606 57.8853 54.1149L9.88531 6.11491C9.6368 5.85946 9.33962 5.6564 9.01131 5.51775C8.683 5.37909 8.33024 5.30764 7.97385 5.30762ZM31.9999 13.3337C29.6932 13.3337 27.4368 13.5385 25.2395 13.9118L32.6874 21.3649C40.1647 21.5142 47.0536 24.0377 52.6509 28.2191C54.1256 29.3204 56.1829 29.1454 57.4843 27.8441C59.0469 26.2814 58.9463 23.6867 57.2343 22.292C50.3516 16.692 41.5679 13.3337 31.9999 13.3337ZM38.8176 27.4899L48.302 36.9743C49.8566 35.1476 49.4624 32.3534 47.3957 31.068C44.7797 29.444 41.8896 28.2312 38.8176 27.4899Z" fill="currentColor"/>
</svg>
