<svg width="12" height="12" viewBox="0 0 12 12" fill="none" xmlns="http://www.w3.org/2000/svg">
<path d="M1.33333 0C0.604625 0 0 0.604625 0 1.33333V10.6667C0 11.3954 0.604625 12 1.33333 12H10.6667C11.3954 12 12 11.3954 12 10.6667V6.66667C12 6.29848 11.7015 6 11.3333 6C10.9651 6 10.6667 6.29848 10.6667 6.66667V10.1667C10.6667 10.4428 10.4428 10.6667 10.1667 10.6667H1.83333C1.55719 10.6667 1.33333 10.4428 1.33333 10.1667V1.83333C1.33333 1.55719 1.55719 1.33333 1.83333 1.33333H5.33333C5.70152 1.33333 6 1.03486 6 0.666667C6 0.298477 5.70152 0 5.33333 0H1.33333ZM8 0C7.63181 0 7.33333 0.298477 7.33333 0.666667C7.33333 1.03486 7.63181 1.33333 8 1.33333H9.72396L4 7.05729C3.73968 7.31761 3.73968 7.73968 4 8C4.26032 8.26032 4.68239 8.26032 4.94271 8L10.6667 2.27604V4C10.6667 4.36819 10.9651 4.66667 11.3333 4.66667C11.7015 4.66667 12 4.36819 12 4V1C12 0.447715 11.5523 0 11 0H8Z" fill="currentColor"/>
</svg>
