<svg width="18" height="14" viewBox="0 0 18 14" fill="none" xmlns="http://www.w3.org/2000/svg">
<g clip-path="url(#clip0_735_19209)">
<path d="M15.5652 4.52776C15.5652 4.73286 15.4202 4.8696 15.214 4.8696H13.7713C13.5804 4.8696 13.4277 4.73286 13.4277 4.52776V3.10724C13.4277 2.89455 13.5728 2.75781 13.7713 2.75781H15.214C15.4277 2.75781 15.5652 2.89455 15.5652 3.10724V4.52776Z" fill="currentColor"/>
<path d="M15.5652 7.71822C15.5652 7.90811 15.4202 8.06003 15.214 8.06003H13.7713C13.5804 8.06003 13.4277 7.90811 13.4277 7.71822V6.28251C13.4277 6.08501 13.5728 5.93308 13.7713 5.93308H15.214C15.4277 5.93308 15.5652 6.08501 15.5652 6.28251V7.71822Z" fill="currentColor"/>
<path d="M15.5652 10.8935C15.5652 11.0986 15.4202 11.2353 15.214 11.2353H13.7713C13.5804 11.2353 13.4277 11.0986 13.4277 10.8935V9.47294C13.4277 9.2679 13.5728 9.12353 13.7713 9.12353H15.214C15.4277 9.12353 15.5652 9.2679 15.5652 9.47294V10.8935Z" fill="currentColor"/>
<path fill-rule="evenodd" clip-rule="evenodd" d="M15.6031 14.0004H2.39695C0.801528 14.0004 0 13.2181 0 11.6456V2.37049C0 0.798047 0.801528 0.015625 2.39695 0.015625H15.6031C17.2061 0.015625 18 0.805646 18 2.37049V11.6456C18 13.2104 17.2061 14.0004 15.6031 14.0004ZM1.22901 11.5849C1.22901 12.3749 1.64886 12.7775 2.41222 12.7775H11.0078V1.23864H2.41222C1.64886 1.23864 1.22901 1.64124 1.22901 2.43126V11.5849ZM12.2063 1.23864V12.7775H15.5878C16.3435 12.7775 16.771 12.3749 16.771 11.5849V2.43126C16.771 1.64124 16.3435 1.23864 15.5878 1.23864H12.2063Z" fill="currentColor"/>
</g>
<defs>
<clipPath id="clip0_735_19209">
<rect width="18" height="14" fill="white"/>
</clipPath>
</defs>
</svg>
