<svg width="22" height="20" viewBox="0 0 22 20" fill="none" xmlns="http://www.w3.org/2000/svg">
    <path d="M3.63805 15.29H18.4249L18.0831 16.7324C17.8932 17.5186 17.5704 18.1068 17.1147 18.4971C16.659 18.893 16.0595 19.091 15.3162 19.091H6.74679C5.99809 19.091 5.39587 18.893 4.94014 18.4971C4.48441 18.1068 4.16431 17.5186 3.97984 16.7324L3.63805 15.29ZM3.19045 13.3896L2.05926 8.54503L4.0775 7.17906L6.86886 9.16439C6.92854 9.20398 6.98008 9.22095 7.02348 9.21529C7.07231 9.20964 7.113 9.18136 7.14556 9.13045L10.2217 4.75256H11.8412L14.9662 9.20681C15.0422 9.31428 15.1344 9.32842 15.2429 9.24923L18.0506 7.24694L20.077 8.27354L18.8644 13.3896H3.19045ZM2.44175 9.51224C2.01314 9.51224 1.6198 9.40195 1.26173 9.18136C0.903651 8.96076 0.618819 8.66664 0.407229 8.29899C0.195639 7.92568 0.0898438 7.50995 0.0898438 7.0518C0.0898438 6.60496 0.195639 6.19772 0.407229 5.83006C0.618819 5.45676 0.903651 5.15981 1.26173 4.93921C1.6198 4.71862 2.01314 4.60833 2.44175 4.60833C2.8812 4.60833 3.27726 4.71862 3.62991 4.93921C3.98798 5.15981 4.27281 5.45676 4.4844 5.83006C4.69599 6.19772 4.80179 6.60496 4.80179 7.0518C4.80179 7.50995 4.69599 7.92568 4.4844 8.29899C4.27281 8.66664 3.98798 8.96076 3.62991 9.18136C3.27726 9.40195 2.8812 9.51224 2.44175 9.51224ZM11.0274 5.80461C10.5934 5.80461 10.1973 5.69431 9.83926 5.47372C9.48661 5.25313 9.20449 4.95618 8.9929 4.58287C8.78131 4.20957 8.67551 3.79949 8.67551 3.35265C8.67551 2.90581 8.78131 2.49857 8.9929 2.13092C9.20449 1.75761 9.48661 1.46066 9.83926 1.24007C10.1973 1.01948 10.5934 0.90918 11.0274 0.90918C11.4614 0.90918 11.8548 1.01948 12.2074 1.24007C12.5601 1.46066 12.8422 1.75761 13.0538 2.13092C13.2708 2.49857 13.3793 2.90581 13.3793 3.35265C13.3793 3.79949 13.2708 4.20957 13.0538 4.58287C12.8422 4.95618 12.5601 5.25313 12.2074 5.47372C11.8548 5.69431 11.4614 5.80461 11.0274 5.80461ZM19.5643 9.51224C19.1302 9.51224 18.7342 9.40195 18.3761 9.18136C18.0235 8.96076 17.7413 8.66664 17.5297 8.29899C17.3182 7.92568 17.2124 7.50995 17.2124 7.0518C17.2124 6.60496 17.3182 6.19772 17.5297 5.83006C17.7413 5.45676 18.0235 5.15981 18.3761 4.93921C18.7342 4.71862 19.1302 4.60833 19.5643 4.60833C19.9929 4.60833 20.3835 4.71862 20.7361 4.93921C21.0942 5.15981 21.3791 5.45676 21.5906 5.83006C21.8022 6.19772 21.908 6.60496 21.908 7.0518C21.908 7.50995 21.8022 7.92568 21.5906 8.29899C21.3791 8.66664 21.0942 8.96076 20.7361 9.18136C20.3835 9.40195 19.9929 9.51224 19.5643 9.51224Z" fill="currentColor"/>
</svg>
