<svg xmlns="http://www.w3.org/2000/svg" width="64" height="64" viewBox="0 0 64 64" fill="none">
    <g clip-path="url(#clip0_3443_29856)">
        <path d="M37.4875 64C39.7692 64 41.3633 62.1037 42.4619 59.1956L62.0449 7.06158C62.5632 5.71431 62.8441 4.50191 62.8441 3.49026C62.8441 1.33998 61.5233 0 59.4118 0C58.4132 0 57.2228 0.286004 55.9053 0.808457L4.49804 20.8582C1.93494 21.8475 0 23.4711 0 25.8197C0 28.7048 2.11543 29.7726 5.02941 30.6766L20.424 35.4609C22.4949 36.1201 23.7079 36.0758 25.1554 34.725L58.1913 3.52775C58.6038 3.14316 59.0972 3.19821 59.41 3.49753C59.7176 3.81621 59.758 4.31869 59.375 4.73894L28.8465 38.4517C27.5712 39.8381 27.4661 41.122 28.0783 43.2564L32.6647 58.6436C33.5767 61.7353 34.6306 64 37.4875 64Z" fill="url(#paint0_linear_3443_29856)"/>
    </g>
    <defs>
        <linearGradient id="paint0_linear_3443_29856" x1="-3.54827e-07" y1="-0.727266" x2="66.1948" y2="2.94954" gradientUnits="userSpaceOnUse">
            <stop stop-color="#2091F6"/>
            <stop offset="1" stop-color="#21B568"/>
        </linearGradient>
        <clipPath id="clip0_3443_29856">
            <rect width="64" height="64" fill="white"/>
        </clipPath>
    </defs>
</svg>
