<svg width="20" height="20" viewBox="0 0 20 20" fill="none" xmlns="http://www.w3.org/2000/svg">
<g id="Action icons/Paper plane" clip-path="url(#clip0_5075_138)">
<path id="Vector" d="M11.7148 20C12.4279 20 12.926 19.4074 13.2693 18.4986L19.389 2.20674C19.551 1.78572 19.6388 1.40685 19.6388 1.09071C19.6388 0.418744 19.226 0 18.5662 0C18.2541 0 17.8821 0.0893762 17.4704 0.252643L1.40564 6.51819C0.604668 6.82734 0 7.33471 0 8.06866C0 8.97024 0.661071 9.30394 1.57169 9.58645L6.38251 11.0815C7.02966 11.2875 7.40872 11.2737 7.86106 10.8516L18.1848 1.10242C18.3137 0.982239 18.4679 0.999441 18.5656 1.09298C18.6618 1.19256 18.6744 1.34959 18.5547 1.48092L9.01454 12.0161C8.61601 12.4494 8.58317 12.8506 8.77446 13.5176L10.2077 18.3261C10.4927 19.2923 10.8221 20 11.7148 20Z" fill="currentColor"/>
</g>
<defs>
<clipPath id="clip0_5075_138">
<rect width="20" height="20" fill="white"/>
</clipPath>
</defs>
</svg>
