<svg width="17" height="15" viewBox="0 0 17 15" fill="none" xmlns="http://www.w3.org/2000/svg">
<path d="M4.11505 2.074H2.43505V3.796L0.839047 3.278L0.321047 4.818L1.93105 5.35L0.951047 6.708L2.26705 7.674L3.27505 6.302L4.29705 7.674L5.61305 6.708L4.63305 5.35L6.24305 4.818L5.71105 3.278L4.11505 3.796V2.074ZM10.9373 2.074H9.25731V3.796L7.66131 3.278L7.14331 4.818L8.75331 5.35L7.77331 6.708L9.08931 7.674L10.0973 6.302L11.1193 7.674L12.4353 6.708L11.4553 5.35L13.0653 4.818L12.5333 3.278L10.9373 3.796V2.074ZM16.2056 14.268V0.478H14.4416V14.268H16.2056Z" fill="currentColor"/>
</svg>
