<svg width="14" height="14" viewBox="0 0 14 14" fill="none" xmlns="http://www.w3.org/2000/svg">
<path fill-rule="evenodd" clip-rule="evenodd" d="M11.9 6.3H2.09998V12.6C2.09998 13.3732 2.72679 14 3.49998 14H10.5C11.2732 14 11.9 13.3732 11.9 12.6V6.3ZM7.99994 9.4C7.99994 9.77014 7.79888 10.0933 7.49998 10.2662V11.4C7.49998 11.6761 7.2761 11.9 6.99997 11.9C6.7238 11.9 6.49997 11.6761 6.49997 11.4V10.2662C6.20107 10.0933 5.99996 9.77014 5.99996 9.4C5.99996 8.84771 6.44767 8.4 6.99997 8.4C7.55223 8.4 7.99994 8.84771 7.99994 9.4Z" fill="currentColor"/>
<path fill-rule="evenodd" clip-rule="evenodd" d="M3.49998 3.5C3.49998 1.567 5.06698 0 6.99997 0C8.93297 0 10.5 1.567 10.5 3.5V4.9H9.09997V3.5C9.09997 2.3402 8.15977 1.4 6.99997 1.4C5.84018 1.4 4.89998 2.3402 4.89998 3.5V4.9H3.49998V3.5Z" fill="currentColor"/>
</svg>
