<svg width="40" height="30" viewBox="0 0 40 30" fill="none" xmlns="http://www.w3.org/2000/svg">
<path d="M30.5449 26.8184H35.6358V29.4602C35.6358 29.6078 35.5162 29.7275 35.3686 29.7275H30.8122C30.6646 29.7275 30.5449 29.6078 30.5449 29.4602V26.8184Z" fill="currentColor"/>
<path d="M4.36328 26.8184H9.45419V29.4602C9.45419 29.6078 9.33453 29.7275 9.18692 29.7275H4.63055C4.48294 29.7275 4.36328 29.6078 4.36328 29.4602V26.8184Z" fill="currentColor"/>
<path fill-rule="evenodd" clip-rule="evenodd" d="M0 4.3172C0 2.20848 1.70946 0.499023 3.81818 0.499023H36.1818C38.2905 0.499023 40 2.20848 40 4.3172V23.2263C40 25.335 38.2905 27.0445 36.1818 27.0445H3.81818C1.70946 27.0445 0 25.335 0 23.2263V4.3172ZM4.09073 2.68066C3.03637 2.68066 2.18164 3.53539 2.18164 4.58975V22.9534C2.18164 24.0078 3.03637 24.8625 4.09073 24.8625H35.9089C36.9633 24.8625 37.818 24.0078 37.818 22.9534V4.58976C37.818 3.53539 36.9633 2.68066 35.9089 2.68066H4.09073ZM32.8182 13.954C32.8182 17.7698 29.7249 20.8631 25.9091 20.8631C22.0933 20.8631 19 17.7698 19 13.954C19 10.1382 22.0933 7.04492 25.9091 7.04492C29.7249 7.04492 32.8182 10.1382 32.8182 13.954ZM26.2001 10.024C25.8045 10.024 25.4216 10.1049 25.062 10.2646C24.9315 10.322 24.7791 10.262 24.7217 10.1291C24.6645 9.99635 24.7242 9.8415 24.855 9.78344C25.2802 9.59477 25.7328 9.49902 26.2001 9.49902C28.0529 9.49902 29.5601 11.0298 29.5601 12.9115C29.5601 13.0565 29.4444 13.174 29.3017 13.174C29.1589 13.174 29.0432 13.0565 29.0432 12.9115C29.0432 11.3193 27.7678 10.024 26.2001 10.024ZM26.1998 10.5491C24.9172 10.5491 23.8736 11.6089 23.8736 12.9116V13.4366C23.8736 13.5815 23.9893 13.6991 24.1321 13.6991C24.2748 13.6991 24.3905 13.5815 24.3905 13.4366V12.9116C24.3905 11.8983 25.2021 11.0741 26.1998 11.0741C26.6163 11.0741 27.0076 11.2136 27.3314 11.4779C27.4431 11.5685 27.6054 11.5507 27.6949 11.4377C27.7842 11.3246 27.7664 11.1594 27.6552 11.0685C27.2446 10.7335 26.7277 10.5491 26.1998 10.5491ZM26.2 11.5991C25.4875 11.5991 24.9077 12.1879 24.9077 12.9116V17.1116C24.9077 17.2567 25.0234 17.3741 25.1662 17.3741C25.3089 17.3741 25.4246 17.2567 25.4246 17.1116V12.9116C25.4246 12.4773 25.7724 12.1241 26.2 12.1241C26.6276 12.1241 26.9754 12.4773 26.9754 12.9116C26.9754 13.0566 27.0911 13.1741 27.2339 13.1741C27.3766 13.1741 27.4923 13.0566 27.4923 12.9116C27.4923 12.1879 26.9126 11.5991 26.2 11.5991ZM26.1998 12.6491C26.057 12.6491 25.9413 12.7667 25.9413 12.9116V15.2741C25.9413 15.4191 26.057 15.5366 26.1998 15.5366C26.3425 15.5366 26.4582 15.4191 26.4582 15.2741V12.9116C26.4582 12.7667 26.3425 12.6491 26.1998 12.6491ZM25.9413 16.3241C25.9413 16.1791 26.057 16.0616 26.1998 16.0616C26.3425 16.0616 26.4582 16.1791 26.4582 16.3241V17.6366C26.4582 17.7817 26.3425 17.8991 26.1998 17.8991C26.057 17.8991 25.9413 17.7817 25.9413 17.6366V16.3241ZM27.2339 13.6989C27.0912 13.6989 26.9754 13.8164 26.9754 13.9614V17.1114C26.9754 17.2565 27.0912 17.3739 27.2339 17.3739C27.3766 17.3739 27.4923 17.2565 27.4923 17.1114V13.9614C27.4923 13.8164 27.3766 13.6989 27.2339 13.6989ZM23.8736 14.4866C23.8736 14.3416 23.9893 14.2241 24.1321 14.2241C24.2748 14.2241 24.3905 14.3416 24.3905 14.4866V16.3241C24.3905 16.4692 24.2748 16.5866 24.1321 16.5866C23.9893 16.5866 23.8736 16.4692 23.8736 16.3241V14.4866ZM29.3016 13.6989C29.1589 13.6989 29.0431 13.8164 29.0431 13.9614V15.2739C29.0431 15.4189 29.1589 15.5364 29.3016 15.5364C29.4443 15.5364 29.5601 15.4189 29.5601 15.2739V13.9614C29.5601 13.8164 29.4443 13.6989 29.3016 13.6989ZM27.8781 12.2232C27.8246 12.0887 27.8885 11.9358 28.0209 11.8813C28.154 11.8271 28.3039 11.892 28.3574 12.0263C28.4695 12.3076 28.5263 12.6055 28.5263 12.9116V16.3241C28.5263 16.4692 28.4106 16.5866 28.2678 16.5866C28.1251 16.5866 28.0094 16.4692 28.0094 16.3241V12.9116C28.0094 12.6733 27.9652 12.4417 27.8781 12.2232ZM24.0606 10.616C23.9541 10.5191 23.791 10.5286 23.6957 10.6365C23.1439 11.2627 22.84 12.0705 22.84 12.9116V15.2741C22.84 15.4191 22.9557 15.5366 23.0985 15.5366C23.2412 15.5366 23.3569 15.4191 23.3569 15.2741V12.9116C23.3569 12.2 23.614 11.5163 24.0808 10.9867C24.176 10.8787 24.167 10.7127 24.0606 10.616Z" fill="currentColor"/>
</svg>
