<svg fill="currentColor" xmlns="http://www.w3.org/2000/svg" viewBox="0 0 19.4 19.4" width="20" height="20"><g fill-rule="evenodd" clip-rule="evenodd"><path d="M11.73 7.82a5.351 5.351 0 0 1-5.981 3.003l-.44.96.915 2.467-2.466.916.915 2.467-3.7 1.373-.915-2.466 3.207-6.994A5.349 5.349 0 1 1 11.73 7.82ZM8.736 5.424a1.628 1.628 0 1 1-2.96-1.357 1.628 1.628 0 0 1 2.96 1.357Z"/><path d="M10.427 11.115A6.514 6.514 0 0 0 11.52.565a5.35 5.35 0 0 1 3.395 9.607l.441.96 2.468.913-.912 2.468 2.467.912-1.369 3.702-2.467-.912-3.216-6.99a5.336 5.336 0 0 1-1.9-.11Z"/></g></svg>