<svg width="14" height="14" viewBox="0 0 14 14" fill="none" xmlns="http://www.w3.org/2000/svg">
<path d="M7.00545 11.257C6.32217 11.257 5.67342 11.1734 5.05919 11.0062C4.4486 10.8427 3.88344 10.6246 3.36371 10.352C2.84398 10.0794 2.37695 9.77959 1.96262 9.45249C1.54829 9.12175 1.19393 8.79102 0.899533 8.46028C0.608775 8.12954 0.385254 7.82425 0.228972 7.54439C0.076324 7.2609 0 7.03193 0 6.85748C0 6.65031 0.1054 6.37227 0.316199 6.02336C0.526999 5.67445 0.82866 5.30192 1.22118 4.90576C1.61371 4.50961 2.07892 4.14071 2.61682 3.79907L4.43224 5.62539C4.33775 5.81075 4.26506 6.00701 4.21417 6.21417C4.16693 6.42134 4.1433 6.63577 4.1433 6.85748C4.14694 7.37721 4.27596 7.85151 4.53037 8.28037C4.78842 8.70924 5.13188 9.05452 5.56075 9.3162C5.98962 9.57425 6.47118 9.70327 7.00545 9.70327C7.22352 9.70327 7.43432 9.67965 7.63785 9.6324C7.84502 9.58152 8.03946 9.50883 8.22118 9.41433L9.61137 10.8045C9.21885 10.9463 8.80452 11.0571 8.36838 11.1371C7.93224 11.217 7.47793 11.257 7.00545 11.257ZM11.5304 9.83956L9.62773 7.92601C9.70405 7.76246 9.7622 7.59164 9.80218 7.41355C9.84216 7.23183 9.86215 7.04647 9.86215 6.85748C9.86215 6.33048 9.73313 5.85254 9.47508 5.42368C9.21703 4.99117 8.87175 4.64772 8.43925 4.3933C8.00675 4.13889 7.52882 4.01168 7.00545 4.01168C6.81282 4.01168 6.62747 4.03167 6.44938 4.07165C6.27129 4.108 6.10047 4.15888 5.93692 4.2243L4.55763 2.85592C4.93198 2.72871 5.32269 2.63058 5.72975 2.56153C6.14045 2.49247 6.56568 2.45794 7.00545 2.45794C7.696 2.45794 8.34657 2.54154 8.95716 2.70872C9.57139 2.87227 10.1384 3.09034 10.6581 3.36293C11.1815 3.63551 11.6485 3.93718 12.0592 4.26791C12.4735 4.59502 12.8242 4.92575 13.1114 5.26012C13.3985 5.59086 13.6184 5.89616 13.771 6.17601C13.9237 6.45587 14 6.68302 14 6.85748C14 7.06101 13.8982 7.33359 13.6947 7.67523C13.4912 8.01687 13.204 8.38032 12.8333 8.76558C12.4663 9.1472 12.0319 9.50519 11.5304 9.83956ZM5.34813 6.75935C5.34813 6.72664 5.34995 6.69392 5.35358 6.66121C5.35722 6.62487 5.35903 6.58853 5.35903 6.55218L7.19626 8.38396C7.15992 8.38759 7.12539 8.39123 7.09268 8.39486C7.0636 8.39486 7.03271 8.39486 7 8.39486C6.69834 8.39486 6.42212 8.32217 6.17134 8.17679C5.92056 8.02778 5.72066 7.8297 5.57165 7.58255C5.42264 7.33178 5.34813 7.05737 5.34813 6.75935ZM8.65187 6.74844C8.65187 6.78115 8.65005 6.81386 8.64642 6.84657C8.64642 6.87565 8.6446 6.90472 8.64097 6.9338L6.831 5.12383C6.86007 5.1202 6.88915 5.11838 6.91822 5.11838C6.95093 5.11838 6.98183 5.11838 7.0109 5.11838C7.3162 5.11838 7.59242 5.19107 7.83956 5.33645C8.08671 5.48183 8.28297 5.67809 8.42835 5.92523C8.57736 6.17238 8.65187 6.44678 8.65187 6.74844ZM11.0452 11.3715L2.36059 2.69237C2.28063 2.61604 2.24065 2.52155 2.24065 2.40888C2.24065 2.29258 2.28063 2.19808 2.36059 2.12539C2.43692 2.0418 2.53141 2 2.64408 2C2.75675 2 2.85488 2.0418 2.93847 2.12539L11.6176 10.7991C11.6976 10.879 11.7375 10.9717 11.7375 11.0771C11.7412 11.1861 11.7012 11.2843 11.6176 11.3715C11.534 11.4551 11.4377 11.4951 11.3287 11.4914C11.2196 11.4914 11.1251 11.4515 11.0452 11.3715Z" fill="currentColor"/>
</svg>
