<svg width="10" height="9" viewBox="0 0 10 9" fill="none" xmlns="http://www.w3.org/2000/svg">
<path d="M2.50769 1.328V2.312L3.41969 2.016L3.72369 2.896L2.80369 3.2L3.36369 3.976L2.61169 4.528L2.02769 3.744L1.45169 4.528L0.699688 3.976L1.25969 3.2L0.339688 2.896L0.635688 2.016L1.54769 2.312V1.328H2.50769ZM6.21081 1.328V2.312L7.12281 2.016L7.42681 2.896L6.50681 3.2L7.06681 3.976L6.31481 4.528L5.73081 3.744L5.15481 4.528L4.40281 3.976L4.96281 3.2L4.04281 2.896L4.33881 2.016L5.25081 2.312V1.328H6.21081ZM9.20994 8.296H8.20194V0.416H9.20994V8.296Z" fill="white"/>
</svg>
