<svg width="392" height="306" viewBox="0 0 392 306" fill="none" xmlns="http://www.w3.org/2000/svg">
    <path fill-rule="evenodd" clip-rule="evenodd" d="M76.4068 86.3729C87.1851 86.3729 96.8736 90.8979 103.562 98.0958C111.732 90.8141 122.606 86.3729 134.542 86.3729C159.923 86.3729 180.497 106.452 180.497 131.22C180.497 132.416 180.449 133.601 180.355 134.773C196.128 141.877 207.073 157.448 207.073 175.514C207.073 200.283 186.499 220.362 161.119 220.362C147.21 220.362 134.744 214.332 126.317 204.804C118.276 215.295 103.644 220.362 86.9266 220.362C65.5713 220.362 47.6182 212.093 42.4612 194.813C41.6027 194.866 40.7368 194.893 39.8644 194.893C17.8479 194.893 0 177.788 0 156.689C0 135.59 17.8479 118.486 39.8644 118.486L40.0228 118.486C41.7498 100.474 57.3801 86.3729 76.4068 86.3729Z" fill="url(#paint0_linear)"/>
    <g filter="url(#filter0_f)">
        <path fill-rule="evenodd" clip-rule="evenodd" d="M172.746 189.356H287.301V200.438H172.746V189.356Z" fill="#1B3554"/>
    </g>
    <path opacity="0.341882" fill-rule="evenodd" clip-rule="evenodd" d="M225.345 304.52C305.154 304.52 369.853 239.821 369.853 160.011C369.853 80.2015 305.154 15.5028 225.345 15.5028C145.535 15.5028 80.8362 80.2015 80.8362 160.011C80.8362 239.821 145.535 304.52 225.345 304.52Z" stroke="white" stroke-width="2" stroke-linecap="round" stroke-linejoin="round" stroke-dasharray="1 12"/>
    <g filter="url(#filter1_d)">
        <path fill-rule="evenodd" clip-rule="evenodd" d="M152.814 111.305C152.814 108.544 155.052 106.305 157.814 106.305H293.983C296.744 106.305 298.983 108.544 298.983 111.305V207.61C298.983 210.372 296.744 212.61 293.983 212.61H157.814C155.052 212.61 152.814 210.372 152.814 207.61V111.305Z" fill="white"/>
    </g>
    <mask id="mask0" mask-type="alpha" maskUnits="userSpaceOnUse" x="152" y="106" width="147" height="107">
        <path fill-rule="evenodd" clip-rule="evenodd" d="M152.814 111.305C152.814 108.544 155.052 106.305 157.814 106.305H293.983C296.744 106.305 298.983 108.544 298.983 111.305V207.61C298.983 210.372 296.744 212.61 293.983 212.61H157.814C155.052 212.61 152.814 210.372 152.814 207.61V111.305Z" fill="white"/>
    </mask>
    <g mask="url(#mask0)">
        <path fill-rule="evenodd" clip-rule="evenodd" d="M160.928 119.005C160.928 118.452 161.376 118.005 161.928 118.005H290.132C290.684 118.005 291.132 118.452 291.132 119.005V199.457C291.132 200.009 290.684 200.457 290.132 200.457H161.928C161.376 200.457 160.928 200.009 160.928 199.457V119.005Z" fill="#141729"/>
    </g>
    <path fill-rule="evenodd" clip-rule="evenodd" d="M370.139 148.817C381.916 148.817 391.464 139.3 391.464 127.561C391.464 115.822 381.916 106.305 370.139 106.305C358.361 106.305 348.814 115.822 348.814 127.561C348.814 139.3 358.361 148.817 370.139 148.817Z" fill="#00CC74"/>
    <path d="M372.698 118.58L371.823 130.755H369.023L368.148 118.58H372.698ZM368.248 134.405C368.248 133.805 368.456 133.297 368.873 132.88C369.289 132.447 369.798 132.23 370.398 132.23C370.998 132.23 371.506 132.447 371.923 132.88C372.356 133.297 372.573 133.805 372.573 134.405C372.573 134.988 372.356 135.497 371.923 135.93C371.506 136.347 370.998 136.555 370.398 136.555C369.798 136.555 369.289 136.347 368.873 135.93C368.456 135.497 368.248 134.988 368.248 134.405Z" fill="white"/>
    <path fill-rule="evenodd" clip-rule="evenodd" d="M295.661 305.627C305.446 305.627 313.379 297.943 313.379 288.463C313.379 278.984 305.446 271.299 295.661 271.299C285.876 271.299 277.943 278.984 277.943 288.463C277.943 297.943 285.876 305.627 295.661 305.627Z" fill="#00CC74"/>
    <path d="M297.494 281.119L296.794 290.859H294.554L293.854 281.119H297.494ZM293.934 293.779C293.934 293.299 294.1 292.893 294.434 292.559C294.767 292.213 295.174 292.039 295.654 292.039C296.134 292.039 296.54 292.213 296.874 292.559C297.22 292.893 297.394 293.299 297.394 293.779C297.394 294.246 297.22 294.653 296.874 294.999C296.54 295.333 296.134 295.499 295.654 295.499C295.174 295.499 294.767 295.333 294.434 294.999C294.1 294.653 293.934 294.246 293.934 293.779Z" fill="white"/>
    <path fill-rule="evenodd" clip-rule="evenodd" d="M183.531 52.4055C198.05 52.4055 209.82 40.6741 209.82 26.2028C209.82 11.7314 198.05 0 183.531 0C169.013 0 157.243 11.7314 157.243 26.2028C157.243 40.6741 169.013 52.4055 183.531 52.4055Z" fill="#00CC74"/>
    <path fill-rule="evenodd" clip-rule="evenodd" d="M95.4485 246.09C110.246 246.09 122.242 234.133 122.242 219.384C122.242 204.635 110.246 192.678 95.4485 192.678C80.6511 192.678 68.6554 204.635 68.6554 219.384C68.6554 234.133 80.6511 246.09 95.4485 246.09Z" fill="#00CC74"/>
    <path d="M97.9807 209.408L96.9307 224.018H93.5707L92.5207 209.408H97.9807ZM92.6407 228.398C92.6407 227.678 92.8907 227.068 93.3907 226.568C93.8907 226.048 94.5007 225.788 95.2207 225.788C95.9407 225.788 96.5507 226.048 97.0507 226.568C97.5707 227.068 97.8307 227.678 97.8307 228.398C97.8307 229.098 97.5707 229.708 97.0507 230.228C96.5507 230.728 95.9407 230.978 95.2207 230.978C94.5007 230.978 93.8907 230.728 93.3907 230.228C92.8907 229.708 92.6407 229.098 92.6407 228.398Z" fill="white"/>
    <path d="M168.576 136V131.968H170.816C172.65 131.968 173.644 130.89 173.644 129.098C173.644 127.306 172.65 126.228 170.816 126.228H167.218V136H168.576ZM168.576 127.376H170.69C171.67 127.376 172.216 127.866 172.216 128.762V129.434C172.216 130.33 171.67 130.82 170.69 130.82H168.576V127.376ZM182.151 136V134.922H181.185V131.1C181.185 129.518 180.093 128.608 178.343 128.608C176.845 128.608 175.893 129.294 175.515 130.05L176.341 130.708C176.719 130.064 177.293 129.672 178.245 129.672C179.309 129.672 179.883 130.19 179.883 131.212V131.856H178.413C176.257 131.856 175.277 132.612 175.277 133.984C175.277 135.342 176.243 136.168 177.727 136.168C178.889 136.168 179.603 135.65 179.911 134.81H179.981C180.065 135.51 180.443 136 181.297 136H182.151ZM178.035 135.146C177.167 135.146 176.621 134.782 176.621 134.082V133.788C176.621 133.116 177.195 132.752 178.427 132.752H179.883V133.872C179.883 134.6 179.113 135.146 178.035 135.146ZM187.045 136.168C188.949 136.168 190.153 135.314 190.153 133.872C190.153 132.346 188.795 132.01 187.703 131.856L186.569 131.688C185.939 131.59 185.365 131.408 185.365 130.708C185.365 130.022 185.953 129.644 187.017 129.644C188.235 129.644 188.879 130.12 189.229 130.54L190.027 129.756C189.355 129.042 188.389 128.608 187.073 128.608C185.309 128.608 184.077 129.364 184.077 130.82C184.077 132.346 185.449 132.682 186.527 132.836L187.661 133.004C188.305 133.102 188.865 133.284 188.865 133.97C188.865 134.768 188.123 135.132 187.073 135.132C185.953 135.132 185.169 134.726 184.511 134.026L183.685 134.768C184.399 135.622 185.519 136.168 187.045 136.168ZM195.44 136.168C197.344 136.168 198.548 135.314 198.548 133.872C198.548 132.346 197.19 132.01 196.098 131.856L194.964 131.688C194.334 131.59 193.76 131.408 193.76 130.708C193.76 130.022 194.348 129.644 195.412 129.644C196.63 129.644 197.274 130.12 197.624 130.54L198.422 129.756C197.75 129.042 196.784 128.608 195.468 128.608C193.704 128.608 192.472 129.364 192.472 130.82C192.472 132.346 193.844 132.682 194.922 132.836L196.056 133.004C196.7 133.102 197.26 133.284 197.26 133.97C197.26 134.768 196.518 135.132 195.468 135.132C194.348 135.132 193.564 134.726 192.906 134.026L192.08 134.768C192.794 135.622 193.914 136.168 195.44 136.168ZM200.992 136H202.644L203.736 130.162H203.848L204.912 136H206.564L207.614 128.776H206.522L205.752 134.95H205.626L204.464 128.776H203.12L201.972 134.95H201.832L201.076 128.776H199.942L200.992 136ZM212.173 136.168C214.245 136.168 215.519 134.698 215.519 132.388C215.519 130.078 214.245 128.608 212.173 128.608C210.101 128.608 208.827 130.078 208.827 132.388C208.827 134.698 210.101 136.168 212.173 136.168ZM212.173 135.09C210.983 135.09 210.213 134.376 210.213 132.92V131.856C210.213 130.4 210.983 129.686 212.173 129.686C213.363 129.686 214.133 130.4 214.133 131.856V132.92C214.133 134.376 213.363 135.09 212.173 135.09ZM217.431 136H223.493V134.922H220.763V131.982C220.763 130.918 221.463 130.05 222.807 130.05H224.207V128.776H223.255C221.757 128.776 221.113 129.672 220.847 130.638H220.763V128.776H217.431V129.854H219.461V134.922H217.431V136ZM230.628 136H231.93V125.64H230.628V129.98H230.558C230.124 129.098 229.396 128.608 228.346 128.608C226.624 128.608 225.546 129.98 225.546 132.388C225.546 134.796 226.624 136.168 228.346 136.168C229.396 136.168 230.124 135.678 230.558 134.796H230.628V136ZM228.878 135.062C227.646 135.062 226.932 134.236 226.932 132.99V131.786C226.932 130.54 227.646 129.714 228.878 129.714C229.816 129.714 230.628 130.204 230.628 131.128V133.648C230.628 134.572 229.816 135.062 228.878 135.062Z" fill="#00CC74"/>
    <path d="M186.015 15.73L184.965 30.34H181.605L180.555 15.73H186.015ZM180.675 34.72C180.675 34 180.925 33.39 181.425 32.89C181.925 32.37 182.535 32.11 183.255 32.11C183.975 32.11 184.585 32.37 185.085 32.89C185.605 33.39 185.865 34 185.865 34.72C185.865 35.42 185.605 36.03 185.085 36.55C184.585 37.05 183.975 37.3 183.255 37.3C182.535 37.3 181.925 37.05 181.425 36.55C180.925 36.03 180.675 35.42 180.675 34.72Z" fill="white"/>
    <rect opacity="0.8" x="235.825" y="122.915" width="6.64407" height="14.3955" rx="2" fill="#00CC74"/>
    <defs>
        <filter id="filter0_f" x="143.573" y="160.183" width="172.9" height="69.4271" filterUnits="userSpaceOnUse" color-interpolation-filters="sRGB">
            <feFlood flood-opacity="0" result="BackgroundImageFix"/>
            <feBlend mode="normal" in="SourceGraphic" in2="BackgroundImageFix" result="shape"/>
            <feGaussianBlur stdDeviation="14.5862" result="effect1_foregroundBlur"/>
        </filter>
        <filter id="filter1_d" x="142.814" y="92.3051" width="166.169" height="126.305" filterUnits="userSpaceOnUse" color-interpolation-filters="sRGB">
            <feFlood flood-opacity="0" result="BackgroundImageFix"/>
            <feColorMatrix in="SourceAlpha" type="matrix" values="0 0 0 0 0 0 0 0 0 0 0 0 0 0 0 0 0 0 127 0"/>
            <feOffset dy="-4"/>
            <feGaussianBlur stdDeviation="5"/>
            <feColorMatrix type="matrix" values="0 0 0 0 0.191214 0 0 0 0 0.288182 0 0 0 0 0.613202 0 0 0 0.154552 0"/>
            <feBlend mode="normal" in2="BackgroundImageFix" result="effect1_dropShadow"/>
            <feBlend mode="normal" in="SourceGraphic" in2="effect1_dropShadow" result="shape"/>
        </filter>
        <linearGradient id="paint0_linear" x1="103.537" y1="86.3729" x2="103.537" y2="220.362" gradientUnits="userSpaceOnUse">
            <stop stop-color="#282B3D"/>
            <stop offset="1" stop-color="#282B3D" stop-opacity="0"/>
        </linearGradient>
    </defs>
</svg>
