<svg width="14" height="12" viewBox="0 0 14 12" fill="none" xmlns="http://www.w3.org/2000/svg">
<path fill-rule="evenodd" clip-rule="evenodd" d="M2 0.330078C0.895431 0.330078 0 1.22551 0 2.33008V9.60006C0 10.7046 0.895432 11.6001 2 11.6001H12C13.1046 11.6001 14 10.7046 14 9.60007V2.33008C14 1.22551 13.1046 0.330078 12 0.330078H2ZM11.1346 4.38251C11.1346 4.11606 10.9186 3.90006 10.6522 3.90006C10.3857 3.90006 10.1697 4.11606 10.1697 4.38251V5.18913L9.63391 4.9881C9.35379 4.883 9.04349 5.03858 8.96014 5.32591C8.88473 5.58586 9.02396 5.85971 9.27842 5.95195L9.89018 6.1737L9.46757 6.81879C9.3331 7.02405 9.37326 7.29743 9.56108 7.45535C9.78388 7.64268 10.1204 7.59274 10.2792 7.34879L10.6477 6.78271L11.0346 7.36151C11.1943 7.60032 11.5254 7.64874 11.7467 7.46563C11.9372 7.30803 11.9786 7.0323 11.8428 6.82569L11.4142 6.1737L12.0214 5.95357C12.2778 5.86064 12.4172 5.58376 12.339 5.32248C12.2534 5.03649 11.9432 4.88313 11.6641 4.98878L11.1346 5.18913V4.38251ZM7 3.90006C7.26645 3.90006 7.48245 4.11606 7.48245 4.38251V5.18913L8.01188 4.98878C8.29106 4.88313 8.60126 5.03649 8.68682 5.32248C8.76499 5.58376 8.62567 5.86064 8.36927 5.95357L7.76199 6.1737L8.19064 6.82569C8.32647 7.0323 8.28507 7.30803 8.09455 7.46563C7.8732 7.64874 7.54208 7.60032 7.38243 7.36151L6.99549 6.78271L6.62701 7.34879C6.46821 7.59274 6.13171 7.64268 5.90891 7.45535C5.72109 7.29743 5.68093 7.02405 5.8154 6.81879L6.238 6.1737L5.62624 5.95195C5.37178 5.85971 5.23255 5.58586 5.30796 5.32591C5.39132 5.03858 5.70162 4.883 5.98173 4.9881L6.51755 5.18913V4.38251C6.51755 4.11606 6.73355 3.90006 7 3.90006ZM3.83027 4.38251C3.83027 4.11606 3.61427 3.90006 3.34783 3.90006C3.08138 3.90006 2.86538 4.11606 2.86538 4.38251V5.18913L2.32956 4.9881C2.04945 4.883 1.73914 5.03858 1.65579 5.32591C1.58038 5.58586 1.71961 5.85971 1.97407 5.95195L2.58583 6.1737L2.16322 6.81879C2.02875 7.02405 2.06891 7.29743 2.25673 7.45535C2.47954 7.64268 2.81604 7.59274 2.97484 7.34879L3.34332 6.78271L3.73026 7.36151C3.88991 7.60032 4.22103 7.64874 4.44238 7.46563C4.6329 7.30803 4.6743 7.0323 4.53847 6.82569L4.10982 6.1737L4.7171 5.95357C4.9735 5.86064 5.11281 5.58376 5.03465 5.32248C4.94909 5.03649 4.63889 4.88313 4.35971 4.98878L3.83027 5.18913V4.38251Z" fill="currentColor"/>
</svg>
