<svg width="14" height="14" viewBox="0 0 14 14" fill="none" xmlns="http://www.w3.org/2000/svg">
<path d="M7.00545 12C6.32217 12 5.67342 11.9145 5.05919 11.7435C4.4486 11.5762 3.88344 11.3532 3.36371 11.0743C2.84398 10.7955 2.37695 10.4888 1.96262 10.1543C1.54829 9.81599 1.19393 9.47769 0.899533 9.13941C0.608775 8.80112 0.385254 8.48885 0.228972 8.2026C0.076324 7.91264 0 7.67844 0 7.5C0 7.32156 0.076324 7.08922 0.228972 6.80297C0.385254 6.51673 0.608775 6.20446 0.899533 5.86617C1.19393 5.52416 1.54829 5.18587 1.96262 4.8513C2.37695 4.51301 2.84398 4.20446 3.36371 3.92565C3.88344 3.64684 4.4486 3.42379 5.05919 3.25651C5.67342 3.0855 6.32217 3 7.00545 3C7.696 3 8.34657 3.0855 8.95716 3.25651C9.57139 3.42379 10.1384 3.64684 10.6581 3.92565C11.1815 4.20446 11.6485 4.51301 12.0592 4.8513C12.4735 5.18587 12.8242 5.52416 13.1114 5.86617C13.3985 6.20446 13.6184 6.51673 13.771 6.80297C13.9237 7.08922 14 7.32156 14 7.5C14 7.67844 13.9237 7.91264 13.771 8.2026C13.6184 8.48885 13.3985 8.80112 13.1114 9.13941C12.8242 9.47769 12.4753 9.81599 12.0646 10.1543C11.6539 10.4888 11.1869 10.7955 10.6636 11.0743C10.1438 11.3532 9.57684 11.5762 8.96262 11.7435C8.34839 11.9145 7.696 12 7.00545 12ZM7.00545 10.4108C7.40161 10.4108 7.77051 10.3346 8.11215 10.1822C8.45742 10.0297 8.7609 9.8197 9.02258 9.55204C9.2879 9.28067 9.49325 8.97026 9.63863 8.62082C9.78764 8.27138 9.86215 7.89777 9.86215 7.5C9.86215 6.96097 9.73313 6.47212 9.47508 6.03346C9.21703 5.59108 8.87175 5.23978 8.43925 4.97955C8.00675 4.71933 7.52882 4.58922 7.00545 4.58922C6.47118 4.58922 5.9878 4.71933 5.5553 4.97955C5.12643 5.23978 4.78297 5.59108 4.52492 6.03346C4.27051 6.47212 4.1433 6.96097 4.1433 7.5C4.14694 8.0316 4.27596 8.51673 4.53037 8.95539C4.78842 9.39405 5.13188 9.74721 5.56075 10.0149C5.98962 10.2788 6.47118 10.4108 7.00545 10.4108ZM7.00545 8.57063C6.71469 8.57063 6.46573 8.46654 6.25857 8.25836C6.0514 8.04647 5.94782 7.79368 5.94782 7.5C5.94782 7.20632 6.0514 6.95539 6.25857 6.74721C6.46573 6.53532 6.71469 6.42937 7.00545 6.42937C7.29258 6.42937 7.53972 6.53532 7.74688 6.74721C7.95405 6.95539 8.05763 7.20632 8.05763 7.5C8.05763 7.79368 7.95405 8.04647 7.74688 8.25836C7.53972 8.46654 7.29258 8.57063 7.00545 8.57063Z" fill="currentColor"/>
</svg>
