<svg width="16" height="16" viewBox="0 0 16 16" fill="none" xmlns="http://www.w3.org/2000/svg">
<path d="M7.4886 13C6.47178 13 5.96336 12.6682 5.96336 12.0045C5.96336 11.6242 6.08299 11.2364 6.32224 10.8412C6.56548 10.4422 6.90841 10.0749 7.35103 9.73937C7.79364 9.40007 8.32199 9.12789 8.93608 8.92282C9.55414 8.71402 10.236 8.60962 10.9817 8.60962C11.7313 8.60962 12.4132 8.71402 13.0273 8.92282C13.6414 9.12789 14.1697 9.40007 14.6123 9.73937C15.055 10.0749 15.3959 10.4422 15.6351 10.8412C15.8784 11.2364 16 11.6242 16 12.0045C16 12.6682 15.4916 13 14.4748 13H7.4886ZM7.41682 11.9262H14.5525C14.6083 11.9262 14.6462 11.915 14.6662 11.8926C14.6901 11.874 14.7021 11.8441 14.7021 11.8031C14.7021 11.6167 14.6203 11.4042 14.4568 11.1655C14.2933 10.9269 14.0521 10.6957 13.7331 10.472C13.4141 10.2446 13.0233 10.0563 12.5607 9.90716C12.1022 9.75802 11.5758 9.68345 10.9817 9.68345C10.3915 9.68345 9.86517 9.75802 9.40262 9.90716C8.94006 10.0563 8.54928 10.2446 8.23028 10.472C7.91526 10.6957 7.67402 10.9269 7.50654 11.1655C7.34305 11.4042 7.26131 11.6167 7.26131 11.8031C7.26131 11.8441 7.27327 11.874 7.2972 11.8926C7.32112 11.915 7.361 11.9262 7.41682 11.9262ZM10.9877 8.04474C10.5171 8.04474 10.0925 7.93102 9.71364 7.70358C9.33483 7.47614 9.03178 7.1704 8.80449 6.78635C8.5772 6.40231 8.46355 5.97539 8.46355 5.50559C8.46355 5.04698 8.5772 4.62752 8.80449 4.2472C9.03576 3.86689 9.34081 3.56488 9.71963 3.34116C10.0984 3.11372 10.5211 3 10.9877 3C11.4502 3 11.8709 3.11186 12.2497 3.33557C12.6325 3.55928 12.9356 3.8613 13.1589 4.24161C13.3862 4.6182 13.4998 5.03766 13.4998 5.5C13.4998 5.96607 13.3862 6.39299 13.1589 6.78076C12.9356 7.16853 12.6325 7.47614 12.2497 7.70358C11.8709 7.93102 11.4502 8.04474 10.9877 8.04474ZM10.9877 6.97651C11.2269 6.97651 11.4482 6.91126 11.6516 6.78076C11.855 6.65026 12.0164 6.47315 12.1361 6.24944C12.2597 6.02573 12.3215 5.77591 12.3215 5.5C12.3215 5.23154 12.2597 4.99105 12.1361 4.77852C12.0164 4.56227 11.855 4.39075 11.6516 4.26398C11.4482 4.13721 11.2269 4.07383 10.9877 4.07383C10.7444 4.07383 10.5211 4.13721 10.3178 4.26398C10.1184 4.39075 9.95688 4.56227 9.83327 4.77852C9.70966 4.99478 9.64785 5.23527 9.64785 5.5C9.64785 5.77964 9.70766 6.03132 9.82729 6.25503C9.9509 6.47502 10.1144 6.65026 10.3178 6.78076C10.5211 6.91126 10.7444 6.97651 10.9877 6.97651ZM1.30393 13C0.869283 13 0.542305 12.9105 0.322991 12.7315C0.107664 12.5526 0 12.2934 0 11.9541C0 11.5142 0.113645 11.0947 0.340935 10.6957C0.568224 10.2931 0.881246 9.93512 1.28 9.62192C1.68274 9.30872 2.14729 9.06264 2.67364 8.88367C3.20399 8.70097 3.77022 8.60962 4.37234 8.60962C4.78305 8.60962 5.20374 8.66182 5.63439 8.76622C6.06505 8.86689 6.45583 9.01044 6.80673 9.19687C6.61931 9.305 6.45583 9.42617 6.31626 9.5604C6.1767 9.6909 6.05707 9.83445 5.95738 9.99105C5.81782 9.92394 5.65832 9.86614 5.47888 9.81767C5.30343 9.76547 5.12 9.72632 4.9286 9.70022C4.7372 9.6704 4.55178 9.65548 4.37234 9.65548C3.94168 9.65548 3.53495 9.717 3.15215 9.84004C2.77333 9.96309 2.43838 10.129 2.14729 10.3378C1.8562 10.5429 1.62692 10.774 1.45944 11.0313C1.29595 11.2886 1.21421 11.5533 1.21421 11.8255C1.21421 11.8665 1.22417 11.8963 1.24411 11.915C1.26804 11.9336 1.30393 11.943 1.35178 11.943H5.12C5.10006 12.1406 5.13595 12.34 5.22766 12.5414C5.32336 12.7465 5.46093 12.8993 5.64037 13H1.30393ZM4.37832 8.11745C3.97558 8.11745 3.60673 8.01864 3.27178 7.82103C2.93682 7.61969 2.66966 7.34937 2.47028 7.01007C2.27489 6.67077 2.1772 6.29418 2.1772 5.88031C2.1772 5.48136 2.27688 5.11596 2.47626 4.78412C2.67564 4.44855 2.94081 4.18195 3.27178 3.98434C3.60673 3.783 3.97558 3.68233 4.37832 3.68233C4.78106 3.68233 5.14791 3.78113 5.47888 3.97875C5.81383 4.17636 6.081 4.44109 6.28037 4.77293C6.47975 5.10477 6.57944 5.47204 6.57944 5.87472C6.57944 6.28859 6.47975 6.66518 6.28037 7.00447C6.08498 7.34377 5.81981 7.61409 5.48486 7.81544C5.14991 8.01678 4.78106 8.11745 4.37832 8.11745ZM4.37832 7.066C4.57371 7.066 4.75315 7.0138 4.91664 6.9094C5.08012 6.80127 5.20972 6.65772 5.30542 6.47875C5.40511 6.29978 5.45495 6.09843 5.45495 5.87472C5.45495 5.66592 5.40511 5.47576 5.30542 5.30425C5.20573 5.12901 5.07414 4.99105 4.91065 4.89038C4.75115 4.78971 4.57371 4.73937 4.37832 4.73937C4.18293 4.73937 4.00349 4.79157 3.84 4.89597C3.6805 4.99664 3.5509 5.1346 3.45122 5.30984C3.35551 5.48136 3.30766 5.67151 3.30766 5.88031C3.30766 6.10403 3.35551 6.30537 3.45122 6.48434C3.5509 6.65958 3.6805 6.80127 3.84 6.9094C4.00349 7.0138 4.18293 7.066 4.37832 7.066Z" fill="currentColor"/>
</svg>
