<svg width="20" height="16" viewBox="0 0 20 16" fill="none" xmlns="http://www.w3.org/2000/svg">
<path fill-rule="evenodd" clip-rule="evenodd" d="M0 13.8928V2.10711C0 1.02184 0.895 0.142822 2 0.142822H18C19.1 0.142822 20 1.02675 20 2.10711V13.8928C20 14.9732 19.1 15.8571 18 15.8571H2C0.9 15.8571 0 14.9732 0 13.8928ZM12 7.01782H16C16.552 7.01782 17 6.57782 17 6.03568C17 5.49354 16.552 5.05354 16 5.05354H12C11.448 5.05354 11 5.49354 11 6.03568C11 6.57782 11.448 7.01782 12 7.01782ZM12 10.9464H16C16.552 10.9464 17 10.5064 17 9.96425C17 9.42211 16.552 8.98211 16 8.98211H12C11.448 8.98211 11 9.42211 11 9.96425C11 10.5064 11.448 10.9464 12 10.9464ZM7.56844 5.82829C7.56844 6.75916 6.81382 7.51378 5.88295 7.51378C4.95208 7.51378 4.19746 6.75916 4.19746 5.82829C4.19746 4.89742 4.95208 4.14281 5.88295 4.14281C6.81382 4.14281 7.56844 4.89742 7.56844 5.82829ZM8.87672 9.95987C9.02505 10.246 8.97181 10.5931 8.75136 10.8281C8.03385 11.5932 7.01384 12.0711 5.88219 12.0711C4.75053 12.0711 3.73051 11.5932 3.01299 10.8281C2.79255 10.593 2.73931 10.2459 2.88765 9.95984C3.44872 8.87774 4.5791 8.13838 5.88217 8.13838C7.18526 8.13838 8.31565 8.87776 8.87672 9.95987Z" fill="currentColor"/>
</svg>
