<svg width="15" height="14" viewBox="0 0 15 14" fill="none" xmlns="http://www.w3.org/2000/svg">
<path d="M8.53083 7.36926C8.21962 7.59687 7.94479 7.87011 7.71615 8.17929C7.14012 7.94845 6.45473 7.80456 5.67157 7.80456C2.91671 7.80456 1.37315 9.5787 1.37315 10.5305C1.37315 10.6458 1.43273 10.6902 1.57905 10.6902H6.89668C6.90141 11.0608 6.96043 11.4188 7.06546 11.7579H1.7822C0.709625 11.7579 0.191528 11.4233 0.191528 10.698C0.191528 9.00774 2.32484 6.73571 5.67157 6.73571C6.76625 6.73571 7.73127 6.9794 8.53083 7.36926ZM8.39842 3.07954C8.39842 4.69612 7.17822 6.01003 5.67157 6.01003C4.166 6.01003 2.94587 4.70118 2.94587 3.08967C2.94587 1.50338 4.17564 0.216553 5.67157 0.216553C7.17886 0.216553 8.39842 1.48311 8.39842 3.07954ZM4.07482 3.08856C4.07482 4.1423 4.80999 4.94233 5.67157 4.94233C6.54049 4.94233 7.26947 4.13218 7.26947 3.07954C7.26947 2.04705 6.54738 1.28425 5.67157 1.28425C4.80316 1.28425 4.07482 2.06226 4.07482 3.08856Z" fill="currentColor"/>
<path d="M14.1915 10.6008C14.1915 12.3359 12.7239 13.7834 10.9844 13.7834C9.22331 13.7834 7.77722 12.3461 7.77722 10.6008C7.77722 8.85675 9.22331 7.42273 10.9844 7.42273C12.7392 7.42273 14.1915 8.85675 14.1915 10.6008ZM10.5554 9.01052V10.1777H9.37723C9.11975 10.1777 8.95339 10.3438 8.95339 10.6031C8.95339 10.8562 9.12198 11.0223 9.37723 11.0223H10.5554V12.199C10.5554 12.446 10.7229 12.6172 10.9844 12.6172C11.2396 12.6172 11.4071 12.446 11.4071 12.199V11.0223H12.5875C12.8416 11.0223 13.0142 10.8562 13.0142 10.6031C13.0142 10.3438 12.8416 10.1777 12.5875 10.1777H11.4071V9.01052C11.4071 8.76025 11.2396 8.5913 10.9844 8.5913C10.7229 8.5913 10.5554 8.76247 10.5554 9.01052Z" fill="currentColor"/>
</svg>
