<svg width="14" height="15" viewBox="0 0 14 15" fill="none" xmlns="http://www.w3.org/2000/svg">
<path d="M2.19748 14.326H11.6945C12.9486 14.326 13.5456 13.9482 13.5456 13.1171C13.5456 11.1376 11.0448 8.27413 6.94978 8.27413C2.84725 8.27413 0.346436 11.1376 0.346436 13.1171C0.346436 13.9482 0.943305 14.326 2.19748 14.326ZM1.84239 13.185C1.64595 13.185 1.56285 13.1322 1.56285 12.9735C1.56285 11.7269 3.48188 9.41498 6.94978 9.41498C10.4101 9.41498 12.3292 11.7269 12.3292 12.9735C12.3292 13.1322 12.2536 13.185 12.0572 13.185H1.84239ZM6.94978 7.32972C8.74794 7.32972 10.2137 5.73555 10.2137 3.78627C10.2137 1.85211 8.7555 0.333496 6.94978 0.333496C5.15917 0.333496 3.68588 1.88234 3.68588 3.80139C3.68588 5.7431 5.15162 7.32972 6.94978 7.32972ZM6.94978 6.18886C5.8467 6.18886 4.90229 5.13868 4.90229 3.80139C4.90229 2.48676 5.83159 1.47435 6.94978 1.47435C8.07551 1.47435 8.99727 2.46409 8.99727 3.78627C8.99727 5.12356 8.06041 6.18886 6.94978 6.18886Z" fill="currentColor"/>
</svg>
