<svg width="80" height="80" viewBox="0 0 80 80" fill="none" xmlns="http://www.w3.org/2000/svg">
<path d="M45.5039 40.8014L45.2976 40.8799C43.6238 41.511 42.4978 42.6231 41.853 44.0394C39.9955 43.4271 37.8821 43.0701 35.5413 43.0701C24.9617 43.0701 19.0339 50.3345 19.0339 54.2317C19.0339 54.7041 19.2627 54.8857 19.8246 54.8857H41.1661V56.58C41.1661 57.5532 41.2411 58.4416 41.4058 59.2575H20.6048C16.4857 59.2575 14.496 57.8877 14.496 54.9176C14.496 47.9967 22.6887 38.6938 35.5413 38.6938C39.2932 38.6938 42.6485 39.4885 45.5039 40.8014ZM46.0131 23.7229C46.0131 30.3421 41.3274 35.7222 35.5413 35.7222C29.7594 35.7222 25.0737 30.3629 25.0737 23.7644C25.0737 17.2691 29.7965 12 35.5413 12C41.3298 12 46.0131 17.1861 46.0131 23.7229ZM29.409 23.7598C29.409 28.0745 32.2326 31.3503 35.5413 31.3503C38.8783 31.3503 41.6778 28.033 41.6778 23.7229C41.6778 19.4953 38.9047 16.3719 35.5413 16.3719C32.2061 16.3719 29.409 19.5575 29.409 23.7598Z" fill="url(#paint0_linear_8_14176)"/>
<path d="M56.436 41.894C57.7009 42.3591 62.098 43.979 63.4282 44.5545C64.9608 45.237 65.5043 46.235 65.5043 47.8666V56.9938C65.5043 61.8385 62.8045 63.7164 56.1272 67.6965C55.3981 68.1339 54.5061 68.067 53.9187 67.6965C47.2544 63.7144 44.5654 61.8385 44.5654 56.9938V47.8666C44.5654 46.235 45.1048 45.2463 46.6373 44.5545C47.9435 43.979 52.3408 42.3961 53.4531 41.9816C54.4677 41.5792 55.504 41.5657 56.436 41.894ZM59.1683 48.8128L53.5186 57.0992L50.743 53.8843C50.4411 53.5303 50.0108 53.2865 49.4651 53.2865C48.5414 53.2865 47.7661 54.0268 47.7661 55.0945C47.7661 55.5425 47.9374 56.0343 48.2351 56.409L52.2646 61.0262C52.5949 61.4514 53.1578 61.6283 53.6053 61.6283C54.1834 61.6283 54.7267 61.3526 55.0244 60.9528L61.9583 50.8579C62.1951 50.5268 62.3149 50.1317 62.3149 49.8169C62.3149 48.7968 61.515 48.0296 60.6046 48.0296C59.9984 48.0296 59.4832 48.3397 59.1683 48.8128Z" fill="url(#paint1_linear_8_14176)"/>
<defs>
<linearGradient id="paint0_linear_8_14176" x1="14.496" y1="11.463" x2="47.7486" y2="12.7175" gradientUnits="userSpaceOnUse">
<stop stop-color="#2091F6"/>
<stop offset="1" stop-color="#21B568"/>
</linearGradient>
<linearGradient id="paint1_linear_8_14176" x1="44.5654" y1="41.3632" x2="66.6441" y2="42.3561" gradientUnits="userSpaceOnUse">
<stop stop-color="#2091F6"/>
<stop offset="1" stop-color="#21B568"/>
</linearGradient>
</defs>
</svg>
