<svg width="20" height="20" fill="none" viewBox="0 0 24 24" xmlns="http://www.w3.org/2000/svg"><path d="M5.856 17.32H.558a.551.551 0 01-.473-.274.607.607 0 01-.03-.564L3.96 8.014a.556.556 0 01.503-.33H9.76c.191 0 .37.103.471.273.103.17.114.384.031.564L6.358 16.99a.556.556 0 01-.502.33zM14.78 22.624a.535.535 0 01-.2-.039.583.583 0 01-.358-.545v-4.428H8.366a.552.552 0 01-.47-.27.608.608 0 01-.035-.561l3.904-8.76a.556.556 0 01.505-.337h1.674v-5.84c0-.24.14-.456.354-.544a.541.541 0 01.613.147l8.947 10.123a.603.603 0 01.005.787l-8.668 10.074a.547.547 0 01-.415.193z" fill="currentColor"/></svg>