<svg width="20" height="20" viewBox="0 0 20 20" fill="none" xmlns="http://www.w3.org/2000/svg">
    <g clip-path="url(#a)">
        <path fill-rule="evenodd" clip-rule="evenodd" d="m5.215 5.71.025.01a.724.724 0 0 0-.019.016c-.01.009-.017.016-.026.021-.013.008-.026.015-.04.021a4.684 4.684 0 0 0-.664.478c-.222.201-.42.425-.568.689-.056.1-.111.2-.157.304-.043.097-.08.198-.109.3l-.012.044c-.04.147-.082.295-.103.446-.037.25-.06.505-.059.76a.11.11 0 0 1-.009.052 6.28 6.28 0 0 1-.125.217.12.12 0 0 1-.038.036c-.176.112-.329.25-.47.405a3.24 3.24 0 0 0-.717 1.309 2.914 2.914 0 0 0-.115 1.064c.026.321.108.632.236.927a3.167 3.167 0 0 0 .458.747l.04.05c.04.05.07.103.081.168l.004.02c.017.096.035.193.064.285.058.187.12.373.183.558l.077.23.024.07c.02.056.04.112.053.169.019.076.032.152.046.23l.016.084c.05.268.157.515.277.756.06.12.134.232.209.345l.037.057c.048.072.103.139.16.203l.033.038c.084.095.17.191.262.278.087.081.181.154.276.227l.065.05c.196.155.411.275.644.364.04.015.078.036.113.06.111.079.221.16.33.241.236.175.486.329.742.47.262.145.535.261.812.371a.273.273 0 0 1 .093.06c.16.164.332.312.517.446a3.179 3.179 0 0 0 1.48.593c.23.028.459.024.688.013a2.87 2.87 0 0 0 .775-.159c.361-.12.685-.308.984-.54.111-.087.213-.184.315-.281l.058-.054c.043-.041.089-.071.144-.094l.105-.042c.15-.061.3-.122.444-.194.191-.095.376-.205.56-.315a6.26 6.26 0 0 0 .655-.452c.078-.06.16-.11.254-.146.277-.11.524-.272.753-.462.186-.156.36-.325.51-.519a3.63 3.63 0 0 0 .426-.682 3.247 3.247 0 0 0 .259-.82v-.001c.015-.082.03-.163.056-.241.048-.151.102-.3.155-.45l.046-.125c.078-.221.129-.45.178-.678a.265.265 0 0 1 .054-.107l.072-.093c.079-.101.157-.202.224-.311.105-.17.199-.347.267-.537.112-.309.19-.622.188-.953v-.09c0-.102 0-.205-.01-.306A3.319 3.319 0 0 0 17.046 10a2.805 2.805 0 0 0-.393-.521 2.404 2.404 0 0 0-.431-.368.878.878 0 0 1-.185-.307v-.038c0-.26-.022-.52-.064-.775a3.087 3.087 0 0 0-.322-.957 2.59 2.59 0 0 0-.37-.528 3.104 3.104 0 0 0-.351-.334 4.78 4.78 0 0 0-.598-.413c-.01-.006-.019-.013-.03-.023l-.022-.018.025-.009.03-.01.079-.025c.058-.018.115-.036.171-.059.165-.066.288-.175.334-.357.01-.042.036-.062.075-.075l.034-.011c.068-.022.136-.045.199-.078a.61.61 0 0 0 .342-.44c.01-.048.035-.08.075-.107l.013-.01c.072-.05.145-.101.21-.16.149-.14.25-.307.245-.521-.001-.029.01-.047.03-.065a1.84 1.84 0 0 0 .125-.111.506.506 0 0 0 .163-.427c-.013-.107.009-.187.083-.259a.087.087 0 0 0 .011-.014.683.683 0 0 0 .152-.324c.01-.06.021-.13-.002-.18-.047-.102-.014-.173.049-.246a.092.092 0 0 0 .009-.012c.116-.186.137-.374.018-.567a.506.506 0 0 1-.015-.026.297.297 0 0 0-.029-.046c-.024-.03-.021-.057-.007-.09.024-.057.046-.114.06-.173a.477.477 0 0 0-.29-.57.83.83 0 0 0-.364-.046c-.044.003-.072-.01-.097-.042a.624.624 0 0 0-.338-.217A1.308 1.308 0 0 0 15.2.403a.112.112 0 0 1-.111-.043.369.369 0 0 0-.277-.138 3.682 3.682 0 0 0-.256 0 .139.139 0 0 1-.104-.034.574.574 0 0 0-.367-.138.927.927 0 0 0-.37.07c-.053.02-.087.009-.13-.022a.467.467 0 0 0-.465-.061 2.532 2.532 0 0 0-.201.086.291.291 0 0 1-.231.024.512.512 0 0 0-.405.033l-.166.09a.191.191 0 0 1-.137.021.588.588 0 0 0-.459.075.878.878 0 0 0-.189.163c-.079.096-.166.147-.292.123-.073-.014-.14.014-.197.06l-.149.118a2.056 2.056 0 0 0-.37.39 3.218 3.218 0 0 0-.306.498 3.781 3.781 0 0 0-.234.586.087.087 0 0 1-.012.021l-.011.018a1 1 0 0 0-.012-.023l-.014-.031a5.688 5.688 0 0 1-.037-.106 3.305 3.305 0 0 0-.272-.613 5.135 5.135 0 0 0-.309-.451C9.018.989 8.894.883 8.77.778L8.765.774C8.658.682 8.542.627 8.4.654H8.39a.08.08 0 0 0-.007 0 .11.11 0 0 1-.108-.04A2.587 2.587 0 0 0 8.155.49L8.138.473c-.143-.14-.313-.225-.512-.19a.463.463 0 0 1-.341-.076L7.278.203a.526.526 0 0 0-.451-.054.27.27 0 0 1-.23-.03L6.557.1c-.024-.008-.047-.018-.07-.028A1.033 1.033 0 0 0 6.308.01a.446.446 0 0 0-.378.093c-.041.032-.075.036-.124.016A1.016 1.016 0 0 0 5.61.064c-.2-.037-.387-.01-.546.13a.12.12 0 0 1-.09.027 4.968 4.968 0 0 0-.25 0 .394.394 0 0 0-.302.15c-.025.03-.05.035-.085.033a2.385 2.385 0 0 0-.256 0c-.225.016-.433.074-.578.266-.02.027-.045.033-.08.031a.75.75 0 0 0-.433.075.45.45 0 0 0-.24.397.633.633 0 0 0 .07.31c.018.038.017.068-.008.105a1.05 1.05 0 0 0-.08.146.418.418 0 0 0-.023.305c.03.1.081.185.142.267.026.034.03.064.013.105a.419.419 0 0 0-.019.254c.03.142.1.26.193.366.05.056.065.114.055.188a.495.495 0 0 0 .045.297.804.804 0 0 0 .223.265l.006.004c.022.017.042.033.042.067-.002.229.106.404.27.548.057.049.118.092.18.135l.02.015c.037.026.064.053.072.101a.608.608 0 0 0 .254.392.93.93 0 0 0 .296.133c.058.018.093.043.11.107a.455.455 0 0 0 .226.283c.109.062.226.1.345.133l.033.012ZM12.48.657l.05-.03c-.054.218-.048.245.069.351l.065-.055a2.74 2.74 0 0 1 .386-.28h.001c.081-.047.163-.096.263-.107l-.01.014a3.75 3.75 0 0 1-.023.032l-.026.035c-.019.024-.038.05-.053.076-.042.073-.024.137.053.197.25-.185.537-.278.837-.338l.012.018-.029.028a2.798 2.798 0 0 0-.065.065l-.011.012c-.03.03-.06.061-.085.095a.12.12 0 0 0-.021.063c-.004.052.026.076.075.062.034-.01.069-.021.103-.033.047-.015.094-.03.142-.043.131-.032.263-.06.395-.09l.114-.025c.003 0 .008.001.014.004a.144.144 0 0 0 .012.005l-.012.015-.022.027a1.95 1.95 0 0 1-.035.038.99.99 0 0 0-.074.088.155.155 0 0 0-.027.084c-.001.055.037.079.09.065l.115-.031c.088-.025.176-.049.265-.068a1.3 1.3 0 0 1 .533 0 .11.11 0 0 1 .02.009l.012.006c-.033.058-.08.103-.128.15a1.39 1.39 0 0 0-.087.09c.12.017.233.018.343.019a14.295 14.295 0 0 0 .313.005c.08 0 .163.002.25.004l-.033.051c-.139.21-.271.41-.31.664.01.001.02.004.029.006.02.005.04.01.058.009.05 0 .1-.004.15-.007l.062-.003.05-.003h.024a.17.17 0 0 0 0 .015c.001.007.002.012 0 .015a2.87 2.87 0 0 0-.049.074c-.039.06-.078.122-.126.174-.052.056-.11.106-.169.155l-.09.08a1.704 1.704 0 0 0-.117.116c.114.096.23.07.344.043.021-.006.043-.01.064-.015.012.03-.002.05-.015.067l-.008.012c-.081.12-.18.226-.286.324l-.072.067-.145.135a.616.616 0 0 0-.034.037l-.018.02c.048.046.103.047.156.048h.012c.038.002.076.001.114.001h.05c-.018.052-.137.171-.313.309-.08.062-.161.123-.246.185-.038.03-.077.058-.117.088a.444.444 0 0 0 .235.05c.036.001.072.002.108.008.002.026-.012.038-.026.05l-.008.006c-.17.154-.37.259-.57.364l-.017.01a3.416 3.416 0 0 1-.183.09.145.145 0 0 0-.028.02l-.016.014c.101.084.216.084.333.077l.005.017a.232.232 0 0 0-.011.013c-.008.01-.016.02-.026.025a4.26 4.26 0 0 0-.066.036c-.065.035-.13.07-.198.097-.11.042-.223.08-.336.116h-.001l-.15.05a2.922 2.922 0 0 0-.067.024l-.036.013c.039.104.126.128.228.157l.019.006a1.115 1.115 0 0 0-.03.018c-.016.01-.028.017-.04.022-.11.045-.224.077-.342.09a8.04 8.04 0 0 1-.184.018l-.155.014a2.3 2.3 0 0 0-.187.026.205.205 0 0 0-.051.02c-.009.004-.017.009-.026.012.03.084.092.129.158.176l.05.038a.61.61 0 0 0-.025.006c-.013.003-.023.006-.033.006-.483.014-.956-.03-1.411-.21a1.923 1.923 0 0 1-.474-.265 1.42 1.42 0 0 1-.499-.728c-.013-.044-.01-.077.024-.11l.098-.097c.141-.142.282-.283.44-.406l.187-.15c.101-.081.203-.162.306-.24.086-.066.176-.126.265-.186l.115-.078.045-.031c.041-.029.082-.057.124-.084l.211-.132c.202-.126.403-.253.608-.373.197-.115.398-.225.6-.334l.234-.129.027-.014c.046-.025.092-.05.133-.085l-.01.003a.143.143 0 0 0-.023.006l-.2.076a12.38 12.38 0 0 0-1.497.646 10.449 10.449 0 0 0-1.601.984l-.066.047a4.23 4.23 0 0 0-.26.206l-.042.036c-.032.027-.058.03-.094.01a1.22 1.22 0 0 1-.46-.4 1.027 1.027 0 0 1-.156-.542 1.783 1.783 0 0 1 .072-.504 2.54 2.54 0 0 1 .214-.512c.145-.282.332-.533.546-.765a.516.516 0 0 1 .044-.042l.01-.002h.014l.01.042c.008.033.016.066.03.098a.302.302 0 0 1 .01.037c.01.034.02.069.058.092.073-.074.141-.154.21-.233.127-.148.255-.297.415-.418.016.02.013.04.01.06l-.002.022v.034c0 .036 0 .073.004.11a.156.156 0 0 0 .032.067c.04.056.068.058.11.001a1.76 1.76 0 0 1 .476-.42ZM5.923 5.544l.003.017.016.003a.152.152 0 0 0 .033.005c.11 0 .222 0 .333-.002.337-.005.666-.063.985-.175.258-.09.494-.217.69-.411.175-.172.3-.374.367-.613a.116.116 0 0 0-.031-.124l-.054-.057c-.056-.058-.112-.116-.17-.17a7.84 7.84 0 0 0-.705-.587 18.77 18.77 0 0 0-1.114-.747 15.539 15.539 0 0 0-.531-.306c-.15-.084-.301-.166-.452-.249a93.238 93.238 0 0 1-.252-.138c-.024-.013-.047-.027-.07-.042l-.033-.02c.108.024.212.054.312.095l.235.096c.279.114.558.228.831.354.298.138.589.291.874.454.222.126.437.266.652.406l.13.085c.119.077.232.162.345.247.1.076.198.156.296.235l.03.025c.027.022.051.029.082.008l.089-.055a1.013 1.013 0 0 0 .535-.905c.004-.255-.067-.494-.157-.727a2.949 2.949 0 0 0-.28-.53 3.841 3.841 0 0 0-.403-.518c-.014-.018-.03-.038-.059-.036a.75.75 0 0 0-.026.086c-.016.064-.033.13-.087.186l-.067-.075a15.966 15.966 0 0 1-.142-.16 3.24 3.24 0 0 0-.386-.397C7.735.797 7.727.794 7.716.79a.43.43 0 0 1-.02-.008L7.7.815a.874.874 0 0 1 .005.087c.001.031.002.063-.003.093-.01.055-.028.11-.092.124l-.082-.084C7.466.97 7.405.908 7.341.85L7.328.838a.845.845 0 0 0-.312-.205c.08.14.06.248-.049.345A3.327 3.327 0 0 0 6.92.941c-.034-.027-.068-.053-.1-.082a1.957 1.957 0 0 0-.518-.325A.087.087 0 0 0 6.27.53c-.008 0-.017 0-.027-.002l.037.048c.077.096.148.186.047.31a6.07 6.07 0 0 1-.13-.07C6.103.763 6.01.712 5.91.675A1.695 1.695 0 0 0 5.45.551a1.602 1.602 0 0 1 .045.055l.04.035c.023.02.045.04.066.063.027.03.053.063.068.099.009.02 0 .054-.012.077-.013.029-.041.02-.066.012a.28.28 0 0 0-.027-.007c-.01-.002-.022-.004-.032-.008A3.398 3.398 0 0 0 4.88.71L4.825.703 4.817.72l.022.022c.016.017.033.034.048.052l.01.012c.028.033.056.065.08.1.023.035.018.072-.006.107-.023.034-.05.025-.078.017l-.01-.003L4.798 1C4.747.985 4.695.97 4.643.957a1.473 1.473 0 0 0-.615-.038c-.017.003-.033.008-.052.015l-.032.01c.04.06.087.105.136.152.03.028.059.056.088.089a1.685 1.685 0 0 0-.037.005.408.408 0 0 1-.05.005l-.417.009-.294.006-.066.003-.045.003c.156.227.3.443.344.716l-.035.005a.346.346 0 0 1-.061.006 3.828 3.828 0 0 1-.136-.007l-.075-.004h-.069l.004.019c.002.01.003.015.006.02l.018.03a.98.98 0 0 0 .208.264c.06.048.118.1.176.151l.048.042a.383.383 0 0 1 .052.055c.036.047.03.07-.024.092a.33.33 0 0 1-.208.013 9.726 9.726 0 0 0-.095-.022l-.05-.01a.295.295 0 0 1 .005.02c.002.01.003.018.007.024l.052.07c.046.062.091.125.144.181.06.063.123.121.187.18l.095.086.07.07.037.037c-.079.047-.159.045-.242.043-.038-.001-.077-.002-.116.002.11.116.213.222.333.31.082.06.163.122.247.185l.112.086c-.07.045-.146.047-.223.05-.042.002-.084.003-.126.012l.013.02a.095.095 0 0 0 .021.028l.077.059c.068.053.137.107.211.15.108.063.219.12.33.176l.159.082c.01.006.02.013.03.022a.55.55 0 0 0 .018.014.332.332 0 0 1-.164.072c-.04.006-.082.007-.122.008l-.054.002-.005.017.028.02c.02.015.04.03.061.041.196.107.402.188.618.244.043.01.084.026.128.041l.063.022a.212.212 0 0 1-.099.11.797.797 0 0 1-.093.04c-.016.006-.033.012-.05.02.09.05.172.082.258.096.102.016.205.028.308.04a20.849 20.849 0 0 1 .214.026c.046.005.092.01.138.017.032.004.065.01.086.044-.029.08-.094.124-.16.167a1.971 1.971 0 0 0-.035.024Zm3.306 3.943c.065.224.1.451.104.658a2.98 2.98 0 0 1-.105.733 2.594 2.594 0 0 1-.253.602c-.108.193-.24.37-.392.531-.133.141-.275.27-.434.378a2.434 2.434 0 0 1-.59.303c-.284.096-.573.14-.871.115a1.853 1.853 0 0 1-.52-.129 1.675 1.675 0 0 1-.652-.468 1.911 1.911 0 0 1-.36-.64 2.271 2.271 0 0 1-.105-.85c.015-.397.135-.765.32-1.112a2.72 2.72 0 0 1 .79-.922 2.301 2.301 0 0 1 1.114-.46c.38-.043.746.01 1.091.198a1.788 1.788 0 0 1 .863 1.063Zm5.247 1.264a2.848 2.848 0 0 0-.061-.575 2.834 2.834 0 0 0-1.131-1.659c-.3-.206-.63-.34-.99-.393a1.846 1.846 0 0 0-1.008.124c-.259.11-.48.278-.657.5a1.819 1.819 0 0 0-.34.65 2.337 2.337 0 0 0-.088.465c-.03.453.052.885.244 1.297.157.338.37.632.643.886.128.12.266.226.416.315.27.159.553.277.867.318.24.031.48.032.714-.023a1.7 1.7 0 0 0 1.057-.735c.235-.352.341-.745.334-1.17Zm-2.721 2.69c.198.324.316.674.302 1.053.008.315-.068.601-.202.876-.148.303-.36.549-.624.753a2.045 2.045 0 0 1-.517.298 2.398 2.398 0 0 1-2.228-.222 2.176 2.176 0 0 1-.73-.828 1.908 1.908 0 0 1-.183-.587c-.062-.41.004-.802.188-1.171.164-.332.405-.598.71-.807.243-.166.507-.287.792-.348.314-.068.633-.076.954-.025.255.04.493.129.719.246.179.093.341.214.488.357.126.122.24.255.33.404Zm3.9 1.272a2.976 2.976 0 0 0-.097-.8 1.816 1.816 0 0 0-.181-.442.563.563 0 0 0-.321-.25c-.191-.072-.383-.05-.571.013a2.22 2.22 0 0 0-.663.375c-.189.148-.366.312-.532.486a4.12 4.12 0 0 0-.44.522c-.15.222-.274.456-.374.704a3.317 3.317 0 0 0-.237.881c-.026.232-.027.463.035.69a.576.576 0 0 0 .321.392c.154.07.318.098.485.109.203.013.403-.018.598-.07.277-.076.531-.205.765-.374l.013-.01.06-.045c.033-.03.068-.059.102-.088.088-.074.175-.148.254-.23.084-.087.16-.183.237-.278.023-.03.046-.06.07-.088a1.95 1.95 0 0 0 .357-.676c.08-.274.13-.555.119-.82Zm-9.29 2.624-.091.009a2.085 2.085 0 0 1-.792-.184 2.327 2.327 0 0 1-.503-.291 3.35 3.35 0 0 1-.65-.658l-.003-.004a1 1 0 0 1-.126-.198l-.029-.06a3.792 3.792 0 0 1-.181-.43 3.126 3.126 0 0 1-.165-.827 1.85 1.85 0 0 1 .068-.64c.031-.102.068-.201.13-.29a.591.591 0 0 1 .382-.239c.171-.038.34-.027.51.011.308.07.577.22.827.409.125.094.249.19.365.296.08.072.153.151.226.23l.063.07c.201.214.35.463.474.73.155.332.252.68.282 1.046.014.17.002.34-.042.507-.075.286-.261.443-.544.49a2.486 2.486 0 0 1-.2.023Zm3.48-9.309c.19.004.411-.014.63-.047.238-.035.467-.106.686-.206.222-.1.417-.238.55-.45a.622.622 0 0 0 .084-.496.964.964 0 0 0-.212-.391 2.132 2.132 0 0 0-.582-.467 2.818 2.818 0 0 0-.817-.307c-.474-.101-.933-.037-1.377.144a2.48 2.48 0 0 0-.67.407 1.58 1.58 0 0 0-.346.4.525.525 0 0 0-.015.524c.061.129.144.24.25.332.161.141.34.252.54.331.178.07.359.131.548.167.23.043.464.06.731.06Zm-1.314 9.403a4.727 4.727 0 0 1 1.404-.177c.275-.016.605.032.932.093.189.035.371.095.549.17l.018.007c.097.04.193.08.276.145.048.037.096.075.138.119a.304.304 0 0 1 .062.352c-.05.117-.119.222-.205.318a2.902 2.902 0 0 1-1.426.86 2.505 2.505 0 0 1-.418.057 2.368 2.368 0 0 1-.654-.046 2.74 2.74 0 0 1-.5-.17 2.959 2.959 0 0 1-.52-.294 2.272 2.272 0 0 1-.478-.43 1.214 1.214 0 0 1-.135-.22.238.238 0 0 1 0-.215.593.593 0 0 1 .188-.225c.232-.172.498-.265.77-.344Zm6.438-6.845.004.083.009.192c.014.26.047.517.09.773.046.287.11.57.2.845.068.212.147.417.269.604a.615.615 0 0 0 .212.213c.073.04.154.054.22-.002.081-.069.158-.144.223-.228.097-.123.182-.254.249-.4.106-.232.183-.472.217-.726s.038-.507.001-.761a2.217 2.217 0 0 0-.137-.53 2.06 2.06 0 0 0-.303-.542l-.025-.03a3.09 3.09 0 0 0-.258-.287 2.283 2.283 0 0 0-.406-.303.243.243 0 0 0-.258-.007.327.327 0 0 0-.149.158c-.032.075-.06.151-.082.23-.061.227-.068.461-.076.702v.016Zm-10.62-.098.01.146a7.528 7.528 0 0 1-.113 1.093c-.06.338-.138.671-.26.993a2.304 2.304 0 0 1-.242.473.441.441 0 0 1-.18.158c-.096.044-.18.036-.259-.036a1.796 1.796 0 0 1-.283-.336 2.34 2.34 0 0 1-.352-.91 2.849 2.849 0 0 1-.02-.767 2.343 2.343 0 0 1 .625-1.348c.139-.146.294-.27.461-.379a.438.438 0 0 1 .129-.062c.13-.033.26.042.326.175.072.148.113.305.131.467.013.11.02.222.027.333Zm2.168-4.471c-.12.012-.242.024-.362.043a2.47 2.47 0 0 0-.695.224c-.053.026-.104.056-.154.087l-.102.06c-.13.072-.239.171-.344.272-.111.106-.209.226-.297.355a2.51 2.51 0 0 0-.34.752 3.015 3.015 0 0 0-.095.892c.003.086.044.128.128.122a.436.436 0 0 0 .154-.036 5.24 5.24 0 0 0 .402-.21c.114-.067.225-.143.331-.225l.071-.054c.235-.18.47-.361.696-.552.197-.166.384-.344.572-.522l.049-.047c.24-.228.468-.47.664-.74.052-.07.091-.152.124-.234.033-.083 0-.133-.09-.144-.128-.016-.258-.03-.388-.043A48.412 48.412 0 0 1 6.677 6a13.65 13.65 0 0 1-.16.017Zm8.607 1.993c.034.183.061.367.064.553l.001.061c0 .046.001.092-.001.137-.005.09-.05.131-.138.12a.638.638 0 0 1-.167-.044 3.017 3.017 0 0 1-.613-.359 12.002 12.002 0 0 1-.573-.436 21.81 21.81 0 0 1-.722-.626 7.232 7.232 0 0 1-.647-.66 4.092 4.092 0 0 1-.247-.319.8.8 0 0 1-.087-.185c-.026-.07.004-.12.078-.133a3.02 3.02 0 0 1 1.23.027c.244.058.477.144.697.269a2.259 2.259 0 0 1 .693.615 2.523 2.523 0 0 1 .432.98Z" fill="currentColor"/>
    </g>
    <defs>
        <clipPath id="a"><path d="M0 0h20v20H0z"/></clipPath>
    </defs>
</svg>
