<svg width="14" height="15" viewBox="0 0 14 15" fill="none" xmlns="http://www.w3.org/2000/svg">
    <g id="pin-48 1" clip-path="url(#clip0_2022_24880)">
        <g id="Group">
            <path id="Vector" d="M6.99181 0.577148C3.98952 0.577148 1.55566 3.011 1.55566 6.01329C1.55566 7.35362 2.04296 8.57854 2.84712 9.52638L6.99181 14.4076L11.1363 9.52623C11.9405 8.57854 12.4278 7.35346 12.4278 6.01314C12.4279 3.011 9.99409 0.577148 6.99181 0.577148ZM6.99181 8.06174C5.75705 8.06174 4.75619 7.06087 4.75619 5.82612C4.75619 4.59137 5.75705 3.5905 6.99181 3.5905C8.22656 3.5905 9.22743 4.59137 9.22743 5.82612C9.22743 7.06087 8.22656 8.06174 6.99181 8.06174Z" fill="currentColor"/>
        </g>
    </g>
    <defs>
        <clipPath id="clip0_2022_24880">
            <rect width="14" height="14" fill="white" transform="translate(0 0.5)"/>
        </clipPath>
    </defs>
</svg>
