<svg width="14" height="14" viewBox="0 0 14 14" fill="none" xmlns="http://www.w3.org/2000/svg">
<path d="M1 7.00381C1 6.80038 1.0712 6.62746 1.2136 6.48506C1.36109 6.34266 1.53401 6.27146 1.73236 6.27146H6.27146V1.73236C6.27146 1.5391 6.34266 1.36872 6.48506 1.22123C6.62746 1.07374 6.80038 1 7.00381 1C7.20725 1 7.37762 1.07374 7.51494 1.22123C7.65734 1.36872 7.72854 1.5391 7.72854 1.73236V6.27146H12.2753C12.4685 6.27146 12.6364 6.34266 12.7788 6.48506C12.9263 6.62746 13 6.80038 13 7.00381C13 7.20725 12.9263 7.38017 12.7788 7.52257C12.6364 7.66497 12.4685 7.73617 12.2753 7.73617H7.72854V12.2753C7.72854 12.4736 7.65734 12.644 7.51494 12.7864C7.37762 12.9288 7.20725 13 7.00381 13C6.80038 13 6.62746 12.9288 6.48506 12.7864C6.34266 12.644 6.27146 12.4736 6.27146 12.2753V7.73617H1.73236C1.53401 7.73617 1.36109 7.66497 1.2136 7.52257C1.0712 7.38017 1 7.20725 1 7.00381Z" fill="currentColor"/>
</svg>
