<svg width="14" height="14" viewBox="0 0 14 14" fill="none" xmlns="http://www.w3.org/2000/svg">
<path d="M13.1001 0.908187C12.3154 0.123144 11.2077 0 9.89233 0H4.08463C2.79231 0 1.68462 0.123144 0.900003 0.908187C0.115385 1.69324 0 2.79384 0 4.07916V9.89774C0 11.2138 0.115385 12.3067 0.900003 13.0918C1.68462 13.8768 2.79231 14 4.10001 14H9.89233C11.2077 14 12.3154 13.8768 13.1001 13.0918C13.8847 12.3067 14 11.2138 14 9.89774V4.10225C14 2.78614 13.8847 1.68554 13.1001 0.908187ZM3.24616 7.01153C3.24616 6.61131 3.52309 6.33424 3.93077 6.33424H6.33848V3.92523C6.33848 3.52501 6.60002 3.24024 6.99232 3.24024C7.39233 3.24024 7.66925 3.52501 7.66925 3.92523V6.33424H10.0846C10.477 6.33424 10.7616 6.61131 10.7616 7.01153C10.7616 7.40406 10.477 7.66574 10.0846 7.66574H7.66925V10.0825C7.66925 10.4827 7.39233 10.7597 6.99232 10.7597C6.60002 10.7597 6.33848 10.475 6.33848 10.0825V7.66574H3.93077C3.53078 7.66574 3.24616 7.40406 3.24616 7.01153Z" fill="currentColor"/>
</svg>
