<svg width="8" height="8" viewBox="0 0 8 8" fill="none" xmlns="http://www.w3.org/2000/svg"><path fill-rule="evenodd" clip-rule="evenodd" d="M7 4a3 3 0 1 1-6 0 3 3 0 0 1 6 0Zm1 0a4 4 0 1 1-8 0 4 4 0 0 1 8 0ZM4.003 2a.392.392 0 0 1 .397.397L4.39 3.61 5.602 3.6A.392.392 0 0 1 6 3.997a.408.408 0 0 1-.403.403l-1.215.01-.01 1.186A.409.409 0 0 1 3.97 6a.392.392 0 0 1-.397-.397l.01-1.185-1.185.01A.392.392 0 0 1 2 4.03a.408.408 0 0 1 .404-.403l1.185-.01.011-1.214A.408.408 0 0 1 4.003 2Z" fill="currentColor"/></svg>
