<svg width="15" height="15" viewBox="0 0 15 15" fill="none" xmlns="http://www.w3.org/2000/svg">
<path d="M13.7109 1.70312C14.0911 2.07812 14.3333 2.52604 14.4375 3.04688C14.5417 3.56771 14.5938 4.15625 14.5938 4.8125V10.5156C14.5938 11.1719 14.5417 11.7604 14.4375 12.2812C14.3333 12.8021 14.0911 13.25 13.7109 13.625C13.3307 14.0052 12.8776 14.2474 12.3516 14.3516C11.8307 14.4609 11.2448 14.5156 10.5938 14.5156H4.89062C4.23958 14.5156 3.65104 14.4609 3.125 14.3516C2.59896 14.2474 2.14583 14.0052 1.76562 13.625C1.38542 13.25 1.14323 12.8021 1.03906 12.2812C0.934896 11.7604 0.882812 11.1719 0.882812 10.5156V4.79688C0.882812 4.15104 0.934896 3.56771 1.03906 3.04688C1.14844 2.52604 1.39062 2.07812 1.76562 1.70312C2.14583 1.32812 2.59635 1.08594 3.11719 0.976562C3.64323 0.867188 4.22656 0.8125 4.86719 0.8125H10.5938C11.2448 0.8125 11.8307 0.867188 12.3516 0.976562C12.8776 1.08073 13.3307 1.32292 13.7109 1.70312ZM13.2656 4.60938C13.2656 4.22396 13.2292 3.85938 13.1562 3.51562C13.0885 3.16667 12.9505 2.88542 12.7422 2.67188C12.5286 2.45833 12.2448 2.3151 11.8906 2.24219C11.5417 2.16927 11.1771 2.13281 10.7969 2.13281H4.70312C4.3125 2.13281 3.9401 2.16927 3.58594 2.24219C3.23698 2.3099 2.95312 2.45312 2.73438 2.67188C2.52083 2.88021 2.38021 3.16146 2.3125 3.51562C2.25 3.86458 2.21875 4.23438 2.21875 4.625V10.7188C2.21875 11.1042 2.25 11.4714 2.3125 11.8203C2.38021 12.1641 2.52083 12.4427 2.73438 12.6562C2.95312 12.8698 3.23698 13.013 3.58594 13.0859C3.9349 13.1589 4.30208 13.1953 4.6875 13.1953H10.7969C11.1771 13.1953 11.5417 13.1589 11.8906 13.0859C12.2448 13.013 12.5286 12.8698 12.7422 12.6562C12.9505 12.4427 13.0885 12.1641 13.1562 11.8203C13.2292 11.4714 13.2656 11.1042 13.2656 10.7188V4.60938ZM4.32031 7.66406C4.32031 7.46615 4.38281 7.30469 4.50781 7.17969C4.63281 7.05469 4.79167 6.99219 4.98438 6.99219H7.07812V4.89844C7.07812 4.70052 7.13802 4.54167 7.25781 4.42188C7.38281 4.29688 7.53906 4.23438 7.72656 4.23438C7.92448 4.23438 8.08594 4.29688 8.21094 4.42188C8.33594 4.54167 8.39844 4.70052 8.39844 4.89844V6.99219H10.5C10.6927 6.99219 10.8516 7.05469 10.9766 7.17969C11.1016 7.30469 11.1641 7.46615 11.1641 7.66406C11.1641 7.85156 11.1016 8.00781 10.9766 8.13281C10.8516 8.2526 10.6927 8.3125 10.5 8.3125H8.39844V10.4141C8.39844 10.612 8.33594 10.7708 8.21094 10.8906C8.08594 11.0104 7.92448 11.0703 7.72656 11.0703C7.53906 11.0703 7.38281 11.0104 7.25781 10.8906C7.13802 10.7656 7.07812 10.6068 7.07812 10.4141V8.3125H4.98438C4.79167 8.3125 4.63281 8.2526 4.50781 8.13281C4.38281 8.00781 4.32031 7.85156 4.32031 7.66406Z" fill="currentColor"/>
</svg>
