<svg width="21" height="21" viewBox="0 0 21 21" fill="none" xmlns="http://www.w3.org/2000/svg">
<path fill-rule="evenodd" clip-rule="evenodd" d="M13.3707 1.50181C14.1515 0.721941 15.4165 0.721941 16.1973 1.50181L19.4941 4.79448C20.2759 5.57524 20.2764 6.84197 19.4954 7.62342L16.1986 10.9219C15.4175 11.7035 14.1506 11.7035 13.3694 10.9219L10.0726 7.62342C9.2916 6.84197 9.29216 5.57524 10.0739 4.79448L13.3707 1.50181ZM2 1.50878C0.89543 1.50878 0 2.40421 0 3.50878V8.17154C0 9.27611 0.89543 10.1715 2 10.1715H6.65828C7.76285 10.1715 8.65828 9.27611 8.65828 8.17154V3.50878C8.65828 2.40421 7.76285 1.50878 6.65828 1.50878H2ZM2 21C0.89543 21 0 20.1046 0 19V14.3372C0 13.2327 0.89543 12.3372 2 12.3372H6.65828C7.76285 12.3372 8.65828 13.2327 8.65828 14.3372V19C8.65828 20.1046 7.76285 21 6.65828 21H2ZM10.8229 14.3372C10.8229 13.2327 11.7183 12.3372 12.8229 12.3372H17.4811C18.5857 12.3372 19.4811 13.2327 19.4811 14.3372V19C19.4811 20.1046 18.5857 21 17.4811 21H12.8229C11.7183 21 10.8229 20.1046 10.8229 19V14.3372Z" fill="currentColor"/>
</svg>
