<svg width="51" height="28" viewBox="0 0 51 28" fill="none" xmlns="http://www.w3.org/2000/svg">
<g id="Group 2">
<g id="Group">
<path class="stroke" className="stroke" id="Rectangle 6" d="M5.14648 2C5.14648 1.17157 5.81806 0.5 6.64648 0.5H41.6465C42.4749 0.5 43.1465 1.17157 43.1465 2V25H5.14648V2Z" stroke="#5A5E73"/>
<g id="Rectangle 10">
<mask id="path-2-inside-1" fill="white">
<path fill-rule="evenodd" clip-rule="evenodd" d="M0.073223 26.4268C-0.0842682 26.2693 0.0272737 26 0.25 26H21.3964C21.5345 26 21.6464 26.1119 21.6464 26.25C21.6464 26.3881 21.7584 26.5 21.8964 26.5H26.3964C26.5345 26.5 26.6464 26.3881 26.6464 26.25C26.6464 26.1119 26.7584 26 26.8964 26H47.0429C47.2656 26 47.3772 26.2693 47.2197 26.4268L46.9393 26.7071C46.7518 26.8946 46.4974 27 46.2322 27H1.06066C0.795444 27 0.54109 26.8946 0.353553 26.7071L0.073223 26.4268Z"/>
</mask>
<path fill-rule="evenodd" clip-rule="evenodd" d="M0.073223 26.4268C-0.0842682 26.2693 0.0272737 26 0.25 26H21.3964C21.5345 26 21.6464 26.1119 21.6464 26.25C21.6464 26.3881 21.7584 26.5 21.8964 26.5H26.3964C26.5345 26.5 26.6464 26.3881 26.6464 26.25C26.6464 26.1119 26.7584 26 26.8964 26H47.0429C47.2656 26 47.3772 26.2693 47.2197 26.4268L46.9393 26.7071C46.7518 26.8946 46.4974 27 46.2322 27H1.06066C0.795444 27 0.54109 26.8946 0.353553 26.7071L0.073223 26.4268Z" fill="#D8D8D8"/>
<path class="fill" className="fill" d="M46.9393 26.7071L46.2322 26L46.9393 26.7071ZM47.2197 26.4268L46.5126 25.7197L47.2197 26.4268ZM0.25 27H21.3964V25H0.25V27ZM21.8964 27.5H26.3964V25.5H21.8964V27.5ZM26.8964 27H47.0429V25H26.8964V27ZM46.5126 25.7197L46.2322 26L47.6464 27.4142L47.9268 27.1339L46.5126 25.7197ZM46.2322 26H1.06066V28H46.2322V26ZM1.06066 26L0.78033 25.7197L-0.633884 27.1339L-0.353553 27.4142L1.06066 26ZM1.06066 26L1.06066 26L-0.353553 27.4142C0.0215196 27.7893 0.530228 28 1.06066 28V26ZM46.2322 26V26V28C46.7627 28 47.2714 27.7893 47.6464 27.4142L46.2322 26ZM47.0429 27C46.3747 27 46.0401 26.1921 46.5126 25.7197L47.9268 27.1339C48.7142 26.3464 48.1565 25 47.0429 25V27ZM27.6464 26.25C27.6464 26.6642 27.3107 27 26.8964 27V25C26.2061 25 25.6464 25.5596 25.6464 26.25H27.6464ZM26.3964 27.5C27.0868 27.5 27.6464 26.9404 27.6464 26.25H25.6464C25.6464 25.8358 25.9822 25.5 26.3964 25.5V27.5ZM20.6464 26.25C20.6464 26.9404 21.2061 27.5 21.8964 27.5V25.5C22.3107 25.5 22.6464 25.8358 22.6464 26.25H20.6464ZM21.3964 27C20.9822 27 20.6464 26.6642 20.6464 26.25H22.6464C22.6464 25.5596 22.0868 25 21.3964 25V27ZM0.25 25C-0.863628 25 -1.42134 26.3464 -0.633884 27.1339L0.78033 25.7197C1.25281 26.1921 0.918176 27 0.25 27V25Z" fill="#5A5E73" mask="url(#path-2-inside-1)"/>
</g>
</g>
<g id="Group 19">
<rect class="stroke" className="stroke" id="Rectangle" x="39.5" y="6.5" width="11" height="21" rx="2" fill="#1D2033" stroke="#5A5E73"/>
<g id="Subtract">
<mask id="path-5-outside-2" maskUnits="userSpaceOnUse" x="40" y="7" width="10" height="20" fill="black">
<rect fill="white" x="40" y="7" width="10" height="20"/>
<path fill-rule="evenodd" clip-rule="evenodd" d="M42 8H41.5C41.2239 8 41 8.22386 41 8.5V25.5C41 25.7761 41.2239 26 41.5 26H48.5C48.7761 26 49 25.7761 49 25.5V8.5C49 8.22386 48.7761 8 48.5 8H48C48 8.55228 47.5523 9 47 9H43C42.4477 9 42 8.55228 42 8Z"/>
</mask>
<path fill-rule="evenodd" clip-rule="evenodd" d="M42 8H41.5C41.2239 8 41 8.22386 41 8.5V25.5C41 25.7761 41.2239 26 41.5 26H48.5C48.7761 26 49 25.7761 49 25.5V8.5C49 8.22386 48.7761 8 48.5 8H48C48 8.55228 47.5523 9 47 9H43C42.4477 9 42 8.55228 42 8Z" fill="#1D2033"/>
<path class="fill" className="fill" d="M42 8H42.5V7.5H42V8ZM48 8V7.5H47.5V8H48ZM41.5 8.5H42V7.5H41.5V8.5ZM41.5 8.5V8.5V7.5C40.9477 7.5 40.5 7.94772 40.5 8.5H41.5ZM41.5 25.5V8.5H40.5V25.5H41.5ZM41.5 25.5H40.5C40.5 26.0523 40.9477 26.5 41.5 26.5V25.5ZM48.5 25.5H41.5V26.5H48.5V25.5ZM48.5 25.5V26.5C49.0523 26.5 49.5 26.0523 49.5 25.5H48.5ZM48.5 8.5V25.5H49.5V8.5H48.5ZM48.5 8.5H49.5C49.5 7.94772 49.0523 7.5 48.5 7.5V8.5ZM48 8.5H48.5V7.5H48V8.5ZM47.5 8C47.5 8.27614 47.2761 8.5 47 8.5V9.5C47.8284 9.5 48.5 8.82843 48.5 8H47.5ZM47 8.5H43V9.5H47V8.5ZM43 8.5C42.7239 8.5 42.5 8.27614 42.5 8H41.5C41.5 8.82843 42.1716 9.5 43 9.5V8.5Z" fill="#5A5E73" mask="url(#path-5-outside-2)"/>
</g>
</g>
</g>
</svg>
