<svg width="24" height="24" viewBox="0 0 24 24" fill="none" xmlns="http://www.w3.org/2000/svg">
<path fill-rule="evenodd" clip-rule="evenodd" d="M19 11H5V20C5 21.1046 5.89545 22 7 22H17C18.1046 22 19 21.1046 19 20V11ZM13.4285 15.4286C13.4285 15.9573 13.1413 16.419 12.7143 16.666V18.2857C12.7143 18.6802 12.3945 19 12 19C11.6055 19 11.2857 18.6802 11.2857 18.2857V16.666C10.8587 16.419 10.5714 15.9573 10.5714 15.4286C10.5714 14.6396 11.211 14 12 14C12.7889 14 13.4285 14.6396 13.4285 15.4286Z" fill="currentColor"/>
<path fill-rule="evenodd" clip-rule="evenodd" d="M7 7C7 4.23858 9.23858 2 12 2C14.7614 2 17 4.23858 17 7V9H15V7C15 5.34315 13.6569 4 12 4C10.3431 4 9 5.34315 9 7V9H7V7Z" fill="currentColor"/>
</svg>
