<svg width="16" height="17" viewBox="0 0 16 17" fill="none" xmlns="http://www.w3.org/2000/svg">
    <g clip-path="url(#clip0_1422_30309)">
        <path fill-rule="evenodd" clip-rule="evenodd"
              d="M8.60441 0.702072C10.2802 1.99076 12.1454 3.00876 14.1328 3.71943C14.3288 3.79048 14.4981 3.9209 14.6175 4.09274C14.7368 4.26458 14.8003 4.4694 14.7992 4.67903C14.7992 8.19928 14.1192 10.8574 12.732 12.7989C11.6199 14.3715 10.2048 15.274 8.95135 16.0734L8.91211 16.0985L8.53641 16.3396C8.37406 16.4443 8.18526 16.5 7.99241 16.5C7.79957 16.5 7.61077 16.4443 7.44841 16.3396L7.07271 16.1002C5.80282 15.2945 4.37652 14.3811 3.25282 12.8006C1.87922 10.8574 1.19922 8.19928 1.19922 4.67561C1.19859 4.4665 1.26231 4.26232 1.38163 4.09112C1.50095 3.91991 1.67002 3.79007 1.86562 3.71943C3.85134 3.00848 5.7148 1.99048 7.38891 0.702072C7.5647 0.570847 7.77778 0.5 7.99666 0.5C8.21555 0.5 8.42863 0.570847 8.60441 0.702072ZM5.13136 9.28094C4.87264 9.02222 4.87264 8.60274 5.13136 8.34402C5.39009 8.08529 5.80956 8.08529 6.06829 8.34402L7.47287 9.7486L10.753 6.46844C11.0118 6.20972 11.4312 6.20972 11.69 6.46844C11.9487 6.72717 11.9487 7.14664 11.69 7.40537L7.96898 11.1263C7.96037 11.136 7.95142 11.1455 7.94214 11.1548C7.68341 11.4135 7.26394 11.4135 7.00521 11.1548L5.13136 9.28094Z"
              fill="currentColor"/>
    </g>
    <defs>
        <clipPath id="clip0_1422_30309">
            <rect width="16" height="16" fill="white" transform="translate(0 0.5)"/>
        </clipPath>
    </defs>
</svg>
