<svg width="22" height="22" viewBox="0 0 22 22" fill="none" xmlns="http://www.w3.org/2000/svg">
<path d="M3.44411 5.73184C3.06305 6.0838 2.45381 6.09211 2.07274 5.74015L0.285842 4.01491C-0.0952807 3.6469 -0.0952808 3.05023 0.285842 2.68222C0.666965 2.31421 1.28489 2.31421 1.66601 2.68222L2.75403 3.73281L6.33399 0.276009C6.71511 -0.0920028 7.33303 -0.092003 7.71416 0.276009C8.09528 0.644021 8.09528 1.24069 7.71416 1.6087L3.44411 5.73184Z" fill="currentColor"/>
<rect x="12" y="2" width="10" height="2" rx="1" fill="currentColor"/>
<path d="M3.44411 13.7318C3.06305 14.0838 2.45381 14.0921 2.07274 13.7401L0.285842 12.0149C-0.0952807 11.6469 -0.0952808 11.0502 0.285842 10.6822C0.666965 10.3142 1.28489 10.3142 1.66601 10.6822L2.75403 11.7328L6.33399 8.27601C6.71511 7.908 7.33303 7.908 7.71416 8.27601C8.09528 8.64402 8.09528 9.24069 7.71416 9.6087L3.44411 13.7318Z" fill="currentColor"/>
<rect x="12" y="10" width="10" height="2" rx="1" fill="currentColor"/>
<path d="M3.44411 21.7318C3.06305 22.0838 2.45381 22.0921 2.07274 21.7401L0.285842 20.0149C-0.0952807 19.6469 -0.0952808 19.0502 0.285842 18.6822C0.666965 18.3142 1.28489 18.3142 1.66601 18.6822L2.75403 19.7328L6.33399 16.276C6.71511 15.908 7.33303 15.908 7.71416 16.276C8.09528 16.644 8.09528 17.2407 7.71416 17.6087L3.44411 21.7318Z" fill="currentColor"/>
<rect x="12" y="18" width="10" height="2" rx="1" fill="currentColor"/>
</svg>
