<svg width="14" height="14" viewBox="0 0 14 14" fill="none" xmlns="http://www.w3.org/2000/svg">
<path d="M10.261 1C9.90976 1 9.625 1.28476 9.625 1.63602V2.75H5.75C5.47386 2.75 5.25 2.97386 5.25 3.25V4.875C5.25 5.15114 5.47386 5.375 5.75 5.375H9.625V6.48898C9.625 6.84024 9.90976 7.125 10.261 7.125C10.4151 7.125 10.5639 7.06908 10.6798 6.96763L13.1399 4.81508C13.5952 4.41666 13.5952 3.70833 13.1399 3.30992L10.6798 1.15737C10.5639 1.05592 10.4151 1 10.261 1ZM0.5 2.75C0.223858 2.75 0 2.97386 0 3.25V4.875C0 5.15114 0.223858 5.375 0.5 5.375H1.25C1.52614 5.375 1.75 5.15114 1.75 4.875V3.25C1.75 2.97386 1.52614 2.75 1.25 2.75H0.5ZM3.125 2.75C2.84886 2.75 2.625 2.97386 2.625 3.25V4.875C2.625 5.15114 2.84886 5.375 3.125 5.375H3.875C4.15114 5.375 4.375 5.15114 4.375 4.875V3.25C4.375 2.97386 4.15114 2.75 3.875 2.75H3.125ZM3.73898 7.125C3.58492 7.125 3.43609 7.18092 3.32015 7.28237L0.860087 9.43492C0.40476 9.83333 0.404761 10.5417 0.860088 10.9401L3.32015 13.0926C3.43609 13.1941 3.58492 13.25 3.73898 13.25C4.09024 13.25 4.375 12.9652 4.375 12.614V11.5H8.25C8.52614 11.5 8.75 11.2761 8.75 11V9.375C8.75 9.09886 8.52614 8.875 8.25 8.875H4.375V7.76102C4.375 7.40976 4.09024 7.125 3.73898 7.125ZM10.125 8.875C9.84886 8.875 9.625 9.09886 9.625 9.375V11C9.625 11.2761 9.84886 11.5 10.125 11.5H10.875C11.1511 11.5 11.375 11.2761 11.375 11V9.375C11.375 9.09886 11.1511 8.875 10.875 8.875H10.125ZM12.75 8.875C12.4739 8.875 12.25 9.09886 12.25 9.375V11C12.25 11.2761 12.4739 11.5 12.75 11.5H13.5C13.7761 11.5 14 11.2761 14 11V9.375C14 9.09886 13.7761 8.875 13.5 8.875H12.75Z" fill="currentColor"/>
</svg>
