<svg width="16" height="16" viewBox="0 0 16 16" fill="none" xmlns="http://www.w3.org/2000/svg">
<path fill-rule="evenodd" clip-rule="evenodd" d="M8 16C12.4183 16 16 12.4183 16 8C16 3.58172 12.4183 0 8 0C3.58172 0 0 3.58172 0 8C0 12.4183 3.58172 16 8 16ZM8.37658 9.547C8.37658 9.569 8.37658 9.624 8.38758 9.69H7.28758C7.28634 9.67391 7.2851 9.6581 7.28388 9.6425C7.27424 9.51936 7.26558 9.40868 7.26558 9.272C7.26558 8.612 7.51858 8.073 8.15658 7.611L8.66258 7.248C9.02558 6.984 9.17958 6.665 9.17958 6.291C9.17958 5.719 8.79458 5.18 7.99158 5.18C7.17758 5.18 6.74858 5.807 6.74858 6.434C6.74858 6.599 6.77058 6.808 6.81458 6.929L5.57158 6.841C5.52758 6.687 5.50558 6.511 5.50558 6.335C5.50558 5.235 6.33058 4.036 7.99158 4.036C9.61958 4.036 10.4996 5.114 10.4996 6.236C10.4996 7.105 10.0376 7.721 9.39958 8.172L8.92658 8.502C8.56358 8.755 8.37658 9.118 8.37658 9.547ZM7.84858 12.077C7.39758 12.077 7.04558 11.714 7.04558 11.274C7.04558 10.834 7.39758 10.46 7.84858 10.46C8.28858 10.46 8.65158 10.834 8.65158 11.274C8.65158 11.714 8.28858 12.077 7.84858 12.077Z" fill="currentColor"/>
</svg>
