<svg width="14" height="14" viewBox="0 0 14 14" fill="none" xmlns="http://www.w3.org/2000/svg">
<path d="M7 14C6.04473 14 5.1443 13.8172 4.29873 13.4515C3.45315 13.0859 2.70813 12.5808 2.06366 11.9363C1.4192 11.2919 0.914136 10.5468 0.548482 9.70127C0.182827 8.8557 0 7.95527 0 7C0 6.04473 0.182827 5.1443 0.548482 4.29873C0.914136 3.45315 1.41691 2.70813 2.05681 2.06366C2.70127 1.4192 3.44629 0.914136 4.29187 0.548482C5.13745 0.182827 6.03787 0 6.99314 0C7.94842 0 8.84884 0.182827 9.69442 0.548482C10.5446 0.914136 11.2919 1.4192 11.9363 2.06366C12.5808 2.70813 13.0859 3.45315 13.4515 4.29873C13.8172 5.1443 14 6.04473 14 7C14 7.95527 13.8172 8.8557 13.4515 9.70127C13.0859 10.5468 12.5808 11.2919 11.9363 11.9363C11.2919 12.5808 10.5468 13.0859 9.70127 13.4515C8.8557 13.8172 7.95527 14 7 14ZM7 12.8139C7.80901 12.8139 8.56317 12.6631 9.26249 12.3614C9.96637 12.0597 10.5857 11.6438 11.1205 11.1136C11.6552 10.5834 12.0712 9.96866 12.3683 9.26934C12.6654 8.56546 12.8139 7.80901 12.8139 7C12.8139 6.19099 12.6631 5.43683 12.3614 4.73751C12.0643 4.03363 11.6484 3.41658 11.1136 2.88639C10.5834 2.35162 9.96637 1.93568 9.26249 1.63859C8.5586 1.33692 7.80215 1.18609 6.99314 1.18609C6.1887 1.18609 5.43454 1.33692 4.73066 1.63859C4.02677 1.93568 3.40973 2.35162 2.87953 2.88639C2.3539 3.41658 1.94025 4.03363 1.63859 4.73751C1.3415 5.43683 1.19295 6.19099 1.19295 7C1.19295 7.80901 1.3415 8.56546 1.63859 9.26934C1.94025 9.96866 2.35619 10.5834 2.88639 11.1136C3.41658 11.6438 4.03363 12.0597 4.73751 12.3614C5.4414 12.6631 6.19556 12.8139 7 12.8139ZM6.86288 8.41234C6.49265 8.41234 6.30754 8.2318 6.30754 7.87071C6.30754 7.857 6.30754 7.84329 6.30754 7.82958C6.30754 7.8113 6.30754 7.7953 6.30754 7.78159C6.30754 7.44336 6.38753 7.17369 6.5475 6.97258C6.70748 6.76689 6.91087 6.5795 7.15769 6.41038C7.45935 6.20013 7.68332 6.02187 7.82958 5.87561C7.97584 5.72478 8.04897 5.5351 8.04897 5.30656C8.04897 5.04603 7.95527 4.83578 7.76787 4.67581C7.58505 4.51583 7.33595 4.43585 7.02057 4.43585C6.87431 4.43585 6.7349 4.46099 6.60235 4.51126C6.47437 4.55697 6.35782 4.62782 6.25269 4.7238C6.15214 4.81521 6.06072 4.9272 5.97845 5.05975L5.85504 5.22429C5.79563 5.30656 5.72478 5.37284 5.64251 5.42311C5.56024 5.47339 5.46197 5.49853 5.3477 5.49853C5.23343 5.49853 5.12373 5.45739 5.01861 5.37512C4.91805 5.29285 4.86778 5.17401 4.86778 5.01861C4.86778 4.95919 4.87235 4.90206 4.88149 4.84721C4.89063 4.79236 4.90434 4.73751 4.92262 4.68266C5.02318 4.36729 5.25857 4.09076 5.6288 3.85309C6.00359 3.61084 6.4858 3.48972 7.07542 3.48972C7.46392 3.48972 7.82272 3.55828 8.15181 3.6954C8.48547 3.82795 8.75286 4.02449 8.95397 4.28501C9.15965 4.54554 9.26249 4.86549 9.26249 5.24486C9.26249 5.65622 9.15508 5.98074 8.94025 6.21841C8.72543 6.45609 8.45348 6.68462 8.12439 6.90402C7.88214 7.06399 7.70389 7.21254 7.58962 7.34966C7.47535 7.48678 7.41822 7.65132 7.41822 7.84329C7.41822 7.85243 7.41822 7.86614 7.41822 7.88443C7.41822 7.89814 7.41822 7.91185 7.41822 7.92556C7.41822 8.05811 7.36794 8.17238 7.26738 8.26836C7.16683 8.36435 7.03199 8.41234 6.86288 8.41234ZM6.84231 10.4623C6.64577 10.4623 6.47209 10.3937 6.32125 10.2566C6.17499 10.1149 6.10186 9.9458 6.10186 9.74926C6.10186 9.54815 6.17499 9.37904 6.32125 9.24192C6.46752 9.10023 6.6412 9.02938 6.84231 9.02938C7.04342 9.02938 7.21711 9.09794 7.36337 9.23506C7.5142 9.37218 7.58962 9.54358 7.58962 9.74926C7.58962 9.95038 7.5142 10.1195 7.36337 10.2566C7.21711 10.3937 7.04342 10.4623 6.84231 10.4623Z" fill="currentColor"/>
</svg>
