<svg width="64" height="64" viewBox="0 0 64 64" fill="none" xmlns="http://www.w3.org/2000/svg">
<path d="M13.0982 5C7.08627 5 2.21265 9.79272 2.21265 15.7048V41.3964C2.21265 46.886 6.41465 51.4106 11.8282 52.0292V52.1012C11.8282 54.4661 13.7416 56.3832 16.1018 56.3832C18.462 56.3832 20.3754 54.4661 20.3754 52.1012H38.3573C38.1023 51.0719 37.9641 49.9965 37.9577 48.8898H13.0982C8.88984 48.8898 5.47831 45.5349 5.47831 41.3964V15.7048C5.47831 11.5663 8.88985 8.21145 13.0982 8.21145H49.0205C53.2288 8.21145 56.6404 11.5663 56.6404 15.7048V36.1328C57.8186 36.602 58.9161 37.2307 59.906 37.9922V15.7048C59.906 9.79271 55.0324 5 49.0205 5H13.0982Z" fill="url(#paint0_linear_6068_1105)"/>
<path d="M37.4697 21.0572C33.3393 21.0572 29.9909 24.4121 29.9909 28.5506V29.1453C29.9909 29.7365 30.4693 30.2158 31.0593 30.2158C31.6494 30.2158 32.1277 29.7365 32.1277 29.1453V28.5506C32.1277 25.5946 34.5194 23.1982 37.4697 23.1982C38.5115 23.1982 39.4806 23.4959 40.3008 24.0106C40.8008 24.3245 41.4601 24.1727 41.7733 23.6717C42.0866 23.1707 41.9351 22.5101 41.4351 22.1962C40.2849 21.4744 38.9243 21.0572 37.4697 21.0572Z" fill="url(#paint1_linear_6068_1105)"/>
<path d="M43.8682 24.6712C43.5622 24.1657 42.9052 24.0044 42.4006 24.3109C41.8961 24.6175 41.7351 25.2758 42.0411 25.7814C42.5298 26.5888 42.8115 27.5359 42.8115 28.5521C42.8115 29.274 42.6694 29.9601 42.4127 30.5856C42.1884 31.1324 42.4489 31.7579 42.9946 31.9827C43.5404 32.2075 44.1647 31.9465 44.389 31.3997C44.7498 30.5203 44.9482 29.5581 44.9482 28.5521C44.9482 27.1335 44.5538 25.8039 43.8682 24.6712Z" fill="url(#paint2_linear_6068_1105)"/>
<path d="M33.1961 28.5506C33.1961 26.1858 35.1095 24.2687 37.4697 24.2687C39.83 24.2687 41.7433 26.1858 41.7433 28.5506C41.7433 29.1418 41.265 29.6211 40.6749 29.6211C40.0848 29.6211 39.6065 29.1418 39.6065 28.5506C39.6065 27.3682 38.6498 26.4096 37.4697 26.4096C36.2896 26.4096 35.3329 27.3682 35.3329 28.5506V34.1013C35.3329 34.6925 34.8546 35.1718 34.2645 35.1718C33.6745 35.1718 33.1961 34.6925 33.1961 34.1013V28.5506Z" fill="url(#paint3_linear_6068_1105)"/>
<path d="M41.7433 31.7621C41.7433 31.1708 41.265 30.6916 40.6749 30.6916C40.0848 30.6916 39.6065 31.1708 39.6065 31.7621V34.1011C39.6065 34.6923 40.0848 35.1716 40.6749 35.1716C41.265 35.1716 41.7433 34.6923 41.7433 34.1011V31.7621Z" fill="url(#paint4_linear_6068_1105)"/>
<path d="M38.5381 29.0859C38.5381 28.4946 38.0598 28.0154 37.4697 28.0154C36.8797 28.0154 36.4013 28.4946 36.4013 29.0859V34.9733C36.4013 35.5645 36.8797 36.0438 37.4697 36.0438C38.0598 36.0438 38.5381 35.5645 38.5381 34.9733V29.0859Z" fill="url(#paint5_linear_6068_1105)"/>
<path fill-rule="evenodd" clip-rule="evenodd" d="M39.9543 41.7005C41.9065 38.5102 45.1331 36.1844 48.926 35.4314C50.1315 33.4209 50.8247 31.0668 50.8247 28.5506C50.8247 21.1605 44.8455 15.1696 37.4697 15.1696C30.094 15.1696 24.1148 21.1605 24.1148 28.5506C24.1148 35.9408 30.094 41.9316 37.4697 41.9316C38.3188 41.9316 39.1493 41.8523 39.9543 41.7005ZM27.32 28.5506C27.32 22.9341 31.8642 18.381 37.4697 18.381C43.0753 18.381 47.6195 22.9341 47.6195 28.5506C47.6195 34.1671 43.0753 38.7202 37.4697 38.7202C31.8642 38.7202 27.32 34.1671 27.32 28.5506Z" fill="url(#paint6_linear_6068_1105)"/>
<path d="M11.8282 22.1277C11.8282 20.9453 12.7849 19.9868 13.965 19.9868C15.1451 19.9868 16.1018 20.9453 16.1018 22.1277V34.9735C16.1018 36.1559 15.1451 37.1145 13.965 37.1145C12.7849 37.1145 11.8282 36.1559 11.8282 34.9735V22.1277Z" fill="url(#paint7_linear_6068_1105)"/>
<path fill-rule="evenodd" clip-rule="evenodd" d="M47.6597 58.1999C48.8949 58.7333 50.2073 59 51.5969 59C52.9725 59 54.2709 58.7333 55.492 58.1999C56.7272 57.6665 57.8151 56.9296 58.7555 55.9892C59.6959 55.0488 60.4328 53.9609 60.9662 52.7257C61.5136 51.5046 61.7873 50.1992 61.7873 48.8096C61.7873 46.9428 61.3241 45.2373 60.3977 43.6933C59.4854 42.1493 58.2502 40.9212 56.6921 40.0088C55.1481 39.0824 53.4497 38.6192 51.5969 38.6192C49.7301 38.6192 48.0247 39.0824 46.4807 40.0088C44.9507 40.9212 43.7225 42.1493 42.7961 43.6933C41.8697 45.2373 41.4065 46.9428 41.4065 48.8096C41.4065 50.1992 41.6732 51.5116 42.2066 52.7468C42.74 53.982 43.4699 55.0698 44.3963 56.0103C45.3367 56.9507 46.4245 57.6806 47.6597 58.1999ZM56.7132 50.0939H46.4386C46.0877 50.0939 45.7859 49.9606 45.5332 49.6939C45.2806 49.4412 45.1542 49.1465 45.1542 48.8096C45.1542 48.4727 45.2806 48.178 45.5332 47.9253C45.7859 47.6586 46.0877 47.5253 46.4386 47.5253H56.7132C57.0641 47.5253 57.3659 47.6516 57.6185 47.9042C57.8712 48.1569 57.9975 48.4587 57.9975 48.8096C57.9975 49.1465 57.8712 49.4412 57.6185 49.6939C57.3659 49.9606 57.0641 50.0939 56.7132 50.0939Z" fill="url(#paint8_linear_6068_1105)"/>
<defs>
<linearGradient id="paint0_linear_6068_1105" x1="2.21265" y1="4.38637" x2="64.9131" y2="8.29929" gradientUnits="userSpaceOnUse">
<stop stop-color="#2091F6"/>
<stop offset="1" stop-color="#21B568"/>
</linearGradient>
<linearGradient id="paint1_linear_6068_1105" x1="2.21265" y1="4.38637" x2="64.9131" y2="8.29929" gradientUnits="userSpaceOnUse">
<stop stop-color="#2091F6"/>
<stop offset="1" stop-color="#21B568"/>
</linearGradient>
<linearGradient id="paint2_linear_6068_1105" x1="2.21265" y1="4.38637" x2="64.9131" y2="8.29929" gradientUnits="userSpaceOnUse">
<stop stop-color="#2091F6"/>
<stop offset="1" stop-color="#21B568"/>
</linearGradient>
<linearGradient id="paint3_linear_6068_1105" x1="2.21265" y1="4.38637" x2="64.9131" y2="8.29929" gradientUnits="userSpaceOnUse">
<stop stop-color="#2091F6"/>
<stop offset="1" stop-color="#21B568"/>
</linearGradient>
<linearGradient id="paint4_linear_6068_1105" x1="2.21265" y1="4.38637" x2="64.9131" y2="8.29929" gradientUnits="userSpaceOnUse">
<stop stop-color="#2091F6"/>
<stop offset="1" stop-color="#21B568"/>
</linearGradient>
<linearGradient id="paint5_linear_6068_1105" x1="2.21265" y1="4.38637" x2="64.9131" y2="8.29929" gradientUnits="userSpaceOnUse">
<stop stop-color="#2091F6"/>
<stop offset="1" stop-color="#21B568"/>
</linearGradient>
<linearGradient id="paint6_linear_6068_1105" x1="2.21265" y1="4.38637" x2="64.9131" y2="8.29929" gradientUnits="userSpaceOnUse">
<stop stop-color="#2091F6"/>
<stop offset="1" stop-color="#21B568"/>
</linearGradient>
<linearGradient id="paint7_linear_6068_1105" x1="2.21265" y1="4.38637" x2="64.9131" y2="8.29929" gradientUnits="userSpaceOnUse">
<stop stop-color="#2091F6"/>
<stop offset="1" stop-color="#21B568"/>
</linearGradient>
<linearGradient id="paint8_linear_6068_1105" x1="2.21265" y1="4.38637" x2="64.9131" y2="8.29929" gradientUnits="userSpaceOnUse">
<stop stop-color="#2091F6"/>
<stop offset="1" stop-color="#21B568"/>
</linearGradient>
</defs>
</svg>
