<svg width="64" height="64" viewBox="0 0 64 64" fill="none" xmlns="http://www.w3.org/2000/svg">
<path d="M4.10178 52.569C2.74139 52.569 1.71766 52.2804 1.0306 51.7033C0.343533 51.1399 0 50.2948 0 49.168C0 47.5603 0.384756 46.0144 1.15427 44.5304C1.92378 43.0463 2.98873 41.7271 4.34912 40.5729C5.70951 39.4049 7.28976 38.4842 9.08987 37.8109C10.89 37.1238 12.8206 36.7803 14.8818 36.7803C16.4483 36.7803 17.9667 36.9933 19.4371 37.4192C20.9074 37.8315 22.2678 38.4292 23.5182 39.2125C23.0373 39.5423 22.6044 39.8995 22.2197 40.2843C21.8349 40.6553 21.4845 41.0538 21.1685 41.4798C20.2753 40.9714 19.2928 40.5797 18.221 40.3049C17.1629 40.0301 16.0498 39.8927 14.8818 39.8927C13.3016 39.8927 11.8106 40.1469 10.409 40.6553C9.00742 41.15 7.76383 41.8233 6.67827 42.6753C5.60645 43.5272 4.75449 44.496 4.12239 45.5816C3.50403 46.6671 3.19485 47.7871 3.19485 48.9413C3.19485 49.12 3.23608 49.2505 3.31852 49.3329C3.41471 49.4154 3.559 49.4566 3.75137 49.4566H17.7469C17.6782 50.075 17.795 50.6727 18.0973 51.2499C18.3996 51.8407 18.805 52.2805 19.3134 52.569H4.10178ZM14.8818 34.6778C13.5352 34.6778 12.3053 34.3137 11.1923 33.5854C10.0792 32.8571 9.18606 31.8815 8.51273 30.6585C7.83941 29.4355 7.50275 28.082 7.50275 26.598C7.50275 25.1689 7.83941 23.8566 8.51273 22.6611C9.18606 21.4518 10.0792 20.49 11.1923 19.7754C12.3053 19.0471 13.5352 18.683 14.8818 18.683C16.256 18.683 17.4995 19.0403 18.6126 19.7548C19.7256 20.4556 20.6119 21.4106 21.2715 22.6199C21.9311 23.8154 22.2609 25.1276 22.2609 26.5567C22.2609 28.0545 21.9242 29.4149 21.2509 30.6379C20.5913 31.8609 19.705 32.8434 18.592 33.5854C17.4789 34.3137 16.2422 34.6778 14.8818 34.6778ZM14.8818 31.5448C15.6513 31.5448 16.359 31.325 17.0049 30.8853C17.6507 30.4318 18.166 29.834 18.5508 29.092C18.9493 28.3362 19.1485 27.4911 19.1485 26.5567C19.1485 25.691 18.9561 24.9009 18.5714 24.1864C18.1866 23.4581 17.6713 22.8809 17.0255 22.455C16.3796 22.029 15.6651 21.816 14.8818 21.816C14.1123 21.816 13.4046 22.0359 12.7588 22.4756C12.1267 22.9016 11.6114 23.4787 11.2129 24.207C10.8281 24.9353 10.6358 25.7323 10.6358 26.598C10.6358 27.5186 10.8281 28.35 11.2129 29.092C11.6114 29.834 12.1267 30.4318 12.7588 30.8853C13.4046 31.325 14.1123 31.5448 14.8818 31.5448ZM41.8629 52.569H25.229C21.9586 52.569 20.3234 51.4903 20.3234 49.3329C20.3234 48.0275 20.7219 46.6534 21.5189 45.2106C22.3159 43.754 23.4564 42.3936 24.9405 41.1294C26.4245 39.8514 28.2178 38.814 30.3202 38.017C32.4226 37.22 34.793 36.8215 37.4313 36.8215C39.1627 36.8215 40.7773 37.007 42.2751 37.378C43.7866 37.749 45.1814 38.2575 46.4593 38.9033C46.0059 39.2606 45.5799 39.6453 45.1814 40.0576C44.7829 40.4561 44.4187 40.8889 44.089 41.3561C43.1545 40.9439 42.1308 40.6141 41.0178 40.3667C39.9047 40.1194 38.7092 39.9957 37.4313 39.9957C35.2327 39.9957 33.2883 40.3049 31.5981 40.9233C29.9079 41.5416 28.4788 42.3249 27.3108 43.273C26.1566 44.2212 25.2771 45.1968 24.6725 46.1999C24.0816 47.203 23.7862 48.0962 23.7862 48.8795C23.7862 49.0581 23.8343 49.1887 23.9305 49.2711C24.0404 49.3536 24.2122 49.3948 24.4458 49.3948H41.3682C41.3819 49.9582 41.43 50.4941 41.5125 51.0025C41.5949 51.5109 41.7117 52.0331 41.8629 52.569ZM37.4107 34.4717C35.8579 34.4717 34.4357 34.0595 33.144 33.235C31.8661 32.3968 30.8423 31.2837 30.0728 29.8959C29.3033 28.4943 28.9186 26.9484 28.9186 25.2582C28.9186 23.5955 29.2964 22.0839 30.0522 20.7236C30.8217 19.3632 31.8523 18.2845 33.144 17.4875C34.4357 16.6905 35.8579 16.292 37.4107 16.292C38.9634 16.292 40.3788 16.6974 41.6567 17.5081C42.9484 18.3188 43.979 19.4044 44.7485 20.7648C45.518 22.1252 45.9028 23.6367 45.9028 25.2994C45.9028 26.9896 45.518 28.5286 44.7485 29.9165C43.979 31.3044 42.9484 32.4105 41.6567 33.235C40.3788 34.0595 38.9634 34.4717 37.4107 34.4717ZM37.4107 31.3181C38.3313 31.3181 39.1833 31.0501 39.9666 30.5142C40.7498 29.9783 41.375 29.2569 41.8422 28.35C42.3095 27.4431 42.5431 26.4262 42.5431 25.2994C42.5431 24.2001 42.3095 23.2107 41.8422 22.3313C41.3888 21.4518 40.7704 20.7579 39.9872 20.2495C39.2039 19.7273 38.3451 19.4662 37.4107 19.4662C36.4763 19.4662 35.6174 19.7204 34.8342 20.2289C34.0647 20.7373 33.4463 21.4312 32.9791 22.3107C32.5257 23.1901 32.2989 24.1726 32.2989 25.2582C32.2989 26.385 32.5325 27.4087 32.9997 28.3294C33.4669 29.2363 34.0853 29.9646 34.8548 30.5142C35.6243 31.0501 36.4763 31.3181 37.4107 31.3181ZM54.0239 58.9999C52.6635 58.9999 51.3787 58.7389 50.1695 58.2167C48.9602 57.7083 47.8953 56.9937 46.9746 56.073C46.0677 55.1524 45.3532 54.0874 44.831 52.8782C44.3088 51.669 44.0477 50.3842 44.0477 49.0238C44.0477 47.1962 44.5012 45.5266 45.4081 44.0151C46.315 42.5035 47.5174 41.3012 49.0152 40.408C50.5268 39.501 52.1963 39.0476 54.0239 39.0476C55.8378 39.0476 57.5005 39.501 59.012 40.408C60.5373 41.3012 61.7465 42.5035 62.6397 44.0151C63.5466 45.5266 64.0001 47.1962 64.0001 49.0238C64.0001 50.3842 63.7321 51.6621 63.1962 52.8576C62.6741 54.0668 61.9526 55.1318 61.032 56.0524C60.1113 56.9731 59.0464 57.6945 57.8371 58.2167C56.6416 58.7389 55.3706 58.9999 54.0239 58.9999ZM48.974 50.2811H59.0326C59.3761 50.2811 59.6716 50.1506 59.9189 49.8895C60.1663 49.6421 60.2899 49.3536 60.2899 49.0238C60.2899 48.6802 60.1663 48.3848 59.9189 48.1374C59.6716 47.8901 59.3761 47.7664 59.0326 47.7664H48.974C48.6305 47.7664 48.335 47.897 48.0877 48.1581C47.8403 48.4054 47.7167 48.694 47.7167 49.0238C47.7167 49.3536 47.8403 49.6421 48.0877 49.8895C48.335 50.1506 48.6305 50.2811 48.974 50.2811Z" fill="url(#paint0_linear_6068_1106)"/>
<defs>
<linearGradient id="paint0_linear_6068_1106" x1="32" y1="16.292" x2="32" y2="58.9999" gradientUnits="userSpaceOnUse">
<stop stop-color="#2091F6"/>
<stop offset="1" stop-color="#21B568"/>
</linearGradient>
</defs>
</svg>
