<svg width="10" height="11" viewBox="0 0 10 11" fill="none" xmlns="http://www.w3.org/2000/svg">
<path d="M0.185063 10.3191C0.101344 10.2398 0.0462657 10.145 0.0198282 10.0348C-0.00660938 9.92458 -0.00660938 9.81437 0.0198282 9.70416C0.050672 9.59395 0.10575 9.49917 0.185063 9.41982L4.09782 5.49856L0.185063 1.58391C0.10575 1.50456 0.0528751 1.40978 0.0264375 1.29957C0 1.18936 0 1.08136 0.0264375 0.975556C0.0528751 0.865347 0.10575 0.768362 0.185063 0.684603C0.264375 0.600843 0.35911 0.545739 0.469266 0.519288C0.579423 0.492838 0.687376 0.495042 0.793126 0.525901C0.903283 0.552351 1.00022 0.605252 1.08394 0.684603L4.9967 4.60586L8.92267 0.684603C9.04164 0.565576 9.18925 0.506063 9.3655 0.506063C9.54175 0.506063 9.69156 0.565576 9.81494 0.684603C9.93831 0.803629 10 0.953514 10 1.13426C10 1.315 9.94052 1.46489 9.82155 1.58391L5.89557 5.49856L9.82155 9.41982C9.94052 9.53885 10 9.68873 10 9.86948C10 10.0458 9.93831 10.1957 9.81494 10.3191C9.69156 10.4426 9.54175 10.5021 9.3655 10.4977C9.18925 10.4977 9.04164 10.4382 8.92267 10.3191L4.9967 6.39787L1.08394 10.3191C1.00022 10.3985 0.903283 10.4514 0.793126 10.4778C0.687376 10.5087 0.579423 10.5087 0.469266 10.4778C0.35911 10.4514 0.264375 10.3985 0.185063 10.3191Z" fill="currentColor"/>
</svg>
