<svg width="250" height="150" viewBox="0 0 250 150" fill="none" xmlns="http://www.w3.org/2000/svg">
<g id="remote-port-forwarding">
<line id="remote-port-forwarding-line-to-firewall" x1="61.2967" y1="32.7033" x2="94.7033" y2="32.7033" stroke="#F25E61" stroke-width="2.59344" stroke-linecap="round"/>
<g id="remote-port-forwarding-firewall">
<g id="wall">
<g id="Group 2">
<rect id="Rectangle" x="108" y="33" width="26" height="10" rx="2.82884" fill="#F24E50"/>
<rect id="Rectangle_2" x="136" y="33" width="8" height="10" rx="2.82884" fill="#F24E50"/>
<rect id="Rectangle_3" x="118" y="44" width="26" height="10" rx="2.82884" fill="#F24E50"/>
<rect id="Rectangle_4" x="108" y="44" width="8" height="10" rx="2.82884" fill="#F24E50"/>
<rect id="Rectangle_5" x="127" y="55" width="17" height="10" rx="2.82884" fill="#F24E50"/>
<rect id="Rectangle_6" x="108" y="55" width="17" height="10" rx="2.82884" fill="#F24E50"/>
</g>
<g id="Group 2.1">
<rect id="Rectangle_7" x="108" width="26" height="10" rx="2.82884" fill="#F24E50"/>
<rect id="Rectangle_8" x="136" width="8" height="10" rx="2.82884" fill="#F24E50"/>
<rect id="Rectangle_9" x="118" y="11" width="26" height="10" rx="2.82884" fill="#F24E50"/>
<rect id="Rectangle_10" x="108" y="11" width="8" height="10" rx="2.82884" fill="#F24E50"/>
<rect id="Rectangle_11" x="126.504" y="22" width="17" height="10" rx="2.82884" fill="#F24E50"/>
<rect id="Rectangle_12" x="108" y="22" width="17" height="10" rx="2.82884" fill="#F24E50"/>
</g>
</g>
<g id="fire">
<path id="Vector" d="M134.293 34.9211C134.293 39.6174 130.64 43.2928 125.999 43.2928C121.359 43.2928 117.707 39.6176 117.707 34.9211C117.707 33.8397 118.138 32.7557 118.848 31.6254C119.523 30.5509 120.408 29.4986 121.321 28.4141C121.371 28.3545 121.421 28.2948 121.471 28.2351C122.418 27.1088 123.388 25.9387 124.056 24.7471C124.544 23.8757 124.897 22.9482 124.948 21.976C125.312 22.1502 125.753 22.4026 126.245 22.7295C127.303 23.4309 128.559 24.4483 129.764 25.6926C132.195 28.2046 134.293 31.5152 134.293 34.9211Z" fill="#DD2C00" stroke="#F7F9FA" stroke-width="1.41442"/>
<path id="Vector_2" d="M131.402 37.3421C131.402 32.7427 126.002 28.2632 126.002 28.2632C126.002 31.9432 120.602 33.6627 120.602 37.3421C120.602 40.3902 122.979 42.7895 126.002 42.7895C129.024 42.7895 131.402 40.3902 131.402 37.3421Z" fill="white"/>
<path id="Vector_3" d="M123 39.4038C123.001 37.3422 126.001 36.1626 126.001 34.3159C126.001 34.3159 129 36.6353 129 39.4038C129 40.932 127.658 42.1722 126 42.1722C124.342 42.1722 122.999 40.9327 123 39.4038Z" fill="#FFC107"/>
</g>
</g>
<g id="remote-port-forwarding-remote-host">
<rect id="Rectangle_13" x="2" y="7" width="38" height="10" rx="2.82884" fill="#5A5E73"/>
<rect id="Rectangle_14" x="4.00391" y="9" width="10" height="3" rx="1.5" fill="#21B568"/>
<rect id="Rectangle_15" x="2" y="18" width="38" height="10" rx="2.82884" fill="#5A5E73"/>
<rect id="Rectangle_16" x="2" y="29" width="38" height="10" rx="2.82884" fill="#5A5E73"/>
<rect id="Rectangle_17" x="2" y="40" width="38" height="10" rx="2.82884" fill="#5A5E73"/>
<g id="Group">
<path id="Union" fill-rule="evenodd" clip-rule="evenodd" d="M21.0039 51C19.8993 51 19.0039 51.8954 19.0039 53V54.9961H8.00391C6.89934 54.9961 6.00391 55.8915 6.00391 56.9961C6.00391 58.1007 6.89934 58.9961 8.00391 58.9961H20.8779C20.9196 58.9987 20.9616 59 21.0039 59C21.0462 59 21.0883 58.9987 21.1299 58.9961H34.0039C35.1085 58.9961 36.0039 58.1007 36.0039 56.9961C36.0039 55.8915 35.1085 54.9961 34.0039 54.9961H23.0039V53C23.0039 51.8954 22.1085 51 21.0039 51Z" fill="#5A5E73"/>
</g>
</g>
<g id="remote-port-forwarding-target-host">
<rect id="Rectangle_18" x="210" y="7" width="38" height="10" rx="2.82884" fill="#5A5E73"/>
<rect id="Rectangle_19" x="212.004" y="9" width="10" height="3" rx="1.5" fill="#21B568"/>
<rect id="Rectangle_20" x="210" y="18" width="38" height="10" rx="2.82884" fill="#5A5E73"/>
<rect id="Rectangle_21" x="210" y="29" width="38" height="10" rx="2.82884" fill="#5A5E73"/>
<rect id="Rectangle_22" x="210" y="40" width="38" height="10" rx="2.82884" fill="#5A5E73"/>
<g id="Group_2">
<path id="Union_2" fill-rule="evenodd" clip-rule="evenodd" d="M229.004 51C227.899 51 227.004 51.8954 227.004 53V54.9961H216.004C214.899 54.9961 214.004 55.8915 214.004 56.9961C214.004 58.1007 214.899 58.9961 216.004 58.9961H228.878C228.92 58.9987 228.962 59 229.004 59C229.046 59 229.088 58.9987 229.13 58.9961H242.004C243.108 58.9961 244.004 58.1007 244.004 56.9961C244.004 55.8915 243.108 54.9961 242.004 54.9961H231.004V53C231.004 51.8954 230.108 51 229.004 51Z" fill="#5A5E73"/>
</g>
</g>
<g id="remote-port-forwarding-termius">
<rect x="101.996" y="104" width="46" height="46" rx="10" fill="#5A5E73"/>
<path id="logo" fill-rule="evenodd" clip-rule="evenodd" d="M133.229 137.457C138.064 137.457 141.996 133.525 141.996 128.69C141.996 126.283 140.972 123.941 139.222 122.294C139.185 117.634 135.384 113.857 130.716 113.857C129.36 113.857 128.04 114.176 126.846 114.787C125.275 113.304 123.199 112.47 121.009 112.47C116.442 112.47 112.705 116.086 112.511 120.607C109.742 122.154 107.996 125.09 107.996 128.3C107.996 133.159 111.947 137.111 116.806 137.111C117.036 137.111 117.267 137.102 117.496 137.084C119.119 139.815 122.087 141.53 125.299 141.53C128.371 141.53 131.204 139.987 132.875 137.45C132.993 137.455 133.111 137.457 133.229 137.457ZM125.299 139.217C122.697 139.217 120.303 137.699 119.187 135.343L118.81 134.545L117.941 134.698C117.569 134.764 117.187 134.797 116.806 134.797C113.225 134.797 110.31 131.882 110.31 128.3C110.31 125.744 111.811 123.423 114.143 122.373L114.86 122.05L114.823 121.264C114.818 121.169 114.816 121.072 114.816 120.977C114.816 117.563 117.595 114.784 121.009 114.784C122.847 114.784 124.569 115.586 125.752 116.994L126.418 117.786L127.279 117.211C128.301 116.529 129.486 116.17 130.716 116.17C134.13 116.17 136.909 118.95 136.909 122.364C136.909 122.487 136.905 122.611 136.898 122.733L136.862 123.323L137.318 123.698C138.797 124.914 139.683 126.782 139.683 128.69C139.683 132.248 136.787 135.144 133.229 135.144C132.954 135.144 132.676 135.126 132.401 135.091L131.616 134.99L131.238 135.685C130.05 137.867 127.781 139.217 125.299 139.217ZM129.694 129.962L129.716 129.952C130.017 129.823 130.125 129.709 130.125 129.395V129.002C130.125 128.655 129.925 128.432 129.6 128.432H129.582L129.516 128.447C128.788 128.703 128.073 128.832 127.389 128.832C126.709 128.832 126.037 128.704 125.393 128.45L125.374 128.442L125.301 128.432C124.976 128.432 124.776 128.655 124.776 129.002V129.395C124.776 129.69 124.887 129.825 125.147 129.936L125.175 129.948L125.203 129.96C125.907 130.261 126.644 130.414 127.39 130.414C128.135 130.414 128.908 130.262 129.694 129.962ZM119.663 126.723C119.663 126.406 119.827 126.231 120.048 126.185L122.175 125.627L120.043 125.067C119.822 125.009 119.663 124.835 119.663 124.529V123.859C119.663 123.566 119.839 123.44 120.04 123.44C120.105 123.44 120.172 123.454 120.24 123.479L124.035 124.707C124.323 124.803 124.482 125.035 124.482 125.352V125.901C124.482 126.218 124.323 126.45 124.035 126.546L120.231 127.776C120.167 127.795 120.11 127.804 120.054 127.804C119.816 127.804 119.663 127.633 119.663 127.384V126.723Z" fill="white"/>
</g>
<g id="remote-port-forwarding-line-to-target-host">
<line id="remote-port-forwarding-line-to-target-host-border" x1="1.41442" y1="-1.41442" x2="56.5856" y2="-1.41442" transform="matrix(-0.707107 0.707107 0.707107 0.707107 201.699 82.6758)" stroke="#5A5E73" stroke-width="2.82884" stroke-linecap="round" stroke-linejoin="round" stroke-dasharray="8 8"/>
<line id="remote-port-forwarding-line-to-target-host-border_2" x1="1.41442" y1="-1.41442" x2="56.5856" y2="-1.41442" transform="matrix(-0.707107 0.707107 0.707107 0.707107 196.012 77)" stroke="#5A5E73" stroke-width="2.82884" stroke-linecap="round" stroke-linejoin="round" stroke-dasharray="8 8"/>
<line id="remote-port-forwarding-line-to-target-host-center" x1="1.41442" y1="-1.41442" x2="56.5856" y2="-1.41442" transform="matrix(0.707107 -0.707107 -0.707107 -0.707107 155.828 118.841)" stroke="#21B568" stroke-width="2.82884" stroke-linecap="round" stroke-linejoin="round"/>
</g>
<g id="remote-port-forwarding-line-to-termius">
<line id="remote-port-forwarding-line-to-termius-border" x1="1.41442" y1="-1.41442" x2="56.5856" y2="-1.41442" transform="matrix(0.709377 0.704829 -0.709377 0.704829 49 82.6758)" stroke="#5A5E73" stroke-width="2.82884" stroke-linecap="round" stroke-linejoin="round"/>
<line id="remote-port-forwarding-line-to-termius-border_2" x1="1.41442" y1="-1.41442" x2="56.5856" y2="-1.41442" transform="matrix(0.709377 0.704829 -0.709377 0.704829 54.7227 77)" stroke="#5A5E73" stroke-width="2.82884" stroke-linecap="round" stroke-linejoin="round"/>
<line id="remote-port-forwarding-line-to-termius-center" x1="1.41442" y1="-1.41442" x2="56.5856" y2="-1.41442" transform="matrix(0.709377 0.704829 -0.709377 0.704829 51.875 79.8286)" stroke="#21B568" stroke-width="2.82884" stroke-linecap="round" stroke-linejoin="round"/>
</g>
</g>
</svg>
