<svg width="20" height="20" viewBox="0 0 20 20" fill="none" xmlns="http://www.w3.org/2000/svg">
<path fill-rule="evenodd" clip-rule="evenodd" d="M4 0C1.79086 0 0 1.79086 0 4V16C0 18.2091 1.79086 20 4 20H16C18.2091 20 20 18.2091 20 16V4C20 1.79086 18.2091 0 16 0H4ZM13.695 14.417H11.433L9.782 10.985H9.054V14.417H7V5.20001H10.653C12.473 5.20001 13.643 6.44801 13.643 8.08601C13.643 9.33401 12.954 10.283 11.823 10.686L13.695 14.417ZM9.054 6.98101V9.21701H10.263C11.108 9.21701 11.563 8.74901 11.563 8.09901C11.563 7.41001 11.108 6.98101 10.263 6.98101H9.054Z" fill="currentColor"/>
</svg>
