<svg width="14" height="14" viewBox="0 0 14 14" fill="none" xmlns="http://www.w3.org/2000/svg">
<path d="M1.66016 7.65171C1.66016 10.6126 4.04386 13 7.00255 13C9.95935 13 12.339 10.6126 12.339 7.65171C12.339 4.69114 9.98575 2.33034 7.03272 2.33034C6.76311 2.33034 6.50561 2.35865 6.27644 2.40098L7.60122 1.09588C7.71658 0.976481 7.78072 0.835241 7.78072 0.6579C7.78072 0.290812 7.49988 0 7.14465 0C6.9568 0 6.80424 0.0625295 6.68728 0.189474L4.25905 2.65894C4.12456 2.78966 4.05421 2.96349 4.05421 3.13923C4.05421 3.32466 4.12052 3.48475 4.25905 3.6214L6.68728 6.07469C6.8064 6.19381 6.9568 6.25445 7.14061 6.25445C7.49988 6.25445 7.78072 5.97551 7.78072 5.61031C7.78072 5.43297 7.71658 5.29172 7.59717 5.17233L6.10714 3.69415C6.3719 3.63753 6.68924 3.61137 7.03272 3.61137C9.25805 3.61137 11.0184 5.39433 11.0184 7.65171C11.0184 9.88297 9.23165 11.6794 7.00255 11.6794C4.77156 11.6794 2.97702 9.88297 2.97702 7.65171C2.97702 7.25391 2.71802 6.97469 2.33153 6.97469C1.93911 6.97469 1.66016 7.25391 1.66016 7.65171Z" fill="currentColor"/>
</svg>
