<svg
  width="24"
  height="24"
  viewBox="0 0 24 24"
  fill="none"
  xmlns="http://www.w3.org/2000/svg"
>
  <rect width="23.9994" height="24" rx="5" fill="none" />
  <path
    d="M12.069 17.3334C12.069 17.1565 11.9998 16.9869 11.8765 16.8619C11.7533 16.7369 11.5863 16.6666 11.4121 16.6666C10.1925 16.6666 9.02293 16.175 8.16041 15.2997C7.29811 14.4246 6.81357 13.2377 6.81357 12C6.81357 10.7623 7.29811 9.57532 8.16041 8.70026C9.02282 7.82502 10.1924 7.33339 11.4121 7.33339C12.6316 7.33339 13.8012 7.82502 14.6635 8.70026C15.5259 9.57538 16.0103 10.7623 16.0103 12C16.0103 12.1 16.0024 12.2 15.9966 12.2973L15.9743 12.2493L15.9741 12.2493C15.8899 12.0639 15.7266 11.928 15.531 11.8804C15.3353 11.8327 15.1289 11.8787 14.971 12.0051C14.813 12.1316 14.7208 12.3244 14.7208 12.5287C14.7207 12.6249 14.7412 12.7201 14.7813 12.8074L15.559 14.52C15.632 14.6807 15.765 14.8054 15.9286 14.8665C16.0923 14.9277 16.2732 14.9203 16.4314 14.846L18.1183 14.0567C18.3314 13.9569 18.4759 13.7493 18.4972 13.5121C18.5187 13.2749 18.4138 13.0442 18.222 12.9068C18.0303 12.7694 17.781 12.7462 17.5679 12.846L17.2394 13.0007C17.2947 12.6701 17.3231 12.3354 17.3242 12C17.3242 10.4087 16.7013 8.88254 15.5925 7.75739C14.4838 6.63215 12.98 6 11.4121 6C9.8441 6 8.34031 6.63215 7.23164 7.75739C6.12289 8.88263 5.5 10.4088 5.5 12C5.5 13.5912 6.12289 15.1175 7.23164 16.2426C8.34039 17.3679 9.84416 18 11.4121 18C11.5863 18 11.7533 17.9298 11.8765 17.8047C11.9998 17.6797 12.069 17.5101 12.069 17.3334Z"
    fill="currentColor"
  />
</svg>
