<svg
  width="10"
  height="10"
  viewBox="0 0 10 10"
  fill="none"
  xmlns="http://www.w3.org/2000/svg"
>
  <path
    d="M8.89648 5.7666C8.89648 5.14486 8.76302 4.59798 8.49609 4.12598C8.22917 3.65397 7.84505 3.28451 7.34375 3.01758C6.84245 2.75065 6.24186 2.61719 5.54199 2.61719H2.71484L1.1084 2.69043L1.2793 2.97852L2.44141 2.00684L3.55957 0.908203C3.61165 0.859375 3.65234 0.805664 3.68164 0.74707C3.71094 0.685221 3.72559 0.611979 3.72559 0.527344C3.72559 0.377604 3.67676 0.252279 3.5791 0.151367C3.48145 0.0504557 3.35286 0 3.19336 0C3.04362 0 2.91178 0.0569661 2.79785 0.170898L0.170898 2.75879C0.11556 2.81413 0.0732422 2.8776 0.0439453 2.94922C0.0146484 3.01758 0 3.08919 0 3.16406C0 3.23893 0.0146484 3.31217 0.0439453 3.38379C0.0732422 3.4554 0.11556 3.51725 0.170898 3.56934L2.79785 6.15723C2.91178 6.27116 3.04362 6.32812 3.19336 6.32812C3.35286 6.32812 3.48145 6.2793 3.5791 6.18164C3.67676 6.08073 3.72559 5.95378 3.72559 5.80078C3.72559 5.7194 3.71094 5.64779 3.68164 5.58594C3.65234 5.52083 3.61165 5.46387 3.55957 5.41504L2.44141 4.32129L1.2793 3.34961L1.1084 3.6377L2.71484 3.71094H5.55664C6.03841 3.71094 6.44694 3.7972 6.78223 3.96973C7.12077 4.139 7.37793 4.37663 7.55371 4.68262C7.72949 4.98535 7.81738 5.33366 7.81738 5.72754C7.81738 6.12467 7.72949 6.47786 7.55371 6.78711C7.37793 7.0931 7.12077 7.33398 6.78223 7.50977C6.44694 7.6888 6.03841 7.77832 5.55664 7.77832H4.47754C4.31478 7.77832 4.18131 7.83203 4.07715 7.93945C3.97298 8.04688 3.9209 8.17546 3.9209 8.3252C3.9209 8.47493 3.97298 8.60352 4.07715 8.71094C4.18131 8.81836 4.31478 8.87207 4.47754 8.87207H5.60059C6.28744 8.87207 6.87663 8.74349 7.36816 8.48633C7.86296 8.22917 8.24056 7.86784 8.50098 7.40234C8.76465 6.93685 8.89648 6.3916 8.89648 5.7666Z"
    fill="currentColor"
  />
</svg>
