<svg width="14" height="15" viewBox="0 0 14 15" fill="none" xmlns="http://www.w3.org/2000/svg">
<path d="M13.2275 9.77148C13.2275 10.6465 13.043 11.4098 12.6738 12.0615C12.3092 12.7132 11.7806 13.2191 11.0879 13.5791C10.3997 13.9391 9.57487 14.1191 8.61328 14.1191H7.04102C6.81315 14.1191 6.6263 14.0439 6.48047 13.8936C6.33464 13.7432 6.26172 13.5632 6.26172 13.3535C6.26172 13.1439 6.33464 12.9639 6.48047 12.8135C6.6263 12.6631 6.81315 12.5879 7.04102 12.5879H8.55176C9.22624 12.5879 9.79818 12.4626 10.2676 12.2119C10.7415 11.9658 11.1016 11.6286 11.3477 11.2002C11.5938 10.7673 11.7168 10.2728 11.7168 9.7168C11.7168 9.16536 11.5938 8.67773 11.3477 8.25391C11.1016 7.82552 10.7415 7.49284 10.2676 7.25586C9.79818 7.01432 9.22624 6.89355 8.55176 6.89355H4.57324L2.32422 6.79102L2.56348 6.3877L4.19043 7.74805L5.75586 9.2793C5.82878 9.34766 5.88574 9.42741 5.92676 9.51855C5.96777 9.60514 5.98828 9.7054 5.98828 9.81934C5.98828 10.0335 5.91992 10.2113 5.7832 10.3525C5.64648 10.4893 5.46647 10.5576 5.24316 10.5576C5.03353 10.5576 4.84896 10.4779 4.68945 10.3184L1.01172 6.69531C0.934245 6.6224 0.875 6.53581 0.833984 6.43555C0.792969 6.33529 0.772461 6.23275 0.772461 6.12793C0.772461 6.02311 0.792969 5.92285 0.833984 5.82715C0.875 5.72689 0.934245 5.63802 1.01172 5.56055L4.68945 1.9375C4.84896 1.77799 5.03353 1.69824 5.24316 1.69824C5.46647 1.69824 5.64648 1.76888 5.7832 1.91016C5.91992 2.05143 5.98828 2.22689 5.98828 2.43652C5.98828 2.55501 5.96777 2.65755 5.92676 2.74414C5.88574 2.82617 5.82878 2.90137 5.75586 2.96973L4.19043 4.50781L2.56348 5.86816L2.32422 5.46484L4.57324 5.3623H8.53125C9.51107 5.3623 10.3519 5.54915 11.0537 5.92285C11.7555 6.29655 12.2933 6.8138 12.667 7.47461C13.0407 8.13542 13.2275 8.90104 13.2275 9.77148Z" fill="currentColor"/>
</svg>
