<svg xmlns="http://www.w3.org/2000/svg" width="14" height="14" viewBox="0 0 14 14" fill="none"><path fill="currentColor" d="M2.423 11.18a.167.167 0 0 0 .034.188l.051.052c.05.05.125.063.188.033l1.598-.746c.17-.079.1-.334-.085-.317l-.48.044a.167.167 0 0 1-.133-.048l-.106-.106a.167.167 0 0 1-.048-.133l.044-.48c.017-.185-.238-.254-.317-.085l-.746 1.598Z"/><path fill="currentColor" fill-rule="evenodd" d="M10.857 1.768a.951.951 0 0 1 1.254 1.253l-1.798 4.106a4.529 4.529 0 0 1-1.771 2.04c-.325.2-.52.563-.528.944a3.57 3.57 0 0 1-2.202 3.223l-.364.15a.254.254 0 0 1-.35-.227L5.01 9.572c-.002-.098-.063-.181-.138-.243a2.26 2.26 0 0 1-.356-.364c-.086-.111-.201-.207-.342-.207l-3.55.013a.249.249 0 0 1-.23-.344l.12-.287a3.603 3.603 0 0 1 3.228-2.221c.382-.01.746-.211.944-.539a4.53 4.53 0 0 1 2.065-1.814l4.106-1.798ZM6.835 6.995A1.333 1.333 0 1 0 8.721 5.11a1.333 1.333 0 0 0-1.886 1.885Z" clip-rule="evenodd"/></svg>
