<svg width="15" height="14" viewBox="0 0 15 14" fill="none" xmlns="http://www.w3.org/2000/svg">
    <path d="M3.07753 11.3883C3.04642 11.4549 3.06034 11.534 3.11238 11.586L3.16642 11.64C3.21845 11.6921 3.29748 11.706 3.36416 11.6749L5.04204 10.8919C5.21986 10.809 5.14738 10.5411 4.95199 10.5591L4.44853 10.6055C4.39674 10.6103 4.34551 10.5918 4.30873 10.555L4.19745 10.4437C4.16067 10.4069 4.14216 10.3557 4.14693 10.3039L4.19332 9.80044C4.21133 9.60504 3.94345 9.53256 3.86048 9.71038L3.07753 11.3883Z" fill="currentColor"/>
    <path fill-rule="evenodd" clip-rule="evenodd" d="M11.9335 1.50643C12.3103 1.34153 12.7496 1.42438 13.0404 1.71518C13.3312 2.00597 13.414 2.44527 13.2491 2.822L11.3621 7.1331C10.967 8.03597 10.3105 8.77491 9.50178 9.27408C9.16135 9.4842 8.95558 9.86645 8.94742 10.2664C8.91761 11.7293 8.02986 13.0721 6.63592 13.6502L6.25379 13.8087C6.0809 13.8804 5.88993 13.756 5.88554 13.5689L5.7947 9.70027C5.79229 9.59759 5.72901 9.50989 5.64942 9.44498C5.5877 9.39464 5.52827 9.34099 5.47141 9.28414C5.40132 9.21404 5.3361 9.14004 5.27595 9.06266C5.18536 8.9461 5.06446 8.8453 4.91683 8.84582L1.19017 8.85904C1.00355 8.85971 0.876441 8.67012 0.947932 8.49774L1.07304 8.19606C1.65395 6.79528 2.99858 5.90336 4.46339 5.86399C4.86488 5.8532 5.24691 5.6428 5.45407 5.29872C5.95341 4.46939 6.70292 3.79589 7.62246 3.3934L11.9335 1.50643ZM7.71005 6.99485C8.25678 7.54158 9.14322 7.54158 9.68995 6.99485C10.2367 6.44811 10.2367 5.56168 9.68995 5.01495C9.14322 4.46822 8.25678 4.46822 7.71005 5.01495C7.16332 5.56168 7.16332 6.44811 7.71005 6.99485Z" fill="currentColor"/>
</svg>
