<svg width="64" height="50" viewBox="0 0 64 50" fill="none" xmlns="http://www.w3.org/2000/svg">
<path id="Subtract" fill-rule="evenodd" clip-rule="evenodd" d="M10 0C4.47715 0 0 4.47715 0 10V40C0 45.5228 4.47715 50 10 50H54C59.5228 50 64 45.5228 64 40V10C64 4.47715 59.5228 0 54 0H10ZM19.7495 23.2857C22.5898 23.2857 24.8923 20.9832 24.8923 18.1429C24.8923 15.3025 22.5898 13 19.7495 13C16.9091 13 14.6066 15.3025 14.6066 18.1429C14.6066 20.9832 16.9091 23.2857 19.7495 23.2857ZM19.7492 37C23.7649 37 27.32 35.0274 29.4982 31.9984C28.1268 27.9299 24.2801 25.0001 19.7491 25.0001C15.2181 25.0001 11.3714 27.9298 10 31.9983C12.1782 35.0274 15.7333 37 19.7492 37ZM37 15C37 13.8954 37.8954 13 39 13H52C53.1046 13 54 13.8954 54 15V17C54 18.1046 53.1046 19 52 19H39C37.8954 19 37 18.1046 37 17V15ZM37 24C37 22.8954 37.8954 22 39 22H52C53.1046 22 54 22.8954 54 24V26C54 27.1046 53.1046 28 52 28H39C37.8954 28 37 27.1046 37 26V24ZM39 31C37.8954 31 37 31.8954 37 33V35C37 36.1046 37.8954 37 39 37H52C53.1046 37 54 36.1046 54 35V33C54 31.8954 53.1046 31 52 31H39Z" fill="url(#paint0_linear_3351_51657)"/>
<defs>
<linearGradient id="paint0_linear_3351_51657" x1="-3.61353e-07" y1="-0.568177" x2="67.2676" y2="4.30237" gradientUnits="userSpaceOnUse">
<stop stop-color="#2091F6"/>
<stop offset="1" stop-color="#21B568"/>
</linearGradient>
</defs>
</svg>
