<svg width="25" height="25" viewBox="0 0 26 25" fill="none" xmlns="http://www.w3.org/2000/svg">
<circle cx="13.25" cy="12.5" r="11.929" fill="url(#paint0_radial_4)" stroke="url(#paint1_linear_4)" stroke-width="1.14192"/>
<circle cx="13.25" cy="12.5" r="11.929" fill="url(#paint2_radial_4)" stroke="url(#paint3_linear_4)" stroke-width="1.14192"/>
<g filter="url(#filter0_i_4)">
<path d="M18.6073 12.5C18.6073 13.7328 18.4128 10.7143 16.8216 10.7143C15.2304 10.7143 15.0359 13.7328 15.0359 12.5C15.0359 11.2672 15.0359 8.03571 16.8216 8.03571C18.6073 8.03571 18.6073 11.2672 18.6073 12.5Z" fill="black"/>
</g>
<g filter="url(#filter1_i_4)">
<path d="M11.4645 12.5C11.4645 13.7328 11.27 10.7143 9.67878 10.7143C8.08755 10.7143 7.89307 13.7328 7.89307 12.5C7.89307 11.2672 7.89307 8.03571 9.67878 8.03571C11.4645 8.03571 11.4645 11.2672 11.4645 12.5Z" fill="black"/>
</g>
<g filter="url(#filter2_i_4)">
<path d="M19.5 16.2934C19.5 15.3685 17.7143 17.6332 13.25 17.6332C8.78571 17.6332 7 15.3685 7 16.2934C7 17.2184 8.78571 19.6429 13.25 19.6429C17.7143 19.6429 19.5 17.2184 19.5 16.2934Z" fill="black"/>
</g>
<defs>
<filter id="filter0_i_4" x="15.0359" y="7.46475" width="3.57143" height="5.33109" filterUnits="userSpaceOnUse" color-interpolation-filters="sRGB">
<feFlood flood-opacity="0" result="BackgroundImageFix"/>
<feBlend mode="normal" in="SourceGraphic" in2="BackgroundImageFix" result="shape"/>
<feColorMatrix in="SourceAlpha" type="matrix" values="0 0 0 0 0 0 0 0 0 0 0 0 0 0 0 0 0 0 127 0" result="hardAlpha"/>
<feOffset dy="-0.570959"/>
<feGaussianBlur stdDeviation="0.570959"/>
<feComposite in2="hardAlpha" operator="arithmetic" k2="-1" k3="1"/>
<feColorMatrix type="matrix" values="0 0 0 0 0 0 0 0 0 0 0 0 0 0 0 0 0 0 0.5 0"/>
<feBlend mode="normal" in2="shape" result="effect1_innerShadow"/>
</filter>
<filter id="filter1_i_4" x="7.89307" y="7.46475" width="3.57143" height="5.33109" filterUnits="userSpaceOnUse" color-interpolation-filters="sRGB">
<feFlood flood-opacity="0" result="BackgroundImageFix"/>
<feBlend mode="normal" in="SourceGraphic" in2="BackgroundImageFix" result="shape"/>
<feColorMatrix in="SourceAlpha" type="matrix" values="0 0 0 0 0 0 0 0 0 0 0 0 0 0 0 0 0 0 127 0" result="hardAlpha"/>
<feOffset dy="-0.570959"/>
<feGaussianBlur stdDeviation="0.570959"/>
<feComposite in2="hardAlpha" operator="arithmetic" k2="-1" k3="1"/>
<feColorMatrix type="matrix" values="0 0 0 0 0 0 0 0 0 0 0 0 0 0 0 0 0 0 0.5 0"/>
<feBlend mode="normal" in2="shape" result="effect1_innerShadow"/>
</filter>
<filter id="filter2_i_4" x="7" y="15.5005" width="12.5" height="4.14239" filterUnits="userSpaceOnUse" color-interpolation-filters="sRGB">
<feFlood flood-opacity="0" result="BackgroundImageFix"/>
<feBlend mode="normal" in="SourceGraphic" in2="BackgroundImageFix" result="shape"/>
<feColorMatrix in="SourceAlpha" type="matrix" values="0 0 0 0 0 0 0 0 0 0 0 0 0 0 0 0 0 0 127 0" result="hardAlpha"/>
<feOffset dy="-0.570959"/>
<feGaussianBlur stdDeviation="0.570959"/>
<feComposite in2="hardAlpha" operator="arithmetic" k2="-1" k3="1"/>
<feColorMatrix type="matrix" values="0 0 0 0 0 0 0 0 0 0 0 0 0 0 0 0 0 0 0.5 0"/>
<feBlend mode="normal" in2="shape" result="effect1_innerShadow"/>
</filter>
<radialGradient id="paint0_radial_4" cx="0" cy="0" r="1" gradientUnits="userSpaceOnUse" gradientTransform="translate(13.25 5.80357) rotate(90) scale(19.1964)">
<stop stop-color="#FFD966"/>
<stop offset="1" stop-color="#EFAF76"/>
</radialGradient>
<linearGradient id="paint1_linear_4" x1="13.25" y1="0" x2="13.25" y2="25" gradientUnits="userSpaceOnUse">
<stop stop-color="#F5D470"/>
<stop offset="1" stop-color="#F5AF70"/>
</linearGradient>
<radialGradient id="paint2_radial_4" cx="0" cy="0" r="1" gradientUnits="userSpaceOnUse" gradientTransform="translate(13.25 5.80357) rotate(90) scale(19.1964)">
<stop stop-color="#FFD966"/>
<stop offset="1" stop-color="#EFAF76"/>
</radialGradient>
<linearGradient id="paint3_linear_4" x1="13.25" y1="0" x2="13.25" y2="25" gradientUnits="userSpaceOnUse">
<stop stop-color="#F5D470"/>
<stop offset="1" stop-color="#F5AF70"/>
</linearGradient>
</defs>
</svg>
