<svg width="14" height="14" viewBox="0 0 14 14" xmlns="http://www.w3.org/2000/svg">
<path fill="currentColor" fill-rule="evenodd" clip-rule="evenodd" d="M10.1509 9.28076L13.5405 12.7442C13.8271 13.0372 13.8179 13.5044 13.5198 13.7861C13.3794 13.9187 13.1948 13.9916 13 13.9916C12.7942 13.9916 12.6023 13.9113 12.4595 13.7657L9.04419 10.276C8.07446 10.9456 6.94019 11.2982 5.75 11.2982C2.57959 11.2982 0 8.76401 0 5.64911C0 2.53424 2.57959 0 5.75 0C8.92041 0 11.5 2.53424 11.5 5.64911C11.5 6.98233 11.0225 8.26294 10.1509 9.28076ZM10 5.64914C10 3.34674 8.09351 1.47369 5.75 1.47369C3.40649 1.47369 1.5 3.34674 1.5 5.64914C1.5 7.95151 3.40649 9.82458 5.75 9.82458C8.09351 9.82458 10 7.95151 10 5.64914Z" transform="translate(0.246094)"/>
</svg>
