<svg xmlns="http://www.w3.org/2000/svg" width="20" height="20" viewBox="0 0 20 20" fill="none">
    <path d="M11.0685 0.166919C12.1671 0.528947 15.9375 1.83613 17.0629 2.28711C18.0677 2.69811 18.5261 3.11611 18.5261 4.27875V11.7162C18.5261 15.3027 16.5933 16.8514 10.7209 19.8011C10.4609 19.9311 10.1936 20 10.0131 20C9.83431 20 9.57356 19.9393 9.30524 19.8011C3.52054 16.7084 1.5 15.3027 1.5 11.7162V4.27875C1.5 3.11611 1.9686 2.68812 2.96502 2.28711C4.0904 1.84432 7.85906 0.512555 8.96599 0.166919C9.2952 0.0707655 9.67257 0 10.0131 0C10.3554 0 10.7328 0.0625693 11.0685 0.166919ZM8.76654 13.5973C8.76654 14.2482 9.33825 14.737 10.0252 14.737C10.7121 14.737 11.2801 14.2564 11.2801 13.5973C11.2801 12.9419 10.7205 12.4495 10.0252 12.4495C9.32984 12.4495 8.76654 12.9464 8.76654 13.5973ZM8.91864 5.33204L9.06295 10.3747C9.08243 10.9692 9.42393 11.2932 10.0252 11.2932C10.6077 11.2932 10.939 10.9773 10.9584 10.371L11.1196 5.34024C11.139 4.73133 10.6672 4.29475 10.0149 4.29475C9.35238 4.29475 8.89917 4.72134 8.91864 5.33204Z" fill="currentColor"/>
</svg>
