<svg width="20" height="20" viewBox="0 0 20 20" fill="none" xmlns="http://www.w3.org/2000/svg">
<path class="frame" fill-rule="evenodd" clip-rule="evenodd" d="M4 0H5.71429V2H4C2.89543 2 2 2.89543 2 4V5.71428H0V4C0 1.79086 1.79086 0 4 0ZM0 14.2857V16C0 18.2091 1.79086 20 4 20H5.71429V18H4C2.89543 18 2 17.1046 2 16V14.2857H0ZM18 14.2857V16C18 17.1046 17.1046 18 16 18H14.2857V20H16C18.2091 20 20 18.2091 20 16V14.2857H18ZM20 5.71429V4C20 1.79086 18.2091 0 16 0H14.2857V2H16C17.1046 2 18 2.89543 18 4V5.71429H20Z" fill="currentColor"/>
<path class="fill" fill-rule="evenodd" clip-rule="evenodd" d="M13.1022 7.53321C13.1022 9.08431 12.0147 10.3814 10.5606 10.7038V11.3455L11.6902 12.4751L10.5606 13.6046L11.6902 14.7342L9.99584 16.4286L8.86627 15.299V10.6276C7.55602 10.2094 6.60714 8.98213 6.60714 7.53321C6.60714 5.73966 8.0611 4.28571 9.85465 4.28571C11.6482 4.28571 13.1022 5.73966 13.1022 7.53321ZM10.843 6.96843C10.843 7.51429 10.4005 7.9568 9.85465 7.9568C9.30878 7.9568 8.86627 7.51429 8.86627 6.96843C8.86627 6.42257 9.30878 5.98006 9.85465 5.98006C10.4005 5.98006 10.843 6.42257 10.843 6.96843Z" fill="currentColor"/>
</svg>
