<svg width="60" height="60" viewBox="0 0 60 60" fill="none" xmlns="http://www.w3.org/2000/svg">
<mask id="path-1-inside-1_230_27042" fill="white">
<path fill-rule="evenodd" clip-rule="evenodd" d="M0 8.57693C0 6.99547 1.28203 5.71344 2.86349 5.71344H12.8642H22.8688H37.1418H47.1372H57.1365C58.718 5.71344 60 6.99547 60 8.57693V32.8499C60 34.4314 58.718 35.7134 57.1365 35.7134H50.0007V42.8499C50.0007 44.4314 48.7186 45.7134 47.1372 45.7134H40.0053V47.85C40.0053 49.4314 38.7233 50.7134 37.1418 50.7134H22.8688C21.2873 50.7134 20.0053 49.4314 20.0053 47.85V45.7134H12.8642C11.2827 45.7134 10.0007 44.4314 10.0007 42.8499V35.7134H2.86349C1.28203 35.7134 0 34.4314 0 32.8499V8.57693Z"/>
</mask>
<path d="M50.0007 35.7134V32.1341H46.4213V35.7134H50.0007ZM40.0053 45.7134V42.1341H36.4259V45.7134H40.0053ZM20.0053 45.7134H23.5847V42.1341H20.0053V45.7134ZM10.0007 35.7134H13.58V32.1341H10.0007V35.7134ZM2.86349 2.13407C-0.6948 2.13407 -3.57937 5.01864 -3.57937 8.57693H3.57937C3.57937 8.9723 3.25886 9.29281 2.86349 9.29281V2.13407ZM12.8642 2.13407H2.86349V9.29281H12.8642V2.13407ZM22.8688 2.13407H12.8642V9.29281H22.8688V2.13407ZM22.8688 9.29281H37.1418V2.13407H22.8688V9.29281ZM47.1372 2.13407H37.1418V9.29281H47.1372V2.13407ZM57.1365 2.13407H47.1372V9.29281H57.1365V2.13407ZM63.5794 8.57693C63.5794 5.01864 60.6948 2.13407 57.1365 2.13407V9.29281C56.7411 9.29281 56.4206 8.9723 56.4206 8.57693H63.5794ZM63.5794 32.8499V8.57693H56.4206V32.8499H63.5794ZM57.1365 39.2928C60.6948 39.2928 63.5794 36.4082 63.5794 32.8499H56.4206C56.4206 32.4546 56.7411 32.1341 57.1365 32.1341V39.2928ZM50.0007 39.2928H57.1365V32.1341H50.0007V39.2928ZM53.58 42.8499V35.7134H46.4213V42.8499H53.58ZM47.1372 49.2928C50.6955 49.2928 53.58 46.4082 53.58 42.8499H46.4213C46.4213 42.4546 46.7418 42.1341 47.1372 42.1341V49.2928ZM40.0053 49.2928H47.1372V42.1341H40.0053V49.2928ZM36.4259 45.7134V47.85H43.5847V45.7134H36.4259ZM36.4259 47.85C36.4259 47.4546 36.7464 47.1341 37.1418 47.1341V54.2928C40.7001 54.2928 43.5847 51.4082 43.5847 47.85H36.4259ZM37.1418 47.1341H22.8688V54.2928H37.1418V47.1341ZM22.8688 47.1341C23.2642 47.1341 23.5847 47.4546 23.5847 47.85H16.4259C16.4259 51.4082 19.3105 54.2928 22.8688 54.2928V47.1341ZM23.5847 47.85V45.7134H16.4259V47.85H23.5847ZM12.8642 49.2928H20.0053V42.1341H12.8642V49.2928ZM6.4213 42.8499C6.4213 46.4082 9.30586 49.2928 12.8642 49.2928V42.1341C13.2595 42.1341 13.58 42.4546 13.58 42.8499H6.4213ZM6.4213 35.7134V42.8499H13.58V35.7134H6.4213ZM2.86349 39.2928H10.0007V32.1341H2.86349V39.2928ZM-3.57937 32.8499C-3.57937 36.4082 -0.694806 39.2928 2.86349 39.2928V32.1341C3.25886 32.1341 3.57937 32.4546 3.57937 32.8499H-3.57937ZM-3.57937 8.57693V32.8499H3.57937V8.57693H-3.57937Z" fill="currentColor" mask="url(#path-1-inside-1_230_27042)"/>
<rect x="24.9946" y="10.7112" width="10" height="15" fill="currentColor"/>
<rect x="39.9946" y="10.7112" width="10" height="15" fill="currentColor"/>
<rect x="10.0005" y="10.7112" width="10" height="15" fill="currentColor"/>
</svg>
