<svg width="20" height="20" viewBox="0 0 12 12" fill="none" xmlns="http://www.w3.org/2000/svg">
  <path fill-rule="evenodd" clip-rule="evenodd" d="M8.57129 2.14258H7.14173H6.85686V4.71442C6.85686 5.18781 6.47311 5.57157 5.99972 5.57157C5.52633 5.57157 5.14258 5.18781 5.14258 4.71443V2.14258H4.85983H3.42815V4.71442C3.42815 5.18781 3.0444 5.57157 2.57101 5.57157C2.09762 5.57157 1.71387 5.18781 1.71387 4.71443V2.14258H0.859048C0.384609 2.14258 0 2.50887 0 2.96072V7.03872C0 7.49057 0.384608 7.85686 0.859047 7.85686H0.926581H2.00039V8.87954V8.94348C2.00039 9.39533 2.385 9.76163 2.85944 9.76163H2.92697H4.00078V9.89586C4.00078 10.3477 4.38539 10.714 4.85983 10.714H7.14173C7.61617 10.714 8.00078 10.3477 8.00078 9.89586V9.76163H9.07459H9.14134C9.61578 9.76163 10.0004 9.39533 10.0004 8.94348V8.87954V7.85686H11.0742H11.141C11.6154 7.85686 12 7.49057 12 7.03872V2.96072C12 2.50887 11.6154 2.14258 11.141 2.14258H10.2856V4.71442C10.2856 5.18781 9.90182 5.57157 9.42843 5.57157C8.95504 5.57157 8.57129 5.18781 8.57129 4.71443V2.14258Z" fill="currentColor"/>
</svg>