<svg width="16" height="12" viewBox="0 0 16 12" fill="none" xmlns="http://www.w3.org/2000/svg">
<path d="M3.71252 0.00010515C3.58237 0.00140879 3.45649 0.0466071 3.35532 0.128358C1.61926 1.4988 0.5 3.62234 0.5 6.00212C0.5 8.38191 1.61926 10.5054 3.35532 11.8759C3.47546 11.9706 3.62835 12.0138 3.78037 11.9959C3.93239 11.9781 4.07108 11.9007 4.16595 11.7807C4.26082 11.6608 4.3041 11.5082 4.28626 11.3564C4.26842 11.2046 4.19094 11.0661 4.07084 10.9714C2.5992 9.80965 1.65385 8.02193 1.65385 6.00212C1.65385 3.98232 2.5992 2.19459 4.07084 1.03288C4.16684 0.959203 4.2372 0.857237 4.27194 0.741422C4.30669 0.625607 4.30405 0.501814 4.26442 0.387576C4.22478 0.273338 4.15015 0.174446 4.0511 0.104905C3.95205 0.035364 3.8336 -0.00130017 3.71252 0.00010515ZM12.2706 0.00010515C12.1509 0.0022027 12.0349 0.0413868 11.9386 0.112232C11.8422 0.183077 11.7703 0.282078 11.7328 0.395528C11.6953 0.508977 11.6941 0.631263 11.7292 0.745453C11.7644 0.859643 11.8343 0.960087 11.9292 1.03288C13.4008 2.19459 14.3462 3.98232 14.3462 6.00212C14.3462 8.02193 13.4008 9.80965 11.9292 10.9714C11.8697 11.0183 11.82 11.0764 11.783 11.1425C11.746 11.2085 11.7224 11.2812 11.7136 11.3564C11.7047 11.4316 11.7108 11.5078 11.7314 11.5806C11.7521 11.6534 11.7869 11.7215 11.8339 11.7809C11.8808 11.8403 11.9391 11.8899 12.0053 11.9268C12.0715 11.9637 12.1443 11.9873 12.2196 11.9961C12.2949 12.0049 12.3712 11.9988 12.4441 11.9782C12.517 11.9576 12.5852 11.9228 12.6447 11.8759C14.3807 10.5054 15.5 8.38191 15.5 6.00212C15.5 3.62234 14.3807 1.4988 12.6447 0.128358C12.539 0.0429343 12.4065 -0.00248743 12.2706 0.00010515ZM5.4985 2.25916C5.36874 2.26072 5.2433 2.3059 5.14243 2.38741C4.07443 3.23021 3.38462 4.53882 3.38462 6.00212C3.38462 7.46542 4.07443 8.77403 5.14243 9.61683C5.20173 9.66546 5.27014 9.70178 5.34368 9.72369C5.41721 9.74559 5.49438 9.75262 5.57067 9.74439C5.64696 9.73615 5.72083 9.7128 5.78797 9.6757C5.85511 9.63861 5.91417 9.58852 5.96168 9.52836C6.0092 9.4682 6.04422 9.39918 6.06469 9.32535C6.08516 9.25151 6.09067 9.17434 6.08091 9.09835C6.07115 9.02236 6.0463 8.94907 6.00782 8.88279C5.96934 8.8165 5.91801 8.75855 5.85682 8.71231C5.05328 8.07821 4.53846 7.10554 4.53846 6.00212C4.53846 4.8987 5.05328 3.92603 5.85682 3.29193C5.95283 3.21826 6.02318 3.11629 6.05793 3.00048C6.09267 2.88466 6.09004 2.76087 6.0504 2.64663C6.01077 2.53239 5.93614 2.4335 5.83708 2.36396C5.73803 2.29442 5.61958 2.25775 5.4985 2.25916ZM10.4846 2.25916C10.365 2.26126 10.2489 2.30044 10.1526 2.37129C10.0562 2.44213 9.98433 2.54113 9.94682 2.65458C9.90932 2.76803 9.90807 2.89032 9.94325 3.00451C9.97843 3.1187 10.0483 3.21914 10.1432 3.29193C10.9467 3.92603 11.4615 4.8987 11.4615 6.00212C11.4615 7.10554 10.9467 8.07821 10.1432 8.71231C10.082 8.75855 10.0307 8.8165 9.99218 8.88279C9.9537 8.94907 9.92885 9.02236 9.91909 9.09835C9.90932 9.17434 9.91484 9.25151 9.93531 9.32535C9.95578 9.39918 9.9908 9.4682 10.0383 9.52836C10.0858 9.58852 10.1449 9.63861 10.212 9.6757C10.2792 9.7128 10.353 9.73615 10.4293 9.74439C10.5056 9.75262 10.5828 9.74559 10.6563 9.72369C10.7299 9.70178 10.7983 9.66546 10.8576 9.61683C11.9256 8.77403 12.6154 7.46542 12.6154 6.00212C12.6154 4.53882 11.9256 3.23021 10.8576 2.38741C10.7522 2.30224 10.6202 2.25683 10.4846 2.25916ZM8 4.27408C7.54097 4.27408 7.10074 4.45614 6.77616 4.78021C6.45158 5.10428 6.26923 5.54382 6.26923 6.00212C6.26923 6.46043 6.45158 6.89996 6.77616 7.22403C7.10074 7.5481 7.54097 7.73016 8 7.73016C8.45903 7.73016 8.89926 7.5481 9.22384 7.22403C9.54842 6.89996 9.73077 6.46043 9.73077 6.00212C9.73077 5.54382 9.54842 5.10428 9.22384 4.78021C8.89926 4.45614 8.45903 4.27408 8 4.27408Z" fill="currentColor"/>
</svg>
