<svg width="16" height="16" viewBox="0 0 16 16" fill="none" xmlns="http://www.w3.org/2000/svg">
<path d="M2.51367 0.804688C3.04688 1.10547 3.21777 1.50879 3.21777 2.24023V13.54C3.21777 14.5039 3.77148 15.0576 4.6123 15.0576C5.3916 15.0576 5.91113 14.5244 5.91113 13.5947V11.708C5.91113 10.7783 6.33496 10.2998 7.27148 10.2998H13.8545V2.95117C13.8545 1.52246 13.1436 0.804688 11.7354 0.804688H2.51367ZM0.743164 4.11328C0.743164 4.52344 1.0166 4.79004 1.44043 4.79004H2.28809V2.58203C2.28809 2.15137 1.92578 1.83008 1.51562 1.83008C1.10547 1.82324 0.743164 2.14453 0.743164 2.58203V4.11328ZM5.85645 4.37305C5.85645 4.14062 6.04102 3.95605 6.28711 3.95605H10.9902C11.2363 3.95605 11.4141 4.14062 11.4141 4.37305C11.4141 4.6123 11.2363 4.79688 10.9902 4.79688H6.28711C6.04102 4.79688 5.85645 4.6123 5.85645 4.37305ZM5.85645 6.77246C5.85645 6.5332 6.04102 6.3418 6.28711 6.3418H8.74121C8.9873 6.3418 9.16504 6.5332 9.16504 6.77246C9.16504 7.00488 8.9873 7.18262 8.74121 7.18262H6.28711C6.04102 7.18262 5.85645 7.00488 5.85645 6.77246ZM6.19141 15.3242H13.1025C14.4014 15.3242 15.2559 14.4355 15.2559 13.0889V11.9131C15.2559 11.5029 14.9824 11.2295 14.5586 11.2295H7.54492C7.12109 11.2295 6.84082 11.5029 6.84082 11.9131V13.2529C6.84082 14.0391 6.73828 14.7363 6.19141 15.3242Z" fill="currentColor"/>
</svg>
