<?xml version="1.0" encoding="UTF-8"?>
<svg width="14px" height="12px" viewBox="0 0 20 20" version="1.1" xmlns="http://www.w3.org/2000/svg" xmlns:xlink="http://www.w3.org/1999/xlink">
<!-- Generator: Sketch 42 (36781) - http://www.bohemiancoding.com/sketch -->
<g id="V3-assets" stroke="none" stroke-width="1" fill="none" fill-rule="evenodd">
    <g id="Assets" transform="translate(-401.000000, -490.000000)" fill-rule="nonzero" fill="currentColor">
        <g id="sftp" transform="translate(401.000000, 490.000000)">
            <g id="Layer_1">
                <g id="Page-1">
                    <path fill-rule="evenodd" clip-rule="evenodd" d="M8.28495 3.87276H18.5551C19.353 3.87276 20 4.51307 20 5.30286V6.6195H0.0274875V4.70515V3.87276V3.44735C0.0274875 2.64792 0.682139 2 1.48952 2H6.26154C6.54752 2 6.81882 2.12597 7.00144 2.34391L8.28495 3.87276ZM0.321517 7.3685H19.6508C19.8285 7.3685 19.9723 7.51104 19.9723 7.68672V17.7623C19.9723 18.3355 19.503 18.8 18.9239 18.8H1.04826C0.469463 18.8 0 18.3355 0 17.7623V7.68672C0 7.51104 0.143846 7.3685 0.321517 7.3685Z"/>
                </g>
            </g>
        </g>
    </g>
</g>
</svg>
