<svg width="17" height="14" viewBox="0 0 17 14" fill="none" xmlns="http://www.w3.org/2000/svg">
  <path d="M12.2683 11.7508C11.1842 12.6687 9.78171 13.2222 8.24999 13.2222C6.71827 13.2222 5.31582 12.6687 4.23171 11.7508C4.07357 11.7686 3.91282 11.7777 3.74995 11.7777C2.3184 11.7777 1.05109 11.0745 0.27458 9.99467C0.76348 8.54437 2.13475 7.5 3.74995 7.5C4.3201 7.5 4.85986 7.63013 5.34115 7.86232C6.17772 7.31694 7.17682 7 8.24994 7C9.32307 7 10.3222 7.31694 11.1587 7.86232C11.64 7.63014 12.1798 7.5 12.7499 7.5C14.3651 7.5 15.7364 8.54437 16.2253 9.99467C15.4488 11.0745 14.1815 11.7777 12.7499 11.7777C12.5871 11.7777 12.4264 11.7686 12.2683 11.7508Z" fill="currentColor" />
  <circle cx="3.75017" cy="5.05543" r="1.83333" fill="currentColor" />
  <circle cx="8.25018" cy="3.44437" r="2.66667" fill="currentColor" />
  <circle cx="12.7502" cy="5.05543" r="1.83333" fill="currentColor" />
</svg>
