<?xml version="1.0" encoding="UTF-8"?>
<svg width="16" height="16" viewBox="0 0 16 16" fill="none" xmlns="http://www.w3.org/2000/svg">
<path d="M11.3333 0.666656H4.66668C3.93001 0.666656 3.33334 1.26332 3.33334 1.99999V14C3.33334 14.7367 3.93001 15.3333 4.66668 15.3333H11.3333C12.07 15.3333 12.6667 14.7367 12.6667 14V1.99999C12.6667 1.26332 12.07 0.666656 11.3333 0.666656ZM9.00001 14H7.00001C6.81601 14 6.66668 13.8507 6.66668 13.6667C6.66668 13.4827 6.81601 13.3333 7.00001 13.3333H9.00001C9.18401 13.3333 9.33334 13.4827 9.33334 13.6667C9.33334 13.8507 9.18401 14 9.00001 14ZM10.8887 12H5.11134C4.86534 12 4.66668 11.8013 4.66668 11.5553V3.11132C4.66668 2.86532 4.86534 2.66666 5.11134 2.66666H10.8893C11.1347 2.66666 11.3333 2.86532 11.3333 3.11132V11.556C11.3333 11.8013 11.1347 12 10.8887 12Z" fill="currentColor"/>
</svg>
