<svg width="14" height="14" viewBox="0 0 14 14" fill="none" xmlns="http://www.w3.org/2000/svg">
<path fill-rule="evenodd" clip-rule="evenodd" d="M12.8387 8.39178C13.4316 8.19968 13.8681 8.0425 13.9916 7.32649L13.9999 6.82878C13.9143 6.30016 13.5259 5.88483 13.0281 5.78969C12.3775 5.61506 12.1716 5.53647 12.0234 4.74187C11.947 4.33218 11.9822 3.92481 12.0173 3.51856C12.0503 3.13689 12.0832 2.75622 12.0234 2.37555C11.834 1.16183 10.4916 -0.20907 9.25634 0.0266888C8.93509 0.0832341 8.65961 0.301366 8.51725 0.611916C8.3749 0.922466 8.38333 1.28691 8.53987 1.58969C8.70422 1.98659 8.97737 2.09908 9.25693 2.21422C9.4817 2.30679 9.71062 2.40107 9.89046 2.64624C10.1622 3.01663 10.1016 3.67995 10.0481 4.26573C10.0221 4.54994 9.99785 4.8159 10.014 5.02129C10.0326 5.31953 10.0909 5.61348 10.1869 5.89447C10.2208 5.99767 10.4134 6.28761 10.5915 6.5558C10.76 6.80954 10.9156 7.0438 10.9116 7.082C10.9069 7.12679 10.7498 7.30484 10.6048 7.46912C10.4954 7.59312 10.3929 7.70928 10.3681 7.75435C10.2858 7.89524 10.2168 8.0444 10.1622 8.19968C10.0468 8.56536 9.9911 8.94925 9.99752 9.33481C9.99516 9.50491 10.0171 9.70868 10.0406 9.92623C10.099 10.4681 10.1666 11.0953 9.89046 11.5003C9.72232 11.7469 9.48423 11.8484 9.2471 11.9496C8.93838 12.0812 8.63127 12.2122 8.48223 12.6616C8.35852 12.9264 8.3602 13.2376 8.48676 13.5008C8.61332 13.764 8.84984 13.9482 9.12458 13.9976C10.4604 14.0534 11.6572 13.128 12.0152 11.7623C12.0763 11.4114 12.039 10.993 12.0014 10.5707C11.9174 9.62668 11.8316 8.66326 12.8387 8.39178ZM1.16118 8.39156C0.568235 8.19946 0.131765 8.04229 0.00823529 7.32628L0 6.82856C0.088642 6.30333 0.4764 5.89219 0.971765 5.79821C1.62235 5.62357 1.82824 5.54498 1.97647 4.75039C2.0529 4.3407 2.01768 3.93332 1.98255 3.52707C1.94955 3.14541 1.91663 2.76474 1.97647 2.38407C2.16588 1.17034 3.50823 -0.191822 4.74353 0.0264731C5.06479 0.0830184 5.34027 0.30115 5.48262 0.6117C5.62498 0.92225 5.61655 1.28669 5.46 1.58947C5.29566 1.98637 5.02251 2.09887 4.74294 2.214C4.51817 2.30657 4.28925 2.40085 4.10941 2.64602C3.83771 3.01641 3.89829 3.67973 3.95178 4.26551C3.97774 4.54973 4.00202 4.81569 3.98588 5.02108C3.96724 5.31931 3.90902 5.61327 3.81294 5.89426C3.77909 5.99745 3.5865 6.2874 3.40837 6.55558C3.23983 6.80932 3.08423 7.04358 3.08823 7.08179C3.09293 7.12657 3.25006 7.30463 3.39503 7.46891C3.50446 7.59291 3.60697 7.70907 3.63176 7.75414C3.71406 7.89502 3.78303 8.04419 3.83765 8.19946C3.95308 8.56514 4.00878 8.94904 4.00235 9.3346C4.00471 9.50469 3.98274 9.70847 3.95929 9.92601C3.90086 10.4679 3.83323 11.0951 4.10941 11.5001C4.27756 11.7467 4.51564 11.8482 4.75277 11.9493C5.06149 12.081 5.3686 12.212 5.51765 12.6614C5.64136 12.9262 5.63968 13.2373 5.51312 13.5006C5.38656 13.7638 5.15003 13.948 4.87529 13.9974C3.53944 14.0532 2.34272 13.1278 1.98471 11.762C1.92362 11.4112 1.96087 10.9928 1.99847 10.5705C2.08251 9.62646 2.16829 8.66304 1.16118 8.39156Z" fill="white"/>
</svg>
