<svg width="22" height="22" viewBox="0 0 22 22" fill="none" xmlns="http://www.w3.org/2000/svg">
<path fill-rule="evenodd" clip-rule="evenodd" d="M8.76207 0.377807L2.92927 2.81308C2.12797 3.14764 1.46214 3.67807 0.984137 4.3287L4.812 6.05883L14.5559 1.21433L12.5523 0.377808C11.3458 -0.125935 9.96859 -0.125936 8.76207 0.377807ZM16.3116 1.94734L18.3851 2.81309C19.1871 3.1479 19.8533 3.67891 20.3314 4.33024L10.6595 8.70179L6.50391 6.82354L16.3116 1.94734ZM20.9774 5.61629C21.0944 6.0015 21.1562 6.40552 21.1562 6.81878V14.2718C21.1562 16.0042 20.0703 17.574 18.3851 18.2775L12.5523 20.7128C12.1743 20.8707 11.7795 20.979 11.3785 21.038V9.95486L20.9774 5.61629ZM9.94049 21.0386C9.53788 20.9799 9.14153 20.8713 8.76206 20.7128L2.92926 18.2775C1.24415 17.574 0.158163 16.0042 0.158163 14.2718V6.81878C0.158163 6.40487 0.220161 6.00024 0.337519 5.61448L4.52494 7.50712L4.53539 7.51185L9.94049 9.95486V21.0386Z" fill="currentColor"/>
</svg>
