<svg xmlns="http://www.w3.org/2000/svg" width="14" height="14" viewBox="0 0 14 14" fill="none">
    <path
        d="M1 6.99124C1 7.42175 1.24845 7.72429 1.71705 7.81158C2.50811 7.9508 2.81455 8.34082 2.81455 9.31571V10.9004C2.81455 12.6886 3.64136 13.5 5.41929 13.5C5.54655 13.5 5.67444 13.4802 5.77017 13.4532C6.05873 13.3591 6.20003 13.1558 6.20003 12.8984C6.20003 12.606 6.0699 12.4483 5.80456 12.379C5.7369 12.3633 5.66699 12.3497 5.58578 12.3424C4.59197 12.2657 4.23337 11.8343 4.23337 10.736V8.81793C4.23337 7.75201 3.6272 7.13828 2.60507 7.03173C2.5641 7.02836 2.56187 6.97445 2.60507 6.97C3.6272 6.8646 4.23337 6.25085 4.23337 5.18489V3.26504C4.23337 2.1617 4.59197 1.74053 5.58578 1.66379C5.68847 1.65535 5.77986 1.6407 5.84865 1.61586C6.08232 1.54037 6.20003 1.3725 6.20003 1.10158C6.20003 0.838472 6.05922 0.644776 5.77216 0.552398C5.65557 0.515769 5.52606 0.5 5.36614 0.5C3.63627 0.5 2.81455 1.32272 2.81455 3.10064V4.68711C2.81455 5.65299 2.50364 6.04809 1.71705 6.18616C1.24845 6.27568 1 6.56697 1 6.99124ZM13.38 6.99124C13.38 6.56697 13.1265 6.27568 12.659 6.18616C11.8763 6.04585 11.5604 5.65299 11.5604 4.68711V3.10064C11.5604 1.32272 10.7386 0.5 9.00876 0.5C8.84996 0.5 8.72446 0.515769 8.60895 0.552398C8.31061 0.644776 8.17488 0.838472 8.17488 1.10158C8.17488 1.3725 8.30387 1.53417 8.53133 1.61586C8.60126 1.64293 8.68645 1.65535 8.78912 1.66379C9.77786 1.7224 10.1466 2.1617 10.1466 3.26504V5.18489C10.1466 6.25593 10.7539 6.94769 11.7709 6.97115C11.8131 6.97445 11.8108 7.02836 11.7709 7.03173C10.7539 7.05741 10.1466 7.74692 10.1466 8.81793V10.736C10.1466 11.8343 9.78295 12.2623 8.78912 12.3424C8.70902 12.3497 8.64424 12.3633 8.57653 12.379C8.31232 12.4426 8.17488 12.606 8.17488 12.8984C8.17488 13.1671 8.32745 13.3765 8.60984 13.4532C8.70666 13.4802 8.82949 13.5 8.95676 13.5C10.7336 13.5 11.5604 12.6886 11.5604 10.9004V9.31571C11.5604 8.34082 11.873 7.9508 12.659 7.81158C13.1265 7.72429 13.38 7.42175 13.38 6.99124Z"
        fill="currentColor" />
</svg>