<svg width="14" height="14" viewBox="0 0 14 14" fill="none" xmlns="http://www.w3.org/2000/svg">
<path fill-rule="evenodd" clip-rule="evenodd" d="M12.8388 8.39178C13.4318 8.19968 13.8682 8.0425 13.9918 7.32649L14 6.82878C13.9145 6.30016 13.5261 5.88483 13.0282 5.78969C12.3776 5.61506 12.1718 5.53647 12.0235 4.74187C11.9471 4.33218 11.9823 3.92481 12.0175 3.51856C12.0505 3.13689 12.0834 2.75622 12.0235 2.37555C11.8341 1.16183 10.4918 -0.20907 9.25647 0.0266888C8.93521 0.0832341 8.65973 0.301366 8.51738 0.611916C8.37502 0.922466 8.38345 1.28691 8.54 1.58969C8.70434 1.98659 8.97749 2.09908 9.25706 2.21422C9.48183 2.30679 9.71074 2.40107 9.89059 2.64624C10.1623 3.01663 10.1017 3.67995 10.0482 4.26573C10.0223 4.54994 9.99798 4.8159 10.0141 5.02129C10.0328 5.31953 10.091 5.61348 10.1871 5.89447C10.2209 5.99767 10.4135 6.28762 10.5916 6.5558C10.7602 6.80954 10.9158 7.0438 10.9118 7.082C10.9071 7.12679 10.7499 7.30484 10.605 7.46912C10.4955 7.59312 10.393 7.70928 10.3682 7.75435C10.2859 7.89524 10.217 8.0444 10.1624 8.19968C10.0469 8.56536 9.99122 8.94925 9.99765 9.33481C9.99529 9.50491 10.0173 9.70868 10.0407 9.92623C10.0991 10.4681 10.1668 11.0953 9.89059 11.5003C9.72244 11.7469 9.48436 11.8484 9.24723 11.9496C8.93851 12.0812 8.6314 12.2122 8.48235 12.6616C8.35864 12.9264 8.36032 13.2376 8.48688 13.5008C8.61344 13.764 8.84997 13.9482 9.12471 13.9976C10.4606 14.0534 11.6573 13.128 12.0153 11.7623C12.0764 11.4114 12.0391 10.993 12.0015 10.5707C11.9175 9.62668 11.8317 8.66326 12.8388 8.39178ZM1.16118 8.39155C0.568235 8.19945 0.131765 8.04228 0.00823529 7.32627L0 6.82855C0.088642 6.30332 0.4764 5.89219 0.971765 5.7982C1.62235 5.62356 1.82823 5.54498 1.97647 4.75038C2.0529 4.34069 2.01768 3.93331 1.98255 3.52707C1.94955 3.1454 1.91663 2.76473 1.97647 2.38406C2.16588 1.17033 3.50823 -0.191831 4.74353 0.0264641C5.06478 0.0830095 5.34027 0.301141 5.48262 0.611691C5.62498 0.922241 5.61654 1.28669 5.46 1.58946C5.29566 1.98636 5.02251 2.09886 4.74294 2.21399C4.51817 2.30656 4.28925 2.40084 4.10941 2.64601C3.83771 3.0164 3.89829 3.67973 3.95178 4.2655C3.97774 4.54972 4.00202 4.81568 3.98588 5.02107C3.96724 5.3193 3.90902 5.61326 3.81294 5.89425C3.77909 5.99745 3.5865 6.28739 3.40837 6.55558C3.23983 6.80931 3.08423 7.04357 3.08823 7.08178C3.09293 7.12656 3.25006 7.30462 3.39503 7.4689C3.50446 7.5929 3.60697 7.70906 3.63176 7.75413C3.71406 7.89501 3.78303 8.04418 3.83765 8.19945C3.95308 8.56513 4.00878 8.94903 4.00235 9.33459C4.00471 9.50468 3.98274 9.70846 3.95928 9.926C3.90086 10.4678 3.83323 11.0951 4.10941 11.5001C4.27756 11.7466 4.51564 11.8482 4.75277 11.9493C5.06149 12.081 5.3686 12.212 5.51765 12.6614C5.64136 12.9262 5.63968 13.2373 5.51312 13.5006C5.38656 13.7638 5.15003 13.948 4.87529 13.9974C3.53944 14.0532 2.34272 13.1278 1.98471 11.762C1.92362 11.4112 1.96087 10.9928 1.99847 10.5705C2.08251 9.62645 2.16829 8.66303 1.16118 8.39155Z" fill="currentColor"/>
</svg>
