<svg width="20" height="20" viewBox="0 0 20 20" fill="none" xmlns="http://www.w3.org/2000/svg">
<path fill-rule="evenodd" clip-rule="evenodd" d="M18.3412 11.9883C19.1882 11.7138 19.8118 11.4893 19.9882 10.4664L20 9.7554C19.8778 9.00023 19.3229 8.4069 18.6118 8.27099C17.6824 8.02151 17.3882 7.90924 17.1765 6.77411C17.0673 6.18883 17.1176 5.60687 17.1678 5.02652C17.2149 4.48128 17.262 3.93746 17.1765 3.39364C16.9059 1.65975 14.9882 -0.298672 13.2235 0.0381268C12.7646 0.118906 12.371 0.430523 12.1677 0.874166C11.9643 1.31781 11.9764 1.83844 12.2 2.27098C12.4348 2.83798 12.825 2.99869 13.2244 3.16317C13.5455 3.29541 13.8725 3.4301 14.1294 3.78034C14.5176 4.30947 14.431 5.25707 14.3546 6.09389C14.3175 6.49992 14.2828 6.87986 14.3059 7.17327C14.3325 7.59932 14.4157 8.01926 14.5529 8.42068C14.6013 8.5681 14.8764 8.98231 15.1309 9.36543C15.3717 9.72791 15.594 10.0626 15.5882 10.1171C15.5815 10.1811 15.3571 10.4355 15.15 10.6702C14.9936 10.8473 14.8472 11.0133 14.8118 11.0776C14.6942 11.2789 14.5957 11.492 14.5176 11.7138C14.3527 12.2362 14.2732 12.7846 14.2824 13.3354C14.279 13.5784 14.3104 13.8696 14.3439 14.1803C14.4273 14.9544 14.524 15.8505 14.1294 16.429C13.8892 16.7812 13.5491 16.9263 13.2103 17.0708C12.7693 17.2589 12.3306 17.446 12.1176 18.0881C11.9409 18.4663 11.9433 18.9108 12.1241 19.2868C12.3049 19.6629 12.6428 19.9261 13.0353 19.9966C14.9437 20.0763 16.6533 18.7543 17.1647 16.8032C17.252 16.302 17.1988 15.7043 17.145 15.101C17.025 13.7524 16.9024 12.3761 18.3412 11.9883ZM1.65882 11.9879C0.811765 11.7135 0.188235 11.489 0.0117647 10.4661L0 9.75508C0.126631 9.00475 0.680571 8.41741 1.38824 8.28314C2.31765 8.03366 2.61176 7.92139 2.82353 6.78626C2.93271 6.20098 2.88239 5.61902 2.83221 5.03867C2.78507 4.49343 2.73805 3.94961 2.82353 3.40579C3.09412 1.6719 5.01176 -0.274045 6.77647 0.0378059C7.23541 0.118585 7.62895 0.430202 7.83232 0.873845C8.03568 1.31749 8.02364 1.83812 7.8 2.27066C7.56523 2.83766 7.17501 2.99837 6.77563 3.16285C6.45453 3.29509 6.12751 3.42977 5.87059 3.78002C5.48244 4.30915 5.56898 5.25675 5.6454 6.09357C5.68248 6.4996 5.71718 6.87954 5.69412 7.17295C5.66749 7.599 5.58432 8.01894 5.44706 8.42036C5.3987 8.56778 5.12357 8.98198 4.8691 9.36511C4.62833 9.72759 4.40604 10.0622 4.41176 10.1168C4.41847 10.1808 4.64294 10.4352 4.85005 10.6699C5.00638 10.847 5.15281 11.0129 5.18823 11.0773C5.3058 11.2786 5.40432 11.4917 5.48235 11.7135C5.64725 12.2359 5.72683 12.7843 5.71765 13.3351C5.72102 13.5781 5.68963 13.8692 5.65612 14.18C5.57266 14.9541 5.47605 15.8501 5.87059 16.4287C6.1108 16.7809 6.45092 16.926 6.78967 17.0705C7.23071 17.2586 7.66943 17.4457 7.88235 18.0877C8.05908 18.4659 8.05668 18.9105 7.87588 19.2865C7.69508 19.6625 7.35719 19.9257 6.9647 19.9963C5.05634 20.076 3.34674 18.7539 2.83529 16.8029C2.74802 16.3017 2.80124 15.7039 2.85495 15.1007C2.97502 13.7521 3.09756 12.3758 1.65882 11.9879Z" fill="currentColor"/>
</svg>
