<svg width="14" height="14" viewBox="0 0 14 14" fill="none" xmlns="http://www.w3.org/2000/svg">
<path d="M0.666667 0C0.266927 0 0 0.311415 0 0.777778V3.11111C0 3.57747 0.266927 3.88889 0.666667 3.88889H3.33333C3.73307 3.88889 4 3.57747 4 3.11111V0.777778C4 0.311415 3.73307 0 3.33333 0H0.666667ZM5.66667 0C5.26693 0 5 0.311415 5 0.777778V3.11111C5 3.57747 5.26693 3.88889 5.66667 3.88889H8.33333C8.73307 3.88889 9 3.57747 9 3.11111V0.777778C9 0.311415 8.73307 0 8.33333 0H5.66667ZM10.6667 0C10.2669 0 10 0.311415 10 0.777778V3.11111C10 3.57747 10.2669 3.88889 10.6667 3.88889H13.3333C13.7331 3.88889 14 3.57747 14 3.11111V0.777778C14 0.311415 13.7331 0 13.3333 0H10.6667ZM0.666667 5.05556C0.266927 5.05556 0 5.36697 0 5.83333V8.16667C0 8.63303 0.266927 8.94444 0.666667 8.94444H3.33333C3.73307 8.94444 4 8.63303 4 8.16667V5.83333C4 5.36697 3.73307 5.05556 3.33333 5.05556H0.666667ZM5.66667 5.05556C5.26693 5.05556 5 5.36697 5 5.83333V8.16667C5 8.63303 5.26693 8.94444 5.66667 8.94444H8.33333C8.73307 8.94444 9 8.63303 9 8.16667V5.83333C9 5.36697 8.73307 5.05556 8.33333 5.05556H5.66667ZM10.6667 5.05556C10.2669 5.05556 10 5.36697 10 5.83333V8.16667C10 8.63303 10.2669 8.94444 10.6667 8.94444H13.3333C13.7331 8.94444 14 8.63303 14 8.16667V5.83333C14 5.36697 13.7331 5.05556 13.3333 5.05556H10.6667ZM0.666667 10.1111C0.266927 10.1111 0 10.4225 0 10.8889V13.2222C0 13.6886 0.266927 14 0.666667 14H3.33333C3.73307 14 4 13.6886 4 13.2222V10.8889C4 10.4225 3.73307 10.1111 3.33333 10.1111H0.666667ZM5.66667 10.1111C5.26693 10.1111 5 10.4225 5 10.8889V13.2222C5 13.6886 5.26693 14 5.66667 14H8.33333C8.73307 14 9 13.6886 9 13.2222V10.8889C9 10.4225 8.73307 10.1111 8.33333 10.1111H5.66667ZM10.6667 10.1111C10.2669 10.1111 10 10.4225 10 10.8889V13.2222C10 13.6886 10.2669 14 10.6667 14H13.3333C13.7331 14 14 13.6886 14 13.2222V10.8889C14 10.4225 13.7331 10.1111 13.3333 10.1111H10.6667Z" fill="currentColor"/>
</svg>
