<svg width="30" height="30" viewBox="0 0 30 30" fill="none" xmlns="http://www.w3.org/2000/svg">
<path fill-rule="evenodd" clip-rule="evenodd" d="M25.0103 10.0476C25.0103 9.43336 24.5124 8.9354 23.8981 8.9354H12.7886C12.54 8.9354 12.3028 8.83144 12.1343 8.64868L11.0261 7.44638C10.8576 7.26363 10.6204 7.15967 10.3718 7.15967L6.10903 7.15967C5.49495 7.16013 4.99706 7.65781 4.9968 8.2719L4.9907 21.7281C4.98998 22.3423 5.48773 22.8405 6.102 22.8407L23.8981 22.8403C24.5124 22.8403 25.0103 22.3423 25.0103 21.7281V10.0476Z" fill="#9BE0FF"/>
<path fill-rule="evenodd" clip-rule="evenodd" d="M6.10246 10.1611H23.8981C24.5124 10.1611 25.0103 10.6591 25.0103 11.2734V21.7283C25.0103 22.3426 24.5124 22.8405 23.8981 22.8405H6.10246C5.4882 22.8405 4.99023 22.3426 4.99023 21.7283V11.2734C4.99023 10.6591 5.4882 10.1611 6.10246 10.1611Z" fill="#7ED3F9"/>
<path d="M12.3348 15.3586L11.4525 15.6071C11.4215 15.4021 11.2537 15.0541 10.7194 15.0541C10.3528 15.0541 10.1167 15.284 10.1167 15.5263C10.1167 15.7376 10.2472 15.8929 10.5516 15.9488L11.1419 16.0607C11.9807 16.216 12.4156 16.7565 12.4156 17.3841C12.4156 18.0737 11.8378 18.7758 10.7877 18.7758C9.56996 18.7758 9.04806 17.9867 8.98593 17.3654L9.88683 17.148C9.92411 17.5518 10.1975 17.906 10.8002 17.906C11.1854 17.906 11.4215 17.7196 11.4215 17.4462C11.4215 17.2225 11.2413 17.061 10.9493 17.0051L10.3466 16.8932C9.60103 16.7503 9.14747 16.2533 9.14747 15.6009C9.14747 14.7683 9.88062 14.1843 10.7256 14.1843C11.8253 14.1843 12.2416 14.8429 12.3348 15.3586ZM16.2059 15.3586L15.3236 15.6071C15.2926 15.4021 15.1248 15.0541 14.5905 15.0541C14.2239 15.0541 13.9878 15.284 13.9878 15.5263C13.9878 15.7376 14.1183 15.8929 14.4227 15.9488L15.013 16.0607C15.8517 16.216 16.2867 16.7565 16.2867 17.3841C16.2867 18.0737 15.7088 18.7758 14.6588 18.7758C13.441 18.7758 12.9191 17.9867 12.857 17.3654L13.7579 17.148C13.7952 17.5518 14.0686 17.906 14.6712 17.906C15.0565 17.906 15.2926 17.7196 15.2926 17.4462C15.2926 17.2225 15.1124 17.061 14.8204 17.0051L14.2177 16.8932C13.4721 16.7503 13.0185 16.2533 13.0185 15.6009C13.0185 14.7683 13.7517 14.1843 14.5967 14.1843C15.6964 14.1843 16.1127 14.8429 16.2059 15.3586ZM20.7542 18.6826H19.7663V16.9305H18.008V18.6826H17.0263V14.2775H18.008V16.0048H19.7663V14.2775H20.7542V18.6826Z" fill="white"/>
</svg>
