<svg width="16" height="16" viewBox="0 0 16 16" fill="none" xmlns="http://www.w3.org/2000/svg">
 <path fill-rule="evenodd" clip-rule="evenodd" d="M7.61508 4.14677C7.69907 4.14677 7.74431 4.09507 7.75723 4.01754L7.77189 3.93816C7.95084 2.96799 7.96082 2.91389 9.05602 2.71877C9.1335 2.69938 9.18524 2.65415 9.18524 2.57015C9.18524 2.49261 9.1335 2.44092 9.05602 2.428C7.96082 2.23288 7.95084 2.17877 7.77189 1.20861L7.75723 1.12923C7.74431 1.05169 7.69907 1 7.61508 1C7.53108 1 7.48585 1.05169 7.47292 1.12923L7.45826 1.20859C7.27931 2.17877 7.26934 2.23288 6.17415 2.428C6.09015 2.44092 6.04492 2.49261 6.04492 2.57015C6.04492 2.65415 6.09015 2.69938 6.17415 2.71877C7.26934 2.91389 7.27931 2.96799 7.45826 3.93818L7.47292 4.01754C7.48585 4.09507 7.53108 4.14677 7.61508 4.14677ZM4.48769 8.59221C4.61046 8.59221 4.69446 8.50824 4.70738 8.39192C4.93846 6.67806 4.99738 6.66675 6.74645 6.33095L6.78153 6.32422C6.89138 6.30483 6.97538 6.22729 6.97538 6.10452C6.97538 5.98821 6.89138 5.90421 6.78153 5.89129C4.99815 5.63929 4.93353 5.58114 4.70738 3.83006C4.69446 3.7073 4.61046 3.62329 4.48769 3.62329C4.37138 3.62329 4.28738 3.7073 4.268 3.83652C4.06423 5.53671 3.96714 5.55512 2.26988 5.87687L2.19385 5.89129C2.084 5.91068 2 5.98821 2 6.10452C2 6.23376 2.084 6.30483 2.21969 6.32422C3.97723 6.60852 4.06123 6.65375 4.268 8.37895C4.28738 8.50824 4.37138 8.59221 4.48769 8.59221ZM9.1916 15.4415C9.15931 15.6159 9.03658 15.7387 8.86858 15.7387C8.70058 15.7387 8.57779 15.6159 8.55194 15.4415C8.06732 11.907 7.58271 11.4353 4.09348 10.9765C3.9061 10.9571 3.78333 10.8279 3.78333 10.6534C3.78333 10.4854 3.9061 10.3562 4.09348 10.3368C7.58917 9.94917 8.09317 9.40641 8.55194 5.86548C8.57779 5.69101 8.70058 5.57471 8.86858 5.57471C9.03658 5.57471 9.15931 5.69101 9.1916 5.86548C9.6504 9.40641 10.148 9.94917 13.6501 10.3368C13.831 10.3562 13.9538 10.4854 13.9538 10.6534C13.9538 10.8279 13.831 10.9571 13.6501 10.9765C10.148 11.3643 9.6504 11.907 9.1916 15.4415Z" fill="currentColor"/>
 </svg>