<svg xmlns="http://www.w3.org/2000/svg" width="64" height="64" viewBox="0 0 64 64" fill="none">
    <path fill-rule="evenodd" clip-rule="evenodd" d="M64 32C64 49.4745 49.5059 64 32 64C14.5255 64 0 49.4745 0 32C0 14.4941 14.4941 0 31.9686 0C49.4745 0 64 14.4941 64 32ZM28.485 47.3421C27.4183 47.3421 26.5399 46.9029 25.7242 45.8048L17.8497 36.1421C17.3791 35.5146 17.0968 34.8244 17.0968 34.1028C17.0968 32.6911 18.1948 31.5303 19.6066 31.5303C20.5164 31.5303 21.2066 31.8127 21.9909 32.8479L28.3595 41.0676L41.7556 19.546C42.3517 18.6048 43.1674 18.1029 43.983 18.1029C45.3634 18.1029 46.6497 19.044 46.6497 20.5185C46.6497 21.2087 46.2419 21.9303 45.8654 22.5891L31.1203 45.8048C30.4615 46.8401 29.5517 47.3421 28.485 47.3421Z" fill="url(#paint0_linear_146_12158)"/>
    <defs>
        <linearGradient id="paint0_linear_146_12158" x1="-3.61353e-07" y1="-0.727266" x2="67.4046" y2="3.0856" gradientUnits="userSpaceOnUse">
            <stop stop-color="#2091F6"/>
            <stop offset="1" stop-color="#21B568"/>
        </linearGradient>
    </defs>
</svg>
