<svg width="298" height="140" viewBox="0 0 298 140" fill="none" xmlns="http://www.w3.org/2000/svg">
<path fill-rule="evenodd" clip-rule="evenodd" d="M66.9318 0.529297C76.2705 0.529297 84.6648 4.44979 90.4601 10.6861C97.5391 4.37722 106.96 0.529297 117.302 0.529297C139.293 0.529297 157.12 17.9267 157.12 39.3875C157.12 40.4234 157.079 41.4498 156.997 42.4652C170.663 48.6208 180.147 62.1123 180.147 77.7656C180.147 99.2264 162.32 116.624 140.33 116.624C128.278 116.624 117.477 111.399 110.176 103.143C103.208 112.233 90.5301 116.623 76.0452 116.623C57.5424 116.623 41.9873 109.46 37.5185 94.488C36.7748 94.5339 36.0248 94.5571 35.2691 94.5571C16.1929 94.5571 0.728516 79.7371 0.728516 61.4557C0.728516 43.1743 16.1929 28.3543 35.2691 28.3543L35.4068 28.3545C36.9028 12.7472 50.4459 0.529297 66.9318 0.529297Z" fill="url(#paint0_linear_1276_24516)"/>
<path fill-rule="evenodd" clip-rule="evenodd" d="M199.885 65.5293C199.885 91.0206 179.22 111.685 153.729 111.685C128.237 111.685 107.572 91.0206 107.572 65.5293C107.572 40.038 128.237 19.3732 153.729 19.3732C179.22 19.3732 199.885 40.038 199.885 65.5293ZM203.729 65.5293C203.729 93.1435 181.343 115.529 153.729 115.529C126.114 115.529 103.729 93.1435 103.729 65.5293C103.729 37.9151 126.114 15.5293 153.729 15.5293C181.343 15.5293 203.729 37.9151 203.729 65.5293ZM147.14 73.8844L170.545 50.4799L173.817 53.7523L148.776 78.7929L147.14 80.358L145.504 78.7929L134.122 67.4108L137.394 64.1385L147.14 73.8844Z" fill="#2091F6"/>
<path fill-rule="evenodd" clip-rule="evenodd" d="M199.885 65.5293C199.885 91.0206 179.22 111.685 153.729 111.685C128.237 111.685 107.572 91.0206 107.572 65.5293C107.572 40.038 128.237 19.3732 153.729 19.3732C179.22 19.3732 199.885 40.038 199.885 65.5293ZM203.729 65.5293C203.729 93.1435 181.343 115.529 153.729 115.529C126.114 115.529 103.729 93.1435 103.729 65.5293C103.729 37.9151 126.114 15.5293 153.729 15.5293C181.343 15.5293 203.729 37.9151 203.729 65.5293ZM147.14 73.8844L170.545 50.4799L173.817 53.7523L148.776 78.7929L147.14 80.358L145.504 78.7929L134.122 67.4108L137.394 64.1385L147.14 73.8844Z" fill="url(#paint1_linear_1276_24516)"/>
<path fill-rule="evenodd" clip-rule="evenodd" d="M211.747 51.7725C218.801 51.7725 225.142 54.7339 229.52 59.4447C234.867 54.6791 241.984 51.7725 249.796 51.7725C266.408 51.7725 279.874 64.9144 279.874 81.1258C279.874 81.9083 279.843 82.6836 279.781 83.4507C290.105 88.1005 297.27 98.2921 297.27 110.117C297.27 126.328 283.803 139.47 267.192 139.47C258.088 139.47 249.929 135.523 244.413 129.287C239.15 136.154 229.573 139.47 218.631 139.47C204.653 139.47 192.903 134.058 189.528 122.748C188.966 122.782 188.399 122.8 187.828 122.8C173.418 122.8 161.736 111.605 161.736 97.7952C161.736 83.9855 173.418 72.7906 187.828 72.7906L187.933 72.7908C189.064 61.0014 199.294 51.7725 211.747 51.7725Z" fill="url(#paint2_linear_1276_24516)"/>
<defs>
<linearGradient id="paint0_linear_1276_24516" x1="55.5" y1="-0.000488173" x2="57.5" y2="115" gradientUnits="userSpaceOnUse">
<stop stop-color="#5A5E73"/>
<stop offset="1" stop-color="#5A5E73" stop-opacity="0"/>
</linearGradient>
<linearGradient id="paint1_linear_1276_24516" x1="103.729" y1="115.529" x2="188.952" y2="4.21638" gradientUnits="userSpaceOnUse">
<stop stop-color="#2091F6"/>
<stop offset="1" stop-color="#21B568"/>
</linearGradient>
<linearGradient id="paint2_linear_1276_24516" x1="201" y1="51.4995" x2="202.5" y2="139.5" gradientUnits="userSpaceOnUse">
<stop stop-color="#5A5E73"/>
<stop offset="1" stop-color="#5A5E73" stop-opacity="0"/>
</linearGradient>
</defs>
</svg>
