<svg width="30" height="31" viewBox="0 0 30 31" fill="none" xmlns="http://www.w3.org/2000/svg">
<g id="Group 3">
<g id="Combined Shape phone">
<path id="Subtract" fill-rule="evenodd" clip-rule="evenodd" d="M0 6.9467C0 5.28985 1.34315 3.9467 3 3.9467H14.25C14.6642 3.9467 15 4.28249 15 4.6967C15 5.11091 14.6642 5.4467 14.25 5.4467H3C2.17157 5.4467 1.5 6.11827 1.5 6.9467V18.9467C1.5 19.7751 2.17157 20.4467 3 20.4467H13.5C14.3284 20.4467 15 21.1183 15 21.9467V22.9852C15 23.8136 14.3284 24.4852 13.5 24.4852H3C1.34314 24.4852 0 23.142 0 21.4852V6.9467ZM15 25.8124C15 25.3982 14.6642 25.0624 14.25 25.0624H12.7872C12.1614 25.0624 11.6759 25.5956 11.3961 26.1554L11.1592 26.6291C11.1091 26.7292 11.0069 26.7924 10.895 26.7924C10.2993 26.7924 9.75478 27.129 9.48838 27.6618C9.42303 27.7925 9.51808 27.9462 9.66421 27.9462H14.25C14.6642 27.9462 15 27.6105 15 27.1962V25.8124Z" fill="currentColor"/>
<path id="Union" fill-rule="evenodd" clip-rule="evenodd" d="M27.975 3.9465H18.525C17.4066 3.9465 16.5 4.82471 16.5 5.90804V25.985C16.5 27.0683 17.4066 27.9465 18.525 27.9465H27.975C29.0934 27.9465 30 27.0683 30 25.985V5.90804C30 4.82471 29.0934 3.9465 27.975 3.9465ZM18 6.08936C18 5.73432 18.2612 5.4465 18.5833 5.4465H19.5C19.5 6.27493 20.1716 6.9465 21 6.9465H25.5C26.3284 6.9465 27 6.27493 27 5.4465H27.9167C28.2388 5.4465 28.5 5.73432 28.5 6.08936V25.8036C28.5 26.1587 28.2388 26.4465 27.9167 26.4465H18.5833C18.2612 26.4465 18 26.1587 18 25.8036V6.08936Z" fill="currentColor"/>
</g>
</g>
</svg>
