<svg width="60" height="60" viewBox="0 0 60 60" fill="none" xmlns="http://www.w3.org/2000/svg">
<path d="M15.5303 10.8909C13.4241 12.4621 13.2672 14.808 14.2307 16.3793C15.3287 18.1276 17.6813 18.9686 20.3477 17.0875C23.0365 15.14 26.4199 13.8785 30.0498 13.8785C38.2057 13.8785 44.5692 19.4776 46.2273 26.2274H42.5974C40.3568 26.2274 39.6398 28.2634 41.1634 30.2773L47.9974 39.3951C49.185 40.9886 51.1791 40.9443 52.3443 39.3951L59.2007 30.2773C60.6795 28.2856 60.0521 26.2274 57.7667 26.2274H54.3609C52.5908 15.1842 42.5974 6 30.0498 6C24.4705 6 19.3842 7.9475 15.5303 10.8909ZM0.809204 30.056C-0.692035 32.0478 -0.0422448 34.1059 2.24322 34.1059H5.76105C7.50876 45.1491 17.5245 54.3333 30.0498 54.3333C35.629 54.3333 40.7377 52.3858 44.5692 49.4425C46.6754 47.8712 46.8547 45.5253 45.8688 43.9319C44.7933 42.2057 42.4182 41.3648 39.7518 43.2459C37.063 45.2155 33.6796 46.4548 30.0498 46.4548C21.8938 46.4548 15.5527 40.8558 13.8946 34.1059H17.4125C19.6307 34.1059 20.3477 32.0699 18.8241 30.056L12.0125 20.9382C10.8249 19.3448 8.83075 19.389 7.66561 20.9382L0.809204 30.056Z" fill="currentColor"/>
</svg>
