<svg width="20" height="20" viewBox="0 0 20 20" fill="none" xmlns="http://www.w3.org/2000/svg">
<path fill-rule="evenodd" clip-rule="evenodd" d="M10.3417 2.14999L17.8417 9.64999C18.1417 9.94999 18.3333 10.375 18.3333 10.8333C18.3333 11.2917 18.15 11.7083 17.8417 12.0083L12.0083 17.8417C11.7083 18.15 11.2917 18.3333 10.8333 18.3333C10.375 18.3333 9.95833 18.15 9.65833 17.85L2.15833 10.35C1.85 10.0417 1.66666 9.62499 1.66666 9.16666V3.33332C1.66666 2.41666 2.41666 1.66666 3.33333 1.66666H9.16666C9.625 1.66666 10.0417 1.84999 10.3417 2.14999ZM3.33333 4.58333C3.33333 5.275 3.89167 5.83333 4.58333 5.83333C5.275 5.83333 5.83333 5.275 5.83333 4.58333C5.83333 3.89167 5.275 3.33333 4.58333 3.33333C3.89167 3.33333 3.33333 3.89167 3.33333 4.58333Z" fill="currentColor"/>
</svg>
