<svg width="14" height="14" viewBox="0 0 14 14" fill="none" xmlns="http://www.w3.org/2000/svg">
<g clip-path="url(#clip0_1140_2005)">
<path fill-rule="evenodd" clip-rule="evenodd" d="M7.09696 1.44483C6.85247 1.45921 6.62175 1.56282 6.44857 1.736L0.707008 7.47756C0.316484 7.86809 0.316484 8.50125 0.707008 8.89178L4.94965 13.1344C5.34017 13.5249 5.97334 13.5249 6.36386 13.1344L12.1054 7.39285C12.2786 7.21967 12.3822 6.98896 12.3966 6.74447L12.5957 3.35972C12.666 2.16428 11.6771 1.17541 10.4817 1.24573L7.09696 1.44483ZM8.3417 5.49829C8.73223 5.88882 9.36539 5.88882 9.75592 5.49829C10.1464 5.10777 10.1464 4.4746 9.75592 4.08408C9.36539 3.69355 8.73223 3.69355 8.3417 4.08408C7.95118 4.4746 7.95118 5.10777 8.3417 5.49829Z" fill="currentColor"/>
</g>
<defs>
<clipPath id="clip0_1140_2005">
<rect width="14" height="14" fill="white"/>
</clipPath>
</defs>
</svg>
