<svg width="64" height="64" viewBox="0 0 64 64" fill="none" xmlns="http://www.w3.org/2000/svg">
<path fill-rule="evenodd" clip-rule="evenodd" d="M32.0028 28.7555C37.3718 28.7555 41.7243 24.4031 41.7243 19.034C41.7243 13.665 37.3718 9.3125 32.0028 9.3125C26.6337 9.3125 22.2812 13.665 22.2812 19.034C22.2812 24.4031 26.6337 28.7555 32.0028 28.7555ZM46.6578 49.3116C42.7049 52.6602 37.5902 54.6796 32.0039 54.6796C26.4172 54.6796 21.3023 52.66 17.3493 49.311C16.7733 49.3755 16.1879 49.4086 15.5948 49.4086C10.3752 49.4086 5.75453 46.8444 2.92383 42.9069C4.70619 37.6198 9.70521 33.8125 15.5935 33.8125C17.6727 33.8125 19.641 34.2872 21.396 35.1342C24.4453 33.147 28.0867 31.9922 31.9977 31.9922C35.9095 31.9922 39.5515 33.1474 42.6011 35.1353C44.3567 34.2876 46.3259 33.8125 48.406 33.8125C54.2952 33.8125 59.2948 37.6209 61.0765 42.9093C58.2456 46.8454 53.6258 49.4086 48.4073 49.4086C47.8158 49.4086 47.2321 49.3757 46.6578 49.3116ZM15.5974 31.5897C19.2887 31.5897 22.281 28.5974 22.281 24.9062C22.281 21.215 19.2887 18.2227 15.5974 18.2227C11.9062 18.2227 8.91389 21.215 8.91389 24.9062C8.91389 28.5974 11.9062 31.5897 15.5974 31.5897ZM55.0935 24.9062C55.0935 28.5974 52.1012 31.5897 48.4099 31.5897C44.7187 31.5897 41.7264 28.5974 41.7264 24.9062C41.7264 21.215 44.7187 18.2227 48.4099 18.2227C52.1012 18.2227 55.0935 21.215 55.0935 24.9062Z" fill="url(#paint0_linear_5782_93371)"/>
<defs>
<linearGradient id="paint0_linear_5782_93371" x1="2.92383" y1="8.79697" x2="64.0446" y2="13.2288" gradientUnits="userSpaceOnUse">
<stop stop-color="#2091F6"/>
<stop offset="1" stop-color="#21B568"/>
</linearGradient>
</defs>
</svg>
