<svg width="27" height="27" viewBox="0 0 27 27" fill="none" 
    xmlns="http://www.w3.org/2000/svg">
    <path class="fill" fill-rule="evenodd" clip-rule="evenodd" d="M25.6973 25.9451H21.1687L21.141 12.9845C21.1404 12.6935 20.9044 12.4582 20.6136 12.4582H20.6124C20.3211 12.4588 20.0855 12.6954 20.0862 12.9867L20.1138 25.9451H18.582L18.5684 20.1787C18.5677 19.8878 18.3317 19.6525 18.041 19.6525H18.0397C17.7484 19.6532 17.5128 19.8899 17.5136 20.1812L17.5271 25.9451H16.2465V18.9652C17.7394 18.8332 18.9132 17.6064 18.9132 16.1167V11.0055C18.9132 10.1927 18.7407 9.39605 18.4109 8.6603C19.4524 8.72986 20.422 9.15363 21.1678 9.87388C21.9841 10.662 22.4349 11.7101 22.4372 12.8255L22.4469 15.8269C22.4478 16.1176 22.6837 16.3527 22.9743 16.3527H22.976C23.2673 16.3517 23.5027 16.1148 23.5018 15.8235L23.4921 12.8227C23.4891 11.4199 22.9239 10.1032 21.9006 9.11508C21.3161 8.55067 20.6218 8.13264 19.8652 7.87904C20.4011 7.36894 20.7356 6.64912 20.7339 5.85262C20.7306 4.31583 19.4793 3.06787 17.9432 3.06787H17.9372C17.4897 3.06888 17.0448 3.17846 16.6505 3.38481C16.3924 3.51991 16.2927 3.83864 16.4278 4.09672C16.5629 4.3548 16.8817 4.45453 17.1397 4.31942C17.3878 4.18954 17.6569 4.12335 17.9396 4.12272C18.8982 4.12225 19.677 4.89771 19.6791 5.85483C19.6812 6.81196 18.9041 7.59233 17.947 7.59438C17.9243 7.59444 17.9021 7.59639 17.8802 7.59923L17.8622 7.59996C17.8401 7.60085 17.818 7.60173 17.7959 7.60298C17.0338 6.5601 15.9641 5.80358 14.7457 5.41967C15.3925 4.85214 15.8021 4.02036 15.8021 3.09419C15.8019 1.38802 14.4139 0 12.7078 0C11.0017 0 9.61364 1.38802 9.61364 3.09419C9.61364 4.06524 10.0637 4.93283 10.7657 5.50051C9.64734 5.90414 8.66721 6.62718 7.95541 7.59997C7.87187 7.59623 7.78845 7.59401 7.70545 7.59401C7.666 7.59401 7.62666 7.59465 7.58737 7.59549L7.57846 7.59492C7.57183 7.59447 7.56522 7.59401 7.55847 7.59401C6.60135 7.59401 5.82267 6.81534 5.82267 5.85821C5.82267 4.90108 6.60135 4.1224 7.55847 4.1224C7.84778 4.1224 8.13396 4.19486 8.38603 4.33192C8.64195 4.47098 8.96216 4.37637 9.10138 4.12045C9.24049 3.86453 9.14583 3.54428 8.88991 3.40511C8.48365 3.18421 8.02322 3.06745 7.55842 3.06745C6.01963 3.06745 4.76772 4.31937 4.76772 5.85816C4.76772 6.69611 5.1395 7.44841 5.72611 7.96041C3.73207 8.72933 2.31831 10.6241 2.31831 12.8341V15.8252C2.31831 16.1165 2.55446 16.3527 2.84576 16.3527C3.13707 16.3527 3.37321 16.1165 3.37321 15.8252V12.8341C3.37321 10.6467 5.11956 8.84709 7.33588 8.66521C7.00751 9.39953 6.83575 10.1944 6.83575 11.0055V16.1167C6.83575 17.6359 8.05639 18.8817 9.59138 18.9718V25.945H8.15448V20.1798C8.15448 19.8885 7.91833 19.6523 7.62703 19.6523C7.33572 19.6523 7.09958 19.8885 7.09958 20.1798V25.9451H5.80305V12.9909C5.80305 12.6996 5.56691 12.4635 5.2756 12.4635C4.9843 12.4635 4.74815 12.6996 4.74815 12.9909V25.9451H0.564314C0.27301 25.9451 0.0368652 26.1812 0.0368652 26.4726C0.0368652 26.7639 0.272957 27 0.564314 27H25.6974C25.9887 27 26.2248 26.7639 26.2248 26.4726C26.2247 26.1812 25.9886 25.9451 25.6973 25.9451ZM10.6685 3.09419C10.6685 1.96973 11.5833 1.0549 12.7078 1.0549C13.8322 1.0549 14.747 1.96973 14.747 3.09419C14.747 4.21864 13.8322 5.13348 12.7078 5.13348C11.5834 5.13348 10.6685 4.21864 10.6685 3.09419ZM15.1915 11.1833C15.1915 10.892 15.4277 10.6558 15.719 10.6558C16.0103 10.6558 16.2465 10.892 16.2464 11.1833V17.9042C17.1563 17.7792 17.8582 17.0255 17.8582 16.1167V11.0055C17.8582 10.0952 17.594 9.20869 17.0943 8.44193C16.1745 7.03081 14.5969 6.18838 12.8744 6.18838C11.1547 6.18838 9.57862 7.02865 8.6583 8.43608C8.15606 9.20415 7.8906 10.0927 7.8906 11.0055V16.1167C7.8906 17.0548 8.63863 17.8279 9.59138 17.9143V11.1833C9.59138 10.892 9.82753 10.6558 10.1188 10.6558C10.4101 10.6558 10.6463 10.892 10.6463 11.1833V25.9452H12.2581V18.6073C12.2581 18.316 12.4943 18.0798 12.7856 18.0798C13.0769 18.0798 13.313 18.316 13.313 18.6073V25.9451H15.1915V11.1833Z" fill="#5A5E73"/>
</svg>
