<svg width="540" height="600" viewBox="0 0 540 600" fill="none" xmlns="http://www.w3.org/2000/svg">
<g clip-path="url(#clip0_1833_10002)">
<g filter="url(#filter0_f_1833_10002)">
<ellipse cx="270.5" cy="300" rx="242" ry="138.5" transform="rotate(90 270.5 300)" fill="url(#paint0_radial_1833_10002)" fill-opacity="0.6"/>
</g>
<path d="M206 301C206.552 301 207 300.552 207 300C207 299.448 206.552 299 206 299L206 301ZM154 300L154 301L206 301L206 300L206 299L154 299L154 300Z" fill="url(#paint1_linear_1833_10002)"/>
<path d="M456 297C456 285.799 456 280.198 453.82 275.92C451.903 272.157 448.843 269.097 445.08 267.18C440.802 265 435.201 265 424 265H238C226.799 265 221.198 265 216.92 267.18C213.157 269.097 210.097 272.157 208.18 275.92C206 280.198 206 285.799 206 297V303C206 314.201 206 319.802 208.18 324.08C210.097 327.843 213.157 330.903 216.92 332.82C221.198 335 226.799 335 238 335H424C435.201 335 440.802 335 445.08 332.82C448.843 330.903 451.903 327.843 453.82 324.08C456 319.802 456 314.201 456 303V297Z" fill="url(#paint2_linear_1833_10002)" fill-opacity="0.6"/>
<path d="M456 297C456 285.799 456 280.198 453.82 275.92C451.903 272.157 448.843 269.097 445.08 267.18C440.802 265 435.201 265 424 265H238C226.799 265 221.198 265 216.92 267.18C213.157 269.097 210.097 272.157 208.18 275.92C206 280.198 206 285.799 206 297V303C206 314.201 206 319.802 208.18 324.08C210.097 327.843 213.157 330.903 216.92 332.82C221.198 335 226.799 335 238 335H424C435.201 335 440.802 335 445.08 332.82C448.843 330.903 451.903 327.843 453.82 324.08C456 319.802 456 314.201 456 303V297Z" fill="url(#paint3_linear_1833_10002)" fill-opacity="0.4"/>
<path d="M424 265.5H238C232.391 265.5 228.214 265.5 224.904 265.771C221.807 266.024 219.507 266.511 217.537 267.435L217.147 267.625C213.593 269.436 210.682 272.293 208.804 275.806L208.625 276.147C207.577 278.204 207.04 280.601 206.771 283.904C206.5 287.214 206.5 291.391 206.5 297V303C206.5 308.609 206.5 312.786 206.771 316.096C207.024 319.193 207.511 321.493 208.435 323.463L208.625 323.853C210.436 327.407 213.293 330.318 216.806 332.196L217.147 332.375C219.204 333.423 221.601 333.96 224.904 334.229C228.214 334.5 232.391 334.5 238 334.5H424C429.609 334.5 433.786 334.5 437.096 334.229C440.193 333.976 442.493 333.489 444.463 332.565L444.853 332.375C448.407 330.564 451.318 327.707 453.196 324.194L453.375 323.853C454.423 321.796 454.96 319.399 455.229 316.096C455.5 312.786 455.5 308.609 455.5 303V297L455.496 293.053C455.483 289.357 455.432 286.387 455.229 283.904C454.976 280.807 454.489 278.507 453.565 276.537L453.375 276.147C451.564 272.593 448.707 269.682 445.194 267.804L444.853 267.625C442.796 266.577 440.399 266.04 437.096 265.771C433.786 265.5 429.609 265.5 424 265.5Z" stroke="url(#paint4_linear_1833_10002)" stroke-opacity="0.7"/>
<rect width="30" height="30" rx="8.33333" transform="matrix(-1 0 0 1 436 285)" fill="url(#paint5_linear_1833_10002)" fill-opacity="0.2" style="mix-blend-mode:screen"/>
<path fill-rule="evenodd" clip-rule="evenodd" d="M417.012 296.744C417.012 298.533 418.265 300.028 419.942 300.4V301.14L418.64 302.442L419.942 303.744L418.64 305.047L420.593 307L421.895 305.698V300.312C423.406 299.83 424.5 298.415 424.5 296.744C424.5 294.676 422.824 293 420.756 293C418.688 293 417.012 294.676 417.012 296.744ZM419.616 296.093C419.616 296.722 420.126 297.233 420.756 297.233C421.385 297.233 421.895 296.722 421.895 296.093C421.895 295.464 421.385 294.953 420.756 294.953C420.126 294.953 419.616 295.464 419.616 296.093Z" fill="#7DAFDB" fill-opacity="0.7"/>
<rect width="30" height="30" rx="8.33333" transform="matrix(-1 0 0 1 396 285)" fill="url(#paint6_linear_1833_10002)" fill-opacity="0.2" style="mix-blend-mode:screen"/>
<path fill-rule="evenodd" clip-rule="evenodd" d="M386.6 293C387.373 293 388 293.627 388 294.4V298.6C388 298.987 387.687 299.3 387.3 299.3H374.7C374.313 299.3 374 298.987 374 298.6V294.4C374 293.627 374.627 293 375.4 293H386.6ZM376.667 296.333C376.667 297.07 377.264 297.667 378 297.667C378.736 297.667 379.333 297.07 379.333 296.333C379.333 295.597 378.736 295 378 295C377.264 295 376.667 295.597 376.667 296.333ZM384 295C384 294.632 383.702 294.333 383.333 294.333C382.965 294.333 382.667 294.632 382.667 295V297C382.667 297.368 382.965 297.667 383.333 297.667C383.702 297.667 384 297.368 384 297V295ZM385.333 294.333C385.702 294.333 386 294.632 386 295V297C386 297.368 385.702 297.667 385.333 297.667C384.965 297.667 384.667 297.368 384.667 297V295C384.667 294.632 384.965 294.333 385.333 294.333ZM382 295C382 294.632 381.702 294.333 381.333 294.333C380.965 294.333 380.667 294.632 380.667 295V297C380.667 297.368 380.965 297.667 381.333 297.667C381.702 297.667 382 297.368 382 297V295ZM387.3 300.7C387.687 300.7 388 301.013 388 301.4V305.6C388 306.373 387.373 307 386.6 307H375.4C374.627 307 374 306.373 374 305.6V301.4C374 301.013 374.313 300.7 374.7 300.7H387.3ZM378 304.7C377.264 304.7 376.667 304.103 376.667 303.367C376.667 302.63 377.264 302.033 378 302.033C378.736 302.033 379.333 302.63 379.333 303.367C379.333 304.103 378.736 304.7 378 304.7ZM381.333 302.033C381.702 302.033 382 302.332 382 302.7V304.7C382 305.068 381.702 305.367 381.333 305.367C380.965 305.367 380.667 305.068 380.667 304.7V302.7C380.667 302.332 380.965 302.033 381.333 302.033ZM386 302.7C386 302.332 385.702 302.033 385.333 302.033C384.965 302.033 384.667 302.332 384.667 302.7V304.7C384.667 305.068 384.965 305.367 385.333 305.367C385.702 305.367 386 305.068 386 304.7V302.7ZM383.333 302.033C383.702 302.033 384 302.332 384 302.7V304.7C384 305.068 383.702 305.367 383.333 305.367C382.965 305.367 382.667 305.068 382.667 304.7V302.7C382.667 302.332 382.965 302.033 383.333 302.033Z" fill="#7DAFDB" fill-opacity="0.7"/>
<path fill-rule="evenodd" clip-rule="evenodd" d="M231 292.024C231 289.139 233.339 286.8 236.224 286.8H253.836C256.721 286.8 259.06 289.139 259.06 292.024L259.06 292.919C260.131 292.919 261 293.788 261 294.86C261 295.931 260.131 296.8 259.06 296.8V300.83C260.131 300.83 261 301.698 261 302.77C261 303.842 260.131 304.71 259.06 304.71L259.06 305.606C259.06 308.34 256.959 310.584 254.283 310.811L254.284 310.83C254.284 312.149 253.214 313.218 251.896 313.218C250.577 313.218 249.507 312.149 249.507 310.83V310.83H240.552V310.83C240.552 312.149 239.483 313.218 238.164 313.218C236.845 313.218 235.776 312.149 235.776 310.83L235.776 310.811C233.101 310.584 231 308.34 231 305.606V292.024ZM248.313 305.457C251.94 305.457 254.881 302.516 254.881 298.889C254.881 295.262 251.94 292.322 248.313 292.322C244.686 292.322 241.746 295.262 241.746 298.889C241.746 302.516 244.686 305.457 248.313 305.457ZM235.328 295.606C235.328 295.029 235.796 294.561 236.373 294.561C236.95 294.561 237.418 295.029 237.418 295.606V302.173C237.418 302.75 236.95 303.218 236.373 303.218C235.796 303.218 235.328 302.75 235.328 302.173V295.606ZM248.313 303.218C250.704 303.218 252.642 301.28 252.642 298.889C252.642 296.499 250.704 294.561 248.313 294.561C245.923 294.561 243.985 296.499 243.985 298.889C243.985 301.28 245.923 303.218 248.313 303.218Z" fill="#7DAFDB" fill-opacity="0.7"/>
<path d="M154 297C154 285.799 154 280.198 151.82 275.92C149.903 272.157 146.843 269.097 143.08 267.18C138.802 265 133.201 265 122 265H116C104.799 265 99.1984 265 94.9202 267.18C91.1569 269.097 88.0973 272.157 86.1799 275.92C84 280.198 84 285.799 84 297V303C84 314.201 84 319.802 86.1799 324.08C88.0973 327.843 91.1569 330.903 94.9202 332.82C99.1984 335 104.799 335 116 335H122C133.201 335 138.802 335 143.08 332.82C146.843 330.903 149.903 327.843 151.82 324.08C154 319.802 154 314.201 154 303V297Z" fill="url(#paint7_linear_1833_10002)" fill-opacity="0.3" style="mix-blend-mode:screen"/>
<path d="M154 297C154 285.799 154 280.198 151.82 275.92C149.903 272.157 146.843 269.097 143.08 267.18C138.802 265 133.201 265 122 265H116C104.799 265 99.1984 265 94.9202 267.18C91.1569 269.097 88.0973 272.157 86.1799 275.92C84 280.198 84 285.799 84 297V303C84 314.201 84 319.802 86.1799 324.08C88.0973 327.843 91.1569 330.903 94.9202 332.82C99.1984 335 104.799 335 116 335H122C133.201 335 138.802 335 143.08 332.82C146.843 330.903 149.903 327.843 151.82 324.08C154 319.802 154 314.201 154 303V297Z" fill="url(#paint8_linear_1833_10002)" fill-opacity="0.4" style="mix-blend-mode:screen"/>
<path d="M122 265.5H116C110.391 265.5 106.214 265.5 102.904 265.771C99.807 266.024 97.5072 266.511 95.5371 267.435L95.1475 267.625C91.5928 269.436 88.6818 272.293 86.8037 275.806L86.625 276.147C85.5771 278.204 85.0405 280.601 84.7705 283.904C84.5001 287.214 84.5 291.391 84.5 297V303C84.5 308.609 84.5001 312.786 84.7705 316.096C85.0236 319.193 85.5112 321.493 86.4346 323.463L86.625 323.853C88.4362 327.407 91.2929 330.318 94.8057 332.196L95.1475 332.375C97.2042 333.423 99.6006 333.96 102.904 334.229C106.214 334.5 110.391 334.5 116 334.5H122C127.609 334.5 131.786 334.5 135.096 334.229C138.193 333.976 140.493 333.489 142.463 332.565L142.853 332.375C146.407 330.564 149.318 327.707 151.196 324.194L151.375 323.853C152.423 321.796 152.96 319.399 153.229 316.096C153.5 312.786 153.5 308.609 153.5 303V297L153.496 293.053C153.483 289.357 153.432 286.387 153.229 283.904C152.976 280.807 152.489 278.507 151.565 276.537L151.375 276.147C149.564 272.593 146.707 269.682 143.194 267.804L142.853 267.625C140.796 266.577 138.399 266.04 135.096 265.771C131.786 265.5 127.609 265.5 122 265.5Z" stroke="url(#paint9_linear_1833_10002)" stroke-opacity="0.5" style="mix-blend-mode:screen"/>
<path d="M108.701 313.979H129.199C130.931 313.979 131.964 313.155 131.964 311.787C131.964 307.805 126.938 302.328 118.942 302.328C110.962 302.328 105.934 307.805 105.934 311.787C105.934 313.155 106.969 313.979 108.701 313.979ZM118.955 299.58C122.313 299.58 125.17 296.58 125.17 292.703C125.17 288.899 122.304 286 118.955 286C115.605 286 112.743 288.95 112.743 292.731C112.743 296.58 115.587 299.58 118.955 299.58Z" fill="#7DAFDB" fill-opacity="0.7"/>
</g>
<defs>
<filter id="filter0_f_1833_10002" x="28" y="-46" width="485" height="692" filterUnits="userSpaceOnUse" color-interpolation-filters="sRGB">
<feFlood flood-opacity="0" result="BackgroundImageFix"/>
<feBlend mode="normal" in="SourceGraphic" in2="BackgroundImageFix" result="shape"/>
<feGaussianBlur stdDeviation="52" result="effect1_foregroundBlur_1833_10002"/>
</filter>
<radialGradient id="paint0_radial_1833_10002" cx="0" cy="0" r="1" gradientUnits="userSpaceOnUse" gradientTransform="translate(270.5 300.208) rotate(-90) scale(213.686 220.688)">
<stop offset="0.0109635" stop-color="#0D6D75"/>
<stop offset="0.533542" stop-color="#1E6DB5" stop-opacity="0.45"/>
<stop offset="1" stop-color="#264E72" stop-opacity="0"/>
</radialGradient>
<linearGradient id="paint1_linear_1833_10002" x1="153.468" y1="300" x2="207" y2="300.036" gradientUnits="userSpaceOnUse">
<stop stop-color="#274B74"/>
<stop offset="1" stop-color="#0F3451"/>
</linearGradient>
<linearGradient id="paint2_linear_1833_10002" x1="456" y1="274.101" x2="430.056" y2="357.206" gradientUnits="userSpaceOnUse">
<stop stop-color="#4D6EA9" stop-opacity="0.4"/>
<stop offset="1" stop-color="#0C1A38" stop-opacity="0"/>
</linearGradient>
<linearGradient id="paint3_linear_1833_10002" x1="515.375" y1="265" x2="457.104" y2="445.845" gradientUnits="userSpaceOnUse">
<stop stop-color="#060A1D" stop-opacity="0"/>
<stop offset="0.00423948" stop-color="#4797F8" stop-opacity="0.7"/>
<stop offset="1" stop-color="#060A1D" stop-opacity="0"/>
</linearGradient>
<linearGradient id="paint4_linear_1833_10002" x1="331" y1="265" x2="400.722" y2="370.306" gradientUnits="userSpaceOnUse">
<stop stop-color="#346292"/>
<stop offset="1" stop-color="#1A2F54"/>
</linearGradient>
<linearGradient id="paint5_linear_1833_10002" x1="-3.85076e-06" y1="3.90023" x2="19.4288" y2="21.3265" gradientUnits="userSpaceOnUse">
<stop stop-color="#4D6EA9" stop-opacity="0.4"/>
<stop offset="1" stop-color="#0C1A38"/>
</linearGradient>
<linearGradient id="paint6_linear_1833_10002" x1="-3.85076e-06" y1="3.90023" x2="19.4288" y2="21.3265" gradientUnits="userSpaceOnUse">
<stop stop-color="#4D6EA9" stop-opacity="0.4"/>
<stop offset="1" stop-color="#0C1A38"/>
</linearGradient>
<linearGradient id="paint7_linear_1833_10002" x1="154" y1="274.101" x2="108.666" y2="314.762" gradientUnits="userSpaceOnUse">
<stop stop-color="#4D6EA9" stop-opacity="0.4"/>
<stop offset="1" stop-color="#0C1A38"/>
</linearGradient>
<linearGradient id="paint8_linear_1833_10002" x1="170.625" y1="265" x2="71.7907" y2="350.886" gradientUnits="userSpaceOnUse">
<stop stop-color="#060A1D" stop-opacity="0"/>
<stop offset="0.00423948" stop-color="#4797F8" stop-opacity="0.7"/>
<stop offset="1" stop-color="#060A1D" stop-opacity="0"/>
</linearGradient>
<linearGradient id="paint9_linear_1833_10002" x1="119" y1="265" x2="217.894" y2="298.643" gradientUnits="userSpaceOnUse">
<stop stop-color="#2D3454"/>
<stop offset="1" stop-color="#060A1D" stop-opacity="0"/>
</linearGradient>
<clipPath id="clip0_1833_10002">
<path d="M0 9.99999C0 4.47714 4.47715 0 10 0H530C535.523 0 540 4.47715 540 10V590C540 595.523 535.523 600 530 600H9.99999C4.47715 600 0 595.523 0 590V9.99999Z" fill="white"/>
</clipPath>
</defs>
</svg>
