<svg width="31" height="31" viewBox="0 0 31 31" fill="none" xmlns="http://www.w3.org/2000/svg">
<g clip-path="url(#clip0_3561_43340)">
<path fill-rule="evenodd" clip-rule="evenodd" d="M14.3054 16.2413C12.0116 16.2982 9.90086 17.0932 8.20189 18.3978C7.65168 18.2538 6.83545 18.1304 5.65032 18.1304C2.94636 18.1304 0.634207 19.8351 -0.195653 22.2286L-0.195769 22.229L-0.197123 22.2329L-0.351562 22.6789L-0.0713978 23.0587C1.21095 24.7974 3.29956 25.9243 5.65043 25.9243H7.13585C9.19467 27.5067 11.7723 28.4474 14.5697 28.4474C17.3671 28.4474 19.9447 27.5067 22.0036 25.9243H22.1504H23.6504C26.0013 25.9243 28.0899 24.7974 29.3722 23.0587L29.6524 22.6789L29.498 22.2329L29.4966 22.229L29.4965 22.2286C28.6666 19.8351 26.3545 18.1304 23.6505 18.1304C22.4265 18.1304 21.5945 18.262 21.0428 18.4117C21.0211 18.4176 20.9999 18.4235 20.979 18.4295C19.4328 17.23 17.5413 16.4544 15.4789 16.277C15.3558 16.2664 15.232 16.2579 15.1077 16.2516C14.9295 16.2426 14.7503 16.238 14.5699 16.238C14.4815 16.238 14.3933 16.2391 14.3054 16.2413ZM5.65032 19.9243C5.99891 19.9243 6.30411 19.9362 6.57009 19.9557C5.73262 20.9475 5.07625 22.0973 4.65201 23.3539L4.65043 23.3586C4.83744 23.6186 5.03442 23.871 5.24081 24.1152C3.81949 24.009 2.56039 23.355 1.68177 22.3743C2.37627 20.9345 3.88544 19.9243 5.65032 19.9243ZM27.6191 22.3743C26.7056 23.3939 25.3808 24.0604 23.8901 24.1252C24.0997 23.8778 24.2996 23.6219 24.4893 23.3582L24.4866 23.3502C24.064 22.1001 23.4118 20.9559 22.58 19.9678C22.88 19.9412 23.2346 19.9243 23.6505 19.9243C25.4154 19.9243 26.9246 20.9345 27.6191 22.3743ZM14.4002 14.4453C14.4565 14.453 14.5131 14.4597 14.5699 14.4655C14.7467 14.4835 14.9261 14.4928 15.1077 14.4928C15.2381 14.4928 15.3675 14.488 15.4955 14.4786C18.2043 14.2801 20.3404 12.0195 20.3404 9.26005C20.3404 6.37011 17.9976 4.02734 15.1077 4.02734C12.2177 4.02734 9.87494 6.37011 9.87494 9.26005C9.87494 11.9101 11.8448 14.1 14.4002 14.4453ZM22.4414 23.0591C20.5295 25.2636 17.7119 26.6536 14.5697 26.6536C11.4276 26.6536 8.6102 25.2637 6.69831 23.0594C8.07572 20.0891 11.0845 18.0319 14.5699 18.0319C18.0552 18.0319 21.0639 20.089 22.4414 23.0591ZM15.1077 12.6989C17.0069 12.6989 18.5465 11.1593 18.5465 9.26005C18.5465 7.36082 17.0069 5.82119 15.1077 5.82119C13.2084 5.82119 11.6688 7.36082 11.6688 9.26005C11.6688 11.1593 13.2084 12.6989 15.1077 12.6989ZM24.6792 13.9699C24.6792 14.6043 24.1649 15.1186 23.5305 15.1186C22.8961 15.1186 22.3818 14.6043 22.3818 13.9699C22.3818 13.3355 22.8961 12.8212 23.5305 12.8212C24.1649 12.8212 24.6792 13.3355 24.6792 13.9699ZM26.4731 13.9699C26.4731 15.595 25.1556 16.9125 23.5305 16.9125C21.9054 16.9125 20.5879 15.595 20.5879 13.9699C20.5879 12.3448 21.9054 11.0273 23.5305 11.0273C25.1556 11.0273 26.4731 12.3448 26.4731 13.9699ZM4.62164 13.9699C4.62164 14.6043 5.13594 15.1186 5.77036 15.1186C6.40478 15.1186 6.91908 14.6043 6.91908 13.9699C6.91908 13.3355 6.40478 12.8212 5.77036 12.8212C5.13594 12.8212 4.62164 13.3355 4.62164 13.9699ZM2.82779 13.9699C2.82779 15.595 4.14522 16.9125 5.77036 16.9125C7.39549 16.9125 8.71293 15.595 8.71293 13.9699C8.71293 12.3448 7.39549 11.0273 5.77036 11.0273C4.14522 11.0273 2.82779 12.3448 2.82779 13.9699Z" fill="url(#paint0_linear_3561_43340)"/>
</g>
<defs>
<linearGradient id="paint0_linear_3561_43340" x1="-0.351563" y1="3.74985" x2="31.1972" y2="5.94253" gradientUnits="userSpaceOnUse">
<stop stop-color="#2091F6"/>
<stop offset="1" stop-color="#21B568"/>
</linearGradient>
<clipPath id="clip0_3561_43340">
<rect width="30" height="30" fill="white" transform="translate(0.078125 0.902344)"/>
</clipPath>
</defs>
</svg>
