<svg width="540" height="600" viewBox="0 0 540 600" fill="none" xmlns="http://www.w3.org/2000/svg">
<g clip-path="url(#clip0_1848_4043)">
<g filter="url(#filter0_f_1848_4043)">
<ellipse cx="270.5" cy="300" rx="242" ry="138.5" transform="rotate(90 270.5 300)" fill="url(#paint0_radial_1848_4043)" fill-opacity="0.6"/>
</g>
<path d="M154 197C154 185.799 154 180.198 151.82 175.92C149.903 172.157 146.843 169.097 143.08 167.18C138.802 165 133.201 165 122 165H116C104.799 165 99.1984 165 94.9202 167.18C91.1569 169.097 88.0973 172.157 86.1799 175.92C84 180.198 84 185.799 84 197V203C84 214.201 84 219.802 86.1799 224.08C88.0973 227.843 91.1569 230.903 94.9202 232.82C99.1984 235 104.799 235 116 235H122C133.201 235 138.802 235 143.08 232.82C146.843 230.903 149.903 227.843 151.82 224.08C154 219.802 154 214.201 154 203V197Z" fill="url(#paint1_linear_1848_4043)" fill-opacity="0.3" style="mix-blend-mode:screen"/>
<path d="M154 197C154 185.799 154 180.198 151.82 175.92C149.903 172.157 146.843 169.097 143.08 167.18C138.802 165 133.201 165 122 165H116C104.799 165 99.1984 165 94.9202 167.18C91.1569 169.097 88.0973 172.157 86.1799 175.92C84 180.198 84 185.799 84 197V203C84 214.201 84 219.802 86.1799 224.08C88.0973 227.843 91.1569 230.903 94.9202 232.82C99.1984 235 104.799 235 116 235H122C133.201 235 138.802 235 143.08 232.82C146.843 230.903 149.903 227.843 151.82 224.08C154 219.802 154 214.201 154 203V197Z" fill="url(#paint2_linear_1848_4043)" fill-opacity="0.4" style="mix-blend-mode:screen"/>
<path d="M122 165.5H116C110.391 165.5 106.214 165.5 102.904 165.771C99.807 166.024 97.5072 166.511 95.5371 167.435L95.1475 167.625C91.5928 169.436 88.6818 172.293 86.8037 175.806L86.625 176.147C85.5771 178.204 85.0405 180.601 84.7705 183.904C84.5001 187.214 84.5 191.391 84.5 197V203C84.5 208.609 84.5001 212.786 84.7705 216.096C85.0236 219.193 85.5112 221.493 86.4346 223.463L86.625 223.853C88.4362 227.407 91.2929 230.318 94.8057 232.196L95.1475 232.375C97.2042 233.423 99.6006 233.96 102.904 234.229C106.214 234.5 110.391 234.5 116 234.5H122C127.609 234.5 131.786 234.5 135.096 234.229C138.193 233.976 140.493 233.489 142.463 232.565L142.853 232.375C146.407 230.564 149.318 227.707 151.196 224.194L151.375 223.853C152.423 221.796 152.96 219.399 153.229 216.096C153.5 212.786 153.5 208.609 153.5 203V197L153.496 193.053C153.483 189.357 153.432 186.387 153.229 183.904C152.976 180.807 152.489 178.507 151.565 176.537L151.375 176.147C149.564 172.593 146.707 169.682 143.194 167.804L142.853 167.625C140.796 166.577 138.399 166.04 135.096 165.771C131.786 165.5 127.609 165.5 122 165.5Z" stroke="url(#paint3_linear_1848_4043)" stroke-opacity="0.5" style="mix-blend-mode:screen"/>
<path d="M116.367 203.289C114.235 205.142 113.03 207.505 113.03 209.643C113.03 210.289 113.161 210.914 113.472 211.457H103.859C102.149 211.457 101.5 210.741 101.5 209.474C101.5 206.008 105.194 201.79 110.91 201.79C113.039 201.79 114.887 202.375 116.367 203.289ZM115.411 194.898C115.411 197.678 113.343 199.847 110.92 199.847C108.489 199.847 106.422 197.678 106.422 194.919C106.422 192.193 108.505 190.075 110.92 190.075C113.328 190.075 115.411 192.149 115.411 194.898Z" fill="#7DAFDB" fill-opacity="0.7"/>
<path d="M125.7 199.556C128.498 199.556 130.859 197.077 130.859 193.872C130.859 190.729 128.48 188.333 125.7 188.333C122.919 188.333 120.542 190.771 120.542 193.896C120.542 197.077 122.904 199.556 125.7 199.556ZM117.636 211.455H133.755C135.729 211.455 136.5 210.826 136.5 209.643C136.5 206.352 132.327 201.827 125.689 201.827C119.064 201.827 114.889 206.352 114.889 209.643C114.889 210.826 115.662 211.455 117.636 211.455Z" fill="#7DAFDB" fill-opacity="0.7"/>
<path d="M154 297C154 285.799 154 280.198 151.82 275.92C149.903 272.157 146.843 269.097 143.08 267.18C138.802 265 133.201 265 122 265H116C104.799 265 99.1984 265 94.9202 267.18C91.1569 269.097 88.0973 272.157 86.1799 275.92C84 280.198 84 285.799 84 297V303C84 314.201 84 319.802 86.1799 324.08C88.0973 327.843 91.1569 330.903 94.9202 332.82C99.1984 335 104.799 335 116 335H122C133.201 335 138.802 335 143.08 332.82C146.843 330.903 149.903 327.843 151.82 324.08C154 319.802 154 314.201 154 303V297Z" fill="url(#paint4_linear_1848_4043)" fill-opacity="0.3" style="mix-blend-mode:screen"/>
<path d="M154 297C154 285.799 154 280.198 151.82 275.92C149.903 272.157 146.843 269.097 143.08 267.18C138.802 265 133.201 265 122 265H116C104.799 265 99.1984 265 94.9202 267.18C91.1569 269.097 88.0973 272.157 86.1799 275.92C84 280.198 84 285.799 84 297V303C84 314.201 84 319.802 86.1799 324.08C88.0973 327.843 91.1569 330.903 94.9202 332.82C99.1984 335 104.799 335 116 335H122C133.201 335 138.802 335 143.08 332.82C146.843 330.903 149.903 327.843 151.82 324.08C154 319.802 154 314.201 154 303V297Z" fill="url(#paint5_linear_1848_4043)" fill-opacity="0.4" style="mix-blend-mode:screen"/>
<path d="M122 265.5H116C110.391 265.5 106.214 265.5 102.904 265.771C99.807 266.024 97.5072 266.511 95.5371 267.435L95.1475 267.625C91.5928 269.436 88.6818 272.293 86.8037 275.806L86.625 276.147C85.5771 278.204 85.0405 280.601 84.7705 283.904C84.5001 287.214 84.5 291.391 84.5 297V303C84.5 308.609 84.5001 312.786 84.7705 316.096C85.0236 319.193 85.5112 321.493 86.4346 323.463L86.625 323.853C88.4362 327.407 91.2929 330.318 94.8057 332.196L95.1475 332.375C97.2042 333.423 99.6006 333.96 102.904 334.229C106.214 334.5 110.391 334.5 116 334.5H122C127.609 334.5 131.786 334.5 135.096 334.229C138.193 333.976 140.493 333.489 142.463 332.565L142.853 332.375C146.407 330.564 149.318 327.707 151.196 324.194L151.375 323.853C152.423 321.796 152.96 319.399 153.229 316.096C153.5 312.786 153.5 308.609 153.5 303V297L153.496 293.053C153.483 289.357 153.432 286.387 153.229 283.904C152.976 280.807 152.489 278.507 151.565 276.537L151.375 276.147C149.564 272.593 146.707 269.682 143.194 267.804L142.853 267.625C140.796 266.577 138.399 266.04 135.096 265.771C131.786 265.5 127.609 265.5 122 265.5Z" stroke="url(#paint6_linear_1848_4043)" stroke-opacity="0.5" style="mix-blend-mode:screen"/>
<path d="M116.367 303.289C114.235 305.142 113.03 307.505 113.03 309.643C113.03 310.289 113.161 310.914 113.472 311.457H103.859C102.149 311.457 101.5 310.741 101.5 309.474C101.5 306.008 105.194 301.79 110.91 301.79C113.039 301.79 114.887 302.375 116.367 303.289ZM115.411 294.898C115.411 297.678 113.343 299.847 110.92 299.847C108.489 299.847 106.422 297.678 106.422 294.919C106.422 292.193 108.505 290.075 110.92 290.075C113.328 290.075 115.411 292.149 115.411 294.898Z" fill="#7DAFDB" fill-opacity="0.7"/>
<path d="M125.7 299.556C128.498 299.556 130.859 297.077 130.859 293.872C130.859 290.729 128.48 288.333 125.7 288.333C122.919 288.333 120.542 290.771 120.542 293.896C120.542 297.077 122.904 299.556 125.7 299.556ZM117.636 311.455H133.755C135.729 311.455 136.5 310.826 136.5 309.643C136.5 306.352 132.327 301.827 125.689 301.827C119.064 301.827 114.889 306.352 114.889 309.643C114.889 310.826 115.662 311.455 117.636 311.455Z" fill="#7DAFDB" fill-opacity="0.7"/>
<path d="M154 397C154 385.799 154 380.198 151.82 375.92C149.903 372.157 146.843 369.097 143.08 367.18C138.802 365 133.201 365 122 365H116C104.799 365 99.1984 365 94.9202 367.18C91.1569 369.097 88.0973 372.157 86.1799 375.92C84 380.198 84 385.799 84 397V403C84 414.201 84 419.802 86.1799 424.08C88.0973 427.843 91.1569 430.903 94.9202 432.82C99.1984 435 104.799 435 116 435H122C133.201 435 138.802 435 143.08 432.82C146.843 430.903 149.903 427.843 151.82 424.08C154 419.802 154 414.201 154 403V397Z" fill="url(#paint7_linear_1848_4043)" fill-opacity="0.3" style="mix-blend-mode:screen"/>
<path d="M154 397C154 385.799 154 380.198 151.82 375.92C149.903 372.157 146.843 369.097 143.08 367.18C138.802 365 133.201 365 122 365H116C104.799 365 99.1984 365 94.9202 367.18C91.1569 369.097 88.0973 372.157 86.1799 375.92C84 380.198 84 385.799 84 397V403C84 414.201 84 419.802 86.1799 424.08C88.0973 427.843 91.1569 430.903 94.9202 432.82C99.1984 435 104.799 435 116 435H122C133.201 435 138.802 435 143.08 432.82C146.843 430.903 149.903 427.843 151.82 424.08C154 419.802 154 414.201 154 403V397Z" fill="url(#paint8_linear_1848_4043)" fill-opacity="0.4" style="mix-blend-mode:screen"/>
<path d="M122 365.5H116C110.391 365.5 106.214 365.5 102.904 365.771C99.807 366.024 97.5072 366.511 95.5371 367.435L95.1475 367.625C91.5928 369.436 88.6818 372.293 86.8037 375.806L86.625 376.147C85.5771 378.204 85.0405 380.601 84.7705 383.904C84.5001 387.214 84.5 391.391 84.5 397V403C84.5 408.609 84.5001 412.786 84.7705 416.096C85.0236 419.193 85.5112 421.493 86.4346 423.463L86.625 423.853C88.4362 427.407 91.2929 430.318 94.8057 432.196L95.1475 432.375C97.2042 433.423 99.6006 433.96 102.904 434.229C106.214 434.5 110.391 434.5 116 434.5H122C127.609 434.5 131.786 434.5 135.096 434.229C138.193 433.976 140.493 433.489 142.463 432.565L142.853 432.375C146.407 430.564 149.318 427.707 151.196 424.194L151.375 423.853C152.423 421.796 152.96 419.399 153.229 416.096C153.5 412.786 153.5 408.609 153.5 403V397L153.496 393.053C153.483 389.357 153.432 386.387 153.229 383.904C152.976 380.807 152.489 378.507 151.565 376.537L151.375 376.147C149.564 372.593 146.707 369.682 143.194 367.804L142.853 367.625C140.796 366.577 138.399 366.04 135.096 365.771C131.786 365.5 127.609 365.5 122 365.5Z" stroke="url(#paint9_linear_1848_4043)" stroke-opacity="0.5" style="mix-blend-mode:screen"/>
<path d="M116.367 403.289C114.235 405.142 113.03 407.505 113.03 409.643C113.03 410.289 113.161 410.914 113.472 411.457H103.859C102.149 411.457 101.5 410.741 101.5 409.474C101.5 406.008 105.194 401.79 110.91 401.79C113.039 401.79 114.887 402.375 116.367 403.289ZM115.411 394.898C115.411 397.678 113.343 399.847 110.92 399.847C108.489 399.847 106.422 397.678 106.422 394.919C106.422 392.193 108.505 390.075 110.92 390.075C113.328 390.075 115.411 392.149 115.411 394.898Z" fill="#7DAFDB" fill-opacity="0.7"/>
<path d="M125.7 399.556C128.498 399.556 130.859 397.077 130.859 393.872C130.859 390.729 128.48 388.333 125.7 388.333C122.919 388.333 120.542 390.771 120.542 393.896C120.542 397.077 122.904 399.556 125.7 399.556ZM117.636 411.455H133.755C135.729 411.455 136.5 410.826 136.5 409.643C136.5 406.352 132.327 401.827 125.689 401.827C119.064 401.827 114.889 406.352 114.889 409.643C114.889 410.826 115.662 411.455 117.636 411.455Z" fill="#7DAFDB" fill-opacity="0.7"/>
<path d="M154.5 300L207 300" stroke="url(#paint10_linear_1848_4043)" stroke-width="2" stroke-linecap="square" stroke-linejoin="round"/>
<path d="M155 402L206 402" stroke="url(#paint11_linear_1848_4043)" stroke-width="2" stroke-linecap="square" stroke-linejoin="round"/>
<path d="M155 201L206 201" stroke="url(#paint12_linear_1848_4043)" stroke-width="2" stroke-linecap="square" stroke-linejoin="round"/>
<path d="M155 201V201C167.426 201 177.5 211.074 177.5 223.5V270C177.5 286.292 190.708 299.5 207 299.5V299.5" stroke="url(#paint13_linear_1848_4043)" stroke-width="2" stroke-linecap="square" stroke-linejoin="round"/>
<path d="M155 402V402C167.426 402 177.5 391.926 177.5 379.5V329.5C177.5 313.208 190.708 300 207 300V300" stroke="url(#paint14_linear_1848_4043)" stroke-width="2" stroke-linecap="square" stroke-linejoin="round"/>
<rect width="250" height="70" rx="20" transform="matrix(-1 0 0 1 456 165)" fill="url(#paint15_linear_1848_4043)" fill-opacity="0.6"/>
<rect width="250" height="70" rx="20" transform="matrix(-1 0 0 1 456 165)" fill="url(#paint16_linear_1848_4043)" fill-opacity="0.4"/>
<rect x="-0.5" y="0.5" width="249" height="69" rx="19.5" transform="matrix(-1 0 0 1 455 165)" stroke="url(#paint17_linear_1848_4043)" stroke-opacity="0.7"/>
<rect width="30" height="30" rx="8.33333" transform="matrix(-1 0 0 1 436 185)" fill="url(#paint18_linear_1848_4043)" fill-opacity="0.2" style="mix-blend-mode:screen"/>
<path fill-rule="evenodd" clip-rule="evenodd" d="M417.012 196.744C417.012 198.533 418.265 200.028 419.942 200.4V201.14L418.64 202.442L419.942 203.744L418.64 205.047L420.593 207L421.895 205.698V200.312C423.406 199.83 424.5 198.415 424.5 196.744C424.5 194.676 422.824 193 420.756 193C418.688 193 417.012 194.676 417.012 196.744ZM419.616 196.093C419.616 196.722 420.126 197.233 420.756 197.233C421.385 197.233 421.895 196.722 421.895 196.093C421.895 195.464 421.385 194.953 420.756 194.953C420.126 194.953 419.616 195.464 419.616 196.093Z" fill="#7DAFDB" fill-opacity="0.7"/>
<rect width="30" height="30" rx="8.33333" transform="matrix(-1 0 0 1 396 185)" fill="url(#paint19_linear_1848_4043)" fill-opacity="0.2" style="mix-blend-mode:screen"/>
<path fill-rule="evenodd" clip-rule="evenodd" d="M386.6 193C387.373 193 388 193.627 388 194.4V198.6C388 198.987 387.687 199.3 387.3 199.3H374.7C374.313 199.3 374 198.987 374 198.6V194.4C374 193.627 374.627 193 375.4 193H386.6ZM376.667 196.333C376.667 197.07 377.264 197.667 378 197.667C378.736 197.667 379.333 197.07 379.333 196.333C379.333 195.597 378.736 195 378 195C377.264 195 376.667 195.597 376.667 196.333ZM384 195C384 194.632 383.702 194.333 383.333 194.333C382.965 194.333 382.667 194.632 382.667 195V197C382.667 197.368 382.965 197.667 383.333 197.667C383.702 197.667 384 197.368 384 197V195ZM385.333 194.333C385.702 194.333 386 194.632 386 195V197C386 197.368 385.702 197.667 385.333 197.667C384.965 197.667 384.667 197.368 384.667 197V195C384.667 194.632 384.965 194.333 385.333 194.333ZM382 195C382 194.632 381.702 194.333 381.333 194.333C380.965 194.333 380.667 194.632 380.667 195V197C380.667 197.368 380.965 197.667 381.333 197.667C381.702 197.667 382 197.368 382 197V195ZM387.3 200.7C387.687 200.7 388 201.013 388 201.4V205.6C388 206.373 387.373 207 386.6 207H375.4C374.627 207 374 206.373 374 205.6V201.4C374 201.013 374.313 200.7 374.7 200.7H387.3ZM378 204.7C377.264 204.7 376.667 204.103 376.667 203.367C376.667 202.63 377.264 202.033 378 202.033C378.736 202.033 379.333 202.63 379.333 203.367C379.333 204.103 378.736 204.7 378 204.7ZM381.333 202.033C381.702 202.033 382 202.332 382 202.7V204.7C382 205.068 381.702 205.367 381.333 205.367C380.965 205.367 380.667 205.068 380.667 204.7V202.7C380.667 202.332 380.965 202.033 381.333 202.033ZM386 202.7C386 202.332 385.702 202.033 385.333 202.033C384.965 202.033 384.667 202.332 384.667 202.7V204.7C384.667 205.068 384.965 205.367 385.333 205.367C385.702 205.367 386 205.068 386 204.7V202.7ZM383.333 202.033C383.702 202.033 384 202.332 384 202.7V204.7C384 205.068 383.702 205.367 383.333 205.367C382.965 205.367 382.667 205.068 382.667 204.7V202.7C382.667 202.332 382.965 202.033 383.333 202.033Z" fill="#7DAFDB" fill-opacity="0.7"/>
<path fill-rule="evenodd" clip-rule="evenodd" d="M231 192.024C231 189.139 233.339 186.8 236.224 186.8H253.836C256.721 186.8 259.06 189.139 259.06 192.024L259.06 192.919C260.131 192.919 261 193.788 261 194.86C261 195.931 260.131 196.8 259.06 196.8V200.83C260.131 200.83 261 201.698 261 202.77C261 203.842 260.131 204.71 259.06 204.71L259.06 205.606C259.06 208.34 256.959 210.584 254.283 210.811L254.284 210.83C254.284 212.149 253.214 213.218 251.896 213.218C250.577 213.218 249.507 212.149 249.507 210.83V210.83H240.552V210.83C240.552 212.149 239.483 213.218 238.164 213.218C236.845 213.218 235.776 212.149 235.776 210.83L235.776 210.811C233.101 210.584 231 208.34 231 205.606V192.024ZM248.313 205.457C251.94 205.457 254.881 202.516 254.881 198.889C254.881 195.262 251.94 192.322 248.313 192.322C244.686 192.322 241.746 195.262 241.746 198.889C241.746 202.516 244.686 205.457 248.313 205.457ZM235.328 195.606C235.328 195.029 235.796 194.561 236.373 194.561C236.95 194.561 237.418 195.029 237.418 195.606V202.173C237.418 202.75 236.95 203.218 236.373 203.218C235.796 203.218 235.328 202.75 235.328 202.173V195.606ZM248.313 203.218C250.704 203.218 252.642 201.28 252.642 198.889C252.642 196.499 250.704 194.561 248.313 194.561C245.923 194.561 243.985 196.499 243.985 198.889C243.985 201.28 245.923 203.218 248.313 203.218Z" fill="#7DAFDB" fill-opacity="0.7"/>
<rect width="250" height="70" rx="20" transform="matrix(-1 0 0 1 456 265)" fill="url(#paint20_linear_1848_4043)" fill-opacity="0.6"/>
<rect width="250" height="70" rx="20" transform="matrix(-1 0 0 1 456 265)" fill="url(#paint21_linear_1848_4043)" fill-opacity="0.4"/>
<rect x="-0.5" y="0.5" width="249" height="69" rx="19.5" transform="matrix(-1 0 0 1 455 265)" stroke="url(#paint22_linear_1848_4043)" stroke-opacity="0.7"/>
<rect width="30" height="30" rx="8.33333" transform="matrix(-1 0 0 1 436 285)" fill="url(#paint23_linear_1848_4043)" fill-opacity="0.2" style="mix-blend-mode:screen"/>
<path fill-rule="evenodd" clip-rule="evenodd" d="M417.012 296.744C417.012 298.533 418.265 300.028 419.942 300.4V301.14L418.64 302.442L419.942 303.744L418.64 305.047L420.593 307L421.895 305.698V300.312C423.406 299.83 424.5 298.415 424.5 296.744C424.5 294.676 422.824 293 420.756 293C418.688 293 417.012 294.676 417.012 296.744ZM419.616 296.093C419.616 296.722 420.126 297.233 420.756 297.233C421.385 297.233 421.895 296.722 421.895 296.093C421.895 295.464 421.385 294.953 420.756 294.953C420.126 294.953 419.616 295.464 419.616 296.093Z" fill="#7DAFDB" fill-opacity="0.7"/>
<rect width="30" height="30" rx="8.33333" transform="matrix(-1 0 0 1 396 285)" fill="url(#paint24_linear_1848_4043)" fill-opacity="0.2" style="mix-blend-mode:screen"/>
<path fill-rule="evenodd" clip-rule="evenodd" d="M386.6 293C387.373 293 388 293.627 388 294.4V298.6C388 298.987 387.687 299.3 387.3 299.3H374.7C374.313 299.3 374 298.987 374 298.6V294.4C374 293.627 374.627 293 375.4 293H386.6ZM376.667 296.333C376.667 297.07 377.264 297.667 378 297.667C378.736 297.667 379.333 297.07 379.333 296.333C379.333 295.597 378.736 295 378 295C377.264 295 376.667 295.597 376.667 296.333ZM384 295C384 294.632 383.702 294.333 383.333 294.333C382.965 294.333 382.667 294.632 382.667 295V297C382.667 297.368 382.965 297.667 383.333 297.667C383.702 297.667 384 297.368 384 297V295ZM385.333 294.333C385.702 294.333 386 294.632 386 295V297C386 297.368 385.702 297.667 385.333 297.667C384.965 297.667 384.667 297.368 384.667 297V295C384.667 294.632 384.965 294.333 385.333 294.333ZM382 295C382 294.632 381.702 294.333 381.333 294.333C380.965 294.333 380.667 294.632 380.667 295V297C380.667 297.368 380.965 297.667 381.333 297.667C381.702 297.667 382 297.368 382 297V295ZM387.3 300.7C387.687 300.7 388 301.013 388 301.4V305.6C388 306.373 387.373 307 386.6 307H375.4C374.627 307 374 306.373 374 305.6V301.4C374 301.013 374.313 300.7 374.7 300.7H387.3ZM378 304.7C377.264 304.7 376.667 304.103 376.667 303.367C376.667 302.63 377.264 302.033 378 302.033C378.736 302.033 379.333 302.63 379.333 303.367C379.333 304.103 378.736 304.7 378 304.7ZM381.333 302.033C381.702 302.033 382 302.332 382 302.7V304.7C382 305.068 381.702 305.367 381.333 305.367C380.965 305.367 380.667 305.068 380.667 304.7V302.7C380.667 302.332 380.965 302.033 381.333 302.033ZM386 302.7C386 302.332 385.702 302.033 385.333 302.033C384.965 302.033 384.667 302.332 384.667 302.7V304.7C384.667 305.068 384.965 305.367 385.333 305.367C385.702 305.367 386 305.068 386 304.7V302.7ZM383.333 302.033C383.702 302.033 384 302.332 384 302.7V304.7C384 305.068 383.702 305.367 383.333 305.367C382.965 305.367 382.667 305.068 382.667 304.7V302.7C382.667 302.332 382.965 302.033 383.333 302.033Z" fill="#7DAFDB" fill-opacity="0.7"/>
<path fill-rule="evenodd" clip-rule="evenodd" d="M231 292.024C231 289.139 233.339 286.8 236.224 286.8H253.836C256.721 286.8 259.06 289.139 259.06 292.024L259.06 292.919C260.131 292.919 261 293.788 261 294.86C261 295.931 260.131 296.8 259.06 296.8V300.83C260.131 300.83 261 301.698 261 302.77C261 303.842 260.131 304.71 259.06 304.71L259.06 305.606C259.06 308.34 256.959 310.584 254.283 310.811L254.284 310.83C254.284 312.149 253.214 313.218 251.896 313.218C250.577 313.218 249.507 312.149 249.507 310.83V310.83H240.552V310.83C240.552 312.149 239.483 313.218 238.164 313.218C236.845 313.218 235.776 312.149 235.776 310.83L235.776 310.811C233.101 310.584 231 308.34 231 305.606V292.024ZM248.313 305.457C251.94 305.457 254.881 302.516 254.881 298.889C254.881 295.262 251.94 292.322 248.313 292.322C244.686 292.322 241.746 295.262 241.746 298.889C241.746 302.516 244.686 305.457 248.313 305.457ZM235.328 295.606C235.328 295.029 235.796 294.561 236.373 294.561C236.95 294.561 237.418 295.029 237.418 295.606V302.173C237.418 302.75 236.95 303.218 236.373 303.218C235.796 303.218 235.328 302.75 235.328 302.173V295.606ZM248.313 303.218C250.704 303.218 252.642 301.28 252.642 298.889C252.642 296.499 250.704 294.561 248.313 294.561C245.923 294.561 243.985 296.499 243.985 298.889C243.985 301.28 245.923 303.218 248.313 303.218Z" fill="#7DAFDB" fill-opacity="0.7"/>
<rect width="250" height="70" rx="20" transform="matrix(-1 0 0 1 456 365)" fill="url(#paint25_linear_1848_4043)" fill-opacity="0.6"/>
<rect width="250" height="70" rx="20" transform="matrix(-1 0 0 1 456 365)" fill="url(#paint26_linear_1848_4043)" fill-opacity="0.4"/>
<rect x="-0.5" y="0.5" width="249" height="69" rx="19.5" transform="matrix(-1 0 0 1 455 365)" stroke="url(#paint27_linear_1848_4043)" stroke-opacity="0.7"/>
<rect width="30" height="30" rx="8.33333" transform="matrix(-1 0 0 1 436 385)" fill="url(#paint28_linear_1848_4043)" fill-opacity="0.2" style="mix-blend-mode:screen"/>
<path fill-rule="evenodd" clip-rule="evenodd" d="M417.012 396.744C417.012 398.533 418.265 400.028 419.942 400.4V401.14L418.64 402.442L419.942 403.744L418.64 405.047L420.593 407L421.895 405.698V400.312C423.406 399.83 424.5 398.415 424.5 396.744C424.5 394.676 422.824 393 420.756 393C418.688 393 417.012 394.676 417.012 396.744ZM419.616 396.093C419.616 396.722 420.126 397.233 420.756 397.233C421.385 397.233 421.895 396.722 421.895 396.093C421.895 395.464 421.385 394.953 420.756 394.953C420.126 394.953 419.616 395.464 419.616 396.093Z" fill="#7DAFDB" fill-opacity="0.7"/>
<rect width="30" height="30" rx="8.33333" transform="matrix(-1 0 0 1 396 385)" fill="url(#paint29_linear_1848_4043)" fill-opacity="0.2" style="mix-blend-mode:screen"/>
<path fill-rule="evenodd" clip-rule="evenodd" d="M386.6 393C387.373 393 388 393.627 388 394.4V398.6C388 398.987 387.687 399.3 387.3 399.3H374.7C374.313 399.3 374 398.987 374 398.6V394.4C374 393.627 374.627 393 375.4 393H386.6ZM376.667 396.333C376.667 397.07 377.264 397.667 378 397.667C378.736 397.667 379.333 397.07 379.333 396.333C379.333 395.597 378.736 395 378 395C377.264 395 376.667 395.597 376.667 396.333ZM384 395C384 394.632 383.702 394.333 383.333 394.333C382.965 394.333 382.667 394.632 382.667 395V397C382.667 397.368 382.965 397.667 383.333 397.667C383.702 397.667 384 397.368 384 397V395ZM385.333 394.333C385.702 394.333 386 394.632 386 395V397C386 397.368 385.702 397.667 385.333 397.667C384.965 397.667 384.667 397.368 384.667 397V395C384.667 394.632 384.965 394.333 385.333 394.333ZM382 395C382 394.632 381.702 394.333 381.333 394.333C380.965 394.333 380.667 394.632 380.667 395V397C380.667 397.368 380.965 397.667 381.333 397.667C381.702 397.667 382 397.368 382 397V395ZM387.3 400.7C387.687 400.7 388 401.013 388 401.4V405.6C388 406.373 387.373 407 386.6 407H375.4C374.627 407 374 406.373 374 405.6V401.4C374 401.013 374.313 400.7 374.7 400.7H387.3ZM378 404.7C377.264 404.7 376.667 404.103 376.667 403.367C376.667 402.63 377.264 402.033 378 402.033C378.736 402.033 379.333 402.63 379.333 403.367C379.333 404.103 378.736 404.7 378 404.7ZM381.333 402.033C381.702 402.033 382 402.332 382 402.7V404.7C382 405.068 381.702 405.367 381.333 405.367C380.965 405.367 380.667 405.068 380.667 404.7V402.7C380.667 402.332 380.965 402.033 381.333 402.033ZM386 402.7C386 402.332 385.702 402.033 385.333 402.033C384.965 402.033 384.667 402.332 384.667 402.7V404.7C384.667 405.068 384.965 405.367 385.333 405.367C385.702 405.367 386 405.068 386 404.7V402.7ZM383.333 402.033C383.702 402.033 384 402.332 384 402.7V404.7C384 405.068 383.702 405.367 383.333 405.367C382.965 405.367 382.667 405.068 382.667 404.7V402.7C382.667 402.332 382.965 402.033 383.333 402.033Z" fill="#7DAFDB" fill-opacity="0.7"/>
<path fill-rule="evenodd" clip-rule="evenodd" d="M231 392.024C231 389.139 233.339 386.8 236.224 386.8H253.836C256.721 386.8 259.06 389.139 259.06 392.024L259.06 392.919C260.131 392.919 261 393.788 261 394.86C261 395.931 260.131 396.8 259.06 396.8V400.83C260.131 400.83 261 401.698 261 402.77C261 403.842 260.131 404.71 259.06 404.71L259.06 405.606C259.06 408.34 256.959 410.584 254.283 410.811L254.284 410.83C254.284 412.149 253.214 413.218 251.896 413.218C250.577 413.218 249.507 412.149 249.507 410.83V410.83H240.552V410.83C240.552 412.149 239.483 413.218 238.164 413.218C236.845 413.218 235.776 412.149 235.776 410.83L235.776 410.811C233.101 410.584 231 408.34 231 405.606V392.024ZM248.313 405.457C251.94 405.457 254.881 402.516 254.881 398.889C254.881 395.262 251.94 392.322 248.313 392.322C244.686 392.322 241.746 395.262 241.746 398.889C241.746 402.516 244.686 405.457 248.313 405.457ZM235.328 395.606C235.328 395.029 235.796 394.561 236.373 394.561C236.95 394.561 237.418 395.029 237.418 395.606V402.173C237.418 402.75 236.95 403.218 236.373 403.218C235.796 403.218 235.328 402.75 235.328 402.173V395.606ZM248.313 403.218C250.704 403.218 252.642 401.28 252.642 398.889C252.642 396.499 250.704 394.561 248.313 394.561C245.923 394.561 243.985 396.499 243.985 398.889C243.985 401.28 245.923 403.218 248.313 403.218Z" fill="#7DAFDB" fill-opacity="0.7"/>
</g>
<defs>
<filter id="filter0_f_1848_4043" x="28" y="-46" width="485" height="692" filterUnits="userSpaceOnUse" color-interpolation-filters="sRGB">
<feFlood flood-opacity="0" result="BackgroundImageFix"/>
<feBlend mode="normal" in="SourceGraphic" in2="BackgroundImageFix" result="shape"/>
<feGaussianBlur stdDeviation="52" result="effect1_foregroundBlur_1848_4043"/>
</filter>
<radialGradient id="paint0_radial_1848_4043" cx="0" cy="0" r="1" gradientUnits="userSpaceOnUse" gradientTransform="translate(270.5 300.208) rotate(-90) scale(213.686 220.688)">
<stop offset="0.0109635" stop-color="#0D6D75"/>
<stop offset="0.533542" stop-color="#1E6DB5" stop-opacity="0.45"/>
<stop offset="1" stop-color="#264E72" stop-opacity="0"/>
</radialGradient>
<linearGradient id="paint1_linear_1848_4043" x1="154" y1="174.101" x2="108.666" y2="214.762" gradientUnits="userSpaceOnUse">
<stop stop-color="#4D6EA9" stop-opacity="0.4"/>
<stop offset="1" stop-color="#0C1A38"/>
</linearGradient>
<linearGradient id="paint2_linear_1848_4043" x1="170.625" y1="165" x2="71.7907" y2="250.886" gradientUnits="userSpaceOnUse">
<stop stop-color="#060A1D" stop-opacity="0"/>
<stop offset="0.00423948" stop-color="#4797F8" stop-opacity="0.7"/>
<stop offset="1" stop-color="#060A1D" stop-opacity="0"/>
</linearGradient>
<linearGradient id="paint3_linear_1848_4043" x1="119" y1="165" x2="217.894" y2="198.643" gradientUnits="userSpaceOnUse">
<stop stop-color="#2D3454"/>
<stop offset="1" stop-color="#060A1D" stop-opacity="0"/>
</linearGradient>
<linearGradient id="paint4_linear_1848_4043" x1="154" y1="274.101" x2="108.666" y2="314.762" gradientUnits="userSpaceOnUse">
<stop stop-color="#4D6EA9" stop-opacity="0.4"/>
<stop offset="1" stop-color="#0C1A38"/>
</linearGradient>
<linearGradient id="paint5_linear_1848_4043" x1="170.625" y1="265" x2="71.7907" y2="350.886" gradientUnits="userSpaceOnUse">
<stop stop-color="#060A1D" stop-opacity="0"/>
<stop offset="0.00423948" stop-color="#4797F8" stop-opacity="0.7"/>
<stop offset="1" stop-color="#060A1D" stop-opacity="0"/>
</linearGradient>
<linearGradient id="paint6_linear_1848_4043" x1="119" y1="265" x2="217.894" y2="298.643" gradientUnits="userSpaceOnUse">
<stop stop-color="#2D3454"/>
<stop offset="1" stop-color="#060A1D" stop-opacity="0"/>
</linearGradient>
<linearGradient id="paint7_linear_1848_4043" x1="154" y1="374.101" x2="108.666" y2="414.762" gradientUnits="userSpaceOnUse">
<stop stop-color="#4D6EA9" stop-opacity="0.4"/>
<stop offset="1" stop-color="#0C1A38"/>
</linearGradient>
<linearGradient id="paint8_linear_1848_4043" x1="170.625" y1="365" x2="71.7907" y2="450.886" gradientUnits="userSpaceOnUse">
<stop stop-color="#060A1D" stop-opacity="0"/>
<stop offset="0.00423948" stop-color="#4797F8" stop-opacity="0.7"/>
<stop offset="1" stop-color="#060A1D" stop-opacity="0"/>
</linearGradient>
<linearGradient id="paint9_linear_1848_4043" x1="119" y1="365" x2="217.894" y2="398.643" gradientUnits="userSpaceOnUse">
<stop stop-color="#2D3454"/>
<stop offset="1" stop-color="#060A1D" stop-opacity="0"/>
</linearGradient>
<linearGradient id="paint10_linear_1848_4043" x1="155.478" y1="300.001" x2="207.981" y2="300.036" gradientUnits="userSpaceOnUse">
<stop stop-color="#274B74"/>
<stop offset="1" stop-color="#0F3451"/>
</linearGradient>
<linearGradient id="paint11_linear_1848_4043" x1="155.478" y1="402" x2="207.981" y2="402.036" gradientUnits="userSpaceOnUse">
<stop stop-color="#274B74"/>
<stop offset="1" stop-color="#0F3451"/>
</linearGradient>
<linearGradient id="paint12_linear_1848_4043" x1="154.478" y1="201" x2="206.981" y2="201.035" gradientUnits="userSpaceOnUse">
<stop stop-color="#274B74"/>
<stop offset="1" stop-color="#0F3451"/>
</linearGradient>
<linearGradient id="paint13_linear_1848_4043" x1="8360" y1="199.993" x2="8360" y2="301.394" gradientUnits="userSpaceOnUse">
<stop stop-color="#274B74"/>
<stop offset="1" stop-color="#0F3451"/>
</linearGradient>
<linearGradient id="paint14_linear_1848_4043" x1="8360" y1="403.043" x2="8360" y2="298.038" gradientUnits="userSpaceOnUse">
<stop stop-color="#274B74"/>
<stop offset="1" stop-color="#0F3451"/>
</linearGradient>
<linearGradient id="paint15_linear_1848_4043" x1="-3.20897e-05" y1="9.10054" x2="25.9436" y2="92.2064" gradientUnits="userSpaceOnUse">
<stop stop-color="#4D6EA9" stop-opacity="0.4"/>
<stop offset="1" stop-color="#0C1A38" stop-opacity="0"/>
</linearGradient>
<linearGradient id="paint16_linear_1848_4043" x1="-59.375" y1="3.57616e-07" x2="-1.10445" y2="180.845" gradientUnits="userSpaceOnUse">
<stop stop-color="#060A1D" stop-opacity="0"/>
<stop offset="0.00423948" stop-color="#4797F8" stop-opacity="0.7"/>
<stop offset="1" stop-color="#060A1D" stop-opacity="0"/>
</linearGradient>
<linearGradient id="paint17_linear_1848_4043" x1="125" y1="-3.8658e-05" x2="55.2775" y2="105.306" gradientUnits="userSpaceOnUse">
<stop stop-color="#346292"/>
<stop offset="1" stop-color="#1A2F54"/>
</linearGradient>
<linearGradient id="paint18_linear_1848_4043" x1="-3.85076e-06" y1="3.90023" x2="19.4288" y2="21.3265" gradientUnits="userSpaceOnUse">
<stop stop-color="#4D6EA9" stop-opacity="0.4"/>
<stop offset="1" stop-color="#0C1A38"/>
</linearGradient>
<linearGradient id="paint19_linear_1848_4043" x1="-3.85076e-06" y1="3.90023" x2="19.4288" y2="21.3265" gradientUnits="userSpaceOnUse">
<stop stop-color="#4D6EA9" stop-opacity="0.4"/>
<stop offset="1" stop-color="#0C1A38"/>
</linearGradient>
<linearGradient id="paint20_linear_1848_4043" x1="-3.20897e-05" y1="9.10054" x2="25.9436" y2="92.2064" gradientUnits="userSpaceOnUse">
<stop stop-color="#4D6EA9" stop-opacity="0.4"/>
<stop offset="1" stop-color="#0C1A38" stop-opacity="0"/>
</linearGradient>
<linearGradient id="paint21_linear_1848_4043" x1="-59.375" y1="3.57616e-07" x2="-1.10445" y2="180.845" gradientUnits="userSpaceOnUse">
<stop stop-color="#060A1D" stop-opacity="0"/>
<stop offset="0.00423948" stop-color="#4797F8" stop-opacity="0.7"/>
<stop offset="1" stop-color="#060A1D" stop-opacity="0"/>
</linearGradient>
<linearGradient id="paint22_linear_1848_4043" x1="125" y1="-3.8658e-05" x2="55.2775" y2="105.306" gradientUnits="userSpaceOnUse">
<stop stop-color="#346292"/>
<stop offset="1" stop-color="#1A2F54"/>
</linearGradient>
<linearGradient id="paint23_linear_1848_4043" x1="-3.85076e-06" y1="3.90023" x2="19.4288" y2="21.3265" gradientUnits="userSpaceOnUse">
<stop stop-color="#4D6EA9" stop-opacity="0.4"/>
<stop offset="1" stop-color="#0C1A38"/>
</linearGradient>
<linearGradient id="paint24_linear_1848_4043" x1="-3.85076e-06" y1="3.90023" x2="19.4288" y2="21.3265" gradientUnits="userSpaceOnUse">
<stop stop-color="#4D6EA9" stop-opacity="0.4"/>
<stop offset="1" stop-color="#0C1A38"/>
</linearGradient>
<linearGradient id="paint25_linear_1848_4043" x1="-3.20897e-05" y1="9.10054" x2="25.9436" y2="92.2064" gradientUnits="userSpaceOnUse">
<stop stop-color="#4D6EA9" stop-opacity="0.4"/>
<stop offset="1" stop-color="#0C1A38" stop-opacity="0"/>
</linearGradient>
<linearGradient id="paint26_linear_1848_4043" x1="-59.375" y1="3.57616e-07" x2="-1.10445" y2="180.845" gradientUnits="userSpaceOnUse">
<stop stop-color="#060A1D" stop-opacity="0"/>
<stop offset="0.00423948" stop-color="#4797F8" stop-opacity="0.7"/>
<stop offset="1" stop-color="#060A1D" stop-opacity="0"/>
</linearGradient>
<linearGradient id="paint27_linear_1848_4043" x1="125" y1="-3.8658e-05" x2="55.2775" y2="105.306" gradientUnits="userSpaceOnUse">
<stop stop-color="#346292"/>
<stop offset="1" stop-color="#1A2F54"/>
</linearGradient>
<linearGradient id="paint28_linear_1848_4043" x1="-3.85076e-06" y1="3.90023" x2="19.4288" y2="21.3265" gradientUnits="userSpaceOnUse">
<stop stop-color="#4D6EA9" stop-opacity="0.4"/>
<stop offset="1" stop-color="#0C1A38"/>
</linearGradient>
<linearGradient id="paint29_linear_1848_4043" x1="-3.85076e-06" y1="3.90023" x2="19.4288" y2="21.3265" gradientUnits="userSpaceOnUse">
<stop stop-color="#4D6EA9" stop-opacity="0.4"/>
<stop offset="1" stop-color="#0C1A38"/>
</linearGradient>
<clipPath id="clip0_1848_4043">
<path d="M0 9.99999C0 4.47714 4.47715 0 10 0H530C535.523 0 540 4.47715 540 10V590C540 595.523 535.523 600 530 600H9.99999C4.47715 600 0 595.523 0 590V9.99999Z" fill="white"/>
</clipPath>
</defs>
</svg>
