<svg width="15" height="12" viewBox="0 0 15 12" fill="none" xmlns="http://www.w3.org/2000/svg">
<path fill-rule="evenodd" clip-rule="evenodd" d="M15.0001 8.04582C14.3125 9.00191 13.1903 9.62451 11.9226 9.62451C10.6548 9.62451 9.53237 9.00167 8.84473 8.04526C9.27778 6.76107 10.4921 5.83635 11.9223 5.83635C13.3528 5.83635 14.5672 6.76134 15.0001 8.04582Z" fill="#D5DDE0"/>
<circle cx="11.9224" cy="3.67145" r="1.62356" fill="#D5DDE0"/>
<path fill-rule="evenodd" clip-rule="evenodd" d="M6.15541 8.04584C5.46773 9.00192 4.34553 9.62452 3.07791 9.62452C1.81004 9.62452 0.687643 9.00168 0 8.04528C0.433054 6.76109 1.64734 5.83636 3.07761 5.83636C4.50809 5.83636 5.72252 6.76136 6.15541 8.04584Z" fill="#D5DDE0"/>
<circle cx="3.07767" cy="3.67146" r="1.62356" fill="#D5DDE0"/>
<path fill-rule="evenodd" clip-rule="evenodd" d="M11.905 9.64894C10.8964 11.0513 9.25049 11.9645 7.39126 11.9645C5.53199 11.9645 3.88602 11.0512 2.87744 9.64885C3.51242 7.76505 5.29352 6.40848 7.39147 6.40848C9.04385 6.40848 10.4997 7.25 11.3538 8.52786C11.5729 8.85564 11.8732 9.57236 11.905 9.64894Z" fill="white"/>
<circle cx="7.39099" cy="3.23329" r="2.38123" fill="white"/>
</svg>
