<svg width="24" height="24" viewBox="0 0 24 24" fill="none" xmlns="http://www.w3.org/2000/svg">
<mask id="mask0_3405_140051" style="mask-type:alpha" maskUnits="userSpaceOnUse" x="2" y="4" width="17" height="17">
<path fill-rule="evenodd" clip-rule="evenodd" d="M10.2963 20.5927C14.8783 20.5927 18.5927 16.8783 18.5927 12.2963C18.5927 7.7144 14.8783 4 10.2963 4C5.7144 4 2 7.7144 2 12.2963C2 16.8783 5.7144 20.5927 10.2963 20.5927Z" fill="currentColor"/>
</mask>
<g mask="url(#mask0_3405_140051)">
<path d="M17.4074 19.4075C17.4074 23.3349 14.2236 26.5187 10.2962 26.5187C6.36883 26.5187 3.18506 23.3349 3.18506 19.4075C3.18506 15.4802 6.36883 12.2964 10.2962 12.2964C14.2236 12.2964 17.4074 15.4802 17.4074 19.4075Z" fill="currentColor"/>
<path d="M13.8519 7.55558C13.8519 9.51927 12.26 11.1112 10.2963 11.1112C8.33261 11.1112 6.74072 9.51927 6.74072 7.55558C6.74072 5.59189 8.33261 4 10.2963 4C12.26 4 13.8519 5.59189 13.8519 7.55558Z" fill="currentColor"/>
</g>
<mask id="mask1_3405_140051" style="mask-type:alpha" maskUnits="userSpaceOnUse" x="10" y="7" width="13" height="12">
<path fill-rule="evenodd" clip-rule="evenodd" d="M16.2965 18.6666C19.4466 18.6666 22.0002 16.113 22.0002 12.9629C22.0002 9.8128 19.4466 7.25916 16.2965 7.25916C13.1464 7.25916 10.5928 9.8128 10.5928 12.9629C10.5928 16.113 13.1464 18.6666 16.2965 18.6666Z" fill="currentColor"/>
</mask>
<g mask="url(#mask1_3405_140051)">
<path d="M21.1851 17.8519C21.1851 20.552 18.9962 22.7408 16.2961 22.7408C13.5961 22.7408 11.4072 20.552 11.4072 17.8519C11.4072 15.1519 13.5961 12.963 16.2961 12.963C18.9962 12.963 21.1851 15.1519 21.1851 17.8519Z" fill="currentColor"/>
<path d="M18.741 9.70361C18.741 11.0537 17.6465 12.1481 16.2965 12.1481C14.9465 12.1481 13.8521 11.0537 13.8521 9.70361C13.8521 8.35358 14.9465 7.25916 16.2965 7.25916C17.6465 7.25916 18.741 8.35358 18.741 9.70361Z" fill="currentColor"/>
</g>
</svg>
