<svg width="540" height="600" viewBox="0 0 540 600" fill="none" xmlns="http://www.w3.org/2000/svg">
<g clip-path="url(#clip0_2196_15981)">
<g filter="url(#filter0_f_2196_15981)">
<ellipse cx="270.5" cy="300" rx="242" ry="138.5" transform="rotate(90 270.5 300)" fill="url(#paint0_radial_2196_15981)" fill-opacity="0.6"/>
</g>
<rect width="144" height="144" rx="35" transform="matrix(1 0 0 -1 121 295)" fill="url(#paint1_linear_2196_15981)" fill-opacity="0.6"/>
<rect width="144" height="144" rx="35" transform="matrix(1 0 0 -1 121 295)" fill="url(#paint2_linear_2196_15981)" fill-opacity="0.4"/>
<rect x="0.5" y="-0.5" width="143" height="143" rx="34.5" transform="matrix(1 0 0 -1 121 294)" stroke="url(#paint3_linear_2196_15981)" stroke-opacity="0.7"/>
<path d="M187.735 229.579C183.47 233.284 181.059 238.011 181.059 242.287C181.059 243.579 181.322 244.828 181.944 245.914H162.719C159.297 245.914 158 244.483 158 241.948C158 235.017 165.389 226.581 176.82 226.581C181.077 226.581 184.774 227.751 187.735 229.579ZM185.821 212.796C185.821 218.356 181.686 222.695 176.841 222.695C171.979 222.695 167.844 218.356 167.844 212.838C167.844 207.387 172.009 203.15 176.841 203.15C181.656 203.15 185.821 207.298 185.821 212.796Z" fill="#A2CEF5" fill-opacity="0.7"/>
<path d="M206.399 222.111C211.996 222.111 216.719 217.154 216.719 210.745C216.719 204.459 211.961 199.667 206.399 199.667C200.837 199.667 196.084 204.542 196.084 210.791C196.084 217.154 200.807 222.111 206.399 222.111ZM190.272 245.91H222.51C226.457 245.91 228 244.653 228 242.287C228 235.705 219.655 226.653 206.378 226.653C193.127 226.653 184.777 235.705 184.777 242.287C184.777 244.653 186.325 245.91 190.272 245.91Z" fill="#A2CEF5" fill-opacity="0.7"/>
<rect width="96" height="96" rx="25" transform="matrix(1 0 0 -1 170 401)" fill="url(#paint4_linear_2196_15981)" fill-opacity="0.6"/>
<rect width="96" height="96" rx="25" transform="matrix(1 0 0 -1 170 401)" fill="url(#paint5_linear_2196_15981)" fill-opacity="0.4"/>
<rect x="0.5" y="-0.5" width="95" height="95" rx="24.5" transform="matrix(1 0 0 -1 170 400)" stroke="url(#paint6_linear_2196_15981)" stroke-opacity="0.7"/>
<path fill-rule="evenodd" clip-rule="evenodd" d="M209.453 346.023C209.453 349.855 212.14 353.06 215.733 353.856V355.442L212.942 358.233L215.733 361.023L212.942 363.814L217.128 368L219.919 365.209V353.668C223.156 352.635 225.5 349.603 225.5 346.023C225.5 341.592 221.908 338 217.477 338C213.046 338 209.453 341.592 209.453 346.023ZM215.035 344.628C215.035 345.977 216.128 347.07 217.477 347.07C218.825 347.07 219.919 345.977 219.919 344.628C219.919 343.279 218.825 342.186 217.477 342.186C216.128 342.186 215.035 343.279 215.035 344.628Z" fill="#A2CEF5" fill-opacity="0.7"/>
<path d="M371 255C371 269.001 371 276.002 368.275 281.35C365.878 286.054 362.054 289.878 357.35 292.275C352.002 295 345.001 295 331 295H315C300.999 295 293.998 295 288.65 292.275C283.946 289.878 280.122 286.054 277.725 281.35C275 276.002 275 269.001 275 255V239C275 224.999 275 217.998 277.725 212.65C280.122 207.946 283.946 204.122 288.65 201.725C293.998 199 300.999 199 315 199H331C345.001 199 352.002 199 357.35 201.725C362.054 204.122 365.878 207.946 368.275 212.65C371 217.998 371 224.999 371 239V255Z" fill="url(#paint7_linear_2196_15981)" fill-opacity="0.6"/>
<path d="M371 255C371 269.001 371 276.002 368.275 281.35C365.878 286.054 362.054 289.878 357.35 292.275C352.002 295 345.001 295 331 295H315C300.999 295 293.998 295 288.65 292.275C283.946 289.878 280.122 286.054 277.725 281.35C275 276.002 275 269.001 275 255V239C275 224.999 275 217.998 277.725 212.65C280.122 207.946 283.946 204.122 288.65 201.725C293.998 199 300.999 199 315 199H331C345.001 199 352.002 199 357.35 201.725C362.054 204.122 365.878 207.946 368.275 212.65C371 217.998 371 224.999 371 239V255Z" fill="url(#paint8_linear_2196_15981)" fill-opacity="0.4"/>
<path d="M331 294.5H315C307.991 294.5 302.765 294.5 298.621 294.161C294.742 293.844 291.85 293.233 289.368 292.069L288.877 291.83C284.411 289.555 280.754 285.966 278.395 281.553L278.17 281.123C276.849 278.531 276.177 275.517 275.839 271.379C275.5 267.235 275.5 262.009 275.5 255V239C275.5 231.991 275.5 226.765 275.839 222.621C276.156 218.742 276.767 215.85 277.931 213.368L278.17 212.877C280.445 208.411 284.034 204.754 288.447 202.395L288.877 202.17C291.469 200.849 294.483 200.177 298.621 199.839C302.765 199.5 307.991 199.5 315 199.5H331C338.009 199.5 343.235 199.5 347.379 199.839C351.258 200.156 354.15 200.767 356.632 201.931L357.123 202.17C361.589 204.445 365.246 208.034 367.605 212.447L367.83 212.877C369.151 215.469 369.823 218.483 370.161 222.621C370.5 226.765 370.5 231.991 370.5 239V255C370.5 262.009 370.5 267.235 370.161 271.379C369.844 275.258 369.233 278.15 368.069 280.632L367.83 281.123C365.555 285.589 361.966 289.246 357.553 291.605L357.123 291.83C354.531 293.151 351.517 293.823 347.379 294.161C343.235 294.5 338.009 294.5 331 294.5Z" stroke="url(#paint9_linear_2196_15981)" stroke-opacity="0.7"/>
<path fill-rule="evenodd" clip-rule="evenodd" d="M335 262C336.657 262 338 260.657 338 259V250C338 249.172 337.328 248.5 336.5 248.5H309.5C308.672 248.5 308 249.172 308 250V259C308 260.657 309.343 262 311 262H335ZM313.714 254.857C313.714 253.279 314.993 252 316.571 252C318.149 252 319.429 253.279 319.429 254.857C319.429 256.435 318.149 257.714 316.571 257.714C314.993 257.714 313.714 256.435 313.714 254.857ZM329.429 257.714C329.429 258.503 328.789 259.143 328 259.143C327.211 259.143 326.571 258.503 326.571 257.714V253.429C326.571 252.64 327.211 252 328 252C328.789 252 329.429 252.64 329.429 253.429V257.714ZM332.286 259.143C333.075 259.143 333.714 258.503 333.714 257.714V253.429C333.714 252.64 333.075 252 332.286 252C331.497 252 330.857 252.64 330.857 253.429V257.714C330.857 258.503 331.497 259.143 332.286 259.143ZM325.143 257.714C325.143 258.503 324.503 259.143 323.714 259.143C322.925 259.143 322.286 258.503 322.286 257.714V253.429C322.286 252.64 322.925 252 323.714 252C324.503 252 325.143 252.64 325.143 253.429V257.714ZM336.5 245.5C337.328 245.5 338 244.828 338 244V235C338 233.343 336.657 232 335 232H311C309.343 232 308 233.343 308 235V244C308 244.828 308.672 245.5 309.5 245.5H336.5ZM316.571 236.929C314.993 236.929 313.714 238.208 313.714 239.786C313.714 241.364 314.993 242.643 316.571 242.643C318.149 242.643 319.429 241.364 319.429 239.786C319.429 238.208 318.149 236.929 316.571 236.929ZM323.714 242.643C324.503 242.643 325.143 242.003 325.143 241.214V236.929C325.143 236.14 324.503 235.5 323.714 235.5C322.925 235.5 322.286 236.14 322.286 236.929V241.214C322.286 242.003 322.925 242.643 323.714 242.643ZM333.714 241.214C333.714 242.003 333.075 242.643 332.286 242.643C331.497 242.643 330.857 242.003 330.857 241.214V236.929C330.857 236.14 331.497 235.5 332.286 235.5C333.075 235.5 333.714 236.14 333.714 236.929V241.214ZM328 242.643C328.789 242.643 329.429 242.003 329.429 241.214V236.929C329.429 236.14 328.789 235.5 328 235.5C327.211 235.5 326.571 236.14 326.571 236.929V241.214C326.571 242.003 327.211 242.643 328 242.643Z" fill="#A2CEF5" fill-opacity="0.7"/>
<rect width="144" height="144" rx="35" transform="matrix(1 0 0 -1 276 449)" fill="url(#paint10_linear_2196_15981)" fill-opacity="0.6"/>
<rect width="144" height="144" rx="35" transform="matrix(1 0 0 -1 276 449)" fill="url(#paint11_linear_2196_15981)" fill-opacity="0.4"/>
<rect x="0.5" y="-0.5" width="143" height="143" rx="34.5" transform="matrix(1 0 0 -1 276 448)" stroke="url(#paint12_linear_2196_15981)" stroke-opacity="0.7"/>
<path d="M329.609 401.962H366.212C369.304 401.962 371.149 400.491 371.149 398.048C371.149 390.937 362.174 381.157 347.897 381.157C333.647 381.157 324.667 390.937 324.667 398.048C324.667 400.491 326.517 401.962 329.609 401.962ZM347.919 376.25C353.915 376.25 359.017 370.894 359.017 363.969C359.017 357.177 353.9 352 347.919 352C341.938 352 336.826 357.268 336.826 364.019C336.826 370.894 341.906 376.25 347.919 376.25Z" fill="#A2CEF5" fill-opacity="0.7"/>
</g>
<defs>
<filter id="filter0_f_2196_15981" x="28" y="-46" width="485" height="692" filterUnits="userSpaceOnUse" color-interpolation-filters="sRGB">
<feFlood flood-opacity="0" result="BackgroundImageFix"/>
<feBlend mode="normal" in="SourceGraphic" in2="BackgroundImageFix" result="shape"/>
<feGaussianBlur stdDeviation="52" result="effect1_foregroundBlur_2196_15981"/>
</filter>
<radialGradient id="paint0_radial_2196_15981" cx="0" cy="0" r="1" gradientUnits="userSpaceOnUse" gradientTransform="translate(270.5 300.208) rotate(-90) scale(213.686 220.688)">
<stop offset="0.0109635" stop-color="#0D6D75"/>
<stop offset="0.533542" stop-color="#1E6DB5" stop-opacity="0.45"/>
<stop offset="1" stop-color="#264E72" stop-opacity="0"/>
</radialGradient>
<linearGradient id="paint1_linear_2196_15981" x1="-1.84837e-05" y1="18.7211" x2="93.2583" y2="102.367" gradientUnits="userSpaceOnUse">
<stop stop-color="#4D6EA9" stop-opacity="0.4"/>
<stop offset="1" stop-color="#0C1A38" stop-opacity="0"/>
</linearGradient>
<linearGradient id="paint2_linear_2196_15981" x1="-34.2" y1="7.35666e-07" x2="169.116" y2="176.68" gradientUnits="userSpaceOnUse">
<stop stop-color="#060A1D" stop-opacity="0"/>
<stop offset="0.00423948" stop-color="#4797F8" stop-opacity="0.7"/>
<stop offset="1" stop-color="#060A1D" stop-opacity="0"/>
</linearGradient>
<linearGradient id="paint3_linear_2196_15981" x1="71.9999" y1="-7.95251e-05" x2="-39.7812" y2="47.2723" gradientUnits="userSpaceOnUse">
<stop stop-color="#346292"/>
<stop offset="1" stop-color="#1A2F54"/>
</linearGradient>
<linearGradient id="paint4_linear_2196_15981" x1="-1.23224e-05" y1="12.4807" x2="62.1722" y2="68.2449" gradientUnits="userSpaceOnUse">
<stop stop-color="#4D6EA9" stop-opacity="0.4"/>
<stop offset="1" stop-color="#0C1A38" stop-opacity="0"/>
</linearGradient>
<linearGradient id="paint5_linear_2196_15981" x1="-22.8" y1="4.90445e-07" x2="112.744" y2="117.787" gradientUnits="userSpaceOnUse">
<stop stop-color="#060A1D" stop-opacity="0"/>
<stop offset="0.00423948" stop-color="#4797F8" stop-opacity="0.7"/>
<stop offset="1" stop-color="#060A1D" stop-opacity="0"/>
</linearGradient>
<linearGradient id="paint6_linear_2196_15981" x1="47.9999" y1="-5.30167e-05" x2="-26.5208" y2="31.5148" gradientUnits="userSpaceOnUse">
<stop stop-color="#346292"/>
<stop offset="1" stop-color="#1A2F54"/>
</linearGradient>
<linearGradient id="paint7_linear_2196_15981" x1="371" y1="282.519" x2="308.828" y2="226.755" gradientUnits="userSpaceOnUse">
<stop stop-color="#4D6EA9" stop-opacity="0.4"/>
<stop offset="1" stop-color="#0C1A38" stop-opacity="0"/>
</linearGradient>
<linearGradient id="paint8_linear_2196_15981" x1="393.8" y1="295" x2="258.256" y2="177.213" gradientUnits="userSpaceOnUse">
<stop stop-color="#060A1D" stop-opacity="0"/>
<stop offset="0.00423948" stop-color="#4797F8" stop-opacity="0.7"/>
<stop offset="1" stop-color="#060A1D" stop-opacity="0"/>
</linearGradient>
<linearGradient id="paint9_linear_2196_15981" x1="323" y1="295" x2="397.521" y2="263.485" gradientUnits="userSpaceOnUse">
<stop stop-color="#346292"/>
<stop offset="1" stop-color="#1A2F54"/>
</linearGradient>
<linearGradient id="paint10_linear_2196_15981" x1="-1.84837e-05" y1="18.7211" x2="93.2583" y2="102.367" gradientUnits="userSpaceOnUse">
<stop stop-color="#4D6EA9" stop-opacity="0.4"/>
<stop offset="1" stop-color="#0C1A38" stop-opacity="0"/>
</linearGradient>
<linearGradient id="paint11_linear_2196_15981" x1="-34.2" y1="7.35666e-07" x2="169.116" y2="176.68" gradientUnits="userSpaceOnUse">
<stop stop-color="#060A1D" stop-opacity="0"/>
<stop offset="0.00423948" stop-color="#4797F8" stop-opacity="0.7"/>
<stop offset="1" stop-color="#060A1D" stop-opacity="0"/>
</linearGradient>
<linearGradient id="paint12_linear_2196_15981" x1="71.9999" y1="-7.95251e-05" x2="-39.7812" y2="47.2723" gradientUnits="userSpaceOnUse">
<stop stop-color="#1A2F54"/>
<stop offset="1" stop-color="#346292"/>
</linearGradient>
<clipPath id="clip0_2196_15981">
<path d="M0 9.99999C0 4.47714 4.47715 0 10 0H530C535.523 0 540 4.47715 540 10V590C540 595.523 535.523 600 530 600H9.99999C4.47715 600 0 595.523 0 590V9.99999Z" fill="white"/>
</clipPath>
</defs>
</svg>
