<svg xmlns="http://www.w3.org/2000/svg" width="64" height="64" viewBox="0 0 64 64" fill="none">
    <path d="M50.1637 36.4553C53.7205 36.4553 56.7663 33.277 56.7663 29.1619C56.7663 25.1398 53.7165 22.0801 50.1637 22.0801C46.5922 22.0801 43.5338 25.1772 43.5421 29.1993C43.5421 33.277 46.5879 36.4553 50.1637 36.4553ZM39.2291 51.7029H61.0753C62.879 51.7029 64.0036 50.8477 64.0036 49.3939C64.0036 45.1627 58.6544 39.3563 50.1637 39.3563C41.6354 39.3563 36.3008 45.1627 36.3008 49.3939C36.3008 50.8477 37.4067 51.7029 39.2291 51.7029Z" fill="url(#paint0_linear_2761_21747)"/>
    <mask id="path-2-inside-1_2761_21747" fill="white">
        <path fill-rule="evenodd" clip-rule="evenodd" d="M0 15.4472C0 11.9663 2.8218 9.14453 6.30266 9.14453H47.6859C51.1668 9.14453 53.9886 11.9663 53.9886 15.4472V20.1211C52.7946 19.5358 51.4652 19.209 50.058 19.209C44.719 19.209 40.5147 23.9131 40.5243 29.5491C40.5252 32.5914 41.7373 35.4125 43.7097 37.3578C41.6339 38.0927 39.8213 39.1652 38.3255 40.4399C35.5527 42.8029 33.5898 46.1364 33.5898 49.5145C33.5898 50.258 33.7231 50.9857 33.9917 51.6588H6.30266C2.8218 51.6588 0 48.837 0 45.3562V15.4472ZM53.9886 40.0647V40.0737C52.7716 39.7671 51.4534 39.5948 50.0449 39.5948C47.69 39.5948 45.5895 40.0721 43.7923 40.8518C45.0071 40.3234 46.3607 39.9331 47.838 39.7352C48.5499 39.6398 49.2904 39.5891 50.058 39.5891C50.823 39.5891 51.5613 39.6399 52.2712 39.7355C52.8638 39.8152 53.4366 39.9262 53.9886 40.0647ZM53.9886 24.0219C52.8972 23.0664 51.5222 22.506 50.058 22.506C49.2473 22.506 48.4642 22.6781 47.7412 22.9937C48.4605 22.6817 49.2391 22.5117 50.0449 22.5117C51.515 22.5117 52.8951 23.0766 53.9886 24.0391V24.0219ZM53.9886 35.1462V35.1523C53.4789 35.6133 52.9073 35.9859 52.2934 36.252C52.9076 35.984 53.4792 35.6093 53.9886 35.1462ZM15.2397 37.3569C13.1645 38.8793 11.5718 35.5244 13.454 34.1993L19.2695 30.0832L13.454 25.9954C11.5477 24.6421 13.1645 21.3154 15.2397 22.8378L22.1894 27.9124C23.4924 28.871 23.5648 31.2673 22.1894 32.2822L15.2397 37.3569ZM25.1816 39.133C24.3129 39.133 23.6372 38.3154 23.6372 37.3287C23.6372 36.3137 24.3129 35.4962 25.1816 35.4962H34.3754C35.2441 35.4962 35.9198 36.3137 35.9198 37.3287C35.9198 38.3154 35.2441 39.133 34.3754 39.133H25.1816Z"/>
    </mask>
    <path fill-rule="evenodd" clip-rule="evenodd" d="M0 15.4472C0 11.9663 2.8218 9.14453 6.30266 9.14453H47.6859C51.1668 9.14453 53.9886 11.9663 53.9886 15.4472V20.1211C52.7946 19.5358 51.4652 19.209 50.058 19.209C44.719 19.209 40.5147 23.9131 40.5243 29.5491C40.5252 32.5914 41.7373 35.4125 43.7097 37.3578C41.6339 38.0927 39.8213 39.1652 38.3255 40.4399C35.5527 42.8029 33.5898 46.1364 33.5898 49.5145C33.5898 50.258 33.7231 50.9857 33.9917 51.6588H6.30266C2.8218 51.6588 0 48.837 0 45.3562V15.4472ZM53.9886 40.0647V40.0737C52.7716 39.7671 51.4534 39.5948 50.0449 39.5948C47.69 39.5948 45.5895 40.0721 43.7923 40.8518C45.0071 40.3234 46.3607 39.9331 47.838 39.7352C48.5499 39.6398 49.2904 39.5891 50.058 39.5891C50.823 39.5891 51.5613 39.6399 52.2712 39.7355C52.8638 39.8152 53.4366 39.9262 53.9886 40.0647ZM53.9886 24.0219C52.8972 23.0664 51.5222 22.506 50.058 22.506C49.2473 22.506 48.4642 22.6781 47.7412 22.9937C48.4605 22.6817 49.2391 22.5117 50.0449 22.5117C51.515 22.5117 52.8951 23.0766 53.9886 24.0391V24.0219ZM53.9886 35.1462V35.1523C53.4789 35.6133 52.9073 35.9859 52.2934 36.252C52.9076 35.984 53.4792 35.6093 53.9886 35.1462ZM15.2397 37.3569C13.1645 38.8793 11.5718 35.5244 13.454 34.1993L19.2695 30.0832L13.454 25.9954C11.5477 24.6421 13.1645 21.3154 15.2397 22.8378L22.1894 27.9124C23.4924 28.871 23.5648 31.2673 22.1894 32.2822L15.2397 37.3569ZM25.1816 39.133C24.3129 39.133 23.6372 38.3154 23.6372 37.3287C23.6372 36.3137 24.3129 35.4962 25.1816 35.4962H34.3754C35.2441 35.4962 35.9198 36.3137 35.9198 37.3287C35.9198 38.3154 35.2441 39.133 34.3754 39.133H25.1816Z" fill="url(#paint1_linear_2761_21747)"/>
    <path d="M53.9886 20.1211L52.6015 22.9507L57.1399 25.1754V20.1211H53.9886ZM40.5243 29.5491L43.6756 29.5481L43.6756 29.5437L40.5243 29.5491ZM43.7097 37.3578L44.7614 40.3284L49.5063 38.6485L45.9225 35.114L43.7097 37.3578ZM38.3255 40.4399L40.3695 42.8384H40.3695L38.3255 40.4399ZM33.9917 51.6588V54.8101H38.6423L36.9186 50.4908L33.9917 51.6588ZM53.9886 40.0737L53.2186 43.1295L57.1399 44.1176V40.0737H53.9886ZM53.9886 40.0647H57.1399V37.6067L54.7559 37.0082L53.9886 40.0647ZM43.7923 40.8518L42.5352 37.9621L45.0466 43.7428L43.7923 40.8518ZM47.838 39.7352L47.4195 36.6118L47.838 39.7352ZM52.2712 39.7355L51.8508 42.8586H51.8508L52.2712 39.7355ZM53.9886 24.0219H57.1399V22.5924L56.0644 21.6508L53.9886 24.0219ZM47.7412 22.9937L46.4806 20.1055L48.995 25.8848L47.7412 22.9937ZM53.9886 24.0391L51.9064 26.4046L57.1399 31.0111V24.0391H53.9886ZM53.9886 35.1523L56.1025 37.4895L57.1399 36.5512V35.1523H53.9886ZM53.9886 35.1462H57.1399V28.0211L51.8684 32.8147L53.9886 35.1462ZM52.2934 36.252L51.0329 33.3637L53.5468 39.1433L52.2934 36.252ZM13.454 34.1993L15.2681 36.7762L15.2746 36.7716L13.454 34.1993ZM15.2397 37.3569L13.3813 34.8118L13.3757 34.8159L15.2397 37.3569ZM19.2695 30.0832L21.0901 32.6555L24.7369 30.0744L21.0818 27.5051L19.2695 30.0832ZM13.454 25.9954L11.6299 28.5651L11.6358 28.5693L11.6418 28.5735L13.454 25.9954ZM15.2397 22.8378L13.3757 25.3788L13.3813 25.3829L15.2397 22.8378ZM22.1894 27.9124L24.0567 25.3739L24.0477 25.3674L22.1894 27.9124ZM22.1894 32.2822L24.0477 34.8273L24.0541 34.8227L24.0604 34.818L22.1894 32.2822ZM6.30266 5.9932C1.08136 5.9932 -3.15133 10.2259 -3.15133 15.4472H3.15133C3.15133 13.7068 4.56223 12.2959 6.30266 12.2959V5.9932ZM47.6859 5.9932H6.30266V12.2959H47.6859V5.9932ZM57.1399 15.4472C57.1399 10.2259 52.9072 5.9932 47.6859 5.9932V12.2959C49.4263 12.2959 50.8372 13.7068 50.8372 15.4472H57.1399ZM57.1399 20.1211V15.4472H50.8372V20.1211H57.1399ZM50.058 22.3603C50.9697 22.3603 51.8259 22.5705 52.6015 22.9507L55.3756 17.2914C53.7632 16.501 51.9607 16.0577 50.058 16.0577V22.3603ZM43.6756 29.5437C43.6685 25.3798 46.7202 22.3603 50.058 22.3603V16.0577C42.7178 16.0577 37.3609 22.4463 37.373 29.5544L43.6756 29.5437ZM45.9225 35.114C44.5635 33.7737 43.6763 31.7659 43.6756 29.5481L37.373 29.55C37.3741 33.4168 38.9112 37.0514 41.4969 39.6015L45.9225 35.114ZM40.3695 42.8384C41.574 41.8119 43.0507 40.9341 44.7614 40.3284L42.658 34.3871C40.2171 35.2513 38.0686 36.5184 36.2815 38.0414L40.3695 42.8384ZM36.7412 49.5145C36.7412 47.329 38.0644 44.8028 40.3695 42.8384L36.2815 38.0414C33.0411 40.8029 30.4385 44.9438 30.4385 49.5145H36.7412ZM36.9186 50.4908C36.8071 50.2114 36.7412 49.8825 36.7412 49.5145H30.4385C30.4385 50.6336 30.6391 51.7601 31.0648 52.8268L36.9186 50.4908ZM6.30266 54.8101H33.9917V48.5075H6.30266V54.8101ZM-3.15133 45.3562C-3.15133 50.5775 1.08138 54.8101 6.30266 54.8101V48.5075C4.56222 48.5075 3.15133 47.0966 3.15133 45.3562H-3.15133ZM-3.15133 15.4472V45.3562H3.15133V15.4472H-3.15133ZM57.1399 40.0737V40.0647H50.8372V40.0737H57.1399ZM50.0449 42.7461C51.195 42.7461 52.2545 42.8866 53.2186 43.1295L54.7586 37.0179C53.2887 36.6475 51.7118 36.4434 50.0449 36.4434V42.7461ZM45.0466 43.7428C46.4481 43.1347 48.1218 42.7461 50.0449 42.7461V36.4434C47.2583 36.4434 44.7308 37.0095 42.538 37.9609L45.0466 43.7428ZM47.4195 36.6118C45.6515 36.8486 44.0157 37.318 42.5352 37.9621L45.0495 43.7416C45.9984 43.3287 47.0699 43.0176 48.2565 42.8586L47.4195 36.6118ZM50.058 36.4377C49.1514 36.4377 48.271 36.4977 47.4195 36.6118L48.2565 42.8586C48.8287 42.7819 49.4295 42.7404 50.058 42.7404V36.4377ZM52.6916 36.6123C51.8416 36.4979 50.9628 36.4377 50.058 36.4377V42.7404C50.6832 42.7404 51.281 42.7819 51.8508 42.8586L52.6916 36.6123ZM54.7559 37.0082C54.0897 36.841 53.4011 36.7078 52.6916 36.6123L51.8508 42.8586C52.3265 42.9226 52.7835 43.0113 53.2213 43.1212L54.7559 37.0082ZM56.0644 21.6508C54.4448 20.2329 52.3452 19.3547 50.058 19.3547V25.6573C50.6993 25.6573 51.3497 25.9 51.9128 26.3929L56.0644 21.6508ZM50.058 19.3547C48.7968 19.3547 47.5856 19.6231 46.4806 20.1055L49.0019 25.8818C49.3427 25.7331 49.6978 25.6573 50.058 25.6573V19.3547ZM48.995 25.8848C49.3339 25.7379 49.6868 25.663 50.0449 25.663V19.3604C48.7913 19.3604 47.5871 19.6256 46.4874 20.1025L48.995 25.8848ZM50.0449 25.663C50.6886 25.663 51.3418 25.9076 51.9064 26.4046L56.0707 21.6736C54.4484 20.2456 52.3413 19.3604 50.0449 19.3604V25.663ZM57.1399 24.0391V24.0219H50.8372V24.0391H57.1399ZM57.1399 35.1523V35.1462H50.8372V35.1523H57.1399ZM53.5468 39.1433C54.4906 38.7342 55.3503 38.1698 56.1025 37.4895L51.8747 32.8152C51.6075 33.0569 51.3239 33.2376 51.04 33.3607L53.5468 39.1433ZM51.8684 32.8147C51.6011 33.0577 51.3173 33.2396 51.0329 33.3637L53.5538 39.1403C54.4978 38.7283 55.3573 38.161 56.1087 37.4776L51.8684 32.8147ZM11.64 31.6225C9.11474 33.4002 9.09653 36.4291 10.0655 38.297C10.5745 39.2783 11.5128 40.298 12.931 40.7153C14.4532 41.1631 15.9448 40.7479 17.1037 39.8978L13.3757 34.8159C13.4969 34.727 14.0113 34.4633 14.71 34.6689C15.3047 34.8439 15.5734 35.2275 15.6602 35.3948C15.7521 35.572 15.7923 35.773 15.7519 36.0056C15.7024 36.2901 15.5304 36.5915 15.2681 36.7762L11.64 31.6225ZM17.449 27.511L11.6335 31.6271L15.2746 36.7716L21.0901 32.6555L17.449 27.511ZM11.6418 28.5735L17.4573 32.6614L21.0818 27.5051L15.2663 23.4172L11.6418 28.5735ZM17.1037 20.2969C15.9471 19.4484 14.4623 19.0341 12.9462 19.47C11.5289 19.8776 10.5809 20.8875 10.0633 21.874C9.06894 23.7689 9.12192 26.7847 11.6299 28.5651L15.2782 23.4256C15.5179 23.5958 15.69 23.8828 15.7407 24.1715C15.7824 24.4084 15.7413 24.6176 15.6443 24.8025C15.5519 24.9785 15.2781 25.3576 14.688 25.5272C13.9991 25.7253 13.4947 25.466 13.3757 25.3787L17.1037 20.2969ZM24.0477 25.3674L17.0981 20.2928L13.3813 25.3829L20.331 30.4575L24.0477 25.3674ZM24.0604 34.818C25.7502 33.5711 26.3621 31.6429 26.3449 30.0425C26.328 28.461 25.6908 26.576 24.0567 25.3739L20.322 30.4509C20.1501 30.3245 20.0792 30.1957 20.0577 30.1478C20.0374 30.1026 20.0425 30.0925 20.0427 30.1099C20.0428 30.1269 20.0378 30.1073 20.063 30.0494C20.0914 29.9841 20.1654 29.8594 20.3183 29.7465L24.0604 34.818ZM17.0981 39.9019L24.0477 34.8273L20.331 29.7372L13.3813 34.8118L17.0981 39.9019ZM20.4859 37.3287C20.4859 39.544 22.1013 42.2843 25.1816 42.2843V35.9817C25.7934 35.9817 26.2492 36.2817 26.4886 36.5645C26.7168 36.834 26.7885 37.114 26.7885 37.3287H20.4859ZM25.1816 32.3448C22.0728 32.3448 20.4859 35.119 20.4859 37.3287H26.7885C26.7885 37.5093 26.7293 37.7809 26.4993 38.0555C26.2571 38.3446 25.7961 38.6475 25.1816 38.6475V32.3448ZM34.3754 32.3448H25.1816V38.6475H34.3754V32.3448ZM39.0711 37.3287C39.0711 35.119 37.4842 32.3448 34.3754 32.3448V38.6475C33.7608 38.6475 33.2998 38.3446 33.0576 38.0555C32.8276 37.7809 32.7684 37.5093 32.7684 37.3287H39.0711ZM34.3754 42.2843C37.4557 42.2843 39.0711 39.544 39.0711 37.3287H32.7684C32.7684 37.114 32.8401 36.834 33.0683 36.5645C33.3078 36.2817 33.7636 35.9817 34.3754 35.9817V42.2843ZM25.1816 42.2843H34.3754V35.9817H25.1816V42.2843Z" fill="url(#paint2_linear_2761_21747)" mask="url(#path-2-inside-1_2761_21747)"/>
    <defs>
        <linearGradient id="paint0_linear_2761_21747" x1="36.3008" y1="21.7435" x2="65.489" y2="23.2875" gradientUnits="userSpaceOnUse">
            <stop stop-color="#2091F6"/>
            <stop offset="1" stop-color="#21B568"/>
        </linearGradient>
        <linearGradient id="paint1_linear_2761_21747" x1="-3.04827e-07" y1="8.66142" x2="56.7497" y2="12.738" gradientUnits="userSpaceOnUse">
            <stop stop-color="#2091F6"/>
            <stop offset="1" stop-color="#21B568"/>
        </linearGradient>
        <linearGradient id="paint2_linear_2761_21747" x1="-3.04827e-07" y1="8.66142" x2="56.7497" y2="12.738" gradientUnits="userSpaceOnUse">
            <stop stop-color="#2091F6"/>
            <stop offset="1" stop-color="#21B568"/>
        </linearGradient>
    </defs>
</svg>