<svg width="16" height="14" viewBox="0 0 16 14" fill="none" xmlns="http://www.w3.org/2000/svg">
<path d="M2.13062 13.246H13.8694C15.2943 13.246 16 12.5471 16 11.1493V2.85751C16 1.45971 15.2943 0.754028 13.8694 0.754028L2.13062 0.754028C0.712468 0.754028 -1.12995e-08 1.45971 0 2.85751L6.70289e-08 11.1493C7.83284e-08 12.5471 0.712468 13.246 2.13062 13.246ZM2.14419 12.1535C1.46565 12.1535 1.09245 11.7939 1.09245 11.0882L1.09245 2.91857C1.09245 2.21289 1.46565 1.84648 2.14419 1.84648L13.8558 1.84648C14.5276 1.84648 14.9075 2.21289 14.9075 2.91857V11.0882C14.9075 11.7939 14.5276 12.1535 13.8558 12.1535H2.14419Z" fill="currentColor"/>
<path d="M4.30159 8.32905C3.71805 8.69546 3.27021 7.888 3.79947 7.56909L5.43476 6.57842L3.79947 5.59453C3.26342 5.26883 3.71805 4.46815 4.30159 4.83457L6.25579 6.05594C6.6222 6.28664 6.64256 6.8634 6.25579 7.10768L4.30159 8.32905Z" fill="currentColor"/>
<path d="M7.09718 8.75653C6.85291 8.75653 6.66292 8.55976 6.66292 8.32227C6.66292 8.07799 6.85291 7.88122 7.09718 7.88122H9.68242C9.9267 7.88122 10.1167 8.07799 10.1167 8.32227C10.1167 8.55976 9.9267 8.75653 9.68242 8.75653H7.09718Z" fill="currentColor"/>
</svg>
