<svg width="18" height="15" viewBox="0 0 18 15" fill="none" xmlns="http://www.w3.org/2000/svg">
<path d="M9.61523 14.9556C10.6113 14.9556 11.4805 14.8457 12.2227 14.626C12.9648 14.4062 13.5435 14.0986 13.9585 13.7031C14.3784 13.3076 14.5884 12.8511 14.5884 12.3335C14.5884 11.9868 14.5298 11.6987 14.4126 11.4692C14.2954 11.2397 14.1611 11.0396 14.0098 10.8687C13.8584 10.6978 13.7217 10.5342 13.5996 10.3779C13.4824 10.2217 13.4238 10.041 13.4238 9.83594C13.4238 9.65527 13.5215 9.4917 13.7168 9.34521C13.9121 9.19385 14.1611 9.04492 14.4639 8.89844C14.7666 8.74707 15.0889 8.5835 15.4307 8.40771C15.7725 8.22705 16.0947 8.01465 16.3975 7.77051C16.7002 7.52148 16.9492 7.22607 17.1445 6.88428C17.3398 6.5376 17.4375 6.125 17.4375 5.64648C17.4375 4.93359 17.2617 4.28906 16.9102 3.71289C16.5635 3.13184 16.0679 2.63135 15.4233 2.21143C14.7788 1.7915 14.0073 1.47168 13.1089 1.25195C12.2104 1.02734 11.2168 0.915039 10.1279 0.915039C8.69727 0.915039 7.396 1.08594 6.22412 1.42773C5.05225 1.76465 4.04395 2.25049 3.19922 2.88525C2.35938 3.51514 1.70996 4.26709 1.25098 5.14111C0.791992 6.01514 0.5625 6.98438 0.5625 8.04883C0.5625 9.08398 0.779785 10.0239 1.21436 10.8687C1.64893 11.7134 2.26416 12.4409 3.06006 13.0513C3.86084 13.6616 4.81543 14.1304 5.92383 14.4575C7.03711 14.7896 8.26758 14.9556 9.61523 14.9556ZM9.49072 12.2822C9.14404 12.2822 8.82666 12.1992 8.53857 12.0332C8.25537 11.8623 8.02588 11.6353 7.8501 11.3521C7.6792 11.064 7.59375 10.7441 7.59375 10.3926C7.59375 10.0459 7.6792 9.73096 7.8501 9.44775C8.02588 9.15967 8.25537 8.93018 8.53857 8.75928C8.82666 8.58838 9.14404 8.50293 9.49072 8.50293C9.83252 8.50293 10.1475 8.58838 10.4355 8.75928C10.7236 8.93018 10.9531 9.15967 11.124 9.44775C11.2949 9.73096 11.3804 10.0459 11.3804 10.3926C11.3804 10.7441 11.2949 11.064 11.124 11.3521C10.958 11.6353 10.731 11.8623 10.4429 12.0332C10.1548 12.1992 9.8374 12.2822 9.49072 12.2822ZM3.87305 8.92041C3.55078 8.92041 3.2749 8.80566 3.04541 8.57617C2.8208 8.34668 2.7085 8.0708 2.7085 7.74854C2.7085 7.44092 2.82568 7.17236 3.06006 6.94287C3.29443 6.7085 3.56543 6.59131 3.87305 6.59131C4.19043 6.59131 4.46143 6.70361 4.68604 6.92822C4.91064 7.15283 5.02295 7.42627 5.02295 7.74854C5.02295 8.0708 4.91064 8.34668 4.68604 8.57617C4.46143 8.80566 4.19043 8.92041 3.87305 8.92041ZM6.56836 6.44482C6.1582 6.44482 5.80908 6.30566 5.521 6.02734C5.23779 5.74414 5.09619 5.39746 5.09619 4.9873C5.09619 4.58203 5.23779 4.24023 5.521 3.96191C5.80908 3.68359 6.1582 3.54443 6.56836 3.54443C6.96387 3.54443 7.30322 3.68359 7.58643 3.96191C7.87451 4.24023 8.01855 4.58203 8.01855 4.9873C8.01855 5.39746 7.87451 5.74414 7.58643 6.02734C7.30322 6.30566 6.96387 6.44482 6.56836 6.44482ZM10.2964 5.33154C9.979 5.33154 9.70312 5.2168 9.46875 4.9873C9.23926 4.75781 9.12451 4.48193 9.12451 4.15967C9.12451 3.8374 9.23926 3.56152 9.46875 3.33203C9.70312 3.10254 9.979 2.98779 10.2964 2.98779C10.6284 2.98779 10.9067 3.10254 11.1313 3.33203C11.356 3.55664 11.4683 3.83252 11.4683 4.15967C11.4683 4.48193 11.356 4.75781 11.1313 4.9873C10.9067 5.2168 10.6284 5.33154 10.2964 5.33154ZM13.6143 5.93213C13.3506 5.93213 13.1235 5.8418 12.9331 5.66113C12.7476 5.47559 12.6548 5.24854 12.6548 4.97998C12.6548 4.72119 12.7476 4.49902 12.9331 4.31348C13.1235 4.12305 13.3506 4.02783 13.6143 4.02783C13.873 4.02783 14.0952 4.12305 14.2808 4.31348C14.4663 4.50391 14.5591 4.72607 14.5591 4.97998C14.5591 5.24365 14.4663 5.46826 14.2808 5.65381C14.0952 5.83936 13.873 5.93213 13.6143 5.93213Z" fill="currentColor"/>
</svg>
