<svg width="54" height="54" viewBox="0 0 54 54" fill="none" xmlns="http://www.w3.org/2000/svg">
<path fill-rule="evenodd" clip-rule="evenodd" d="M26.9979 0.333252H26.999L26.9991 4.73692C14.7041 4.73749 4.73716 14.7048 4.73716 26.9999C4.73716 39.295 14.704 49.2623 26.999 49.2629L26.9994 31.3957L24.8231 30.5796C23.8864 30.2283 23.2658 29.3328 23.2658 28.3324V16.3324C23.2658 15.0069 24.3403 13.9324 25.6658 13.9324C26.1593 13.9324 26.6179 14.0813 26.9993 14.3366L26.9991 4.73692C26.9994 4.73692 26.9997 4.73692 27 4.73692L26.9998 14.337C27.6426 14.7676 28.0658 15.5006 28.0658 16.3324V26.6692L37.1752 30.0852C38.4163 30.5506 39.0451 31.934 38.5797 33.1751C38.1143 34.4162 36.7309 35.045 35.4898 34.5796L26.9997 31.3958L27.0001 49.2629C28.489 49.2628 29.9416 49.1168 31.3451 48.8391C32.5381 48.6031 33.6964 49.3789 33.9324 50.5718C34.1684 51.7647 33.3927 52.9231 32.1998 53.1591C30.5156 53.4922 28.776 53.6666 26.9979 53.6666C25.2197 53.6666 23.4801 53.4922 21.7959 53.1591L21.7841 53.1567C9.55379 50.7314 0.333496 39.9424 0.333496 26.9999C0.333496 14.0571 9.55416 3.26795 21.7849 0.842996L21.7959 0.840778C23.4801 0.507593 25.2197 0.333252 26.9979 0.333252ZM27 4.73692C27.0001 4.73692 27.0001 4.73692 27.0001 4.73692C28.489 4.73707 29.9416 4.88306 31.3451 5.16072C32.5381 5.39672 33.6964 4.62098 33.9324 3.42806C34.1684 2.23514 33.3927 1.07677 32.1998 0.840778C30.5163 0.507736 28.7775 0.333402 27.0001 0.333252L27 4.73692ZM38.7612 5.43089C39.4377 4.42039 40.8053 4.14965 41.8158 4.82615C44.7229 6.7724 47.2254 9.27486 49.1716 12.1819C49.8481 13.1924 49.5774 14.56 48.5669 15.2365C47.5564 15.913 46.1888 15.6423 45.5123 14.6318C43.8863 12.203 41.7947 10.1115 39.366 8.48547C38.3555 7.80896 38.0847 6.44138 38.7612 5.43089ZM50.5697 20.0653C51.7626 19.8293 52.921 20.6051 53.157 21.798C53.4902 23.4822 53.6645 25.2218 53.6645 26.9999C53.6645 28.778 53.4902 30.5176 53.157 32.2018C52.921 33.3947 51.7626 34.1705 50.5697 33.9345C49.3768 33.6985 48.601 32.5401 48.837 31.3472C49.1148 29.943 49.2608 28.4896 49.2608 26.9999C49.2608 25.5103 49.1148 24.0569 48.837 22.6526C48.601 21.4597 49.3768 20.3013 50.5697 20.0653ZM48.5669 38.7633C49.5774 39.4398 49.8481 40.8074 49.1716 41.8179C47.2254 44.725 44.7229 47.2274 41.8158 49.1737C40.8053 49.8502 39.4377 49.5794 38.7612 48.5689C38.0847 47.5585 38.3555 46.1909 39.366 45.5144C41.7947 43.8884 43.8863 41.7968 45.5123 39.368C46.1888 38.3575 47.5564 38.0868 48.5669 38.7633Z" fill="url(#paint0_linear_456_9834)"/>
<defs>
<linearGradient id="paint0_linear_456_9834" x1="0.333496" y1="-0.272803" x2="56.5016" y2="2.90431" gradientUnits="userSpaceOnUse">
<stop stop-color="#2091F6"/>
<stop offset="1" stop-color="#21B568"/>
</linearGradient>
</defs>
</svg>
