<svg width="21" height="21" viewBox="0 0 21 21" fill="none" xmlns="http://www.w3.org/2000/svg">
<path d="M10.709 20.6545C16.1582 20.6545 20.6699 16.1331 20.6699 10.6936C20.6699 5.24438 16.1484 0.732666 10.6992 0.732666C5.25977 0.732666 0.748047 5.24438 0.748047 10.6936C0.748047 16.1331 5.26953 20.6545 10.709 20.6545ZM10.709 18.9944C6.09961 18.9944 2.41797 15.303 2.41797 10.6936C2.41797 6.08423 6.08984 2.39282 10.6992 2.39282C15.3086 2.39282 19 6.08423 19.0098 10.6936C19.0195 15.303 15.3184 18.9944 10.709 18.9944ZM10.6992 6.0061C11.2168 6.0061 11.6562 5.56665 11.6562 5.04907C11.6562 4.51196 11.2168 4.08228 10.6992 4.08228C10.1719 4.08228 9.74219 4.51196 9.74219 5.04907C9.74219 5.56665 10.1719 6.0061 10.6992 6.0061ZM9.14648 12.1975C9.9375 12.969 11.0215 12.7932 11.6758 11.8752L15.4941 6.54321C15.8457 6.05493 15.3281 5.54712 14.8398 5.88892L9.45898 9.65845C8.53125 10.303 8.36523 11.3967 9.14648 12.1975ZM6.73438 7.72485C7.26172 7.72485 7.69141 7.2854 7.69141 6.76782C7.69141 6.23071 7.26172 5.81079 6.73438 5.81079C6.20703 5.81079 5.77734 6.23071 5.77734 6.76782C5.77734 7.2854 6.20703 7.72485 6.73438 7.72485ZM5.07422 11.6506C5.61133 11.6506 6.04102 11.2209 6.04102 10.6936C6.04102 10.1663 5.61133 9.73657 5.07422 9.73657C4.55664 9.73657 4.11719 10.1663 4.11719 10.6936C4.11719 11.2209 4.55664 11.6506 5.07422 11.6506ZM16.3242 11.6506C16.8418 11.6506 17.2812 11.2209 17.2812 10.6936C17.2812 10.1663 16.8418 9.73657 16.3242 9.73657C15.7871 9.73657 15.3672 10.1663 15.3672 10.6936C15.3672 11.2209 15.7871 11.6506 16.3242 11.6506ZM6.75391 15.5862C7.28125 15.5862 7.71094 15.1467 7.71094 14.6194C7.71094 14.092 7.28125 13.6624 6.75391 13.6624C6.22656 13.6624 5.79688 14.092 5.79688 14.6194C5.79688 15.1467 6.22656 15.5862 6.75391 15.5862ZM14.6445 15.5862C15.1719 15.5862 15.6016 15.1467 15.6016 14.6194C15.6016 14.092 15.1719 13.6624 14.6445 13.6624C14.1172 13.6624 13.6875 14.092 13.6875 14.6194C13.6875 15.1467 14.1172 15.5862 14.6445 15.5862Z" fill="currentColor"/>
</svg>
