<svg width="40" height="32" viewBox="0 0 40 32" fill="none" xmlns="http://www.w3.org/2000/svg">
<path fill-rule="evenodd" clip-rule="evenodd" d="M10.6112 1.1539C10.2699 1.27876 9.66623 1.6826 9.26971 2.05129C8.85464 2.43755 6.73667 5.28427 4.27449 8.7654L0 14.8091L0.00144903 21.3672L0.00289862 27.9255L0.347102 28.6603C0.752899 29.5263 1.50681 30.3164 2.35899 30.7689L2.97101 31.094H20H37.029L37.6255 30.7768C38.5968 30.2605 39.0871 29.7669 39.5568 28.8328L40 27.9516V21.4289V14.906L35.6442 8.71125C33.0135 4.96973 31.0301 2.29051 30.6362 1.94587C28.7084 0.259528 25.8387 0.665378 24.2113 2.85449L23.6141 3.65799H21.5106C19.4706 3.65799 19.3964 3.66864 19.0514 4.01156C18.6196 4.4406 18.587 5.07688 18.9725 5.55028C19.2486 5.8893 19.26 5.89045 22.9417 5.93308C26.3628 5.97283 26.6526 5.99617 26.8849 6.25137C27.2228 6.62237 27.0642 7.22495 26.5807 7.40757C26.3785 7.48405 25.0484 7.54655 23.6251 7.54655H21.0371L20.5172 8.15014C20.2071 8.51019 19.9472 8.699 19.8733 8.61821C19.8051 8.54361 18.8851 7.25131 17.8287 5.74629C15.349 2.21303 15.1107 1.9306 14.1888 1.43186C13.2328 0.914822 11.6104 0.788804 10.6112 1.1539ZM13.1858 3.54997C13.4758 3.74771 15.2899 6.17504 17.8412 9.77887L22.0214 15.6837L22.0252 21.4132C22.0293 27.6112 22.0177 27.7155 21.239 28.4296L20.8464 28.7896L12.3065 28.8289C2.86232 28.8724 3.18391 28.9015 2.6029 27.9544C2.33435 27.5169 2.31986 27.1907 2.31942 21.5431L2.31884 15.5928L6.54928 9.6157C8.9813 6.1795 10.9374 3.55328 11.1507 3.43807C11.727 3.12655 12.6387 3.17667 13.1858 3.54997ZM28.7875 3.5023C29.0374 3.65367 29.4072 3.9937 29.6096 4.25783C30.4349 5.33554 36.5127 13.9634 36.5171 14.0635C36.5196 14.1228 34.5164 14.1691 32.0652 14.166L27.6087 14.1606L27.2403 13.626C27.0375 13.3319 26.5238 12.594 26.0983 11.9863L25.3248 10.8814L25.6264 10.3964C25.8825 9.98468 26.0567 9.88502 26.779 9.73667C29.3052 9.2182 30.2665 6.36198 28.5036 4.6127C28.1372 4.24919 27.6412 3.93407 27.2464 3.81425L26.5942 3.61636L27.029 3.4277C27.6491 3.15838 28.2632 3.18445 28.7875 3.5023ZM11.4493 4.91154C11.0433 5.0583 10.442 5.71993 10.2851 6.19275C9.89928 7.35443 10.8388 8.60265 12.0991 8.60265C14.0754 8.60265 14.7938 5.9256 13.0571 5.03324C12.6304 4.8139 11.8768 4.75687 11.4493 4.91154ZM37.6806 21.9846C37.6801 27.1203 37.6616 27.5235 37.4078 27.937C36.8465 28.8518 36.7686 28.8616 30.0045 28.8616H23.8935L23.9981 28.5376C24.2983 27.6078 24.3412 26.7778 24.3443 21.8406L24.3478 16.4758H31.0145H37.6812L37.6806 21.9846Z" fill="currentColor"/>
</svg>
