<svg width="20" height="20" viewBox="0 0 20 20" fill="none" xmlns="http://www.w3.org/2000/svg">
<path fill-rule="evenodd" clip-rule="evenodd" d="M5.30558 2.12509C5.13493 2.18792 4.83312 2.39111 4.63485 2.57662C4.42732 2.77096 3.36833 4.20328 2.13725 5.9548L0 8.99567L0.000724516 12.2954L0.00144931 15.5952L0.173551 15.9649C0.376449 16.4006 0.753406 16.7981 1.17949 17.0258L1.48551 17.1894H10H18.5145L18.8128 17.0298C19.2984 16.77 19.5435 16.5217 19.7784 16.0517L20 15.6083V12.3264V9.04444L17.8221 5.92756C16.5067 4.04502 15.5151 2.69698 15.3181 2.52357C14.3542 1.67509 12.9193 1.8793 12.1057 2.98075L11.807 3.38502H10.7553C9.73529 3.38502 9.69819 3.39038 9.52572 3.56292C9.30978 3.77879 9.29348 4.09894 9.48623 4.33712C9.62428 4.5077 9.63 4.50828 11.4709 4.52973C13.1814 4.54973 13.3263 4.56147 13.4425 4.68988C13.6114 4.87654 13.5321 5.17973 13.2904 5.27162C13.1893 5.31009 12.5242 5.34154 11.8125 5.34154H10.5186L10.2586 5.64524C10.1035 5.8264 9.97362 5.9214 9.93667 5.88075C9.90254 5.84321 9.44254 5.19299 8.91435 4.43575C7.67449 2.65799 7.55536 2.51589 7.09442 2.26495C6.61638 2.0048 5.80522 1.9414 5.30558 2.12509ZM6.5929 3.33067C6.7379 3.43017 7.64493 4.65147 8.92058 6.46473L11.0107 9.43575L11.0126 12.3185C11.0146 15.437 11.0088 15.4895 10.6195 15.8488L10.4232 16.0299L6.15326 16.0497C1.43116 16.0716 1.59196 16.0863 1.30145 15.6097C1.16717 15.3896 1.15993 15.2255 1.15971 12.3839L1.15942 9.39002L3.27464 6.38263C4.49065 4.65372 5.4687 3.33234 5.57536 3.27437C5.86348 3.11763 6.31935 3.14285 6.5929 3.33067ZM14.3938 3.30669C14.5187 3.38285 14.7036 3.55393 14.8048 3.68683C15.2175 4.22908 18.2564 8.57017 18.2585 8.62053C18.2598 8.65038 17.2582 8.67365 16.0326 8.67212L13.8043 8.66937L13.6201 8.40038C13.5188 8.25241 13.2619 7.88118 13.0491 7.57538L12.6624 7.01944L12.8132 6.77546C12.9412 6.56828 13.0283 6.51814 13.3895 6.4435C14.6526 6.18263 15.1333 4.74553 14.2518 3.86538C14.0686 3.68249 13.8206 3.52393 13.6232 3.46364L13.2971 3.36408L13.5145 3.26915C13.8246 3.13365 14.1316 3.14676 14.3938 3.30669ZM5.72464 4.01575C5.52167 4.08959 5.22101 4.42249 5.14254 4.66038C4.94964 5.24488 5.41942 5.87292 6.04957 5.87292C7.03768 5.87292 7.39688 4.52596 6.52855 4.07698C6.31522 3.96662 5.93841 3.93792 5.72464 4.01575ZM18.8403 12.606C18.8401 15.19 18.8308 15.3929 18.7039 15.601C18.4233 16.0613 18.3843 16.0662 15.0022 16.0662H11.9467L11.9991 15.9031C12.1491 15.4353 12.1706 15.0177 12.1722 12.5336L12.1739 9.8343H15.5072H18.8406L18.8403 12.606Z" fill="currentColor"/>
</svg>
