<svg xmlns="http://www.w3.org/2000/svg" width="20" height="21" viewBox="0 0 20 21" fill="none">
    <path fill-rule="evenodd" clip-rule="evenodd"
        d="M5.30558 2.36203C5.13493 2.42486 4.83312 2.62805 4.63485 2.81355C4.42732 3.0079 3.36833 4.44022 2.13725 6.19174L0 9.23261L0.000724516 12.5323L0.00144931 15.8321L0.173551 16.2018C0.376449 16.6375 0.753406 17.0351 1.17949 17.2628L1.48551 17.4263H10H18.5145L18.8128 17.2667C19.2984 17.007 19.5435 16.7586 19.7784 16.2886L20 15.8452V12.5633V9.28138L17.8221 6.1645C16.5067 4.28196 15.5151 2.93392 15.3181 2.76051C14.3542 1.91203 12.9193 2.11624 12.1057 3.21768L11.807 3.62196H10.7553C9.73529 3.62196 9.69819 3.62732 9.52572 3.79986C9.30978 4.01573 9.29348 4.33587 9.48623 4.57406C9.62428 4.74464 9.63 4.74522 11.4709 4.76667C13.1814 4.78667 13.3263 4.79841 13.4425 4.92682C13.6114 5.11348 13.5321 5.41667 13.2904 5.50855C13.1893 5.54703 12.5242 5.57848 11.8125 5.57848H10.5186L10.2586 5.88218C10.1035 6.06334 9.97362 6.15834 9.93667 6.11769C9.90254 6.08015 9.44254 5.42993 8.91435 4.67269C7.67449 2.89493 7.55536 2.75283 7.09442 2.50189C6.61638 2.24174 5.80522 2.17834 5.30558 2.36203ZM6.5929 3.56761C6.7379 3.66711 7.64493 4.88841 8.92058 6.70167L11.0107 9.67269L11.0126 12.5554C11.0146 15.674 11.0088 15.7265 10.6195 16.0857L10.4232 16.2669L6.15326 16.2867C1.43116 16.3086 1.59196 16.3232 1.30145 15.8467C1.16717 15.6265 1.15993 15.4624 1.15971 12.6208L1.15942 9.62696L3.27464 6.61957C4.49065 4.89066 5.4687 3.56928 5.57536 3.51131C5.86348 3.35457 6.31935 3.37979 6.5929 3.56761ZM14.3938 3.54363C14.5187 3.61979 14.7036 3.79087 14.8048 3.92377C15.2175 4.46602 18.2564 8.80711 18.2585 8.85747C18.2598 8.88732 17.2582 8.91058 16.0326 8.90906L13.8043 8.90631L13.6201 8.63732C13.5188 8.48935 13.2619 8.11812 13.0491 7.81232L12.6624 7.25638L12.8132 7.01239C12.9412 6.80522 13.0283 6.75508 13.3895 6.68044C14.6526 6.41957 15.1333 4.98247 14.2518 4.10232C14.0686 3.91942 13.8206 3.76087 13.6232 3.70058L13.2971 3.60102L13.5145 3.50609C13.8246 3.37058 14.1316 3.3837 14.3938 3.54363ZM5.72464 4.25269C5.52167 4.32653 5.22101 4.65942 5.14254 4.89732C4.94964 5.48182 5.41942 6.10986 6.04957 6.10986C7.03768 6.10986 7.39688 4.7629 6.52855 4.31392C6.31522 4.20355 5.93841 4.17486 5.72464 4.25269ZM18.8403 12.843C18.8401 15.427 18.8308 15.6299 18.7039 15.8379C18.4233 16.2982 18.3843 16.3031 15.0022 16.3031H11.9467L11.9991 16.1401C12.1491 15.6722 12.1706 15.2546 12.1722 12.7705L12.1739 10.0712H15.5072H18.8406L18.8403 12.843Z"
        fill="url(#paint0_linear_14_1978)" />
    <defs>
        <linearGradient id="paint0_linear_14_1978" x1="-1.12923e-07" y1="2.06433" x2="21.0148"
            y2="3.62956" gradientUnits="userSpaceOnUse">
            <stop stop-color="#2091F6" />
            <stop offset="1" stop-color="#21B568" />
        </linearGradient>
    </defs>
</svg>