<svg width="30" height="23" viewBox="0 0 30 23" fill="none" xmlns="http://www.w3.org/2000/svg">
<path fill-rule="evenodd" clip-rule="evenodd" d="M7.95837 0.187642C7.70239 0.281881 7.24967 0.586664 6.95228 0.864924C6.64098 1.15645 5.0525 3.30492 3.20587 5.93221L0 10.4935L0.00108677 15.4431L0.00217396 20.3927L0.260326 20.9473C0.564674 21.6009 1.13011 22.1972 1.76924 22.5387L2.22826 22.7841H15H27.7717L28.2191 22.5447C28.9476 22.155 29.3153 21.7825 29.6676 21.0775L30 20.4124V15.4896V10.5667L26.7332 5.89134C24.7601 3.06753 23.2726 1.04547 22.9772 0.785359C21.5313 -0.487358 19.379 -0.181054 18.1585 1.47112L17.7105 2.07753H16.1329C14.6029 2.07753 14.5473 2.08558 14.2886 2.34438C13.9647 2.66819 13.9402 3.1484 14.2293 3.50569C14.4364 3.76155 14.445 3.76242 17.2063 3.7946C19.7721 3.8246 19.9895 3.84221 20.1637 4.03482C20.4171 4.31482 20.2982 4.7696 19.9355 4.90742C19.7839 4.96514 18.7863 5.01232 17.7188 5.01232H15.7778L15.3879 5.46786C15.1553 5.7396 14.9604 5.8821 14.905 5.82112C14.8538 5.76482 14.1638 4.78949 13.3715 3.65362C11.5117 0.986989 11.333 0.773837 10.6416 0.397424C9.92457 0.00720677 8.70783 -0.087902 7.95837 0.187642ZM9.88935 1.99601C10.1068 2.14525 11.4674 3.97721 13.3809 6.6971L16.5161 11.1536L16.5189 15.4777C16.522 20.1556 16.5133 20.2343 15.9292 20.7732L15.6348 21.0449L9.22989 21.0746C2.14674 21.1074 2.38793 21.1294 1.95217 20.4146C1.75076 20.0844 1.73989 19.8382 1.73957 15.5758L1.73913 11.085L4.91196 6.57395C6.73598 3.98058 8.20304 1.99851 8.36304 1.91155C8.79522 1.67645 9.47902 1.71427 9.88935 1.99601ZM21.5907 1.96003C21.778 2.07427 22.0554 2.3309 22.2072 2.53025C22.8262 3.34362 27.3846 9.85525 27.3878 9.93079C27.3897 9.97558 25.8873 10.0105 24.0489 10.0082L20.7065 10.0041L20.4302 9.60058C20.2782 9.37862 19.8928 8.82177 19.5737 8.36308L18.9936 7.52916L19.2198 7.16318C19.4118 6.85242 19.5425 6.77721 20.0842 6.66525C21.9789 6.27395 22.6999 4.11829 21.3777 2.79808C21.1029 2.52373 20.7309 2.2859 20.4348 2.19547L19.9457 2.04612L20.2717 1.90373C20.7368 1.70047 21.1974 1.72014 21.5907 1.96003ZM8.58696 3.02362C8.2825 3.13438 7.83152 3.63373 7.7138 3.99058C7.42446 4.86732 8.12913 5.80938 9.07435 5.80938C10.5565 5.80938 11.0953 3.78895 9.79283 3.11547C9.47283 2.94992 8.90761 2.90688 8.58696 3.02362ZM28.2604 15.9091C28.2601 19.785 28.2462 20.0894 28.0559 20.4014C27.6349 21.0919 27.5764 21.0993 22.5034 21.0993H17.9201L17.9986 20.8547C18.2237 20.153 18.2559 19.5266 18.2583 15.8004L18.2609 11.7514H23.2609H28.2609L28.2604 15.9091Z" fill="url(#paint0_linear_2996_272724)"/>
<defs>
<linearGradient id="paint0_linear_2996_272724" x1="-1.69384e-07" y1="-0.258907" x2="31.5221" y2="2.08893" gradientUnits="userSpaceOnUse">
<stop stop-color="#2091F6"/>
<stop offset="1" stop-color="#21B568"/>
</linearGradient>
</defs>
</svg>
