<svg width="30" height="30" viewBox="0 0 30 30" fill="none" xmlns="http://www.w3.org/2000/svg">
<rect width="30" height="30" rx="7" fill="#1B4774"/>
<g clip-path="url(#clip0_36_5852)">
<path d="M4.89888 11.1649C5.49438 11.1649 5.80899 10.828 5.80899 10.244V7.59366C5.80899 6.42573 6.42697 5.83053 7.55056 5.83053H10.2697C10.8652 5.83053 11.191 5.50484 11.191 4.92088C11.191 4.33691 10.8652 4.02246 10.2697 4.02246H7.52809C5.17977 4.02246 4 5.17917 4 7.49259V10.244C4 10.828 4.32584 11.1649 4.89888 11.1649ZM25.0899 11.1649C25.6854 11.1649 26 10.828 26 10.244V7.49259C26 5.17917 24.8202 4.02246 22.4719 4.02246H19.7191C19.1348 4.02246 18.809 4.33691 18.809 4.92088C18.809 5.50484 19.1348 5.83053 19.7191 5.83053H22.4382C23.5506 5.83053 24.191 6.42573 24.191 7.59366V10.244C24.191 10.828 24.5168 11.1649 25.0899 11.1649ZM7.52809 26H10.2697C10.8652 26 11.191 25.6743 11.191 25.1015C11.191 24.5176 10.8652 24.1919 10.2697 24.1919H7.55056C6.42697 24.1919 5.80899 23.5967 5.80899 22.4288V19.7784C5.80899 19.1832 5.48314 18.8575 4.89888 18.8575C4.31461 18.8575 4 19.1832 4 19.7784V22.5186C4 24.8432 5.17977 26 7.52809 26ZM19.7191 26H22.4719C24.8202 26 26 24.832 26 22.5186V19.7784C26 19.1832 25.6742 18.8575 25.0899 18.8575C24.5056 18.8575 24.191 19.1832 24.191 19.7784V22.4288C24.191 23.5967 23.5506 24.1919 22.4382 24.1919H19.7191C19.1348 24.1919 18.809 24.5176 18.809 25.1015C18.809 25.6743 19.1348 26 19.7191 26Z" fill="white" fill-opacity="0.85"/>
<path d="M10.1013 20.3962H14.0114C14.2923 20.3962 14.5058 20.1829 14.5058 19.9021V15.994C14.5058 15.7132 14.2923 15.4999 14.0114 15.4999H10.1013C9.82041 15.4999 9.60693 15.7132 9.60693 15.994V19.9021C9.60693 20.1829 9.82041 20.3962 10.1013 20.3962ZM10.5845 19.4192V16.4769H13.5283V19.4192H10.5845ZM11.4384 18.5544H12.6743V17.3304H11.4384V18.5544ZM10.1013 14.5228H14.0114C14.2923 14.5228 14.5058 14.3095 14.5058 14.0399V10.1206C14.5058 9.85107 14.2923 9.62646 14.0114 9.62646H10.1013C9.82041 9.62646 9.60693 9.85107 9.60693 10.1206V14.0399C9.60693 14.3095 9.82041 14.5228 10.1013 14.5228ZM10.5845 13.5458V10.6035H13.5283V13.5458H10.5845ZM11.4384 12.6923H12.6743V11.457H11.4384V12.6923ZM15.9665 14.5228H19.8766C20.1575 14.5228 20.371 14.3095 20.371 14.0399V10.1206C20.371 9.85107 20.1575 9.62646 19.8766 9.62646H15.9665C15.6855 9.62646 15.4721 9.85107 15.4721 10.1206V14.0399C15.4721 14.3095 15.6855 14.5228 15.9665 14.5228ZM16.4496 13.5458V10.6035H19.3934V13.5458H16.4496ZM17.3148 12.6923H18.5395V11.457H17.3148V12.6923ZM15.6182 20.2503H16.8429V19.0261H15.6182V20.2503ZM19.0002 20.2503H20.2249V19.0261H19.0002V20.2503ZM17.3036 18.5544H18.5395V17.3304H17.3036V18.5544ZM15.6182 16.8587H16.8429V15.6346H15.6182V16.8587ZM19.0002 16.8587H20.2249V15.6346H19.0002V16.8587Z" fill="white" fill-opacity="0.85"/>
</g>
<defs>
<clipPath id="clip0_36_5852">
<rect width="22" height="22" fill="white" transform="translate(4 4)"/>
</clipPath>
</defs>
</svg>
