<svg xmlns="http://www.w3.org/2000/svg" width="64" height="64" viewBox="0 0 64 64" fill="none">
    <path fill-rule="evenodd" clip-rule="evenodd" d="M38.465 9.98325C35.479 5.20562 28.521 5.20561 25.535 9.98324L1.17103 48.9656C-2.00263 54.0434 1.648 60.6301 7.63605 60.6301H56.3639C62.352 60.6301 66.0026 54.0434 62.829 48.9656L38.465 9.98325ZM28.4718 26.4546C28.3186 24.3238 30.006 22.5108 32.1423 22.5108C34.2786 22.5108 35.9659 24.3238 35.8128 26.4545L34.7499 41.244C34.6516 42.6116 33.5134 43.6709 32.1423 43.6709C30.7711 43.6709 29.633 42.6116 29.5347 41.244L28.4718 26.4546ZM32.0988 53.7513C30.0132 53.7513 28.3621 52.0568 28.3621 50.0146C28.3621 47.929 30.0132 46.2345 32.0988 46.2345C34.1844 46.2345 35.879 47.929 35.879 50.0146C35.879 52.0568 34.1844 53.7513 32.0988 53.7513Z" fill="url(#paint0_linear_2836_80287)"/>
    <defs>
        <linearGradient id="paint0_linear_2836_80287" x1="-3.61353e-07" y1="5.78378" x2="67.3203" y2="10.2779" gradientUnits="userSpaceOnUse">
            <stop stop-color="#2091F6"/>
            <stop offset="1" stop-color="#21B568"/>
        </linearGradient>
    </defs>
</svg>
