<svg width="30" height="31" viewBox="0 0 30 31" fill="none" xmlns="http://www.w3.org/2000/svg">
<path fill-rule="evenodd" clip-rule="evenodd" d="M1.3807 0.5C0.618159 0.5 0 1.11816 0 1.8807V13.1193C0 13.8818 0.618159 14.5 1.3807 14.5H28.6193C29.3818 14.5 30 13.8818 30 13.1193V1.8807C30 1.11816 29.3818 0.5 28.6193 0.5H1.3807ZM26 7.49999C26 9.15684 24.6568 10.5 23 10.5C21.3431 10.5 20 9.15684 20 7.49999C20 5.84314 21.3431 4.49999 23 4.49999C24.6568 4.49999 26 5.84314 26 7.49999ZM8 5.00001C8 4.17158 8.67157 3.50001 9.5 3.50001C10.3284 3.50001 11 4.17158 11 5.00001V10C11 10.8284 10.3284 11.5 9.5 11.5C8.67157 11.5 8 10.8284 8 10V5.00001ZM4.50001 3.50001C3.67158 3.50001 3.00001 4.17158 3.00001 5.00001V10C3.00001 10.8284 3.67158 11.5 4.50001 11.5C5.32844 11.5 6.00001 10.8284 6.00001 10V5.00001C6.00001 4.17158 5.32844 3.50001 4.50001 3.50001ZM13 5.00001C13 4.17158 13.6716 3.50001 14.5 3.50001C15.3284 3.50001 16 4.17158 16 5.00001V10C16 10.8284 15.3284 11.5 14.5 11.5C13.6716 11.5 13 10.8284 13 10V5.00001ZM14.3807 17.5C13.6182 17.5 13 18.1182 13 18.8807V23.0352C12.3927 23.3864 11.8864 23.8928 11.5351 24.5H1.3807C0.618159 24.5 0 25.1182 0 25.8807V27.1193C0 27.8819 0.618159 28.5 1.3807 28.5H11.5351C12.2268 29.6956 13.5194 30.5 15 30.5C16.4806 30.5 17.7733 29.6956 18.4649 28.5H28.6193C29.3818 28.5 30 27.8819 30 27.1193V25.8807C30 25.1182 29.3818 24.5 28.6193 24.5H18.4649C18.1136 23.8928 17.6073 23.3864 17 23.0351V18.8807C17 18.1182 16.3818 17.5 15.6193 17.5H14.3807Z" fill="currentColor"/>
</svg>
