<svg width="14" height="14" viewBox="0 0 14 14" fill="none" xmlns="http://www.w3.org/2000/svg">
<path fill-rule="evenodd" clip-rule="evenodd" d="M0.933333 0C0.417868 0 0 0.417867 0 0.933333V5.6C0 6.11547 0.417868 6.53333 0.933333 6.53333H13.0667C13.5821 6.53333 14 6.11547 14 5.6V0.933333C14 0.417868 13.5821 0 13.0667 0H0.933333ZM12.1333 3.26654C12.1333 4.03974 11.5065 4.66654 10.7333 4.66654C9.96014 4.66654 9.33333 4.03974 9.33333 3.26654C9.33333 2.49334 9.96014 1.86654 10.7333 1.86654C11.5065 1.86654 12.1333 2.49334 12.1333 3.26654ZM3.73307 2.09974C3.73307 1.71314 4.04647 1.39974 4.43307 1.39974C4.81967 1.39974 5.13307 1.71314 5.13307 2.09974V4.43307C5.13307 4.81967 4.81967 5.13307 4.43307 5.13307C4.04647 5.13307 3.73307 4.81967 3.73307 4.43307V2.09974ZM2.09974 1.39974C1.71314 1.39974 1.39974 1.71314 1.39974 2.09974V4.43307C1.39974 4.81967 1.71314 5.13307 2.09974 5.13307C2.48634 5.13307 2.79974 4.81967 2.79974 4.43307V2.09974C2.79974 1.71314 2.48634 1.39974 2.09974 1.39974ZM6.06641 2.09974C6.06641 1.71314 6.37981 1.39974 6.76641 1.39974C7.15301 1.39974 7.46641 1.71314 7.46641 2.09974V4.43307C7.46641 4.81967 7.15301 5.13307 6.76641 5.13307C6.37981 5.13307 6.06641 4.81967 6.06641 4.43307V2.09974ZM6.99974 7.93359C6.48427 7.93359 6.06641 8.35146 6.06641 8.86693V10.5169C5.78311 10.6809 5.5469 10.9171 5.38304 11.2005H0.933333C0.417867 11.2005 0 11.6184 0 12.1339C0 12.6493 0.417867 13.0672 0.933332 13.0672H5.38334C5.70613 13.625 6.30931 14.0003 7.00013 14.0003C7.69095 14.0003 8.29413 13.625 8.61692 13.0672H13.0667C13.5821 13.0672 14 12.6493 14 12.1339C14 11.6184 13.5821 11.2005 13.0667 11.2005H8.61722C8.45321 10.9169 8.21672 10.6804 7.93307 10.5164V8.86693C7.93307 8.35146 7.5152 7.93359 6.99974 7.93359Z" fill="white"/>
</svg>
