<svg width="14" height="14" viewBox="0 0 14 14" fill="none" xmlns="http://www.w3.org/2000/svg">
<path fill-rule="evenodd" clip-rule="evenodd" d="M1.67558 1.67567C1.30801 2.04324 1.30801 2.63918 1.67558 3.00675L5.66883 7L1.67559 10.9932C1.30802 11.3608 1.30802 11.9568 1.67559 12.3243C2.04316 12.6919 2.6391 12.6919 3.00667 12.3243L6.99991 8.33108L10.9931 12.3243C11.3607 12.6919 11.9566 12.6919 12.3242 12.3243C12.6918 11.9567 12.6918 11.3608 12.3242 10.9932L8.33098 7L12.3242 3.00675C12.6918 2.63919 12.6918 2.04324 12.3242 1.67567C11.9567 1.30811 11.3607 1.30811 10.9931 1.67567L6.99991 5.66892L3.00666 1.67567C2.63909 1.3081 2.04315 1.3081 1.67558 1.67567Z" fill="currentColor"/>
</svg>
