<svg width="14" height="14" viewBox="0 0 14 14" fill="none" xmlns="http://www.w3.org/2000/svg">
    <path fill-rule="evenodd" clip-rule="evenodd" d="M12.5053 7.63111L13.4665 5.96629C14.5647 4.06408 13.913 1.63173 12.0108 0.533491C10.1086 -0.56475 7.67624 0.0869989 6.578 1.98921L5.61681 3.65403L6.79965 4.33694L7.76084 2.67212C8.48191 1.42318 10.0789 0.995254 11.3279 1.71633C12.5768 2.43741 13.0047 4.03443 12.2837 5.28337L11.3225 6.9482L12.5053 7.63111ZM1.75487 7.63111L2.71643 5.96563L3.89927 6.64855L2.93771 8.31403C2.21663 9.56297 2.64455 11.16 3.89349 11.8811C5.14244 12.6021 6.73946 12.1742 7.46054 10.9253L8.4221 9.25981L9.60494 9.94272L8.64338 11.6082C7.54514 13.5104 5.11279 14.1622 3.21058 13.0639C1.30837 11.9657 0.656626 9.53332 1.75487 7.63111ZM0.0191084 3.1167C0.0958076 2.84129 0.381247 2.6802 0.656656 2.7569L2.25932 3.20323C2.53473 3.27993 2.69581 3.56537 2.61911 3.84078C2.54241 4.11619 2.25697 4.27728 1.98156 4.20058L0.378903 3.75425C0.103495 3.67755 -0.0575909 3.39211 0.0191084 3.1167ZM2.07153 0.964927C1.93301 0.714833 2.02347 0.399805 2.27356 0.261293C2.52366 0.12278 2.83868 0.213235 2.9772 0.463329L3.78323 1.91868C3.92174 2.16877 3.83129 2.4838 3.58119 2.62231C3.3311 2.76082 3.01607 2.67037 2.87756 2.42028L2.07153 0.964927ZM13.7853 8.93818C13.7491 9.22177 13.4898 9.42233 13.2063 9.38615L11.556 9.1756C11.2724 9.13942 11.0718 8.88019 11.108 8.5966C11.1442 8.31301 11.4034 8.11245 11.687 8.14863L13.3373 8.35918C13.6209 8.39536 13.8214 8.65459 13.7853 8.93818ZM12.0648 11.3634C12.238 11.5909 12.1939 11.9157 11.9664 12.0888C11.7389 12.262 11.4141 12.2179 11.241 11.9904L10.2335 10.6665C10.0603 10.439 10.1044 10.1142 10.3319 9.94107C10.5594 9.76794 10.8842 9.81202 11.0573 10.0395L12.0648 11.3634Z" fill="currentColor"/>
</svg>
