<svg width="14" height="14" viewBox="0 0 14 14" fill="none" xmlns="http://www.w3.org/2000/svg">
<path fill-rule="evenodd" clip-rule="evenodd" d="M10 3.25H6C5.58579 3.25 5.25 3.58579 5.25 4H8C9.10457 4 10 4.89543 10 6V8.75C10.4142 8.75 10.75 8.41421 10.75 8V4C10.75 3.58579 10.4142 3.25 10 3.25ZM4 4C4 2.89543 4.89543 2 6 2H10C11.1046 2 12 2.89543 12 4V8C12 9.10457 11.1046 10 10 10C10 11.1046 9.10457 12 8 12H4C2.89543 12 2 11.1046 2 10V6C2 4.89543 2.89543 4 4 4ZM3.3 6C3.3 5.6134 3.6134 5.3 4 5.3H8C8.3866 5.3 8.7 5.6134 8.7 6V10C8.7 10.3866 8.3866 10.7 8 10.7H4C3.6134 10.7 3.3 10.3866 3.3 10V6Z" fill="currentColor"/>
</svg>
