<svg width="14" height="23" viewBox="0 0 14 23" fill="none" xmlns="http://www.w3.org/2000/svg">
<path class="fill"  fill-rule="evenodd" clip-rule="evenodd" d="M12.1656 6.74553C12.1656 9.35714 10.3419 11.5411 7.90323 12.0837V13.1642L9.79752 15.0661L7.90323 16.9679L9.79752 18.8696L6.95608 21.7224L5.06179 19.8206V11.9553C2.86461 11.2512 1.27344 9.18494 1.27344 6.74553C1.27344 3.7258 3.71173 1.27783 6.71953 1.27783C9.72731 1.27783 12.1656 3.7258 12.1656 6.74553ZM8.3768 5.7947C8.3768 6.71375 7.63471 7.45879 6.7193 7.45879C5.80388 7.45879 5.06179 6.71375 5.06179 5.7947C5.06179 4.87566 5.80388 4.13062 6.7193 4.13062C7.63471 4.13062 8.3768 4.87566 8.3768 5.7947Z" fill="transparent"/>
<path class="stroke" d="M7.90287 12.0837L7.76518 11.4599L7.26651 11.5709V12.0837H7.90287ZM7.90287 13.1642H7.26651V13.4288L7.4529 13.616L7.90287 13.1642ZM9.79716 15.066L10.2471 15.5177L10.6971 15.066L10.2471 14.6142L9.79716 15.066ZM7.90287 16.9679L7.4529 16.5161L7.00291 16.9679L7.4529 17.4196L7.90287 16.9679ZM9.79716 18.8696L10.2471 19.3214L10.6971 18.8696L10.2471 18.4179L9.79716 18.8696ZM6.95572 21.7224L6.50575 22.1741L6.95572 22.6259L7.40571 22.1741L6.95572 21.7224ZM5.06143 19.8205H4.42507V20.0852L4.61146 20.2724L5.06143 19.8205ZM5.06143 11.9553H5.6978V11.4886L5.25494 11.3467L5.06143 11.9553ZM8.04057 12.7075C10.7643 12.1014 12.8016 9.66307 12.8016 6.74551H11.5289C11.5289 9.05115 9.91872 10.9808 7.76518 11.4599L8.04057 12.7075ZM8.53923 13.1642V12.0837H7.26651V13.1642H8.53923ZM10.2471 14.6142L8.35284 12.7125L7.4529 13.616L9.34719 15.5177L10.2471 14.6142ZM8.35284 17.4196L10.2471 15.5177L9.34719 14.6142L7.4529 16.5161L8.35284 17.4196ZM10.2471 18.4179L8.35284 16.5161L7.4529 17.4196L9.34719 19.3214L10.2471 18.4179ZM7.40571 22.1741L10.2471 19.3214L9.34719 18.4179L6.50575 21.2706L7.40571 22.1741ZM4.61146 20.2724L6.50575 22.1741L7.40571 21.2706L5.51142 19.3688L4.61146 20.2724ZM4.42507 11.9553V19.8205H5.6978V11.9553H4.42507ZM0.636719 6.74551C0.636719 9.47092 2.41463 11.7778 4.86794 12.5639L5.25494 11.3467C3.31388 10.7246 1.90945 8.89889 1.90945 6.74551H0.636719ZM6.71917 0.638916C3.35992 0.638916 0.636719 3.37293 0.636719 6.74551H1.90945C1.90945 4.07863 4.06284 1.91669 6.71917 1.91669V0.638916ZM12.8016 6.74551C12.8016 3.37293 10.0784 0.638916 6.71917 0.638916V1.91669C9.37551 1.91669 11.5289 4.07863 11.5289 6.74551H12.8016ZM6.71894 8.09765C7.98582 8.09765 9.0128 7.06657 9.0128 5.79467H7.74008C7.74008 6.36087 7.2829 6.81987 6.71894 6.81987V8.09765ZM4.42507 5.79467C4.42507 7.06657 5.45207 8.09765 6.71894 8.09765V6.81987C6.15498 6.81987 5.6978 6.36087 5.6978 5.79467H4.42507ZM6.71894 3.49171C5.45207 3.49171 4.42507 4.52279 4.42507 5.79467H5.6978C5.6978 5.22848 6.15498 4.76949 6.71894 4.76949V3.49171ZM9.0128 5.79467C9.0128 4.52279 7.98582 3.49171 6.71894 3.49171V4.76949C7.2829 4.76949 7.74008 5.22848 7.74008 5.79467H9.0128Z" fill="currentColor"/>
</svg>
