<svg width="20" height="20" viewBox="0 0 20 20" fill="none" xmlns="http://www.w3.org/2000/svg">
<path class="fill"  fill-rule="evenodd" clip-rule="evenodd"  d="M4 0H5.71429V2H4C2.89543 2 2 2.89543 2 4V5.71428H0V4C0 1.79086 1.79086 0 4 0ZM0 14.2857V16C0 18.2091 1.79086 20 4 20H5.71429V18H4C2.89543 18 2 17.1046 2 16V14.2857H0ZM18 14.2857V16C18 17.1046 17.1046 18 16 18H14.2857V20H16C18.2091 20 20 18.2091 20 16V14.2857H18ZM20 5.71429V4C20 1.79086 18.2091 0 16 0H14.2857V2H16C17.1046 2 18 2.89543 18 4V5.71429H20Z" fill="white"/>
<path d="M10.5607 10.7037L10.4525 10.2156L10.0607 10.3024V10.7037H10.5607ZM10.5607 11.3454H10.0607V11.5526L10.2071 11.699L10.5607 11.3454ZM11.6902 12.475L12.0438 12.8286L12.3973 12.475L12.0438 12.1215L11.6902 12.475ZM10.5607 13.6046L10.2071 13.251L9.85356 13.6046L10.2071 13.9581L10.5607 13.6046ZM11.6902 14.7341L12.0438 15.0877L12.3973 14.7341L12.0438 14.3806L11.6902 14.7341ZM9.99588 16.4285L9.64233 16.7821L9.99588 17.1356L10.3494 16.7821L9.99588 16.4285ZM8.86631 15.2989H8.36631V15.506L8.51276 15.6525L8.86631 15.2989ZM8.86631 10.6275H9.36631V10.2622L9.01833 10.1512L8.86631 10.6275ZM10.6689 11.1919C12.347 10.8199 13.6022 9.32369 13.6022 7.53315H12.6022C12.6022 8.84482 11.6826 9.94287 10.4525 10.2156L10.6689 11.1919ZM11.0607 11.3454V10.7037H10.0607V11.3454H11.0607ZM12.0438 12.1215L10.9142 10.9919L10.2071 11.699L11.3367 12.8286L12.0438 12.1215ZM10.9142 13.9581L12.0438 12.8286L11.3367 12.1215L10.2071 13.251L10.9142 13.9581ZM12.0438 14.3806L10.9142 13.251L10.2071 13.9581L11.3367 15.0877L12.0438 14.3806ZM10.3494 16.7821L12.0438 15.0877L11.3367 14.3806L9.64233 16.0749L10.3494 16.7821ZM8.51276 15.6525L9.64233 16.7821L10.3494 16.0749L9.21987 14.9454L8.51276 15.6525ZM8.36631 10.6275V15.2989H9.36631V10.6275H8.36631ZM6.10718 7.53315C6.10718 9.20591 7.2028 10.6215 8.7143 11.1039L9.01833 10.1512C7.90933 9.79726 7.10718 8.75823 7.10718 7.53315H6.10718ZM9.85469 3.78564C7.78499 3.78564 6.10718 5.46346 6.10718 7.53315H7.10718C7.10718 6.01575 8.33728 4.78564 9.85469 4.78564V3.78564ZM13.6022 7.53315C13.6022 5.46346 11.9244 3.78564 9.85469 3.78564V4.78564C11.3721 4.78564 12.6022 6.01575 12.6022 7.53315H13.6022ZM9.85469 8.45674C10.6767 8.45674 11.3431 7.79037 11.3431 6.96837H10.3431C10.3431 7.23809 10.1244 7.45674 9.85469 7.45674V8.45674ZM8.36631 6.96837C8.36631 7.79037 9.03268 8.45674 9.85469 8.45674V7.45674C9.58497 7.45674 9.36631 7.23809 9.36631 6.96837H8.36631ZM9.85469 5.48C9.03268 5.48 8.36631 6.14636 8.36631 6.96837H9.36631C9.36631 6.69865 9.58497 6.48 9.85469 6.48V5.48ZM11.3431 6.96837C11.3431 6.14636 10.6767 5.48 9.85469 5.48V6.48C10.1244 6.48 10.3431 6.69865 10.3431 6.96837H11.3431Z" fill="white"/>
</svg>
