<svg width="21" height="20" viewBox="0 0 21 20" fill="none" xmlns="http://www.w3.org/2000/svg">
<path fill-rule="evenodd" clip-rule="evenodd" d="M10.5 20C16.0228 20 20.5 15.5228 20.5 10C20.5 4.47715 16.0228 0 10.5 0C4.97715 0 0.5 4.47715 0.5 10C0.5 15.5228 4.97715 20 10.5 20ZM5.55025 8.9598L10.005 4.50503C10.2784 4.23166 10.7216 4.23166 10.995 4.50503L15.4497 8.9598C15.7231 9.23316 15.7231 9.67638 15.4497 9.94975C15.1764 10.2231 14.7332 10.2231 14.4598 9.94975L11.2 6.68995V15C11.2 15.3866 10.8866 15.7 10.5 15.7C10.1134 15.7 9.8 15.3866 9.8 15L9.8 6.68995L6.5402 9.94975C6.26684 10.2231 5.82362 10.2231 5.55025 9.94975C5.27689 9.67638 5.27689 9.23316 5.55025 8.9598Z" fill="url(#paint0_linear_1_9439)"/>
<defs>
<linearGradient id="paint0_linear_1_9439" x1="0.5" y1="-0.227271" x2="21.5639" y2="0.964249" gradientUnits="userSpaceOnUse">
<stop stop-color="#2091F6"/>
<stop offset="1" stop-color="#21B568"/>
</linearGradient>
</defs>
</svg>
