<svg width="12" height="12" viewBox="0 0 12 12" fill="none" xmlns="http://www.w3.org/2000/svg">
<path d="M6.00309 12C5.17962 12 4.40556 11.8415 3.68091 11.5244C2.96037 11.2115 2.32424 10.7792 1.77252 10.2275C1.22079 9.67576 0.786413 9.03963 0.469377 8.31909C0.156459 7.59444 0 6.82038 0 5.99691C0 5.17756 0.156459 4.40556 0.469377 3.68091C0.782295 2.95625 1.21462 2.31806 1.76634 1.76634C2.32218 1.21462 2.96037 0.782295 3.68091 0.469377C4.40556 0.156459 5.17756 0 5.99691 0C6.81626 0 7.58827 0.156459 8.31292 0.469377C9.03757 0.782295 9.67576 1.21462 10.2275 1.76634C10.7792 2.31806 11.2115 2.95625 11.5244 3.68091C11.8415 4.40556 12 5.17756 12 5.99691C12 6.82038 11.8435 7.59444 11.5306 8.31909C11.2177 9.03963 10.7854 9.67576 10.2337 10.2275C9.68194 10.7792 9.04375 11.2115 8.31909 11.5244C7.59444 11.8415 6.82244 12 6.00309 12ZM6.00309 10.9007C6.68245 10.9007 7.31858 10.773 7.91148 10.5178C8.50437 10.2666 9.02522 9.91662 9.47401 9.46783C9.9228 9.01904 10.2728 8.4982 10.5239 7.9053C10.7751 7.3124 10.9007 6.67627 10.9007 5.99691C10.9007 5.31755 10.7751 4.68142 10.5239 4.08852C10.2728 3.49563 9.9228 2.97478 9.47401 2.52599C9.02522 2.0772 8.50232 1.72723 7.9053 1.47607C7.3124 1.22491 6.67627 1.09933 5.99691 1.09933C5.31755 1.09933 4.68142 1.22491 4.08852 1.47607C3.49974 1.72723 2.98096 2.0772 2.53217 2.52599C2.08338 2.97478 1.7334 3.49563 1.48224 4.08852C1.23109 4.68142 1.10551 5.31755 1.10551 5.99691C1.10551 6.67627 1.23109 7.3124 1.48224 7.9053C1.7334 8.4982 2.08338 9.01904 2.53217 9.46783C2.98096 9.91662 3.5018 10.2666 4.0947 10.5178C4.6876 10.773 5.32373 10.9007 6.00309 10.9007ZM5.99691 8.92434C5.86104 8.92434 5.74781 8.88111 5.65723 8.79465C5.56665 8.70407 5.52136 8.5929 5.52136 8.46114V5.62018L5.57077 4.4035L5.01493 5.08286L4.34174 5.77458C4.25116 5.86516 4.13999 5.91045 4.00823 5.91045C3.8806 5.91045 3.77355 5.86927 3.68708 5.78693C3.60062 5.70046 3.55739 5.59341 3.55739 5.46577C3.55739 5.33402 3.60062 5.22491 3.68708 5.13845L5.62635 3.193C5.74575 3.06948 5.86927 3.00772 5.99691 3.00772C6.13278 3.00772 6.26042 3.06948 6.37983 3.193L8.31909 5.13845C8.40556 5.22903 8.44879 5.33814 8.44879 5.46577C8.44879 5.59341 8.40556 5.70046 8.31909 5.78693C8.23263 5.86927 8.12558 5.91045 7.99794 5.91045C7.85795 5.91045 7.74472 5.86516 7.65826 5.77458L6.99125 5.08286L6.42923 4.39732L6.47864 5.62018V8.46114C6.47864 8.5929 6.43335 8.70407 6.34277 8.79465C6.25219 8.88111 6.1369 8.92434 5.99691 8.92434Z" fill="currentColor"/>
</svg>
