<svg width="13" height="12" viewBox="0 0 13 12" fill="none" xmlns="http://www.w3.org/2000/svg">
<path fill-rule="evenodd" clip-rule="evenodd" d="M6.44336 12C9.75707 12 12.4434 9.31371 12.4434 6C12.4434 2.68629 9.75707 0 6.44336 0C3.12965 0 0.443359 2.68629 0.443359 6C0.443359 9.31371 3.12965 12 6.44336 12ZM3.47351 5.37588L6.14637 2.70302C6.31039 2.539 6.57632 2.539 6.74034 2.70302L9.41321 5.37588C9.57723 5.5399 9.57723 5.80583 9.41321 5.96985C9.24919 6.13387 8.98326 6.13387 8.81924 5.96985L6.86336 4.01397L6.86336 9C6.86336 9.23196 6.67532 9.42 6.44336 9.42C6.2114 9.42 6.02336 9.23196 6.02336 9V4.01397L4.06748 5.96985C3.90346 6.13387 3.63753 6.13387 3.47351 5.96985C3.30949 5.80583 3.30949 5.5399 3.47351 5.37588Z" fill="currentColor"/>
</svg>
