<svg width="20" height="20" viewBox="0 0 20 20" fill="none" xmlns="http://www.w3.org/2000/svg">
<path fill-rule="evenodd" clip-rule="evenodd" d="M10 20C15.5228 20 20 15.5228 20 10C20 4.47715 15.5228 0 10 0C4.47715 0 0 4.47715 0 10C0 15.5228 4.47715 20 10 20ZM5.05025 8.9598L9.50502 4.50502C9.77839 4.23166 10.2216 4.23166 10.495 4.50502L14.9497 8.9598C15.2231 9.23317 15.2231 9.67638 14.9497 9.94975C14.6764 10.2231 14.2332 10.2231 13.9598 9.94975L10.7 6.68995L10.7 15C10.7 15.3866 10.3866 15.7 10 15.7C9.6134 15.7 9.3 15.3866 9.3 15V6.68995L6.0402 9.94975C5.76683 10.2231 5.32362 10.2231 5.05025 9.94975C4.77689 9.67638 4.77689 9.23316 5.05025 8.9598Z" fill="currentColor"/>
</svg>
