<svg width="15" height="14" viewBox="0 0 15 14" fill="none" xmlns="http://www.w3.org/2000/svg">
<g clip-path="url(#clip0_282_36826)">
<path d="M7.33816 13.9957C11.1054 13.9957 14.2156 10.8261 14.2156 6.99785C14.2156 3.16399 11.0999 0 7.33271 0C3.57212 0 0.461914 3.16399 0.461914 6.99785C0.461914 10.8261 3.57758 13.9957 7.33816 13.9957ZM7.33816 12.6172C4.27401 12.6172 1.82189 10.1162 1.82189 6.99785C1.82189 3.87951 4.26856 1.37848 7.33271 1.37848C10.3968 1.37848 12.8611 3.87951 12.8611 6.99785C12.8611 10.1162 10.4023 12.6172 7.33816 12.6172Z" fill="#798C94"/>
<path d="M7.33819 10.4156C7.67902 10.4156 7.92728 10.1739 7.92728 9.83189V6.62998L7.86688 5.23158L8.47997 6.00497L9.22236 6.79109C9.31848 6.90056 9.45986 6.96449 9.62189 6.96449C9.93313 6.96449 10.1678 6.72943 10.1678 6.42309C10.1678 6.25888 10.1121 6.1284 10.0052 6.01594L7.81119 3.74904C7.66798 3.59959 7.5206 3.52765 7.33819 3.52765C7.16244 3.52765 7.02052 3.59404 6.87181 3.74904L4.67119 6.01594C4.56548 6.1284 4.52075 6.25888 4.52075 6.42309C4.52075 6.72943 4.74988 6.96449 5.06115 6.96449C5.21891 6.96449 5.3603 6.89501 5.46069 6.79109L6.20972 5.99887L6.8107 5.23836L6.74906 6.62998V9.83189C6.74906 10.1739 7.00401 10.4156 7.33819 10.4156Z" fill="#798C94"/>
</g>
<defs>
<clipPath id="clip0_282_36826">
<rect width="14" height="14" fill="white" transform="translate(0.461914)"/>
</clipPath>
</defs>
</svg>
