<svg width="12" height="12" viewBox="0 0 12 12" fill="none" xmlns="http://www.w3.org/2000/svg">
<path d="M6 1.3125C4.71119 1.3125 3.65625 2.36744 3.65625 3.65625C3.65625 4.94506 4.71119 6 6 6C7.28881 6 8.34375 4.94506 8.34375 3.65625C8.34375 2.36744 7.28881 1.3125 6 1.3125ZM6 2.25C6.78207 2.25 7.40625 2.87418 7.40625 3.65625C7.40625 4.43832 6.78207 5.0625 6 5.0625C5.21794 5.0625 4.59375 4.43832 4.59375 3.65625C4.59375 2.87418 5.21794 2.25 6 2.25Z" fill="url(#paint0_linear_2671_235878)"/>
<path d="M6 5.53125C3.94357 5.53125 2.25 7.15391 2.25 9.16406C2.25 9.51352 2.46906 9.75811 2.69678 9.92761C2.92449 10.0971 3.20307 10.2246 3.53174 10.3341C4.18907 10.553 5.04846 10.6875 6 10.6875C6.95154 10.6875 7.81093 10.553 8.46826 10.3341C8.79693 10.2246 9.07551 10.0971 9.30322 9.92761C9.53094 9.75811 9.75 9.51352 9.75 9.16406C9.75 7.15391 8.05643 5.53125 6 5.53125ZM6 6.46875C7.56788 6.46875 8.8125 7.67931 8.8125 9.16406C8.8125 9.07828 8.84821 9.09735 8.74384 9.17505C8.63946 9.25274 8.43769 9.35591 8.17255 9.44421C7.64227 9.62082 6.86061 9.75 6 9.75C5.13939 9.75 4.35773 9.62082 3.82745 9.44421C3.56231 9.35591 3.36054 9.25274 3.25616 9.17505C3.15179 9.09735 3.1875 9.07828 3.1875 9.16406C3.1875 7.67931 4.43212 6.46875 6 6.46875Z" fill="url(#paint1_linear_2671_235878)"/>
<defs>
<linearGradient id="paint0_linear_2671_235878" x1="3.65625" y1="1.25923" x2="8.59311" y2="1.5385" gradientUnits="userSpaceOnUse">
<stop stop-color="#2091F6"/>
<stop offset="1" stop-color="#21B568"/>
</linearGradient>
<linearGradient id="paint1_linear_2671_235878" x1="2.25" y1="5.47266" x2="10.121" y2="6.12027" gradientUnits="userSpaceOnUse">
<stop stop-color="#2091F6"/>
<stop offset="1" stop-color="#21B568"/>
</linearGradient>
</defs>
</svg>
