<svg width="16" height="17" viewBox="0 0 16 17" fill="none" xmlns="http://www.w3.org/2000/svg">
<path d="M10.7856 3.5C9.51298 3.5 8.47766 4.56263 8.47766 5.86842C8.47766 7.17421 9.51298 8.23684 10.7856 8.23684C12.0583 8.23684 13.0936 7.17421 13.0936 5.86842C13.0936 4.56263 12.0583 3.5 10.7856 3.5ZM5.0836 4.28947C3.81096 4.28947 2.77564 5.35211 2.77564 6.65789C2.77564 7.96368 3.81096 9.02632 5.0836 9.02632C6.35624 9.02632 7.39156 7.96368 7.39156 6.65789C7.39156 5.35211 6.35624 4.28947 5.0836 4.28947ZM10.7856 4.55263C11.4593 4.55263 12.0075 5.14289 12.0075 5.86842C12.0075 6.59395 11.4593 7.18421 10.7856 7.18421C10.112 7.18421 9.56376 6.59395 9.56376 5.86842C9.56376 5.14289 10.112 4.55263 10.7856 4.55263ZM10.7851 8.79914C9.44945 8.79914 8.22711 9.27578 7.40641 10.0692C6.75906 9.76226 6.01097 9.58861 5.21936 9.58861C3.30674 9.58861 1.63875 10.5901 1.068 12.0809C0.804626 12.7685 1.33986 13.5 2.09524 13.5H8.34349C8.86624 13.5 9.28054 13.1513 9.40201 12.7105H13.7538C14.57 12.7105 15.2988 11.8801 14.876 11.0298C14.2026 9.67455 12.5964 8.79914 10.7851 8.79914ZM10.7856 9.85177C12.1609 9.85177 13.4118 10.5088 13.8975 11.4867C13.9407 11.5757 13.838 11.6579 13.7533 11.6579H9.16867C8.96023 11.2856 8.68043 10.952 8.34296 10.6669C8.96232 10.1596 9.84476 9.85177 10.7856 9.85177Z" fill="currentColor"/>
</svg>
