<svg width="17" height="16" viewBox="0 0 17 16" fill="none" xmlns="http://www.w3.org/2000/svg">
    <path fill-rule="evenodd" clip-rule="evenodd"
        d="M0 3.76C0 2.2136 1.2536 0.959999 2.8 0.959999H12.24C13.7864 0.959999 15.04 2.2136 15.04 3.76V4.23998C15.6144 4.23998 16.08 4.7056 16.08 5.27998C16.08 5.85435 15.6144 6.31998 15.04 6.31998V8.47998C15.6144 8.47998 16.08 8.9456 16.08 9.51998C16.08 10.0944 15.6144 10.56 15.04 10.56V11.04C15.04 12.5056 13.914 13.7081 12.48 13.8299L12.48 13.84C12.48 14.5469 11.9069 15.12 11.2 15.12C10.4931 15.12 9.92001 14.5469 9.92 13.84H5.12C5.11999 14.5469 4.54692 15.12 3.84 15.12C3.13308 15.12 2.56 14.5469 2.56 13.84L2.56004 13.8299C1.12597 13.7081 0 12.5056 0 11.04V3.76ZM9.28 10.96C11.224 10.96 12.8 9.38402 12.8 7.43998C12.8 5.49593 11.224 3.91998 9.28 3.91998C7.33596 3.91998 5.76 5.49593 5.76 7.43998C5.76 9.38402 7.33596 10.96 9.28 10.96ZM2.32 5.67998C2.32 5.3707 2.57072 5.11998 2.88 5.11998C3.18928 5.11998 3.44 5.3707 3.44 5.67998V9.19998C3.44 9.50926 3.18928 9.75998 2.88 9.75998C2.57072 9.75998 2.32 9.50926 2.32 9.19998V5.67998ZM9.28 9.75998C10.5613 9.75998 11.6 8.72128 11.6 7.43998C11.6 6.15868 10.5613 5.11998 9.28 5.11998C7.9987 5.11998 6.96 6.15868 6.96 7.43998C6.96 8.72128 7.9987 9.75998 9.28 9.75998Z"
        fill="currentColor" />
</svg>