<svg xmlns="http://www.w3.org/2000/svg" width="20" height="21" viewBox="0 0 20 21" fill="none">
    <g clip-path="url(#clip0_14_1975)">
        <path
            d="M3.33333 7.26819C3.33333 6.85829 3.66498 6.526 4.07407 6.526C4.48317 6.526 4.81482 6.85829 4.81482 7.26819V11.7213C4.81482 12.1312 4.48317 12.4635 4.07407 12.4635C3.66498 12.4635 3.33333 12.1312 3.33333 11.7213V7.26819Z"
            fill="url(#paint0_linear_14_1975)" />
        <path fill-rule="evenodd" clip-rule="evenodd"
            d="M12.2222 4.85608C9.66535 4.85608 7.59259 6.93288 7.59259 9.49475C7.59259 12.0566 9.66535 14.1334 12.2222 14.1334C14.7791 14.1334 16.8519 12.0566 16.8519 9.49475C16.8519 6.93288 14.7791 4.85608 12.2222 4.85608ZM8.70371 9.49475C8.70371 7.54773 10.279 5.96936 12.2222 5.96936C14.1654 5.96936 15.7407 7.54773 15.7407 9.49475C15.7407 11.4418 14.1654 13.0201 12.2222 13.0201C10.279 13.0201 8.70371 11.4418 8.70371 9.49475Z"
            fill="url(#paint1_linear_14_1975)" />
        <path fill-rule="evenodd" clip-rule="evenodd"
            d="M0 5.04163C0 2.99213 1.68949 1.33069 3.77359 1.33069H16.2264C18.3105 1.33069 20 2.99213 20 5.04163V13.9479C20 15.8509 18.5433 17.4194 16.6667 17.6338V17.6588C16.6667 18.4786 16.0034 19.1432 15.1852 19.1432C14.367 19.1432 13.7037 18.4786 13.7037 17.6588H6.2963C6.2963 18.4786 5.63302 19.1432 4.81482 19.1432C3.99662 19.1432 3.33333 18.4786 3.33333 17.6588V17.6338C1.45667 17.4194 0 15.8509 0 13.9479V5.04163ZM3.77359 2.44397H16.2264C17.6853 2.44397 18.8679 3.60698 18.8679 5.04163V13.9479C18.8679 15.3825 17.6853 16.5455 16.2264 16.5455H3.77358C2.31472 16.5455 1.13208 15.3825 1.13208 13.9479V5.04163C1.13208 3.60698 2.31472 2.44397 3.77359 2.44397Z"
            fill="url(#paint2_linear_14_1975)" />
        <path
            d="M12.2222 6.89709C10.7904 6.89709 9.62963 8.0601 9.62963 9.49475V9.70092C9.62963 9.90586 9.79545 10.072 10 10.072C10.2046 10.072 10.3704 9.90586 10.3704 9.70092V9.49475C10.3704 8.47 11.1995 7.63928 12.2222 7.63928C12.5834 7.63928 12.9193 7.74249 13.2036 7.92092C13.377 8.02972 13.6055 7.97711 13.7141 7.80342C13.8227 7.62973 13.7702 7.40073 13.5969 7.29194C13.1981 7.0417 12.7265 6.89709 12.2222 6.89709Z"
            fill="url(#paint3_linear_14_1975)" />
        <path
            d="M13.9316 8.02503C14.1065 7.91875 14.3342 7.97466 14.4403 8.1499C14.678 8.54258 14.8147 9.00348 14.8147 9.49526C14.8147 9.844 14.7459 10.1776 14.6209 10.4824C14.5431 10.672 14.3267 10.7625 14.1375 10.6845C13.9483 10.6066 13.858 10.3898 13.9358 10.2002C14.0247 9.98335 14.074 9.74553 14.074 9.49526C14.074 9.14298 13.9764 8.81468 13.8069 8.53476C13.7009 8.35952 13.7567 8.1313 13.9316 8.02503Z"
            fill="url(#paint4_linear_14_1975)" />
        <path
            d="M10.7407 9.49475C10.7407 8.67495 11.404 8.01038 12.2222 8.01038C13.0404 8.01038 13.7037 8.67495 13.7037 9.49475C13.7037 9.6997 13.5379 9.86584 13.3333 9.86584C13.1288 9.86584 12.963 9.6997 12.963 9.49475C12.963 9.08485 12.6313 8.75256 12.2222 8.75256C11.8131 8.75256 11.4815 9.08485 11.4815 9.49475V11.419C11.4815 11.6239 11.3157 11.79 11.1111 11.79C10.9066 11.79 10.7407 11.6239 10.7407 11.419V9.49475Z"
            fill="url(#paint5_linear_14_1975)" />
        <path
            d="M13.3333 10.2369C13.5379 10.2369 13.7037 10.4031 13.7037 10.608V11.4189C13.7037 11.6238 13.5379 11.79 13.3333 11.79C13.1288 11.79 12.963 11.6238 12.963 11.4189V10.608C12.963 10.4031 13.1288 10.2369 13.3333 10.2369Z"
            fill="url(#paint6_linear_14_1975)" />
        <path
            d="M12.5926 9.6803C12.5926 9.47535 12.4268 9.3092 12.2222 9.3092C12.0177 9.3092 11.8519 9.47535 11.8519 9.6803V11.7212C11.8519 11.9262 12.0177 12.0923 12.2222 12.0923C12.4268 12.0923 12.5926 11.9262 12.5926 11.7212V9.6803Z"
            fill="url(#paint7_linear_14_1975)" />
    </g>
    <defs>
        <linearGradient id="paint0_linear_14_1975" x1="-1.12923e-07" y1="1.12828" x2="21.0464"
            y2="2.46501" gradientUnits="userSpaceOnUse">
            <stop stop-color="#2091F6" />
            <stop offset="1" stop-color="#21B568" />
        </linearGradient>
        <linearGradient id="paint1_linear_14_1975" x1="-1.12923e-07" y1="1.12828" x2="21.0464"
            y2="2.46501" gradientUnits="userSpaceOnUse">
            <stop stop-color="#2091F6" />
            <stop offset="1" stop-color="#21B568" />
        </linearGradient>
        <linearGradient id="paint2_linear_14_1975" x1="-1.12923e-07" y1="1.12828" x2="21.0464"
            y2="2.46501" gradientUnits="userSpaceOnUse">
            <stop stop-color="#2091F6" />
            <stop offset="1" stop-color="#21B568" />
        </linearGradient>
        <linearGradient id="paint3_linear_14_1975" x1="-1.12923e-07" y1="1.12828" x2="21.0464"
            y2="2.46501" gradientUnits="userSpaceOnUse">
            <stop stop-color="#2091F6" />
            <stop offset="1" stop-color="#21B568" />
        </linearGradient>
        <linearGradient id="paint4_linear_14_1975" x1="-1.12923e-07" y1="1.12828" x2="21.0464"
            y2="2.46501" gradientUnits="userSpaceOnUse">
            <stop stop-color="#2091F6" />
            <stop offset="1" stop-color="#21B568" />
        </linearGradient>
        <linearGradient id="paint5_linear_14_1975" x1="-1.12923e-07" y1="1.12828" x2="21.0464"
            y2="2.46501" gradientUnits="userSpaceOnUse">
            <stop stop-color="#2091F6" />
            <stop offset="1" stop-color="#21B568" />
        </linearGradient>
        <linearGradient id="paint6_linear_14_1975" x1="-1.12923e-07" y1="1.12828" x2="21.0464"
            y2="2.46501" gradientUnits="userSpaceOnUse">
            <stop stop-color="#2091F6" />
            <stop offset="1" stop-color="#21B568" />
        </linearGradient>
        <linearGradient id="paint7_linear_14_1975" x1="-1.12923e-07" y1="1.12828" x2="21.0464"
            y2="2.46501" gradientUnits="userSpaceOnUse">
            <stop stop-color="#2091F6" />
            <stop offset="1" stop-color="#21B568" />
        </linearGradient>
        <clipPath id="clip0_14_1975">
            <rect width="20" height="20" fill="white" transform="translate(0 0.236938)" />
        </clipPath>
    </defs>
</svg>