<svg width="540" height="600" viewBox="0 0 540 600" fill="none" xmlns="http://www.w3.org/2000/svg">
<g clip-path="url(#clip0_2200_15487)">
<g filter="url(#filter0_f_2200_15487)">
<circle cx="270" cy="182" r="140" transform="rotate(90 270 182)" fill="url(#paint0_radial_2200_15487)" fill-opacity="0.6"/>
</g>
<g clip-path="url(#clip1_2200_15487)">
<path d="M264 260.5L264 305.035C264 316.081 255.046 325.035 244 325.035L197 325.035C185.954 325.035 177 333.99 177 345.035L177 462" stroke="url(#paint1_linear_2200_15487)" stroke-width="2" stroke-linecap="round" stroke-linejoin="round"/>
</g>
<g clip-path="url(#clip2_2200_15487)">
<path d="M276 260.5L276 305.035C276 316.081 284.954 325.035 296 325.035L343 325.035C354.046 325.035 363 333.99 363 345.035L363 462" stroke="url(#paint2_linear_2200_15487)" stroke-width="2" stroke-linecap="round" stroke-linejoin="round"/>
</g>
<mask id="path-4-inside-1_2200_15487" fill="white">
<path d="M247.127 90C259.936 90 272.08 94.8756 281.271 103.556C288.255 99.9798 295.977 98.1113 303.908 98.1113C331.218 98.1113 353.451 120.209 353.672 147.467C363.906 157.104 369.898 170.803 369.898 184.886C369.898 213.171 346.898 236.173 318.612 236.173C317.923 236.173 317.23 236.159 316.538 236.131C306.763 250.97 290.193 260 272.223 260C253.434 260 236.071 249.963 226.575 233.988C225.233 234.093 223.885 234.146 222.539 234.146C194.114 234.145 171 211.03 171 182.604C171 163.823 181.212 146.65 197.41 137.599C198.547 111.154 220.407 90.0002 247.127 90Z"/>
</mask>
<path d="M247.127 90C259.936 90 272.08 94.8756 281.271 103.556C288.255 99.9798 295.977 98.1113 303.908 98.1113C331.218 98.1113 353.451 120.209 353.672 147.467C363.906 157.104 369.898 170.803 369.898 184.886C369.898 213.171 346.898 236.173 318.612 236.173C317.923 236.173 317.23 236.159 316.538 236.131C306.763 250.97 290.193 260 272.223 260C253.434 260 236.071 249.963 226.575 233.988C225.233 234.093 223.885 234.146 222.539 234.146C194.114 234.145 171 211.03 171 182.604C171 163.823 181.212 146.65 197.41 137.599C198.547 111.154 220.407 90.0002 247.127 90Z" fill="url(#paint3_linear_2200_15487)" fill-opacity="0.6"/>
<path d="M247.127 90C259.936 90 272.08 94.8756 281.271 103.556C288.255 99.9798 295.977 98.1113 303.908 98.1113C331.218 98.1113 353.451 120.209 353.672 147.467C363.906 157.104 369.898 170.803 369.898 184.886C369.898 213.171 346.898 236.173 318.612 236.173C317.923 236.173 317.23 236.159 316.538 236.131C306.763 250.97 290.193 260 272.223 260C253.434 260 236.071 249.963 226.575 233.988C225.233 234.093 223.885 234.146 222.539 234.146C194.114 234.145 171 211.03 171 182.604C171 163.823 181.212 146.65 197.41 137.599C198.547 111.154 220.407 90.0002 247.127 90Z" fill="url(#paint4_linear_2200_15487)" fill-opacity="0.4"/>
<path d="M247.127 90C259.936 90 272.08 94.8756 281.271 103.556C288.255 99.9798 295.977 98.1113 303.908 98.1113C331.218 98.1113 353.451 120.209 353.672 147.467C363.906 157.104 369.898 170.803 369.898 184.886C369.898 213.171 346.898 236.173 318.612 236.173C317.923 236.173 317.23 236.159 316.538 236.131C306.763 250.97 290.193 260 272.223 260C253.434 260 236.071 249.963 226.575 233.988C225.233 234.093 223.885 234.146 222.539 234.146C194.114 234.145 171 211.03 171 182.604C171 163.823 181.212 146.65 197.41 137.599C198.547 111.154 220.407 90.0002 247.127 90Z" fill="url(#paint5_linear_2200_15487)" fill-opacity="0.4"/>
<path d="M247.127 90V89H247.127L247.127 90ZM281.271 103.556L280.584 104.283L281.097 104.768L281.726 104.446L281.271 103.556ZM303.908 98.1113V97.1113V98.1113ZM353.672 147.467L352.672 147.475L352.675 147.902L352.986 148.195L353.672 147.467ZM369.898 184.886H370.898V184.886L369.898 184.886ZM318.612 236.173V237.173H318.612L318.612 236.173ZM316.538 236.131L316.579 235.132L316.014 235.109L315.703 235.581L316.538 236.131ZM272.223 260V261H272.223L272.223 260ZM226.575 233.988L227.435 233.477L227.117 232.943L226.498 232.991L226.575 233.988ZM222.539 234.146L222.539 235.146H222.539V234.146ZM171 182.604L170 182.604V182.604H171ZM197.41 137.599L197.898 138.472L198.385 138.199L198.409 137.642L197.41 137.599ZM247.127 90V91C259.68 91 271.579 95.7775 280.584 104.283L281.271 103.556L281.957 102.829C272.582 93.9738 260.192 89 247.127 89V90ZM281.271 103.556L281.726 104.446C288.569 100.942 296.135 99.1113 303.908 99.1113V98.1113V97.1113C295.819 97.1113 287.94 99.0173 280.815 102.666L281.271 103.556ZM303.908 98.1113V99.1113C330.668 99.1113 352.456 120.765 352.672 147.475L353.672 147.467L354.672 147.459C354.447 119.652 331.768 97.1113 303.908 97.1113V98.1113ZM353.672 147.467L352.986 148.195C363.022 157.645 368.898 171.082 368.898 184.886L369.898 184.886L370.898 184.886C370.898 170.524 364.79 156.563 354.357 146.739L353.672 147.467ZM369.898 184.886H368.898C368.898 212.619 346.346 235.173 318.612 235.173L318.612 236.173L318.612 237.173C347.45 237.173 370.898 213.723 370.898 184.886H369.898ZM318.612 236.173V235.173C317.936 235.173 317.257 235.159 316.579 235.132L316.538 236.131L316.498 237.13C317.203 237.159 317.909 237.173 318.612 237.173V236.173ZM316.538 236.131L315.703 235.581C306.112 250.141 289.855 259 272.223 259L272.223 260L272.223 261C290.531 261 307.415 251.8 317.373 236.681L316.538 236.131ZM272.223 260V259C253.79 259 236.752 249.152 227.435 233.477L226.575 233.988L225.716 234.499C235.39 250.774 253.077 261 272.223 261V260ZM226.575 233.988L226.498 232.991C225.181 233.094 223.859 233.146 222.539 233.146V234.146V235.146C223.911 235.146 225.285 235.092 226.653 234.985L226.575 233.988ZM222.539 234.146L222.539 233.146C194.667 233.145 172 210.478 172 182.604H171H170C170 211.582 193.562 235.145 222.539 235.146L222.539 234.146ZM171 182.604L172 182.604C172 164.188 182.014 147.347 197.898 138.472L197.41 137.599L196.922 136.726C180.41 145.952 170 163.458 170 182.604L171 182.604ZM197.41 137.599L198.409 137.642C199.524 111.73 220.945 91.0002 247.127 91L247.127 90L247.127 89C219.869 89.0002 197.571 110.578 196.411 137.556L197.41 137.599Z" fill="url(#paint6_linear_2200_15487)" fill-opacity="0.7" mask="url(#path-4-inside-1_2200_15487)"/>
<path fill-rule="evenodd" clip-rule="evenodd" d="M226.5 169.276C226.5 166.583 228.683 164.4 231.376 164.4H247.813C250.506 164.4 252.689 166.583 252.689 169.276L252.689 170.112C253.689 170.112 254.5 170.923 254.5 171.923C254.5 172.923 253.689 173.734 252.689 173.734V177.495C253.689 177.495 254.5 178.306 254.5 179.306C254.5 180.306 253.689 181.117 252.689 181.117L252.689 181.953C252.689 184.505 250.728 186.599 248.231 186.811L248.231 186.828C248.231 188.059 247.233 189.057 246.002 189.057C244.772 189.057 243.774 188.059 243.774 186.828L235.415 186.828C235.415 188.059 234.418 189.057 233.187 189.057C231.956 189.057 230.958 188.059 230.958 186.828L230.958 186.811C228.461 186.599 226.5 184.505 226.5 181.953V169.276ZM242.659 181.813C246.044 181.813 248.789 179.069 248.789 175.684C248.789 172.299 246.044 169.555 242.659 169.555C239.274 169.555 236.53 172.299 236.53 175.684C236.53 179.069 239.274 181.813 242.659 181.813ZM230.54 172.619C230.54 172.081 230.761 171.644 231.3 171.644C231.839 171.644 232.09 172.081 232.09 172.619V178.749C232.09 179.287 231.839 179.724 231.3 179.724C230.761 179.724 230.54 179.287 230.54 178.749V172.619ZM242.659 180C244.89 180 247.1 177.915 247.1 175.684C247.1 173.453 244.89 171.2 242.659 171.2C240.428 171.2 238.1 173.453 238.1 175.684C238.1 177.915 240.428 180 242.659 180Z" fill="#A2CEF5"/>
<path d="M271.618 180.268L276.428 166.566H280.224L273.386 185H269.694L262.882 166.566H266.808L271.618 180.268ZM278.852 181.516C278.852 179.228 280.542 177.954 282.674 177.642L285.82 177.174C286.548 177.07 286.782 176.706 286.782 176.264C286.782 175.354 286.08 174.6 284.624 174.6C283.116 174.6 282.284 175.562 282.18 176.68L279.112 176.03C279.32 174.028 281.166 171.818 284.598 171.818C288.654 171.818 290.162 174.106 290.162 176.68V182.972C290.162 183.648 290.24 184.558 290.318 185H287.146C287.068 184.662 287.016 183.96 287.016 183.466C286.366 184.48 285.144 185.364 283.246 185.364C280.516 185.364 278.852 183.518 278.852 181.516ZM283.974 182.79C285.43 182.79 286.782 182.088 286.782 179.826V179.254L283.896 179.696C283.012 179.826 282.31 180.32 282.31 181.308C282.31 182.062 282.856 182.79 283.974 182.79ZM301.188 185C301.136 184.74 301.084 184.142 301.084 183.622C300.382 184.818 298.9 185.338 297.548 185.338C294.454 185.338 292.686 183.076 292.686 180.294V172.208H296.144V179.592C296.144 181.022 296.872 182.166 298.484 182.166C300.018 182.166 300.902 181.126 300.902 179.644V172.208H304.36V182.686C304.36 183.674 304.438 184.558 304.49 185H301.188ZM310.576 185H307.118V166.176H310.576V185ZM317.818 168.386V172.208H320.392V175.276H317.818V180.632C317.818 181.75 318.338 182.114 319.326 182.114C319.742 182.114 320.21 182.062 320.392 182.01V184.87C320.08 185 319.456 185.182 318.442 185.182C315.946 185.182 314.386 183.7 314.386 181.23V175.276H312.072V172.208H312.722C314.074 172.208 314.698 171.324 314.698 170.18V168.386H317.818Z" fill="#A2CEF5"/>
<path d="M318 474C318 485.201 318 490.802 320.18 495.08C322.097 498.843 325.157 501.903 328.92 503.82C333.198 506 338.799 506 350 506H376C387.201 506 392.802 506 397.08 503.82C400.843 501.903 403.903 498.843 405.82 495.08C408 490.802 408 485.201 408 474V448C408 436.799 408 431.198 405.82 426.92C403.903 423.157 400.843 420.097 397.08 418.18C392.802 416 387.201 416 376 416H350C338.799 416 333.198 416 328.92 418.18C325.157 420.097 322.097 423.157 320.18 426.92C318 431.198 318 436.799 318 448V474Z" fill="url(#paint7_linear_2200_15487)" fill-opacity="0.6"/>
<path d="M318 474C318 485.201 318 490.802 320.18 495.08C322.097 498.843 325.157 501.903 328.92 503.82C333.198 506 338.799 506 350 506H376C387.201 506 392.802 506 397.08 503.82C400.843 501.903 403.903 498.843 405.82 495.08C408 490.802 408 485.201 408 474V448C408 436.799 408 431.198 405.82 426.92C403.903 423.157 400.843 420.097 397.08 418.18C392.802 416 387.201 416 376 416H350C338.799 416 333.198 416 328.92 418.18C325.157 420.097 322.097 423.157 320.18 426.92C318 431.198 318 436.799 318 448V474Z" fill="url(#paint8_linear_2200_15487)" fill-opacity="0.4"/>
<path d="M350 505.5H376C381.609 505.5 385.786 505.5 389.096 505.229C392.193 504.976 394.493 504.489 396.463 503.565L396.853 503.375C400.407 501.564 403.318 498.707 405.196 495.194L405.375 494.853C406.423 492.796 406.96 490.399 407.229 487.096C407.5 483.786 407.5 479.609 407.5 474V448C407.5 442.391 407.5 438.214 407.229 434.904C406.976 431.807 406.489 429.507 405.565 427.537L405.375 427.147C403.564 423.593 400.707 420.682 397.194 418.804L396.853 418.625C394.796 417.577 392.399 417.04 389.096 416.771C385.786 416.5 381.609 416.5 376 416.5H350C344.391 416.5 340.214 416.5 336.904 416.771C333.807 417.024 331.507 417.511 329.537 418.435L329.147 418.625C325.593 420.436 322.682 423.293 320.804 426.806L320.625 427.147C319.577 429.204 319.04 431.601 318.771 434.904C318.5 438.214 318.5 442.391 318.5 448V474C318.5 479.609 318.5 483.786 318.771 487.096C319.024 490.193 319.511 492.493 320.435 494.463L320.625 494.853C322.436 498.407 325.293 501.318 328.806 503.196L329.147 503.375C331.204 504.423 333.601 504.96 336.904 505.229C340.214 505.5 344.391 505.5 350 505.5Z" stroke="url(#paint9_linear_2200_15487)" stroke-opacity="0.7"/>
<g clip-path="url(#clip3_2200_15487)">
<path d="M372.5 474C373.052 474 373.5 474.448 373.5 475C373.5 475.552 373.052 476 372.5 476H353.5C352.948 476 352.5 475.552 352.5 475C352.5 474.448 352.948 474 353.5 474H356V470.5H370V474H372.5ZM378.5 448C379.604 448 380.5 448.896 380.5 450V466.5C380.5 467.605 379.604 468.5 378.5 468.5H347.5C346.396 468.5 345.5 467.605 345.5 466.5V450C345.5 448.896 346.395 448 347.5 448H378.5Z" fill="#84B1D9" fill-opacity="0.9"/>
</g>
<rect width="90" height="90" rx="20" transform="matrix(1 0 0 -1 132 506)" fill="url(#paint10_linear_2200_15487)" fill-opacity="0.6"/>
<rect width="90" height="90" rx="20" transform="matrix(1 0 0 -1 132 506)" fill="url(#paint11_linear_2200_15487)" fill-opacity="0.4"/>
<rect x="0.5" y="-0.5" width="89" height="89" rx="19.5" transform="matrix(1 0 0 -1 132 505)" stroke="url(#paint12_linear_2200_15487)" stroke-opacity="0.7"/>
<path d="M183 445C185.209 445 187 446.791 187 449V473C187 475.209 185.209 477 183 477H171C168.791 477 167 475.209 167 473V449C167 446.791 168.791 445 171 445H183ZM174 447C173.448 447 173 447.448 173 448C173 448.552 173.448 449 174 449H180C180.552 449 181 448.552 181 448C181 447.448 180.552 447 180 447H174Z" fill="#84B1D9" fill-opacity="0.9"/>
</g>
<defs>
<filter id="filter0_f_2200_15487" x="26" y="-62" width="488" height="488" filterUnits="userSpaceOnUse" color-interpolation-filters="sRGB">
<feFlood flood-opacity="0" result="BackgroundImageFix"/>
<feBlend mode="normal" in="SourceGraphic" in2="BackgroundImageFix" result="shape"/>
<feGaussianBlur stdDeviation="52" result="effect1_foregroundBlur_2200_15487"/>
</filter>
<radialGradient id="paint0_radial_2200_15487" cx="0" cy="0" r="1" gradientUnits="userSpaceOnUse" gradientTransform="translate(270 182.211) rotate(-90) scale(216 127.671)">
<stop offset="0.0109635" stop-color="#0D6D75"/>
<stop offset="0.533542" stop-color="#1E6DB5" stop-opacity="0.45"/>
<stop offset="1" stop-color="#264E72" stop-opacity="0"/>
</radialGradient>
<linearGradient id="paint1_linear_2200_15487" x1="190.5" y1="369.5" x2="264" y2="261.5" gradientUnits="userSpaceOnUse">
<stop stop-color="#1D2F4A"/>
<stop offset="0.768733" stop-color="#9EC0DF"/>
</linearGradient>
<linearGradient id="paint2_linear_2200_15487" x1="349.5" y1="369.5" x2="276" y2="261.5" gradientUnits="userSpaceOnUse">
<stop stop-color="#1D2F4A"/>
<stop offset="0.768733" stop-color="#9EC0DF"/>
</linearGradient>
<linearGradient id="paint3_linear_2200_15487" x1="171" y1="112.101" x2="281.62" y2="228.186" gradientUnits="userSpaceOnUse">
<stop stop-color="#4D6EA9" stop-opacity="0.4"/>
<stop offset="1" stop-color="#0C1A38" stop-opacity="0"/>
</linearGradient>
<linearGradient id="paint4_linear_2200_15487" x1="123.762" y1="90" x2="366.125" y2="336.414" gradientUnits="userSpaceOnUse">
<stop stop-color="#060A1D" stop-opacity="0"/>
<stop offset="0.0602431" stop-color="#4797F8" stop-opacity="0.7"/>
<stop offset="1" stop-color="#060A1D" stop-opacity="0"/>
</linearGradient>
<linearGradient id="paint5_linear_2200_15487" x1="123.762" y1="90" x2="366.125" y2="336.414" gradientUnits="userSpaceOnUse">
<stop offset="0.384615" stop-color="#060A1D" stop-opacity="0"/>
<stop offset="0.939757" stop-color="#4797F8" stop-opacity="0.7"/>
<stop offset="1" stop-color="#060A1D" stop-opacity="0"/>
</linearGradient>
<linearGradient id="paint6_linear_2200_15487" x1="270.449" y1="89.9999" x2="260.513" y2="253.727" gradientUnits="userSpaceOnUse">
<stop stop-color="#346292"/>
<stop offset="1" stop-color="#1A2F54"/>
</linearGradient>
<linearGradient id="paint7_linear_2200_15487" x1="318" y1="494.299" x2="376.286" y2="442.02" gradientUnits="userSpaceOnUse">
<stop stop-color="#4D6EA9" stop-opacity="0.4"/>
<stop offset="1" stop-color="#0C1A38" stop-opacity="0"/>
</linearGradient>
<linearGradient id="paint8_linear_2200_15487" x1="296.625" y1="506" x2="423.698" y2="395.575" gradientUnits="userSpaceOnUse">
<stop stop-color="#060A1D" stop-opacity="0"/>
<stop offset="0.00423948" stop-color="#4797F8" stop-opacity="0.7"/>
<stop offset="1" stop-color="#060A1D" stop-opacity="0"/>
</linearGradient>
<linearGradient id="paint9_linear_2200_15487" x1="363" y1="506" x2="293.137" y2="476.455" gradientUnits="userSpaceOnUse">
<stop stop-color="#346292"/>
<stop offset="1" stop-color="#1A2F54"/>
</linearGradient>
<linearGradient id="paint10_linear_2200_15487" x1="-1.15523e-05" y1="11.7007" x2="58.2865" y2="63.9796" gradientUnits="userSpaceOnUse">
<stop stop-color="#4D6EA9" stop-opacity="0.4"/>
<stop offset="1" stop-color="#0C1A38" stop-opacity="0"/>
</linearGradient>
<linearGradient id="paint11_linear_2200_15487" x1="-21.375" y1="4.59791e-07" x2="105.698" y2="110.425" gradientUnits="userSpaceOnUse">
<stop stop-color="#060A1D" stop-opacity="0"/>
<stop offset="0.00423948" stop-color="#4797F8" stop-opacity="0.7"/>
<stop offset="1" stop-color="#060A1D" stop-opacity="0"/>
</linearGradient>
<linearGradient id="paint12_linear_2200_15487" x1="44.9999" y1="-4.97032e-05" x2="-24.8633" y2="29.5452" gradientUnits="userSpaceOnUse">
<stop stop-color="#346292"/>
<stop offset="1" stop-color="#1A2F54"/>
</linearGradient>
<clipPath id="clip0_2200_15487">
<rect width="540" height="600" fill="white"/>
</clipPath>
<clipPath id="clip1_2200_15487">
<rect width="136" height="205" fill="white" transform="matrix(-1 0 0 1 306 211)"/>
</clipPath>
<clipPath id="clip2_2200_15487">
<rect width="136" height="205" fill="white" transform="translate(234 211)"/>
</clipPath>
<clipPath id="clip3_2200_15487">
<rect width="50" height="50" fill="white" transform="translate(338 436)"/>
</clipPath>
</defs>
</svg>
