<svg width="64" height="64" viewBox="0 0 64 64" fill="none" xmlns="http://www.w3.org/2000/svg">
<path fill-rule="evenodd" clip-rule="evenodd" d="M48.8113 12H15.1887C11.2497 12 8.0566 15.134 8.0566 19V43C8.0566 46.866 11.2497 50 15.1887 50H48.8113C52.7503 50 55.9434 46.866 55.9434 43V19C55.9434 15.134 52.7503 12 48.8113 12ZM15.1887 9C9.56163 9 5 13.4772 5 19V43C5 48.1282 8.933 52.3548 14 52.9327V53C14 55.2091 15.7909 57 18 57C20.2091 57 22 55.2091 22 53H42C42 55.2091 43.7909 57 46 57C48.2091 57 50 55.2091 50 53V52.9327C55.067 52.3548 59 48.1282 59 43V19C59 13.4772 54.4384 9 48.8113 9H15.1887ZM16 23C14.8954 23 14 23.8954 14 25V37C14 38.1046 14.8954 39 16 39C17.1046 39 18 38.1046 18 37V25C18 23.8954 17.1046 23 16 23ZM35.0607 29.9393C34.4749 29.3536 33.5251 29.3536 32.9393 29.9393C32.3536 30.5251 32.3536 31.4749 32.9393 32.0607L36.8686 35.99C37.4935 36.6148 38.5065 36.6148 39.1314 35.9899L43.0607 32.0607C43.6464 31.4749 43.6464 30.5251 43.0607 29.9393C42.4749 29.3536 41.5251 29.3536 40.9393 29.9393L39.5 31.3787V20.5C39.5 19.6716 38.8284 19 38 19C37.1716 19 36.5 19.6716 36.5 20.5L36.5 31.3787L35.0607 29.9393ZM32.818 23.0572C33.5119 22.6046 33.7075 21.6752 33.2549 20.9813C32.8024 20.2874 31.873 20.0918 31.1791 20.5444C27.7632 22.7724 25.5 26.632 25.5 31.0209C25.5 37.9245 31.0964 43.5209 38 43.5209C44.9036 43.5209 50.5 37.9245 50.5 31.0209C50.5 26.6382 48.2433 22.7834 44.8355 20.554C44.1423 20.1004 43.2126 20.2947 42.7591 20.988C42.3055 21.6812 42.4999 22.6109 43.1931 23.0644C45.7897 24.7632 47.5 27.6927 47.5 31.0209C47.5 36.2676 43.2467 40.5209 38 40.5209C32.7533 40.5209 28.5 36.2676 28.5 31.0209C28.5 27.688 30.2152 24.7548 32.818 23.0572Z" fill="url(#paint0_linear_5472_143399)"/>
<defs>
<linearGradient id="paint0_linear_5472_143399" x1="5" y1="8.45455" x2="61.8245" y2="12.0707" gradientUnits="userSpaceOnUse">
<stop stop-color="#2091F6"/>
<stop offset="1" stop-color="#21B568"/>
</linearGradient>
</defs>
</svg>
