<svg width="540" height="600" viewBox="0 0 540 600" fill="none" xmlns="http://www.w3.org/2000/svg">
<g clip-path="url(#clip0_1848_4117)">
<g filter="url(#filter0_f_1848_4117)">
<ellipse cx="270.5" cy="300" rx="242" ry="138.5" transform="rotate(90 270.5 300)" fill="url(#paint0_radial_1848_4117)" fill-opacity="0.6"/>
</g>
<rect width="250" height="70" rx="20" transform="matrix(-1 0 0 1 395 165)" fill="url(#paint1_linear_1848_4117)" fill-opacity="0.6"/>
<rect width="250" height="70" rx="20" transform="matrix(-1 0 0 1 395 165)" fill="url(#paint2_linear_1848_4117)" fill-opacity="0.4"/>
<rect x="-0.5" y="0.5" width="249" height="69" rx="19.5" transform="matrix(-1 0 0 1 394 165)" stroke="url(#paint3_linear_1848_4117)" stroke-opacity="0.7"/>
<rect width="30" height="30" rx="8.33333" transform="matrix(-1 0 0 1 375 185)" fill="url(#paint4_linear_1848_4117)" fill-opacity="0.2" style="mix-blend-mode:screen"/>
<path fill-rule="evenodd" clip-rule="evenodd" d="M356.012 196.744C356.012 198.533 357.265 200.028 358.942 200.4V201.14L357.64 202.442L358.942 203.744L357.64 205.047L359.593 207L360.895 205.698V200.312C362.406 199.83 363.5 198.415 363.5 196.744C363.5 194.676 361.824 193 359.756 193C357.688 193 356.012 194.676 356.012 196.744ZM358.616 196.093C358.616 196.722 359.126 197.233 359.756 197.233C360.385 197.233 360.895 196.722 360.895 196.093C360.895 195.464 360.385 194.953 359.756 194.953C359.126 194.953 358.616 195.464 358.616 196.093Z" fill="#7DAFDB" fill-opacity="0.7"/>
<rect width="30" height="30" rx="8.33333" transform="matrix(-1 0 0 1 335 185)" fill="url(#paint5_linear_1848_4117)" fill-opacity="0.2" style="mix-blend-mode:screen"/>
<path fill-rule="evenodd" clip-rule="evenodd" d="M325.6 193C326.373 193 327 193.627 327 194.4V198.6C327 198.987 326.687 199.3 326.3 199.3H313.7C313.313 199.3 313 198.987 313 198.6V194.4C313 193.627 313.627 193 314.4 193H325.6ZM315.667 196.333C315.667 197.07 316.264 197.667 317 197.667C317.736 197.667 318.333 197.07 318.333 196.333C318.333 195.597 317.736 195 317 195C316.264 195 315.667 195.597 315.667 196.333ZM323 195C323 194.632 322.702 194.333 322.333 194.333C321.965 194.333 321.667 194.632 321.667 195V197C321.667 197.368 321.965 197.667 322.333 197.667C322.702 197.667 323 197.368 323 197V195ZM324.333 194.333C324.702 194.333 325 194.632 325 195V197C325 197.368 324.702 197.667 324.333 197.667C323.965 197.667 323.667 197.368 323.667 197V195C323.667 194.632 323.965 194.333 324.333 194.333ZM321 195C321 194.632 320.702 194.333 320.333 194.333C319.965 194.333 319.667 194.632 319.667 195V197C319.667 197.368 319.965 197.667 320.333 197.667C320.702 197.667 321 197.368 321 197V195ZM326.3 200.7C326.687 200.7 327 201.013 327 201.4V205.6C327 206.373 326.373 207 325.6 207H314.4C313.627 207 313 206.373 313 205.6V201.4C313 201.013 313.313 200.7 313.7 200.7H326.3ZM317 204.7C316.264 204.7 315.667 204.103 315.667 203.367C315.667 202.63 316.264 202.033 317 202.033C317.736 202.033 318.333 202.63 318.333 203.367C318.333 204.103 317.736 204.7 317 204.7ZM320.333 202.033C320.702 202.033 321 202.332 321 202.7V204.7C321 205.068 320.702 205.367 320.333 205.367C319.965 205.367 319.667 205.068 319.667 204.7V202.7C319.667 202.332 319.965 202.033 320.333 202.033ZM325 202.7C325 202.332 324.702 202.033 324.333 202.033C323.965 202.033 323.667 202.332 323.667 202.7V204.7C323.667 205.068 323.965 205.367 324.333 205.367C324.702 205.367 325 205.068 325 204.7V202.7ZM322.333 202.033C322.702 202.033 323 202.332 323 202.7V204.7C323 205.068 322.702 205.367 322.333 205.367C321.965 205.367 321.667 205.068 321.667 204.7V202.7C321.667 202.332 321.965 202.033 322.333 202.033Z" fill="#7DAFDB" fill-opacity="0.7"/>
<path fill-rule="evenodd" clip-rule="evenodd" d="M170 192.024C170 189.139 172.339 186.8 175.224 186.8H192.836C195.721 186.8 198.06 189.139 198.06 192.024L198.06 192.919C199.131 192.919 200 193.788 200 194.86C200 195.931 199.131 196.8 198.06 196.8V200.83C199.131 200.83 200 201.698 200 202.77C200 203.842 199.131 204.71 198.06 204.71L198.06 205.606C198.06 208.34 195.959 210.584 193.283 210.811L193.284 210.83C193.284 212.149 192.214 213.218 190.896 213.218C189.577 213.218 188.507 212.149 188.507 210.83V210.83H179.552V210.83C179.552 212.149 178.483 213.218 177.164 213.218C175.845 213.218 174.776 212.149 174.776 210.83L174.776 210.811C172.101 210.584 170 208.34 170 205.606V192.024ZM187.313 205.457C190.94 205.457 193.881 202.516 193.881 198.889C193.881 195.262 190.94 192.322 187.313 192.322C183.686 192.322 180.746 195.262 180.746 198.889C180.746 202.516 183.686 205.457 187.313 205.457ZM174.328 195.606C174.328 195.029 174.796 194.561 175.373 194.561C175.95 194.561 176.418 195.029 176.418 195.606V202.173C176.418 202.75 175.95 203.218 175.373 203.218C174.796 203.218 174.328 202.75 174.328 202.173V195.606ZM187.313 203.218C189.704 203.218 191.642 201.28 191.642 198.889C191.642 196.499 189.704 194.561 187.313 194.561C184.923 194.561 182.985 196.499 182.985 198.889C182.985 201.28 184.923 203.218 187.313 203.218Z" fill="#7DAFDB" fill-opacity="0.7"/>
<rect width="250" height="70" rx="20" transform="matrix(-1 0 0 1 395 265)" fill="url(#paint6_linear_1848_4117)" fill-opacity="0.6"/>
<rect width="250" height="70" rx="20" transform="matrix(-1 0 0 1 395 265)" fill="url(#paint7_linear_1848_4117)" fill-opacity="0.4"/>
<rect x="-0.5" y="0.5" width="249" height="69" rx="19.5" transform="matrix(-1 0 0 1 394 265)" stroke="url(#paint8_linear_1848_4117)" stroke-opacity="0.7"/>
<rect width="30" height="30" rx="8.33333" transform="matrix(-1 0 0 1 375 285)" fill="url(#paint9_linear_1848_4117)" fill-opacity="0.2" style="mix-blend-mode:screen"/>
<path fill-rule="evenodd" clip-rule="evenodd" d="M356.012 296.744C356.012 298.533 357.265 300.028 358.942 300.4V301.14L357.64 302.442L358.942 303.744L357.64 305.047L359.593 307L360.895 305.698V300.312C362.406 299.83 363.5 298.415 363.5 296.744C363.5 294.676 361.824 293 359.756 293C357.688 293 356.012 294.676 356.012 296.744ZM358.616 296.093C358.616 296.722 359.126 297.233 359.756 297.233C360.385 297.233 360.895 296.722 360.895 296.093C360.895 295.464 360.385 294.953 359.756 294.953C359.126 294.953 358.616 295.464 358.616 296.093Z" fill="#7DAFDB" fill-opacity="0.7"/>
<rect width="30" height="30" rx="8.33333" transform="matrix(-1 0 0 1 335 285)" fill="url(#paint10_linear_1848_4117)" fill-opacity="0.2" style="mix-blend-mode:screen"/>
<path fill-rule="evenodd" clip-rule="evenodd" d="M325.6 293C326.373 293 327 293.627 327 294.4V298.6C327 298.987 326.687 299.3 326.3 299.3H313.7C313.313 299.3 313 298.987 313 298.6V294.4C313 293.627 313.627 293 314.4 293H325.6ZM315.667 296.333C315.667 297.07 316.264 297.667 317 297.667C317.736 297.667 318.333 297.07 318.333 296.333C318.333 295.597 317.736 295 317 295C316.264 295 315.667 295.597 315.667 296.333ZM323 295C323 294.632 322.702 294.333 322.333 294.333C321.965 294.333 321.667 294.632 321.667 295V297C321.667 297.368 321.965 297.667 322.333 297.667C322.702 297.667 323 297.368 323 297V295ZM324.333 294.333C324.702 294.333 325 294.632 325 295V297C325 297.368 324.702 297.667 324.333 297.667C323.965 297.667 323.667 297.368 323.667 297V295C323.667 294.632 323.965 294.333 324.333 294.333ZM321 295C321 294.632 320.702 294.333 320.333 294.333C319.965 294.333 319.667 294.632 319.667 295V297C319.667 297.368 319.965 297.667 320.333 297.667C320.702 297.667 321 297.368 321 297V295ZM326.3 300.7C326.687 300.7 327 301.013 327 301.4V305.6C327 306.373 326.373 307 325.6 307H314.4C313.627 307 313 306.373 313 305.6V301.4C313 301.013 313.313 300.7 313.7 300.7H326.3ZM317 304.7C316.264 304.7 315.667 304.103 315.667 303.367C315.667 302.63 316.264 302.033 317 302.033C317.736 302.033 318.333 302.63 318.333 303.367C318.333 304.103 317.736 304.7 317 304.7ZM320.333 302.033C320.702 302.033 321 302.332 321 302.7V304.7C321 305.068 320.702 305.367 320.333 305.367C319.965 305.367 319.667 305.068 319.667 304.7V302.7C319.667 302.332 319.965 302.033 320.333 302.033ZM325 302.7C325 302.332 324.702 302.033 324.333 302.033C323.965 302.033 323.667 302.332 323.667 302.7V304.7C323.667 305.068 323.965 305.367 324.333 305.367C324.702 305.367 325 305.068 325 304.7V302.7ZM322.333 302.033C322.702 302.033 323 302.332 323 302.7V304.7C323 305.068 322.702 305.367 322.333 305.367C321.965 305.367 321.667 305.068 321.667 304.7V302.7C321.667 302.332 321.965 302.033 322.333 302.033Z" fill="#7DAFDB" fill-opacity="0.7"/>
<path fill-rule="evenodd" clip-rule="evenodd" d="M170 292.024C170 289.139 172.339 286.8 175.224 286.8H192.836C195.721 286.8 198.06 289.139 198.06 292.024L198.06 292.919C199.131 292.919 200 293.788 200 294.86C200 295.931 199.131 296.8 198.06 296.8V300.83C199.131 300.83 200 301.698 200 302.77C200 303.842 199.131 304.71 198.06 304.71L198.06 305.606C198.06 308.34 195.959 310.584 193.283 310.811L193.284 310.83C193.284 312.149 192.214 313.218 190.896 313.218C189.577 313.218 188.507 312.149 188.507 310.83V310.83H179.552V310.83C179.552 312.149 178.483 313.218 177.164 313.218C175.845 313.218 174.776 312.149 174.776 310.83L174.776 310.811C172.101 310.584 170 308.34 170 305.606V292.024ZM187.313 305.457C190.94 305.457 193.881 302.516 193.881 298.889C193.881 295.262 190.94 292.322 187.313 292.322C183.686 292.322 180.746 295.262 180.746 298.889C180.746 302.516 183.686 305.457 187.313 305.457ZM174.328 295.606C174.328 295.029 174.796 294.561 175.373 294.561C175.95 294.561 176.418 295.029 176.418 295.606V302.173C176.418 302.75 175.95 303.218 175.373 303.218C174.796 303.218 174.328 302.75 174.328 302.173V295.606ZM187.313 303.218C189.704 303.218 191.642 301.28 191.642 298.889C191.642 296.499 189.704 294.561 187.313 294.561C184.923 294.561 182.985 296.499 182.985 298.889C182.985 301.28 184.923 303.218 187.313 303.218Z" fill="#7DAFDB" fill-opacity="0.7"/>
<rect width="250" height="70" rx="20" transform="matrix(-1 0 0 1 395 365)" fill="url(#paint11_linear_1848_4117)" fill-opacity="0.6"/>
<rect width="250" height="70" rx="20" transform="matrix(-1 0 0 1 395 365)" fill="url(#paint12_linear_1848_4117)" fill-opacity="0.4"/>
<rect x="-0.5" y="0.5" width="249" height="69" rx="19.5" transform="matrix(-1 0 0 1 394 365)" stroke="url(#paint13_linear_1848_4117)" stroke-opacity="0.7"/>
<rect width="30" height="30" rx="8.33333" transform="matrix(-1 0 0 1 375 385)" fill="url(#paint14_linear_1848_4117)" fill-opacity="0.2" style="mix-blend-mode:screen"/>
<path fill-rule="evenodd" clip-rule="evenodd" d="M356.012 396.744C356.012 398.533 357.265 400.028 358.942 400.4V401.14L357.64 402.442L358.942 403.744L357.64 405.047L359.593 407L360.895 405.698V400.312C362.406 399.83 363.5 398.415 363.5 396.744C363.5 394.676 361.824 393 359.756 393C357.688 393 356.012 394.676 356.012 396.744ZM358.616 396.093C358.616 396.722 359.126 397.233 359.756 397.233C360.385 397.233 360.895 396.722 360.895 396.093C360.895 395.464 360.385 394.953 359.756 394.953C359.126 394.953 358.616 395.464 358.616 396.093Z" fill="#7DAFDB" fill-opacity="0.7"/>
<rect width="30" height="30" rx="8.33333" transform="matrix(-1 0 0 1 335 385)" fill="url(#paint15_linear_1848_4117)" fill-opacity="0.2" style="mix-blend-mode:screen"/>
<path fill-rule="evenodd" clip-rule="evenodd" d="M325.6 393C326.373 393 327 393.627 327 394.4V398.6C327 398.987 326.687 399.3 326.3 399.3H313.7C313.313 399.3 313 398.987 313 398.6V394.4C313 393.627 313.627 393 314.4 393H325.6ZM315.667 396.333C315.667 397.07 316.264 397.667 317 397.667C317.736 397.667 318.333 397.07 318.333 396.333C318.333 395.597 317.736 395 317 395C316.264 395 315.667 395.597 315.667 396.333ZM323 395C323 394.632 322.702 394.333 322.333 394.333C321.965 394.333 321.667 394.632 321.667 395V397C321.667 397.368 321.965 397.667 322.333 397.667C322.702 397.667 323 397.368 323 397V395ZM324.333 394.333C324.702 394.333 325 394.632 325 395V397C325 397.368 324.702 397.667 324.333 397.667C323.965 397.667 323.667 397.368 323.667 397V395C323.667 394.632 323.965 394.333 324.333 394.333ZM321 395C321 394.632 320.702 394.333 320.333 394.333C319.965 394.333 319.667 394.632 319.667 395V397C319.667 397.368 319.965 397.667 320.333 397.667C320.702 397.667 321 397.368 321 397V395ZM326.3 400.7C326.687 400.7 327 401.013 327 401.4V405.6C327 406.373 326.373 407 325.6 407H314.4C313.627 407 313 406.373 313 405.6V401.4C313 401.013 313.313 400.7 313.7 400.7H326.3ZM317 404.7C316.264 404.7 315.667 404.103 315.667 403.367C315.667 402.63 316.264 402.033 317 402.033C317.736 402.033 318.333 402.63 318.333 403.367C318.333 404.103 317.736 404.7 317 404.7ZM320.333 402.033C320.702 402.033 321 402.332 321 402.7V404.7C321 405.068 320.702 405.367 320.333 405.367C319.965 405.367 319.667 405.068 319.667 404.7V402.7C319.667 402.332 319.965 402.033 320.333 402.033ZM325 402.7C325 402.332 324.702 402.033 324.333 402.033C323.965 402.033 323.667 402.332 323.667 402.7V404.7C323.667 405.068 323.965 405.367 324.333 405.367C324.702 405.367 325 405.068 325 404.7V402.7ZM322.333 402.033C322.702 402.033 323 402.332 323 402.7V404.7C323 405.068 322.702 405.367 322.333 405.367C321.965 405.367 321.667 405.068 321.667 404.7V402.7C321.667 402.332 321.965 402.033 322.333 402.033Z" fill="#7DAFDB" fill-opacity="0.7"/>
<path fill-rule="evenodd" clip-rule="evenodd" d="M170 392.024C170 389.139 172.339 386.8 175.224 386.8H192.836C195.721 386.8 198.06 389.139 198.06 392.024L198.06 392.919C199.131 392.919 200 393.788 200 394.86C200 395.931 199.131 396.8 198.06 396.8V400.83C199.131 400.83 200 401.698 200 402.77C200 403.842 199.131 404.71 198.06 404.71L198.06 405.606C198.06 408.34 195.959 410.584 193.283 410.811L193.284 410.83C193.284 412.149 192.214 413.218 190.896 413.218C189.577 413.218 188.507 412.149 188.507 410.83V410.83H179.552V410.83C179.552 412.149 178.483 413.218 177.164 413.218C175.845 413.218 174.776 412.149 174.776 410.83L174.776 410.811C172.101 410.584 170 408.34 170 405.606V392.024ZM187.313 405.457C190.94 405.457 193.881 402.516 193.881 398.889C193.881 395.262 190.94 392.322 187.313 392.322C183.686 392.322 180.746 395.262 180.746 398.889C180.746 402.516 183.686 405.457 187.313 405.457ZM174.328 395.606C174.328 395.029 174.796 394.561 175.373 394.561C175.95 394.561 176.418 395.029 176.418 395.606V402.173C176.418 402.75 175.95 403.218 175.373 403.218C174.796 403.218 174.328 402.75 174.328 402.173V395.606ZM187.313 403.218C189.704 403.218 191.642 401.28 191.642 398.889C191.642 396.499 189.704 394.561 187.313 394.561C184.923 394.561 182.985 396.499 182.985 398.889C182.985 401.28 184.923 403.218 187.313 403.218Z" fill="#7DAFDB" fill-opacity="0.7"/>
</g>
<defs>
<filter id="filter0_f_1848_4117" x="28" y="-46" width="485" height="692" filterUnits="userSpaceOnUse" color-interpolation-filters="sRGB">
<feFlood flood-opacity="0" result="BackgroundImageFix"/>
<feBlend mode="normal" in="SourceGraphic" in2="BackgroundImageFix" result="shape"/>
<feGaussianBlur stdDeviation="52" result="effect1_foregroundBlur_1848_4117"/>
</filter>
<radialGradient id="paint0_radial_1848_4117" cx="0" cy="0" r="1" gradientUnits="userSpaceOnUse" gradientTransform="translate(270.5 300.208) rotate(-90) scale(213.686 220.688)">
<stop offset="0.0109635" stop-color="#0D6D75"/>
<stop offset="0.533542" stop-color="#1E6DB5" stop-opacity="0.45"/>
<stop offset="1" stop-color="#264E72" stop-opacity="0"/>
</radialGradient>
<linearGradient id="paint1_linear_1848_4117" x1="-3.20897e-05" y1="9.10054" x2="25.9436" y2="92.2064" gradientUnits="userSpaceOnUse">
<stop stop-color="#4D6EA9" stop-opacity="0.4"/>
<stop offset="1" stop-color="#0C1A38" stop-opacity="0"/>
</linearGradient>
<linearGradient id="paint2_linear_1848_4117" x1="-59.375" y1="3.57616e-07" x2="-1.10445" y2="180.845" gradientUnits="userSpaceOnUse">
<stop stop-color="#060A1D" stop-opacity="0"/>
<stop offset="0.00423948" stop-color="#4797F8" stop-opacity="0.7"/>
<stop offset="1" stop-color="#060A1D" stop-opacity="0"/>
</linearGradient>
<linearGradient id="paint3_linear_1848_4117" x1="125" y1="-3.8658e-05" x2="55.2775" y2="105.306" gradientUnits="userSpaceOnUse">
<stop stop-color="#346292"/>
<stop offset="1" stop-color="#1A2F54"/>
</linearGradient>
<linearGradient id="paint4_linear_1848_4117" x1="-3.85076e-06" y1="3.90023" x2="19.4288" y2="21.3265" gradientUnits="userSpaceOnUse">
<stop stop-color="#4D6EA9" stop-opacity="0.4"/>
<stop offset="1" stop-color="#0C1A38"/>
</linearGradient>
<linearGradient id="paint5_linear_1848_4117" x1="-3.85076e-06" y1="3.90023" x2="19.4288" y2="21.3265" gradientUnits="userSpaceOnUse">
<stop stop-color="#4D6EA9" stop-opacity="0.4"/>
<stop offset="1" stop-color="#0C1A38"/>
</linearGradient>
<linearGradient id="paint6_linear_1848_4117" x1="-3.20897e-05" y1="9.10054" x2="25.9436" y2="92.2064" gradientUnits="userSpaceOnUse">
<stop stop-color="#4D6EA9" stop-opacity="0.4"/>
<stop offset="1" stop-color="#0C1A38" stop-opacity="0"/>
</linearGradient>
<linearGradient id="paint7_linear_1848_4117" x1="-59.375" y1="3.57616e-07" x2="-1.10445" y2="180.845" gradientUnits="userSpaceOnUse">
<stop stop-color="#060A1D" stop-opacity="0"/>
<stop offset="0.00423948" stop-color="#4797F8" stop-opacity="0.7"/>
<stop offset="1" stop-color="#060A1D" stop-opacity="0"/>
</linearGradient>
<linearGradient id="paint8_linear_1848_4117" x1="125" y1="-3.8658e-05" x2="55.2775" y2="105.306" gradientUnits="userSpaceOnUse">
<stop stop-color="#346292"/>
<stop offset="1" stop-color="#1A2F54"/>
</linearGradient>
<linearGradient id="paint9_linear_1848_4117" x1="-3.85076e-06" y1="3.90023" x2="19.4288" y2="21.3265" gradientUnits="userSpaceOnUse">
<stop stop-color="#4D6EA9" stop-opacity="0.4"/>
<stop offset="1" stop-color="#0C1A38"/>
</linearGradient>
<linearGradient id="paint10_linear_1848_4117" x1="-3.85076e-06" y1="3.90023" x2="19.4288" y2="21.3265" gradientUnits="userSpaceOnUse">
<stop stop-color="#4D6EA9" stop-opacity="0.4"/>
<stop offset="1" stop-color="#0C1A38"/>
</linearGradient>
<linearGradient id="paint11_linear_1848_4117" x1="-3.20897e-05" y1="9.10054" x2="25.9436" y2="92.2064" gradientUnits="userSpaceOnUse">
<stop stop-color="#4D6EA9" stop-opacity="0.4"/>
<stop offset="1" stop-color="#0C1A38" stop-opacity="0"/>
</linearGradient>
<linearGradient id="paint12_linear_1848_4117" x1="-59.375" y1="3.57616e-07" x2="-1.10445" y2="180.845" gradientUnits="userSpaceOnUse">
<stop stop-color="#060A1D" stop-opacity="0"/>
<stop offset="0.00423948" stop-color="#4797F8" stop-opacity="0.7"/>
<stop offset="1" stop-color="#060A1D" stop-opacity="0"/>
</linearGradient>
<linearGradient id="paint13_linear_1848_4117" x1="125" y1="-3.8658e-05" x2="55.2775" y2="105.306" gradientUnits="userSpaceOnUse">
<stop stop-color="#346292"/>
<stop offset="1" stop-color="#1A2F54"/>
</linearGradient>
<linearGradient id="paint14_linear_1848_4117" x1="-3.85076e-06" y1="3.90023" x2="19.4288" y2="21.3265" gradientUnits="userSpaceOnUse">
<stop stop-color="#4D6EA9" stop-opacity="0.4"/>
<stop offset="1" stop-color="#0C1A38"/>
</linearGradient>
<linearGradient id="paint15_linear_1848_4117" x1="-3.85076e-06" y1="3.90023" x2="19.4288" y2="21.3265" gradientUnits="userSpaceOnUse">
<stop stop-color="#4D6EA9" stop-opacity="0.4"/>
<stop offset="1" stop-color="#0C1A38"/>
</linearGradient>
<clipPath id="clip0_1848_4117">
<path d="M0 9.99999C0 4.47714 4.47715 0 10 0H530C535.523 0 540 4.47715 540 10V590C540 595.523 535.523 600 530 600H9.99999C4.47715 600 0 595.523 0 590V9.99999Z" fill="white"/>
</clipPath>
</defs>
</svg>
