<svg width="65" height="64" viewBox="0 0 65 64" fill="none" xmlns="http://www.w3.org/2000/svg">
<path fill-rule="evenodd" clip-rule="evenodd" d="M0 15.0398C0 8.85425 5.01441 3.83984 11.2 3.83984H48.96C55.1456 3.83984 60.16 8.85426 60.16 15.0398V16.96C62.4575 16.96 64.32 18.8225 64.32 21.12C64.32 23.4175 62.4575 25.28 60.16 25.28V33.92C62.4575 33.92 64.32 35.7825 64.32 38.08C64.32 40.3775 62.4575 42.24 60.16 42.24V44.1598C60.16 50.0221 55.6561 54.8324 49.9198 55.3193L49.92 55.36C49.92 58.1877 47.6277 60.48 44.8 60.48C41.9723 60.48 39.68 58.1877 39.68 55.36V55.3598H20.48V55.36C20.48 58.1877 18.1877 60.48 15.36 60.48C12.5323 60.48 10.24 58.1877 10.24 55.36L10.2402 55.3193C4.50389 54.8324 0 50.0221 0 44.1598V15.0398ZM37.12 43.84C44.8962 43.84 51.2 37.5362 51.2 29.76C51.2 21.9838 44.8962 15.68 37.12 15.68C29.3438 15.68 23.04 21.9838 23.04 29.76C23.04 37.5362 29.3438 43.84 37.12 43.84ZM9.28 22.72C9.28 21.4829 10.2829 20.48 11.52 20.48C12.7571 20.48 13.76 21.4829 13.76 22.72V36.8C13.76 38.0371 12.7571 39.04 11.52 39.04C10.2829 39.04 9.28 38.0371 9.28 36.8V22.72ZM37.12 39.04C42.2452 39.04 46.4 34.8852 46.4 29.76C46.4 24.6348 42.2452 20.48 37.12 20.48C31.9948 20.48 27.84 24.6348 27.84 29.76C27.84 34.8852 31.9948 39.04 37.12 39.04Z" fill="url(#paint0_linear_45_21043)"/>
<defs>
<linearGradient id="paint0_linear_45_21043" x1="-3.6316e-07" y1="3.19621" x2="67.6791" y2="7.54371" gradientUnits="userSpaceOnUse">
<stop stop-color="#2091F6"/>
<stop offset="1" stop-color="#21B568"/>
</linearGradient>
</defs>
</svg>
