<svg width="20" height="20" viewBox="0 0 20 20" fill="none" xmlns="http://www.w3.org/2000/svg">
<path fill-rule="evenodd" clip-rule="evenodd" d="M0 4.68253C0 2.75915 1.55921 1.19995 3.48259 1.19995H15.2239C17.1473 1.19995 18.7065 2.75915 18.7065 4.68253L18.7065 5.27959C19.4209 5.27959 20 5.85872 20 6.57312C20 7.28752 19.4209 7.86665 18.7065 7.86665V10.5532C19.4209 10.5532 20 11.1323 20 11.8467C20 12.5611 19.4209 13.1403 18.7065 13.1403L18.7065 13.7372C18.7065 15.5601 17.306 17.0558 15.5223 17.2072L15.5224 17.2199C15.5224 18.0991 14.8096 18.8119 13.9303 18.8119C13.0511 18.8119 12.3383 18.0991 12.3383 17.2199V17.2198H6.36816V17.2199C6.36816 18.0991 5.65538 18.8119 4.77612 18.8119C3.89686 18.8119 3.18408 18.0991 3.18408 17.2199L3.18413 17.2072C1.40047 17.0558 0 15.5601 0 13.7372V4.68253ZM11.5423 13.6378C13.9603 13.6378 15.9204 11.6776 15.9204 9.25968C15.9204 6.84172 13.9603 4.88158 11.5423 4.88158C9.12433 4.88158 7.16418 6.84172 7.16418 9.25968C7.16418 11.6776 9.12433 13.6378 11.5423 13.6378ZM2.88557 7.07063C2.88557 6.68596 3.19741 6.37411 3.58209 6.37411C3.96677 6.37411 4.27861 6.68596 4.27861 7.07063V11.4487C4.27861 11.8334 3.96677 12.1452 3.58209 12.1452C3.19741 12.1452 2.88557 11.8334 2.88557 11.4487V7.07063ZM11.5423 12.1452C13.1359 12.1452 14.4279 10.8533 14.4279 9.25968C14.4279 7.66603 13.1359 6.37411 11.5423 6.37411C9.94863 6.37411 8.65672 7.66603 8.65672 9.25968C8.65672 10.8533 9.94863 12.1452 11.5423 12.1452Z" fill="currentColor"/>
</svg>
