<svg width="540" height="600" viewBox="0 0 540 600" fill="none" xmlns="http://www.w3.org/2000/svg">
<g clip-path="url(#clip0_2200_20063)">
<g filter="url(#filter0_f_2200_20063)">
<ellipse cx="270.5" cy="300" rx="242" ry="138.5" transform="rotate(90 270.5 300)" fill="url(#paint0_radial_2200_20063)" fill-opacity="0.6"/>
</g>
<rect width="170" height="170" rx="37" transform="matrix(1 0 0 -1 185 385)" fill="url(#paint1_linear_2200_20063)" fill-opacity="0.6"/>
<rect width="170" height="170" rx="37" transform="matrix(1 0 0 -1 185 385)" fill="url(#paint2_linear_2200_20063)" fill-opacity="0.4"/>
<rect x="0.5" y="-0.5" width="169" height="169" rx="36.5" transform="matrix(1 0 0 -1 185 384)" stroke="url(#paint3_linear_2200_20063)" stroke-opacity="0.7"/>
<path fill-rule="evenodd" clip-rule="evenodd" d="M238.5 284.871C238.5 278.812 243.412 273.901 249.47 273.901H286.455C292.514 273.901 297.425 278.812 297.425 284.871L297.425 286.752C299.676 286.752 301.5 288.576 301.5 290.826C301.5 293.077 299.676 294.901 297.425 294.901V303.364C299.676 303.364 301.5 305.188 301.5 307.438C301.5 309.689 299.676 311.513 297.425 311.513L297.425 313.393C297.425 319.135 293.014 323.847 287.395 324.324L287.396 324.364C287.396 327.133 285.15 329.378 282.381 329.378C279.611 329.378 277.366 327.133 277.366 324.364L258.56 324.363C258.56 327.133 256.314 329.378 253.545 329.378C250.775 329.378 248.53 327.133 248.53 324.364L248.53 324.324C242.911 323.847 238.5 319.135 238.5 313.393V284.871ZM274.858 313.08C282.475 313.08 288.649 306.906 288.649 299.289C288.649 291.672 282.475 285.498 274.858 285.498C267.242 285.498 261.067 291.672 261.067 299.289C261.067 306.906 267.242 313.08 274.858 313.08ZM247.59 292.394C247.59 291.182 248.088 290.199 249.3 290.199C250.512 290.199 251.078 291.182 251.078 292.394V306.185C251.078 307.396 250.512 308.379 249.3 308.379C248.088 308.379 247.59 307.396 247.59 306.185V292.394ZM274.858 309.001C279.878 309.001 284.85 304.309 284.85 299.289C284.85 294.269 279.878 289.201 274.858 289.201C269.838 289.201 264.6 294.269 264.6 299.289C264.6 304.309 269.838 309.001 274.858 309.001Z" fill="#A2CEF5" fill-opacity="0.7"/>
</g>
<defs>
<filter id="filter0_f_2200_20063" x="28" y="-46" width="485" height="692" filterUnits="userSpaceOnUse" color-interpolation-filters="sRGB">
<feFlood flood-opacity="0" result="BackgroundImageFix"/>
<feBlend mode="normal" in="SourceGraphic" in2="BackgroundImageFix" result="shape"/>
<feGaussianBlur stdDeviation="52" result="effect1_foregroundBlur_2200_20063"/>
</filter>
<radialGradient id="paint0_radial_2200_20063" cx="0" cy="0" r="1" gradientUnits="userSpaceOnUse" gradientTransform="translate(270.5 300.208) rotate(-90) scale(213.686 220.688)">
<stop offset="0.0109635" stop-color="#0D6D75"/>
<stop offset="0.533542" stop-color="#1E6DB5" stop-opacity="0.45"/>
<stop offset="1" stop-color="#264E72" stop-opacity="0"/>
</radialGradient>
<linearGradient id="paint1_linear_2200_20063" x1="-2.1821e-05" y1="22.1013" x2="110.097" y2="120.85" gradientUnits="userSpaceOnUse">
<stop stop-color="#4D6EA9" stop-opacity="0.4"/>
<stop offset="1" stop-color="#0C1A38" stop-opacity="0"/>
</linearGradient>
<linearGradient id="paint2_linear_2200_20063" x1="-40.375" y1="8.68495e-07" x2="199.651" y2="208.581" gradientUnits="userSpaceOnUse">
<stop stop-color="#060A1D" stop-opacity="0"/>
<stop offset="0.00423948" stop-color="#4797F8" stop-opacity="0.7"/>
<stop offset="1" stop-color="#060A1D" stop-opacity="0"/>
</linearGradient>
<linearGradient id="paint3_linear_2200_20063" x1="84.9999" y1="-9.38838e-05" x2="-46.964" y2="55.8075" gradientUnits="userSpaceOnUse">
<stop stop-color="#346292"/>
<stop offset="1" stop-color="#1A2F54"/>
</linearGradient>
<clipPath id="clip0_2200_20063">
<rect width="540" height="600" fill="white"/>
</clipPath>
</defs>
</svg>
