<svg width="14" height="9" fill="currentColor" viewBox="0 0 14 9" xmlns="http://www.w3.org/2000/svg">
<path d="M7.00002 8.89459C10.9112 8.89459 13.6162 5.73053 13.6162 4.7442C13.6162 3.75299 10.9063 0.593811 7.00002 0.593811C3.13772 0.593811 0.378927 3.75299 0.378927 4.7442C0.378927 5.73053 3.13772 8.89459 7.00002 8.89459ZM7.00002 7.46393C5.47658 7.46393 4.27053 6.22858 4.26565 4.7442C4.26076 3.22076 5.47658 2.02448 7.00002 2.02448C8.50881 2.02448 9.72951 3.22076 9.72951 4.7442C9.72951 6.22858 8.50881 7.46393 7.00002 7.46393ZM7.00002 5.72565C7.54201 5.72565 7.99123 5.28131 7.99123 4.7442C7.99123 4.20221 7.54201 3.75787 7.00002 3.75787C6.45315 3.75787 6.00393 4.20221 6.00393 4.7442C6.00393 5.28131 6.45315 5.72565 7.00002 5.72565Z" />
</svg>
