<svg
  width="19"
  height="16"
  viewBox="0 0 19 16"
  fill="none"
  xmlns="http://www.w3.org/2000/svg"
>
  <path
    d="M7.37032 4.31936C7.5256 4.31936 7.63852 4.20644 7.65969 4.04411C7.88554 2.69607 7.86437 2.70313 9.2477 2.44905C9.43826 2.41376 9.54413 2.31495 9.54413 2.15968C9.54413 1.99735 9.43826 1.89854 9.27593 1.86326C7.83614 1.55977 7.80791 1.588 7.65969 0.275254C7.64558 0.112925 7.5256 0 7.37032 0C7.20799 0 7.10213 0.112925 7.0739 0.268196C6.84099 1.64446 6.89039 1.69387 5.47177 1.86326C5.30944 1.87737 5.18946 1.99735 5.18946 2.15968C5.18946 2.31495 5.29533 2.41376 5.45766 2.44905C6.89039 2.75254 6.90451 2.73136 7.0739 4.05823C7.08801 4.20644 7.20799 4.31936 7.37032 4.31936ZM14.2729 6.91663C14.4422 6.91663 14.5693 6.79665 14.6046 6.6202C14.8939 5.13101 14.8093 5.10984 16.3549 4.8487C16.5596 4.81341 16.6866 4.70049 16.6866 4.5311C16.6866 4.35465 16.5596 4.24173 16.3902 4.20644C14.7951 3.88884 14.7457 3.8959 14.6046 2.44199C14.5834 2.25849 14.4422 2.13851 14.2729 2.13851C14.0964 2.13851 13.9764 2.25849 13.9482 2.43494C13.7153 3.96648 13.7435 4.03705 12.1696 4.20644C11.9932 4.22056 11.8591 4.35465 11.8661 4.5311C11.8732 4.70049 11.9791 4.81341 12.1626 4.8487C13.7435 5.15218 13.7859 5.15924 13.9482 6.62726C13.9623 6.79665 14.0964 6.91663 14.2729 6.91663ZM3.38266 9.42214C3.55911 9.42214 3.68615 9.2951 3.70027 9.11866C3.86259 7.61535 3.91906 7.60829 5.46472 7.34715C5.66939 7.31187 5.78938 7.19894 5.78938 7.02955C5.78938 6.85311 5.66939 6.74019 5.50001 6.7049C3.90494 6.3873 3.912 6.3873 3.70027 4.94045C3.67909 4.76401 3.55911 4.62991 3.38266 4.62991C3.20622 4.62991 3.07918 4.76401 3.058 4.93339C2.89568 6.47199 2.84627 6.47199 1.27238 6.7049C1.09593 6.73313 0.975952 6.85311 0.975952 7.02955C0.975952 7.19894 1.08888 7.31187 1.26532 7.34715C2.84627 7.6577 2.81804 7.67181 3.058 9.13277C3.08624 9.2951 3.20622 9.42214 3.38266 9.42214ZM15.5856 15.5342C16.1291 16.0847 17.0607 16.0847 17.6112 15.5342C18.1617 14.9766 18.1617 14.0662 17.6112 13.5086L10.9204 6.73313C10.384 6.18968 9.45238 6.18968 8.89481 6.73313C8.3443 7.29069 8.35136 8.2082 8.89481 8.75871L15.5856 15.5342ZM12.092 10.4808L9.75586 8.15174C9.53707 7.93295 9.44532 7.63652 9.67117 7.41773C9.87584 7.22011 10.1723 7.29775 10.3981 7.5236L12.699 9.83855L12.092 10.4808ZM6.98214 16C7.20799 16 7.38444 15.8447 7.40561 15.5977C7.62441 13.6286 7.70204 13.5227 9.74881 13.2475C10.017 13.2122 10.1793 13.0498 10.1793 12.824C10.1793 12.6052 10.017 12.4358 9.80527 12.3935C7.68793 11.9771 7.61735 11.9982 7.40561 10.0432C7.38444 9.79621 7.20799 9.64093 6.98214 9.64093C6.74924 9.64093 6.57985 9.79621 6.55162 10.0362C6.32577 12.0688 6.25519 12.1394 4.16608 12.3935C3.94729 12.4217 3.7779 12.6052 3.7779 12.824C3.7779 13.0428 3.94023 13.2051 4.15902 13.2475C6.27636 13.6709 6.32577 13.6639 6.55162 15.6189C6.57985 15.8447 6.76335 16 6.98214 16Z"
    fill="currentColor"
  />
</svg>
