<svg xmlns="http://www.w3.org/2000/svg" width="14" height="15" viewBox="0 0 14 15" fill="none">
    <path fill-rule="evenodd" clip-rule="evenodd"
        d="M7 14.5C10.866 14.5 14 11.366 14 7.5C14 3.63401 10.866 0.5 7 0.5C3.13401 0.5 0 3.63401 0 7.5C0 11.366 3.13401 14.5 7 14.5ZM6.125 4C6.125 3.51675 6.51675 3.125 7 3.125C7.48325 3.125 7.875 3.51675 7.875 4V7.5C7.875 7.98325 7.48325 8.375 7 8.375C6.51675 8.375 6.125 7.98325 6.125 7.5V4ZM6.125 10.1523C6.125 9.65398 6.52898 9.25 7.02731 9.25C7.52564 9.25 7.92962 9.65398 7.92962 10.1523V10.2204C7.92962 10.7187 7.52564 11.1227 7.02731 11.1227C6.52898 11.1227 6.125 10.7187 6.125 10.2204V10.1523Z"
        fill="currentColor" />
</svg>