<svg
  width="10"
  height="10"
  viewBox="0 0 10 10"
  fill="none"
  xmlns="http://www.w3.org/2000/svg"
>
  <path
    d="M5.43903 9.12659C6.0645 9.12659 6.65281 9.00738 7.20397 8.76896C7.75512 8.53053 8.23971 8.20077 8.65772 7.77966C9.07883 7.36165 9.40704 6.87707 9.64237 6.32591C9.88079 5.77475 10 5.18644 10 4.56097C10 3.9355 9.88079 3.34874 9.64237 2.80068C9.40704 2.24952 9.07883 1.76339 8.65772 1.34228C8.23971 0.921174 7.75512 0.592957 7.20397 0.357632C6.65281 0.119211 6.0645 0 5.43903 0C4.81666 0 4.22989 0.117663 3.67873 0.352988C3.13068 0.588313 2.64609 0.914981 2.22498 1.33299C1.80697 1.751 1.47721 2.23404 1.23569 2.7821C0.997267 3.33016 0.876509 3.91538 0.873412 4.53775H1.83019C1.83329 4.04233 1.92928 3.57787 2.11816 3.14438C2.30704 2.70779 2.56559 2.32693 2.8938 2.00181C3.22511 1.67669 3.60752 1.42279 4.04101 1.2401C4.47451 1.05432 4.94051 0.961427 5.43903 0.961427C5.93755 0.961427 6.4051 1.05432 6.84169 1.2401C7.27828 1.42588 7.66068 1.68288 7.9889 2.0111C8.32021 2.33932 8.57876 2.72172 8.76454 3.15831C8.95033 3.5949 9.04322 4.06245 9.04322 4.56097C9.04322 5.05949 8.95033 5.52704 8.76454 5.96363C8.57876 6.40022 8.32021 6.78417 7.9889 7.11549C7.66068 7.4468 7.27828 7.70535 6.84169 7.89113C6.4051 8.07691 5.93755 8.16826 5.43903 8.16516C5.05508 8.16516 4.6897 8.10943 4.34291 7.99796C3.99921 7.88649 3.68183 7.72857 3.39077 7.52421C3.10281 7.31675 2.8489 7.07369 2.62906 6.79501C2.52998 6.68664 2.41696 6.61852 2.29001 6.59065C2.16306 6.56278 2.04384 6.5922 1.93238 6.6789C1.824 6.75631 1.76362 6.86313 1.75124 6.99937C1.74195 7.13252 1.78994 7.26257 1.89522 7.38952C2.16151 7.73322 2.48198 8.03511 2.85665 8.29521C3.23131 8.55531 3.63848 8.75812 4.07817 8.90365C4.51785 9.05227 4.97147 9.12659 5.43903 9.12659ZM0.35322 3.64599C0.235557 3.64599 0.145762 3.67386 0.0838346 3.72959C0.0250033 3.78223 -0.00286415 3.85035 0.000232229 3.93395C0.00332861 4.01446 0.0373888 4.09806 0.102413 4.18476L1.19853 5.69889C1.27594 5.80107 1.36574 5.85216 1.46792 5.85216C1.5701 5.85216 1.65835 5.80107 1.73266 5.69889L2.83342 4.18476C2.89535 4.10116 2.92631 4.01756 2.92631 3.93395C2.92941 3.85035 2.90154 3.78223 2.84271 3.72959C2.78698 3.67386 2.70028 3.64599 2.58262 3.64599H0.35322ZM5.43438 5.26695C5.69448 5.26695 5.82917 5.13225 5.83846 4.86287L5.90813 2.80997C5.91432 2.67373 5.87097 2.56226 5.77808 2.47556C5.68519 2.38886 5.56908 2.34551 5.42974 2.34551C5.2904 2.34551 5.17584 2.38886 5.08604 2.47556C4.99625 2.55916 4.95444 2.66908 4.96064 2.80532L5.02102 4.86751C5.03031 5.1338 5.16809 5.26695 5.43438 5.26695ZM5.43438 6.73463C5.58301 6.73463 5.70841 6.68973 5.81059 6.59994C5.91587 6.50705 5.96851 6.38784 5.96851 6.24231C5.96851 6.09987 5.91587 5.98221 5.81059 5.88932C5.70841 5.79643 5.58301 5.74998 5.43438 5.74998C5.28576 5.74998 5.16035 5.79643 5.05817 5.88932C4.95599 5.98221 4.9049 6.09987 4.9049 6.24231C4.9049 6.38474 4.95599 6.5024 5.05817 6.59529C5.16345 6.68819 5.28885 6.73463 5.43438 6.73463Z"
    fill="currentColor"
  />
</svg>
