<svg
  width="10"
  height="10"
  viewBox="0 0 8 8"
  fill="none"
  xmlns="http://www.w3.org/2000/svg"
>
  <path
    d="M4 8C4.54798 8 5.06205 7.8955 5.54222 7.68651C6.02509 7.47752 6.451 7.18847 6.81994 6.81934C7.18888 6.45293 7.47779 6.02816 7.68667 5.54504C7.89556 5.06192 8 4.54623 8 3.99796C8 3.4497 7.8942 2.93537 7.6826 2.45496C7.47372 1.97184 7.18481 1.54572 6.81587 1.17659C6.44964 0.807464 6.02509 0.519763 5.54222 0.313486C5.05934 0.104495 4.54391 0 3.99593 0C3.45066 0 2.93659 0.104495 2.45371 0.313486C1.97084 0.519763 1.54493 0.807464 1.17599 1.17659C0.809766 1.54572 0.522211 1.97184 0.313327 2.45496C0.104442 2.93537 0 3.4497 0 3.99796C0 4.54623 0.104442 5.06192 0.313327 5.54504C0.522211 6.02816 0.809766 6.45293 1.17599 6.81934C1.54493 7.18847 1.97084 7.47752 2.45371 7.68651C2.93659 7.8955 3.45202 8 4 8ZM4 7.15725C3.56324 7.15725 3.15361 7.07583 2.77111 6.91298C2.38861 6.75013 2.05222 6.52485 1.76195 6.23715C1.4744 5.94673 1.24924 5.61018 1.08647 5.22748C0.923703 4.84478 0.842319 4.43495 0.842319 3.99796C0.842319 3.56098 0.923703 3.15115 1.08647 2.76845C1.24924 2.38575 1.4744 2.05055 1.76195 1.76285C2.05222 1.47243 2.38725 1.2458 2.76704 1.08295C3.14954 0.920102 3.55917 0.838677 3.99593 0.838677C4.4354 0.838677 4.84639 0.920102 5.22889 1.08295C5.61139 1.2458 5.94642 1.47243 6.23398 1.76285C6.52425 2.05055 6.75076 2.38575 6.91353 2.76845C7.0763 3.15115 7.15768 3.56098 7.15768 3.99796C7.15768 4.43495 7.0763 4.84478 6.91353 5.22748C6.75076 5.61018 6.52425 5.94673 6.23398 6.23715C5.94642 6.52485 5.61139 6.75013 5.22889 6.91298C4.8491 7.07583 4.43947 7.15725 4 7.15725ZM3.99593 4.61679C4.2238 4.61679 4.34181 4.49873 4.34995 4.2626L4.41099 2.4631C4.41641 2.34368 4.37843 2.24597 4.29705 2.16997C4.21567 2.09398 4.11394 2.05598 3.99186 2.05598C3.86979 2.05598 3.76941 2.09398 3.69074 2.16997C3.61207 2.24326 3.57545 2.33961 3.58087 2.45903L3.63377 4.26667C3.64191 4.50008 3.76263 4.61679 3.99593 4.61679ZM3.99593 5.90331C4.12614 5.90331 4.23601 5.86395 4.32553 5.78524C4.41777 5.70382 4.46389 5.59932 4.46389 5.47176C4.46389 5.3469 4.41777 5.24377 4.32553 5.16234C4.23601 5.08092 4.12614 5.0402 3.99593 5.0402C3.86572 5.0402 3.75585 5.08092 3.66633 5.16234C3.57681 5.24377 3.53204 5.3469 3.53204 5.47176C3.53204 5.59661 3.57681 5.69975 3.66633 5.78117C3.75856 5.8626 3.86843 5.90331 3.99593 5.90331Z"
    fill="currentColor"
  />
</svg>
