<svg width="26" height="26" viewBox="0 0 26 26" fill="none" xmlns="http://www.w3.org/2000/svg">
<path fill-rule="evenodd" clip-rule="evenodd" d="M13.7443 1.5C13.3628 0.833334 12.409 0.833333 12.0274 1.5L2.58472 18C2.20319 18.6667 2.6801 19.5 3.44315 19.5H22.3286C23.0916 19.5 23.5685 18.6667 23.187 18L13.7443 1.5ZM11.8948 7.49194H14.0596L13.6433 13.3359H12.3111L11.8948 7.49194ZM12.9653 16.1199C12.3944 16.1199 11.9424 15.6519 11.9424 15.0879C11.9424 14.5119 12.3944 14.0439 12.9653 14.0439C13.5362 14.0439 14.0001 14.5119 14.0001 15.0879C14.0001 15.6519 13.5362 16.1199 12.9653 16.1199Z" fill="currentColor"/>
</svg>
