<svg width="14" height="15" viewBox="0 0 14 15" fill="none" xmlns="http://www.w3.org/2000/svg">
<circle cx="4.30552" cy="4.26306" r="1.26304" fill="currentcolor"/>
<circle cx="9.69444" cy="4.26306" r="1.26304" fill="currentcolor"/>
<path fill-rule="evenodd" clip-rule="evenodd" d="M11.8874 8.71733C12.1393 8.32598 11.9472 7.82192 11.5236 7.62918C11.0999 7.43644 10.6065 7.63072 10.3318 8.00646C10.0337 8.41411 9.66194 8.76554 9.2332 9.04127C8.56684 9.46981 7.79117 9.69737 6.99891 9.69673C6.20665 9.6961 5.43134 9.4673 4.76568 9.03769C4.33738 8.76127 3.96613 8.40925 3.66875 8.00112C3.39466 7.62494 2.90155 7.42987 2.47758 7.62193C2.05361 7.81399 1.86071 8.31775 2.11204 8.7095C2.55882 9.40591 3.15106 10.0017 3.85169 10.4539C4.78938 11.0591 5.88153 11.3814 6.99756 11.3823C8.11358 11.3831 9.20625 11.0626 10.1449 10.4589C10.8463 10.0079 11.4395 9.41302 11.8874 8.71733Z" fill="currentcolor"/>
</svg>
