<svg width="14" height="14" viewBox="0 0 14 14" fill="none" xmlns="http://www.w3.org/2000/svg">
<path d="M5.25008 1.1665H2.33341C1.69 1.1665 1.16675 1.68975 1.16675 2.33317V6.4165C1.16675 7.05992 1.69 7.58317 2.33341 7.58317H5.25008C5.8935 7.58317 6.41675 7.05992 6.41675 6.4165V2.33317C6.41675 1.68975 5.8935 1.1665 5.25008 1.1665ZM11.6667 1.1665H8.75008C8.10667 1.1665 7.58342 1.68975 7.58342 2.33317V4.08317C7.58342 4.72659 8.10667 5.24984 8.75008 5.24984H11.6667C12.3102 5.24984 12.8334 4.72659 12.8334 4.08317V2.33317C12.8334 1.68975 12.3102 1.1665 11.6667 1.1665ZM5.25008 8.74984H2.33341C1.69 8.74984 1.16675 9.27309 1.16675 9.9165V11.6665C1.16675 12.3099 1.69 12.8332 2.33341 12.8332H5.25008C5.8935 12.8332 6.41675 12.3099 6.41675 11.6665V9.9165C6.41675 9.27309 5.8935 8.74984 5.25008 8.74984ZM11.6667 6.4165H8.75008C8.10667 6.4165 7.58342 6.93975 7.58342 7.58317V11.6665C7.58342 12.3099 8.10667 12.8332 8.75008 12.8332H11.6667C12.3102 12.8332 12.8334 12.3099 12.8334 11.6665V7.58317C12.8334 6.93975 12.3102 6.4165 11.6667 6.4165Z" fill="currentColor"/>
</svg>
