<svg width="268" height="269" viewBox="0 0 268 269" xmlns="http://www.w3.org/2000/svg">
<mask id="path-1-outside-1" maskUnits="userSpaceOnUse" x="0" y="0.5" width="268" height="268" fill="black">
<rect fill="white" y="0.5" width="268" height="268"/>
<path fill-rule="evenodd" clip-rule="evenodd" d="M16 2.5H42V10.5H16C12.6863 10.5 10 13.1863 10 16.5V42.4994H2V16.5C2 8.76801 8.26801 2.5 16 2.5ZM2 226.499H10V252.5C10 255.814 12.6863 258.5 16 258.5H42V266.5H16C8.26801 266.5 2 260.232 2 252.5V226.499ZM226 266.5H252C259.732 266.5 266 260.232 266 252.5V226.499H258V252.5C258 255.814 255.314 258.5 252 258.5H226V266.5ZM258 42.4994V16.5C258 13.1863 255.314 10.5 252 10.5H226V2.5H252C259.732 2.5 266 8.76801 266 16.5V42.4994H258Z"/>
</mask>
<path fill-rule="evenodd" clip-rule="evenodd" d="M16 2.5H42V10.5H16C12.6863 10.5 10 13.1863 10 16.5V42.4994H2V16.5C2 8.76801 8.26801 2.5 16 2.5ZM2 226.499H10V252.5C10 255.814 12.6863 258.5 16 258.5H42V266.5H16C8.26801 266.5 2 260.232 2 252.5V226.499ZM226 266.5H252C259.732 266.5 266 260.232 266 252.5V226.499H258V252.5C258 255.814 255.314 258.5 252 258.5H226V266.5ZM258 42.4994V16.5C258 13.1863 255.314 10.5 252 10.5H226V2.5H252C259.732 2.5 266 8.76801 266 16.5V42.4994H258Z" fill="white" fill-opacity="0.65"/>
<path d="M42 2.5H44C44 1.39543 43.1045 0.5 42 0.5V2.5ZM42 10.5V12.5C43.1045 12.5 44 11.6046 44 10.5H42ZM10 42.4994V44.4994C11.1046 44.4994 12 43.604 12 42.4994H10ZM2 42.4994H0C0 43.604 0.89543 44.4994 2 44.4994L2 42.4994ZM10 226.499H12C12 225.395 11.1046 224.499 10 224.499V226.499ZM2 226.499V224.499C0.89543 224.499 0 225.395 0 226.499H2ZM42 258.5H44C44 257.395 43.1045 256.5 42 256.5V258.5ZM42 266.5V268.5C43.1045 268.5 44 267.605 44 266.5H42ZM226 266.5H224C224 267.605 224.895 268.5 226 268.5V266.5ZM266 226.499H268C268 225.395 267.105 224.499 266 224.499V226.499ZM258 226.499V224.499C256.895 224.499 256 225.395 256 226.499H258ZM226 258.5V256.5C224.895 256.5 224 257.395 224 258.5H226ZM258 42.4994H256C256 43.604 256.895 44.4994 258 44.4994V42.4994ZM226 10.5H224C224 11.6046 224.895 12.5 226 12.5V10.5ZM226 2.5V0.5C224.895 0.5 224 1.39543 224 2.5L226 2.5ZM266 42.4994V44.4994C267.105 44.4994 268 43.604 268 42.4994H266ZM42 0.5H16V4.5H42V0.5ZM44 10.5V2.5H40V10.5H44ZM16 12.5H42V8.5H16V12.5ZM12 16.5C12 14.2909 13.7909 12.5 16 12.5V8.5C11.5817 8.5 8 12.0817 8 16.5H12ZM12 42.4994V16.5H8V42.4994H12ZM2 44.4994H10V40.4994H2V44.4994ZM0 16.5V42.4994H4V16.5H0ZM16 0.5C7.16344 0.5 0 7.66344 0 16.5H4C4 9.87258 9.37258 4.5 16 4.5V0.5ZM10 224.499H2V228.499H10V224.499ZM12 252.5V226.499H8V252.5H12ZM16 256.5C13.7909 256.5 12 254.709 12 252.5H8C8 256.918 11.5817 260.5 16 260.5V256.5ZM42 256.5H16V260.5H42V256.5ZM44 266.5V258.5H40V266.5H44ZM16 268.5H42V264.5H16V268.5ZM0 252.5C0 261.337 7.16344 268.5 16 268.5V264.5C9.37258 264.5 4 259.127 4 252.5H0ZM0 226.499V252.5H4V226.499H0ZM252 264.5H226V268.5H252V264.5ZM264 252.5C264 259.127 258.627 264.5 252 264.5V268.5C260.837 268.5 268 261.337 268 252.5H264ZM264 226.499V252.5H268V226.499H264ZM266 224.499H258V228.499H266V224.499ZM260 252.5V226.499H256V252.5H260ZM252 260.5C256.418 260.5 260 256.918 260 252.5H256C256 254.709 254.209 256.5 252 256.5V260.5ZM226 260.5H252V256.5H226V260.5ZM228 266.5V258.5H224V266.5H228ZM260 42.4994V16.5H256V42.4994H260ZM260 16.5C260 12.0817 256.418 8.5 252 8.5V12.5C254.209 12.5 256 14.2909 256 16.5H260ZM252 8.5H226V12.5H252V8.5ZM228 10.5V2.5H224V10.5H228ZM226 4.5H252V0.5H226V4.5ZM252 4.5C258.627 4.5 264 9.87258 264 16.5H268C268 7.66345 260.837 0.5 252 0.5V4.5ZM264 16.5V42.4994H268V16.5H264ZM258 44.4994H266V40.4994H258V44.4994Z" fill="black" fill-opacity="0.3" mask="url(#path-1-outside-1)"/>
</svg>
