<svg xmlns="http://www.w3.org/2000/svg" width="196" height="38" fill="none">
    <path fill="#fff" fill-rule="evenodd"
        d="M38 19C38 8.507 29.493 0 19 0S0 8.507 0 19c0 10.494 8.507 19 19 19s19-8.506 19-19ZM15.652 8.261c-.152.299-.152.689-.152 1.47v4.711c0 .205 0 .307.027.4a.695.695 0 0 0 .115.23c.059.079.14.14.304.263l.967.725c.2.15.3.224.335.316.032.08.033.17.002.251-.035.093-.134.169-.33.32l-.986.76c-.159.123-.239.184-.296.261a.698.698 0 0 0-.112.228c-.026.092-.026.193-.026.394v9.68c0 .78 0 1.17.152 1.469.134.262.347.475.61.61.297.151.688.151 1.469.151h2.538c.781 0 1.172 0 1.47-.152.262-.134.475-.347.609-.61.152-.297.152-.688.152-1.469v-4.711c0-.205 0-.307-.027-.4a.695.695 0 0 0-.115-.23c-.059-.079-.14-.14-.304-.263l-.967-.725c-.2-.15-.3-.224-.335-.316a.348.348 0 0 1-.002-.251c.035-.093.134-.169.33-.32l.986-.76c.159-.123.239-.184.296-.261a.694.694 0 0 0 .112-.228c.026-.092.026-.193.026-.394V9.73c0-.78 0-1.17-.152-1.469a1.394 1.394 0 0 0-.61-.609C21.442 7.5 21.05 7.5 20.27 7.5h-2.538c-.781 0-1.172 0-1.47.152a1.394 1.394 0 0 0-.609.61Z"
        clip-rule="evenodd" />
    <path fill="#fff"
        d="M52.876 30.118c.185 0 .335-.15.335-.335V7.835a.335.335 0 0 0-.335-.335H49.64c-.12 0-.23.065-.295.165-.742 1.128-2.12 1.696-4.01 1.755a.344.344 0 0 0-.336.34v3.283c0 .185.15.335.335.335h2.614c.185 0 .335.15.335.335v16.07c0 .185.15.335.336.335h4.256ZM65.789 12.037c1.745 0 3.147.928 3.147 3.266 0 2.269-1.403 3.265-3.147 3.265H61.99v-6.53h3.798Zm0 10.76c5.132 0 8.108-3.129 8.108-7.632 0-4.262-2.977-7.39-8.108-7.39h-8.355a.335.335 0 0 0-.335.335v21.673c0 .185.15.335.335.335h4.222c.185 0 .335-.15.335-.335v-6.651c0-.186.15-.336.335-.336h3.463ZM81.485 26.956c-1.437 0-2.326-.654-2.326-1.822 0-1.031.616-1.719 2.087-1.719h4.003v.344c0 1.994-1.711 3.197-3.764 3.197Zm4.14 2.827c0 .185.15.335.335.335h3.675c.185 0 .335-.15.335-.335V20.08c0-4.675-2.635-7.39-7.39-7.39-3.53 0-6.234 1.886-7.343 4.92a.325.325 0 0 0 .233.424l3.702.908a.348.348 0 0 0 .403-.211c.562-1.376 1.498-2.192 3.005-2.192 1.574 0 2.669 1.032 2.669 2.888v.24c0 .516-.171.722-.787.722h-4.277c-3.558 0-5.713 1.89-5.713 4.881 0 3.197 2.463 5.26 5.884 5.26 1.722 0 3.376-.566 4.541-1.827.23-.248.728-.097.728.24v.839ZM99.073 27.093c-1.663 0-2.877-.69-3.476-1.959a.358.358 0 0 0-.406-.202l-3.461.877a.321.321 0 0 0-.235.401c.876 2.911 3.807 4.32 7.406 4.32 4.619 0 7.254-2.371 7.254-5.602 0-6.256-9.888-4.125-9.888-7.219 0-1.031.855-1.684 2.395-1.684 1.532 0 2.558.838 3.05 2.123.061.159.224.259.392.227l3.532-.669a.323.323 0 0 0 .255-.407c-.81-2.737-3.087-4.608-7.195-4.608-4.516 0-6.91 2.406-6.91 5.43 0 6.463 9.921 4.538 9.921 7.22 0 1.065-.89 1.752-2.634 1.752ZM114.443 27.093c-1.663 0-2.877-.69-3.476-1.959a.357.357 0 0 0-.406-.202l-3.461.877a.32.32 0 0 0-.234.401c.876 2.911 3.806 4.32 7.406 4.32 4.618 0 7.253-2.371 7.253-5.602 0-6.256-9.888-4.125-9.888-7.219 0-1.031.856-1.684 2.395-1.684 1.532 0 2.558.838 3.05 2.123.061.159.225.259.392.227l3.532-.669a.323.323 0 0 0 .255-.407c-.81-2.737-3.087-4.608-7.195-4.608-4.516 0-6.911 2.406-6.911 5.43 0 6.463 9.922 4.538 9.922 7.22 0 1.065-.889 1.752-2.634 1.752ZM125.85 29.862c.036.15.171.256.325.256h5.322c.155 0 .29-.107.326-.258l2.71-11.532 2.711 11.532a.336.336 0 0 0 .326.258h5.493a.335.335 0 0 0 .326-.255l4.009-16.345a.335.335 0 0 0-.325-.415h-3.782a.335.335 0 0 0-.328.267l-2.682 12.967-3.322-12.982a.336.336 0 0 0-.325-.252h-4.231a.335.335 0 0 0-.326.258l-3.086 12.976-2.648-12.966a.335.335 0 0 0-.328-.268h-3.816a.336.336 0 0 0-.326.414l3.977 16.345ZM156.437 30.53c5.132 0 8.656-3.987 8.656-8.902 0-4.95-3.524-8.938-8.656-8.938-5.097 0-8.656 3.988-8.656 8.938 0 4.915 3.559 8.902 8.656 8.902Zm0-4.09c-2.121 0-3.763-1.787-3.763-4.812 0-3.025 1.642-4.847 3.763-4.847s3.798 1.822 3.798 4.847c0 3.025-1.677 4.812-3.798 4.812ZM171.841 21.112c0-2.922 1.471-3.61 3.729-3.61.433 0 .909.044 1.359.13a.351.351 0 0 0 .415-.277l.716-4.048a.31.31 0 0 0-.176-.343c-.411-.175-.92-.274-1.527-.274-2.292 0-4.071 1.341-4.926 4.057v-3.309a.336.336 0 0 0-.336-.335h-3.708a.335.335 0 0 0-.336.335v16.345c0 .185.15.335.336.335h4.119c.185 0 .335-.15.335-.335v-8.67ZM186.912 26.543c-2.463 0-3.763-2.028-3.763-4.915 0-2.888 1.3-4.95 3.763-4.95s3.763 2.062 3.763 4.95c0 2.887-1.3 4.915-3.763 4.915Zm4.037 3.24c0 .185.15.335.335.335h3.846c.185 0 .335-.15.335-.335V8.16a.335.335 0 0 0-.335-.335h-3.983a.335.335 0 0 0-.335.335v7.315c-1.06-1.994-2.839-2.784-5.097-2.784-4.414 0-7.425 3.85-7.425 8.937s3.011 8.902 7.425 8.902c2.394 0 4.242-.962 5.234-3.437v2.69Z" />
</svg>