<svg width="1000" height="132" viewBox="0 0 1000 132" fill="none" xmlns="http://www.w3.org/2000/svg">
<g clip-path="url(#clip0)">
<rect width="1000" height="132" fill="#373A3D"/>
<path d="M563.536 142.784C542.285 157.308 501.531 157.874 491.077 110.389C477.11 46.9445 548.772 48.0514 583.959 54.4882C635.111 63.8456 652.031 102.463 626.904 112.267C601.777 122.072 584.786 128.26 563.536 142.784Z" fill="white" fill-opacity="0.08"/>
<path d="M378.512 88.445C380.804 93.2984 379.296 100.247 374.246 104.032C367.994 108.719 354.844 108.326 352.19 100.976C349.639 93.9118 360.722 86.0972 365.576 83.8059C370.429 81.5146 376.221 83.5916 378.512 88.445Z" fill="white" fill-opacity="0.08"/>
<path d="M461.983 50.7519C468.239 64.0026 464.123 82.9729 450.336 93.308C433.266 106.104 397.363 105.031 390.118 84.9644C383.153 65.6774 407.21 44.676 420.461 38.4203C433.711 32.1646 455.727 37.5011 461.983 50.7519Z" fill="white" fill-opacity="0.08"/>
<path d="M665.074 17.746L675.497 4.44913C676.514 3.15261 678.389 2.92545 679.685 3.94177L685.925 8.83348C686.579 9.34593 686.99 10.1078 687.058 10.9356L687.532 16.6724C687.594 17.4215 687.37 18.1664 686.907 18.758L679.089 28.7315C678.072 30.028 676.197 30.2552 674.901 29.2388L665.582 21.9338C664.285 20.9174 664.058 19.0425 665.074 17.746Z" stroke="black" stroke-width="1.2" stroke-miterlimit="10" stroke-linecap="round" stroke-linejoin="round"/>
<path d="M683.426 13.3564L686.864 8.9707C686.864 8.9707 687.349 9.40977 687.578 10.6365C687.594 10.7237 687.978 15.8851 688.097 16.7537C688.215 17.6222 687.68 18.5853 687.68 18.5853L683.68 15.4504C683.031 14.9423 682.918 14.0047 683.426 13.3564Z" fill="black"/>
<path d="M652.914 56.299C653.498 55.5 653.543 54.3923 652.946 53.5456C652.196 52.4812 650.717 52.2325 649.642 52.9899C648.567 53.7474 648.304 55.2243 649.054 56.2886C649.382 56.7548 649.851 57.0646 650.364 57.2018L651.523 60.5431L654.074 59.6433L652.914 56.299Z" fill="black"/>
<rect x="640.659" y="50.9961" width="16.9062" height="16.9062" rx="4" transform="rotate(-19.2446 640.659 50.9961)" stroke="black" stroke-width="1.2" stroke-miterlimit="10" stroke-linecap="round" stroke-linejoin="round"/>
<path fill-rule="evenodd" clip-rule="evenodd" d="M579.539 9.8309C578.702 9.64587 577.87 10.1597 577.648 10.9953C577.463 11.8326 577.975 12.7015 578.812 12.8865C579.65 13.0716 580.482 12.5578 580.704 11.7221C580.925 10.8865 580.376 10.0159 579.539 9.8309ZM592.152 3.3062L591.559 5.85313L590.687 6.43866L589.231 6.11528L588.907 7.57138L587.039 9.03102L585.143 10.3055L583.781 11.163C583.836 13.1878 582.54 15.0043 580.601 15.615C578.663 16.189 576.566 15.3953 575.503 13.6926C574.441 11.9898 574.654 9.71978 576.045 8.23853C577.436 6.75727 579.659 6.38005 581.417 7.34218L589.097 2.5794L592.152 3.3062Z" fill="black"/>
<circle cx="509.93" cy="13.6643" r="3.64868" fill="black"/>
<path fill-rule="evenodd" clip-rule="evenodd" d="M426.277 5.36027C423.014 7.32753 420.986 10.7215 420.403 14.6733C420.316 15.2638 419.767 15.6718 419.176 15.5848C418.586 15.4977 418.178 14.9485 418.265 14.3581C418.927 9.86886 421.263 5.8597 425.161 3.50943C429.059 1.15916 433.695 0.964903 437.974 2.47528C438.537 2.67392 438.832 3.29117 438.634 3.85394C438.435 4.41671 437.818 4.71189 437.255 4.51325C433.488 3.18369 429.54 3.39301 426.277 5.36027ZM429.426 10.5834C427.697 11.6254 426.604 13.433 426.288 15.5761C426.201 16.1665 425.652 16.5745 425.062 16.4875C424.471 16.4005 424.063 15.8513 424.15 15.2608C424.545 12.5804 425.946 10.1576 428.31 8.73253C430.673 7.30744 433.47 7.19966 436.025 8.10148C436.588 8.30012 436.883 8.91737 436.684 9.48014C436.486 10.0429 435.868 10.3381 435.306 10.1395C433.263 9.41845 431.154 9.54129 429.426 10.5834ZM433.85 17.9216C435.01 17.2222 435.384 15.7147 434.684 14.5545C433.985 13.3944 432.477 13.021 431.317 13.7204C430.157 14.4198 429.784 15.9273 430.483 17.0875C431.183 18.2476 432.69 18.621 433.85 17.9216Z" fill="black"/>
<path d="M355.714 55.6579C355.853 55.3768 356.254 55.3768 356.392 55.6579L357.831 58.5725C357.886 58.6841 357.992 58.7615 358.116 58.7794L361.332 59.2468C361.642 59.2919 361.766 59.6731 361.542 59.8919L359.214 62.1606C359.125 62.2475 359.084 62.3727 359.105 62.4954L359.655 65.6988C359.708 66.0078 359.384 66.2434 359.106 66.0975L356.229 64.5851C356.119 64.5271 355.987 64.5271 355.877 64.5851L353 66.0975C352.723 66.2434 352.399 66.0078 352.452 65.6988L353.001 62.4954C353.022 62.3727 352.981 62.2475 352.892 62.1606L350.565 59.8919C350.34 59.6731 350.464 59.2919 350.774 59.2468L353.991 58.7794C354.114 58.7615 354.221 58.6841 354.276 58.5725L355.714 55.6579Z" fill="black"/>
<path d="M342.333 24.6376L346.917 24.2909C341.818 15.2002 332.723 12.4993 328.813 12.2852L330.403 16.7267C336.042 17.7082 340.706 22.4096 342.333 24.6376Z" fill="black"/>
<path d="M318.963 27.0395L330.048 16.9441C330.349 16.6795 330.46 16.2579 330.326 15.8884L329.076 12.4262C328.973 12.1425 329.013 11.8222 329.184 11.5655L331.224 8.48933C331.427 8.18245 331.783 8.01586 332.139 8.06092L334.449 8.35353C334.932 8.41462 335.262 8.86182 335.188 9.35237C335.167 9.48523 335.118 9.61268 335.043 9.72534C334.803 10.0872 334.893 10.5689 335.243 10.8012C335.364 10.8815 335.506 10.9243 335.653 10.9246L337.212 10.9281C337.531 10.9288 337.834 10.7646 338.014 10.4925L338.782 9.33441C339.366 8.45358 340.531 8.19796 341.384 8.76346L345.546 11.5236C346.399 12.0891 346.617 13.2616 346.033 14.1424L345.265 15.3004C345.084 15.5726 345.051 15.915 345.175 16.2088L345.785 17.6436C345.951 18.0343 346.403 18.2051 346.794 18.0252C346.929 17.9631 347.044 17.8636 347.127 17.7386C347.403 17.3226 347.953 17.2019 348.356 17.469C348.465 17.5413 348.556 17.638 348.622 17.7519L349.791 19.7665C349.971 20.0768 349.956 20.4695 349.752 20.7764L347.713 23.8525C347.542 24.1092 347.263 24.2709 346.962 24.2869L343.286 24.4821C342.893 24.503 342.548 24.7693 342.421 25.149L337.435 39.2891" stroke="black" stroke-width="1.2" stroke-linecap="round"/>
<path d="M329.741 12.4824C329.741 12.4824 334.307 12.8413 339.311 16.1598C344.316 19.4784 346.423 23.5442 346.423 23.5442" stroke="black" stroke-width="1.2" stroke-linecap="round"/>
<path d="M330.51 16.8784C330.51 16.8784 334.188 17.7659 337.151 19.7311C340.115 21.6962 342.364 24.739 342.364 24.739" stroke="black" stroke-width="1.2" stroke-linecap="round"/>
<path fill-rule="evenodd" clip-rule="evenodd" d="M329.15 25.9114C329.833 24.8817 331.222 24.6005 332.251 25.2833L333.882 26.3647C334.912 27.0475 335.193 28.4358 334.51 29.4655L329.944 36.3508L324.584 32.7966L329.15 25.9114Z" fill="black"/>
<rect x="411.038" y="58.082" width="157.148" height="96.7881" rx="7" transform="rotate(-9.86082 411.038 58.082)" fill="#6A7075"/>
<path opacity="0.5" fill-rule="evenodd" clip-rule="evenodd" d="M416.972 58.2364C416.978 58.2737 416.984 58.3111 416.991 58.3484L431.168 139.914C431.831 143.722 435.455 146.273 439.264 145.611L580.297 121.096C580.433 121.073 580.566 121.046 580.698 121.015C581.291 124.783 578.753 128.343 574.981 128.998L433.948 153.513C430.139 154.175 426.515 151.624 425.853 147.815L411.675 66.2503C411.036 62.5765 413.387 59.0743 416.972 58.2364Z" fill="#373A3D"/>
<rect x="411.048" y="58.1387" width="157.148" height="96.7881" rx="7" transform="rotate(-9.86083 411.048 58.1387)" stroke="black" stroke-width="1.2" stroke-linecap="round" stroke-linejoin="round"/>
<path fill-rule="evenodd" clip-rule="evenodd" d="M418.34 56.1059C414.531 56.768 411.98 60.3924 412.642 64.2013L413.515 69.221L568.342 42.3085L567.469 37.2888C566.807 33.4799 563.183 30.9289 559.374 31.591L418.34 56.1059Z" fill="black"/>
<path d="M450.191 51.6836L466.659 146.423" stroke="black" stroke-width="1.2" stroke-miterlimit="10" stroke-linecap="round" stroke-linejoin="round"/>
<path d="M494.073 50.7188L510.541 145.458" stroke="black" stroke-width="1.2" stroke-miterlimit="10" stroke-linecap="round" stroke-linejoin="round"/>
<circle cx="480.54" cy="105.971" r="8.66249" fill="#8F959C"/>
<rect x="466.25" y="72.877" width="16.257" height="16.257" rx="3" transform="rotate(-10.0212 466.25 72.877)" fill="#8F959C"/>
<circle r="2.86951" transform="matrix(0.986643 -0.162899 0.1629 0.986642 422.178 61.8579)" fill="#8F959C"/>
<ellipse cx="431.204" cy="60.3676" rx="2.86951" ry="2.86951" transform="rotate(-9.37528 431.204 60.3676)" fill="white"/>
<path d="M424.049 128.978L421.431 117.5C422.148 117.479 425.768 111.584 432.359 110.244C441.697 108.345 455.226 112.063 456.735 111.287C456.761 111.268 456.788 111.25 456.815 111.231C456.794 111.252 456.767 111.27 456.735 111.287C451.489 114.946 446.077 115.754 437.611 115.29C435.244 115.16 432.805 115.251 430.679 116.299C422.13 120.516 424.043 128.947 424.049 128.978Z" fill="black"/>
<path d="M449.078 74.1623C460.028 76.4897 467.022 87.258 464.694 98.2082C462.367 109.158 451.598 116.152 440.648 113.824C429.698 111.497 422.705 100.728 425.032 89.7782C427.36 78.828 438.108 71.8306 449.078 74.1623Z" fill="white" stroke="black" stroke-width="1.2" stroke-miterlimit="10" stroke-linecap="round" stroke-linejoin="round"/>
<path d="M447.989 79.2862C456.106 81.0115 461.295 89.0024 459.57 97.1196C457.845 105.237 449.854 110.426 441.737 108.701C433.619 106.976 428.43 98.9848 430.155 90.8676C431.86 82.7461 439.851 77.5566 447.989 79.2862Z" fill="white" stroke="#248AFF" stroke-width="3" stroke-miterlimit="10" stroke-linecap="round" stroke-linejoin="round"/>
<path d="M448.648 85.7675L444.73 84.9347C444.248 84.8322 443.756 85.1688 443.601 85.7027L443.588 85.763L442.717 89.8618C442.682 90.0225 442.713 90.176 442.768 90.3136L442.799 90.3623L443.245 91.1291C443.411 91.4373 443.35 91.8233 443.089 92.0619L443.04 92.0935L442.321 92.6126C442.195 92.7118 442.105 92.8397 442.05 92.9961L442.038 93.0564L440.351 100.993C440.235 101.535 440.523 102.058 440.997 102.201L441.057 102.214L444.975 103.047C445.457 103.149 445.949 102.813 446.104 102.279L446.117 102.218L446.924 98.421C446.958 98.2603 446.932 98.0867 446.878 97.9491L446.846 97.9004L446.4 97.1336C446.234 96.8254 446.295 96.4394 446.556 96.2008L446.605 96.1692L447.324 95.6501C447.45 95.5509 447.54 95.423 447.595 95.2666L447.608 95.2063L449.358 86.9685C449.474 86.426 449.15 85.8742 448.648 85.7675Z" fill="black"/>
<path d="M410.059 82.2533C409.434 77.0013 413.202 75.8572 414.135 76.1259L417.345 93.0701C418.625 94.5827 417.799 94.6831 422.28 94.2112C430.956 93.2976 431.47 98.2548 430.49 99.3269C435.992 98.4264 437.377 104.116 430.49 105.245C434.468 105.927 435.53 111.027 429.184 111.842C431.512 112.241 429.802 116.489 423.182 117.385C419.074 117.941 414.344 119.716 411.224 117.385C403.819 111.851 406.913 100.928 408.891 96.0465C410.87 91.1651 410.769 88.215 410.059 82.2533Z" fill="white"/>
<path d="M429.184 111.842C431.512 112.241 429.802 116.489 423.182 117.385C419.074 117.941 414.344 119.716 411.224 117.385C403.819 111.851 406.913 100.928 408.891 96.0465C410.87 91.1651 410.769 88.215 410.059 82.2533C409.434 77.0013 413.202 75.8572 414.135 76.1259L417.345 93.0701C418.625 94.5827 417.799 94.6831 422.28 94.2112C430.956 93.2976 431.47 98.2548 430.49 99.3269M429.184 111.842C435.53 111.027 434.468 105.927 430.49 105.245M429.184 111.842C428.558 111.735 419.361 113.264 417.345 113.096C415.732 112.962 412.296 111.257 411.224 111.014M430.49 105.245C437.377 104.116 435.992 98.4264 430.49 99.3269M430.49 105.245C428.429 105.583 419.655 106.468 417.878 106.875C416.101 107.281 411.261 105.159 410.059 104.835M430.49 99.3269C429.109 99.5529 419.711 100.578 417.868 101.103C416.026 101.628 412.045 99.8182 411.224 99.3269" stroke="black" stroke-width="1.2" stroke-miterlimit="10" stroke-linecap="round" stroke-linejoin="round"/>
<path d="M605.083 100.529C608.474 97.41 613.444 88.4084 606.196 77.3502" stroke="black" stroke-width="1.2" stroke-miterlimit="10" stroke-linecap="round" stroke-linejoin="round"/>
<path d="M550.755 69.8227L519.674 91.9268C518.005 93.1139 517.629 95.4227 518.835 97.0838L531.292 114.244C532.498 115.905 534.828 116.29 536.497 115.103L567.579 92.9986C569.248 91.8116 569.624 89.5027 568.418 87.8416L555.961 70.681C554.755 69.0199 552.425 68.6357 550.755 69.8227Z" fill="#85BEFF" stroke="black" stroke-width="1.2" stroke-linecap="round" stroke-linejoin="round"/>
<path d="M523.804 102.814L520.889 98.7661L557.136 73.199L560.051 77.247L523.804 102.814Z" fill="black" stroke="black" stroke-width="1.2"/>
<mask id="path-37-inside-1" fill="white">
<path fill-rule="evenodd" clip-rule="evenodd" d="M552.807 90.4801C552.488 90.0294 552.595 89.4053 553.045 89.086L559.531 84.4921C559.982 84.1729 560.606 84.2794 560.925 84.7301L561.701 85.8254L556.311 89.6433L554.957 87.7322L554.141 88.3102L555.495 90.2213L553.583 91.5753L554.161 92.3913L559.552 88.573L560.617 90.0766L555.227 93.8946L555.805 94.7107L561.195 90.8926L562.548 92.8036L557.974 96.0439C557.523 96.3631 556.899 96.2566 556.58 95.8059L552.807 90.4801ZM562.011 90.3146L563.364 92.2256L564.459 91.4499C564.91 91.1307 565.017 90.5066 564.697 90.0559L563.922 88.9609L562.011 90.3146ZM563.344 88.1449L562.279 86.6414L560.368 87.995L561.433 89.4985L563.344 88.1449Z"/>
</mask>
<path fill-rule="evenodd" clip-rule="evenodd" d="M552.807 90.4801C552.488 90.0294 552.595 89.4053 553.045 89.086L559.531 84.4921C559.982 84.1729 560.606 84.2794 560.925 84.7301L561.701 85.8254L556.311 89.6433L554.957 87.7322L554.141 88.3102L555.495 90.2213L553.583 91.5753L554.161 92.3913L559.552 88.573L560.617 90.0766L555.227 93.8946L555.805 94.7107L561.195 90.8926L562.548 92.8036L557.974 96.0439C557.523 96.3631 556.899 96.2566 556.58 95.8059L552.807 90.4801ZM562.011 90.3146L563.364 92.2256L564.459 91.4499C564.91 91.1307 565.017 90.5066 564.697 90.0559L563.922 88.9609L562.011 90.3146ZM563.344 88.1449L562.279 86.6414L560.368 87.995L561.433 89.4985L563.344 88.1449Z" fill="black"/>
<path d="M553.045 89.086L552.352 88.1068L552.352 88.1068L553.045 89.086ZM552.807 90.4801L551.828 91.1737L551.828 91.1737L552.807 90.4801ZM559.531 84.4921L560.224 85.4713L559.531 84.4921ZM560.925 84.7301L561.904 84.0365L561.904 84.0365L560.925 84.7301ZM561.701 85.8254L562.394 86.8046L563.374 86.111L562.68 85.1317L561.701 85.8254ZM556.311 89.6433L555.332 90.3369L556.025 91.3162L557.004 90.6225L556.311 89.6433ZM554.957 87.7322L555.936 87.0386L555.243 86.0593L554.263 86.753L554.957 87.7322ZM554.141 88.3102L553.447 87.331L552.468 88.0247L553.162 89.0039L554.141 88.3102ZM555.495 90.2213L556.188 91.2006L557.168 90.5069L556.474 89.5277L555.495 90.2213ZM553.583 91.5753L552.89 90.5961L551.91 91.2897L552.604 92.2689L553.583 91.5753ZM554.161 92.3913L553.182 93.085L553.876 94.0642L554.855 93.3706L554.161 92.3913ZM559.552 88.573L560.531 87.8794L559.837 86.9002L558.858 87.5938L559.552 88.573ZM560.617 90.0766L561.31 91.0558L562.29 90.3622L561.596 89.3829L560.617 90.0766ZM555.227 93.8946L554.533 92.9154L553.554 93.609L554.247 94.5883L555.227 93.8946ZM555.805 94.7107L554.825 95.4043L555.519 96.3835L556.498 95.6899L555.805 94.7107ZM561.195 90.8926L562.174 90.199L561.48 89.2197L560.501 89.9134L561.195 90.8926ZM562.548 92.8036L563.242 93.7828L564.221 93.0892L563.528 92.11L562.548 92.8036ZM557.974 96.0439L558.668 97.0231L558.668 97.0231L557.974 96.0439ZM556.58 95.8059L557.559 95.1123L556.58 95.8059ZM562.011 90.3146L561.317 89.3353L560.338 90.029L561.032 91.0082L562.011 90.3146ZM563.364 92.2256L562.385 92.9192L563.079 93.8984L564.058 93.2048L563.364 92.2256ZM564.459 91.4499L563.766 90.4707L563.766 90.4707L564.459 91.4499ZM564.697 90.0559L565.677 89.3623L565.677 89.3623L564.697 90.0559ZM563.922 88.9609L564.901 88.2673L564.207 87.2881L563.228 87.9817L563.922 88.9609ZM563.344 88.1449L564.037 89.1241L565.017 88.4305L564.323 87.4513L563.344 88.1449ZM562.279 86.6414L563.258 85.9477L562.564 84.9685L561.585 85.6622L562.279 86.6414ZM560.368 87.995L559.674 87.0158L558.695 87.7094L559.389 88.6886L560.368 87.995ZM561.433 89.4985L560.454 90.1922L561.147 91.1714L562.126 90.4778L561.433 89.4985ZM552.352 88.1068C551.36 88.8091 551.126 90.1822 551.828 91.1737L553.787 89.7865C553.85 89.8766 553.829 90.0014 553.739 90.0653L552.352 88.1068ZM558.837 83.5129L552.352 88.1068L553.739 90.0653L560.224 85.4713L558.837 83.5129ZM561.904 84.0365C561.202 83.045 559.829 82.8106 558.837 83.5129L560.224 85.4713C560.134 85.5352 560.01 85.5139 559.946 85.4237L561.904 84.0365ZM562.68 85.1317L561.904 84.0365L559.946 85.4237L560.722 86.519L562.68 85.1317ZM557.004 90.6225L562.394 86.8046L561.007 84.8461L555.617 88.6641L557.004 90.6225ZM553.978 88.4258L555.332 90.3369L557.29 88.9497L555.936 87.0386L553.978 88.4258ZM554.835 89.2895L555.651 88.7114L554.263 86.753L553.447 87.331L554.835 89.2895ZM556.474 89.5277L555.12 87.6166L553.162 89.0039L554.516 90.915L556.474 89.5277ZM554.277 92.5545L556.188 91.2006L554.801 89.2421L552.89 90.5961L554.277 92.5545ZM555.141 91.6977L554.563 90.8817L552.604 92.2689L553.182 93.085L555.141 91.6977ZM558.858 87.5938L553.468 91.4121L554.855 93.3706L560.245 89.5523L558.858 87.5938ZM561.596 89.3829L560.531 87.8794L558.573 89.2667L559.638 90.7702L561.596 89.3829ZM555.92 94.8739L561.31 91.0558L559.923 89.0973L554.533 92.9154L555.92 94.8739ZM556.784 94.017L556.206 93.201L554.247 94.5883L554.825 95.4043L556.784 94.017ZM560.501 89.9134L555.111 93.7314L556.498 95.6899L561.888 91.8718L560.501 89.9134ZM563.528 92.11L562.174 90.199L560.216 91.5862L561.569 93.4972L563.528 92.11ZM558.668 97.0231L563.242 93.7828L561.855 91.8244L557.28 95.0647L558.668 97.0231ZM555.601 96.4995C556.303 97.491 557.676 97.7254 558.668 97.0231L557.28 95.0647C557.37 95.0008 557.495 95.0221 557.559 95.1123L555.601 96.4995ZM551.828 91.1737L555.601 96.4995L557.559 95.1123L553.787 89.7865L551.828 91.1737ZM561.032 91.0082L562.385 92.9192L564.344 91.5319L562.99 89.6209L561.032 91.0082ZM564.058 93.2048L565.153 92.4292L563.766 90.4707L562.671 91.2463L564.058 93.2048ZM565.153 92.4292C566.145 91.7269 566.379 90.3538 565.677 89.3623L563.718 90.7495C563.654 90.6594 563.676 90.5346 563.766 90.4707L565.153 92.4292ZM565.677 89.3623L564.901 88.2673L562.943 89.6546L563.718 90.7495L565.677 89.3623ZM563.228 87.9817L561.317 89.3353L562.704 91.2938L564.615 89.9402L563.228 87.9817ZM564.323 87.4513L563.258 85.9477L561.3 87.335L562.365 88.8385L564.323 87.4513ZM561.585 85.6622L559.674 87.0158L561.061 88.9742L562.972 87.6206L561.585 85.6622ZM559.389 88.6886L560.454 90.1922L562.412 88.8049L561.347 87.3014L559.389 88.6886ZM562.126 90.4778L564.037 89.1241L562.65 87.1657L560.739 88.5193L562.126 90.4778Z" fill="white" mask="url(#path-37-inside-1)"/>
<path d="M532.661 83.0469L511.773 75.2424C508.525 74.0288 504.902 75.6508 503.682 78.8652L495.835 99.5362C494.615 102.751 496.259 106.34 499.507 107.554L520.394 115.358C523.643 116.572 527.265 114.95 528.485 111.736L536.332 91.0647C537.553 87.8502 535.909 84.2605 532.661 83.0469Z" fill="#B9BDC2"/>
<path fill-rule="evenodd" clip-rule="evenodd" d="M495.466 102.112C496.107 102.797 496.914 103.349 497.856 103.701L518.744 111.505C521.992 112.719 525.615 111.097 526.835 107.883L534.682 87.2116C534.944 86.522 535.074 85.815 535.085 85.1179C536.655 86.7938 537.232 89.265 536.366 91.5471L528.518 112.218C527.298 115.433 523.676 117.055 520.428 115.841L499.54 108.036C496.989 107.083 495.427 104.664 495.466 102.112Z" fill="#8F959C"/>
<path d="M532.678 83.4101L511.79 75.6057C508.542 74.3921 504.92 76.0141 503.699 79.2285L495.852 99.8995C494.632 103.114 496.276 106.704 499.524 107.917L520.412 115.722C523.66 116.935 527.282 115.313 528.503 112.099L536.35 91.4279C537.57 88.2135 535.926 84.6238 532.678 83.4101Z" stroke="black" stroke-width="1.2" stroke-linecap="round" stroke-linejoin="round"/>
<path d="M518.472 97.2883C520.231 96.853 521.595 95.3503 521.752 93.4608C521.949 91.0855 520.164 88.9985 517.765 88.7992C515.366 88.6 513.262 90.3641 513.065 92.7393C512.978 93.7798 513.272 94.765 513.831 95.5605L511.534 101.613L516.172 103.346L518.472 97.2883Z" fill="black"/>
<path d="M580.831 116.784C566.373 121.006 534.013 116.784 534.792 116.784C536.237 114.869 536.707 115.486 538.53 115.295L579.64 109.635L580.831 116.784Z" fill="black"/>
<path d="M508.881 111.244C508.94 111.547 507.654 110.242 503.062 109.553C500.795 109.213 498.708 110.467 499.55 111.952C500.662 113.911 516.937 120.868 520.535 121.716C524.133 122.564 527.632 120.533 530.166 119.107C532.7 117.681 534.71 115.747 541.846 114.984C548.981 114.221 563.337 114.984 579.521 109.561C595.705 104.138 607.732 90.6796 595.07 76.13C589.853 70.135 579.087 65.9319 572.08 66.1341L576.07 87.3115C576.07 87.3115 546.424 103.221 543.85 103.316C541.266 103.414 539.232 102.568 535.939 102.172C532.647 101.777 527.393 104.438 523.757 106.61C520.12 108.781 515.84 108.291 514.304 108.126C511.312 107.801 508.495 109.252 508.881 111.244Z" fill="white"/>
<path d="M508.881 111.244C508.94 111.547 507.654 110.242 503.062 109.553C500.795 109.213 498.708 110.467 499.55 111.952C500.662 113.911 516.937 120.868 520.535 121.716C524.133 122.564 527.632 120.533 530.166 119.107C532.7 117.681 534.71 115.747 541.846 114.984C548.981 114.221 563.337 114.984 579.521 109.561C595.705 104.138 607.732 90.6796 595.07 76.13C589.853 70.135 579.087 65.9319 572.08 66.1341L576.07 87.3115M508.881 111.244C508.495 109.252 511.312 107.801 514.304 108.126C515.84 108.291 520.12 108.781 523.757 106.61C527.393 104.438 532.647 101.777 535.939 102.172C539.232 102.568 541.266 103.414 543.85 103.316C546.424 103.221 576.07 87.3115 576.07 87.3115M508.881 111.244C509.884 112.477 513.484 114.803 519.859 114.238C526.234 113.673 532.089 112.147 534.219 111.455M576.07 87.3115C577.815 86.1961 581.853 84.2378 583.297 83.3493" stroke="black" stroke-width="1.2" stroke-miterlimit="10" stroke-linecap="round" stroke-linejoin="round"/>
<path d="M545.714 115.486C547.522 110.053 544.474 104.91 542.723 103.018L546.365 101.992C551.377 108.052 550.321 113.755 549.167 115.848L545.714 115.486Z" fill="black"/>
<mask id="path-47-outside-2" maskUnits="userSpaceOnUse" x="481.173" y="25.998" width="47" height="38" fill="black">
<rect fill="white" x="481.173" y="25.998" width="47" height="38"/>
<path fill-rule="evenodd" clip-rule="evenodd" d="M508.088 38.3646C511.931 36.3833 516.691 36.4252 520.618 38.8904C526.532 42.6036 528.317 50.4085 524.604 56.3233C520.891 62.2381 513.086 64.0228 507.171 60.3097C502.981 57.6791 500.863 52.9947 501.305 48.3838L494.868 44.3437L493.841 39.852L488.796 36.6844L484.936 37.5669L483.173 29.8582L491.308 27.998L508.088 38.3646ZM514.557 58.9117C516.795 58.9117 518.609 57.0973 518.609 54.859C518.609 52.6208 516.795 50.8063 514.557 50.8063C512.318 50.8063 510.504 52.6208 510.504 54.859C510.504 57.0973 512.318 58.9117 514.557 58.9117Z"/>
</mask>
<path fill-rule="evenodd" clip-rule="evenodd" d="M508.088 38.3646C511.931 36.3833 516.691 36.4252 520.618 38.8904C526.532 42.6036 528.317 50.4085 524.604 56.3233C520.891 62.2381 513.086 64.0228 507.171 60.3097C502.981 57.6791 500.863 52.9947 501.305 48.3838L494.868 44.3437L493.841 39.852L488.796 36.6844L484.936 37.5669L483.173 29.8582L491.308 27.998L508.088 38.3646ZM514.557 58.9117C516.795 58.9117 518.609 57.0973 518.609 54.859C518.609 52.6208 516.795 50.8063 514.557 50.8063C512.318 50.8063 510.504 52.6208 510.504 54.859C510.504 57.0973 512.318 58.9117 514.557 58.9117Z" fill="#85BEFF"/>
<path d="M520.618 38.8904L521.256 37.8741L520.618 38.8904ZM508.088 38.3646L507.457 39.3855L508.035 39.7422L508.638 39.4312L508.088 38.3646ZM524.604 56.3233L523.588 55.6853L524.604 56.3233ZM507.171 60.3097L506.533 61.326L506.533 61.326L507.171 60.3097ZM501.305 48.3838L502.5 48.4983L502.57 47.7611L501.943 47.3674L501.305 48.3838ZM494.868 44.3437L493.699 44.6112L493.809 45.0958L494.23 45.3601L494.868 44.3437ZM493.841 39.852L495.011 39.5845L494.9 39.0999L494.479 38.8357L493.841 39.852ZM488.796 36.6844L489.434 35.668L489.013 35.4038L488.528 35.5146L488.796 36.6844ZM484.936 37.5669L483.766 37.8344L484.034 39.0042L485.204 38.7367L484.936 37.5669ZM483.173 29.8582L482.906 28.6884L481.736 28.9559L482.004 30.1257L483.173 29.8582ZM491.308 27.998L491.939 26.9772L491.52 26.7186L491.041 26.8282L491.308 27.998ZM521.256 37.8741C516.955 35.1741 511.742 35.1304 507.538 37.298L508.638 39.4312C512.119 37.6363 516.427 37.6762 519.98 39.9067L521.256 37.8741ZM525.62 56.9613C529.686 50.4853 527.732 41.9396 521.256 37.8741L519.98 39.9067C525.333 43.2675 526.948 50.3318 523.588 55.6853L525.62 56.9613ZM506.533 61.326C513.009 65.3915 521.555 63.4374 525.62 56.9613L523.588 55.6853C520.227 61.0387 513.163 62.6541 507.809 59.2933L506.533 61.326ZM500.111 48.2693C499.627 53.3146 501.944 58.4448 506.533 61.326L507.809 59.2933C504.018 56.9133 502.099 52.6749 502.5 48.4983L500.111 48.2693ZM494.23 45.3601L500.667 49.4002L501.943 47.3674L495.506 43.3274L494.23 45.3601ZM492.671 40.1195L493.699 44.6112L496.038 44.0763L495.011 39.5845L492.671 40.1195ZM488.157 37.7007L493.203 40.8683L494.479 38.8357L489.434 35.668L488.157 37.7007ZM485.204 38.7367L489.063 37.8542L488.528 35.5146L484.669 36.3971L485.204 38.7367ZM482.004 30.1257L483.766 37.8344L486.106 37.2994L484.343 29.5907L482.004 30.1257ZM491.041 26.8282L482.906 28.6884L483.441 31.028L491.576 29.1679L491.041 26.8282ZM508.719 37.3437L491.939 26.9772L490.677 29.0189L507.457 39.3855L508.719 37.3437ZM517.409 54.859C517.409 56.4345 516.132 57.7117 514.557 57.7117L514.557 60.1117C517.458 60.1117 519.809 57.76 519.809 54.859L517.409 54.859ZM514.557 52.0063C516.132 52.0063 517.409 53.2835 517.409 54.859L519.809 54.859C519.809 51.958 517.458 49.6063 514.557 49.6063L514.557 52.0063ZM511.704 54.859C511.704 53.2835 512.981 52.0063 514.557 52.0063L514.557 49.6063C511.656 49.6063 509.304 51.958 509.304 54.859L511.704 54.859ZM514.557 57.7117C512.981 57.7117 511.704 56.4345 511.704 54.859L509.304 54.859C509.304 57.76 511.656 60.1117 514.557 60.1117L514.557 57.7117Z" fill="black" mask="url(#path-47-outside-2)"/>
<path d="M501 41.1418L483.056 29.8771L487.733 28.8129L502.812 38.2507C503.611 38.7511 503.853 39.8052 503.352 40.6039C502.851 41.4019 501.798 41.6427 501 41.1418Z" fill="black"/>
<path opacity="0.2" fill-rule="evenodd" clip-rule="evenodd" d="M483.107 29.9092L501 41.1417C501.798 41.6427 502.851 41.4019 503.352 40.6039C503.706 40.0395 503.689 39.3476 503.367 38.8136C503.325 38.9983 503.252 39.1791 503.146 39.3485C502.645 40.1471 501.591 40.388 500.793 39.8867L484.408 29.6008L483.107 29.9092Z" fill="black"/>
</g>
<defs>
<clipPath id="clip0">
<rect width="1000" height="132" fill="white"/>
</clipPath>
</defs>
</svg>
