<svg width="288" height="164" viewBox="0 0 288 164" fill="none" xmlns="http://www.w3.org/2000/svg">
<path fill-rule="evenodd" clip-rule="evenodd" d="M0.363281 146.147H287.638V0.361328H0.363281V146.147Z" fill="white"/>
<path fill-rule="evenodd" clip-rule="evenodd" d="M25.3789 145.987C61.5932 140.578 89.55 106.451 105.974 66.193L119.642 33.1974C119.642 33.1974 129.068 9.38086 142.482 9.38086C155.896 9.38086 160.247 18.0414 164.96 25.9804C169.673 33.9194 181.275 64.231 181.275 64.231V145.987H25.3789Z" fill="#B2B2B2"/>
<path fill-rule="evenodd" clip-rule="evenodd" d="M0 0H288V146.508H0V0ZM0.725097 0.721712V145.786H287.275V0.721712H0.725097Z" fill="#1E1E1E"/>
<path fill-rule="evenodd" clip-rule="evenodd" d="M110.073 57.3078C109.318 59.2093 108.542 61.1633 107.742 63.1691C85.9657 117.758 51.4098 146.496 18.558 146.496V145.775C50.9648 145.775 85.3342 117.386 107.068 62.9028C107.868 60.897 108.645 58.9416 109.401 57.0376C115.075 42.7441 119.599 31.3501 124.404 23.2865C129.857 14.1362 135.736 9.168 144.165 9.168V9.88971C136.115 9.88971 130.428 14.5926 125.028 23.6547C120.254 31.6649 115.755 42.9979 110.073 57.3078Z" fill="#1E1E1E"/>
<path fill-rule="evenodd" clip-rule="evenodd" d="M179.059 57.7911C179.721 59.4565 180.399 61.1606 181.094 62.9028C202.83 117.39 235.882 145.786 269.267 145.786V146.508C235.431 146.508 202.195 117.754 180.42 63.1691C179.726 61.4301 179.05 59.7299 178.39 58.0692C172.558 43.4001 167.949 31.8068 163.074 23.6552C157.652 14.5918 151.966 9.88971 143.997 9.88971V9.168C152.346 9.168 158.224 14.1371 163.697 23.286C168.604 31.4909 173.237 43.1434 179.059 57.7911Z" fill="#1E1E1E"/>
<path fill-rule="evenodd" clip-rule="evenodd" d="M180.912 152.975V64.5932H181.637V152.975H180.912Z" fill="#1E1E1E"/>
<path d="M37.8226 33.2936V32.8389H37.964C38.1308 32.8389 38.2794 32.8209 38.41 32.7848C38.5477 32.7487 38.6565 32.6765 38.7363 32.5682C38.816 32.4528 38.8559 32.2832 38.8559 32.0594V26.7549C38.8559 26.5383 38.8124 26.3796 38.7254 26.2785C38.6456 26.1703 38.5369 26.1017 38.3991 26.0728C38.2686 26.0368 38.1235 26.0187 37.964 26.0187H37.8226V25.564H40.8789C41.7925 25.564 42.4669 25.7661 42.9019 26.1703C43.337 26.5672 43.5545 27.1193 43.5545 27.8266C43.5545 28.1514 43.5038 28.4617 43.4023 28.7576C43.3007 29.0463 43.134 29.3061 42.9019 29.5371C42.6772 29.768 42.3762 29.952 41.9992 30.0892C41.6294 30.2191 41.1762 30.284 40.6396 30.284H39.9544V32.1136C39.9544 32.3229 39.9943 32.4816 40.0741 32.5899C40.1611 32.6909 40.2698 32.7595 40.4004 32.7956C40.5381 32.8245 40.6868 32.8389 40.8463 32.8389H41.2052V33.2936H37.8226ZM40.5309 29.7752C40.8572 29.7752 41.1363 29.7427 41.3684 29.6778C41.6076 29.6056 41.7998 29.4938 41.9448 29.3422C42.0971 29.1906 42.2058 28.9958 42.2711 28.7576C42.3436 28.5122 42.3799 28.2163 42.3799 27.8699C42.3799 27.2637 42.253 26.8162 41.9992 26.5275C41.7454 26.2316 41.3103 26.0837 40.694 26.0837H39.9544V29.7752H40.5309Z" fill="#1E1E1E"/>
<path d="M44.3324 33.2936V32.8389H44.365C44.5318 32.8389 44.6804 32.8209 44.8109 32.7848C44.9487 32.7487 45.0575 32.6765 45.1372 32.5682C45.217 32.4528 45.2569 32.2832 45.2569 32.0594V28.6818C45.2569 28.4653 45.2134 28.3065 45.1263 28.2055C45.0466 28.0972 44.9378 28.0287 44.8 27.9998C44.6695 27.9637 44.5245 27.9457 44.365 27.9457H44.3324V27.491H46.0073L46.214 28.5628H46.2684C46.3626 28.3462 46.4641 28.1478 46.5729 27.9673C46.6817 27.7869 46.8267 27.6462 47.008 27.5451C47.1892 27.4369 47.4394 27.3827 47.7584 27.3827C48.1572 27.3827 48.4509 27.4513 48.6394 27.5884C48.8352 27.7256 48.9331 27.9204 48.9331 28.173C48.9331 28.3968 48.8533 28.5808 48.6938 28.7251C48.5416 28.8695 48.2841 28.9416 47.9216 28.9416C47.9216 28.7396 47.9035 28.5772 47.8672 28.4545C47.831 28.3318 47.7693 28.2416 47.6823 28.1839C47.6025 28.1261 47.4902 28.0972 47.3451 28.0972C47.1421 28.0972 46.9717 28.1766 46.8339 28.3354C46.6962 28.4942 46.5874 28.6963 46.5077 28.9416C46.4279 29.187 46.3699 29.4432 46.3336 29.7103C46.2974 29.9701 46.2792 30.2046 46.2792 30.4139V32.1136C46.2792 32.3229 46.3191 32.4816 46.3989 32.5899C46.4859 32.6909 46.5947 32.7595 46.7252 32.7956C46.8629 32.8245 47.0116 32.8389 47.1711 32.8389H47.4757V33.2936H44.3324Z" fill="#1E1E1E"/>
<path d="M52.2146 33.4018C51.4315 33.4018 50.8151 33.1528 50.3656 32.6549C49.916 32.1569 49.6912 31.3991 49.6912 30.3815C49.6912 29.3711 49.9051 28.6205 50.3329 28.1297C50.768 27.6317 51.4061 27.3827 52.2472 27.3827C53.0303 27.3827 53.6466 27.6317 54.0962 28.1297C54.5458 28.6205 54.7705 29.3711 54.7705 30.3815C54.7705 31.3991 54.553 32.1569 54.1179 32.6549C53.6901 33.1528 53.0557 33.4018 52.2146 33.4018ZM52.2363 32.8389C52.5989 32.8389 52.8889 32.7487 53.1064 32.5682C53.324 32.3806 53.4799 32.1027 53.5741 31.7347C53.6684 31.3666 53.7155 30.9155 53.7155 30.3815C53.7155 29.5731 53.6031 28.9669 53.3783 28.5628C53.1536 28.1586 52.7693 27.9565 52.2254 27.9565C51.6816 27.9565 51.2973 28.1586 51.0725 28.5628C50.855 28.9669 50.7462 29.5731 50.7462 30.3815C50.7462 31.1898 50.8586 31.8032 51.0834 32.2218C51.3082 32.6332 51.6925 32.8389 52.2363 32.8389Z" fill="#1E1E1E"/>
<path d="M59.2315 33.4018C58.8109 33.4018 58.4665 33.3152 58.1982 33.142C57.9372 32.9616 57.7269 32.7306 57.5674 32.4492H57.5021L57.3064 33.2936H55.5661V32.8389H55.6531C55.8199 32.8389 55.9686 32.8209 56.0991 32.7848C56.2368 32.7487 56.3456 32.6765 56.4254 32.5682C56.5051 32.4528 56.545 32.2832 56.545 32.0594V26.2569C56.545 26.0404 56.5015 25.8816 56.4145 25.7806C56.3347 25.6723 56.226 25.6037 56.0882 25.5749C55.9577 25.5388 55.8127 25.5207 55.6531 25.5207H55.5661V25.0661H57.5674V27.058C57.5674 27.1807 57.5638 27.3394 57.5565 27.5343C57.5565 27.722 57.5529 27.906 57.5456 28.0864C57.5384 28.2596 57.5311 28.3859 57.5239 28.4653H57.5674C57.7342 28.1333 57.9481 27.8699 58.2091 27.675C58.4701 27.4802 58.8109 27.3827 59.2315 27.3827C59.9493 27.3827 60.4968 27.6245 60.8738 28.1081C61.2581 28.5844 61.4503 29.3422 61.4503 30.3815C61.4503 31.0743 61.3633 31.6445 61.1893 32.0919C61.0225 32.5394 60.7723 32.8714 60.4388 33.0879C60.1125 33.2972 59.7101 33.4018 59.2315 33.4018ZM59.0575 32.709C59.536 32.709 59.8768 32.5105 60.0799 32.1136C60.2901 31.7094 60.3953 31.1284 60.3953 30.3706C60.3953 29.5984 60.2901 29.0246 60.0799 28.6494C59.8768 28.2668 59.5324 28.0756 59.0466 28.0756C58.481 28.0756 58.0931 28.2668 57.8828 28.6494C57.6725 29.0246 57.5674 29.602 57.5674 30.3815C57.5674 30.8794 57.6109 31.3016 57.6979 31.6481C57.7922 31.9945 57.9481 32.2579 58.1656 32.4383C58.3831 32.6188 58.6804 32.709 59.0575 32.709Z" fill="#1E1E1E"/>
<path d="M64.281 33.4018C63.9619 33.4018 63.6719 33.3405 63.4109 33.2178C63.1571 33.0879 62.9577 32.8966 62.8127 32.644C62.6676 32.3842 62.5951 32.0594 62.5951 31.6697C62.5951 31.0924 62.7982 30.6665 63.2042 30.3923C63.6175 30.118 64.2411 29.9665 65.075 29.9376L65.9777 29.9051V29.2556C65.9777 28.9958 65.9559 28.7684 65.9124 28.5736C65.8689 28.3715 65.7747 28.2127 65.6297 28.0972C65.4846 27.9818 65.2635 27.924 64.9662 27.924C64.6907 27.924 64.4804 27.9746 64.3354 28.0756C64.1903 28.1766 64.0924 28.3174 64.0417 28.4978C63.9982 28.671 63.9764 28.8731 63.9764 29.104C63.6719 29.104 63.4399 29.0535 63.2803 28.9525C63.1281 28.8442 63.0519 28.6674 63.0519 28.422C63.0519 28.1694 63.1389 27.9673 63.313 27.8158C63.4942 27.6642 63.7335 27.556 64.0308 27.491C64.3281 27.4188 64.6544 27.3827 65.0097 27.3827C65.6768 27.3827 66.1735 27.5235 66.4998 27.805C66.8333 28.0864 67.0001 28.57 67.0001 29.2556V32.0594C67.0001 32.2615 67.0218 32.4203 67.0654 32.5358C67.1089 32.644 67.1814 32.7234 67.2829 32.7739C67.3844 32.8172 67.5149 32.8389 67.6744 32.8389H67.7071V33.2936H66.2387L66.0647 32.3626H65.9777C65.8254 32.5646 65.6768 32.7451 65.5318 32.9038C65.3868 33.0554 65.2164 33.1781 65.0206 33.2719C64.8321 33.3585 64.5855 33.4018 64.281 33.4018ZM64.5311 32.7306C64.8284 32.7306 65.0822 32.6693 65.2925 32.5466C65.51 32.4239 65.6768 32.2507 65.7928 32.027C65.9161 31.796 65.9777 31.529 65.9777 31.2259V30.349L65.2816 30.3815C64.8683 30.3959 64.542 30.4572 64.3027 30.5655C64.0707 30.6738 63.9039 30.8253 63.8024 31.0202C63.7009 31.2078 63.6501 31.4424 63.6501 31.7238C63.6501 31.9476 63.6828 32.1352 63.748 32.2868C63.8133 32.4311 63.9112 32.543 64.0417 32.6224C64.1722 32.6946 64.3354 32.7306 64.5311 32.7306Z" fill="#1E1E1E"/>
<path d="M72.0411 33.4018C71.6205 33.4018 71.2761 33.3152 71.0078 33.142C70.7468 32.9616 70.5365 32.7306 70.377 32.4492H70.3117L70.1159 33.2936H68.3757V32.8389H68.4627C68.6295 32.8389 68.7781 32.8209 68.9087 32.7848C69.0464 32.7487 69.1552 32.6765 69.2349 32.5682C69.3147 32.4528 69.3546 32.2832 69.3546 32.0594V26.2569C69.3546 26.0404 69.3111 25.8816 69.2241 25.7806C69.1443 25.6723 69.0355 25.6037 68.8978 25.5749C68.7673 25.5388 68.6222 25.5207 68.4627 25.5207H68.3757V25.0661H70.377V27.058C70.377 27.1807 70.3733 27.3394 70.3661 27.5343C70.3661 27.722 70.3625 27.906 70.3552 28.0864C70.348 28.2596 70.3407 28.3859 70.3335 28.4653H70.377C70.5437 28.1333 70.7576 27.8699 71.0187 27.675C71.2797 27.4802 71.6205 27.3827 72.0411 27.3827C72.7589 27.3827 73.3064 27.6245 73.6834 28.1081C74.0677 28.5844 74.2599 29.3422 74.2599 30.3815C74.2599 31.0743 74.1729 31.6445 73.9988 32.0919C73.8321 32.5394 73.5819 32.8714 73.2484 33.0879C72.9221 33.2972 72.5196 33.4018 72.0411 33.4018ZM71.867 32.709C72.3456 32.709 72.6864 32.5105 72.8894 32.1136C73.0997 31.7094 73.2049 31.1284 73.2049 30.3706C73.2049 29.5984 73.0997 29.0246 72.8894 28.6494C72.6864 28.2668 72.342 28.0756 71.8562 28.0756C71.2906 28.0756 70.9027 28.2668 70.6924 28.6494C70.4821 29.0246 70.377 29.602 70.377 30.3815C70.377 30.8794 70.4205 31.3016 70.5075 31.6481C70.6017 31.9945 70.7576 32.2579 70.9752 32.4383C71.1927 32.6188 71.49 32.709 71.867 32.709Z" fill="#1E1E1E"/>
<path d="M75.111 33.2936V32.8389H75.2524C75.412 32.8389 75.557 32.8245 75.6875 32.7956C75.8253 32.7595 75.934 32.6909 76.0138 32.5899C76.1008 32.4816 76.1443 32.3229 76.1443 32.1136V28.6818C76.1443 28.4653 76.1008 28.3065 76.0138 28.2055C75.934 28.0972 75.8253 28.0287 75.6875 27.9998C75.557 27.9637 75.412 27.9457 75.2524 27.9457H75.2198V27.491H77.1667V32.0594C77.1667 32.2832 77.2066 32.4528 77.2863 32.5682C77.3661 32.6765 77.4749 32.7487 77.6126 32.7848C77.7504 32.8209 77.899 32.8389 78.0586 32.8389H78.1999V33.2936H75.111ZM76.612 26.4084C76.438 26.4084 76.2893 26.3579 76.1661 26.2569C76.05 26.1558 75.992 25.9826 75.992 25.7372C75.992 25.4846 76.05 25.3114 76.1661 25.2176C76.2893 25.1166 76.438 25.0661 76.612 25.0661C76.7788 25.0661 76.9238 25.1166 77.047 25.2176C77.1703 25.3114 77.232 25.4846 77.232 25.7372C77.232 25.9826 77.1703 26.1558 77.047 26.2569C76.9238 26.3579 76.7788 26.4084 76.612 26.4084Z" fill="#1E1E1E"/>
<path d="M78.4861 33.2936V32.8389H78.6275C78.7943 32.8389 78.943 32.8209 79.0735 32.7848C79.2112 32.7487 79.32 32.6765 79.3998 32.5682C79.4795 32.4528 79.5194 32.2832 79.5194 32.0594V26.2569C79.5194 26.0404 79.4759 25.8816 79.3889 25.7806C79.3091 25.6723 79.2004 25.6037 79.0626 25.5749C78.9321 25.5388 78.7871 25.5207 78.6275 25.5207H78.4861V25.0661H80.5418V32.0594C80.5418 32.2832 80.5817 32.4528 80.6614 32.5682C80.7412 32.6765 80.85 32.7487 80.9877 32.7848C81.1255 32.8209 81.2741 32.8389 81.4337 32.8389H81.5751V33.2936H78.4861Z" fill="#1E1E1E"/>
<path d="M81.9619 33.2936V32.8389H82.1033C82.2628 32.8389 82.4079 32.8245 82.5384 32.7956C82.6762 32.7595 82.7849 32.6909 82.8647 32.5899C82.9517 32.4816 82.9952 32.3229 82.9952 32.1136V28.6818C82.9952 28.4653 82.9517 28.3065 82.8647 28.2055C82.7849 28.0972 82.6762 28.0287 82.5384 27.9998C82.4079 27.9637 82.2628 27.9457 82.1033 27.9457H82.0707V27.491H84.0176V32.0594C84.0176 32.2832 84.0575 32.4528 84.1372 32.5682C84.217 32.6765 84.3257 32.7487 84.4635 32.7848C84.6013 32.8209 84.7499 32.8389 84.9095 32.8389H85.0508V33.2936H81.9619ZM83.4629 26.4084C83.2889 26.4084 83.1402 26.3579 83.0169 26.2569C82.9009 26.1558 82.8429 25.9826 82.8429 25.7372C82.8429 25.4846 82.9009 25.3114 83.0169 25.2176C83.1402 25.1166 83.2889 25.0661 83.4629 25.0661C83.6297 25.0661 83.7747 25.1166 83.8979 25.2176C84.0212 25.3114 84.0828 25.4846 84.0828 25.7372C84.0828 25.9826 84.0212 26.1558 83.8979 26.2569C83.7747 26.3579 83.6297 26.4084 83.4629 26.4084Z" fill="#1E1E1E"/>
<path d="M87.806 33.4018C87.2549 33.4018 86.8525 33.2791 86.5987 33.0338C86.3522 32.7812 86.2289 32.3445 86.2289 31.7238V28.1081H85.4023V27.675C85.5328 27.675 85.6778 27.6498 85.8374 27.5993C85.9969 27.5415 86.1346 27.4513 86.2507 27.3286C86.3739 27.1987 86.4754 27.0399 86.5552 26.8523C86.635 26.6646 86.7002 26.4337 86.751 26.1594H87.2513V27.491H88.6761V28.1081H87.2513V31.7563C87.2513 32.1244 87.3274 32.395 87.4797 32.5682C87.632 32.7415 87.8314 32.8281 88.0779 32.8281C88.2084 32.8281 88.3281 32.8208 88.4368 32.8064C88.5456 32.792 88.658 32.7739 88.774 32.7523V33.2286C88.6797 33.2719 88.5383 33.3116 88.3498 33.3477C88.1613 33.3838 87.98 33.4018 87.806 33.4018Z" fill="#1E1E1E"/>
<path d="M89.4327 35.3829C89.8025 35.3829 90.1215 35.3288 90.3898 35.2205C90.6581 35.1123 90.8865 34.9607 91.075 34.7659C91.2636 34.5782 91.4231 34.3545 91.5536 34.0947C91.6841 33.8349 91.7929 33.5534 91.8799 33.2503L89.8678 28.5194C89.8025 28.3679 89.7372 28.2524 89.672 28.173C89.6067 28.0864 89.5306 28.0287 89.4436 27.9998C89.3566 27.9637 89.2405 27.9457 89.0955 27.9457H89.0629V27.491H91.6732V27.9457H91.6406C91.4231 27.9457 91.2599 27.989 91.1512 28.0756C91.0424 28.155 90.988 28.2849 90.988 28.4653C90.988 28.5231 90.9953 28.5844 91.0098 28.6494C91.0243 28.7143 91.046 28.7865 91.075 28.8659L91.869 30.7928C91.9415 30.9588 92.0104 31.1429 92.0757 31.345C92.1482 31.5398 92.2134 31.7275 92.2715 31.9079C92.3295 32.0883 92.3693 32.2399 92.3911 32.3626C92.4419 32.1533 92.5071 31.9368 92.5869 31.713C92.6739 31.4893 92.7536 31.2692 92.8261 31.0527L93.5549 28.9416C93.5911 28.855 93.6165 28.772 93.631 28.6927C93.6455 28.6061 93.6528 28.5339 93.6528 28.4761C93.6528 28.2885 93.5911 28.155 93.4679 28.0756C93.3518 27.989 93.1742 27.9457 92.9349 27.9457H92.9023V27.491H95.1646V27.9457H95.132C94.9942 27.9457 94.8782 27.9673 94.7839 28.0106C94.6896 28.0539 94.6063 28.1369 94.5338 28.2596C94.4685 28.3823 94.3924 28.5591 94.3054 28.7901L92.6521 33.3369C92.4636 33.8637 92.2823 34.2931 92.1083 34.6251C91.9343 34.9571 91.7385 35.2133 91.521 35.3938C91.3107 35.5814 91.046 35.7113 90.727 35.7835C90.408 35.8557 90.0092 35.8917 89.5306 35.8917H89.4327V35.3829Z" fill="#1E1E1E"/>
<path d="M183.927 155.307L178.861 161.312C179.878 161.539 180.263 161.731 180.965 162.761C181.42 163.424 181.754 163.633 182.192 163.633C182.472 163.633 182.665 163.529 182.665 163.372C182.665 163.302 182.63 163.214 182.577 163.11C182.472 162.9 182.437 162.761 182.437 162.621C182.455 162.324 182.735 162.027 183.016 162.027C183.384 162.027 183.629 162.289 183.629 162.673C183.629 163.372 182.981 164 181.999 164C181.491 164 180.895 163.773 180.018 163.232C179.194 162.726 178.633 162.499 178.177 162.499C177.897 162.499 177.669 162.586 177.389 162.813L177.231 162.656L182.665 156.162H180.281C179.369 156.162 179.036 156.319 178.686 157.209L178.405 157.14L178.966 155.115H183.927V155.307Z" fill="#1E1E1E"/>
<path fill-rule="evenodd" clip-rule="evenodd" d="M129.845 69.14L120.315 67.4698L122.744 62.6161L129.845 69.14Z" fill="#1E1E1E"/>
<path fill-rule="evenodd" clip-rule="evenodd" d="M124.877 67.1484L66.2461 36.771L66.5809 36.1309L125.212 66.5082L124.877 67.1484Z" fill="#1E1E1E"/>
</svg>
