<svg width="312" height="178" viewBox="0 0 312 178" fill="none" xmlns="http://www.w3.org/2000/svg">
<path fill-rule="evenodd" clip-rule="evenodd" d="M0.394531 159.143H311.609V0.392578H0.394531V159.143Z" fill="white"/>
<path fill-rule="evenodd" clip-rule="evenodd" d="M27.9609 158.972C64.8805 152.845 96.3013 118.867 114.806 72.2905L115.547 70.7188V158.972H27.9609Z" fill="#B2B2B2"/>
<path fill-rule="evenodd" clip-rule="evenodd" d="M0 0H312V159.537H0V0ZM0.785522 0.785894V158.751H311.215V0.785894H0.785522Z" fill="#1E1E1E"/>
<path d="M17.8029 73.4704V72.9753H17.956C18.1367 72.9753 18.2978 72.9556 18.4391 72.9163C18.5884 72.877 18.7062 72.7984 18.7926 72.6805C18.879 72.5548 18.9222 72.3701 18.9222 72.1265V66.3502C18.9222 66.1144 18.8751 65.9415 18.7808 65.8315C18.6944 65.7136 18.5766 65.6389 18.4274 65.6075C18.286 65.5682 18.1289 65.5486 17.956 65.5486H17.8029V65.0534H21.1138C22.1036 65.0534 22.8341 65.2735 23.3055 65.7136C23.7768 66.1458 24.0124 66.747 24.0124 67.5172C24.0124 67.8709 23.9574 68.2088 23.8475 68.531C23.7375 68.8454 23.5568 69.1283 23.3055 69.3798C23.0619 69.6313 22.736 69.8317 22.3275 69.981C21.9269 70.1225 21.4359 70.1932 20.8546 70.1932H20.1123V72.1854C20.1123 72.4133 20.1555 72.5862 20.2419 72.7041C20.3362 72.8141 20.454 72.8888 20.5954 72.9281C20.7447 72.9595 20.9057 72.9753 21.0785 72.9753H21.4673V73.4704H17.8029ZM20.7368 69.6391C21.0903 69.6391 21.3927 69.6038 21.6441 69.533C21.9033 69.4544 22.1115 69.3326 22.2686 69.1676C22.4335 69.0026 22.5514 68.7904 22.6221 68.531C22.7006 68.2638 22.7399 67.9416 22.7399 67.5644C22.7399 66.9042 22.6024 66.417 22.3275 66.1026C22.0525 65.7804 21.5812 65.6193 20.9135 65.6193H20.1123V69.6391H20.7368Z" fill="#1E1E1E"/>
<path d="M24.8551 73.4704V72.9753H24.8904C25.0711 72.9753 25.2321 72.9556 25.3735 72.9163C25.5228 72.877 25.6406 72.7984 25.727 72.6805C25.8134 72.5548 25.8566 72.3701 25.8566 72.1265V68.4485C25.8566 68.2127 25.8095 68.0398 25.7152 67.9298C25.6288 67.8119 25.511 67.7373 25.3617 67.7058C25.2203 67.6665 25.0632 67.6469 24.8904 67.6469H24.8551V67.1518H26.6696L26.8935 68.3188H26.9524C27.0545 68.0831 27.1645 67.8669 27.2823 67.6705C27.4002 67.474 27.5573 67.3207 27.7537 67.2107C27.95 67.0928 28.221 67.0339 28.5667 67.0339C28.9987 67.0339 29.3168 67.1086 29.5211 67.2579C29.7332 67.4072 29.8392 67.6194 29.8392 67.8944C29.8392 68.1381 29.7528 68.3385 29.58 68.4957C29.415 68.6528 29.1362 68.7314 28.7434 68.7314C28.7434 68.5114 28.7238 68.3346 28.6845 68.201C28.6452 68.0673 28.5785 67.9691 28.4842 67.9062C28.3978 67.8434 28.276 67.8119 28.1189 67.8119C27.899 67.8119 27.7144 67.8984 27.5651 68.0713C27.4159 68.2442 27.2981 68.4642 27.2116 68.7314C27.1252 68.9986 27.0624 69.2776 27.0231 69.5684C26.9838 69.8513 26.9642 70.1067 26.9642 70.3347V72.1854C26.9642 72.4133 27.0074 72.5862 27.0938 72.7041C27.1881 72.8141 27.3059 72.8888 27.4473 72.9281C27.5965 72.9595 27.7576 72.9753 27.9304 72.9753H28.2603V73.4704H24.8551Z" fill="#1E1E1E"/>
<path d="M33.3941 73.5883C32.5458 73.5883 31.8781 73.3171 31.3911 72.7748C30.904 72.2326 30.6605 71.4074 30.6605 70.2993C30.6605 69.199 30.8922 68.3817 31.3557 67.8473C31.827 67.305 32.5183 67.0339 33.4295 67.0339C34.2778 67.0339 34.9455 67.305 35.4326 67.8473C35.9196 68.3817 36.1631 69.199 36.1631 70.2993C36.1631 71.4074 35.9274 72.2326 35.4561 72.7748C34.9927 73.3171 34.3053 73.5883 33.3941 73.5883ZM33.4177 72.9753C33.8105 72.9753 34.1247 72.877 34.3603 72.6805C34.596 72.4762 34.7649 72.1736 34.867 71.7728C34.9691 71.372 35.0202 70.8808 35.0202 70.2993C35.0202 69.4191 34.8984 68.7589 34.6549 68.3188C34.4114 67.8787 33.9951 67.6587 33.4059 67.6587C32.8168 67.6587 32.4004 67.8787 32.1569 68.3188C31.9213 68.7589 31.8035 69.4191 31.8035 70.2993C31.8035 71.1795 31.9252 71.8475 32.1687 72.3033C32.4122 72.7513 32.8286 72.9753 33.4177 72.9753Z" fill="#1E1E1E"/>
<path d="M40.9958 73.5883C40.5402 73.5883 40.1671 73.494 39.8764 73.3053C39.5937 73.1089 39.3658 72.8574 39.193 72.5509H39.1223L38.9102 73.4704H37.025V72.9753H37.1193C37.2999 72.9753 37.461 72.9556 37.6024 72.9163C37.7516 72.877 37.8694 72.7984 37.9558 72.6805C38.0422 72.5548 38.0854 72.3701 38.0854 72.1265V65.8079C38.0854 65.5721 38.0383 65.3992 37.9441 65.2892C37.8577 65.1713 37.7398 65.0967 37.5906 65.0652C37.4492 65.0259 37.2921 65.0063 37.1193 65.0063H37.025V64.5112H39.193V66.6802C39.193 66.8138 39.1891 66.9867 39.1813 67.1989C39.1813 67.4033 39.1773 67.6037 39.1695 67.8001C39.1616 67.9888 39.1538 68.1263 39.1459 68.2127H39.193C39.3737 67.8512 39.6054 67.5644 39.8882 67.3522C40.171 67.14 40.5402 67.0339 40.9958 67.0339C41.7735 67.0339 42.3665 67.2972 42.775 67.8237C43.1913 68.3424 43.3995 69.1676 43.3995 70.2993C43.3995 71.0537 43.3052 71.6746 43.1167 72.1619C42.936 72.6491 42.665 73.0106 42.3037 73.2464C41.9502 73.4743 41.5143 73.5883 40.9958 73.5883ZM40.8073 72.8338C41.3257 72.8338 41.6949 72.6177 41.9149 72.1854C42.1427 71.7453 42.2566 71.1127 42.2566 70.2875C42.2566 69.4466 42.1427 68.8218 41.9149 68.4131C41.6949 67.9966 41.3218 67.7884 40.7955 67.7884C40.1828 67.7884 39.7625 67.9966 39.5347 68.4131C39.3069 68.8218 39.193 69.4505 39.193 70.2993C39.193 70.8416 39.2402 71.3013 39.3344 71.6785C39.4365 72.0558 39.6054 72.3426 39.8411 72.5391C40.0767 72.7356 40.3988 72.8338 40.8073 72.8338Z" fill="#1E1E1E"/>
<path d="M46.4661 73.5883C46.1205 73.5883 45.8062 73.5214 45.5235 73.3878C45.2485 73.2464 45.0325 73.0381 44.8754 72.7631C44.7183 72.4801 44.6397 72.1265 44.6397 71.7021C44.6397 71.0734 44.8597 70.6097 45.2996 70.3111C45.7473 70.0124 46.4229 69.8474 47.3262 69.816L48.3042 69.7806V69.0733C48.3042 68.7904 48.2806 68.5428 48.2335 68.3306C48.1864 68.1106 48.0843 67.9377 47.9272 67.8119C47.77 67.6862 47.5305 67.6233 47.2084 67.6233C46.9099 67.6233 46.6821 67.6783 46.525 67.7884C46.3679 67.8984 46.2618 68.0516 46.2069 68.2481C46.1597 68.4367 46.1362 68.6568 46.1362 68.9083C45.8062 68.9083 45.5549 68.8532 45.3821 68.7432C45.2171 68.6253 45.1346 68.4328 45.1346 68.1656C45.1346 67.8905 45.2289 67.6705 45.4174 67.5054C45.6138 67.3404 45.873 67.2225 46.1951 67.1518C46.5171 67.0732 46.8706 67.0339 47.2555 67.0339C47.9782 67.0339 48.5163 67.1871 48.8698 67.4936C49.2311 67.8001 49.4118 68.3267 49.4118 69.0733V72.1265C49.4118 72.3465 49.4354 72.5194 49.4825 72.6452C49.5296 72.7631 49.6082 72.8495 49.7181 72.9045C49.8281 72.9517 49.9695 72.9753 50.1423 72.9753H50.1777V73.4704H48.587L48.3985 72.4566H48.3042C48.1392 72.6766 47.9782 72.8731 47.8211 73.046C47.664 73.211 47.4794 73.3446 47.2673 73.4468C47.0631 73.5411 46.796 73.5883 46.4661 73.5883ZM46.7371 72.8574C47.0591 72.8574 47.3341 72.7906 47.5619 72.657C47.7975 72.5234 47.9782 72.3348 48.1039 72.0911C48.2374 71.8396 48.3042 71.5489 48.3042 71.2188V70.2639L47.5501 70.2993C47.1024 70.315 46.7489 70.3818 46.4896 70.4997C46.2383 70.6176 46.0576 70.7826 45.9476 70.9948C45.8377 71.1991 45.7827 71.4545 45.7827 71.761C45.7827 72.0047 45.818 72.209 45.8887 72.3741C45.9594 72.5312 46.0655 72.653 46.2069 72.7395C46.3482 72.8181 46.525 72.8574 46.7371 72.8574Z" fill="#1E1E1E"/>
<path d="M54.8728 73.5883C54.4172 73.5883 54.0441 73.494 53.7535 73.3053C53.4707 73.1089 53.2429 72.8574 53.0701 72.5509H52.9994L52.7873 73.4704H50.902V72.9753H50.9963C51.177 72.9753 51.338 72.9556 51.4794 72.9163C51.6286 72.877 51.7465 72.7984 51.8329 72.6805C51.9193 72.5548 51.9625 72.3701 51.9625 72.1265V65.8079C51.9625 65.5721 51.9154 65.3992 51.8211 65.2892C51.7347 65.1713 51.6169 65.0967 51.4676 65.0652C51.3262 65.0259 51.1691 65.0063 50.9963 65.0063H50.902V64.5112H53.0701V66.6802C53.0701 66.8138 53.0661 66.9867 53.0583 67.1989C53.0583 67.4033 53.0544 67.6037 53.0465 67.8001C53.0387 67.9888 53.0308 68.1263 53.0229 68.2127H53.0701C53.2507 67.8512 53.4825 67.5644 53.7653 67.3522C54.0481 67.14 54.4172 67.0339 54.8728 67.0339C55.6505 67.0339 56.2436 67.2972 56.6521 67.8237C57.0684 68.3424 57.2765 69.1676 57.2765 70.2993C57.2765 71.0537 57.1823 71.6746 56.9938 72.1619C56.8131 72.6491 56.5421 73.0106 56.1808 73.2464C55.8273 73.4743 55.3913 73.5883 54.8728 73.5883ZM54.6843 72.8338C55.2028 72.8338 55.572 72.6177 55.7919 72.1854C56.0197 71.7453 56.1336 71.1127 56.1336 70.2875C56.1336 69.4466 56.0197 68.8218 55.7919 68.4131C55.572 67.9966 55.1988 67.7884 54.6725 67.7884C54.0598 67.7884 53.6396 67.9966 53.4118 68.4131C53.184 68.8218 53.0701 69.4505 53.0701 70.2993C53.0701 70.8416 53.1172 71.3013 53.2115 71.6785C53.3136 72.0558 53.4825 72.3426 53.7181 72.5391C53.9538 72.7356 54.2759 72.8338 54.6843 72.8338Z" fill="#1E1E1E"/>
<path d="M58.1986 73.4704V72.9753H58.3518C58.5246 72.9753 58.6817 72.9595 58.8231 72.9281C58.9724 72.8888 59.0902 72.8141 59.1766 72.7041C59.2709 72.5862 59.318 72.4133 59.318 72.1854V68.4485C59.318 68.2127 59.2709 68.0398 59.1766 67.9298C59.0902 67.8119 58.9724 67.7373 58.8231 67.7058C58.6817 67.6665 58.5246 67.6469 58.3518 67.6469H58.3165V67.1518H60.4256V72.1265C60.4256 72.3701 60.4688 72.5548 60.5552 72.6805C60.6416 72.7984 60.7594 72.877 60.9087 72.9163C61.0579 72.9556 61.219 72.9753 61.3918 72.9753H61.545V73.4704H58.1986ZM59.8247 65.9729C59.6362 65.9729 59.4751 65.9179 59.3416 65.8079C59.2159 65.6979 59.1531 65.5093 59.1531 65.2421C59.1531 64.967 59.2159 64.7784 59.3416 64.6762C59.4751 64.5662 59.6362 64.5112 59.8247 64.5112C60.0054 64.5112 60.1624 64.5662 60.296 64.6762C60.4295 64.7784 60.4963 64.967 60.4963 65.2421C60.4963 65.5093 60.4295 65.6979 60.296 65.8079C60.1624 65.9179 60.0054 65.9729 59.8247 65.9729Z" fill="#1E1E1E"/>
<path d="M61.855 73.4704V72.9753H62.0082C62.1889 72.9753 62.3499 72.9556 62.4913 72.9163C62.6405 72.877 62.7584 72.7984 62.8448 72.6805C62.9312 72.5548 62.9744 72.3701 62.9744 72.1265V65.8079C62.9744 65.5721 62.9272 65.3992 62.833 65.2892C62.7466 65.1713 62.6287 65.0967 62.4795 65.0652C62.3381 65.0259 62.181 65.0063 62.0082 65.0063H61.855V64.5112H64.082V72.1265C64.082 72.3701 64.1252 72.5548 64.2116 72.6805C64.298 72.7984 64.4158 72.877 64.5651 72.9163C64.7143 72.9556 64.8753 72.9753 65.0481 72.9753H65.2013V73.4704H61.855Z" fill="#1E1E1E"/>
<path d="M65.6205 73.4704V72.9753H65.7736C65.9464 72.9753 66.1035 72.9595 66.2449 72.9281C66.3942 72.8888 66.512 72.8141 66.5984 72.7041C66.6927 72.5862 66.7398 72.4133 66.7398 72.1854V68.4485C66.7398 68.2127 66.6927 68.0398 66.5984 67.9298C66.512 67.8119 66.3942 67.7373 66.2449 67.7058C66.1035 67.6665 65.9464 67.6469 65.7736 67.6469H65.7383V67.1518H67.8474V72.1265C67.8474 72.3701 67.8906 72.5548 67.977 72.6805C68.0634 72.7984 68.1812 72.877 68.3305 72.9163C68.4797 72.9556 68.6408 72.9753 68.8136 72.9753H68.9668V73.4704H65.6205ZM67.2465 65.9729C67.058 65.9729 66.8969 65.9179 66.7634 65.8079C66.6377 65.6979 66.5749 65.5093 66.5749 65.2421C66.5749 64.967 66.6377 64.7784 66.7634 64.6762C66.8969 64.5662 67.058 64.5112 67.2465 64.5112C67.4272 64.5112 67.5843 64.5662 67.7178 64.6762C67.8513 64.7784 67.9181 64.967 67.9181 65.2421C67.9181 65.5093 67.8513 65.6979 67.7178 65.8079C67.5843 65.9179 67.4272 65.9729 67.2465 65.9729Z" fill="#1E1E1E"/>
<path d="M71.9515 73.5883C71.3545 73.5883 70.9185 73.4547 70.6436 73.1874C70.3765 72.9124 70.243 72.4369 70.243 71.761V67.8237H69.3475V67.3522C69.4889 67.3522 69.646 67.3247 69.8188 67.2697C69.9916 67.2068 70.1409 67.1086 70.2666 66.975C70.4001 66.8335 70.5101 66.6606 70.5965 66.4563C70.6829 66.2519 70.7536 66.0004 70.8086 65.7018H71.3506V67.1518H72.8941V67.8237H71.3506V71.7964C71.3506 72.1972 71.4331 72.4919 71.598 72.6805C71.763 72.8692 71.979 72.9635 72.2461 72.9635C72.3875 72.9635 72.5171 72.9556 72.6349 72.9399C72.7527 72.9242 72.8745 72.9045 73.0002 72.881V73.3996C72.8981 73.4468 72.7449 73.49 72.5406 73.5293C72.3364 73.5686 72.14 73.5883 71.9515 73.5883Z" fill="#1E1E1E"/>
<path d="M73.7138 75.7455C74.1144 75.7455 74.46 75.6866 74.7507 75.5687C75.0413 75.4508 75.2887 75.2858 75.493 75.0736C75.6972 74.8693 75.87 74.6256 76.0114 74.3427C76.1528 74.0598 76.2707 73.7533 76.3649 73.4232L74.1851 68.2717C74.1144 68.1066 74.0437 67.9809 73.973 67.8944C73.9023 67.8001 73.8198 67.7373 73.7256 67.7058C73.6313 67.6665 73.5056 67.6469 73.3485 67.6469H73.3132V67.1518H76.141V67.6469H76.1057C75.87 67.6469 75.6933 67.694 75.5755 67.7884C75.4576 67.8748 75.3987 68.0163 75.3987 68.2127C75.3987 68.2756 75.4066 68.3424 75.4223 68.4131C75.438 68.4839 75.4616 68.5625 75.493 68.6489L76.3531 70.7472C76.4317 70.928 76.5063 71.1284 76.577 71.3484C76.6556 71.5606 76.7263 71.765 76.7891 71.9615C76.8519 72.1579 76.8952 72.323 76.9187 72.4566C76.9737 72.2287 77.0444 71.9929 77.1308 71.7493C77.2251 71.5056 77.3115 71.2659 77.39 71.0302L78.1795 68.7314C78.2187 68.6371 78.2462 68.5467 78.2619 68.4603C78.2777 68.366 78.2855 68.2874 78.2855 68.2245C78.2855 68.0202 78.2187 67.8748 78.0852 67.7884C77.9595 67.694 77.7671 67.6469 77.5079 67.6469H77.4725V67.1518H79.9233V67.6469H79.888C79.7387 67.6469 79.6131 67.6705 79.5109 67.7176C79.4088 67.7648 79.3185 67.8552 79.2399 67.9888C79.1692 68.1224 79.0868 68.3149 78.9925 68.5664L77.2015 73.5175C76.9973 74.0912 76.8009 74.5588 76.6124 74.9203C76.4238 75.2819 76.2117 75.5608 75.9761 75.7573C75.7483 75.9616 75.4616 76.1031 75.1159 76.1817C74.7703 76.2603 74.3383 76.2996 73.8198 76.2996H73.7138V75.7455Z" fill="#1E1E1E"/>
<path fill-rule="evenodd" clip-rule="evenodd" d="M119.244 62.6257C118.426 64.6963 117.586 66.8241 116.719 69.0083C93.1276 128.454 55.6917 159.525 20.103 159.525V158.739C55.2114 158.739 92.4444 128.045 115.989 68.7182C116.856 66.534 117.697 64.4047 118.516 62.3315C124.663 46.7668 129.564 34.3595 134.77 25.5788C140.677 15.6148 147.046 10.2048 156.177 10.2048V10.9907C147.456 10.9907 141.295 16.1118 135.445 25.9798C130.274 34.7023 125.399 47.0432 119.244 62.6257Z" fill="#1E1E1E"/>
<path fill-rule="evenodd" clip-rule="evenodd" d="M193.98 63.1516C194.697 64.9652 195.431 66.8208 196.184 68.7179C219.73 128.049 255.61 158.738 291.894 158.738V159.524C255.124 159.524 219.044 128.449 195.454 69.008C194.702 67.1142 193.97 65.2629 193.255 63.4545C186.937 47.4809 181.944 34.8565 176.662 25.98C170.789 16.1106 164.628 10.9904 155.995 10.9904V10.2045C165.04 10.2045 171.408 15.6155 177.337 25.578C182.653 34.5126 187.671 47.2014 193.98 63.1516Z" fill="#1E1E1E"/>
<path fill-rule="evenodd" clip-rule="evenodd" d="M115.39 166V70.7186L116.176 70.0663V166H115.39Z" fill="#1E1E1E"/>
<path fill-rule="evenodd" clip-rule="evenodd" d="M99.5221 137.858L90.383 132.719L94.6168 128.605L99.5221 137.858Z" fill="#1E1E1E"/>
<path fill-rule="evenodd" clip-rule="evenodd" d="M95.1614 134.028L46.1895 81.7602L46.7626 81.2227L95.7345 133.49L95.1614 134.028Z" fill="#1E1E1E"/>
<path d="M118.5 168.538L113.012 175.074C114.113 175.321 114.531 175.53 115.291 176.651C115.784 177.373 116.145 177.601 116.62 177.601C116.924 177.601 117.133 177.487 117.133 177.316C117.133 177.24 117.095 177.145 117.038 177.031C116.924 176.803 116.886 176.651 116.886 176.499C116.905 176.176 117.209 175.853 117.512 175.853C117.911 175.853 118.177 176.138 118.177 176.556C118.177 177.316 117.474 178 116.411 178C115.86 178 115.215 177.753 114.265 177.164C113.372 176.613 112.765 176.366 112.271 176.366C111.967 176.366 111.72 176.461 111.416 176.708L111.245 176.537L117.133 169.469H114.55C113.562 169.469 113.202 169.64 112.822 170.609L112.518 170.533L113.126 168.329H118.5V168.538Z" fill="#1E1E1E"/>
</svg>
