<svg width="288" height="164" viewBox="0 0 288 164" fill="none" xmlns="http://www.w3.org/2000/svg">
<path fill-rule="evenodd" clip-rule="evenodd" d="M0.339844 146.782H287.661V0.339844H0.339844V146.782Z" fill="white"/>
<path fill-rule="evenodd" clip-rule="evenodd" d="M184.547 123.241V146.785H269.568V139.112C235.477 137.83 207.367 131.471 184.601 123.094L184.547 123.241Z" fill="#B2B2B2"/>
<path fill-rule="evenodd" clip-rule="evenodd" d="M213.891 144.329L222.176 139.335L218.15 135.67L213.891 144.329Z" fill="#1E1E1E"/>
<path fill-rule="evenodd" clip-rule="evenodd" d="M217.199 140.283L241.061 114.294L241.562 114.752L217.7 140.741L217.199 140.283Z" fill="#1E1E1E"/>
<path d="M197.261 103.727V103.271H197.402C197.569 103.271 197.717 103.253 197.848 103.216C197.985 103.18 198.094 103.108 198.173 102.999C198.253 102.883 198.293 102.713 198.293 102.489V97.1656C198.293 96.9484 198.249 96.789 198.163 96.6877C198.083 96.579 197.974 96.5102 197.837 96.4813C197.706 96.445 197.562 96.4269 197.402 96.4269H197.261V95.9707H200.313C201.225 95.9707 201.898 96.1735 202.333 96.579C202.767 96.9773 202.984 97.5313 202.984 98.2411C202.984 98.567 202.934 98.8784 202.832 99.1753C202.731 99.465 202.564 99.7257 202.333 99.9574C202.108 100.189 201.808 100.374 201.431 100.511C201.062 100.642 200.61 100.707 200.074 100.707H199.39V102.543C199.39 102.753 199.43 102.912 199.509 103.021C199.596 103.122 199.705 103.191 199.835 103.227C199.973 103.256 200.121 103.271 200.28 103.271H200.639V103.727H197.261ZM199.965 100.196C200.291 100.196 200.57 100.164 200.801 100.099C201.04 100.026 201.232 99.914 201.377 99.7619C201.529 99.6098 201.638 99.4143 201.703 99.1753C201.775 98.9291 201.811 98.6321 201.811 98.2845C201.811 97.6762 201.685 97.2272 201.431 96.9375C201.178 96.6406 200.744 96.4921 200.128 96.4921H199.39V100.196H199.965Z" fill="#1E1E1E"/>
<path d="M203.761 103.727V103.271H203.794C203.96 103.271 204.108 103.253 204.239 103.216C204.376 103.18 204.485 103.108 204.565 102.999C204.644 102.883 204.684 102.713 204.684 102.489V99.0993C204.684 98.882 204.641 98.7227 204.554 98.6213C204.474 98.5126 204.365 98.4438 204.228 98.4149C204.098 98.3787 203.953 98.3606 203.794 98.3606H203.761V97.9043H205.433L205.64 98.9798H205.694C205.788 98.7625 205.889 98.5633 205.998 98.3823C206.107 98.2012 206.251 98.06 206.432 97.9586C206.613 97.85 206.863 97.7957 207.182 97.7957C207.58 97.7957 207.873 97.8645 208.061 98.0021C208.257 98.1397 208.355 98.3352 208.355 98.5887C208.355 98.8132 208.275 98.9979 208.116 99.1427C207.964 99.2875 207.707 99.36 207.345 99.36C207.345 99.1572 207.327 98.9942 207.29 98.8711C207.254 98.748 207.193 98.6575 207.106 98.5996C207.026 98.5416 206.914 98.5126 206.769 98.5126C206.566 98.5126 206.396 98.5923 206.259 98.7516C206.121 98.911 206.013 99.1137 205.933 99.36C205.853 99.6062 205.795 99.8633 205.759 100.131C205.723 100.392 205.705 100.627 205.705 100.837V102.543C205.705 102.753 205.745 102.912 205.824 103.021C205.911 103.122 206.02 103.191 206.15 103.227C206.288 103.256 206.436 103.271 206.595 103.271H206.899V103.727H203.761Z" fill="#1E1E1E"/>
<path d="M211.631 103.836C210.849 103.836 210.234 103.586 209.785 103.086C209.336 102.586 209.112 101.826 209.112 100.805C209.112 99.7909 209.325 99.0377 209.752 98.5452C210.187 98.0455 210.824 97.7957 211.664 97.7957C212.446 97.7957 213.061 98.0455 213.51 98.5452C213.959 99.0377 214.183 99.7909 214.183 100.805C214.183 101.826 213.966 102.586 213.532 103.086C213.104 103.586 212.471 103.836 211.631 103.836ZM211.653 103.271C212.015 103.271 212.304 103.18 212.522 102.999C212.739 102.811 212.894 102.532 212.989 102.163C213.083 101.793 213.13 101.341 213.13 100.805C213.13 99.9936 213.017 99.3853 212.793 98.9798C212.569 98.5742 212.185 98.3714 211.642 98.3714C211.099 98.3714 210.715 98.5742 210.491 98.9798C210.274 99.3853 210.165 99.9936 210.165 100.805C210.165 101.616 210.277 102.231 210.502 102.651C210.726 103.064 211.11 103.271 211.653 103.271Z" fill="#1E1E1E"/>
<path d="M218.637 103.836C218.217 103.836 217.873 103.749 217.606 103.575C217.345 103.394 217.135 103.162 216.976 102.88H216.911L216.715 103.727H214.977V103.271H215.064C215.231 103.271 215.379 103.253 215.51 103.216C215.647 103.18 215.756 103.108 215.835 102.999C215.915 102.883 215.955 102.713 215.955 102.489V96.6659C215.955 96.4487 215.911 96.2893 215.825 96.188C215.745 96.0793 215.636 96.0105 215.499 95.9816C215.368 95.9453 215.224 95.9272 215.064 95.9272H214.977V95.471H216.976V97.4698C216.976 97.5929 216.972 97.7522 216.965 97.9478C216.965 98.1361 216.961 98.3207 216.954 98.5018C216.947 98.6756 216.939 98.8023 216.932 98.882H216.976C217.142 98.5489 217.356 98.2845 217.616 98.089C217.877 97.8935 218.217 97.7957 218.637 97.7957C219.354 97.7957 219.901 98.0383 220.277 98.5235C220.661 99.0015 220.853 99.7619 220.853 100.805C220.853 101.5 220.766 102.072 220.592 102.521C220.425 102.97 220.176 103.303 219.843 103.521C219.517 103.731 219.115 103.836 218.637 103.836ZM218.463 103.14C218.941 103.14 219.282 102.941 219.484 102.543C219.694 102.137 219.799 101.554 219.799 100.794C219.799 100.019 219.694 99.4432 219.484 99.0667C219.282 98.6828 218.938 98.4909 218.453 98.4909C217.888 98.4909 217.501 98.6828 217.291 99.0667C217.081 99.4432 216.976 100.023 216.976 100.805C216.976 101.304 217.019 101.728 217.106 102.076C217.2 102.423 217.356 102.688 217.573 102.869C217.79 103.05 218.087 103.14 218.463 103.14Z" fill="#1E1E1E"/>
<path d="M223.679 103.836C223.36 103.836 223.071 103.774 222.81 103.651C222.557 103.521 222.358 103.329 222.213 103.075C222.068 102.814 221.996 102.489 221.996 102.097C221.996 101.518 222.198 101.091 222.604 100.816C223.017 100.54 223.639 100.388 224.472 100.359L225.373 100.327V99.675C225.373 99.4143 225.351 99.1862 225.308 98.9906C225.265 98.7878 225.17 98.6285 225.026 98.5126C224.881 98.3968 224.66 98.3388 224.363 98.3388C224.088 98.3388 223.878 98.3895 223.733 98.4909C223.588 98.5923 223.491 98.7335 223.44 98.9146C223.397 99.0884 223.375 99.2912 223.375 99.5229C223.071 99.5229 222.839 99.4722 222.68 99.3708C222.528 99.2622 222.452 99.0848 222.452 98.8385C222.452 98.5851 222.539 98.3823 222.712 98.2302C222.893 98.0781 223.132 97.9695 223.429 97.9043C223.726 97.8319 224.052 97.7957 224.407 97.7957C225.073 97.7957 225.569 97.9369 225.894 98.2193C226.227 98.5018 226.394 98.987 226.394 99.675V102.489C226.394 102.691 226.416 102.851 226.459 102.966C226.503 103.075 226.575 103.155 226.676 103.205C226.778 103.249 226.908 103.271 227.067 103.271H227.1V103.727H225.634L225.46 102.793H225.373C225.221 102.995 225.073 103.177 224.928 103.336C224.783 103.488 224.613 103.611 224.417 103.705C224.229 103.792 223.983 103.836 223.679 103.836ZM223.929 103.162C224.226 103.162 224.479 103.1 224.689 102.977C224.906 102.854 225.073 102.68 225.188 102.456C225.312 102.224 225.373 101.956 225.373 101.652V100.772L224.678 100.805C224.265 100.819 223.94 100.881 223.701 100.989C223.469 101.098 223.303 101.25 223.201 101.446C223.1 101.634 223.049 101.869 223.049 102.152C223.049 102.376 223.082 102.565 223.147 102.717C223.212 102.861 223.31 102.974 223.44 103.053C223.57 103.126 223.733 103.162 223.929 103.162Z" fill="#1E1E1E"/>
<path d="M231.427 103.836C231.007 103.836 230.663 103.749 230.396 103.575C230.135 103.394 229.925 103.162 229.766 102.88H229.7L229.505 103.727H227.767V103.271H227.854C228.021 103.271 228.169 103.253 228.3 103.216C228.437 103.18 228.546 103.108 228.625 102.999C228.705 102.883 228.745 102.713 228.745 102.489V96.6659C228.745 96.4487 228.701 96.2893 228.615 96.188C228.535 96.0793 228.426 96.0105 228.289 95.9816C228.158 95.9453 228.014 95.9272 227.854 95.9272H227.767V95.471H229.766V97.4698C229.766 97.5929 229.762 97.7522 229.755 97.9478C229.755 98.1361 229.751 98.3207 229.744 98.5018C229.737 98.6756 229.729 98.8023 229.722 98.882H229.766C229.932 98.5489 230.146 98.2845 230.406 98.089C230.667 97.8935 231.007 97.7957 231.427 97.7957C232.144 97.7957 232.691 98.0383 233.067 98.5235C233.451 99.0015 233.643 99.7619 233.643 100.805C233.643 101.5 233.556 102.072 233.382 102.521C233.215 102.97 232.966 103.303 232.633 103.521C232.307 103.731 231.905 103.836 231.427 103.836ZM231.253 103.14C231.731 103.14 232.072 102.941 232.274 102.543C232.484 102.137 232.589 101.554 232.589 100.794C232.589 100.019 232.484 99.4432 232.274 99.0667C232.072 98.6828 231.728 98.4909 231.243 98.4909C230.678 98.4909 230.291 98.6828 230.081 99.0667C229.871 99.4432 229.766 100.023 229.766 100.805C229.766 101.304 229.809 101.728 229.896 102.076C229.99 102.423 230.146 102.688 230.363 102.869C230.58 103.05 230.877 103.14 231.253 103.14Z" fill="#1E1E1E"/>
<path d="M234.492 103.727V103.271H234.634C234.793 103.271 234.938 103.256 235.068 103.227C235.206 103.191 235.314 103.122 235.394 103.021C235.481 102.912 235.524 102.753 235.524 102.543V99.0993C235.524 98.882 235.481 98.7227 235.394 98.6213C235.314 98.5126 235.206 98.4438 235.068 98.4149C234.938 98.3787 234.793 98.3606 234.634 98.3606H234.601V97.9043H236.545V102.489C236.545 102.713 236.585 102.883 236.664 102.999C236.744 103.108 236.853 103.18 236.99 103.216C237.128 103.253 237.276 103.271 237.435 103.271H237.577V103.727H234.492ZM235.991 96.818C235.817 96.818 235.669 96.7673 235.546 96.6659C235.43 96.5645 235.372 96.3907 235.372 96.1445C235.372 95.891 235.43 95.7172 235.546 95.6231C235.669 95.5217 235.817 95.471 235.991 95.471C236.158 95.471 236.302 95.5217 236.425 95.6231C236.549 95.7172 236.61 95.891 236.61 96.1445C236.61 96.3907 236.549 96.5645 236.425 96.6659C236.302 96.7673 236.158 96.818 235.991 96.818Z" fill="#1E1E1E"/>
<path d="M237.862 103.727V103.271H238.004C238.17 103.271 238.319 103.253 238.449 103.216C238.586 103.18 238.695 103.108 238.775 102.999C238.854 102.883 238.894 102.713 238.894 102.489V96.6659C238.894 96.4487 238.851 96.2893 238.764 96.188C238.684 96.0793 238.575 96.0105 238.438 95.9816C238.308 95.9453 238.163 95.9272 238.004 95.9272H237.862V95.471H239.915V102.489C239.915 102.713 239.955 102.883 240.034 102.999C240.114 103.108 240.223 103.18 240.36 103.216C240.498 103.253 240.646 103.271 240.805 103.271H240.947V103.727H237.862Z" fill="#1E1E1E"/>
<path d="M241.333 103.727V103.271H241.474C241.633 103.271 241.778 103.256 241.908 103.227C242.046 103.191 242.155 103.122 242.234 103.021C242.321 102.912 242.365 102.753 242.365 102.543V99.0993C242.365 98.882 242.321 98.7227 242.234 98.6213C242.155 98.5126 242.046 98.4438 241.908 98.4149C241.778 98.3787 241.633 98.3606 241.474 98.3606H241.441V97.9043H243.385V102.489C243.385 102.713 243.425 102.883 243.505 102.999C243.584 103.108 243.693 103.18 243.831 103.216C243.968 103.253 244.117 103.271 244.276 103.271H244.417V103.727H241.333ZM242.832 96.818C242.658 96.818 242.509 96.7673 242.386 96.6659C242.27 96.5645 242.213 96.3907 242.213 96.1445C242.213 95.891 242.27 95.7172 242.386 95.6231C242.509 95.5217 242.658 95.471 242.832 95.471C242.998 95.471 243.143 95.5217 243.266 95.6231C243.389 95.7172 243.451 95.891 243.451 96.1445C243.451 96.3907 243.389 96.5645 243.266 96.6659C243.143 96.7673 242.998 96.818 242.832 96.818Z" fill="#1E1E1E"/>
<path d="M247.168 103.836C246.618 103.836 246.216 103.712 245.963 103.466C245.716 103.213 245.593 102.775 245.593 102.152V98.5235H244.768V98.089C244.898 98.089 245.043 98.0636 245.202 98.0129C245.362 97.955 245.499 97.8645 245.615 97.7414C245.738 97.611 245.839 97.4517 245.919 97.2634C245.999 97.0751 246.064 96.8434 246.115 96.5682H246.614V97.9043H248.037V98.5235H246.614V102.184C246.614 102.554 246.69 102.825 246.842 102.999C246.994 103.173 247.193 103.26 247.439 103.26C247.57 103.26 247.689 103.253 247.798 103.238C247.906 103.224 248.019 103.205 248.134 103.184V103.662C248.04 103.705 247.899 103.745 247.711 103.781C247.523 103.817 247.342 103.836 247.168 103.836Z" fill="#1E1E1E"/>
<path d="M248.792 105.823C249.161 105.823 249.48 105.769 249.748 105.661C250.016 105.552 250.244 105.4 250.432 105.204C250.62 105.016 250.78 104.791 250.91 104.531C251.04 104.27 251.149 103.988 251.236 103.683L249.227 98.9363C249.161 98.7842 249.096 98.6684 249.031 98.5887C248.966 98.5018 248.89 98.4438 248.803 98.4149C248.716 98.3787 248.6 98.3606 248.456 98.3606H248.423V97.9043H251.029V98.3606H250.997C250.78 98.3606 250.617 98.404 250.508 98.4909C250.399 98.5706 250.345 98.7009 250.345 98.882C250.345 98.9399 250.352 99.0015 250.367 99.0667C250.381 99.1318 250.403 99.2043 250.432 99.2839L251.225 101.218C251.297 101.384 251.366 101.569 251.431 101.772C251.503 101.967 251.569 102.155 251.627 102.336C251.684 102.517 251.724 102.67 251.746 102.793C251.797 102.583 251.862 102.365 251.942 102.141C252.028 101.916 252.108 101.696 252.18 101.478L252.908 99.36C252.944 99.2731 252.97 99.1898 252.984 99.1101C252.999 99.0232 253.006 98.9508 253.006 98.8929C253.006 98.7046 252.944 98.5706 252.821 98.4909C252.705 98.404 252.528 98.3606 252.289 98.3606H252.256V97.9043H254.515V98.3606H254.483C254.345 98.3606 254.229 98.3823 254.135 98.4257C254.041 98.4692 253.958 98.5525 253.885 98.6756C253.82 98.7987 253.744 98.9761 253.657 99.2079L252.007 103.77C251.818 104.299 251.637 104.73 251.464 105.063C251.29 105.396 251.094 105.653 250.877 105.834C250.667 106.023 250.403 106.153 250.084 106.225C249.766 106.298 249.368 106.334 248.89 106.334H248.792V105.823Z" fill="#1E1E1E"/>
<path d="M258.846 99.0189C258.886 98.8595 258.914 98.7241 258.93 98.6126C258.946 98.4931 258.954 98.4174 258.954 98.3856C258.954 98.1466 258.87 97.9952 258.703 97.9315C258.543 97.8598 258.348 97.8239 258.117 97.8239H258.022L258.129 97.3221H260.244L259.957 98.9113H260.017C260.176 98.6006 260.355 98.3178 260.554 98.0629C260.761 97.8 261 97.5929 261.271 97.4416C261.542 97.2822 261.852 97.2026 262.203 97.2026C262.689 97.2026 263.063 97.3898 263.326 97.7642C263.589 98.1306 263.72 98.6644 263.72 99.3654C263.72 99.7079 263.672 100.082 263.577 100.489C263.481 100.887 263.338 101.285 263.147 101.684C262.963 102.082 262.729 102.444 262.442 102.771C262.163 103.098 261.833 103.36 261.45 103.56C261.068 103.751 260.638 103.846 260.16 103.846C259.929 103.846 259.714 103.819 259.515 103.763C259.316 103.715 259.141 103.651 258.989 103.572C258.982 103.635 258.97 103.723 258.954 103.834C258.938 103.946 258.918 104.05 258.894 104.145L258.727 104.874C258.719 104.922 258.699 105.021 258.667 105.173C258.635 105.332 258.619 105.456 258.619 105.543C258.619 105.782 258.703 105.934 258.87 105.997C259.037 106.061 259.232 106.093 259.455 106.093H259.611L259.503 106.595H257.257L258.846 99.0189ZM260.124 103.309C260.427 103.309 260.702 103.221 260.949 103.046C261.203 102.871 261.426 102.636 261.618 102.341C261.809 102.046 261.968 101.727 262.095 101.385C262.231 101.034 262.33 100.684 262.394 100.333C262.466 99.9748 262.502 99.6482 262.502 99.3534C262.502 99.1224 262.478 98.8994 262.43 98.6843C262.39 98.4692 262.314 98.2939 262.203 98.1585C262.099 98.0231 261.948 97.9554 261.749 97.9554C261.566 97.9554 261.383 98.0151 261.199 98.1346C261.016 98.2461 260.841 98.3975 260.674 98.5887C260.515 98.7799 260.367 98.995 260.232 99.2339C260.096 99.465 259.981 99.7 259.885 99.939C259.79 100.178 259.718 100.401 259.67 100.608L259.181 102.879C259.252 102.966 259.372 103.062 259.539 103.165C259.706 103.261 259.901 103.309 260.124 103.309Z" fill="#1E1E1E"/>
<path fill-rule="evenodd" clip-rule="evenodd" d="M0 0H288V147.441H0V0ZM0.679245 0.679449V146.761H287.321V0.679449H0.679245Z" fill="#1E1E1E"/>
<path fill-rule="evenodd" clip-rule="evenodd" d="M67.5569 36.8655C62.6991 34.3207 57.9932 33.1714 53.5494 34.0716C47.4397 35.3094 42.3885 39.2338 38.1098 45.3883C33.8282 51.5468 30.3364 59.9163 27.3481 69.9918C21.3711 90.1441 17.4348 117.024 13.1758 146.458C13.1489 146.644 12.977 146.772 12.7918 146.745C12.6065 146.718 12.4781 146.546 12.5049 146.361C16.7614 116.944 20.7041 90.0087 26.6982 69.799C29.6954 59.6935 33.2121 51.2453 37.5532 45.0011C41.8971 38.7529 47.0827 34.6898 53.4149 33.407C58.0677 32.4645 62.9373 33.68 67.8713 36.2648C72.8056 38.8497 77.8351 42.8196 82.8252 47.4361C87.817 52.0539 92.7828 57.3314 97.5869 62.54C98.4781 63.5062 99.3636 64.4699 100.243 65.4266C104.106 69.631 107.845 73.7001 111.395 77.2511C128.383 94.2452 176.69 135.234 269.09 138.714C269.277 138.721 269.423 138.879 269.416 139.066C269.409 139.253 269.252 139.399 269.065 139.392C176.448 135.903 127.988 94.8092 110.915 77.7306C107.354 74.1685 103.603 70.086 99.7395 65.881C98.8614 64.9253 97.9775 63.9634 97.0887 62.9998C92.2853 57.792 87.3352 52.5319 82.3649 47.9339C77.3931 43.3344 72.4144 39.4101 67.5569 36.8655Z" fill="#1E1E1E"/>
<path d="M175.568 163.796L175.415 164C173.404 162.854 172.309 160.702 172.309 158.537C172.309 156.181 173.417 154.347 175.454 153.137L175.568 153.341C173.798 154.856 173.404 156.041 173.404 158.498C173.404 160.867 173.786 162.306 175.568 163.796Z" fill="#1E1E1E"/>
<path d="M192.891 153.341L193.044 153.137C194.992 154.309 196.15 156.435 196.15 158.6C196.15 160.956 195.03 162.765 193.006 164L192.891 163.796C194.699 162.306 195.055 161.109 195.055 158.639C195.055 156.257 194.737 154.793 192.891 153.341Z" fill="#1E1E1E"/>
<path fill-rule="evenodd" clip-rule="evenodd" d="M183.885 151.048V123.179H184.563V151.048H183.885Z" fill="#1E1E1E"/>
<path d="M186.221 155.099L183.244 159.181L183.348 159.636C183.92 162.028 184.362 162.756 185.038 162.756C185.415 162.756 185.636 162.639 185.883 162.314L186.091 162.418C185.896 163.159 185.506 163.796 184.791 163.796C183.907 163.796 183.556 163.211 183.127 161.248L182.815 159.857H182.763L180.592 163.757H179.318L179.305 163.549L182.516 158.83L182.334 158.05C181.996 156.62 181.593 155.827 180.787 155.827C180.254 155.827 180.046 156.113 179.838 156.412L179.617 156.282C179.838 155.515 180.28 154.839 181.021 154.839C182.295 154.839 182.672 156.854 182.971 158.193H183.023L184.921 154.943H186.221V155.099Z" fill="#1E1E1E"/>
<path d="M190.5 156.139L190.175 157.79H186.236V157.283L187.562 155.957C188.667 154.917 189.161 154.358 189.161 153.292C189.161 152.629 188.745 152.187 187.978 152.187C187.289 152.187 186.847 152.421 186.496 153.006L186.236 152.863C186.561 152.005 187.237 151.472 188.225 151.472C189.382 151.472 190.201 152.109 190.201 153.188C190.201 154.098 189.499 154.787 188.433 155.801L187.263 156.932V156.997L188.004 156.958H189.239C189.798 156.958 189.902 156.737 190.149 156.139H190.5Z" fill="#1E1E1E"/>
</svg>
