<svg width="312" height="178" viewBox="0 0 312 178" fill="none" xmlns="http://www.w3.org/2000/svg">
<path fill-rule="evenodd" clip-rule="evenodd" d="M0.367188 159.014H311.631V0.368164H0.367188V159.014Z" fill="white"/>
<path fill-rule="evenodd" clip-rule="evenodd" d="M199.926 133.511V159.017H292.032V150.704C255.1 149.316 224.648 142.427 199.984 133.352L199.926 133.511Z" fill="#B2B2B2"/>
<path fill-rule="evenodd" clip-rule="evenodd" d="M231.715 156.357L240.691 150.946L236.329 146.976L231.715 156.357Z" fill="#1E1E1E"/>
<path fill-rule="evenodd" clip-rule="evenodd" d="M235.299 151.973L261.149 123.818L261.692 124.315L235.841 152.469L235.299 151.973Z" fill="#1E1E1E"/>
<path d="M213.7 112.371V111.877H213.853C214.033 111.877 214.194 111.857 214.335 111.818C214.484 111.778 214.602 111.7 214.688 111.582C214.774 111.457 214.817 111.272 214.817 111.029V105.263C214.817 105.027 214.77 104.855 214.676 104.745C214.59 104.627 214.472 104.553 214.323 104.521C214.182 104.482 214.025 104.463 213.853 104.463H213.7V103.968H217.006C217.994 103.968 218.723 104.188 219.194 104.627C219.664 105.059 219.9 105.659 219.9 106.428C219.9 106.781 219.845 107.118 219.735 107.44C219.625 107.754 219.445 108.036 219.194 108.287C218.951 108.538 218.625 108.738 218.217 108.887C217.817 109.029 217.327 109.099 216.747 109.099H216.006V111.088C216.006 111.316 216.049 111.488 216.135 111.606C216.229 111.716 216.347 111.79 216.488 111.829C216.637 111.861 216.798 111.877 216.97 111.877H217.358V112.371H213.7ZM216.629 108.546C216.982 108.546 217.284 108.511 217.535 108.44C217.794 108.362 218.002 108.24 218.158 108.075C218.323 107.911 218.441 107.699 218.511 107.44C218.59 107.173 218.629 106.851 218.629 106.475C218.629 105.816 218.492 105.329 218.217 105.016C217.943 104.694 217.472 104.533 216.806 104.533H216.006V108.546H216.629Z" fill="#1E1E1E"/>
<path d="M220.741 112.371V111.877H220.776C220.957 111.877 221.117 111.857 221.259 111.818C221.408 111.778 221.525 111.7 221.612 111.582C221.698 111.457 221.741 111.272 221.741 111.029V107.358C221.741 107.122 221.694 106.95 221.6 106.84C221.514 106.722 221.396 106.647 221.247 106.616C221.106 106.577 220.949 106.557 220.776 106.557H220.741V106.063H222.553L222.776 107.228H222.835C222.937 106.993 223.047 106.777 223.165 106.581C223.282 106.385 223.439 106.232 223.635 106.122C223.831 106.004 224.102 105.945 224.447 105.945C224.878 105.945 225.196 106.02 225.4 106.169C225.612 106.318 225.718 106.53 225.718 106.804C225.718 107.048 225.631 107.248 225.459 107.405C225.294 107.562 225.016 107.64 224.623 107.64C224.623 107.42 224.604 107.244 224.565 107.11C224.525 106.977 224.459 106.879 224.365 106.816C224.278 106.753 224.157 106.722 224 106.722C223.78 106.722 223.596 106.808 223.447 106.981C223.298 107.154 223.18 107.373 223.094 107.64C223.008 107.907 222.945 108.185 222.906 108.476C222.867 108.758 222.847 109.013 222.847 109.24V111.088C222.847 111.316 222.89 111.488 222.976 111.606C223.07 111.716 223.188 111.79 223.329 111.829C223.478 111.861 223.639 111.877 223.812 111.877H224.141V112.371H220.741Z" fill="#1E1E1E"/>
<path d="M229.267 112.489C228.42 112.489 227.753 112.218 227.267 111.677C226.781 111.135 226.538 110.311 226.538 109.205C226.538 108.107 226.769 107.291 227.232 106.757C227.702 106.216 228.392 105.945 229.302 105.945C230.149 105.945 230.816 106.216 231.302 106.757C231.789 107.291 232.032 108.107 232.032 109.205C232.032 110.311 231.796 111.135 231.326 111.677C230.863 112.218 230.177 112.489 229.267 112.489ZM229.291 111.877C229.683 111.877 229.996 111.778 230.232 111.582C230.467 111.378 230.636 111.076 230.738 110.676C230.84 110.276 230.891 109.786 230.891 109.205C230.891 108.326 230.769 107.667 230.526 107.228C230.283 106.789 229.867 106.569 229.279 106.569C228.691 106.569 228.275 106.789 228.032 107.228C227.796 107.667 227.679 108.326 227.679 109.205C227.679 110.084 227.8 110.751 228.043 111.206C228.287 111.653 228.702 111.877 229.291 111.877Z" fill="#1E1E1E"/>
<path d="M236.857 112.489C236.402 112.489 236.03 112.394 235.739 112.206C235.457 112.01 235.23 111.759 235.057 111.453H234.986L234.775 112.371H232.892V111.877H232.986C233.167 111.877 233.328 111.857 233.469 111.818C233.618 111.778 233.735 111.7 233.822 111.582C233.908 111.457 233.951 111.272 233.951 111.029V104.721C233.951 104.486 233.904 104.313 233.81 104.204C233.724 104.086 233.606 104.011 233.457 103.98C233.316 103.941 233.159 103.921 232.986 103.921H232.892V103.427H235.057V105.592C235.057 105.726 235.053 105.898 235.045 106.11C235.045 106.314 235.041 106.514 235.033 106.71C235.026 106.899 235.018 107.036 235.01 107.122H235.057C235.237 106.761 235.469 106.475 235.751 106.263C236.033 106.051 236.402 105.945 236.857 105.945C237.633 105.945 238.226 106.208 238.634 106.734C239.049 107.252 239.257 108.075 239.257 109.205C239.257 109.958 239.163 110.578 238.975 111.065C238.794 111.551 238.524 111.912 238.163 112.147C237.81 112.375 237.375 112.489 236.857 112.489ZM236.669 111.735C237.186 111.735 237.555 111.52 237.775 111.088C238.002 110.649 238.116 110.017 238.116 109.193C238.116 108.354 238.002 107.73 237.775 107.322C237.555 106.906 237.183 106.698 236.657 106.698C236.045 106.698 235.626 106.906 235.398 107.322C235.171 107.73 235.057 108.358 235.057 109.205C235.057 109.746 235.104 110.205 235.198 110.582C235.3 110.959 235.469 111.245 235.704 111.441C235.939 111.637 236.261 111.735 236.669 111.735Z" fill="#1E1E1E"/>
<path d="M242.319 112.489C241.974 112.489 241.66 112.422 241.378 112.288C241.103 112.147 240.888 111.939 240.731 111.665C240.574 111.382 240.495 111.029 240.495 110.606C240.495 109.978 240.715 109.515 241.154 109.217C241.601 108.919 242.276 108.754 243.178 108.723L244.154 108.687V107.981C244.154 107.699 244.131 107.452 244.084 107.24C244.037 107.02 243.935 106.848 243.778 106.722C243.621 106.597 243.382 106.534 243.06 106.534C242.762 106.534 242.535 106.589 242.378 106.698C242.221 106.808 242.115 106.961 242.06 107.157C242.013 107.346 241.989 107.565 241.989 107.816C241.66 107.816 241.409 107.762 241.237 107.652C241.072 107.534 240.989 107.342 240.989 107.075C240.989 106.8 241.084 106.581 241.272 106.416C241.468 106.251 241.727 106.134 242.048 106.063C242.37 105.985 242.723 105.945 243.107 105.945C243.829 105.945 244.366 106.098 244.719 106.404C245.08 106.71 245.26 107.236 245.26 107.981V111.029C245.26 111.249 245.284 111.422 245.331 111.547C245.378 111.665 245.456 111.751 245.566 111.806C245.676 111.853 245.817 111.877 245.99 111.877H246.025V112.371H244.437L244.248 111.359H244.154C243.99 111.578 243.829 111.775 243.672 111.947C243.515 112.112 243.331 112.245 243.119 112.347C242.915 112.441 242.648 112.489 242.319 112.489ZM242.589 111.759C242.911 111.759 243.186 111.692 243.413 111.559C243.648 111.425 243.829 111.237 243.954 110.994C244.088 110.743 244.154 110.453 244.154 110.123V109.17L243.401 109.205C242.954 109.221 242.601 109.288 242.342 109.405C242.091 109.523 241.911 109.688 241.801 109.899C241.691 110.103 241.637 110.358 241.637 110.664C241.637 110.908 241.672 111.112 241.742 111.276C241.813 111.433 241.919 111.555 242.06 111.641C242.201 111.72 242.378 111.759 242.589 111.759Z" fill="#1E1E1E"/>
<path d="M250.713 112.489C250.258 112.489 249.885 112.394 249.595 112.206C249.313 112.01 249.085 111.759 248.913 111.453H248.842L248.63 112.371H246.748V111.877H246.842C247.023 111.877 247.183 111.857 247.325 111.818C247.474 111.778 247.591 111.7 247.677 111.582C247.764 111.457 247.807 111.272 247.807 111.029V104.721C247.807 104.486 247.76 104.313 247.666 104.204C247.579 104.086 247.462 104.011 247.313 103.98C247.172 103.941 247.015 103.921 246.842 103.921H246.748V103.427H248.913V105.592C248.913 105.726 248.909 105.898 248.901 106.11C248.901 106.314 248.897 106.514 248.889 106.71C248.881 106.899 248.874 107.036 248.866 107.122H248.913C249.093 106.761 249.325 106.475 249.607 106.263C249.889 106.051 250.258 105.945 250.713 105.945C251.489 105.945 252.081 106.208 252.489 106.734C252.905 107.252 253.113 108.075 253.113 109.205C253.113 109.958 253.019 110.578 252.83 111.065C252.65 111.551 252.379 111.912 252.019 112.147C251.666 112.375 251.23 112.489 250.713 112.489ZM250.525 111.735C251.042 111.735 251.411 111.52 251.63 111.088C251.858 110.649 251.972 110.017 251.972 109.193C251.972 108.354 251.858 107.73 251.63 107.322C251.411 106.906 251.038 106.698 250.513 106.698C249.901 106.698 249.481 106.906 249.254 107.322C249.027 107.73 248.913 108.358 248.913 109.205C248.913 109.746 248.96 110.205 249.054 110.582C249.156 110.959 249.325 111.245 249.56 111.441C249.795 111.637 250.117 111.735 250.525 111.735Z" fill="#1E1E1E"/>
<path d="M254.034 112.371V111.877H254.186C254.359 111.877 254.516 111.861 254.657 111.829C254.806 111.79 254.924 111.716 255.01 111.606C255.104 111.488 255.151 111.316 255.151 111.088V107.358C255.151 107.122 255.104 106.95 255.01 106.84C254.924 106.722 254.806 106.647 254.657 106.616C254.516 106.577 254.359 106.557 254.186 106.557H254.151V106.063H256.257V111.029C256.257 111.272 256.3 111.457 256.386 111.582C256.473 111.7 256.59 111.778 256.739 111.818C256.888 111.857 257.049 111.877 257.222 111.877H257.375V112.371H254.034ZM255.657 104.886C255.469 104.886 255.308 104.831 255.175 104.721C255.049 104.612 254.986 104.423 254.986 104.157C254.986 103.882 255.049 103.694 255.175 103.592C255.308 103.482 255.469 103.427 255.657 103.427C255.837 103.427 255.994 103.482 256.128 103.592C256.261 103.694 256.328 103.882 256.328 104.157C256.328 104.423 256.261 104.612 256.128 104.721C255.994 104.831 255.837 104.886 255.657 104.886Z" fill="#1E1E1E"/>
<path d="M257.684 112.371V111.877H257.837C258.018 111.877 258.178 111.857 258.32 111.818C258.469 111.778 258.586 111.7 258.673 111.582C258.759 111.457 258.802 111.272 258.802 111.029V104.721C258.802 104.486 258.755 104.313 258.661 104.204C258.574 104.086 258.457 104.011 258.308 103.98C258.167 103.941 258.01 103.921 257.837 103.921H257.684V103.427H259.908V111.029C259.908 111.272 259.951 111.457 260.037 111.582C260.123 111.7 260.241 111.778 260.39 111.818C260.539 111.857 260.7 111.877 260.873 111.877H261.025V112.371H257.684Z" fill="#1E1E1E"/>
<path d="M261.444 112.371V111.877H261.597C261.769 111.877 261.926 111.861 262.067 111.829C262.216 111.79 262.334 111.716 262.42 111.606C262.515 111.488 262.562 111.316 262.562 111.088V107.358C262.562 107.122 262.515 106.95 262.42 106.84C262.334 106.722 262.216 106.647 262.067 106.616C261.926 106.577 261.769 106.557 261.597 106.557H261.562V106.063H263.667V111.029C263.667 111.272 263.711 111.457 263.797 111.582C263.883 111.7 264.001 111.778 264.15 111.818C264.299 111.857 264.46 111.877 264.632 111.877H264.785V112.371H261.444ZM263.067 104.886C262.879 104.886 262.718 104.831 262.585 104.721C262.46 104.612 262.397 104.423 262.397 104.157C262.397 103.882 262.46 103.694 262.585 103.592C262.718 103.482 262.879 103.427 263.067 103.427C263.248 103.427 263.405 103.482 263.538 103.592C263.671 103.694 263.738 103.882 263.738 104.157C263.738 104.423 263.671 104.612 263.538 104.721C263.405 104.831 263.248 104.886 263.067 104.886Z" fill="#1E1E1E"/>
<path d="M267.765 112.489C267.169 112.489 266.734 112.355 266.459 112.088C266.193 111.814 266.059 111.339 266.059 110.664V106.734H265.165V106.263C265.306 106.263 265.463 106.236 265.636 106.181C265.808 106.118 265.957 106.02 266.083 105.886C266.216 105.745 266.326 105.573 266.412 105.369C266.499 105.165 266.569 104.914 266.624 104.616H267.165V106.063H268.706V106.734H267.165V110.7C267.165 111.1 267.248 111.394 267.412 111.582C267.577 111.771 267.793 111.865 268.059 111.865C268.201 111.865 268.33 111.857 268.448 111.841C268.565 111.826 268.687 111.806 268.812 111.782V112.3C268.71 112.347 268.557 112.39 268.354 112.43C268.15 112.469 267.954 112.489 267.765 112.489Z" fill="#1E1E1E"/>
<path d="M269.525 114.642C269.925 114.642 270.27 114.583 270.56 114.466C270.85 114.348 271.097 114.183 271.301 113.971C271.505 113.767 271.678 113.524 271.819 113.242C271.96 112.959 272.078 112.653 272.172 112.324L269.995 107.181C269.925 107.016 269.854 106.891 269.784 106.804C269.713 106.71 269.631 106.647 269.537 106.616C269.443 106.577 269.317 106.557 269.16 106.557H269.125V106.063H271.948V106.557H271.913C271.678 106.557 271.501 106.604 271.384 106.698C271.266 106.785 271.207 106.926 271.207 107.122C271.207 107.185 271.215 107.252 271.231 107.322C271.246 107.393 271.27 107.471 271.301 107.558L272.16 109.652C272.239 109.833 272.313 110.033 272.384 110.253C272.462 110.464 272.533 110.668 272.595 110.864C272.658 111.061 272.701 111.225 272.725 111.359C272.78 111.131 272.85 110.896 272.937 110.653C273.031 110.409 273.117 110.17 273.195 109.935L273.984 107.64C274.023 107.546 274.05 107.456 274.066 107.369C274.082 107.275 274.09 107.197 274.09 107.134C274.09 106.93 274.023 106.785 273.89 106.698C273.764 106.604 273.572 106.557 273.313 106.557H273.278V106.063H275.725V106.557H275.69C275.541 106.557 275.415 106.581 275.313 106.628C275.211 106.675 275.121 106.765 275.043 106.899C274.972 107.032 274.89 107.224 274.795 107.475L273.007 112.418C272.803 112.991 272.607 113.457 272.419 113.818C272.231 114.179 272.019 114.458 271.784 114.654C271.556 114.858 271.27 114.999 270.925 115.078C270.58 115.156 270.148 115.195 269.631 115.195H269.525V114.642Z" fill="#1E1E1E"/>
<path d="M280.417 107.27C280.46 107.098 280.49 106.951 280.507 106.83C280.524 106.701 280.533 106.619 280.533 106.584C280.533 106.325 280.443 106.161 280.261 106.092C280.089 106.015 279.877 105.976 279.627 105.976H279.524L279.64 105.432H281.931L281.62 107.154H281.685C281.857 106.817 282.052 106.511 282.267 106.235C282.492 105.95 282.75 105.726 283.044 105.562C283.337 105.389 283.674 105.303 284.053 105.303C284.579 105.303 284.985 105.506 285.27 105.911C285.554 106.308 285.697 106.886 285.697 107.646C285.697 108.017 285.645 108.423 285.541 108.863C285.438 109.294 285.283 109.726 285.075 110.157C284.877 110.589 284.623 110.981 284.312 111.335C284.01 111.689 283.652 111.974 283.238 112.19C282.824 112.397 282.358 112.5 281.84 112.5C281.59 112.5 281.357 112.47 281.141 112.41C280.926 112.358 280.736 112.289 280.572 112.203C280.563 112.272 280.55 112.367 280.533 112.487C280.516 112.608 280.494 112.72 280.468 112.824L280.287 113.614C280.279 113.665 280.257 113.773 280.223 113.937C280.188 114.11 280.171 114.244 280.171 114.338C280.171 114.597 280.261 114.761 280.443 114.83C280.624 114.899 280.835 114.934 281.077 114.934H281.245L281.128 115.478H278.695L280.417 107.27ZM281.801 111.918C282.129 111.918 282.427 111.823 282.694 111.633C282.97 111.443 283.212 111.189 283.419 110.869C283.626 110.55 283.799 110.205 283.937 109.834C284.083 109.454 284.191 109.074 284.26 108.694C284.338 108.306 284.377 107.952 284.377 107.633C284.377 107.383 284.351 107.141 284.299 106.908C284.256 106.675 284.174 106.485 284.053 106.338C283.941 106.192 283.777 106.118 283.561 106.118C283.363 106.118 283.164 106.183 282.966 106.313C282.768 106.433 282.578 106.597 282.397 106.804C282.224 107.012 282.065 107.245 281.918 107.503C281.771 107.754 281.646 108.008 281.543 108.267C281.439 108.526 281.361 108.768 281.31 108.992L280.779 111.452C280.857 111.547 280.986 111.65 281.167 111.762C281.348 111.866 281.56 111.918 281.801 111.918Z" fill="#1E1E1E"/>
<path fill-rule="evenodd" clip-rule="evenodd" d="M0 0H312V159.727H0V0ZM0.735849 0.73607V158.991H311.264V0.73607H0.735849Z" fill="#1E1E1E"/>
<path fill-rule="evenodd" clip-rule="evenodd" d="M73.1866 39.9376C67.9241 37.1808 62.826 35.9357 58.0119 36.9109C51.393 38.2518 45.9209 42.5033 41.2856 49.1706C36.6472 55.8423 32.8644 64.9094 29.6271 75.8245C23.152 97.6561 18.8877 126.776 14.2737 158.663C14.2447 158.864 14.0584 159.003 13.8577 158.974C13.657 158.945 13.5179 158.759 13.5469 158.558C18.1582 126.689 22.4295 97.5094 28.923 75.6156C32.17 64.668 35.9798 55.5157 40.6827 48.7512C45.3886 41.9823 51.0063 37.5806 57.8661 36.191C62.9067 35.1698 68.1821 36.4867 73.5273 39.2868C78.8728 42.0871 84.3213 46.3879 89.7273 51.3891C95.1351 56.3918 100.515 62.109 105.719 67.7516C106.685 68.7984 107.644 69.8424 108.596 70.8788C112.781 75.4336 116.832 79.8418 120.678 83.6887C139.082 102.099 191.414 146.503 291.515 150.274C291.717 150.281 291.875 150.452 291.868 150.655C291.86 150.857 291.69 151.016 291.487 151.008C191.152 147.228 138.654 102.71 120.158 84.2082C116.301 80.3492 112.237 75.9265 108.051 71.371C107.1 70.3358 106.142 69.2937 105.179 68.2498C99.9758 62.608 94.6132 56.9096 89.2287 51.9284C83.8425 46.9456 78.4489 42.6943 73.1866 39.9376Z" fill="#1E1E1E"/>
<path d="M190.199 177.446L190.033 177.667C187.854 176.425 186.668 174.093 186.668 171.748C186.668 169.196 187.868 167.209 190.075 165.898L190.199 166.119C188.282 167.761 187.854 169.044 187.854 171.707C187.854 174.273 188.268 175.832 190.199 177.446Z" fill="#1E1E1E"/>
<path d="M208.965 166.119L209.131 165.898C211.241 167.168 212.496 169.472 212.496 171.817C212.496 174.369 211.283 176.328 209.09 177.667L208.965 177.446C210.924 175.832 211.31 174.535 211.31 171.858C211.31 169.278 210.965 167.692 208.965 166.119Z" fill="#1E1E1E"/>
<path fill-rule="evenodd" clip-rule="evenodd" d="M199.209 163.635V133.444H199.944V163.635H199.209Z" fill="#1E1E1E"/>
<path d="M201.74 168.024L198.514 172.446L198.627 172.939C199.247 175.531 199.726 176.319 200.458 176.319C200.866 176.319 201.106 176.192 201.373 175.84L201.599 175.953C201.387 176.756 200.965 177.446 200.19 177.446C199.233 177.446 198.852 176.812 198.388 174.686L198.05 173.179H197.993L195.641 177.404H194.261L194.247 177.178L197.726 172.066L197.529 171.221C197.162 169.672 196.726 168.813 195.853 168.813C195.275 168.813 195.05 169.123 194.825 169.447L194.585 169.306C194.825 168.475 195.303 167.743 196.106 167.743C197.486 167.743 197.895 169.925 198.219 171.376H198.275L200.331 167.855H201.74V168.024Z" fill="#1E1E1E"/>
<path d="M206.375 169.151L206.023 170.939H201.756V170.39L203.192 168.954C204.389 167.827 204.924 167.221 204.924 166.067C204.924 165.348 204.474 164.87 203.643 164.87C202.896 164.87 202.418 165.123 202.037 165.757L201.756 165.602C202.108 164.672 202.84 164.095 203.91 164.095C205.164 164.095 206.051 164.785 206.051 165.954C206.051 166.94 205.291 167.686 204.136 168.785L202.868 170.01V170.08L203.671 170.038H205.009C205.615 170.038 205.727 169.799 205.995 169.151H206.375Z" fill="#1E1E1E"/>
</svg>
