<svg width="312" height="178" viewBox="0 0 312 178" fill="none" xmlns="http://www.w3.org/2000/svg">
<path fill-rule="evenodd" clip-rule="evenodd" d="M0.394531 158.622H311.609V0.390625H0.394531V158.622Z" fill="white"/>
<path fill-rule="evenodd" clip-rule="evenodd" d="M27.4922 158.45C66.7243 152.578 97.0109 115.538 114.804 71.8436L129.61 36.0313C129.61 36.0313 139.822 10.1816 154.354 10.1816C168.886 10.1816 173.599 19.5815 178.705 28.1982C183.811 36.8149 196.379 69.7141 196.379 69.7141V158.45H27.4922Z" fill="#B2B2B2"/>
<path fill-rule="evenodd" clip-rule="evenodd" d="M0 0H312V159.014H0V0ZM0.785522 0.783322V158.231H311.214V0.783322H0.785522Z" fill="#1E1E1E"/>
<path fill-rule="evenodd" clip-rule="evenodd" d="M119.246 62.1999C118.428 64.2637 117.587 66.3846 116.721 68.5616C93.1295 127.811 55.694 159.002 20.1045 159.002V158.219C55.2119 158.219 92.4453 127.407 115.991 68.2725C116.857 66.0955 117.698 63.9732 118.517 61.9067C124.665 46.393 129.565 34.0263 134.771 25.2744C140.678 15.343 147.047 9.95063 156.179 9.95063V10.734C147.457 10.734 141.297 15.8383 135.447 25.674C130.275 34.368 125.401 46.6685 119.246 62.1999Z" fill="#1E1E1E"/>
<path fill-rule="evenodd" clip-rule="evenodd" d="M193.981 62.7245C194.698 64.532 195.432 66.3816 196.185 68.2725C219.732 127.412 255.539 158.231 291.706 158.231V159.014C255.05 159.014 219.044 127.806 195.455 68.5616C194.703 66.6741 193.971 64.8288 193.256 63.0263C186.938 47.105 181.945 34.522 176.663 25.6745C170.79 15.8374 164.629 10.734 155.997 10.734V9.95063C165.041 9.95063 171.41 15.3439 177.338 25.2738C182.655 34.1792 187.673 46.8264 193.981 62.7245Z" fill="#1E1E1E"/>
<path fill-rule="evenodd" clip-rule="evenodd" d="M195.988 166.034V70.1073H196.773V166.034H195.988Z" fill="#1E1E1E"/>
<path d="M40.9745 36.1357V35.6422H41.1277C41.3084 35.6422 41.4694 35.6226 41.6108 35.5835C41.76 35.5443 41.8779 35.466 41.9643 35.3485C42.0507 35.2231 42.0939 35.0391 42.0939 34.7962V29.0388C42.0939 28.8038 42.0468 28.6315 41.9525 28.5218C41.8661 28.4043 41.7483 28.3299 41.599 28.2986C41.4576 28.2594 41.3005 28.2398 41.1277 28.2398H40.9745V27.7463H44.2855C45.2752 27.7463 46.0058 27.9657 46.4771 28.4043C46.9484 28.8351 47.1841 29.4344 47.1841 30.202C47.1841 30.5545 47.1291 30.8914 47.0191 31.2125C46.9091 31.5259 46.7285 31.8079 46.4771 32.0585C46.2336 32.3092 45.9076 32.5089 45.4991 32.6578C45.0985 32.7988 44.6076 32.8693 44.0263 32.8693H43.284V34.855C43.284 35.0821 43.3272 35.2545 43.4136 35.372C43.5078 35.4816 43.6257 35.556 43.767 35.5952C43.9163 35.6265 44.0773 35.6422 44.2501 35.6422H44.639V36.1357H40.9745ZM43.9084 32.317C44.2619 32.317 44.5644 32.2818 44.8157 32.2113C45.0749 32.1329 45.2831 32.0115 45.4402 31.847C45.6052 31.6825 45.723 31.471 45.7937 31.2125C45.8722 30.9462 45.9115 30.625 45.9115 30.249C45.9115 29.5911 45.7741 29.1054 45.4991 28.7921C45.2242 28.4709 44.7529 28.3103 44.0852 28.3103H43.284V32.317H43.9084Z" fill="#1E1E1E"/>
<path d="M48.0267 36.1357V35.6422H48.0621C48.2427 35.6422 48.4038 35.6226 48.5452 35.5835C48.6944 35.5443 48.8122 35.466 48.8987 35.3485C48.9851 35.2231 49.0283 35.0391 49.0283 34.7962V31.1303C49.0283 30.8953 48.9811 30.723 48.8869 30.6133C48.8005 30.4958 48.6826 30.4214 48.5334 30.39C48.392 30.3509 48.2349 30.3313 48.0621 30.3313H48.0267V29.8378H49.8413L50.0652 31.001H50.1241C50.2262 30.766 50.3362 30.5506 50.454 30.3548C50.5718 30.159 50.7289 30.0062 50.9253 29.8966C51.1217 29.7791 51.3927 29.7203 51.7383 29.7203C52.1704 29.7203 52.4885 29.7947 52.6927 29.9435C52.9048 30.0924 53.0109 30.3039 53.0109 30.578C53.0109 30.8209 52.9245 31.0206 52.7516 31.1773C52.5867 31.3339 52.3078 31.4123 51.9151 31.4123C51.9151 31.1929 51.8954 31.0167 51.8561 30.8835C51.8169 30.7504 51.7501 30.6525 51.6558 30.5898C51.5694 30.5271 51.4477 30.4958 51.2906 30.4958C51.0706 30.4958 50.886 30.582 50.7368 30.7543C50.5875 30.9266 50.4697 31.1459 50.3833 31.4123C50.2969 31.6786 50.234 31.9567 50.1948 32.2465C50.1555 32.5285 50.1358 32.7831 50.1358 33.0103V34.855C50.1358 35.0821 50.1791 35.2545 50.2655 35.372C50.3597 35.4816 50.4776 35.556 50.6189 35.5952C50.7682 35.6265 50.9292 35.6422 51.102 35.6422H51.432V36.1357H48.0267Z" fill="#1E1E1E"/>
<path d="M56.5658 36.2532C55.7174 36.2532 55.0497 35.983 54.5627 35.4425C54.0757 34.902 53.8322 34.0795 53.8322 32.975C53.8322 31.8784 54.0639 31.0637 54.5273 30.531C54.9987 29.9905 55.6899 29.7203 56.6011 29.7203C57.4495 29.7203 58.1172 29.9905 58.6042 30.531C59.0912 31.0637 59.3347 31.8784 59.3347 32.975C59.3347 34.0795 59.0991 34.902 58.6278 35.4425C58.1643 35.983 57.477 36.2532 56.5658 36.2532ZM56.5893 35.6422C56.9821 35.6422 57.2963 35.5443 57.532 35.3485C57.7676 35.1448 57.9365 34.8432 58.0386 34.4437C58.1407 34.0442 58.1918 33.5547 58.1918 32.975C58.1918 32.0977 58.0701 31.4397 57.8265 31.001C57.583 30.5624 57.1667 30.343 56.5776 30.343C55.9884 30.343 55.5721 30.5624 55.3286 31.001C55.0929 31.4397 54.9751 32.0977 54.9751 32.975C54.9751 33.8523 55.0968 34.5181 55.3404 34.9725C55.5839 35.419 56.0002 35.6422 56.5893 35.6422Z" fill="#1E1E1E"/>
<path d="M64.1674 36.2532C63.7118 36.2532 63.3387 36.1592 63.0481 35.9712C62.7653 35.7754 62.5375 35.5247 62.3647 35.2192H62.294L62.0819 36.1357H60.1966V35.6422H60.2909C60.4716 35.6422 60.6326 35.6226 60.774 35.5835C60.9232 35.5443 61.0411 35.466 61.1275 35.3485C61.2139 35.2231 61.2571 35.0391 61.2571 34.7962V28.4983C61.2571 28.2633 61.21 28.091 61.1157 27.9813C61.0293 27.8638 60.9115 27.7894 60.7622 27.7581C60.6208 27.7189 60.4637 27.6993 60.2909 27.6993H60.1966V27.2058H62.3647V29.3678C62.3647 29.501 62.3607 29.6733 62.3529 29.8848C62.3529 30.0885 62.349 30.2882 62.3411 30.484C62.3333 30.672 62.3254 30.8091 62.3176 30.8953H62.3647C62.5453 30.535 62.7771 30.249 63.0599 30.0375C63.3426 29.826 63.7118 29.7203 64.1674 29.7203C64.9451 29.7203 65.5382 29.9827 65.9467 30.5075C66.363 31.0245 66.5711 31.847 66.5711 32.975C66.5711 33.727 66.4769 34.3458 66.2884 34.8315C66.1077 35.3171 65.8367 35.6775 65.4753 35.9125C65.1219 36.1396 64.6859 36.2532 64.1674 36.2532ZM63.9789 35.5012C64.4974 35.5012 64.8666 35.2858 65.0865 34.855C65.3143 34.4163 65.4282 33.7857 65.4282 32.9633C65.4282 32.1251 65.3143 31.5024 65.0865 31.095C64.8666 30.6799 64.4934 30.4723 63.9671 30.4723C63.3544 30.4723 62.9342 30.6799 62.7064 31.095C62.4786 31.5024 62.3647 32.129 62.3647 32.975C62.3647 33.5155 62.4118 33.9737 62.5061 34.3497C62.6082 34.7257 62.7771 35.0116 63.0127 35.2075C63.2484 35.4033 63.5705 35.5012 63.9789 35.5012Z" fill="#1E1E1E"/>
<path d="M69.6377 36.2532C69.2921 36.2532 68.9779 36.1866 68.6951 36.0535C68.4202 35.9125 68.2041 35.7049 68.047 35.4307C67.8899 35.1487 67.8114 34.7962 67.8114 34.3732C67.8114 33.7466 68.0313 33.2844 68.4712 32.9868C68.919 32.6891 69.5945 32.5246 70.4979 32.4933L71.4758 32.458V31.753C71.4758 31.471 71.4523 31.2243 71.4051 31.0128C71.358 30.7935 71.2559 30.6211 71.0988 30.4958C70.9417 30.3705 70.7021 30.3078 70.38 30.3078C70.0815 30.3078 69.8537 30.3626 69.6966 30.4723C69.5395 30.582 69.4335 30.7347 69.3785 30.9305C69.3314 31.1185 69.3078 31.3379 69.3078 31.5885C68.9779 31.5885 68.7265 31.5337 68.5537 31.424C68.3887 31.3065 68.3063 31.1146 68.3063 30.8483C68.3063 30.5741 68.4005 30.3548 68.5891 30.1903C68.7854 30.0258 69.0447 29.9083 69.3667 29.8378C69.6888 29.7595 70.0423 29.7203 70.4272 29.7203C71.1499 29.7203 71.6879 29.8731 72.0414 30.1785C72.4028 30.484 72.5834 31.0089 72.5834 31.753V34.7962C72.5834 35.0156 72.607 35.1879 72.6541 35.3132C72.7013 35.4307 72.7798 35.5169 72.8898 35.5717C72.9998 35.6187 73.1412 35.6422 73.314 35.6422H73.3493V36.1357H71.7586L71.5701 35.1252H71.4758C71.3109 35.3446 71.1499 35.5404 70.9928 35.7127C70.8356 35.8772 70.651 36.0104 70.439 36.1122C70.2347 36.2062 69.9676 36.2532 69.6377 36.2532ZM69.9087 35.5247C70.2308 35.5247 70.5057 35.4581 70.7335 35.325C70.9692 35.1918 71.1499 35.0038 71.2755 34.761C71.4091 34.5103 71.4758 34.2205 71.4758 33.8915V32.9398L70.7217 32.975C70.274 32.9907 69.9205 33.0573 69.6613 33.1748C69.4099 33.2923 69.2293 33.4567 69.1193 33.6682C69.0093 33.8719 68.9543 34.1265 68.9543 34.432C68.9543 34.6748 68.9897 34.8785 69.0604 35.043C69.1311 35.1996 69.2371 35.3211 69.3785 35.4072C69.5199 35.4855 69.6966 35.5247 69.9087 35.5247Z" fill="#1E1E1E"/>
<path d="M78.0445 36.2532C77.5889 36.2532 77.2158 36.1592 76.9251 35.9712C76.6423 35.7754 76.4145 35.5247 76.2417 35.2192H76.171L75.9589 36.1357H74.0737V35.6422H74.1679C74.3486 35.6422 74.5096 35.6226 74.651 35.5835C74.8003 35.5443 74.9181 35.466 75.0045 35.3485C75.0909 35.2231 75.1341 35.0391 75.1341 34.7962V28.4983C75.1341 28.2633 75.087 28.091 74.9927 27.9813C74.9063 27.8638 74.7885 27.7894 74.6393 27.7581C74.4979 27.7189 74.3408 27.6993 74.1679 27.6993H74.0737V27.2058H76.2417V29.3678C76.2417 29.501 76.2378 29.6733 76.2299 29.8848C76.2299 30.0885 76.226 30.2882 76.2182 30.484C76.2103 30.672 76.2024 30.8091 76.1946 30.8953H76.2417C76.4224 30.535 76.6541 30.249 76.9369 30.0375C77.2197 29.826 77.5889 29.7203 78.0445 29.7203C78.8222 29.7203 79.4152 29.9827 79.8237 30.5075C80.24 31.0245 80.4482 31.847 80.4482 32.975C80.4482 33.727 80.3539 34.3458 80.1654 34.8315C79.9847 35.3171 79.7137 35.6775 79.3524 35.9125C78.9989 36.1396 78.5629 36.2532 78.0445 36.2532ZM77.856 35.5012C78.3744 35.5012 78.7436 35.2858 78.9635 34.855C79.1913 34.4163 79.3053 33.7857 79.3053 32.9633C79.3053 32.1251 79.1913 31.5024 78.9635 31.095C78.7436 30.6799 78.3705 30.4723 77.8442 30.4723C77.2315 30.4723 76.8112 30.6799 76.5834 31.095C76.3556 31.5024 76.2417 32.129 76.2417 32.975C76.2417 33.5155 76.2888 33.9737 76.3831 34.3497C76.4852 34.7257 76.6541 35.0116 76.8898 35.2075C77.1254 35.4033 77.4475 35.5012 77.856 35.5012Z" fill="#1E1E1E"/>
<path d="M81.3703 36.1357V35.6422H81.5235C81.6963 35.6422 81.8534 35.6265 81.9948 35.5952C82.144 35.556 82.2619 35.4816 82.3483 35.372C82.4425 35.2545 82.4897 35.0821 82.4897 34.855V31.1303C82.4897 30.8953 82.4425 30.723 82.3483 30.6133C82.2619 30.4958 82.144 30.4214 81.9948 30.39C81.8534 30.3509 81.6963 30.3313 81.5235 30.3313H81.4881V29.8378H83.5972V34.7962C83.5972 35.0391 83.6404 35.2231 83.7269 35.3485C83.8133 35.466 83.9311 35.5443 84.0803 35.5835C84.2296 35.6226 84.3906 35.6422 84.5634 35.6422H84.7166V36.1357H81.3703ZM82.9963 28.6628C82.8078 28.6628 82.6468 28.608 82.5132 28.4983C82.3875 28.3887 82.3247 28.2007 82.3247 27.9343C82.3247 27.6602 82.3875 27.4722 82.5132 27.3703C82.6468 27.2607 82.8078 27.2058 82.9963 27.2058C83.177 27.2058 83.3341 27.2607 83.4676 27.3703C83.6012 27.4722 83.6679 27.6602 83.6679 27.9343C83.6679 28.2007 83.6012 28.3887 83.4676 28.4983C83.3341 28.608 83.177 28.6628 82.9963 28.6628Z" fill="#1E1E1E"/>
<path d="M85.0266 36.1357V35.6422H85.1798C85.3605 35.6422 85.5215 35.6226 85.6629 35.5835C85.8122 35.5443 85.93 35.466 86.0164 35.3485C86.1028 35.2231 86.146 35.0391 86.146 34.7962V28.4983C86.146 28.2633 86.0989 28.091 86.0046 27.9813C85.9182 27.8638 85.8004 27.7894 85.6511 27.7581C85.5097 27.7189 85.3526 27.6993 85.1798 27.6993H85.0266V27.2058H87.2536V34.7962C87.2536 35.0391 87.2968 35.2231 87.3832 35.3485C87.4696 35.466 87.5875 35.5443 87.7367 35.5835C87.886 35.6226 88.047 35.6422 88.2198 35.6422H88.373V36.1357H85.0266Z" fill="#1E1E1E"/>
<path d="M88.7921 36.1357V35.6422H88.9453C89.1181 35.6422 89.2752 35.6265 89.4166 35.5952C89.5658 35.556 89.6837 35.4816 89.7701 35.372C89.8643 35.2545 89.9115 35.0821 89.9115 34.855V31.1303C89.9115 30.8953 89.8643 30.723 89.7701 30.6133C89.6837 30.4958 89.5658 30.4214 89.4166 30.39C89.2752 30.3509 89.1181 30.3313 88.9453 30.3313H88.9099V29.8378H91.019V34.7962C91.019 35.0391 91.0623 35.2231 91.1487 35.3485C91.2351 35.466 91.3529 35.5443 91.5021 35.5835C91.6514 35.6226 91.8124 35.6422 91.9852 35.6422H92.1384V36.1357H88.7921ZM90.4181 28.6628C90.2296 28.6628 90.0686 28.608 89.935 28.4983C89.8093 28.3887 89.7465 28.2007 89.7465 27.9343C89.7465 27.6602 89.8093 27.4722 89.935 27.3703C90.0686 27.2607 90.2296 27.2058 90.4181 27.2058C90.5988 27.2058 90.7559 27.2607 90.8894 27.3703C91.023 27.4722 91.0897 27.6602 91.0897 27.9343C91.0897 28.2007 91.023 28.3887 90.8894 28.4983C90.7559 28.608 90.5988 28.6628 90.4181 28.6628Z" fill="#1E1E1E"/>
<path d="M95.1232 36.2532C94.5262 36.2532 94.0902 36.12 93.8153 35.8537C93.5482 35.5795 93.4146 35.1056 93.4146 34.432V30.5075H92.5191V30.0375C92.6605 30.0375 92.8176 30.0101 92.9905 29.9553C93.1633 29.8926 93.3125 29.7947 93.4382 29.6616C93.5717 29.5206 93.6817 29.3482 93.7681 29.1446C93.8545 28.9409 93.9252 28.6902 93.9802 28.3926H94.5222V29.8378H96.0658V30.5075H94.5222V34.4672C94.5222 34.8667 94.6047 35.1605 94.7697 35.3485C94.9346 35.5365 95.1506 35.6305 95.4177 35.6305C95.5591 35.6305 95.6887 35.6226 95.8066 35.607C95.9244 35.5913 96.0461 35.5717 96.1718 35.5482V36.0652C96.0697 36.1122 95.9165 36.1553 95.7123 36.1945C95.5081 36.2336 95.3117 36.2532 95.1232 36.2532Z" fill="#1E1E1E"/>
<path d="M96.8854 38.4034C97.286 38.4034 97.6317 38.3447 97.9223 38.2272C98.213 38.1097 98.4604 37.9452 98.6646 37.7337C98.8689 37.53 99.0417 37.2872 99.1831 37.0052C99.3245 36.7232 99.4423 36.4177 99.5366 36.0887L97.3567 30.954C97.286 30.7895 97.2153 30.6642 97.1446 30.578C97.0739 30.484 96.9915 30.4214 96.8972 30.39C96.8029 30.3509 96.6773 30.3313 96.5202 30.3313H96.4848V29.8378H99.3127V30.3313H99.2773C99.0417 30.3313 98.8649 30.3783 98.7471 30.4723C98.6293 30.5585 98.5704 30.6995 98.5704 30.8953C98.5704 30.9579 98.5782 31.0245 98.5939 31.095C98.6096 31.1655 98.6332 31.2439 98.6646 31.33L99.5248 33.4215C99.6033 33.6017 99.6779 33.8014 99.7486 34.0207C99.8272 34.2322 99.8979 34.4359 99.9607 34.6317C100.024 34.8276 100.067 34.9921 100.09 35.1252C100.145 34.8981 100.216 34.6631 100.302 34.4202C100.397 34.1774 100.483 33.9385 100.562 33.7035L101.351 31.4123C101.39 31.3183 101.418 31.2282 101.434 31.142C101.449 31.048 101.457 30.9697 101.457 30.907C101.457 30.7034 101.39 30.5585 101.257 30.4723C101.131 30.3783 100.939 30.3313 100.679 30.3313H100.644V29.8378H103.095V30.3313H103.06C102.91 30.3313 102.785 30.3548 102.683 30.4018C102.58 30.4488 102.49 30.5389 102.412 30.672C102.341 30.8052 102.258 30.9971 102.164 31.2478L100.373 36.1827C100.169 36.7545 99.9725 37.2206 99.784 37.5809C99.5955 37.9413 99.3834 38.2193 99.1477 38.4152C98.9199 38.6188 98.6332 38.7598 98.2876 38.8382C97.942 38.9165 97.5099 38.9557 96.9915 38.9557H96.8854V38.4034Z" fill="#1E1E1E"/>
<path d="M199.255 168.564L193.766 175.082C194.868 175.328 195.285 175.537 196.045 176.655C196.539 177.375 196.9 177.602 197.374 177.602C197.678 177.602 197.887 177.488 197.887 177.318C197.887 177.242 197.849 177.147 197.792 177.034C197.678 176.806 197.64 176.655 197.64 176.503C197.659 176.181 197.963 175.859 198.267 175.859C198.666 175.859 198.932 176.143 198.932 176.56C198.932 177.318 198.229 178 197.166 178C196.615 178 195.969 177.754 195.02 177.166C194.127 176.617 193.519 176.371 193.026 176.371C192.722 176.371 192.475 176.465 192.171 176.712L192 176.541L197.887 169.493H195.304C194.317 169.493 193.956 169.663 193.576 170.63L193.272 170.554L193.88 168.356H199.255V168.564Z" fill="#1E1E1E"/>
<path fill-rule="evenodd" clip-rule="evenodd" d="M140.665 75.0438L130.34 73.231L132.972 67.963L140.665 75.0438Z" fill="#1E1E1E"/>
<path fill-rule="evenodd" clip-rule="evenodd" d="M135.282 72.8822L71.7656 39.9116L72.1283 39.2168L135.645 72.1873L135.282 72.8822Z" fill="#1E1E1E"/>
</svg>
