<svg width="288" height="164" viewBox="0 0 288 164" fill="none" xmlns="http://www.w3.org/2000/svg">
<path fill-rule="evenodd" clip-rule="evenodd" d="M0.339844 146.723H287.661V0.339844H0.339844V146.723Z" fill="white"/>
<path fill-rule="evenodd" clip-rule="evenodd" d="M187.715 147.4L187.934 96.3418C187.934 96.3418 194.42 105.027 197.684 108.646C200.948 112.265 207.118 118.207 212.556 122.398C217.993 126.59 229.606 134.492 240.848 137.598C252.089 140.704 256.442 141.215 259.753 141.215V146.556L188.937 147.189" fill="#B2B2B2"/>
<path fill-rule="evenodd" clip-rule="evenodd" d="M187.383 152.882L187.491 95.8281L188.17 95.8308L188.062 152.884L187.383 152.882Z" fill="#1E1E1E"/>
<path fill-rule="evenodd" clip-rule="evenodd" d="M197.133 139.657L205.583 134.916L201.669 131.121L197.133 139.657Z" fill="#1E1E1E"/>
<path fill-rule="evenodd" clip-rule="evenodd" d="M200.426 135.334L232.353 100.848L232.852 101.307L200.925 135.794L200.426 135.334Z" fill="#1E1E1E"/>
<path d="M186.669 164C186.352 164 186.117 163.923 185.963 163.771C185.81 163.618 185.733 163.424 185.733 163.189C185.733 163.057 185.749 162.898 185.779 162.715C185.81 162.521 185.83 162.389 185.841 162.317L186.883 157.315H186.009L186.071 156.993C186.398 156.82 186.669 156.652 186.883 156.488C187.108 156.325 187.318 156.111 187.512 155.846C187.716 155.581 187.946 155.229 188.202 154.79H188.662L187.205 161.873C187.205 161.873 187.185 161.97 187.144 162.164C187.113 162.348 187.098 162.506 187.098 162.638C187.098 162.72 187.113 162.797 187.144 162.868C187.185 162.929 187.256 162.96 187.359 162.96C187.583 162.96 187.788 162.893 187.972 162.761C188.166 162.628 188.396 162.389 188.662 162.042L188.969 162.271C188.825 162.465 188.652 162.7 188.447 162.975C188.243 163.25 187.997 163.49 187.711 163.694C187.425 163.898 187.077 164 186.669 164ZM189.659 157.315H187.957L188.079 156.718H189.781L189.659 157.315Z" fill="#1E1E1E"/>
<path d="M194.761 155.417L192.786 154.83L193.087 153.845L195.062 154.576L195.003 152.331H196.003L195.938 154.608L197.88 153.891L198.181 154.882L196.173 155.476L197.468 157.244L196.657 157.857L195.441 155.978L194.264 157.811L193.446 157.218L194.761 155.417Z" fill="#1E1E1E"/>
<path fill-rule="evenodd" clip-rule="evenodd" d="M115.901 66.5967C114.99 68.8863 114.031 71.2966 113.018 73.8333C105.306 93.1396 95.059 108.972 81.6003 120.427C68.1378 131.885 51.479 138.948 30.9738 140.736C30.7869 140.753 30.6222 140.615 30.6058 140.428C30.5895 140.242 30.7277 140.078 30.9146 140.061C51.2883 138.284 67.8113 131.272 81.1595 119.912C94.5115 108.548 104.704 92.8182 112.387 73.5824C113.4 71.0445 114.361 68.6319 115.273 66.3389C121.544 50.5816 125.567 40.4732 129.257 34.1805C131.374 30.5695 133.402 28.178 135.712 26.6942C138.03 25.2058 140.599 24.6527 143.753 24.6527C143.941 24.6527 144.093 24.8044 144.093 24.9915C144.093 25.1787 143.941 25.3304 143.753 25.3304C140.683 25.3304 138.255 25.8675 136.08 27.2641C133.897 28.6655 131.936 30.9539 129.843 34.5227C126.181 40.7674 122.181 50.8189 115.901 66.5967Z" fill="#231F20"/>
<path fill-rule="evenodd" clip-rule="evenodd" d="M143.414 24.9915C143.414 24.8043 143.566 24.6527 143.753 24.6527C147.243 24.6527 150.066 25.6392 152.559 27.6555C155.04 29.6622 157.177 32.6753 159.334 36.6972C161.492 40.7208 163.685 45.7837 166.262 51.9106C166.728 53.0182 167.206 54.1609 167.7 55.3388C169.937 60.6813 172.479 66.7497 175.521 73.57C192.667 112.007 224.448 138.389 259.778 141.151C259.965 141.165 260.104 141.328 260.09 141.515C260.075 141.701 259.911 141.841 259.724 141.826C224.081 139.04 192.118 112.442 174.9 73.8456C171.855 67.0174 169.31 60.9406 167.072 55.5978C166.579 54.4206 166.101 53.279 165.635 52.1728C163.057 46.0422 160.876 41.0082 158.735 37.0169C156.594 33.0239 154.508 30.1043 152.131 28.1819C149.766 26.2691 147.097 25.3304 143.753 25.3304C143.566 25.3304 143.414 25.1786 143.414 24.9915Z" fill="#231F20"/>
<path fill-rule="evenodd" clip-rule="evenodd" d="M0 0H288V147.06H0V0ZM0.679245 0.677698V146.383H287.321V0.677698H0.679245Z" fill="#1E1E1E"/>
<path d="M200.308 93.9018V93.4458H200.449C200.616 93.4458 200.765 93.4277 200.895 93.3915C201.033 93.3553 201.142 93.283 201.222 93.1744C201.302 93.0586 201.341 92.8885 201.341 92.6641V87.3443C201.341 87.1271 201.298 86.9679 201.211 86.8666C201.131 86.758 201.022 86.6893 200.884 86.6603C200.754 86.6241 200.609 86.606 200.449 86.606H200.308V86.15H203.365C204.279 86.15 204.954 86.3527 205.389 86.758C205.825 87.1561 206.042 87.7098 206.042 88.4191C206.042 88.7448 205.992 89.056 205.89 89.3528C205.788 89.6423 205.622 89.9029 205.389 90.1345C205.165 90.3661 204.863 90.5507 204.486 90.6882C204.116 90.8185 203.663 90.8836 203.126 90.8836H202.44V92.7184C202.44 92.9283 202.48 93.0875 202.56 93.1961C202.647 93.2974 202.756 93.3662 202.887 93.4024C203.024 93.4313 203.173 93.4458 203.333 93.4458H203.692V93.9018H200.308ZM203.017 90.3733C203.344 90.3733 203.623 90.3408 203.855 90.2756C204.094 90.2033 204.287 90.0911 204.432 89.9391C204.584 89.7871 204.693 89.5917 204.758 89.3528C204.831 89.1067 204.867 88.81 204.867 88.4625C204.867 87.8546 204.74 87.4058 204.486 87.1163C204.232 86.8195 203.797 86.6712 203.18 86.6712H202.44V90.3733H203.017Z" fill="#1E1E1E"/>
<path d="M206.821 93.9018V93.4458H206.853C207.02 93.4458 207.169 93.4277 207.299 93.3915C207.437 93.3553 207.546 93.283 207.626 93.1744C207.706 93.0586 207.745 92.8885 207.745 92.6641V89.2768C207.745 89.0597 207.702 88.9004 207.615 88.7991C207.535 88.6905 207.426 88.6218 207.288 88.5928C207.158 88.5566 207.013 88.5385 206.853 88.5385H206.821V88.0825H208.496L208.703 89.1574H208.757C208.852 88.9402 208.953 88.7412 209.062 88.5603C209.171 88.3793 209.316 88.2382 209.497 88.1368C209.679 88.0283 209.929 87.974 210.248 87.974C210.647 87.974 210.941 88.0427 211.13 88.1803C211.325 88.3178 211.423 88.5132 211.423 88.7665C211.423 88.9909 211.344 89.1755 211.184 89.3202C211.032 89.465 210.774 89.5374 210.411 89.5374C210.411 89.3347 210.393 89.1719 210.357 89.0488C210.321 88.9258 210.259 88.8353 210.172 88.7774C210.092 88.7195 209.98 88.6905 209.835 88.6905C209.632 88.6905 209.461 88.7701 209.323 88.9294C209.185 89.0886 209.077 89.2913 208.997 89.5374C208.917 89.7835 208.859 90.0404 208.823 90.3082C208.786 90.5688 208.768 90.804 208.768 91.0139V92.7184C208.768 92.9283 208.808 93.0875 208.888 93.1961C208.975 93.2974 209.084 93.3662 209.214 93.4024C209.352 93.4313 209.501 93.4458 209.661 93.4458H209.965V93.9018H206.821Z" fill="#1E1E1E"/>
<path d="M214.706 94.0104C213.923 94.0104 213.306 93.7607 212.857 93.2613C212.407 92.7618 212.182 92.0019 212.182 90.9813C212.182 89.968 212.396 89.2153 212.824 88.7231C213.259 88.2237 213.898 87.974 214.739 87.974C215.523 87.974 216.139 88.2237 216.589 88.7231C217.039 89.2153 217.264 89.968 217.264 90.9813C217.264 92.0019 217.046 92.7618 216.611 93.2613C216.183 93.7607 215.548 94.0104 214.706 94.0104ZM214.728 93.4458C215.091 93.4458 215.381 93.3553 215.599 93.1744C215.816 92.9862 215.972 92.7076 216.067 92.3384C216.161 91.9693 216.208 91.5169 216.208 90.9813C216.208 90.1707 216.096 89.5627 215.871 89.1574C215.646 88.752 215.261 88.5494 214.717 88.5494C214.173 88.5494 213.789 88.752 213.564 89.1574C213.346 89.5627 213.237 90.1707 213.237 90.9813C213.237 91.792 213.35 92.4072 213.575 92.827C213.8 93.2395 214.184 93.4458 214.728 93.4458Z" fill="#1E1E1E"/>
<path d="M221.727 94.0104C221.306 94.0104 220.961 93.9235 220.693 93.7498C220.432 93.5689 220.221 93.3373 220.062 93.055H219.997L219.801 93.9018H218.06V93.4458H218.147C218.313 93.4458 218.462 93.4277 218.593 93.3915C218.731 93.3553 218.839 93.283 218.919 93.1744C218.999 93.0586 219.039 92.8885 219.039 92.6641V86.8449C219.039 86.6277 218.995 86.4685 218.908 86.3672C218.829 86.2586 218.72 86.1898 218.582 86.1609C218.451 86.1247 218.306 86.1066 218.147 86.1066H218.06V85.6506H220.062V87.6483C220.062 87.7713 220.058 87.9306 220.051 88.126C220.051 88.3142 220.047 88.4987 220.04 88.6797C220.033 88.8534 220.026 88.98 220.018 89.0597H220.062C220.229 88.7267 220.443 88.4625 220.704 88.2671C220.965 88.0717 221.306 87.974 221.727 87.974C222.445 87.974 222.993 88.2165 223.37 88.7014C223.754 89.1791 223.947 89.9391 223.947 90.9813C223.947 91.6762 223.859 92.248 223.685 92.6967C223.519 93.1455 223.268 93.4784 222.935 93.6955C222.608 93.9054 222.206 94.0104 221.727 94.0104ZM221.553 93.3155C222.031 93.3155 222.372 93.1165 222.575 92.7184C222.786 92.3131 222.891 91.7304 222.891 90.9705C222.891 90.196 222.786 89.6206 222.575 89.2442C222.372 88.8606 222.028 88.6688 221.542 88.6688C220.976 88.6688 220.588 88.8606 220.377 89.2442C220.167 89.6206 220.062 90.1996 220.062 90.9813C220.062 91.4807 220.105 91.9042 220.192 92.2516C220.287 92.599 220.443 92.8632 220.66 93.0441C220.878 93.2251 221.175 93.3155 221.553 93.3155Z" fill="#1E1E1E"/>
<path d="M226.779 94.0104C226.459 94.0104 226.169 93.9489 225.908 93.8258C225.654 93.6955 225.455 93.5037 225.31 93.2504C225.164 92.9898 225.092 92.6641 225.092 92.2733C225.092 91.6943 225.295 91.2672 225.701 90.9922C226.115 90.7171 226.739 90.5651 227.573 90.5362L228.476 90.5036V89.8522C228.476 89.5916 228.454 89.3637 228.411 89.1682C228.367 88.9656 228.273 88.8063 228.128 88.6905C227.983 88.5747 227.762 88.5168 227.464 88.5168C227.188 88.5168 226.978 88.5675 226.833 88.6688C226.688 88.7701 226.59 88.9113 226.539 89.0922C226.496 89.2659 226.474 89.4686 226.474 89.7002C226.169 89.7002 225.937 89.6496 225.777 89.5482C225.625 89.4397 225.549 89.2623 225.549 89.0162C225.549 88.7629 225.636 88.5603 225.81 88.4083C225.991 88.2563 226.231 88.1477 226.528 88.0825C226.826 88.0102 227.152 87.974 227.508 87.974C228.175 87.974 228.672 88.1151 228.998 88.3974C229.332 88.6797 229.499 89.1646 229.499 89.8522V92.6641C229.499 92.8668 229.521 93.026 229.564 93.1418C229.608 93.2504 229.68 93.33 229.782 93.3807C229.883 93.4241 230.014 93.4458 230.174 93.4458H230.206V93.9018H228.737L228.563 92.9681H228.476C228.324 93.1708 228.175 93.3517 228.03 93.511C227.885 93.663 227.714 93.786 227.519 93.8801C227.33 93.967 227.083 94.0104 226.779 94.0104ZM227.029 93.3373C227.326 93.3373 227.58 93.2757 227.791 93.1527C228.008 93.0297 228.175 92.8559 228.291 92.6316C228.414 92.3999 228.476 92.1321 228.476 91.8282V90.9488L227.78 90.9813C227.366 90.9958 227.04 91.0573 226.8 91.1659C226.568 91.2745 226.401 91.4265 226.3 91.6219C226.198 91.8101 226.147 92.0453 226.147 92.3276C226.147 92.5519 226.18 92.7401 226.245 92.8921C226.311 93.0369 226.409 93.1491 226.539 93.2287C226.67 93.3011 226.833 93.3373 227.029 93.3373Z" fill="#1E1E1E"/>
<path d="M234.542 94.0104C234.122 94.0104 233.777 93.9235 233.509 93.7498C233.247 93.5689 233.037 93.3373 232.877 93.055H232.812L232.616 93.9018H230.875V93.4458H230.962C231.129 93.4458 231.278 93.4277 231.408 93.3915C231.546 93.3553 231.655 93.283 231.735 93.1744C231.815 93.0586 231.855 92.8885 231.855 92.6641V86.8449C231.855 86.6277 231.811 86.4685 231.724 86.3672C231.644 86.2586 231.535 86.1898 231.398 86.1609C231.267 86.1247 231.122 86.1066 230.962 86.1066H230.875V85.6506H232.877V87.6483C232.877 87.7713 232.874 87.9306 232.867 88.126C232.867 88.3142 232.863 88.4987 232.856 88.6797C232.848 88.8534 232.841 88.98 232.834 89.0597H232.877C233.044 88.7267 233.258 88.4625 233.519 88.2671C233.781 88.0717 234.122 87.974 234.542 87.974C235.261 87.974 235.808 88.2165 236.185 88.7014C236.57 89.1791 236.762 89.9391 236.762 90.9813C236.762 91.6762 236.675 92.248 236.501 92.6967C236.334 93.1455 236.084 93.4784 235.75 93.6955C235.424 93.9054 235.021 94.0104 234.542 94.0104ZM234.368 93.3155C234.847 93.3155 235.188 93.1165 235.391 92.7184C235.601 92.3131 235.707 91.7304 235.707 90.9705C235.707 90.196 235.601 89.6206 235.391 89.2442C235.188 88.8606 234.843 88.6688 234.357 88.6688C233.792 88.6688 233.403 88.8606 233.193 89.2442C232.983 89.6206 232.877 90.1996 232.877 90.9813C232.877 91.4807 232.921 91.9042 233.008 92.2516C233.102 92.599 233.258 92.8632 233.476 93.0441C233.694 93.2251 233.991 93.3155 234.368 93.3155Z" fill="#1E1E1E"/>
<path d="M237.614 93.9018V93.4458H237.755C237.915 93.4458 238.06 93.4313 238.19 93.4024C238.328 93.3662 238.437 93.2974 238.517 93.1961C238.604 93.0875 238.648 92.9283 238.648 92.7184V89.2768C238.648 89.0597 238.604 88.9004 238.517 88.7991C238.437 88.6905 238.328 88.6218 238.19 88.5928C238.06 88.5566 237.915 88.5385 237.755 88.5385H237.723V88.0825H239.67V92.6641C239.67 92.8885 239.71 93.0586 239.79 93.1744C239.87 93.283 239.979 93.3553 240.117 93.3915C240.254 93.4277 240.403 93.4458 240.563 93.4458H240.704V93.9018H237.614ZM239.115 86.9969C238.941 86.9969 238.793 86.9462 238.669 86.8449C238.553 86.7435 238.495 86.5698 238.495 86.3237C238.495 86.0704 238.553 85.8967 238.669 85.8026C238.793 85.7013 238.941 85.6506 239.115 85.6506C239.282 85.6506 239.427 85.7013 239.551 85.8026C239.674 85.8967 239.736 86.0704 239.736 86.3237C239.736 86.5698 239.674 86.7435 239.551 86.8449C239.427 86.9462 239.282 86.9969 239.115 86.9969Z" fill="#1E1E1E"/>
<path d="M240.99 93.9018V93.4458H241.132C241.299 93.4458 241.448 93.4277 241.578 93.3915C241.716 93.3553 241.825 93.283 241.905 93.1744C241.984 93.0586 242.024 92.8885 242.024 92.6641V86.8449C242.024 86.6277 241.981 86.4685 241.894 86.3672C241.814 86.2586 241.705 86.1898 241.567 86.1609C241.437 86.1247 241.292 86.1066 241.132 86.1066H240.99V85.6506H243.047V92.6641C243.047 92.8885 243.087 93.0586 243.167 93.1744C243.247 93.283 243.355 93.3553 243.493 93.3915C243.631 93.4277 243.78 93.4458 243.939 93.4458H244.081V93.9018H240.99Z" fill="#1E1E1E"/>
<path d="M244.468 93.9018V93.4458H244.609C244.769 93.4458 244.914 93.4313 245.045 93.4024C245.182 93.3662 245.291 93.2974 245.371 93.1961C245.458 93.0875 245.502 92.9283 245.502 92.7184V89.2768C245.502 89.0597 245.458 88.9004 245.371 88.7991C245.291 88.6905 245.182 88.6218 245.045 88.5928C244.914 88.5566 244.769 88.5385 244.609 88.5385H244.577V88.0825H246.525V92.6641C246.525 92.8885 246.564 93.0586 246.644 93.1744C246.724 93.283 246.833 93.3553 246.971 93.3915C247.109 93.4277 247.257 93.4458 247.417 93.4458H247.558V93.9018H244.468ZM245.97 86.9969C245.795 86.9969 245.647 86.9462 245.523 86.8449C245.407 86.7435 245.349 86.5698 245.349 86.3237C245.349 86.0704 245.407 85.8967 245.523 85.8026C245.647 85.7013 245.795 85.6506 245.97 85.6506C246.136 85.6506 246.282 85.7013 246.405 85.8026C246.528 85.8967 246.59 86.0704 246.59 86.3237C246.59 86.5698 246.528 86.7435 246.405 86.8449C246.282 86.9462 246.136 86.9969 245.97 86.9969Z" fill="#1E1E1E"/>
<path d="M250.315 94.0104C249.763 94.0104 249.361 93.8873 249.107 93.6412C248.86 93.3879 248.737 92.95 248.737 92.3276V88.7014H247.91V88.2671C248.04 88.2671 248.186 88.2418 248.345 88.1911C248.505 88.1332 248.643 88.0427 248.759 87.9197C248.882 87.7894 248.984 87.6302 249.063 87.442C249.143 87.2538 249.208 87.0222 249.259 86.7472H249.76V88.0825H251.185V88.7014H249.76V92.3601C249.76 92.7293 249.836 93.0007 249.988 93.1744C250.141 93.3481 250.34 93.435 250.587 93.435C250.717 93.435 250.837 93.4277 250.946 93.4133C251.055 93.3988 251.167 93.3807 251.283 93.359V93.8367C251.189 93.8801 251.047 93.9199 250.859 93.9561C250.67 93.9923 250.489 94.0104 250.315 94.0104Z" fill="#1E1E1E"/>
<path d="M251.942 95.9972C252.312 95.9972 252.631 95.9429 252.9 95.8343C253.168 95.7258 253.397 95.5738 253.585 95.3783C253.774 95.1901 253.934 94.9658 254.064 94.7052C254.195 94.4446 254.304 94.1624 254.391 93.8584L252.377 89.114C252.312 88.962 252.247 88.8461 252.182 88.7665C252.116 88.6797 252.04 88.6218 251.953 88.5928C251.866 88.5566 251.75 88.5385 251.605 88.5385H251.572V88.0825H254.184V88.5385H254.151C253.934 88.5385 253.77 88.582 253.662 88.6688C253.553 88.7484 253.498 88.8787 253.498 89.0597C253.498 89.1176 253.506 89.1791 253.52 89.2442C253.535 89.3094 253.556 89.3818 253.585 89.4614L254.38 91.3939C254.452 91.5604 254.521 91.7449 254.586 91.9476C254.659 92.143 254.724 92.3312 254.782 92.5121C254.84 92.6931 254.88 92.8451 254.902 92.9681C254.953 92.7582 255.018 92.5411 255.098 92.3167C255.185 92.0923 255.265 91.8716 255.337 91.6544L256.066 89.5374C256.103 89.4505 256.128 89.3673 256.143 89.2877C256.157 89.2008 256.164 89.1284 256.164 89.0705C256.164 88.8823 256.103 88.7484 255.979 88.6688C255.863 88.582 255.685 88.5385 255.446 88.5385H255.413V88.0825H257.677V88.5385H257.644C257.506 88.5385 257.39 88.5603 257.296 88.6037C257.202 88.6471 257.118 88.7303 257.046 88.8534C256.98 88.9764 256.904 89.1538 256.817 89.3854L255.163 93.9452C254.975 94.4736 254.793 94.9043 254.619 95.2372C254.445 95.5701 254.249 95.8271 254.031 96.008C253.821 96.1962 253.556 96.3265 253.237 96.3989C252.918 96.4713 252.519 96.5074 252.04 96.5074H251.942V95.9972Z" fill="#1E1E1E"/>
<path d="M264.339 88.016L263.939 89.3912C264.683 88.2772 265.469 87.8372 266.296 87.8372C267.316 87.8372 267.881 88.4835 267.881 89.5562C267.881 91.8253 265.8 94.0531 263.787 94.0531C263.47 94.0531 263.181 93.9981 262.836 93.8193C262.602 94.7819 262.285 95.9096 262.285 96.1021C262.285 96.4047 262.492 96.5009 263.14 96.5009V96.721H260.342V96.5009C260.934 96.4872 261.113 96.2809 261.279 95.6346L262.864 89.6937C263.016 89.1436 263.084 88.7861 263.084 88.7173C263.084 88.3873 262.699 88.346 262.478 88.346H262.175L262.147 88.1397L264.297 87.8372C264.339 87.8372 264.366 87.8647 264.366 87.8922C264.366 87.8922 264.353 87.961 264.339 88.016ZM266.641 89.5974C266.641 88.8136 266.406 88.4285 265.786 88.4285C265.055 88.4285 264.242 89.1711 263.925 89.9962C263.526 91.0276 263.029 92.8017 263.029 93.2692C263.029 93.5718 263.305 93.7918 263.691 93.7918C264.421 93.7918 265.083 93.338 265.69 92.4854C266.351 91.564 266.641 90.5601 266.641 89.5974Z" fill="#1E1E1E"/>
</svg>
