<svg width="288" height="164" viewBox="0 0 288 164" fill="none" xmlns="http://www.w3.org/2000/svg">
<path fill-rule="evenodd" clip-rule="evenodd" d="M0 146.628H287.275V0.363281H0V146.628Z" fill="white"/>
<path fill-rule="evenodd" clip-rule="evenodd" d="M25.8086 146.468C59.8882 140.823 88.892 109.518 105.974 66.6044L106.657 65.1562V146.468H25.8086Z" fill="#B2B2B2"/>
<path fill-rule="evenodd" clip-rule="evenodd" d="M0 0H288V146.989H0V0ZM0.725097 0.724082V146.265H287.275V0.724082H0.725097Z" fill="#1E1E1E"/>
<path d="M16.4334 67.6918V67.2356H16.5748C16.7416 67.2356 16.8902 67.2175 17.0207 67.1813C17.1585 67.1451 17.2673 67.0727 17.347 66.9641C17.4268 66.8483 17.4667 66.6781 17.4667 66.4536V61.1316C17.4667 60.9144 17.4232 60.7551 17.3362 60.6537C17.2564 60.5451 17.1476 60.4763 17.0099 60.4474C16.8794 60.4112 16.7343 60.3931 16.5748 60.3931H16.4334V59.9369H19.4897C20.4033 59.9369 21.0777 60.1396 21.5127 60.5451C21.9478 60.9434 22.1653 61.4973 22.1653 62.2069C22.1653 62.5327 22.1146 62.8441 22.013 63.1409C21.9115 63.4306 21.7448 63.6912 21.5127 63.923C21.2879 64.1547 20.987 64.3393 20.61 64.4769C20.2402 64.6072 19.787 64.6724 19.2504 64.6724H18.5652V66.5079C18.5652 66.7179 18.6051 66.8772 18.6848 66.9858C18.7719 67.0872 18.8806 67.156 19.0111 67.1922C19.1489 67.2211 19.2976 67.2356 19.4571 67.2356H19.816V67.6918H16.4334ZM19.1417 64.1619C19.468 64.1619 19.7471 64.1293 19.9791 64.0641C20.2184 63.9917 20.4106 63.8795 20.5556 63.7275C20.7079 63.5754 20.8166 63.3799 20.8819 63.1409C20.9544 62.8948 20.9907 62.5979 20.9907 62.2503C20.9907 61.6421 20.8638 61.1932 20.61 60.9035C20.3562 60.6067 19.9211 60.4582 19.3048 60.4582H18.5652V64.1619H19.1417Z" fill="#1E1E1E"/>
<path d="M22.9432 67.6918V67.2356H22.9758C23.1426 67.2356 23.2912 67.2175 23.4217 67.1813C23.5595 67.1451 23.6682 67.0727 23.748 66.9641C23.8278 66.8483 23.8677 66.6781 23.8677 66.4536V63.0649C23.8677 62.8477 23.8241 62.6884 23.7371 62.587C23.6574 62.4784 23.5486 62.4096 23.4108 62.3807C23.2803 62.3445 23.1353 62.3263 22.9758 62.3263H22.9432V61.8702H24.6181L24.8248 62.9454H24.8792C24.9734 62.7282 25.0749 62.5291 25.1837 62.3481C25.2925 62.1671 25.4375 62.0259 25.6188 61.9245C25.8 61.8159 26.0502 61.7616 26.3692 61.7616C26.768 61.7616 27.0617 61.8304 27.2502 61.9679C27.446 62.1055 27.5439 62.301 27.5439 62.5544C27.5439 62.7789 27.4641 62.9635 27.3046 63.1084C27.1523 63.2532 26.8949 63.3256 26.5324 63.3256C26.5324 63.1228 26.5143 62.9599 26.478 62.8368C26.4417 62.7137 26.3801 62.6232 26.2931 62.5653C26.2133 62.5074 26.101 62.4784 25.9559 62.4784C25.7529 62.4784 25.5825 62.5581 25.4447 62.7174C25.307 62.8767 25.1982 63.0794 25.1184 63.3256C25.0387 63.5718 24.9807 63.8288 24.9444 64.0967C24.9082 64.3574 24.89 64.5927 24.89 64.8027V66.5079C24.89 66.7179 24.9299 66.8772 25.0097 66.9858C25.0967 67.0872 25.2055 67.156 25.336 67.1922C25.4737 67.2211 25.6224 67.2356 25.7819 67.2356H26.0864V67.6918H22.9432Z" fill="#1E1E1E"/>
<path d="M30.8254 67.8004C30.0423 67.8004 29.4259 67.5506 28.9764 67.051C28.5268 66.5514 28.302 65.7911 28.302 64.7701C28.302 63.7564 28.5159 63.0034 28.9437 62.511C29.3788 62.0114 30.0169 61.7616 30.858 61.7616C31.6411 61.7616 32.2574 62.0114 32.707 62.511C33.1565 63.0034 33.3813 63.7564 33.3813 64.7701C33.3813 65.7911 33.1638 66.5514 32.7287 67.051C32.3009 67.5506 31.6665 67.8004 30.8254 67.8004ZM30.8471 67.2356C31.2097 67.2356 31.4997 67.1451 31.7172 66.9641C31.9348 66.7758 32.0906 66.4971 32.1849 66.1278C32.2792 65.7585 32.3263 65.306 32.3263 64.7701C32.3263 63.9592 32.2139 63.3509 31.9891 62.9454C31.7644 62.54 31.3801 62.3372 30.8362 62.3372C30.2924 62.3372 29.9081 62.54 29.6833 62.9454C29.4658 63.3509 29.357 63.9592 29.357 64.7701C29.357 65.5811 29.4694 66.1966 29.6942 66.6165C29.919 67.0293 30.3033 67.2356 30.8471 67.2356Z" fill="#1E1E1E"/>
<path d="M37.8423 67.8004C37.4217 67.8004 37.0773 67.7135 36.809 67.5397C36.548 67.3587 36.3377 67.127 36.1782 66.8446H36.1129L35.9171 67.6918H34.1769V67.2356H34.2639C34.4307 67.2356 34.5793 67.2175 34.7099 67.1813C34.8476 67.1451 34.9564 67.0727 35.0362 66.9641C35.1159 66.8483 35.1558 66.6781 35.1558 66.4536V60.632C35.1558 60.4148 35.1123 60.2555 35.0253 60.1541C34.9455 60.0455 34.8368 59.9767 34.699 59.9477C34.5685 59.9115 34.4234 59.8934 34.2639 59.8934H34.1769V59.4373H36.1782V61.4357C36.1782 61.5588 36.1746 61.7181 36.1673 61.9136C36.1673 62.1019 36.1637 62.2865 36.1564 62.4675C36.1492 62.6413 36.1419 62.768 36.1347 62.8477H36.1782C36.345 62.5146 36.5589 62.2503 36.8199 62.0548C37.0809 61.8593 37.4217 61.7616 37.8423 61.7616C38.5601 61.7616 39.1076 62.0041 39.4846 62.4893C39.8689 62.9672 40.0611 63.7275 40.0611 64.7701C40.0611 65.4652 39.9741 66.0373 39.8 66.4862C39.6333 66.9351 39.3831 67.2682 39.0496 67.4854C38.7233 67.6954 38.3209 67.8004 37.8423 67.8004ZM37.6683 67.1053C38.1468 67.1053 38.4876 66.9062 38.6907 66.5079C38.9009 66.1024 39.0061 65.5196 39.0061 64.7593C39.0061 63.9845 38.9009 63.4089 38.6907 63.0323C38.4876 62.6486 38.1432 62.4567 37.6574 62.4567C37.0918 62.4567 36.7039 62.6486 36.4936 63.0323C36.2833 63.4089 36.1782 63.9881 36.1782 64.7701C36.1782 65.2697 36.2217 65.6933 36.3087 66.0409C36.403 66.3885 36.5589 66.6527 36.7764 66.8338C36.9939 67.0148 37.2912 67.1053 37.6683 67.1053Z" fill="#1E1E1E"/>
<path d="M42.8918 67.8004C42.5727 67.8004 42.2827 67.7389 42.0216 67.6158C41.7679 67.4854 41.5685 67.2936 41.4234 67.0401C41.2784 66.7795 41.2059 66.4536 41.2059 66.0626C41.2059 65.4834 41.4089 65.0561 41.815 64.781C42.2283 64.5058 42.8519 64.3538 43.6857 64.3248L44.5885 64.2922V63.6406C44.5885 63.3799 44.5667 63.1518 44.5232 62.9563C44.4797 62.7536 44.3855 62.5943 44.2404 62.4784C44.0954 62.3626 43.8743 62.3046 43.577 62.3046C43.3014 62.3046 43.0912 62.3553 42.9461 62.4567C42.8011 62.5581 42.7032 62.6993 42.6525 62.8803C42.609 63.0541 42.5872 63.2568 42.5872 63.4885C42.2827 63.4885 42.0507 63.4378 41.8911 63.3364C41.7389 63.2278 41.6627 63.0504 41.6627 62.8042C41.6627 62.5508 41.7497 62.3481 41.9238 62.196C42.105 62.044 42.3443 61.9353 42.6416 61.8702C42.9389 61.7978 43.2652 61.7616 43.6205 61.7616C44.2876 61.7616 44.7843 61.9028 45.1106 62.1852C45.4441 62.4675 45.6109 62.9527 45.6109 63.6406V66.4536C45.6109 66.6564 45.6326 66.8157 45.6761 66.9315C45.7196 67.0401 45.7922 67.1198 45.8937 67.1705C45.9952 67.2139 46.1257 67.2356 46.2852 67.2356H46.3178V67.6918H44.8495L44.6755 66.7577H44.5885C44.4362 66.9605 44.2876 67.1415 44.1426 67.3008C43.9975 67.4529 43.8271 67.5759 43.6314 67.6701C43.4428 67.757 43.1963 67.8004 42.8918 67.8004ZM43.1419 67.127C43.4392 67.127 43.693 67.0655 43.9033 66.9424C44.1208 66.8193 44.2876 66.6455 44.4036 66.421C44.5269 66.1893 44.5885 65.9214 44.5885 65.6173V64.7375L43.8924 64.7701C43.4791 64.7846 43.1528 64.8462 42.9135 64.9548C42.6815 65.0634 42.5147 65.2154 42.4132 65.4109C42.3117 65.5992 42.2609 65.8345 42.2609 66.1169C42.2609 66.3414 42.2936 66.5297 42.3588 66.6817C42.4241 66.8265 42.522 66.9388 42.6525 67.0184C42.783 67.0908 42.9461 67.127 43.1419 67.127Z" fill="#1E1E1E"/>
<path d="M50.6519 67.8004C50.2313 67.8004 49.8869 67.7135 49.6186 67.5397C49.3576 67.3587 49.1473 67.127 48.9878 66.8446H48.9225L48.7267 67.6918H46.9865V67.2356H47.0735C47.2403 67.2356 47.3889 67.2175 47.5194 67.1813C47.6572 67.1451 47.766 67.0727 47.8457 66.9641C47.9255 66.8483 47.9654 66.6781 47.9654 66.4536V60.632C47.9654 60.4148 47.9219 60.2555 47.8349 60.1541C47.7551 60.0455 47.6463 59.9767 47.5086 59.9477C47.378 59.9115 47.233 59.8934 47.0735 59.8934H46.9865V59.4373H48.9878V61.4357C48.9878 61.5588 48.9841 61.7181 48.9769 61.9136C48.9769 62.1019 48.9733 62.2865 48.966 62.4675C48.9588 62.6413 48.9515 62.768 48.9443 62.8477H48.9878C49.1545 62.5146 49.3684 62.2503 49.6295 62.0548C49.8905 61.8593 50.2313 61.7616 50.6519 61.7616C51.3697 61.7616 51.9172 62.0041 52.2942 62.4893C52.6785 62.9672 52.8707 63.7275 52.8707 64.7701C52.8707 65.4652 52.7836 66.0373 52.6096 66.4862C52.4429 66.9351 52.1927 67.2682 51.8592 67.4854C51.5329 67.6954 51.1304 67.8004 50.6519 67.8004ZM50.4778 67.1053C50.9564 67.1053 51.2972 66.9062 51.5002 66.5079C51.7105 66.1024 51.8156 65.5196 51.8156 64.7593C51.8156 63.9845 51.7105 63.4089 51.5002 63.0323C51.2972 62.6486 50.9528 62.4567 50.467 62.4567C49.9014 62.4567 49.5135 62.6486 49.3032 63.0323C49.0929 63.4089 48.9878 63.9881 48.9878 64.7701C48.9878 65.2697 49.0313 65.6933 49.1183 66.0409C49.2125 66.3885 49.3684 66.6527 49.586 66.8338C49.8035 67.0148 50.1008 67.1053 50.4778 67.1053Z" fill="#1E1E1E"/>
<path d="M53.7218 67.6918V67.2356H53.8632C54.0227 67.2356 54.1678 67.2211 54.2983 67.1922C54.4361 67.156 54.5448 67.0872 54.6246 66.9858C54.7116 66.8772 54.7551 66.7179 54.7551 66.5079V63.0649C54.7551 62.8477 54.7116 62.6884 54.6246 62.587C54.5448 62.4784 54.4361 62.4096 54.2983 62.3807C54.1678 62.3445 54.0227 62.3263 53.8632 62.3263H53.8306V61.8702H55.7775V66.4536C55.7775 66.6781 55.8174 66.8483 55.8971 66.9641C55.9769 67.0727 56.0856 67.1451 56.2234 67.1813C56.3612 67.2175 56.5098 67.2356 56.6694 67.2356H56.8107V67.6918H53.7218ZM55.2228 60.7841C55.0488 60.7841 54.9001 60.7334 54.7768 60.632C54.6608 60.5306 54.6028 60.3568 54.6028 60.1107C54.6028 59.8572 54.6608 59.6834 54.7768 59.5893C54.9001 59.4879 55.0488 59.4373 55.2228 59.4373C55.3896 59.4373 55.5346 59.4879 55.6578 59.5893C55.7811 59.6834 55.8427 59.8572 55.8427 60.1107C55.8427 60.3568 55.7811 60.5306 55.6578 60.632C55.5346 60.7334 55.3896 60.7841 55.2228 60.7841Z" fill="#1E1E1E"/>
<path d="M57.0969 67.6918V67.2356H57.2383C57.4051 67.2356 57.5537 67.2175 57.6843 67.1813C57.822 67.1451 57.9308 67.0727 58.0106 66.9641C58.0903 66.8483 58.1302 66.6781 58.1302 66.4536V60.632C58.1302 60.4148 58.0867 60.2555 57.9997 60.1541C57.9199 60.0455 57.8111 59.9767 57.6734 59.9477C57.5429 59.9115 57.3978 59.8934 57.2383 59.8934H57.0969V59.4373H59.1526V66.4536C59.1526 66.6781 59.1925 66.8483 59.2722 66.9641C59.352 67.0727 59.4608 67.1451 59.5985 67.1813C59.7363 67.2175 59.8849 67.2356 60.0444 67.2356H60.1858V67.6918H57.0969Z" fill="#1E1E1E"/>
<path d="M60.5727 67.6918V67.2356H60.7141C60.8736 67.2356 61.0187 67.2211 61.1492 67.1922C61.2869 67.156 61.3957 67.0872 61.4755 66.9858C61.5625 66.8772 61.606 66.7179 61.606 66.5079V63.0649C61.606 62.8477 61.5625 62.6884 61.4755 62.587C61.3957 62.4784 61.2869 62.4096 61.1492 62.3807C61.0187 62.3445 60.8736 62.3263 60.7141 62.3263H60.6815V61.8702H62.6284V66.4536C62.6284 66.6781 62.6683 66.8483 62.748 66.9641C62.8278 67.0727 62.9365 67.1451 63.0743 67.1813C63.2121 67.2175 63.3607 67.2356 63.5202 67.2356H63.6616V67.6918H60.5727ZM62.0737 60.7841C61.8997 60.7841 61.751 60.7334 61.6277 60.632C61.5117 60.5306 61.4537 60.3568 61.4537 60.1107C61.4537 59.8572 61.5117 59.6834 61.6277 59.5893C61.751 59.4879 61.8997 59.4373 62.0737 59.4373C62.2404 59.4373 62.3855 59.4879 62.5087 59.5893C62.632 59.6834 62.6936 59.8572 62.6936 60.1107C62.6936 60.3568 62.632 60.5306 62.5087 60.632C62.3855 60.7334 62.2404 60.7841 62.0737 60.7841Z" fill="#1E1E1E"/>
<path d="M66.4168 67.8004C65.8657 67.8004 65.4633 67.6773 65.2095 67.4311C64.963 67.1777 64.8397 66.7396 64.8397 66.1169V62.4893H64.0131V62.0548C64.1436 62.0548 64.2886 62.0295 64.4481 61.9788C64.6077 61.9209 64.7454 61.8304 64.8614 61.7073C64.9847 61.5769 65.0862 61.4176 65.166 61.2294C65.2457 61.0411 65.311 60.8094 65.3618 60.5342H65.8621V61.8702H67.2869V62.4893H65.8621V66.1495C65.8621 66.5188 65.9382 66.7903 66.0905 66.9641C66.2428 67.1379 66.4422 67.2248 66.6887 67.2248C66.8192 67.2248 66.9388 67.2175 67.0476 67.203C67.1564 67.1886 67.2688 67.1705 67.3848 67.1487V67.6266C67.2905 67.6701 67.1491 67.7099 66.9606 67.7461C66.7721 67.7823 66.5908 67.8004 66.4168 67.8004Z" fill="#1E1E1E"/>
<path d="M68.0435 69.788C68.4133 69.788 68.7323 69.7337 69.0006 69.6251C69.2689 69.5165 69.4973 69.3644 69.6858 69.1689C69.8744 68.9807 70.0339 68.7562 70.1644 68.4955C70.2949 68.2349 70.4037 67.9525 70.4907 67.6484L68.4786 62.902C68.4133 62.7499 68.348 62.6341 68.2828 62.5544C68.2175 62.4675 68.1414 62.4096 68.0544 62.3807C67.9674 62.3445 67.8513 62.3263 67.7063 62.3263H67.6737V61.8702H70.284V62.3263H70.2514C70.0339 62.3263 69.8707 62.3698 69.762 62.4567C69.6532 62.5363 69.5988 62.6667 69.5988 62.8477C69.5988 62.9056 69.6061 62.9672 69.6206 63.0323C69.6351 63.0975 69.6568 63.1699 69.6858 63.2496L70.4798 65.1829C70.5523 65.3494 70.6212 65.534 70.6865 65.7368C70.759 65.9323 70.8242 66.1205 70.8822 66.3016C70.9403 66.4826 70.9801 66.6346 71.0019 66.7577C71.0526 66.5478 71.1179 66.3305 71.1977 66.1061C71.2847 65.8816 71.3644 65.6608 71.4369 65.4435L72.1657 63.3256C72.2019 63.2387 72.2273 63.1554 72.2418 63.0758C72.2563 62.9889 72.2636 62.9165 72.2636 62.8586C72.2636 62.6703 72.2019 62.5363 72.0787 62.4567C71.9626 62.3698 71.785 62.3263 71.5457 62.3263H71.5131V61.8702H73.7754V62.3263H73.7428C73.605 62.3263 73.489 62.3481 73.3947 62.3915C73.3004 62.435 73.2171 62.5182 73.1446 62.6413C73.0793 62.7644 73.0032 62.9418 72.9161 63.1735L71.2629 67.7352C71.0744 68.2638 70.8931 68.6947 70.7191 69.0277C70.5451 69.3608 70.3493 69.6179 70.1318 69.7989C69.9215 69.9871 69.6568 70.1175 69.3378 70.1899C69.0187 70.2623 68.6199 70.2985 68.1414 70.2985H68.0435V69.788Z" fill="#1E1E1E"/>
<path fill-rule="evenodd" clip-rule="evenodd" d="M110.072 57.7001C109.317 59.6078 108.541 61.5683 107.741 63.5806C85.9639 118.35 51.4077 146.978 18.5566 146.978V146.254C50.9643 146.254 85.3333 117.974 107.067 63.3134C107.867 61.301 108.643 59.3392 109.399 57.429C115.074 43.0885 119.597 31.6571 124.403 23.567C129.855 14.3867 135.734 9.40217 144.164 9.40217V10.1262C136.113 10.1262 130.426 14.8446 125.026 23.9364C120.253 31.9729 115.753 43.3432 110.072 57.7001Z" fill="#1E1E1E"/>
<path fill-rule="evenodd" clip-rule="evenodd" d="M179.058 58.1847C179.72 59.8555 180.398 61.5653 181.093 63.3132C202.828 117.978 235.948 146.253 269.44 146.253V146.978C235.499 146.978 202.194 118.346 180.419 63.5804C179.725 61.8356 179.049 60.1299 178.389 58.4637C172.557 43.7465 167.948 32.115 163.072 23.9366C157.651 14.8434 151.964 10.126 143.996 10.126V9.40188C152.344 9.40188 158.223 14.3873 163.695 23.5662C168.603 31.7981 173.235 43.4889 179.058 58.1847Z" fill="#1E1E1E"/>
<path fill-rule="evenodd" clip-rule="evenodd" d="M106.514 152.781V65.1565L107.239 64.5555V152.781H106.514Z" fill="#1E1E1E"/>
<path fill-rule="evenodd" clip-rule="evenodd" d="M91.8666 127.015L83.4304 122.281L87.3386 118.49L91.8666 127.015Z" fill="#1E1E1E"/>
<path fill-rule="evenodd" clip-rule="evenodd" d="M87.8413 123.486L42.6365 75.3296L43.1655 74.8344L88.3703 122.991L87.8413 123.486Z" fill="#1E1E1E"/>
<path d="M109.385 155.282L104.318 161.304C105.335 161.532 105.721 161.724 106.422 162.757C106.878 163.422 107.211 163.632 107.649 163.632C107.93 163.632 108.122 163.527 108.122 163.37C108.122 163.3 108.087 163.212 108.035 163.107C107.93 162.897 107.895 162.757 107.895 162.617C107.912 162.319 108.193 162.022 108.473 162.022C108.841 162.022 109.087 162.284 109.087 162.67C109.087 163.37 108.438 164 107.456 164C106.948 164 106.352 163.772 105.475 163.23C104.651 162.722 104.091 162.495 103.635 162.495C103.354 162.495 103.126 162.582 102.846 162.81L102.688 162.652L108.122 156.14H105.738C104.827 156.14 104.494 156.298 104.143 157.19L103.863 157.12L104.424 155.09H109.385V155.282Z" fill="#1E1E1E"/>
</svg>
