<svg width="312" height="178" viewBox="0 0 312 178" fill="none" xmlns="http://www.w3.org/2000/svg">
<path fill-rule="evenodd" clip-rule="evenodd" d="M0.367188 159.248H311.631V0.369141H0.367188V159.248Z" fill="white"/>
<path fill-rule="evenodd" clip-rule="evenodd" d="M203.359 159.983L203.597 104.566C203.597 104.566 210.623 113.993 214.159 117.921C217.696 121.849 224.379 128.298 230.27 132.847C236.161 137.396 248.742 145.973 260.92 149.344C273.098 152.715 277.814 153.271 281.401 153.271V159.068L204.683 159.754" fill="#B2B2B2"/>
<path fill-rule="evenodd" clip-rule="evenodd" d="M203 165.932L203.117 104.008L203.853 104.011L203.736 165.935L203 165.932Z" fill="#1E1E1E"/>
<path fill-rule="evenodd" clip-rule="evenodd" d="M213.559 151.58L222.713 146.434L218.473 142.315L213.559 151.58Z" fill="#1E1E1E"/>
<path fill-rule="evenodd" clip-rule="evenodd" d="M217.126 146.888L251.714 109.457L252.254 109.956L217.666 147.387L217.126 146.888Z" fill="#1E1E1E"/>
<path d="M209.991 168.685L207.852 168.047L208.177 166.978L210.317 167.771L210.253 165.335H211.337L211.266 167.806L213.37 167.028L213.696 168.104L211.521 168.748L212.924 170.667L212.045 171.333L210.728 169.293L209.453 171.283L208.567 170.639L209.991 168.685Z" fill="#1E1E1E"/>
<path fill-rule="evenodd" clip-rule="evenodd" d="M125.56 72.2817C124.573 74.7669 123.533 77.3829 122.436 80.1362C114.082 101.091 102.981 118.275 88.4004 130.707C73.816 143.143 55.769 150.809 33.5549 152.75C33.3525 152.768 33.174 152.618 33.1563 152.416C33.1386 152.214 33.2884 152.035 33.4908 152.018C55.5624 150.089 73.4623 142.478 87.9228 130.148C102.387 117.814 113.429 100.742 121.752 79.8639C122.85 77.1093 123.891 74.4908 124.879 72.002C131.673 54.8996 136.031 43.9282 140.028 37.0983C142.322 33.1791 144.518 30.5834 147.022 28.973C149.533 27.3575 152.316 26.7572 155.733 26.7572C155.936 26.7572 156.101 26.9219 156.101 27.125C156.101 27.3281 155.936 27.4927 155.733 27.4927C152.407 27.4927 149.776 28.0757 147.42 29.5915C145.056 31.1125 142.93 33.5963 140.663 37.4697C136.696 44.2476 132.363 55.157 125.56 72.2817Z" fill="#231F20"/>
<path fill-rule="evenodd" clip-rule="evenodd" d="M155.365 27.1249C155.365 26.9218 155.529 26.7572 155.733 26.7572C159.514 26.7572 162.572 27.8279 165.272 30.0163C167.96 32.1943 170.276 35.4646 172.612 39.8299C174.95 44.197 177.325 49.6921 180.117 56.342C180.622 57.5442 181.14 58.7844 181.675 60.0629C184.099 65.8614 186.852 72.4479 190.148 79.8504C208.723 121.569 243.152 150.203 281.426 153.2C281.628 153.216 281.78 153.393 281.764 153.595C281.748 153.798 281.571 153.949 281.368 153.933C242.754 150.909 208.127 122.041 189.476 80.1495C186.176 72.7384 183.419 66.1428 180.995 60.344C180.46 59.0662 179.942 57.8272 179.438 56.6266C176.645 49.9727 174.282 44.5089 171.963 40.1769C169.644 35.8431 167.383 32.6741 164.809 30.5877C162.247 28.5116 159.355 27.4927 155.733 27.4927C155.529 27.4927 155.365 27.328 155.365 27.1249Z" fill="#231F20"/>
<path fill-rule="evenodd" clip-rule="evenodd" d="M0 0H312V159.614H0V0ZM0.735849 0.73555V158.879H311.264V0.73555H0.735849Z" fill="#1E1E1E"/>
<path d="M217 101.918V101.423H217.153C217.334 101.423 217.495 101.403 217.637 101.364C217.786 101.325 217.904 101.246 217.99 101.128C218.077 101.003 218.12 100.818 218.12 100.574V94.8005C218.12 94.5648 218.073 94.392 217.978 94.282C217.892 94.1642 217.774 94.0896 217.625 94.0581C217.483 94.0189 217.326 93.9992 217.153 93.9992H217V93.5043H220.313C221.303 93.5043 222.034 93.7243 222.505 94.1642C222.977 94.5963 223.212 95.1972 223.212 95.9671C223.212 96.3206 223.157 96.6584 223.047 96.9805C222.937 97.2947 222.757 97.5775 222.505 97.8289C222.262 98.0803 221.935 98.2806 221.527 98.4299C221.126 98.5713 220.635 98.642 220.053 98.642H219.311V100.633C219.311 100.861 219.354 101.034 219.44 101.152C219.535 101.262 219.652 101.336 219.794 101.376C219.943 101.407 220.104 101.423 220.277 101.423H220.666V101.918H217ZM219.935 98.0881C220.289 98.0881 220.592 98.0528 220.843 97.9821C221.102 97.9035 221.311 97.7818 221.468 97.6168C221.633 97.4518 221.751 97.2397 221.821 96.9805C221.9 96.7134 221.939 96.3913 221.939 96.0142C221.939 95.3543 221.802 94.8673 221.527 94.553C221.252 94.231 220.78 94.0699 220.112 94.0699H219.311V98.0881H219.935Z" fill="#1E1E1E"/>
<path d="M224.056 101.918V101.423H224.091C224.272 101.423 224.433 101.403 224.574 101.364C224.724 101.325 224.841 101.246 224.928 101.128C225.014 101.003 225.058 100.818 225.058 100.574V96.898C225.058 96.6623 225.01 96.4895 224.916 96.3795C224.83 96.2617 224.712 96.187 224.562 96.1556C224.421 96.1163 224.264 96.0967 224.091 96.0967H224.056V95.6018H225.871L226.095 96.7684H226.154C226.256 96.5327 226.366 96.3167 226.484 96.1203C226.602 95.9239 226.759 95.7707 226.956 95.6607C227.152 95.5429 227.423 95.484 227.769 95.484C228.201 95.484 228.519 95.5586 228.724 95.7078C228.936 95.8571 229.042 96.0692 229.042 96.3442C229.042 96.5877 228.956 96.788 228.783 96.9451C228.618 97.1022 228.339 97.1808 227.946 97.1808C227.946 96.9608 227.926 96.7841 227.887 96.6505C227.847 96.517 227.781 96.4188 227.686 96.3559C227.6 96.2931 227.478 96.2617 227.321 96.2617C227.101 96.2617 226.916 96.3481 226.767 96.5209C226.618 96.6937 226.5 96.9137 226.413 97.1808C226.327 97.4479 226.264 97.7268 226.225 98.0174C226.185 98.3002 226.166 98.5556 226.166 98.7834V100.633C226.166 100.861 226.209 101.034 226.295 101.152C226.39 101.262 226.508 101.336 226.649 101.376C226.798 101.407 226.959 101.423 227.132 101.423H227.462V101.918H224.056Z" fill="#1E1E1E"/>
<path d="M232.599 102.036C231.75 102.036 231.082 101.765 230.595 101.223C230.107 100.681 229.864 99.8557 229.864 98.748C229.864 97.6482 230.096 96.8312 230.559 96.297C231.031 95.755 231.722 95.484 232.634 95.484C233.483 95.484 234.151 95.755 234.638 96.297C235.125 96.8312 235.369 97.6482 235.369 98.748C235.369 99.8557 235.133 100.681 234.662 101.223C234.198 101.765 233.51 102.036 232.599 102.036ZM232.622 101.423C233.015 101.423 233.33 101.325 233.565 101.128C233.801 100.924 233.97 100.622 234.072 100.221C234.174 99.8203 234.225 99.3293 234.225 98.748C234.225 97.8682 234.104 97.2083 233.86 96.7684C233.616 96.3284 233.2 96.1085 232.61 96.1085C232.021 96.1085 231.604 96.3284 231.361 96.7684C231.125 97.2083 231.007 97.8682 231.007 98.748C231.007 99.6279 231.129 100.296 231.373 100.751C231.616 101.199 232.033 101.423 232.622 101.423Z" fill="#1E1E1E"/>
<path d="M240.204 102.036C239.748 102.036 239.375 101.941 239.084 101.753C238.801 101.556 238.573 101.305 238.4 100.999H238.33L238.117 101.918H236.231V101.423H236.326C236.506 101.423 236.667 101.403 236.809 101.364C236.958 101.325 237.076 101.246 237.163 101.128C237.249 101.003 237.292 100.818 237.292 100.574V94.2585C237.292 94.0228 237.245 93.85 237.151 93.74C237.064 93.6221 236.946 93.5475 236.797 93.5161C236.656 93.4768 236.498 93.4572 236.326 93.4572H236.231V92.9623H238.4V95.1304C238.4 95.264 238.396 95.4368 238.389 95.6489C238.389 95.8532 238.385 96.0535 238.377 96.2499C238.369 96.4384 238.361 96.5759 238.353 96.6623H238.4C238.581 96.301 238.813 96.0142 239.096 95.8021C239.379 95.59 239.748 95.484 240.204 95.484C240.982 95.484 241.575 95.7471 241.984 96.2735C242.401 96.7919 242.609 97.6168 242.609 98.748C242.609 99.5022 242.514 100.123 242.326 100.61C242.145 101.097 241.874 101.458 241.512 101.694C241.159 101.922 240.723 102.036 240.204 102.036ZM240.015 101.282C240.534 101.282 240.903 101.065 241.123 100.633C241.351 100.193 241.465 99.5611 241.465 98.7362C241.465 97.8957 241.351 97.2711 241.123 96.8626C240.903 96.4463 240.53 96.2381 240.004 96.2381C239.391 96.2381 238.97 96.4463 238.742 96.8626C238.514 97.2711 238.4 97.8996 238.4 98.748C238.4 99.2901 238.447 99.7496 238.542 100.127C238.644 100.504 238.813 100.791 239.049 100.987C239.284 101.183 239.607 101.282 240.015 101.282Z" fill="#1E1E1E"/>
<path d="M245.677 102.036C245.331 102.036 245.017 101.969 244.734 101.835C244.459 101.694 244.243 101.486 244.085 101.211C243.928 100.928 243.85 100.574 243.85 100.15C243.85 99.5218 244.07 99.0583 244.51 98.7598C244.958 98.4613 245.634 98.2963 246.537 98.2649L247.516 98.2295V97.5225C247.516 97.2397 247.492 96.9923 247.445 96.7802C247.398 96.5602 247.296 96.3874 247.139 96.2617C246.981 96.136 246.742 96.0731 246.419 96.0731C246.121 96.0731 245.893 96.1281 245.736 96.2381C245.579 96.3481 245.472 96.5013 245.417 96.6977C245.37 96.8862 245.347 97.1062 245.347 97.3576C245.017 97.3576 244.765 97.3026 244.592 97.1926C244.427 97.0747 244.345 96.8823 244.345 96.6152C244.345 96.3402 244.439 96.1203 244.628 95.9553C244.824 95.7903 245.083 95.6725 245.406 95.6018C245.728 95.5232 246.082 95.484 246.467 95.484C247.19 95.484 247.728 95.6371 248.082 95.9435C248.443 96.2499 248.624 96.7762 248.624 97.5225V100.574C248.624 100.794 248.647 100.967 248.695 101.093C248.742 101.211 248.82 101.297 248.93 101.352C249.04 101.399 249.182 101.423 249.355 101.423H249.39V101.918H247.799L247.61 100.904H247.516C247.351 101.124 247.19 101.321 247.032 101.494C246.875 101.659 246.691 101.792 246.478 101.894C246.274 101.989 246.007 102.036 245.677 102.036ZM245.948 101.305C246.27 101.305 246.545 101.238 246.773 101.105C247.009 100.971 247.19 100.783 247.315 100.539C247.449 100.288 247.516 99.9971 247.516 99.6671V98.7127L246.761 98.748C246.313 98.7637 245.96 98.8305 245.7 98.9483C245.449 99.0662 245.268 99.2311 245.158 99.4433C245.048 99.6475 244.993 99.9028 244.993 100.209C244.993 100.453 245.028 100.657 245.099 100.822C245.17 100.979 245.276 101.101 245.417 101.187C245.559 101.266 245.736 101.305 245.948 101.305Z" fill="#1E1E1E"/>
<path d="M254.088 102.036C253.632 102.036 253.258 101.941 252.968 101.753C252.685 101.556 252.457 101.305 252.284 100.999H252.213L252.001 101.918H250.115V101.423H250.209C250.39 101.423 250.551 101.403 250.692 101.364C250.842 101.325 250.96 101.246 251.046 101.128C251.133 101.003 251.176 100.818 251.176 100.574V94.2585C251.176 94.0228 251.129 93.85 251.034 93.74C250.948 93.6221 250.83 93.5475 250.681 93.5161C250.539 93.4768 250.382 93.4572 250.209 93.4572H250.115V92.9623H252.284V95.1304C252.284 95.264 252.28 95.4368 252.272 95.6489C252.272 95.8532 252.268 96.0535 252.26 96.2499C252.252 96.4384 252.245 96.5759 252.237 96.6623H252.284C252.465 96.301 252.697 96.0142 252.979 95.8021C253.262 95.59 253.632 95.484 254.088 95.484C254.866 95.484 255.459 95.7471 255.868 96.2735C256.284 96.7919 256.492 97.6168 256.492 98.748C256.492 99.5022 256.398 100.123 256.209 100.61C256.029 101.097 255.758 101.458 255.396 101.694C255.042 101.922 254.606 102.036 254.088 102.036ZM253.899 101.282C254.418 101.282 254.787 101.065 255.007 100.633C255.235 100.193 255.349 99.5611 255.349 98.7362C255.349 97.8957 255.235 97.2711 255.007 96.8626C254.787 96.4463 254.414 96.2381 253.887 96.2381C253.274 96.2381 252.854 96.4463 252.626 96.8626C252.398 97.2711 252.284 97.8996 252.284 98.748C252.284 99.2901 252.331 99.7496 252.425 100.127C252.528 100.504 252.697 100.791 252.932 100.987C253.168 101.183 253.49 101.282 253.899 101.282Z" fill="#1E1E1E"/>
<path d="M257.415 101.918V101.423H257.568C257.741 101.423 257.898 101.407 258.04 101.376C258.189 101.336 258.307 101.262 258.393 101.152C258.488 101.034 258.535 100.861 258.535 100.633V96.898C258.535 96.6623 258.488 96.4895 258.393 96.3795C258.307 96.2617 258.189 96.187 258.04 96.1556C257.898 96.1163 257.741 96.0967 257.568 96.0967H257.533V95.6018H259.643V100.574C259.643 100.818 259.686 101.003 259.773 101.128C259.859 101.246 259.977 101.325 260.126 101.364C260.276 101.403 260.437 101.423 260.61 101.423H260.763V101.918H257.415ZM259.042 94.4234C258.853 94.4234 258.692 94.3684 258.558 94.2585C258.433 94.1485 258.37 93.9599 258.37 93.6928C258.37 93.4179 258.433 93.2294 258.558 93.1272C258.692 93.0172 258.853 92.9623 259.042 92.9623C259.222 92.9623 259.38 93.0172 259.513 93.1272C259.647 93.2294 259.714 93.4179 259.714 93.6928C259.714 93.9599 259.647 94.1485 259.513 94.2585C259.38 94.3684 259.222 94.4234 259.042 94.4234Z" fill="#1E1E1E"/>
<path d="M261.073 101.918V101.423H261.226C261.407 101.423 261.568 101.403 261.71 101.364C261.859 101.325 261.977 101.246 262.063 101.128C262.15 101.003 262.193 100.818 262.193 100.574V94.2585C262.193 94.0228 262.146 93.85 262.051 93.74C261.965 93.6221 261.847 93.5475 261.698 93.5161C261.556 93.4768 261.399 93.4572 261.226 93.4572H261.073V92.9623H263.301V100.574C263.301 100.818 263.344 101.003 263.431 101.128C263.517 101.246 263.635 101.325 263.784 101.364C263.934 101.403 264.095 101.423 264.268 101.423H264.421V101.918H261.073Z" fill="#1E1E1E"/>
<path d="M264.84 101.918V101.423H264.993C265.166 101.423 265.324 101.407 265.465 101.376C265.614 101.336 265.732 101.262 265.819 101.152C265.913 101.034 265.96 100.861 265.96 100.633V96.898C265.96 96.6623 265.913 96.4895 265.819 96.3795C265.732 96.2617 265.614 96.187 265.465 96.1556C265.324 96.1163 265.166 96.0967 264.993 96.0967H264.958V95.6018H267.068V100.574C267.068 100.818 267.111 101.003 267.198 101.128C267.284 101.246 267.402 101.325 267.552 101.364C267.701 101.403 267.862 101.423 268.035 101.423H268.188V101.918H264.84ZM266.467 94.4234C266.278 94.4234 266.117 94.3684 265.984 94.2585C265.858 94.1485 265.795 93.9599 265.795 93.6928C265.795 93.4179 265.858 93.2294 265.984 93.1272C266.117 93.0172 266.278 92.9623 266.467 92.9623C266.648 92.9623 266.805 93.0172 266.939 93.1272C267.072 93.2294 267.139 93.4179 267.139 93.6928C267.139 93.9599 267.072 94.1485 266.939 94.2585C266.805 94.3684 266.648 94.4234 266.467 94.4234Z" fill="#1E1E1E"/>
<path d="M271.174 102.036C270.577 102.036 270.141 101.902 269.866 101.635C269.599 101.36 269.465 100.885 269.465 100.209V96.2735H268.569V95.8021C268.711 95.8021 268.868 95.7746 269.041 95.7196C269.213 95.6568 269.363 95.5586 269.489 95.425C269.622 95.2836 269.732 95.1108 269.819 94.9066C269.905 94.7023 269.976 94.4509 270.031 94.1524H270.573V95.6018H272.117V96.2735H270.573V100.245C270.573 100.645 270.656 100.94 270.821 101.128C270.986 101.317 271.202 101.411 271.469 101.411C271.61 101.411 271.74 101.403 271.858 101.388C271.976 101.372 272.098 101.352 272.223 101.329V101.847C272.121 101.894 271.968 101.937 271.764 101.977C271.559 102.016 271.363 102.036 271.174 102.036Z" fill="#1E1E1E"/>
<path d="M272.937 104.192C273.338 104.192 273.684 104.133 273.975 104.015C274.266 103.897 274.513 103.732 274.717 103.52C274.922 103.316 275.095 103.073 275.236 102.79C275.378 102.507 275.495 102.201 275.59 101.871L273.409 96.7212C273.338 96.5563 273.267 96.4306 273.197 96.3442C273.126 96.2499 273.043 96.187 272.949 96.1556C272.855 96.1163 272.729 96.0967 272.572 96.0967H272.537V95.6018H275.366V96.0967H275.33C275.095 96.0967 274.918 96.1438 274.8 96.2381C274.682 96.3245 274.623 96.4659 274.623 96.6623C274.623 96.7252 274.631 96.7919 274.647 96.8626C274.662 96.9333 274.686 97.0119 274.717 97.0983L275.578 99.1958C275.657 99.3765 275.731 99.5768 275.802 99.7968C275.881 100.009 275.951 100.213 276.014 100.41C276.077 100.606 276.12 100.771 276.144 100.904C276.199 100.677 276.27 100.441 276.356 100.197C276.45 99.9539 276.537 99.7143 276.615 99.4786L277.405 97.1808C277.445 97.0865 277.472 96.9962 277.488 96.9098C277.503 96.8155 277.511 96.7369 277.511 96.6741C277.511 96.4698 277.445 96.3245 277.311 96.2381C277.185 96.1438 276.993 96.0967 276.733 96.0967H276.698V95.6018H279.15V96.0967H279.115C278.965 96.0967 278.839 96.1203 278.737 96.1674C278.635 96.2145 278.545 96.3049 278.466 96.4384C278.395 96.572 278.313 96.7644 278.219 97.0158L276.427 101.965C276.222 102.538 276.026 103.006 275.837 103.367C275.649 103.729 275.437 104.007 275.201 104.204C274.973 104.408 274.686 104.549 274.34 104.628C273.994 104.707 273.562 104.746 273.043 104.746H272.937V104.192Z" fill="#1E1E1E"/>
<path d="M286.367 95.5295L285.934 97.0221C286.74 95.8131 287.591 95.3355 288.487 95.3355C289.592 95.3355 290.204 96.037 290.204 97.2012C290.204 99.664 287.95 102.082 285.77 102.082C285.426 102.082 285.113 102.022 284.739 101.828C284.486 102.873 284.142 104.097 284.142 104.306C284.142 104.634 284.366 104.739 285.068 104.739V104.978H282.037V104.739C282.679 104.724 282.873 104.5 283.052 103.798L284.769 97.3505C284.933 96.7534 285.008 96.3654 285.008 96.2907C285.008 95.9325 284.59 95.8877 284.351 95.8877H284.023L283.993 95.6638L286.322 95.3355C286.367 95.3355 286.397 95.3653 286.397 95.3952C286.397 95.3952 286.382 95.4698 286.367 95.5295ZM288.861 97.246C288.861 96.3952 288.607 95.9773 287.935 95.9773C287.143 95.9773 286.262 96.7833 285.919 97.6788C285.486 98.7983 284.948 100.724 284.948 101.231C284.948 101.56 285.247 101.798 285.665 101.798C286.457 101.798 287.173 101.306 287.83 100.38C288.547 99.3804 288.861 98.2908 288.861 97.246Z" fill="#1E1E1E"/>
<path d="M205.5 170.123L205.41 170.697H203.902L202.34 176.586C202.322 176.658 202.304 176.783 202.304 176.837C202.304 177.07 202.412 177.124 202.574 177.124C202.861 177.124 203.148 176.837 204.028 175.706L204.261 175.832C203.184 177.483 202.627 178.004 201.694 178.004C201.209 178.004 200.868 177.789 200.868 177.34C200.868 177.142 201.012 176.586 201.155 176.011L202.556 170.697H201.209C201.191 170.643 201.191 170.589 201.191 170.589C201.191 170.392 201.353 170.23 201.784 170.141C202.358 170.015 203.525 169.135 204.171 168.166C204.243 168.058 204.351 168.004 204.423 168.004C204.531 168.004 204.584 168.058 204.584 168.148C204.584 168.148 204.584 168.237 204.566 168.273L204.064 170.123H205.5Z" fill="#1E1E1E"/>
</svg>
