<svg width="1000" height="132" viewBox="0 0 1000 132" fill="none" xmlns="http://www.w3.org/2000/svg">
<g clip-path="url(#clip0_5829_754778)">
<rect width="1000" height="132" fill="#FFF9FC"/>
<rect opacity="0.12" x="352" y="16" width="136" height="180" rx="3" fill="#D3376C"/>
<rect x="364.5" y="0.5" width="135" height="179" rx="2.5" fill="white" stroke="#656E76"/>
<rect x="372" y="8" width="120" height="16" rx="2" fill="#D3376C"/>
<path fill-rule="evenodd" clip-rule="evenodd" d="M428.07 18.2007L428.07 13.3496H426.534L426.45 13.9506L426.87 14.0916L426.881 14.0954C426.942 14.1194 426.969 14.1697 426.969 14.24L426.969 15.3679L426.949 15.3531C426.663 15.1531 426.325 15.0117 425.892 15.0117C425.044 15.0117 424.273 15.5756 424.273 17.067C424.273 18.4843 424.853 19.0408 425.755 19.0408C426.312 19.0408 426.687 18.833 427.008 18.5288L427.061 18.5362L427.138 19H428.559L428.559 18.3656L428.171 18.3107C428.092 18.2988 428.074 18.2831 428.071 18.218L428.07 18.2007ZM424.294 15.0412C424.143 15.0052 423.799 14.977 423.625 14.977C423.122 14.977 422.776 15.2715 422.517 15.6568H422.469L422.375 15.0525H420.992L420.906 15.6582L420.91 15.6657L421.33 15.8078L421.34 15.8111C421.411 15.8354 421.432 15.8872 421.432 15.9665L421.432 18.1903C421.431 18.2944 421.413 18.3161 421.306 18.3307L420.953 18.376L420.953 19.0004H423.523L423.523 18.3836L422.734 18.3224C422.63 18.3144 422.62 18.2911 422.619 18.1851L422.619 16.1704L422.641 16.1524C422.765 16.0532 422.992 15.906 423.185 15.906C423.248 15.906 423.271 15.9211 423.287 15.9891L423.365 16.3895L424.308 16.4197L424.308 15.0449L424.294 15.0412ZM407.201 15.0299C407.686 15.0299 408.161 15.1137 408.447 15.1896L408.471 15.1962L408.494 15.0841H410.472L410.472 15.7076L410.034 15.7527L410.66 17.8637H410.714L411.41 15.1817H412.59L413.262 17.8637H413.309L413.896 15.7527L413.45 15.7076L413.552 15.0841H415.193L415.193 15.5046C415.158 15.572 415.125 15.6408 415.094 15.711L414.912 15.7452C414.806 15.7596 414.759 15.7949 414.728 15.8844L414.724 15.8954L413.763 18.9981H412.528L411.918 16.4814H411.871L411.254 18.9981H409.847L408.862 15.8879C408.832 15.8015 408.795 15.7841 408.709 15.763L408.698 15.7602L408.629 15.746L408.633 15.763L408.633 16.3325L407.8 16.2802L407.723 15.8908C407.715 15.8309 407.699 15.801 407.645 15.786L407.62 15.7791C407.515 15.7517 407.341 15.7261 407.147 15.7261C406.758 15.7261 406.54 15.8684 406.54 16.1079C406.54 16.3697 406.851 16.4573 407.237 16.5424L407.498 16.5994L407.534 16.6077C408.124 16.7441 408.75 16.9747 408.75 17.8073C408.75 18.7207 407.98 19.095 406.991 19.095C406.302 19.095 405.627 18.9247 405.462 18.8328L405.45 18.8255L405.45 17.74L406.283 17.7999L406.361 18.2266L406.363 18.2448C406.372 18.2995 406.391 18.3253 406.454 18.3388L406.472 18.3444L406.493 18.3503L406.516 18.3563L406.543 18.3626C406.655 18.3881 406.83 18.4137 407.053 18.4137C407.466 18.4137 407.699 18.3015 407.699 18.0244C407.699 17.7299 407.398 17.6382 407.01 17.5711L406.833 17.5404L406.758 17.5266C406.151 17.413 405.481 17.2074 405.481 16.3401C405.481 15.4118 406.306 15.0299 407.201 15.0299ZM400.023 15.0299L400.002 15.0299C399.292 15.0328 398.359 15.1823 398.359 16.1828L399.45 16.2727L399.451 16.2537C399.456 15.8537 399.622 15.7807 399.938 15.7721L399.968 15.7714L400.016 15.7711C400.423 15.7711 400.512 15.9433 400.53 16.2102L400.532 16.2367L400.533 16.2777L400.534 16.3057L400.534 16.3481L400.534 16.7743L399.615 16.836C398.667 16.9009 398.196 17.2459 398.197 17.987C398.197 18.4512 398.351 19.095 399.327 19.095C399.946 19.095 400.333 18.8704 400.627 18.5934L400.666 18.6009L400.743 19.0051H402.168L402.168 18.8539L402.178 18.8585C402.405 18.9532 403.017 19.095 403.644 19.095C404.627 19.095 405.393 18.7206 405.393 17.8073C405.393 16.9315 404.704 16.7218 404.092 16.5871L403.908 16.5468C403.515 16.4602 403.195 16.3742 403.195 16.1079C403.195 15.8684 403.411 15.7261 403.798 15.7261C404.007 15.7261 404.193 15.7561 404.294 15.786C404.348 15.801 404.363 15.8309 404.371 15.8908L404.449 16.2802L405.277 16.3325L405.277 15.247L405.254 15.2385C405.02 15.1558 404.443 15.0299 403.852 15.0299C402.962 15.0299 402.142 15.4118 402.142 16.3401C402.142 17.1551 402.73 17.3858 403.302 17.5049L403.355 17.5157L403.409 17.5262L403.484 17.54L403.701 17.5779C404.068 17.6445 404.348 17.7397 404.348 18.0244C404.348 18.3015 404.116 18.4137 403.706 18.4137C403.483 18.4137 403.31 18.3881 403.198 18.3626L403.171 18.3563L403.148 18.3503L403.128 18.3444L403.11 18.3388C403.04 18.3239 403.024 18.2939 403.017 18.2266L402.939 17.7999L402.111 17.74L402.111 18.4046L401.796 18.3538L401.775 18.3509C401.702 18.3399 401.68 18.3255 401.674 18.2694L401.673 18.253L401.672 18.2351L401.672 18.2151L401.672 16.385L401.672 16.3537C401.663 15.3308 401.188 15.0299 400.023 15.0299ZM398.338 15.1611C398.338 14.3002 397.901 13.5664 396.457 13.5664H393.81L393.81 14.1654L394.302 14.2177L394.313 14.2186C394.412 14.2273 394.427 14.259 394.427 14.3675L394.427 18.1931L394.427 18.2144C394.424 18.3084 394.404 18.3288 394.302 18.3428L393.81 18.3952L393.81 18.3994L393.807 18.3978L393.172 18.3455L393.162 18.3448C393.073 18.3379 393.053 18.3195 393.049 18.2456L393.049 18.2276L393.048 18.2074L393.048 14.3795H392.329L391 15.1115L391.215 15.7227C391.796 15.5333 391.88 15.5157 391.88 15.6225L391.88 18.1965L391.88 18.2178C391.877 18.3122 391.857 18.3386 391.756 18.3455L391.091 18.3978L391.091 19H396.871L396.871 18.3952L395.754 18.3353L395.734 18.3325C395.656 18.321 395.636 18.3058 395.631 18.2432L395.63 18.2258L395.629 18.2068L395.629 16.9877H396.199L396.239 16.9876C397.535 16.9772 398.338 16.4506 398.338 15.1611ZM400.512 17.3564L400.512 17.9723L400.496 17.9838C400.319 18.1068 400.063 18.2394 399.808 18.2394C399.553 18.2394 399.367 18.1281 399.367 17.8313C399.367 17.5344 399.53 17.4232 399.986 17.3935L400.512 17.3564ZM426.23 15.8731C425.67 15.8731 425.446 16.3776 425.442 17.0322L425.442 17.0536C425.442 17.7783 425.656 18.1818 426.138 18.1818C426.391 18.1818 426.666 18.0407 426.871 17.8752L426.889 17.8605L426.889 16.0972C426.697 15.9702 426.452 15.8731 426.23 15.8731ZM395.613 14.3884H396.07C396.619 14.3884 397.076 14.5145 397.076 15.2268C397.076 15.9769 396.624 16.145 396.163 16.1721L396.12 16.1743L396.091 16.1753L396.046 16.1763L396.016 16.1765L395.613 16.1766L395.613 14.3884Z" fill="white"/>
<path fill-rule="evenodd" clip-rule="evenodd" d="M417.992 13.75C419.813 13.75 421.289 15.1801 421.289 16.9443C421.289 18.7085 419.813 20.1386 417.992 20.1386C416.171 20.1386 414.695 18.7085 414.695 16.9443C414.695 15.1801 416.171 13.75 417.992 13.75ZM417.992 14.3988C416.541 14.3988 415.365 15.5385 415.365 16.9443C415.365 18.3501 416.541 19.4897 417.992 19.4897C419.443 19.4897 420.619 18.3501 420.619 16.9443C420.619 15.5385 419.443 14.3988 417.992 14.3988ZM417.992 15.0477C419.073 15.0477 419.95 15.8969 419.95 16.9443C419.95 17.9918 419.073 18.8409 417.992 18.8409C416.911 18.8409 416.035 17.9918 416.035 16.9443C416.035 15.8969 416.911 15.0477 417.992 15.0477ZM418.307 15.598H417.675C417.597 15.598 417.532 15.6645 417.528 15.7482L417.528 15.7576L417.528 16.3971C417.529 16.4208 417.537 16.4449 417.552 16.4639L417.558 16.4708L417.65 16.5705C417.686 16.6098 417.688 16.6723 417.656 16.7141L417.65 16.7209L417.558 16.8206C417.541 16.8383 417.531 16.8616 417.529 16.8864L417.529 16.8958L417.528 18.1337C417.528 18.2187 417.589 18.2881 417.667 18.293L417.676 18.2932H418.307C418.386 18.2932 418.45 18.2268 418.455 18.1431L418.455 18.1337L418.455 17.5426C418.455 17.5175 418.447 17.4934 418.432 17.4743L418.426 17.4674L418.334 17.3677C418.297 17.3284 418.295 17.2659 418.328 17.2241L418.334 17.2173L418.426 17.1176C418.442 17.0999 418.453 17.0766 418.455 17.0518L418.455 17.0424L418.455 15.7576C418.455 15.6695 418.389 15.598 418.307 15.598Z" fill="white"/>
<path fill-rule="evenodd" clip-rule="evenodd" d="M378 13C377.448 13 377 13.4477 377 14L377 19C377 19.5523 377.448 20 378 20H385C385.552 20 386 19.5523 386 19L386 14C386 13.4477 385.552 13 385 13H378ZM384 16.5C384 17.8807 382.881 19 381.5 19C380.119 19 379 17.8807 379 16.5C379 15.1193 380.119 14 381.5 14C382.881 14 384 15.1193 384 16.5ZM381 15L381 16H380L380 17H381L381 18H382L382 17H383L383 16H382L382 15H381Z" fill="white"/>
<path d="M379.5 13.5V12C379.5 11.7239 379.724 11.5 380 11.5H383C383.276 11.5 383.5 11.7239 383.5 12V13.5" stroke="white"/>
<path d="M431.416 18.488V19H435.704V17.528H435.032L434.904 18.232C434.896 18.272 434.888 18.296 434.872 18.304C434.856 18.32 434.824 18.32 434.776 18.32H432.984V16.432H435.016V15.736H432.984V13.896H434.6C434.64 13.896 434.672 13.904 434.696 13.92C434.712 13.936 434.728 13.968 434.736 14L434.848 14.616L435.528 14.648V13.208H431.416V13.728L431.92 13.784C431.968 13.792 432.008 13.808 432.024 13.824C432.04 13.84 432.048 13.88 432.048 13.944V18.272C432.048 18.336 432.04 18.376 432.024 18.392C432.008 18.416 431.968 18.432 431.92 18.432L431.416 18.488ZM441.095 18.496V19H443.127V18.488L442.687 18.432C442.623 18.432 442.591 18.416 442.575 18.4C442.559 18.384 442.559 18.336 442.559 18.272V16.152C442.559 15.712 442.463 15.376 442.287 15.136C442.103 14.904 441.799 14.784 441.383 14.784C441.111 14.784 440.871 14.832 440.663 14.912C440.447 15 440.223 15.12 439.991 15.264C439.807 14.944 439.487 14.784 439.039 14.784C438.783 14.784 438.543 14.832 438.335 14.92C438.118 15.016 437.895 15.144 437.671 15.32L437.639 15.312L437.575 14.864H436.391L436.311 15.376L436.751 15.528C436.815 15.552 436.855 15.608 436.855 15.696V18.272C436.855 18.336 436.847 18.376 436.831 18.392C436.815 18.416 436.775 18.432 436.727 18.432L436.343 18.496V19H438.295V18.488L437.903 18.432C437.839 18.432 437.807 18.416 437.791 18.4C437.775 18.384 437.775 18.336 437.775 18.272V15.96C438.118 15.688 438.447 15.552 438.767 15.552C438.975 15.552 439.111 15.632 439.175 15.776C439.231 15.928 439.263 16.152 439.263 16.44V18.28C439.263 18.336 439.255 18.376 439.239 18.4C439.223 18.424 439.183 18.44 439.135 18.44L438.711 18.496V19H440.679V18.488L440.311 18.432C440.247 18.432 440.215 18.416 440.199 18.4C440.183 18.384 440.183 18.336 440.183 18.272V16.328C440.183 16.152 440.167 16.008 440.151 15.88C440.286 15.792 440.447 15.72 440.623 15.656C440.799 15.592 440.967 15.56 441.135 15.56C441.335 15.56 441.471 15.632 441.535 15.776C441.599 15.92 441.639 16.128 441.639 16.4V18.28C441.639 18.336 441.631 18.376 441.615 18.4C441.599 18.424 441.559 18.44 441.511 18.44L441.095 18.496ZM445.545 19.096C446.073 19.096 446.585 18.976 447.081 18.72L446.825 18.08C446.577 18.184 446.369 18.256 446.193 18.296C446.017 18.344 445.841 18.36 445.649 18.36C445.273 18.36 445.001 18.264 444.833 18.064C444.657 17.864 444.561 17.568 444.545 17.176H447.129C447.145 17.024 447.153 16.872 447.153 16.712C447.153 16.048 447.001 15.56 446.705 15.248C446.401 14.944 445.985 14.784 445.457 14.784C445.097 14.784 444.777 14.864 444.489 15.024C444.201 15.184 443.977 15.416 443.817 15.736C443.649 16.056 443.569 16.448 443.569 16.912C443.569 17.584 443.721 18.12 444.033 18.512C444.337 18.904 444.841 19.096 445.545 19.096ZM446.017 15.72C446.161 15.88 446.233 16.144 446.233 16.512H444.553C444.569 16.168 444.665 15.912 444.825 15.736C444.985 15.568 445.193 15.48 445.441 15.48C445.681 15.48 445.873 15.56 446.017 15.72ZM447.71 18.48V19H450.03V18.488L449.278 18.424C449.214 18.424 449.182 18.408 449.166 18.392C449.15 18.376 449.142 18.328 449.142 18.264V15.968C449.246 15.872 449.374 15.776 449.526 15.688C449.67 15.6 449.814 15.552 449.95 15.552C449.982 15.552 450.006 15.56 450.022 15.568C450.03 15.584 450.038 15.608 450.046 15.64L450.142 16.136L450.862 16.168V14.856C450.79 14.84 450.694 14.824 450.566 14.808C450.438 14.792 450.334 14.784 450.238 14.784C449.79 14.784 449.398 15.008 449.062 15.456L449.038 15.448L448.95 14.864H447.758L447.678 15.376L448.118 15.528C448.15 15.544 448.182 15.568 448.198 15.592C448.214 15.624 448.222 15.656 448.222 15.696V18.272C448.222 18.336 448.214 18.376 448.198 18.392C448.182 18.416 448.142 18.432 448.094 18.432L447.71 18.48ZM454.761 15.88C454.705 15.752 454.633 15.624 454.537 15.496L455.289 15.448V14.864H453.833C453.641 14.816 453.393 14.784 453.081 14.784C452.521 14.784 452.081 14.928 451.777 15.208C451.465 15.496 451.313 15.864 451.313 16.32C451.313 16.592 451.369 16.832 451.481 17.04C451.593 17.248 451.745 17.4 451.937 17.496L451.633 17.832L451.497 17.992C451.361 18.144 451.297 18.296 451.297 18.448C451.297 18.552 451.321 18.648 451.385 18.736C451.441 18.824 451.537 18.896 451.665 18.944C451.497 19.104 451.377 19.24 451.297 19.368C451.217 19.496 451.177 19.64 451.177 19.816C451.177 20.136 451.321 20.384 451.625 20.552C451.921 20.72 452.409 20.8 453.089 20.8C453.777 20.8 454.297 20.688 454.665 20.448C455.033 20.216 455.217 19.888 455.217 19.456C455.217 19.144 455.137 18.912 454.993 18.76C454.849 18.616 454.633 18.512 454.361 18.464C454.081 18.416 453.665 18.376 453.113 18.344L452.129 18.296L452.497 17.688C452.641 17.736 452.865 17.76 453.169 17.76C453.649 17.76 454.049 17.632 454.369 17.376C454.681 17.12 454.841 16.768 454.841 16.32C454.841 16.16 454.809 16.008 454.761 15.88ZM453.785 15.656C453.945 15.808 454.025 16.016 454.025 16.288C454.025 16.536 453.937 16.736 453.769 16.88C453.601 17.032 453.377 17.104 453.105 17.104C452.793 17.104 452.561 17.032 452.417 16.888C452.273 16.744 452.201 16.552 452.201 16.304C452.201 16.016 452.281 15.8 452.449 15.656C452.617 15.512 452.841 15.432 453.129 15.432C453.409 15.432 453.625 15.512 453.785 15.656ZM451.993 19.672C451.993 19.512 452.089 19.328 452.297 19.112L453.529 19.184C453.721 19.2 453.873 19.216 453.969 19.232C454.065 19.248 454.145 19.288 454.209 19.336C454.265 19.392 454.297 19.472 454.297 19.584C454.297 19.808 454.169 19.96 453.929 20.04C453.681 20.12 453.409 20.16 453.113 20.16C452.745 20.16 452.465 20.128 452.273 20.048C452.081 19.976 451.993 19.848 451.993 19.672ZM457.576 19.096C458.104 19.096 458.616 18.976 459.112 18.72L458.856 18.08C458.608 18.184 458.4 18.256 458.224 18.296C458.048 18.344 457.872 18.36 457.68 18.36C457.304 18.36 457.032 18.264 456.864 18.064C456.688 17.864 456.592 17.568 456.576 17.176H459.16C459.176 17.024 459.184 16.872 459.184 16.712C459.184 16.048 459.032 15.56 458.736 15.248C458.432 14.944 458.016 14.784 457.488 14.784C457.128 14.784 456.808 14.864 456.52 15.024C456.232 15.184 456.008 15.416 455.848 15.736C455.68 16.056 455.6 16.448 455.6 16.912C455.6 17.584 455.752 18.12 456.064 18.512C456.368 18.904 456.872 19.096 457.576 19.096ZM458.048 15.72C458.192 15.88 458.264 16.144 458.264 16.512H456.584C456.6 16.168 456.696 15.912 456.856 15.736C457.016 15.568 457.224 15.48 457.472 15.48C457.712 15.48 457.904 15.56 458.048 15.72ZM462.309 18.496V19H464.325V18.488L463.885 18.432C463.821 18.432 463.789 18.416 463.773 18.4C463.757 18.384 463.757 18.336 463.757 18.272V16.248C463.757 15.768 463.661 15.408 463.469 15.16C463.277 14.912 462.981 14.784 462.565 14.784C462.293 14.784 462.045 14.832 461.805 14.92C461.565 15.016 461.317 15.144 461.069 15.312L461.037 15.304L460.973 14.864H459.789L459.709 15.376L460.149 15.528C460.213 15.552 460.253 15.608 460.253 15.696V18.272C460.253 18.336 460.245 18.376 460.229 18.392C460.213 18.416 460.173 18.432 460.125 18.432L459.741 18.48V19H461.725V18.488L461.301 18.432C461.237 18.432 461.205 18.416 461.189 18.4C461.173 18.384 461.173 18.336 461.173 18.272V15.968C461.325 15.856 461.501 15.76 461.693 15.68C461.885 15.6 462.077 15.552 462.269 15.552C462.501 15.552 462.653 15.632 462.725 15.776C462.797 15.928 462.837 16.144 462.837 16.432V18.288C462.837 18.344 462.829 18.384 462.813 18.408C462.797 18.432 462.757 18.448 462.709 18.448L462.309 18.496ZM467.556 19C467.812 18.936 468.028 18.848 468.204 18.736L467.94 18.112C467.628 18.28 467.292 18.36 466.924 18.36C466.124 18.36 465.724 17.88 465.724 16.912C465.724 16.416 465.828 16.048 466.036 15.816C466.244 15.584 466.516 15.464 466.852 15.464C467.06 15.464 467.22 15.488 467.348 15.536C467.396 15.56 467.428 15.6 467.436 15.648L467.532 16.176L468.196 16.208V15.072C468.068 15 467.884 14.936 467.652 14.872C467.42 14.816 467.164 14.784 466.892 14.784C466.244 14.784 465.724 14.976 465.34 15.344C464.956 15.712 464.764 16.264 464.764 16.984C464.764 17.632 464.924 18.144 465.26 18.528C465.596 18.912 466.1 19.096 466.772 19.096C467.036 19.096 467.3 19.064 467.556 19ZM469.269 20.168V20.696H471.637V20.176L470.837 20.096L472.709 15.568C472.725 15.52 472.749 15.488 472.781 15.472C472.813 15.456 472.853 15.448 472.909 15.432L473.173 15.392V14.864H471.525L471.437 15.392L471.965 15.456L470.973 17.928H470.941L469.941 15.456L470.461 15.392V14.864H468.597L468.493 15.392L468.821 15.464C468.869 15.48 468.909 15.488 468.925 15.504C468.941 15.52 468.965 15.552 468.989 15.6L470.461 18.992L470.053 19.928C470.021 19.992 469.989 20.04 469.965 20.064C469.941 20.088 469.901 20.104 469.837 20.104L469.269 20.168ZM478.434 18.488V19H480.722V18.488L480.234 18.408C480.17 18.4 480.122 18.384 480.09 18.36C480.058 18.344 480.026 18.304 479.994 18.248L478.178 15.712L479.802 13.92C479.834 13.88 479.866 13.848 479.898 13.832C479.93 13.816 479.978 13.808 480.05 13.792L480.426 13.72V13.208H478.506V13.728L479.002 13.792L476.914 16.104V13.936C476.914 13.88 476.914 13.84 476.93 13.824C476.946 13.808 476.978 13.792 477.042 13.784L477.578 13.72V13.208H475.346V13.72L475.85 13.776C475.898 13.784 475.938 13.8 475.954 13.816C475.97 13.832 475.978 13.872 475.978 13.936V18.272C475.978 18.336 475.97 18.376 475.954 18.392C475.938 18.416 475.898 18.432 475.85 18.432L475.346 18.488V19H477.578V18.488L477.042 18.424C476.978 18.424 476.946 18.408 476.93 18.392C476.914 18.376 476.914 18.328 476.914 18.264V17.096L477.506 16.432L478.93 18.408L478.434 18.488ZM482.459 13.928C482.563 13.824 482.619 13.672 482.619 13.48C482.619 13.296 482.563 13.152 482.459 13.048C482.347 12.952 482.203 12.896 482.019 12.896C481.827 12.896 481.675 12.952 481.571 13.048C481.467 13.152 481.419 13.296 481.419 13.48C481.419 13.672 481.467 13.824 481.571 13.928C481.675 14.032 481.827 14.08 482.019 14.08C482.203 14.08 482.347 14.032 482.459 13.928ZM481.051 18.496V19H483.179V18.488L482.707 18.432C482.643 18.432 482.611 18.416 482.595 18.4C482.579 18.384 482.579 18.336 482.579 18.272V14.864H481.195L481.115 15.376L481.555 15.528C481.619 15.552 481.659 15.608 481.659 15.696V18.272C481.659 18.336 481.651 18.376 481.635 18.392C481.619 18.416 481.579 18.432 481.531 18.432L481.051 18.496ZM485.305 19.096C485.689 19.096 486.081 19.008 486.489 18.816L486.305 18.24C486.041 18.336 485.809 18.376 485.609 18.376C485.385 18.376 485.233 18.328 485.153 18.224C485.073 18.128 485.033 17.952 485.033 17.696V15.52H486.257V14.864H485.097C485.065 14.864 485.041 14.864 485.041 14.848C485.033 14.84 485.033 14.816 485.033 14.784V13.744H484.449C484.393 14.12 484.289 14.408 484.145 14.6C483.993 14.8 483.769 14.92 483.473 14.952V15.52H484.049C484.073 15.52 484.089 15.528 484.097 15.536C484.105 15.552 484.113 15.568 484.113 15.6V17.936C484.113 18.336 484.201 18.632 484.393 18.816C484.585 19.008 484.889 19.096 485.305 19.096Z" fill="white"/>
<rect width="40" height="2" rx="1" transform="matrix(1 0 0.000538168 1 412 29)" fill="#D3376C"/>
<rect x="372" y="37" width="120" height="3" rx="1.5" fill="#E6E6E8"/>
<rect x="372" y="43" width="120" height="3" rx="1.5" fill="#E6E6E8"/>
<rect x="372" y="49" width="20" height="3" rx="1.5" fill="#E6E6E8"/>
<rect x="372.5" y="58.5" width="119" height="65" rx="1.5" fill="#FFF9FC" stroke="#D3376C"/>
<rect width="40" height="2" rx="1" transform="matrix(1 0 0.000538168 1 412 62)" fill="#D3376C"/>
<rect x="376" y="71" width="112" height="7" rx="1" fill="white"/>
<rect opacity="0.5" x="379" y="73" width="40" height="3" rx="1.5" fill="#D3376C"/>
<rect opacity="0.5" x="376" y="67" width="22" height="2" rx="1" fill="#35414C"/>
<rect x="376" y="85" width="112" height="7" rx="1" fill="white"/>
<rect x="379" y="87" width="26" height="3" rx="1.5" fill="#E6E6E8"/>
<rect opacity="0.5" x="376" y="81" width="22" height="2" rx="1" fill="#35414C"/>
<rect x="376" y="99" width="112" height="7" rx="1" fill="white"/>
<rect x="379" y="101" width="26" height="3" rx="1.5" fill="#E6E6E8"/>
<rect opacity="0.5" x="376" y="95" width="22" height="2" rx="1" fill="#35414C"/>
<rect x="376.125" y="113.125" width="111.75" height="6.75" rx="0.875" fill="white" stroke="#D3376C" stroke-width="0.25"/>
<circle cx="483.5" cy="116.5" r="1.5" fill="#B9BDC2"/>
<circle cx="380.5" cy="116.5" r="1.5" fill="#D3376C"/>
<rect opacity="0.5" x="376" y="109" width="22" height="2" rx="1" fill="#35414C"/>
<rect x="416" y="129" width="32" height="28" rx="3" fill="#E6E6E8"/>
<rect x="372" y="129" width="18" height="3" rx="1.5" fill="#E6E6E8"/>
<rect x="456" y="129" width="18" height="3" rx="1.5" fill="#E6E6E8"/>
<path opacity="0.25" d="M372 60.332C372 58.9602 372.931 57.7631 374.26 57.4247L479.507 30.6347C480.771 30.3128 482 31.2682 482 32.5729V145.517C482 146.793 480.821 147.743 479.574 147.471L374.361 124.515C372.982 124.214 372 122.994 372 121.584V60.332Z" fill="#D3376C"/>
<rect x="477" y="31" width="158" height="116" rx="3" fill="white"/>
<rect x="477" y="31" width="158" height="116" rx="3" fill="#FFDBEC" fill-opacity="0.6"/>
<rect x="477" y="31" width="158" height="116" rx="3" stroke="#D3376C" stroke-width="2"/>
<path d="M487.266 43.0469C487.949 43.0469 488.367 42.7168 488.367 42.1797C488.367 41.7129 488.039 41.4883 487.551 41.373L487.305 41.3125C487.049 41.25 486.715 41.1855 486.715 40.9277C486.715 40.6875 486.902 40.5195 487.238 40.5195C487.582 40.5195 487.775 40.707 487.797 40.9941H488.303C488.293 40.4414 487.895 40.0781 487.246 40.0781C486.598 40.0781 486.178 40.4258 486.178 40.9492C486.178 41.418 486.549 41.6094 486.967 41.7109L487.279 41.7871C487.586 41.8613 487.836 41.9102 487.836 42.1875C487.836 42.4316 487.625 42.6016 487.27 42.6016C486.871 42.6016 486.629 42.3887 486.627 42.0371H486.113C486.113 42.6875 486.559 43.0469 487.266 43.0469ZM489.497 40.125H488.966L488.966 43H489.497L489.497 40.125ZM491.434 43.0469C491.817 43.0469 492.069 42.8984 492.276 42.6582H492.282L492.323 43H492.694L492.694 41.4961H491.477L491.477 41.9023H492.198C492.182 42.2793 491.903 42.582 491.463 42.582C490.916 42.582 490.629 42.1836 490.629 41.5605C490.629 40.9336 490.932 40.543 491.455 40.543C491.817 40.543 492.092 40.7832 492.145 41.1387H492.674C492.62 40.5059 492.118 40.0781 491.45 40.0781C490.643 40.0781 490.088 40.6309 490.088 41.5645C490.088 42.4844 490.618 43.0469 491.434 43.0469ZM493.355 43H493.886L493.886 40.9648H493.894L495.218 43H495.752L495.752 40.125H495.22L495.22 42.1562H495.213L493.888 40.125H493.355L493.355 43ZM497.702 41.5938H496.407L496.407 42.0117H497.702L497.702 41.5938ZM498.889 40.125H498.357L498.357 43H498.889L498.889 40.125ZM499.552 43H500.083L500.083 40.9648H500.091L501.415 43H501.948L501.948 40.125H501.417L501.417 42.1562H501.409L500.085 40.125H499.552L499.552 43ZM503.752 43H504.306L504.55 42.2754H505.64L505.88 43H506.457L505.441 40.125H504.767L503.752 43ZM504.695 41.8457L505.095 40.6523H505.103L505.498 41.8457H504.695ZM506.975 43H507.989C508.876 43 509.391 42.4551 509.391 41.5605C509.391 40.666 508.874 40.125 508.009 40.125H506.975L506.975 43ZM507.507 42.5391L507.507 40.5859H507.981C508.577 40.5859 508.868 40.9336 508.868 41.5605C508.868 42.1875 508.579 42.5391 507.966 42.5391H507.507ZM509.982 43H510.996C511.883 43 512.398 42.4551 512.398 41.5605C512.398 40.666 511.881 40.125 511.016 40.125H509.982L509.982 43ZM510.514 42.5391L510.514 40.5859H510.988C511.584 40.5859 511.875 40.9336 511.875 41.5605C511.875 42.1875 511.586 42.5391 510.973 42.5391H510.514ZM512.989 43H513.511L513.511 41.9453H514.042L514.607 43H515.189L514.568 41.8594C514.904 41.7227 515.081 41.4336 515.081 41.0449C515.081 40.4941 514.728 40.125 514.07 40.125H512.989L512.989 43ZM513.511 41.5156L513.511 40.5605H513.989C514.378 40.5586 514.552 40.7402 514.55 41.0449C514.552 41.3496 514.378 41.5156 513.991 41.5156H513.511ZM515.731 43H517.674L517.674 42.5371H516.262L516.262 41.7578H517.493L517.493 41.3262H516.262L516.262 40.5879H517.643L517.643 40.125H515.731L515.731 43ZM519.377 43.0469C520.06 43.0469 520.478 42.7168 520.478 42.1797C520.478 41.7129 520.15 41.4883 519.662 41.373L519.416 41.3125C519.16 41.25 518.826 41.1855 518.826 40.9277C518.826 40.6875 519.013 40.5195 519.349 40.5195C519.693 40.5195 519.886 40.707 519.908 40.9941H520.414C520.404 40.4414 520.005 40.0781 519.357 40.0781C518.709 40.0781 518.289 40.4258 518.289 40.9492C518.289 41.418 518.66 41.6094 519.078 41.7109L519.39 41.7871C519.697 41.8613 519.947 41.9102 519.947 42.1875C519.947 42.4316 519.736 42.6016 519.38 42.6016C518.982 42.6016 518.74 42.3887 518.738 42.0371H518.224C518.224 42.6875 518.67 43.0469 519.377 43.0469ZM522.161 43.0469C522.845 43.0469 523.263 42.7168 523.263 42.1797C523.263 41.7129 522.934 41.4883 522.446 41.373L522.2 41.3125C521.944 41.25 521.61 41.1855 521.61 40.9277C521.61 40.6875 521.798 40.5195 522.134 40.5195C522.477 40.5195 522.671 40.707 522.692 40.9941H523.198C523.188 40.4414 522.79 40.0781 522.141 40.0781C521.493 40.0781 521.073 40.4258 521.073 40.9492C521.073 41.418 521.444 41.6094 521.862 41.7109L522.175 41.7871C522.481 41.8613 522.731 41.9102 522.731 42.1875C522.731 42.4316 522.52 42.6016 522.165 42.6016C521.766 42.6016 521.524 42.3887 521.522 42.0371H521.009C521.009 42.6875 521.454 43.0469 522.161 43.0469Z" fill="#35414C"/>
<rect x="486" y="46" width="140" height="10" rx="2" fill="white"/>
<path d="M490.814 51.1865C490.814 50.624 491.16 50.3779 491.579 50.3779C492.01 50.3779 492.285 50.6328 492.285 51.125L492.285 53H492.912L492.912 51.0488C492.912 50.249 492.394 49.833 491.758 49.833C491.271 49.833 490.958 50.0791 490.82 50.3984H490.806L490.806 48.6875H490.188L490.188 53H490.814L490.814 51.1865ZM494.735 53.0176C494.899 53.0176 495.019 53.0059 495.095 52.9912L495.031 52.4697C494.99 52.4785 494.914 52.4844 494.838 52.4844C494.641 52.4844 494.48 52.4492 494.48 52.1182L494.48 50.4219H495.072L495.072 49.9062H494.48L494.48 49.1475H493.85L493.85 49.9062H493.405L493.405 50.4219H493.85L493.85 52.2207C493.85 52.7832 494.254 53.0176 494.735 53.0176ZM496.813 53.0176C496.977 53.0176 497.097 53.0059 497.173 52.9912L497.109 52.4697C497.068 52.4785 496.991 52.4844 496.915 52.4844C496.719 52.4844 496.558 52.4492 496.558 52.1182L496.558 50.4219H497.15L497.15 49.9062H496.558L496.558 49.1475H495.928L495.928 49.9062H495.483L495.483 50.4219H495.928L495.928 52.2207C495.928 52.7832 496.332 53.0176 496.813 53.0176ZM497.804 54.2188H498.43L498.43 52.5342H498.445C498.63 52.8711 498.981 53.0469 499.388 53.0469C500.165 53.0469 500.695 52.4316 500.695 51.4531C500.695 50.4629 500.156 49.8594 499.391 49.8594C498.981 49.8594 498.647 50.0352 498.445 50.3867H498.43L498.43 49.9062H497.804L497.804 54.2188ZM498.398 51.4531C498.398 50.8027 498.723 50.3896 499.239 50.3896C499.728 50.3896 500.062 50.7588 500.062 51.4531C500.062 52.1475 499.728 52.5107 499.239 52.5107C498.723 52.5107 498.398 52.0977 498.398 51.4531ZM503.663 50.8613C503.646 50.2344 503.151 49.8594 502.451 49.8594C501.745 49.8594 501.261 50.2227 501.261 50.7764C501.261 51.2334 501.56 51.5322 502.152 51.6641L502.659 51.7754C502.922 51.834 503.098 51.9336 503.098 52.1445C503.098 52.3877 502.858 52.5371 502.48 52.5371C502.087 52.5371 501.85 52.3789 501.815 52.0479H501.191C501.235 52.7129 501.762 53.0469 502.489 53.0469C503.201 53.0469 503.731 52.7012 503.731 52.1094C503.731 51.667 503.444 51.3975 502.858 51.2656L502.33 51.1484C502.049 51.084 501.882 50.9668 501.882 50.7617C501.882 50.5303 502.117 50.3721 502.456 50.3721C502.817 50.3721 503.057 50.5625 503.063 50.8613H503.663ZM504.736 53.0381C504.968 53.0381 505.152 52.8477 505.158 52.6133C505.152 52.3789 504.968 52.1973 504.736 52.1943C504.496 52.1973 504.314 52.3789 504.317 52.6133C504.314 52.8506 504.499 53.0381 504.736 53.0381ZM504.736 50.6826C504.968 50.6826 505.152 50.4922 505.158 50.2578C505.152 50.0234 504.968 49.8418 504.736 49.8389C504.496 49.8418 504.314 50.0234 504.317 50.2578C504.314 50.4951 504.499 50.6826 504.736 50.6826ZM507.664 48.4824H507.101L505.712 53.6504H506.275L507.664 48.4824ZM509.917 48.4824H509.355L507.966 53.6504H508.529L509.917 48.4824ZM510.442 53H511.069L511.069 51.1396C511.069 50.6562 511.38 50.4014 511.737 50.4014C512.086 50.4014 512.332 50.6328 512.332 50.9844L512.332 53H512.95L512.95 51.0752C512.95 50.6826 513.193 50.4014 513.603 50.4014C513.934 50.4014 514.213 50.5859 514.213 51.0283L514.213 53H514.84L514.84 50.9697C514.84 50.2256 514.397 49.8594 513.82 49.8594C513.351 49.8594 512.991 50.1055 512.862 50.4277H512.85C512.73 50.0967 512.399 49.8594 511.969 49.8594C511.541 49.8594 511.192 50.0938 511.063 50.4277H511.052L511.052 49.9062H510.442L510.442 53ZM515.587 54.2656H515.962C516.428 54.2656 516.686 54.084 516.821 53.7324L518.268 49.9062H517.603L516.774 52.2617H516.762L515.924 49.9062H515.25L516.425 53C516.425 53 516.264 53.46 516.264 53.4629C516.205 53.6211 516.141 53.7119 515.921 53.7119H515.587L515.587 54.2656ZM518.975 53.0381C519.206 53.0381 519.391 52.8477 519.396 52.6133C519.391 52.3789 519.206 52.1973 518.975 52.1943C518.734 52.1973 518.553 52.3789 518.556 52.6133C518.553 52.8506 518.737 53.0381 518.975 53.0381ZM521.134 48.6875H520.502L519.426 49.3906L519.426 50.0146L520.458 49.3379H520.481L520.481 53H521.134L521.134 48.6875ZM521.882 54.2188H522.509L522.509 52.5342H522.524C522.708 52.8711 523.06 53.0469 523.467 53.0469C524.243 53.0469 524.774 52.4316 524.774 51.4531C524.774 50.4629 524.235 49.8594 523.47 49.8594C523.06 49.8594 522.726 50.0352 522.524 50.3867H522.509L522.509 49.9062H521.882L521.882 54.2188ZM522.477 51.4531C522.477 50.8027 522.802 50.3896 523.318 50.3896C523.807 50.3896 524.141 50.7588 524.141 51.4531C524.141 52.1475 523.807 52.5107 523.318 52.5107C522.802 52.5107 522.477 52.0977 522.477 51.4531ZM526.374 53.0439C526.904 53.0439 527.165 52.8125 527.3 52.5605H527.311L527.311 53H527.924L527.924 50.8789C527.924 50.2754 527.446 49.8594 526.684 49.8594C525.905 49.8594 525.407 50.293 525.378 50.8613H526.011C526.037 50.5801 526.292 50.375 526.679 50.375C527.068 50.375 527.297 50.5801 527.297 50.8789V50.8936C527.297 51.1191 527.103 51.1133 526.523 51.1836C525.893 51.2568 525.302 51.4121 525.302 52.1152C525.302 52.7334 525.759 53.0439 526.374 53.0439ZM526.509 52.543C526.151 52.543 525.931 52.3906 525.929 52.127C525.926 51.8164 526.23 51.6934 526.564 51.6465C526.889 51.6025 527.215 51.5498 527.3 51.4854L527.3 51.8428C527.3 52.2207 527.045 52.543 526.509 52.543ZM531.021 50.8613C531.003 50.2344 530.508 49.8594 529.808 49.8594C529.102 49.8594 528.619 50.2227 528.619 50.7764C528.619 51.2334 528.917 51.5322 529.509 51.6641L530.016 51.7754C530.28 51.834 530.455 51.9336 530.455 52.1445C530.455 52.3877 530.215 52.5371 529.837 52.5371C529.445 52.5371 529.207 52.3789 529.172 52.0479H528.548C528.592 52.7129 529.12 53.0469 529.846 53.0469C530.558 53.0469 531.088 52.7012 531.088 52.1094C531.088 51.667 530.801 51.3975 530.215 51.2656L529.688 51.1484C529.407 51.084 529.24 50.9668 529.24 50.7617C529.24 50.5303 529.474 50.3721 529.814 50.3721C530.174 50.3721 530.414 50.5625 530.42 50.8613H531.021ZM534.054 50.8613C534.036 50.2344 533.541 49.8594 532.841 49.8594C532.135 49.8594 531.651 50.2227 531.651 50.7764C531.651 51.2334 531.95 51.5322 532.542 51.6641L533.049 51.7754C533.313 51.834 533.488 51.9336 533.488 52.1445C533.488 52.3877 533.248 52.5371 532.87 52.5371C532.478 52.5371 532.24 52.3789 532.205 52.0479H531.581C531.625 52.7129 532.152 53.0469 532.879 53.0469C533.591 53.0469 534.121 52.7012 534.121 52.1094C534.121 51.667 533.834 51.3975 533.248 51.2656L532.721 51.1484C532.439 51.084 532.272 50.9668 532.272 50.7617C532.272 50.5303 532.507 50.3721 532.847 50.3721C533.207 50.3721 533.447 50.5625 533.453 50.8613H534.054ZM535.431 53H536.052L536.7 50.8057H536.712L537.35 53H537.98L538.912 49.9062H538.261L537.643 52.1328H537.631L537.019 49.9062H536.395L535.771 52.1445H535.759L535.15 49.9062H534.5L535.431 53ZM540.714 53.0469C541.605 53.0469 542.208 52.3965 542.208 51.459C542.208 50.5098 541.602 49.8594 540.714 49.8594C539.826 49.8594 539.22 50.5098 539.22 51.459C539.22 52.3965 539.826 53.0469 540.714 53.0469ZM540.714 52.5137C540.21 52.5137 539.856 52.0889 539.853 51.459C539.853 50.8203 540.204 50.3867 540.714 50.3867C541.218 50.3867 541.575 50.8203 541.575 51.459C541.575 52.0889 541.218 52.5137 540.714 52.5137ZM542.827 53H543.454L543.454 51.166C543.454 50.6738 543.741 50.4395 544.084 50.4395C544.224 50.4395 544.359 50.4629 544.415 50.4805L544.415 49.8828C544.362 49.8711 544.28 49.8594 544.186 49.8594C543.808 49.8594 543.559 50.0703 543.445 50.416H543.428L543.428 49.9062H542.827L542.827 53ZM545.986 53.0469C546.393 53.0469 546.73 52.874 546.932 52.5254H546.944L546.944 53H547.571L547.571 48.6875H546.941L546.941 50.3779H546.929C546.747 50.0381 546.396 49.8594 545.983 49.8594C545.221 49.8594 544.682 50.4629 544.682 51.4531C544.682 52.4316 545.209 53.0469 545.986 53.0469ZM546.135 52.5166C545.649 52.5166 545.312 52.1475 545.312 51.4531C545.312 50.7559 545.649 50.3926 546.135 50.3926C546.651 50.3926 546.976 50.8027 546.976 51.4531C546.976 52.0977 546.651 52.5166 546.135 52.5166ZM548.705 53.0381C548.937 53.0381 549.121 52.8477 549.127 52.6133C549.121 52.3789 548.937 52.1973 548.705 52.1943C548.465 52.1973 548.283 52.3789 548.286 52.6133C548.283 52.8506 548.468 53.0381 548.705 53.0381ZM551.161 53.0469C551.978 53.0469 552.435 52.5049 552.47 51.916H551.84C551.826 52.2588 551.53 52.5107 551.158 52.5107C550.68 52.5107 550.349 52.0889 550.349 51.459C550.349 50.8203 550.671 50.3896 551.155 50.3896C551.577 50.3896 551.805 50.6768 551.861 50.9873H552.47C552.447 50.4541 551.984 49.8594 551.152 49.8594C550.291 49.8594 549.716 50.5186 549.716 51.459C549.716 52.3877 550.302 53.0469 551.161 53.0469ZM554.454 53.0469C555.345 53.0469 555.948 52.3965 555.948 51.459C555.948 50.5098 555.342 49.8594 554.454 49.8594C553.567 49.8594 552.96 50.5098 552.96 51.459C552.96 52.3965 553.567 53.0469 554.454 53.0469ZM554.454 52.5137C553.95 52.5137 553.596 52.0889 553.593 51.459C553.593 50.8203 553.945 50.3867 554.454 50.3867C554.958 50.3867 555.316 50.8203 555.316 51.459C555.316 52.0889 554.958 52.5137 554.454 52.5137ZM556.567 53H557.194L557.194 51.1396C557.194 50.6562 557.505 50.4014 557.862 50.4014C558.211 50.4014 558.457 50.6328 558.457 50.9844L558.457 53H559.075L559.075 51.0752C559.075 50.6826 559.318 50.4014 559.728 50.4014C560.059 50.4014 560.338 50.5859 560.338 51.0283L560.338 53H560.965L560.965 50.9697C560.965 50.2256 560.522 49.8594 559.945 49.8594C559.476 49.8594 559.116 50.1055 558.987 50.4277H558.975C558.855 50.0967 558.524 49.8594 558.094 49.8594C557.666 49.8594 557.317 50.0938 557.188 50.4277H557.177L557.177 49.9062H556.567L556.567 53Z" fill="#D3376C"/>
<path d="M486.182 64H488.125L488.125 63.5371H486.713L486.713 62.7578H487.943L487.943 62.3262H486.713L486.713 61.5879H488.094L488.094 61.125H486.182L486.182 64ZM488.743 64H489.269L489.269 61.9238H489.277L490.027 64H490.456L491.206 61.9277H491.214L491.214 64H491.745L491.745 61.125H491.034L490.249 63.25H490.241L489.448 61.125H488.743L488.743 64ZM492.264 64H492.819L493.063 63.2754H494.153L494.393 64H494.969L493.954 61.125H493.28L492.264 64ZM493.207 62.8457L493.608 61.6523H493.616L494.01 62.8457H493.207ZM496.019 61.125H495.488L495.488 64H496.019L496.019 61.125ZM496.682 64H498.47L498.47 63.5391H497.216L497.216 61.125H496.682L496.682 64ZM500.195 64H500.749L500.993 63.2754H502.083L502.323 64H502.9L501.884 61.125H501.21L500.195 64ZM501.138 62.8457L501.538 61.6523H501.546L501.941 62.8457H501.138ZM503.418 64H504.432C505.319 64 505.834 63.4551 505.834 62.5605C505.834 61.666 505.317 61.125 504.452 61.125H503.418L503.418 64ZM503.95 63.5391L503.95 61.5859H504.424C505.02 61.5859 505.311 61.9336 505.311 62.5605C505.311 63.1875 505.022 63.5391 504.409 63.5391H503.95ZM506.425 64H507.439C508.326 64 508.841 63.4551 508.841 62.5605C508.841 61.666 508.324 61.125 507.459 61.125H506.425L506.425 64ZM506.957 63.5391L506.957 61.5859H507.431C508.027 61.5859 508.318 61.9336 508.318 62.5605C508.318 63.1875 508.029 63.5391 507.416 63.5391H506.957ZM509.432 64H509.954L509.954 62.9453H510.485L511.05 64H511.632L511.011 62.8594C511.346 62.7227 511.524 62.4336 511.524 62.0449C511.524 61.4941 511.171 61.125 510.513 61.125H509.432L509.432 64ZM509.954 62.5156L509.954 61.5605H510.432C510.821 61.5586 510.995 61.7402 510.993 62.0449C510.995 62.3496 510.821 62.5156 510.434 62.5156H509.954ZM512.174 64H514.117L514.117 63.5371H512.705L512.705 62.7578H513.936L513.936 62.3262H512.705L512.705 61.5879H514.086L514.086 61.125H512.174L512.174 64ZM515.82 64.0469C516.503 64.0469 516.921 63.7168 516.921 63.1797C516.921 62.7129 516.593 62.4883 516.105 62.373L515.859 62.3125C515.603 62.25 515.269 62.1855 515.269 61.9277C515.269 61.6875 515.456 61.5195 515.792 61.5195C516.136 61.5195 516.329 61.707 516.351 61.9941H516.857C516.847 61.4414 516.448 61.0781 515.8 61.0781C515.152 61.0781 514.732 61.4258 514.732 61.9492C514.732 62.418 515.103 62.6094 515.521 62.7109L515.833 62.7871C516.14 62.8613 516.39 62.9102 516.39 63.1875C516.39 63.4316 516.179 63.6016 515.823 63.6016C515.425 63.6016 515.183 63.3887 515.181 63.0371H514.667C514.667 63.6875 515.112 64.0469 515.82 64.0469ZM518.604 64.0469C519.288 64.0469 519.705 63.7168 519.705 63.1797C519.705 62.7129 519.377 62.4883 518.889 62.373L518.643 62.3125C518.387 62.25 518.053 62.1855 518.053 61.9277C518.053 61.6875 518.241 61.5195 518.577 61.5195C518.92 61.5195 519.114 61.707 519.135 61.9941H519.641C519.631 61.4414 519.233 61.0781 518.584 61.0781C517.936 61.0781 517.516 61.4258 517.516 61.9492C517.516 62.418 517.887 62.6094 518.305 62.7109L518.618 62.7871C518.924 62.8613 519.174 62.9102 519.174 63.1875C519.174 63.4316 518.963 63.6016 518.608 63.6016C518.209 63.6016 517.967 63.3887 517.965 63.0371H517.452C517.452 63.6875 517.897 64.0469 518.604 64.0469Z" fill="#35414C"/>
<rect x="486" y="67" width="140" height="10" rx="2" fill="white"/>
<path d="M489.751 75.2656H489.997C490.533 75.2656 490.829 74.9785 490.829 74.4658L490.829 70.9062H490.202L490.202 74.4541C490.202 74.624 490.105 74.7119 489.933 74.7119H489.751L489.751 75.2656ZM490.516 70.3643C490.727 70.3643 490.899 70.1943 490.902 69.9863C490.899 69.7754 490.727 69.6055 490.516 69.6055C490.299 69.6055 490.126 69.7754 490.129 69.9863C490.126 70.1943 490.299 70.3643 490.516 70.3643ZM492.576 74.0439C493.106 74.0439 493.367 73.8125 493.502 73.5605H493.513L493.513 74H494.126L494.126 71.8789C494.126 71.2754 493.648 70.8594 492.886 70.8594C492.107 70.8594 491.609 71.293 491.58 71.8613H492.212C492.239 71.5801 492.494 71.375 492.88 71.375C493.27 71.375 493.499 71.5801 493.499 71.8789L493.499 71.8936C493.499 72.1191 493.305 72.1133 492.725 72.1836C492.095 72.2568 491.504 72.4121 491.504 73.1152C491.504 73.7334 491.961 74.0439 492.576 74.0439ZM492.711 73.543C492.353 73.543 492.133 73.3906 492.13 73.127C492.128 72.8164 492.432 72.6934 492.766 72.6465C493.091 72.6025 493.417 72.5498 493.502 72.4854L493.502 72.8428C493.502 73.2207 493.247 73.543 492.711 73.543ZM495.506 72.2129C495.506 71.6504 495.834 71.4043 496.25 71.4043C496.681 71.4043 496.959 71.6621 496.959 72.1543L496.959 74H497.586L497.586 72.0781C497.586 71.2783 497.068 70.8594 496.429 70.8594C495.946 70.8594 495.638 71.1055 495.5 71.4277H495.488L495.488 70.9062H494.876L494.876 74H495.506L495.506 72.2129ZM499.667 74.0469C500.367 74.0469 500.897 73.6514 501.014 73.0508H500.411C500.323 73.3408 500.021 73.5312 499.67 73.5312C499.151 73.5312 498.841 73.1211 498.841 72.6172H501.053L501.053 72.4561C501.053 71.5098 500.528 70.8594 499.652 70.8594C498.776 70.8594 498.208 71.5156 498.208 72.459C498.208 73.4023 498.779 74.0469 499.667 74.0469ZM498.844 72.1572C498.87 71.7441 499.169 71.3721 499.646 71.3721C500.092 71.3721 500.426 71.6914 500.44 72.1572H498.844ZM502.061 74.0381C502.292 74.0381 502.477 73.8477 502.483 73.6133C502.477 73.3789 502.292 73.1973 502.061 73.1943C501.821 73.1973 501.639 73.3789 501.642 73.6133C501.639 73.8506 501.824 74.0381 502.061 74.0381ZM504.376 74.0469C504.783 74.0469 505.12 73.874 505.322 73.5254H505.334L505.334 74H505.961L505.961 69.6875H505.331L505.331 71.3779H505.319C505.138 71.0381 504.786 70.8594 504.373 70.8594C503.611 70.8594 503.072 71.4629 503.072 72.4531C503.072 73.4316 503.6 74.0469 504.376 74.0469ZM504.525 73.5166C504.039 73.5166 503.702 73.1475 503.702 72.4531C503.702 71.7559 504.039 71.3926 504.525 71.3926C505.041 71.3926 505.366 71.8027 505.366 72.4531C505.366 73.0977 505.041 73.5166 504.525 73.5166ZM508.074 74.0469C508.964 74.0469 509.568 73.3965 509.568 72.459C509.568 71.5098 508.962 70.8594 508.074 70.8594C507.186 70.8594 506.58 71.5098 506.58 72.459C506.58 73.3965 507.186 74.0469 508.074 74.0469ZM508.074 73.5137C507.57 73.5137 507.215 73.0889 507.212 72.459C507.212 71.8203 507.564 71.3867 508.074 71.3867C508.578 71.3867 508.935 71.8203 508.935 72.459C508.935 73.0889 508.578 73.5137 508.074 73.5137ZM511.558 74.0469C512.258 74.0469 512.788 73.6514 512.905 73.0508H512.302C512.214 73.3408 511.912 73.5312 511.561 73.5312C511.042 73.5312 510.732 73.1211 510.732 72.6172H512.944L512.944 72.4561C512.944 71.5098 512.419 70.8594 511.543 70.8594C510.667 70.8594 510.099 71.5156 510.099 72.459C510.099 73.4023 510.67 74.0469 511.558 74.0469ZM510.735 72.1572C510.761 71.7441 511.06 71.3721 511.537 71.3721C511.983 71.3721 512.317 71.6914 512.331 72.1572H510.735ZM516.176 75.1719C516.659 75.1719 517.219 75.04 517.482 74.9199L517.333 74.457C517.157 74.5215 516.671 74.6738 516.202 74.6738C514.784 74.6738 514.022 73.8916 514.022 72.4941C514.022 71.1553 514.772 70.291 516.12 70.291C517.353 70.291 518.086 71.082 518.089 72.1514C518.086 73.0625 517.969 73.4756 517.585 73.4756C517.371 73.4756 517.251 73.2998 517.251 73.0771L517.251 71.123H516.732L516.732 71.3574H516.709C516.641 71.1729 516.275 71.0088 515.839 71.0586C515.226 71.1318 514.705 71.6328 514.705 72.4619C514.705 73.3291 515.147 73.9092 515.859 73.9355C516.337 73.9561 516.647 73.7334 516.747 73.4844H516.773C516.823 73.8242 517.189 73.9736 517.55 73.9648C518.446 73.9443 518.619 73.0596 518.616 72.1719C518.619 70.9033 517.752 69.8018 516.143 69.7988C514.453 69.8018 513.463 70.8301 513.463 72.4912C513.463 74.1992 514.429 75.1719 516.176 75.1719ZM515.979 73.4199C515.429 73.4199 515.238 72.9482 515.241 72.4385C515.238 71.9551 515.511 71.5684 515.988 71.5684C516.501 71.5684 516.735 71.7998 516.735 72.4385C516.738 73.0947 516.527 73.4199 515.979 73.4199ZM520.571 74.0469C521.271 74.0469 521.801 73.6514 521.918 73.0508H521.315C521.227 73.3408 520.925 73.5312 520.574 73.5312C520.055 73.5312 519.745 73.1211 519.745 72.6172H521.956L521.956 72.4561C521.956 71.5098 521.432 70.8594 520.556 70.8594C519.68 70.8594 519.112 71.5156 519.112 72.459C519.112 73.4023 519.683 74.0469 520.571 74.0469ZM519.747 72.1572C519.774 71.7441 520.073 71.3721 520.55 71.3721C520.996 71.3721 521.329 71.6914 521.344 72.1572H519.747ZM522.578 74H523.205L523.205 72.1396C523.205 71.6562 523.516 71.4014 523.873 71.4014C524.222 71.4014 524.468 71.6328 524.468 71.9844L524.468 74H525.086L525.086 72.0752C525.086 71.6826 525.329 71.4014 525.739 71.4014C526.07 71.4014 526.349 71.5859 526.349 72.0283L526.349 74H526.976L526.976 71.9697C526.976 71.2256 526.533 70.8594 525.956 70.8594C525.487 70.8594 525.127 71.1055 524.998 71.4277H524.986C524.866 71.0967 524.535 70.8594 524.104 70.8594C523.677 70.8594 523.328 71.0938 523.199 71.4277H523.188L523.188 70.9062H522.578L522.578 74ZM528.705 74.0439C529.235 74.0439 529.496 73.8125 529.63 73.5605H529.642L529.642 74H530.254L530.254 71.8789C530.254 71.2754 529.777 70.8594 529.015 70.8594C528.236 70.8594 527.738 71.293 527.709 71.8613H528.341C528.368 71.5801 528.623 71.375 529.009 71.375C529.399 71.375 529.628 71.5801 529.628 71.8789V71.8936C529.628 72.1191 529.434 72.1133 528.854 72.1836C528.224 72.2568 527.632 72.4121 527.632 73.1152C527.632 73.7334 528.089 74.0439 528.705 74.0439ZM528.839 73.543C528.482 73.543 528.262 73.3906 528.259 73.127C528.256 72.8164 528.561 72.6934 528.895 72.6465C529.22 72.6025 529.546 72.5498 529.63 72.4854L529.63 72.8428C529.63 73.2207 529.376 73.543 528.839 73.543ZM531.005 74H531.632L531.632 70.9062H531.005L531.005 74ZM531.321 70.3643C531.532 70.3643 531.705 70.1943 531.708 69.9863C531.705 69.7754 531.532 69.6055 531.321 69.6055C531.105 69.6055 530.932 69.7754 530.935 69.9863C530.932 70.1943 531.105 70.3643 531.321 70.3643ZM533.01 69.6875H532.38L532.38 74H533.01L533.01 69.6875ZM534.147 74.0381C534.378 74.0381 534.563 73.8477 534.569 73.6133C534.563 73.3789 534.378 73.1973 534.147 73.1943C533.907 73.1973 533.725 73.3789 533.728 73.6133C533.725 73.8506 533.91 74.0381 534.147 74.0381ZM536.603 74.0469C537.42 74.0469 537.877 73.5049 537.912 72.916H537.282C537.268 73.2588 536.972 73.5107 536.6 73.5107C536.122 73.5107 535.791 73.0889 535.791 72.459C535.791 71.8203 536.113 71.3896 536.597 71.3896C537.019 71.3896 537.247 71.6768 537.303 71.9873H537.912C537.889 71.4541 537.426 70.8594 536.594 70.8594C535.732 70.8594 535.158 71.5186 535.158 72.459C535.158 73.3877 535.744 74.0469 536.603 74.0469ZM539.896 74.0469C540.787 74.0469 541.39 73.3965 541.39 72.459C541.39 71.5098 540.784 70.8594 539.896 70.8594C539.008 70.8594 538.402 71.5098 538.402 72.459C538.402 73.3965 539.008 74.0469 539.896 74.0469ZM539.896 73.5137C539.392 73.5137 539.038 73.0889 539.035 72.459C539.035 71.8203 539.386 71.3867 539.896 71.3867C540.4 71.3867 540.757 71.8203 540.757 72.459C540.757 73.0889 540.4 73.5137 539.896 73.5137ZM542.009 74H542.636L542.636 72.1396C542.636 71.6562 542.946 71.4014 543.304 71.4014C543.653 71.4014 543.899 71.6328 543.899 71.9844L543.899 74H544.517L544.517 72.0752C544.517 71.6826 544.76 71.4014 545.17 71.4014C545.501 71.4014 545.779 71.5859 545.779 72.0283L545.779 74H546.406L546.406 71.9697C546.406 71.2256 545.964 70.8594 545.387 70.8594C544.918 70.8594 544.558 71.1055 544.429 71.4277H544.417C544.297 71.0967 543.966 70.8594 543.535 70.8594C543.108 70.8594 542.759 71.0938 542.63 71.4277H542.618L542.618 70.9062H542.009L542.009 74Z" fill="#051627"/>
<path d="M487.266 85.0469C487.949 85.0469 488.367 84.7168 488.367 84.1797C488.367 83.7129 488.039 83.4883 487.551 83.373L487.305 83.3125C487.049 83.25 486.715 83.1855 486.715 82.9277C486.715 82.6875 486.902 82.5195 487.238 82.5195C487.582 82.5195 487.775 82.707 487.797 82.9941H488.303C488.293 82.4414 487.895 82.0781 487.246 82.0781C486.598 82.0781 486.178 82.4258 486.178 82.9492C486.178 83.418 486.549 83.6094 486.967 83.7109L487.279 83.7871C487.586 83.8613 487.836 83.9102 487.836 84.1875C487.836 84.4316 487.625 84.6016 487.27 84.6016C486.871 84.6016 486.629 84.3887 486.627 84.0371H486.113C486.113 84.6875 486.559 85.0469 487.266 85.0469ZM488.966 85H490.909L490.909 84.5371H489.497L489.497 83.7578H490.728L490.728 83.3262H489.497L489.497 82.5879H490.878L490.878 82.125H488.966L488.966 85ZM492.809 85.0469C493.508 85.0469 494.012 84.5801 494.053 83.9316H493.522C493.485 84.3203 493.198 84.582 492.821 84.582C492.287 84.582 491.998 84.1953 491.998 83.5625C491.998 82.9277 492.299 82.543 492.819 82.543C493.188 82.543 493.461 82.791 493.522 83.1934H494.053C494 82.5137 493.469 82.0781 492.809 82.0781C492.014 82.0781 491.454 82.6309 491.455 83.5625C491.454 84.4902 492.002 85.0469 492.809 85.0469ZM494.644 85H495.166L495.166 83.9453H495.697L496.261 85H496.843L496.222 83.8594C496.558 83.7227 496.736 83.4336 496.736 83.0449C496.736 82.4941 496.382 82.125 495.724 82.125H494.644L494.644 85ZM495.166 83.5156L495.166 82.5605H495.644C496.033 82.5586 496.207 82.7402 496.205 83.0449C496.207 83.3496 496.033 83.5156 495.646 83.5156H495.166ZM497.386 85H499.329L499.329 84.5371H497.917L497.917 83.7578H499.147L499.147 83.3262H497.917L497.917 82.5879H499.298L499.298 82.125H497.386L497.386 85ZM499.797 82.5879H500.711L500.711 85H501.242L501.242 82.5879H502.158L502.158 82.125H499.797L499.797 82.5879ZM503.957 85H504.489L504.489 84.0352L504.793 83.707L505.711 85H506.352L505.145 83.3379L506.264 82.125H505.592L504.489 83.3457L504.489 82.125H503.957L503.957 85ZM506.828 85H508.771L508.771 84.5371H507.359L507.359 83.7578H508.589L508.589 83.3262H507.359L507.359 82.5879H508.74L508.74 82.125H506.828L506.828 85ZM509.263 82.125L510.309 83.9297L510.309 85H510.827L510.827 83.9297L511.872 82.125H511.286L510.583 83.3984H510.554L509.85 82.125H509.263Z" fill="#35414C"/>
<rect x="486" y="88" width="140" height="10" rx="2" fill="white"/>
<path d="M493.164 94.3584H493.214C493.319 94.3584 493.399 94.3857 493.454 94.4404C493.509 94.4932 493.536 94.5713 493.536 94.6748C493.536 94.79 493.507 94.873 493.448 94.9238C493.392 94.9746 493.297 95 493.164 95H492.282C492.147 95 492.052 94.9756 491.995 94.9268C491.938 94.876 491.91 94.792 491.91 94.6748C491.91 94.5615 491.938 94.4805 491.995 94.4316C492.052 94.3828 492.147 94.3584 492.282 94.3584H492.385L492.265 94.0156H490.999L490.873 94.3584H490.976C491.108 94.3584 491.203 94.3838 491.26 94.4346C491.318 94.4834 491.348 94.5635 491.348 94.6748C491.348 94.79 491.318 94.873 491.26 94.9238C491.203 94.9746 491.108 95 490.976 95H490.22C490.085 95 489.989 94.9746 489.933 94.9238C489.876 94.873 489.848 94.79 489.848 94.6748C489.848 94.5713 489.875 94.4932 489.93 94.4404C489.984 94.3857 490.064 94.3584 490.17 94.3584H490.22L491.005 92.1729H490.771C490.638 92.1729 490.542 92.1475 490.483 92.0967C490.427 92.0459 490.398 91.9639 490.398 91.8506C490.398 91.7354 490.427 91.6523 490.483 91.6016C490.542 91.5508 490.638 91.5254 490.771 91.5254H491.869C492.043 91.5254 492.165 91.6191 492.235 91.8066V91.8154L493.164 94.3584ZM491.629 92.1729L491.204 93.4092H492.054L491.629 92.1729ZM496.027 92.9902C496.252 93.0605 496.419 93.1719 496.528 93.3242C496.638 93.4746 496.692 93.6709 496.692 93.9131C496.692 94.2783 496.568 94.5684 496.32 94.7832C496.074 94.9961 495.738 95.1025 495.312 95.1025C494.969 95.1025 494.684 95.0459 494.46 94.9326C494.235 94.8193 494.123 94.6816 494.123 94.5195C494.123 94.4238 494.153 94.3467 494.214 94.2881C494.276 94.2275 494.358 94.1973 494.46 94.1973C494.509 94.1973 494.633 94.2412 494.832 94.3291C495.031 94.417 495.207 94.4609 495.359 94.4609C495.543 94.4609 495.683 94.4121 495.781 94.3145C495.881 94.2148 495.93 94.0732 495.93 93.8896C495.93 93.6924 495.888 93.5518 495.804 93.4678C495.722 93.3838 495.564 93.3369 495.33 93.3271C495.207 93.3232 495.124 93.2998 495.081 93.2568C495.04 93.2119 495.019 93.1328 495.019 93.0195C495.019 92.8633 495.103 92.7734 495.271 92.75C495.295 92.748 495.312 92.7461 495.324 92.7441C495.535 92.7148 495.672 92.665 495.734 92.5947C495.797 92.5225 495.828 92.4062 495.828 92.2461C495.828 92.1074 495.79 92 495.714 91.9238C495.639 91.8457 495.534 91.8066 495.397 91.8066C495.253 91.8066 495.091 91.8525 494.911 91.9443C494.731 92.0342 494.607 92.0791 494.539 92.0791C494.463 92.0791 494.401 92.0547 494.354 92.0059C494.309 91.9551 494.287 91.8916 494.287 91.8154C494.287 91.6494 494.402 91.5068 494.633 91.3877C494.863 91.2686 495.147 91.209 495.485 91.209C495.825 91.209 496.096 91.2969 496.297 91.4727C496.5 91.6484 496.601 91.8818 496.601 92.1729C496.601 92.3643 496.554 92.5264 496.461 92.6592C496.369 92.79 496.224 92.9004 496.027 92.9902ZM498.073 93.3154H500.502C500.548 93.3154 500.584 93.3271 500.607 93.3506C500.632 93.374 500.645 93.4082 500.645 93.4531L500.645 93.8193C500.645 93.8604 500.629 93.8975 500.598 93.9307C500.569 93.9639 500.537 93.9805 500.502 93.9805H498.073C498.034 93.9805 498.003 93.9658 497.979 93.9365C497.958 93.9072 497.947 93.8682 497.947 93.8193L497.947 93.4531C497.947 93.4121 497.959 93.3789 497.982 93.3535C498.005 93.3281 498.036 93.3154 498.073 93.3154ZM503.989 91.6221C504.026 91.5518 504.065 91.502 504.106 91.4727C504.149 91.4434 504.202 91.4287 504.264 91.4287C504.36 91.4287 504.427 91.4541 504.466 91.5049C504.507 91.5557 504.528 91.6426 504.528 91.7656L504.534 92.5273C504.534 92.6621 504.511 92.7529 504.466 92.7998C504.423 92.8467 504.343 92.8701 504.226 92.8701C504.144 92.8701 504.079 92.8506 504.033 92.8115C503.988 92.7705 503.951 92.6982 503.921 92.5947C503.869 92.4072 503.788 92.2734 503.678 92.1934C503.569 92.1133 503.415 92.0732 503.218 92.0732C502.917 92.0732 502.687 92.1748 502.527 92.3779C502.369 92.5811 502.289 92.875 502.289 93.2598C502.289 93.6445 502.372 93.9424 502.538 94.1533C502.706 94.3623 502.944 94.4668 503.25 94.4668C503.321 94.4668 503.401 94.459 503.491 94.4434C503.58 94.4258 503.686 94.3994 503.807 94.3643L503.807 93.9014H503.476C503.343 93.9014 503.248 93.877 503.192 93.8281C503.137 93.7793 503.11 93.6982 503.11 93.585C503.11 93.4678 503.137 93.3848 503.192 93.3359C503.248 93.2852 503.343 93.2598 503.476 93.2598H504.534C504.67 93.2598 504.766 93.2842 504.821 93.333C504.877 93.3818 504.906 93.4639 504.906 93.5791C504.906 93.6826 504.877 93.7627 504.821 93.8193C504.766 93.874 504.686 93.9014 504.58 93.9014H504.534L504.534 94.5986L504.534 94.6338C504.534 94.6963 504.527 94.7402 504.513 94.7656C504.499 94.7891 504.472 94.8135 504.431 94.8389C504.32 94.9053 504.143 94.9639 503.901 95.0146C503.659 95.0654 503.413 95.0908 503.165 95.0908C502.654 95.0908 502.24 94.9219 501.923 94.584C501.607 94.2461 501.449 93.8047 501.449 93.2598C501.449 92.7344 501.609 92.2979 501.929 91.9502C502.249 91.6025 502.656 91.4287 503.148 91.4287C503.285 91.4287 503.42 91.4443 503.555 91.4756C503.692 91.5068 503.836 91.5557 503.989 91.6221ZM506.424 92.1729L506.424 92.8467H507.382L507.382 92.1729H507.335C507.23 92.1729 507.149 92.1455 507.092 92.0908C507.037 92.0361 507.01 91.9561 507.01 91.8506C507.01 91.7354 507.038 91.6523 507.095 91.6016C507.154 91.5508 507.249 91.5254 507.382 91.5254H508.138C508.271 91.5254 508.364 91.5508 508.419 91.6016C508.476 91.6523 508.504 91.7354 508.504 91.8506C508.504 91.9561 508.477 92.0361 508.422 92.0908C508.369 92.1455 508.291 92.1729 508.188 92.1729H508.138L508.138 94.3584H508.188C508.293 94.3584 508.373 94.3857 508.428 94.4404C508.483 94.4932 508.51 94.5713 508.51 94.6748C508.51 94.79 508.482 94.873 508.425 94.9238C508.368 94.9746 508.273 95 508.138 95H507.382C507.247 95 507.152 94.9756 507.095 94.9268C507.038 94.876 507.01 94.792 507.01 94.6748C507.01 94.5713 507.037 94.4932 507.092 94.4404C507.149 94.3857 507.23 94.3584 507.335 94.3584H507.382L507.382 93.4941H506.424L506.424 94.3584H506.471C506.576 94.3584 506.656 94.3857 506.711 94.4404C506.768 94.4932 506.796 94.5713 506.796 94.6748C506.796 94.79 506.767 94.873 506.708 94.9238C506.652 94.9746 506.557 95 506.424 95H505.668C505.533 95 505.438 94.9756 505.381 94.9268C505.324 94.876 505.296 94.792 505.296 94.6748C505.296 94.5713 505.323 94.4932 505.378 94.4404C505.433 94.3857 505.513 94.3584 505.618 94.3584H505.668L505.668 92.1729H505.618C505.515 92.1729 505.436 92.1455 505.381 92.0908C505.328 92.0361 505.302 91.9561 505.302 91.8506C505.302 91.7354 505.329 91.6523 505.384 91.6016C505.441 91.5508 505.535 91.5254 505.668 91.5254H506.424C506.555 91.5254 506.65 91.5508 506.708 91.6016C506.767 91.6523 506.796 91.7354 506.796 91.8506C506.796 91.9561 506.768 92.0361 506.711 92.0908C506.656 92.1455 506.576 92.1729 506.471 92.1729H506.424ZM511.695 92.167H511.083L511.083 94.3525H511.575C511.706 94.3525 511.8 94.3779 511.856 94.4287C511.913 94.4795 511.941 94.5615 511.941 94.6748C511.941 94.79 511.913 94.873 511.856 94.9238C511.8 94.9746 511.706 95 511.575 95H509.835C509.706 95 509.613 94.9746 509.557 94.9238C509.5 94.873 509.472 94.79 509.472 94.6748C509.472 94.5596 509.499 94.4775 509.554 94.4287C509.61 94.3779 509.704 94.3525 509.835 94.3525H510.327L510.327 92.167H509.715L509.697 92.7617L509.697 92.835C509.697 92.9287 509.671 93.002 509.618 93.0547C509.567 93.1074 509.496 93.1338 509.404 93.1338C509.295 93.1338 509.214 93.1064 509.161 93.0518C509.11 92.9951 509.085 92.9062 509.085 92.7852L509.085 92.7617L509.117 91.8857C509.123 91.7119 509.146 91.6074 509.188 91.5723C509.23 91.5371 509.316 91.5195 509.445 91.5195H511.965C512.094 91.5195 512.179 91.5371 512.22 91.5723C512.263 91.6074 512.288 91.7119 512.296 91.8857L512.325 92.7617L512.325 92.7852C512.325 92.9082 512.301 92.9971 512.252 93.0518C512.203 93.1064 512.124 93.1338 512.015 93.1338C511.909 93.1338 511.833 93.1074 511.786 93.0547C511.741 93 511.717 92.9023 511.713 92.7617L511.695 92.167ZM513.905 92.1729L513.905 93.7051C513.905 93.9766 513.952 94.1699 514.046 94.2852C514.141 94.3984 514.3 94.4551 514.52 94.4551C514.741 94.4551 514.899 94.3975 514.995 94.2822C515.091 94.167 515.138 93.9746 515.138 93.7051L515.138 92.1729H515.092C514.988 92.1729 514.909 92.1455 514.854 92.0908C514.802 92.0361 514.775 91.9561 514.775 91.8506C514.775 91.7354 514.803 91.6523 514.857 91.6016C514.914 91.5508 515.008 91.5254 515.138 91.5254H515.871C516.004 91.5254 516.097 91.5508 516.152 91.6016C516.209 91.6523 516.237 91.7354 516.237 91.8506C516.237 91.9561 516.21 92.0361 516.155 92.0908C516.102 92.1455 516.024 92.1729 515.921 92.1729H515.871L515.871 93.6934C515.871 94.1855 515.764 94.542 515.552 94.7627C515.341 94.9814 515 95.0908 514.529 95.0908C514.037 95.0908 513.683 94.9834 513.469 94.7686C513.256 94.5518 513.149 94.1934 513.149 93.6934L513.149 92.1729H513.099C512.994 92.1729 512.914 92.1455 512.859 92.0908C512.804 92.0361 512.777 91.9561 512.777 91.8506C512.777 91.7354 512.805 91.6523 512.862 91.6016C512.921 91.5508 513.016 91.5254 513.149 91.5254H513.905C514.036 91.5254 514.131 91.5508 514.189 91.6016C514.248 91.6523 514.277 91.7354 514.277 91.8506C514.277 91.9561 514.249 92.0361 514.192 92.0908C514.138 92.1455 514.057 92.1729 513.952 92.1729H513.905ZM517.079 94.3584L517.079 92.1729H517.029C516.923 92.1729 516.843 92.1455 516.789 92.0908C516.734 92.0361 516.707 91.9561 516.707 91.8506C516.707 91.7373 516.736 91.6553 516.795 91.6045C516.853 91.5518 516.948 91.5254 517.079 91.5254H517.629H517.802C518.211 91.5254 518.509 91.543 518.699 91.5781C518.888 91.6133 519.049 91.6719 519.182 91.7539C519.419 91.8945 519.599 92.0957 519.724 92.3574C519.851 92.6172 519.915 92.918 519.915 93.2598C519.915 93.6211 519.842 93.9375 519.698 94.209C519.555 94.4785 519.352 94.6826 519.088 94.8213C518.969 94.8838 518.83 94.9297 518.67 94.959C518.509 94.9863 518.271 95 517.955 95H517.629H517.079C516.944 95 516.848 94.9756 516.792 94.9268C516.735 94.876 516.707 94.792 516.707 94.6748C516.707 94.5713 516.734 94.4932 516.789 94.4404C516.843 94.3857 516.923 94.3584 517.029 94.3584H517.079ZM517.835 92.1611L517.835 94.3584H518.002C518.371 94.3584 518.643 94.2686 518.819 94.0889C518.995 93.9072 519.083 93.6289 519.083 93.2539C519.083 92.8848 518.993 92.6094 518.813 92.4277C518.635 92.2461 518.367 92.1553 518.007 92.1553C517.961 92.1553 517.924 92.1562 517.899 92.1582C517.876 92.1582 517.854 92.1592 517.835 92.1611ZM522.956 92.1436H521.594L521.594 92.8936H522.11L522.11 92.8584C522.11 92.7471 522.134 92.6641 522.183 92.6094C522.232 92.5547 522.306 92.5273 522.406 92.5273C522.494 92.5273 522.565 92.5527 522.62 92.6035C522.676 92.6523 522.704 92.7148 522.704 92.791C522.704 92.7949 522.705 92.8076 522.707 92.8291C522.709 92.8506 522.71 92.8721 522.71 92.8936L522.71 93.5C522.71 93.6309 522.687 93.7246 522.64 93.7812C522.593 93.8379 522.517 93.8662 522.412 93.8662C522.312 93.8662 522.237 93.8398 522.186 93.7871C522.135 93.7344 522.11 93.6562 522.11 93.5527L522.11 93.5H521.594L521.594 94.376H522.956L522.956 94.0273C522.956 93.8965 522.981 93.8027 523.03 93.7461C523.08 93.6895 523.163 93.6611 523.276 93.6611C523.387 93.6611 523.466 93.6895 523.513 93.7461C523.562 93.8008 523.586 93.8945 523.586 94.0273L523.586 94.7363C523.586 94.8418 523.566 94.9121 523.525 94.9473C523.484 94.9824 523.403 95 523.282 95H520.882C520.753 95 520.661 94.9746 520.604 94.9238C520.549 94.873 520.522 94.79 520.522 94.6748C520.522 94.5713 520.548 94.4932 520.601 94.4404C520.654 94.3857 520.731 94.3584 520.832 94.3584H520.882L520.882 92.1729H520.832C520.733 92.1729 520.656 92.1455 520.601 92.0908C520.548 92.0342 520.522 91.9541 520.522 91.8506C520.522 91.7373 520.55 91.6553 520.607 91.6045C520.663 91.5518 520.755 91.5254 520.882 91.5254H523.282C523.401 91.5254 523.481 91.5439 523.522 91.5811C523.565 91.6162 523.586 91.6875 523.586 91.7949L523.586 92.4512C523.586 92.584 523.562 92.6797 523.513 92.7383C523.464 92.7949 523.385 92.8232 523.276 92.8232C523.163 92.8232 523.08 92.7939 523.03 92.7354C522.981 92.6768 522.956 92.582 522.956 92.4512L522.956 92.1436ZM524.697 93.3154H527.126C527.173 93.3154 527.208 93.3271 527.232 93.3506C527.257 93.374 527.27 93.4082 527.27 93.4531L527.27 93.8193C527.27 93.8604 527.254 93.8975 527.223 93.9307C527.194 93.9639 527.161 93.9805 527.126 93.9805H524.697C524.658 93.9805 524.627 93.9658 524.604 93.9365C524.582 93.9072 524.571 93.8682 524.571 93.8193L524.571 93.4531C524.571 93.4121 524.583 93.3789 524.607 93.3535C524.63 93.3281 524.66 93.3154 524.697 93.3154ZM528.788 93.043C528.788 92.7852 528.88 92.5625 529.063 92.375C529.247 92.1875 529.466 92.0938 529.72 92.0938C529.978 92.0938 530.198 92.1875 530.382 92.375C530.565 92.5625 530.657 92.7852 530.657 93.043C530.657 93.3008 530.565 93.5215 530.382 93.7051C530.198 93.8887 529.978 93.9805 529.72 93.9805C529.466 93.9805 529.247 93.8887 529.063 93.7051C528.88 93.5215 528.788 93.3008 528.788 93.043ZM532.592 93.043C532.592 92.7852 532.683 92.5625 532.867 92.375C533.051 92.1875 533.269 92.0938 533.523 92.0938C533.781 92.0938 534.002 92.1875 534.185 92.375C534.369 92.5625 534.461 92.7852 534.461 93.043C534.461 93.3008 534.369 93.5215 534.185 93.7051C534.002 93.8887 533.781 93.9805 533.523 93.9805C533.269 93.9805 533.051 93.8887 532.867 93.7051C532.683 93.5215 532.592 93.3008 532.592 93.043ZM536.395 93.043C536.395 92.7852 536.487 92.5625 536.671 92.375C536.854 92.1875 537.073 92.0938 537.327 92.0938C537.585 92.0938 537.805 92.1875 537.989 92.375C538.172 92.5625 538.264 92.7852 538.264 93.043C538.264 93.3008 538.172 93.5215 537.989 93.7051C537.805 93.8887 537.585 93.9805 537.327 93.9805C537.073 93.9805 536.854 93.8887 536.671 93.7051C536.487 93.5215 536.395 93.3008 536.395 93.043ZM540.199 93.043C540.199 92.7852 540.29 92.5625 540.474 92.375C540.658 92.1875 540.876 92.0938 541.13 92.0938C541.388 92.0938 541.609 92.1875 541.792 92.375C541.976 92.5625 542.068 92.7852 542.068 93.043C542.068 93.3008 541.976 93.5215 541.792 93.7051C541.609 93.8887 541.388 93.9805 541.13 93.9805C540.876 93.9805 540.658 93.8887 540.474 93.7051C540.29 93.5215 540.199 93.3008 540.199 93.043ZM544.002 93.043C544.002 92.7852 544.094 92.5625 544.278 92.375C544.461 92.1875 544.68 92.0938 544.934 92.0938C545.192 92.0938 545.412 92.1875 545.596 92.375C545.779 92.5625 545.871 92.7852 545.871 93.043C545.871 93.3008 545.779 93.5215 545.596 93.7051C545.412 93.8887 545.192 93.9805 544.934 93.9805C544.68 93.9805 544.461 93.8887 544.278 93.7051C544.094 93.5215 544.002 93.3008 544.002 93.043ZM547.806 93.043C547.806 92.7852 547.897 92.5625 548.081 92.375C548.265 92.1875 548.483 92.0938 548.737 92.0938C548.995 92.0938 549.216 92.1875 549.399 92.375C549.583 92.5625 549.675 92.7852 549.675 93.043C549.675 93.3008 549.583 93.5215 549.399 93.7051C549.216 93.8887 548.995 93.9805 548.737 93.9805C548.483 93.9805 548.265 93.8887 548.081 93.7051C547.897 93.5215 547.806 93.3008 547.806 93.043ZM551.322 93.3154H553.751C553.798 93.3154 553.833 93.3271 553.856 93.3506C553.882 93.374 553.894 93.4082 553.894 93.4531L553.894 93.8193C553.894 93.8604 553.879 93.8975 553.847 93.9307C553.818 93.9639 553.786 93.9805 553.751 93.9805H551.322C551.283 93.9805 551.252 93.9658 551.228 93.9365C551.207 93.9072 551.196 93.8682 551.196 93.8193L551.196 93.4531C551.196 93.4121 551.208 93.3789 551.231 93.3535C551.255 93.3281 551.285 93.3154 551.322 93.3154ZM555.413 93.043C555.413 92.7852 555.504 92.5625 555.688 92.375C555.872 92.1875 556.09 92.0938 556.344 92.0938C556.602 92.0938 556.823 92.1875 557.006 92.375C557.19 92.5625 557.282 92.7852 557.282 93.043C557.282 93.3008 557.19 93.5215 557.006 93.7051C556.823 93.8887 556.602 93.9805 556.344 93.9805C556.09 93.9805 555.872 93.8887 555.688 93.7051C555.504 93.5215 555.413 93.3008 555.413 93.043ZM559.216 93.043C559.216 92.7852 559.308 92.5625 559.492 92.375C559.675 92.1875 559.894 92.0938 560.148 92.0938C560.406 92.0938 560.626 92.1875 560.81 92.375C560.994 92.5625 561.085 92.7852 561.085 93.043C561.085 93.3008 560.994 93.5215 560.81 93.7051C560.626 93.8887 560.406 93.9805 560.148 93.9805C559.894 93.9805 559.675 93.8887 559.492 93.7051C559.308 93.5215 559.216 93.3008 559.216 93.043ZM563.02 93.043C563.02 92.7852 563.112 92.5625 563.295 92.375C563.479 92.1875 563.697 92.0938 563.951 92.0938C564.209 92.0938 564.43 92.1875 564.613 92.375C564.797 92.5625 564.889 92.7852 564.889 93.043C564.889 93.3008 564.797 93.5215 564.613 93.7051C564.43 93.8887 564.209 93.9805 563.951 93.9805C563.697 93.9805 563.479 93.8887 563.295 93.7051C563.112 93.5215 563.02 93.3008 563.02 93.043ZM566.823 93.043C566.823 92.7852 566.915 92.5625 567.099 92.375C567.282 92.1875 567.501 92.0938 567.755 92.0938C568.013 92.0938 568.233 92.1875 568.417 92.375C568.601 92.5625 568.692 92.7852 568.692 93.043C568.692 93.3008 568.601 93.5215 568.417 93.7051C568.233 93.8887 568.013 93.9805 567.755 93.9805C567.501 93.9805 567.282 93.8887 567.099 93.7051C566.915 93.5215 566.823 93.3008 566.823 93.043ZM570.627 93.043C570.627 92.7852 570.719 92.5625 570.902 92.375C571.086 92.1875 571.304 92.0938 571.558 92.0938C571.816 92.0938 572.037 92.1875 572.221 92.375C572.404 92.5625 572.496 92.7852 572.496 93.043C572.496 93.3008 572.404 93.5215 572.221 93.7051C572.037 93.8887 571.816 93.9805 571.558 93.9805C571.304 93.9805 571.086 93.8887 570.902 93.7051C570.719 93.5215 570.627 93.3008 570.627 93.043ZM574.43 93.043C574.43 92.7852 574.522 92.5625 574.706 92.375C574.889 92.1875 575.108 92.0938 575.362 92.0938C575.62 92.0938 575.84 92.1875 576.024 92.375C576.208 92.5625 576.299 92.7852 576.299 93.043C576.299 93.3008 576.208 93.5215 576.024 93.7051C575.84 93.8887 575.62 93.9805 575.362 93.9805C575.108 93.9805 574.889 93.8887 574.706 93.7051C574.522 93.5215 574.43 93.3008 574.43 93.043ZM577.947 93.3154H580.375C580.422 93.3154 580.457 93.3271 580.481 93.3506C580.506 93.374 580.519 93.4082 580.519 93.4531L580.519 93.8193C580.519 93.8604 580.503 93.8975 580.472 93.9307C580.443 93.9639 580.411 93.9805 580.375 93.9805H577.947C577.908 93.9805 577.876 93.9658 577.853 93.9365C577.831 93.9072 577.821 93.8682 577.821 93.8193L577.821 93.4531C577.821 93.4121 577.832 93.3789 577.856 93.3535C577.879 93.3281 577.91 93.3154 577.947 93.3154ZM582.037 93.043C582.037 92.7852 582.129 92.5625 582.313 92.375C582.496 92.1875 582.715 92.0938 582.969 92.0938C583.227 92.0938 583.447 92.1875 583.631 92.375C583.815 92.5625 583.906 92.7852 583.906 93.043C583.906 93.3008 583.815 93.5215 583.631 93.7051C583.447 93.8887 583.227 93.9805 582.969 93.9805C582.715 93.9805 582.496 93.8887 582.313 93.7051C582.129 93.5215 582.037 93.3008 582.037 93.043ZM585.841 93.043C585.841 92.7852 585.933 92.5625 586.116 92.375C586.3 92.1875 586.519 92.0938 586.772 92.0938C587.03 92.0938 587.251 92.1875 587.435 92.375C587.618 92.5625 587.71 92.7852 587.71 93.043C587.71 93.3008 587.618 93.5215 587.435 93.7051C587.251 93.8887 587.03 93.9805 586.772 93.9805C586.519 93.9805 586.3 93.8887 586.116 93.7051C585.933 93.5215 585.841 93.3008 585.841 93.043ZM589.644 93.043C589.644 92.7852 589.736 92.5625 589.92 92.375C590.103 92.1875 590.322 92.0938 590.576 92.0938C590.834 92.0938 591.054 92.1875 591.238 92.375C591.422 92.5625 591.513 92.7852 591.513 93.043C591.513 93.3008 591.422 93.5215 591.238 93.7051C591.054 93.8887 590.834 93.9805 590.576 93.9805C590.322 93.9805 590.103 93.8887 589.92 93.7051C589.736 93.5215 589.644 93.3008 589.644 93.043ZM593.448 93.043C593.448 92.7852 593.54 92.5625 593.723 92.375C593.907 92.1875 594.126 92.0938 594.379 92.0938C594.637 92.0938 594.858 92.1875 595.042 92.375C595.225 92.5625 595.317 92.7852 595.317 93.043C595.317 93.3008 595.225 93.5215 595.042 93.7051C594.858 93.8887 594.637 93.9805 594.379 93.9805C594.126 93.9805 593.907 93.8887 593.723 93.7051C593.54 93.5215 593.448 93.3008 593.448 93.043ZM597.251 93.043C597.251 92.7852 597.343 92.5625 597.527 92.375C597.71 92.1875 597.929 92.0938 598.183 92.0938C598.441 92.0938 598.662 92.1875 598.845 92.375C599.029 92.5625 599.121 92.7852 599.121 93.043C599.121 93.3008 599.029 93.5215 598.845 93.7051C598.662 93.8887 598.441 93.9805 598.183 93.9805C597.929 93.9805 597.71 93.8887 597.527 93.7051C597.343 93.5215 597.251 93.3008 597.251 93.043ZM601.055 93.043C601.055 92.7852 601.147 92.5625 601.33 92.375C601.514 92.1875 601.733 92.0938 601.987 92.0938C602.244 92.0938 602.465 92.1875 602.649 92.375C602.832 92.5625 602.924 92.7852 602.924 93.043C602.924 93.3008 602.832 93.5215 602.649 93.7051C602.465 93.8887 602.244 93.9805 601.987 93.9805C601.733 93.9805 601.514 93.8887 601.33 93.7051C601.147 93.5215 601.055 93.3008 601.055 93.043Z" fill="#051627"/>
<path fill-rule="evenodd" clip-rule="evenodd" d="M611.838 90.5C612.222 90.5 612.605 90.7308 612.759 91.0385C612.989 91.5 612.912 91.6538 612.836 91.7308L613.219 91.5769C613.373 91.5769 613.526 91.5769 613.526 91.8846C613.526 92.1154 613.449 92.1923 613.296 92.1923H613.142L613.219 92.4231L613.449 92.5769C613.373 92.5769 613.296 92.1923 613.603 92.1923C613.91 92.1923 614.063 92.4231 614.063 92.4231L614.216 92.5H614.523C614.6 92.5 614.677 92.5 614.753 92.6538H620.737C620.89 92.6538 621.044 92.8077 621.044 92.9615V93.1154C621.044 93.2692 620.89 93.3462 620.737 93.3462H620.353C620.353 93.5 620.2 93.5769 620.047 93.5769H619.893V94.0385H620.277C620.43 94.0385 620.584 94.1923 620.584 94.3462V94.9615C620.584 95.1154 620.43 95.2692 620.277 95.2692H619.663C619.607 95.2563 619.556 95.2278 619.515 95.187C619.474 95.1462 619.446 95.0947 619.433 95.0385C619.433 94.8846 619.51 94.8077 619.663 94.8077H620.123V94.5769H619.663C619.62 94.5975 619.572 94.6042 619.525 94.5961C619.478 94.5881 619.435 94.5656 619.401 94.5319C619.367 94.4981 619.345 94.4547 619.337 94.4077C619.329 94.3607 619.336 94.3123 619.356 94.2692V93.5769H619.126V94.3462C619.126 94.4231 619.049 94.5769 618.896 94.5769H618.436V94.8077H618.896C619.049 94.8077 619.126 94.8077 619.126 95.0385C619.126 95.1923 619.049 95.2692 618.896 95.2692H618.282C618.201 95.2692 618.123 95.2368 618.065 95.1791C618.008 95.1214 617.975 95.0431 617.975 94.9615V94.3462C617.975 94.1923 618.129 94.0385 618.282 94.0385H618.666V93.5769H618.512C618.452 93.5848 618.39 93.5744 618.335 93.547C618.281 93.5196 618.236 93.4765 618.206 93.4231H614.753L614.523 93.5769H614.293L614.216 93.5H614.063C614.063 93.5 613.91 93.8846 613.679 93.8846H613.603C613.296 93.8077 613.373 93.5 613.449 93.5L613.219 93.5769C613.066 93.8077 613.219 93.8846 613.219 93.8846L613.296 93.8077C613.449 93.8077 613.526 93.8077 613.526 94.1154C613.526 94.3462 613.373 94.4231 613.219 94.4231L612.836 94.3462C612.836 94.3462 612.989 94.5769 612.759 94.9615C612.529 95.2692 612.222 95.5 611.838 95.5H611.532C610.995 95.2692 610.534 94.8077 610.534 94.1923L610.227 94.2692H610.074C609.844 94.0385 609.844 93.6538 610.227 93.6538L609.997 93.5L609.767 93.7308H609.69L609.384 93.6538C609.384 93.6538 609.23 93.4231 609.384 93.1923C609.23 93.1923 609.077 93.1923 609 93.0385C609 92.8077 609.23 92.8077 609.307 92.8077C609.23 92.5769 609.384 92.3462 609.384 92.3462H609.767C609.921 92.3462 609.997 92.5769 609.997 92.5769L610.227 92.3462C609.844 92.3462 609.844 92.0385 610.074 91.8077L610.227 91.7308L610.534 91.8077C610.534 91.4609 610.672 91.1283 610.916 90.883C611.161 90.6378 611.492 90.5 611.838 90.5ZM611.838 91.1154C611.685 91.1154 611.532 91.1154 611.378 91.2692C610.995 91.5769 611.071 91.8077 611.071 91.8077C611.378 91.8077 611.685 92.1154 611.378 92.4231L611.071 92.5C610.918 92.5 610.688 92.2692 610.688 92.2692C610.688 92.5769 610.381 92.8846 610.151 93.0385C610.381 93.1154 610.688 93.4231 610.688 93.8077C610.688 93.8077 610.918 93.5 611.071 93.5L611.378 93.5769C611.685 93.8846 611.378 94.1923 611.071 94.1923C610.764 94.1923 610.995 94.5 611.378 94.7308L611.915 94.8846C612.145 94.8846 612.375 94.8077 612.452 94.5769V94.1154L612.222 94.2692L612.069 94.1923C611.838 94.0385 611.915 93.8077 611.992 93.7308C611.992 93.6538 612.145 93.5 612.299 93.5H612.375L612.682 93.7308C612.682 93.7308 612.836 93.3462 612.989 93.2692V92.7308C612.836 92.7308 612.759 92.3462 612.759 92.3462L612.375 92.5H612.299C612.145 92.5 611.992 92.3462 611.992 92.2692C611.915 92.2692 611.838 91.9615 611.992 91.8077H612.222L612.375 91.8846C612.375 91.8846 612.529 91.8077 612.375 91.4231C612.375 91.1923 612.145 91.1154 611.915 91.1154H611.838Z" fill="#FFAA05" stroke="#FFAA05" stroke-width="0.5" stroke-linejoin="round"/>
<path d="M486.182 106H486.703L486.703 105.027H487.254C487.916 105.027 488.273 104.629 488.273 104.078C488.273 103.527 487.92 103.125 487.262 103.125H486.182L486.182 106ZM486.703 104.6L486.703 103.561H487.182C487.57 103.559 487.744 103.771 487.742 104.078C487.744 104.383 487.57 104.6 487.184 104.6H486.703ZM488.398 106H488.952L489.196 105.275H490.286L490.527 106H491.103L490.087 103.125H489.413L488.398 106ZM489.341 104.846L489.741 103.652H489.749L490.144 104.846H489.341ZM492.659 106.047C493.342 106.047 493.76 105.717 493.76 105.18C493.76 104.713 493.432 104.488 492.944 104.373L492.698 104.312C492.442 104.25 492.108 104.186 492.108 103.928C492.108 103.688 492.295 103.52 492.631 103.52C492.975 103.52 493.168 103.707 493.19 103.994H493.696C493.686 103.441 493.287 103.078 492.639 103.078C491.991 103.078 491.571 103.426 491.571 103.949C491.571 104.418 491.942 104.609 492.36 104.711L492.672 104.787C492.979 104.861 493.229 104.91 493.229 105.188C493.229 105.432 493.018 105.602 492.662 105.602C492.264 105.602 492.022 105.389 492.02 105.037H491.506C491.506 105.688 491.952 106.047 492.659 106.047ZM495.443 106.047C496.127 106.047 496.545 105.717 496.545 105.18C496.545 104.713 496.216 104.488 495.728 104.373L495.482 104.312C495.226 104.25 494.892 104.186 494.892 103.928C494.892 103.688 495.08 103.52 495.416 103.52C495.759 103.52 495.953 103.707 495.974 103.994H496.48C496.47 103.441 496.072 103.078 495.423 103.078C494.775 103.078 494.355 103.426 494.355 103.949C494.355 104.418 494.726 104.609 495.144 104.711L495.457 104.787C495.763 104.861 496.013 104.91 496.013 105.188C496.013 105.432 495.802 105.602 495.447 105.602C495.048 105.602 494.806 105.389 494.804 105.037H494.291C494.291 105.688 494.736 106.047 495.443 106.047ZM497.821 106H498.337L498.921 103.973H498.929L499.511 106H500.026L500.837 103.125H500.278L499.749 105.236H499.745L499.179 103.125H498.669L498.104 105.236H498.1L497.571 103.125H497.012L497.821 106ZM503.824 104.562C503.822 103.639 503.271 103.078 502.49 103.078C501.703 103.078 501.143 103.639 501.145 104.562C501.143 105.484 501.703 106.047 502.49 106.047C503.273 106.047 503.824 105.486 503.824 104.562ZM503.293 104.562C503.293 105.195 502.994 105.58 502.49 105.58C501.98 105.58 501.684 105.195 501.688 104.562C501.684 103.93 501.979 103.545 502.488 103.545C502.992 103.545 503.291 103.93 503.293 104.562ZM504.415 106H504.937L504.937 104.945H505.468L506.032 106H506.614L505.993 104.859C506.329 104.723 506.507 104.434 506.507 104.045C506.507 103.494 506.154 103.125 505.495 103.125H504.415L504.415 106ZM504.937 104.516L504.937 103.561H505.415C505.804 103.559 505.978 103.74 505.976 104.045C505.978 104.35 505.804 104.516 505.417 104.516H504.937ZM507.157 106H508.17C509.057 106 509.573 105.455 509.573 104.561C509.573 103.666 509.055 103.125 508.19 103.125H507.157L507.157 106ZM507.688 105.539L507.688 103.586H508.163C508.758 103.586 509.049 103.934 509.049 104.561C509.049 105.188 508.76 105.539 508.147 105.539H507.688Z" fill="#35414C"/>
<rect x="486.5" y="109.5" width="139" height="9" rx="1.5" fill="white" stroke="#D3376C"/>
<circle cx="619" cy="114" r="2.5" fill="#B9BDC2"/>
<path fill-rule="evenodd" clip-rule="evenodd" d="M493.635 113.686L491.361 115.96L489.569 116.616L490.225 114.823L492.498 112.549L493.635 113.686ZM490.334 115.282L490.902 115.851L490.006 116.179L490.334 115.282ZM493.198 111.85C493.39 111.657 493.718 111.671 493.927 111.879L494.306 112.258C494.514 112.466 494.527 112.794 494.335 112.987L493.81 113.511L492.673 112.375L493.198 111.85Z" fill="#D3376C"/>
</g>
<defs>
<clipPath id="clip0_5829_754778">
<rect width="1000" height="132" fill="white"/>
</clipPath>
</defs>
</svg>
